<?xml version="1.0" encoding="utf-8"?>
<!-- Generator: Adobe Illustrator 21.0.0, SVG Export Plug-In . SVG Version: 6.00 Build 0)  -->
<svg version="1.1" id="图层_1" xmlns="http://www.w3.org/2000/svg" xmlns:xlink="http://www.w3.org/1999/xlink" x="0px" y="0px"
	 viewBox="0 0 732 618" style="enable-background:new 0 0 732 618;" xml:space="preserve">
<style type="text/css">
	.st0{fill:url(#底部_1_);}
	.st1{fill:url(#暗角反光_1_);}
	.st2{fill:url(#中高光_1_);}
	.st3{fill:url(#SVGID_1_);}
	.st4{fill:#073A76;}
	.st5{fill:url(#顶-背景_1_);}
	.st6{fill:url(#SVGID_2_);}
	.st7{fill:url(#SVGID_3_);}
	.st8{fill:url(#SVGID_4_);}
	.st9{fill:#97D3FF;}
	.st10{fill:none;stroke:#97D3FF;stroke-miterlimit:10;}
	.st11{fill:none;stroke:#CAD7E0;stroke-width:2;stroke-miterlimit:10;}
</style>
<linearGradient id="底部_1_" gradientUnits="userSpaceOnUse" x1="11.7886" y1="-4950.0957" x2="670.1587" y2="-4950.0957" gradientTransform="matrix(1 0 0 -1 0 -4610.0449)">
	<stop  offset="0" style="stop-color:#E7EFF5"/>
	<stop  offset="8.248134e-02" style="stop-color:#C3C5D2"/>
	<stop  offset="0.1567" style="stop-color:#C6C8D5"/>
	<stop  offset="0.2045" style="stop-color:#CED3DD"/>
	<stop  offset="0.2548" style="stop-color:#DDE4EC"/>
	<stop  offset="0.2787" style="stop-color:#DFE6EE"/>
	<stop  offset="0.4041" style="stop-color:#98A5B5"/>
	<stop  offset="0.995" style="stop-color:#7E8EA0"/>
</linearGradient>
<path id="底部_7_" class="st0" d="M12.6,291.6v190.7c0,22.6,11.8,43.5,31,55.1l71,53.1c43,26.2,96.9,26.2,139.8,0l434.7-293.6
	c19.2-11.8,31-32.7,31-55.1V70L12.6,291.6z"/>
<linearGradient id="暗角反光_1_" gradientUnits="userSpaceOnUse" x1="11.6524" y1="-4950.8936" x2="705.0454" y2="-4950.8936" gradientTransform="matrix(1 0 0 -1 0 -4610.0449)">
	<stop  offset="0" style="stop-color:#C3C6D2"/>
	<stop  offset="0.1409" style="stop-color:#C3C6D2;stop-opacity:0"/>
</linearGradient>
<path id="暗角反光_7_" class="st1" d="M15.5,299.9c-1.7,0.6-2.9,2.2-2.9,4v182.6c0,22.6,11.8,43.5,31,55.1l70.9,48.8
	c0.1,0.1,0.2,0.1,0.2,0.2c43,26.1,96.8,26.1,139.7-0.1l434.7-293.6c19.2-11.8,31-32.7,31-55.1v-166c0-2.9-2.8-4.9-5.5-4L15.5,299.9z
	"/>
<linearGradient id="中高光_1_" gradientUnits="userSpaceOnUse" x1="167.481" y1="-5393.2769" x2="167.481" y2="-5225.6997" gradientTransform="matrix(1 0 0 -1 0 -4810.0449)">
	<stop  offset="0" style="stop-color:#FFFFFF;stop-opacity:0"/>
	<stop  offset="1" style="stop-color:#FFFFFF;stop-opacity:0.3"/>
</linearGradient>
<path id="中高光_3_" class="st2" d="M109.5,342.2h86.1v267.6c-27.8,1.8-56.1-3.2-80.8-14.9l-5.3-2.7L109.5,342.2L109.5,342.2z
	 M205.5,341.5v267.4c6.8-0.9,13.5-2.1,20-3.7V341.5H205.5z"/>
<g id="侧面">
	
		<linearGradient id="SVGID_1_" gradientUnits="userSpaceOnUse" x1="379.3751" y1="-5324.917" x2="466.8815" y2="-5277.9624" gradientTransform="matrix(1 0 0 -1 0 -4910.0449)">
		<stop  offset="0" style="stop-color:#3EADED"/>
		<stop  offset="1" style="stop-color:#0B528D"/>
	</linearGradient>
	<path class="st3" d="M437.9,406.3c-2.4,0-4.4-2-4.4-4.4v-29.3c0-2.9,1.5-5.6,4-7.1l69.8-42.6c0.5-0.3,1.1-0.5,1.8-0.5
		c1.9,0,3.4,1.5,3.4,3.4v25.3c0,3.9-1.9,7.5-5.2,9.7l-66.9,44.7C439.5,406.1,438.7,406.3,437.9,406.3z"/>
	<path class="st4" d="M509,322.9c1.6,0,3.1,1.3,3.1,3.1v25.3c0,3.8-1.9,7.3-5,9.4l-66.9,44.7c-0.7,0.5-1.5,0.7-2.2,0.7
		c-2.1,0-4.1-1.7-4.1-4.1v-29.3c0-2.8,1.4-5.3,3.8-6.8l69.8-42.6C507.9,323,508.4,322.9,509,322.9 M509,322.2L509,322.2
		c-0.7,0-1.3,0.2-1.9,0.5l-69.8,42.6c-2.5,1.5-4.1,4.4-4.1,7.3v28.3c0,2.6,2.1,4.7,4.7,4.7c0.9,0,1.8-0.3,2.6-0.8l66.9-43.7
		c3.3-2.2,5.3-5.9,5.3-10v-25.3C512.7,323.9,511,322.2,509,322.2L509,322.2z"/>
</g>
<linearGradient id="顶-背景_1_" gradientUnits="userSpaceOnUse" x1="115.4058" y1="-4944.6626" x2="552.9713" y2="-4697.0928" gradientTransform="matrix(1 0 0 -1 0 -4610.0449)">
	<stop  offset="0" style="stop-color:#DFE6EE"/>
	<stop  offset="0.5" style="stop-color:#F5F7F8"/>
	<stop  offset="0.995" style="stop-color:#ABB6C3"/>
</linearGradient>
<path id="顶-背景_7_" class="st5" d="M698.8,116.6l-441.7,252c-44.6,25.7-100.6,25.7-145.1,0l-84.7-48.9
	c-21.2-12.2-18.9-42,3.9-51.2L538.4,18.8c29.2-11.9,62.3-11.9,91.5,0l63.3,23.6C726.2,55.8,729.5,98.9,698.8,116.6z"/>
<g>
	
		<linearGradient id="SVGID_2_" gradientUnits="userSpaceOnUse" x1="350.241" y1="121.0981" x2="597.1495" y2="260.7963" gradientTransform="matrix(1 0 0 1 0 104)">
		<stop  offset="0" style="stop-color:#DFE6EE"/>
		<stop  offset="0.5" style="stop-color:#F5F7F8"/>
		<stop  offset="0.995" style="stop-color:#ABB6C3"/>
	</linearGradient>
	<polygon class="st6" points="235.8,440.2 235.7,427.6 711.2,149.5 711.3,163.1 	"/>
</g>
<g>
	
		<linearGradient id="SVGID_3_" gradientUnits="userSpaceOnUse" x1="350.2198" y1="145.5359" x2="597.1708" y2="285.2585" gradientTransform="matrix(1 0 0 1 0 104)">
		<stop  offset="0" style="stop-color:#DFE6EE"/>
		<stop  offset="0.5" style="stop-color:#F5F7F8"/>
		<stop  offset="0.995" style="stop-color:#ABB6C3"/>
	</linearGradient>
	<polygon class="st7" points="235.8,464.7 235.7,452 711.2,173.9 711.3,187.6 	"/>
</g>
<g>
	
		<linearGradient id="SVGID_4_" gradientUnits="userSpaceOnUse" x1="350.2198" y1="95.136" x2="597.1708" y2="234.8585" gradientTransform="matrix(1 0 0 1 0 104)">
		<stop  offset="0" style="stop-color:#DFE6EE"/>
		<stop  offset="0.5" style="stop-color:#F5F7F8"/>
		<stop  offset="0.995" style="stop-color:#ABB6C3"/>
	</linearGradient>
	<polygon class="st8" points="235.8,414.3 235.7,401.6 711.2,123.5 711.3,137.2 	"/>
</g>
<g>
	<g>
		<path class="st9" d="M469.1,374.7l0.8,1.6l-8,5.3c-0.2-0.4-0.3-0.8-0.4-1.3c-0.1-0.7,0-1.6,0.1-2.5c0.2-0.9,0.5-2,1-3.3
			c0.7-2.1,1.2-3.6,1.3-4.7c0.1-1,0-1.8-0.3-2.5s-0.8-1.1-1.4-1.3s-1.3,0-2,0.4c-0.7,0.5-1.2,1.1-1.4,1.9c-0.2,0.8-0.1,1.6,0.3,2.4
			l-1.6,0.8c-0.5-1.4-0.6-2.6-0.2-3.7c0.4-1.1,1.1-2.1,2.3-2.8c1.2-0.8,2.3-1,3.3-0.7s1.8,1,2.3,2c0.3,0.5,0.4,1.1,0.5,1.8
			s0,1.4-0.2,2.3c-0.2,0.9-0.6,2.2-1.2,3.9c-0.5,1.4-0.8,2.4-0.9,2.9s-0.2,0.9-0.2,1.3L469.1,374.7z"/>
		<path class="st9" d="M474.3,359.9l-1.4,1.1c-0.4-0.6-0.9-0.9-1.2-1.1c-0.6-0.2-1.2-0.1-1.8,0.3c-0.5,0.3-0.8,0.7-1,1.3
			c-0.3,0.7-0.4,1.5-0.3,2.4s0.4,2.1,1.1,3.4c0.1-0.9,0.3-1.6,0.7-2.2c0.4-0.6,0.8-1.1,1.4-1.5c1-0.7,2-0.8,3.1-0.4
			c1.1,0.4,1.9,1.2,2.6,2.5c0.4,0.9,0.6,1.8,0.6,2.7c0,1-0.2,1.8-0.5,2.6c-0.4,0.8-0.9,1.4-1.7,1.9c-1.2,0.8-2.5,1-3.8,0.4
			c-1.3-0.5-2.5-2-3.6-4.3c-1.2-2.6-1.7-4.8-1.4-6.6c0.3-1.5,1-2.7,2.3-3.6c1-0.6,1.9-0.8,2.8-0.6
			C472.9,358.3,473.7,358.9,474.3,359.9z M471,369.8c0.3,0.6,0.6,1.1,1.1,1.4c0.5,0.4,1,0.6,1.5,0.6s1-0.1,1.4-0.4
			c0.6-0.4,1-1.1,1.2-1.9c0.2-0.9,0-1.8-0.4-2.8c-0.4-0.9-1-1.5-1.7-1.8s-1.4-0.2-2.1,0.3c-0.7,0.4-1.1,1.1-1.3,1.9
			C470.5,368,470.6,368.9,471,369.8z"/>
		<path class="st9" d="M492.6,355.1l1.8-0.6c0.4,1.7,0.3,3.2-0.2,4.6c-0.5,1.4-1.4,2.4-2.6,3.3c-1.3,0.9-2.5,1.3-3.6,1.2
			s-2.1-0.5-3.1-1.4s-1.8-1.9-2.4-3.2c-0.7-1.4-1-2.8-1-4.2s0.3-2.6,0.9-3.8c0.6-1.1,1.5-2.1,2.5-2.8c1.2-0.8,2.4-1.1,3.5-1
			c1.2,0.2,2.2,0.8,3.1,1.8l-1.4,1.5c-0.8-0.8-1.5-1.3-2.2-1.4c-0.7-0.1-1.5,0.1-2.3,0.6c-0.9,0.6-1.6,1.4-2,2.3
			c-0.4,0.9-0.5,1.9-0.4,2.9s0.4,2,0.9,2.9c0.5,1.2,1.2,2.1,1.9,2.7c0.7,0.7,1.5,1,2.3,1s1.6-0.2,2.4-0.7c0.9-0.6,1.5-1.4,1.9-2.4
			C492.9,357.6,492.9,356.4,492.6,355.1z"/>
	</g>
</g>
<ellipse class="st10" cx="477.7" cy="352.7" rx="1.1" ry="1.3"/>
<path class="st11" d="M700.9,287.5c-4.5-21.8-11.9-30.9-11.9-30.9L268.5,534.1c7.8,9,7,31.1,4.5,43.7"/>
</svg>
