<?xml version="1.0" encoding="utf-8"?>
<!-- Generator: Adobe Illustrator 21.1.0, SVG Export Plug-In . SVG Version: 6.00 Build 0)  -->
<!DOCTYPE svg PUBLIC "-//W3C//DTD SVG 1.1//EN" "http://www.w3.org/Graphics/SVG/1.1/DTD/svg11.dtd">
<svg version="1.1" id="业务服务" xmlns="http://www.w3.org/2000/svg" xmlns:xlink="http://www.w3.org/1999/xlink" x="0px"
	 y="0px" viewBox="0 0 765 763" style="enable-background:new 0 0 765 763;" xml:space="preserve">
<style type="text/css">
	.st0{fill:url(#SVGID_1_);}
	.st1{fill:url(#_x31__1_);}
	.st2{fill:url(#_x32__1_);}
	.st3{fill:url(#_x33__1_);}
	.st4{fill:url(#_x34__1_);}
	.st5{fill:url(#_x35__1_);}
	.st6{fill:url(#_x36__1_);}
	.st7{fill:url(#_x37__1_);}
	.st8{fill:url(#_x38__1_);}
	.st9{fill:url(#_x39__1_);}
	.st10{fill:url(#SVGID_2_);}
	.st11{fill:url(#SVGID_3_);}
	.st12{fill:none;stroke:#073A76;stroke-width:2;stroke-miterlimit:10;}
	.st13{fill:url(#高光_1_);}
</style>
<g id="业务服务_1_">
	<g>
		<g id="后_9_">
			<g>
				
					<linearGradient id="SVGID_1_" gradientUnits="userSpaceOnUse" x1="125.3944" y1="473.5703" x2="739.6006" y2="473.5703" gradientTransform="matrix(1 0 0 1 0 -144)">
					<stop  offset="0" style="stop-color:#E7EFF5"/>
					<stop  offset="0.2574" style="stop-color:#C3C5D2"/>
					<stop  offset="0.3352" style="stop-color:#C6C8D5"/>
					<stop  offset="0.3997" style="stop-color:#CED3DD"/>
					<stop  offset="0.4592" style="stop-color:#DDE4EC"/>
					<stop  offset="0.4655" style="stop-color:#DFE6EE"/>
					<stop  offset="0.5693" style="stop-color:#98A5B5"/>
					<stop  offset="0.995" style="stop-color:#7E8EA0"/>
				</linearGradient>
				<path class="st0" d="M713.2,371.4l-51.8-17.6c-6.1-31.1-16.9-61.8-31.8-90.9l36.6-26.7c10.3-7.6,10.3-25.4-0.1-39.7L633,150.7
					c-10.4-14.3-27.3-19.8-37.8-12.2l-36.7,26.7c-23.2-22.9-49.1-42.6-76.8-57.9l-0.5-54.1C481.1,37.9,469,21.7,454.1,17L406.8,2
					c-14.9-4.7-26.7,3.8-26.6,19l0.6,53.9c-27.7-2.8-53.5,0-76.3,7.6l-37.6-49.8c-10.7-14.1-27.7-19.6-38-12.3l-32.9,23
					c-10.3,7.2-10,24.4,0.6,38.5l37.7,49.9c-14.4,18.6-24.9,41.2-30.4,67.3l-52.3-17.8c-14.8-5-26.5,3.1-26.2,17.9l0.9,47.7
					c0.3,15,12.5,31.2,27.3,36.3l52.2,18.2c6.5,30.2,17.7,60.3,32.9,89.1l-36.1,24.6c-10.2,6.9-9.9,24.1,0.6,38.5l33.6,45.9
					c10.5,14.4,27.2,20.5,37.5,13.6l36-24.6c23,23.4,48.8,43.9,76.1,60l0.6,53.9c0.2,15.2,12.2,31.9,26.6,37.2l46.4,17.2
					c14.5,5.3,26.2-2.7,26-18l-0.5-54.2c27.2,3.6,52.6,1.5,75.2-5.7l36.6,51.8c10.3,14.7,26.9,20.7,37.2,13.5l32.6-23.1
					c10.3-7.3,10.2-25.1-0.1-39.7l-36.6-52.1c14.5-19,25.2-42.4,31.1-69.5l51.7,17.9c14.6,5,26.4-3.5,26.4-19.1v-49.8
					C739.7,392.9,727.8,376.3,713.2,371.4z M434.7,429.9c-53.6-18.8-97.8-79.2-98.6-134.8c-0.8-55.6,42.5-86,96.5-67.9
					c54,18,97.9,78.3,98.4,134.7C531.5,418.3,488.3,448.8,434.7,429.9z"/>
			</g>
		</g>
		<g id="补角儿_9_">
			
				<linearGradient id="_x31__1_" gradientUnits="userSpaceOnUse" x1="37.5" y1="363.3" x2="141.5" y2="363.3" gradientTransform="matrix(1 0 0 1 0 -144)">
				<stop  offset="0" style="stop-color:#E7EFF5"/>
				<stop  offset="0.1782" style="stop-color:#C3C5D2"/>
				<stop  offset="0.3353" style="stop-color:#CED3DD"/>
				<stop  offset="0.4592" style="stop-color:#DDE4EC"/>
				<stop  offset="0.4655" style="stop-color:#DFE6EE"/>
				<stop  offset="1" style="stop-color:#A1ADBC"/>
			</linearGradient>
			<polygon id="_x31__9_" class="st1" points="134,162.9 37.5,253.8 115.2,275.7 141.5,227.1 			"/>
			
				<linearGradient id="_x32__1_" gradientUnits="userSpaceOnUse" x1="121.0282" y1="250.949" x2="281.1908" y2="235.3415" gradientTransform="matrix(1 0 0 1 0 -144)">
				<stop  offset="0" style="stop-color:#E7ECF1"/>
				<stop  offset="1" style="stop-color:#C3C5D2"/>
			</linearGradient>
			<polygon id="_x32__9_" class="st2" points="134.6,90.2 195.4,43.8 280.8,58.9 233,145.8 209.8,154.2 			"/>
			
				<linearGradient id="_x33__1_" gradientUnits="userSpaceOnUse" x1="287.4138" y1="208.1811" x2="452.4959" y2="201.5185" gradientTransform="matrix(1 0 0 1 0 -144)">
				<stop  offset="0" style="stop-color:#E7EFF5"/>
				<stop  offset="0.1782" style="stop-color:#C3C5D2"/>
				<stop  offset="0.3353" style="stop-color:#CED3DD"/>
				<stop  offset="0.4592" style="stop-color:#DDE4EC"/>
				<stop  offset="0.4655" style="stop-color:#DFE6EE"/>
				<stop  offset="1" style="stop-color:#A1ADBC"/>
			</linearGradient>
			<path id="_x33__9_" class="st3" d="M386.9,4.9L294,74l91.6,45.3L480.4,49c-2.8-18.3-13.5-26.1-24.3-31.2L403.6,1.2
				C399.2-0.3,391.5,1,386.9,4.9z"/>
			
				<linearGradient id="_x34__1_" gradientUnits="userSpaceOnUse" x1="442.7408" y1="354.5192" x2="668.7979" y2="373.0843" gradientTransform="matrix(1 0 0 1 0 -144)">
				<stop  offset="0" style="stop-color:#C3C5D2"/>
				<stop  offset="1" style="stop-color:#A1ADBC"/>
			</linearGradient>
			<path id="_x34__9_" class="st4" d="M594.3,139.3L500,209.1l67.5,100.4l89.1-65.4c18.8-12.7,22.1-29.2,11.8-44.4l-38.2-53
				C622.2,138.8,605.9,129.9,594.3,139.3z"/>
			
				<linearGradient id="_x35__1_" gradientUnits="userSpaceOnUse" x1="589.7415" y1="586.5469" x2="698.2166" y2="524.7819" gradientTransform="matrix(1 0 0 1 0 -144)">
				<stop  offset="0" style="stop-color:#C3C5D2"/>
				<stop  offset="0.1571" style="stop-color:#CED3DD"/>
				<stop  offset="0.4592" style="stop-color:#DDE4EC"/>
				<stop  offset="0.4655" style="stop-color:#DFE6EE"/>
				<stop  offset="1" style="stop-color:#8090A2"/>
			</linearGradient>
			<polygon id="_x35__9_" class="st5" points="660.7,353.9 566.9,423.5 638.9,462.8 736,393.3 			"/>
			
				<linearGradient id="_x36__1_" gradientUnits="userSpaceOnUse" x1="629.196" y1="613.6685" x2="724.1344" y2="612.6401" gradientTransform="matrix(1 0 0 1 0 -144)">
				<stop  offset="6.433070e-02" style="stop-color:#C3C5D2"/>
				<stop  offset="1" style="stop-color:#7E8EA0"/>
			</linearGradient>
			<path id="_x36__9_" class="st6" d="M730,476.9L637.6,546c-0.9,0.7-2.1,0.2-2.1-0.8l-0.3-86c0-0.4,0.2-0.8,0.7-1.1l93.2-66
				c0.9-0.6,2.1-0.1,2.1,0.8l-0.5,82.8C730.6,476.2,730.4,476.6,730,476.9z"/>
			
				<linearGradient id="_x37__1_" gradientUnits="userSpaceOnUse" x1="528.0526" y1="774.6205" x2="664.525" y2="749.0671" gradientTransform="matrix(1 0 0 1 0 -144)">
				<stop  offset="0" style="stop-color:#98A5B5"/>
				<stop  offset="0.995" style="stop-color:#8494A5"/>
			</linearGradient>
			<polygon id="_x37__9_" class="st7" points="543.4,583.6 634.8,541.8 668.5,619.8 573.2,691 531.3,599.9 			"/>
			
				<linearGradient id="_x38__1_" gradientUnits="userSpaceOnUse" x1="385.1" y1="821.95" x2="477.1" y2="821.95" gradientTransform="matrix(1 0 0 1 0 -144)">
				<stop  offset="0" style="stop-color:#98A5B5"/>
				<stop  offset="0.995" style="stop-color:#8494A5"/>
			</linearGradient>
			<polygon id="_x38__9_" class="st8" points="477.1,654.3 385.1,725.7 385.6,633.9 462.2,630.2 			"/>
			
				<linearGradient id="_x39__1_" gradientUnits="userSpaceOnUse" x1="104.7" y1="613.1" x2="154.2484" y2="613.1" gradientTransform="matrix(1 0 0 1 0 -144)">
				<stop  offset="0" style="stop-color:#98A5B5"/>
				<stop  offset="0.995" style="stop-color:#8494A5"/>
			</linearGradient>
			<polygon id="_x39__9_" class="st9" points="104.7,489.4 152,448.8 154.3,460.7 			"/>
		</g>
		<g id="前_9_">
			<g>
				
					<linearGradient id="SVGID_2_" gradientUnits="userSpaceOnUse" x1="31.69" y1="543.374" x2="645.9001" y2="543.374" gradientTransform="matrix(1 0 0 1 0 -144)">
					<stop  offset="0" style="stop-color:#DFE6EE"/>
					<stop  offset="0.5" style="stop-color:#F5F7F8"/>
					<stop  offset="0.995" style="stop-color:#ABB6C3"/>
				</linearGradient>
				<path class="st10" d="M618.9,441.6L567.1,424c-6.2-31.1-17-61.8-31.9-91l36.5-26.7c10.3-7.6,10.3-25.4-0.1-39.8l-33.3-45.8
					c-10.4-14.3-27.3-19.8-37.8-12.2l-36.6,26.7c-23.2-23-49.1-42.6-76.8-57.9l-0.6-54.3c-0.1-15.4-12.3-31.6-27.1-36.3l-47.3-15
					c-14.9-4.7-26.6,3.9-26.5,19l0.7,53.9c-27.7-2.8-53.4,0-76.2,7.6l-37.6-49.8c-10.7-14.1-27.7-19.6-38-12.3l-32.8,23.1
					c-10.3,7.2-10,24.4,0.7,38.5l37.8,50C125.8,220.3,115.4,243,110,269l-52.2-17.8c-14.8-5-26.5,3.1-26.1,18l1,47.7
					c0.3,15,12.6,31.2,27.3,36.3l52.1,18c6.5,30.2,17.8,60.4,33,89.2l-36,24.6c-10.1,6.9-9.8,24.1,0.7,38.5l33.6,45.9
					c10.5,14.4,27.2,20.5,37.4,13.6l35.9-24.7c23.1,23.4,48.8,43.9,76.1,60l0.7,53.9c0.2,15.3,12.2,31.9,26.7,37.3l46.4,17.2
					c14.5,5.3,26.2-2.7,26-18.1l-0.6-54.3c27.2,3.6,52.5,1.4,75.1-5.8l36.7,51.8c10.3,14.7,27,20.7,37.2,13.5l32.6-23.2
					c10.2-7.3,10.2-25.2-0.1-39.8l-36.6-52.1c14.5-19,25.1-42.4,30.9-69.5l51.7,17.9c14.6,5,26.4-3.5,26.4-19.1l-0.1-49.8
					C645.4,463.1,633.5,446.5,618.9,441.6z M340.7,500.4c-53.6-18.8-97.8-79.2-98.7-134.9c-0.9-55.6,42.3-86.1,96.3-68.1
					s98,78.4,98.6,134.8C437.5,488.7,394.3,519.2,340.7,500.4z"/>
			</g>
		</g>
		<g id="前面板_10_">
			<g>
				
					<linearGradient id="SVGID_3_" gradientUnits="userSpaceOnUse" x1="115.1667" y1="547.6046" x2="544.23" y2="547.6046" gradientTransform="matrix(1 -5.754397e-03 5.754397e-03 1 -3.2991 -148.9188)">
					<stop  offset="0" style="stop-color:#3EADED"/>
					<stop  offset="1" style="stop-color:#0B528D"/>
				</linearGradient>
				<path class="st11" d="M525.7,424.7l-36.3-12c-4.4-21.8-12.2-43.3-22.8-63.7l25.4-19c7.2-5.4,7.1-17.9-0.4-27.9l-23.5-31.9
					c-7.4-9.9-19.3-13.7-26.4-8.3l-25.5,19c-16.3-15.9-34.5-29.7-53.9-40.2l-0.6-38.1c-0.2-10.7-8.7-22.1-19.1-25.3l-33-10.2
					c-10.3-3.2-18.5,2.8-18.3,13.5l0.7,37.8c-19.2-1.8-37.2,0.3-53.2,5.8l-26.4-34.8c-7.5-9.8-19.4-13.6-26.5-8.4l-22.8,16.4
					c-7.1,5.1-6.9,17.1,0.6,26.9l26.4,34.8c-10,13.1-17.1,29-20.9,47.4l-36.5-12.2c-10.3-3.4-18.5,2.3-18.2,12.7l0.9,33.4
					c0.2,10.5,8.9,21.8,19.2,25.4l36.4,12.4c4.6,21.2,12.7,42.2,23.4,62.3l-25.1,17.4c-7.1,4.9-6.7,16.9,0.6,26.9l23.6,32
					c7.4,10.1,19.1,14.2,26.2,9.3l25.1-17.4c16.2,16.4,34.2,30.6,53.5,41.8l0.7,37.8c0.2,10.6,8.6,22.4,18.9,26.1l32.5,11.8
					c10.2,3.7,18.3-2,18.1-12.7l-0.6-38.1c19,2.4,36.7,0.8,52.6-4.3l25.9,36.2c7.3,10.2,18.9,14.4,26.1,9.3l22.7-16.4
					c7.1-5.2,7-17.7-0.4-27.9L469,535.7c10-13.4,17.4-29.9,21.2-48.9l36.1,12.3c10.2,3.5,18.4-2.6,18.3-13.5l-0.4-34.9
					C544.3,439.7,536,428.1,525.7,424.7z M331.6,467.2C294,454.3,263,412,262.1,373.1c-0.8-39,29.2-60.5,67-48.2
					c37.8,12.4,68.8,54.6,69.4,94.1C399.1,458.6,369.1,480.1,331.6,467.2z"/>
			</g>
			<g>
				<path class="st12" d="M525.7,424.7l-36.3-12c-4.4-21.8-12.2-43.3-22.8-63.7l25.4-19c7.2-5.4,7.1-17.9-0.4-27.9l-23.5-31.9
					c-7.4-9.9-19.3-13.7-26.4-8.3l-25.5,19c-16.3-15.9-34.5-29.7-53.9-40.2l-0.6-38.1c-0.2-10.7-8.7-22.1-19.1-25.3l-33-10.2
					c-10.3-3.2-18.5,2.8-18.3,13.5l0.7,37.8c-19.2-1.8-37.2,0.3-53.2,5.8l-26.4-34.8c-7.5-9.8-19.4-13.6-26.5-8.4l-22.8,16.4
					c-7.1,5.1-6.9,17.1,0.6,26.9l26.4,34.8c-10,13.1-17.1,29-20.9,47.4l-36.5-12.2c-10.3-3.4-18.5,2.3-18.2,12.7l0.9,33.4
					c0.2,10.5,8.9,21.8,19.2,25.4l36.4,12.4c4.6,21.2,12.7,42.2,23.4,62.3l-25.1,17.4c-7.1,4.9-6.7,16.9,0.6,26.9l23.6,32
					c7.4,10.1,19.1,14.2,26.2,9.3l25.1-17.4c16.2,16.4,34.2,30.6,53.5,41.8l0.7,37.8c0.2,10.6,8.6,22.4,18.9,26.1l32.5,11.8
					c10.2,3.7,18.3-2,18.1-12.7l-0.6-38.1c19,2.4,36.7,0.8,52.6-4.3l25.9,36.2c7.3,10.2,18.9,14.4,26.1,9.3l22.7-16.4
					c7.1-5.2,7-17.7-0.4-27.9L469,535.7c10-13.4,17.4-29.9,21.2-48.9l36.1,12.3c10.2,3.5,18.4-2.6,18.3-13.5l-0.4-34.9
					C544.3,439.7,536,428.1,525.7,424.7z M331.6,467.2C294,454.3,263,412,262.1,373.1c-0.8-39,29.2-60.5,67-48.2
					c37.8,12.4,68.8,54.6,69.4,94.1C399.1,458.6,369.1,480.1,331.6,467.2z"/>
			</g>
		</g>
		
			<linearGradient id="高光_1_" gradientUnits="userSpaceOnUse" x1="232.15" y1="389.364" x2="232.15" y2="723.1332" gradientTransform="matrix(1 0 0 -1 0 886)">
			<stop  offset="0" style="stop-color:#FFFFFF;stop-opacity:0"/>
			<stop  offset="1" style="stop-color:#FFFFFF;stop-opacity:0.5"/>
		</linearGradient>
		<path id="高光_10_" class="st13" d="M254.3,526.1l-40.2,4.4L210,152.4c0,0,11.4-3.5,20.2-5.2c13-2.6,21.8-2.7,21.8-2.7
			L254.3,526.1z"/>
	</g>
</g>
</svg>
