<?xml version="1.0" encoding="utf-8"?>
<!-- Generator: Adobe Illustrator 21.1.0, SVG Export Plug-In . SVG Version: 6.00 Build 0)  -->
<!DOCTYPE svg PUBLIC "-//W3C//DTD SVG 1.1//EN" "http://www.w3.org/Graphics/SVG/1.1/DTD/svg11.dtd">
<svg version="1.1" id="显示器" xmlns="http://www.w3.org/2000/svg" xmlns:xlink="http://www.w3.org/1999/xlink" x="0px" y="0px"
	 viewBox="0 0 727 728" style="enable-background:new 0 0 727 728;" xml:space="preserve">
<style type="text/css">
	.st0{fill:url(#底_1_);}
	.st1{fill:url(#顶_1_);}
	.st2{fill:url(#中间接_2_);}
	.st3{fill:url(#中间接-暗部_1_);}
	.st4{fill:url(#后体-顶_1_);}
	.st5{fill:url(#后体-侧_1_);}
	.st6{fill:#043977;}
	.st7{fill:url(#屏幕-前_1_);}
	.st8{fill:url(#屏幕-前-暗角反光_1_);}
	.st9{fill:url(#中-高光_1_);}
	.st10{fill:url(#SVGID_1_);}
	.st11{fill:#073A76;}
	.st12{fill:url(#高光_1_);}
	.st13{fill:url(#屏幕-顶_1_);}
</style>
<g id="座">
	
		<linearGradient id="底_1_" gradientUnits="userSpaceOnUse" x1="119.5287" y1="11.7095" x2="549.5" y2="11.7095" gradientTransform="matrix(1 0 0 -1 0 550)">
		<stop  offset="0" style="stop-color:#A4A7B6"/>
		<stop  offset="0.3104" style="stop-color:#C6C8D5"/>
		<stop  offset="0.4393" style="stop-color:#CED3DD"/>
		<stop  offset="0.5632" style="stop-color:#DDE4EC"/>
		<stop  offset="0.5893" style="stop-color:#DFE6EE"/>
		<stop  offset="0.7821" style="stop-color:#7E8EA0"/>
	</linearGradient>
	<path id="底" class="st0" d="M549.5,509.5l-6.6-0.2c-23.6-53.6-108.1-93.2-208.6-93.2c-98.1,0-177.6,37.5-204.7,81.2l-9.9-0.3
		v18.7c-4.9,67.1,96,141.2,212.9,144.6c141.1,4.1,216.8-62.1,216.8-130.5c0-1.5-0.1-3-0.2-4.5L549.5,509.5z"/>
	
		<linearGradient id="顶_1_" gradientUnits="userSpaceOnUse" x1="51.3331" y1="-31.6772" x2="555.2438" y2="88.6112" gradientTransform="matrix(1 0 0 -1 0 550)">
		<stop  offset="0" style="stop-color:#DFE6EE"/>
		<stop  offset="0.5" style="stop-color:#F5F7F8"/>
		<stop  offset="0.995" style="stop-color:#ABB6C3"/>
	</linearGradient>
	<path id="顶" class="st1" d="M549.5,509.5c0,68.4-75.7,134.5-216.8,130.5c-117-3.4-217.9-77.6-212.9-144.7
		c4.1-54.5,95.7-109.5,214.5-109.5S549.5,441.1,549.5,509.5z"/>
</g>
<g id="中间接_1_">
	
		<linearGradient id="中间接_2_" gradientUnits="userSpaceOnUse" x1="182.7" y1="100.1" x2="430.7016" y2="100.1" gradientTransform="matrix(1 0 0 -1 0 550)">
		<stop  offset="0" style="stop-color:#A4A7B6"/>
		<stop  offset="0.3104" style="stop-color:#C6C8D5"/>
		<stop  offset="0.4393" style="stop-color:#CED3DD"/>
		<stop  offset="0.5632" style="stop-color:#DDE4EC"/>
		<stop  offset="0.5893" style="stop-color:#DFE6EE"/>
		<stop  offset="0.7821" style="stop-color:#7E8EA0"/>
	</linearGradient>
	<path id="中间接" class="st2" d="M418.3,558.8L367.5,601c-12.3,10.3-30,11.2-43.3,2.3l-128.5-86.2c-8.1-5.4-13-14.6-13-24.3
		V290.4l248,50v191.7C430.8,542.4,426.1,552.2,418.3,558.8z"/>
	
		<linearGradient id="中间接-暗部_1_" gradientUnits="userSpaceOnUse" x1="245.6278" y1="21.3673" x2="257.2945" y2="52.034" gradientTransform="matrix(1 0 0 -1 0 550)">
		<stop  offset="0" style="stop-color:#A4A7B6;stop-opacity:0"/>
		<stop  offset="1" style="stop-color:#7E8EA0"/>
	</linearGradient>
	<polygon id="中间接-暗部" class="st3" points="182.8,462.4 315.1,548.4 315.1,577.4 183.1,491.6 	"/>
</g>
<g id="后体">
	
		<linearGradient id="后体-顶_1_" gradientUnits="userSpaceOnUse" x1="233.9342" y1="527.6597" x2="534.1725" y2="357.788" gradientTransform="matrix(1 0 0 -1 0 550)">
		<stop  offset="0" style="stop-color:#DFE6EE"/>
		<stop  offset="0.5" style="stop-color:#F5F7F8"/>
		<stop  offset="0.995" style="stop-color:#ABB6C3"/>
	</linearGradient>
	<polygon id="后体-顶" class="st4" points="148.3,71 442.9,33.5 683.3,142.5 508.9,312 	"/>
	
		<linearGradient id="后体-侧_1_" gradientUnits="userSpaceOnUse" x1="745.2721" y1="152.1178" x2="526.283" y2="213.6147" gradientTransform="matrix(1 0 0 -1 0 550)">
		<stop  offset="0" style="stop-color:#DFE6EE"/>
		<stop  offset="0.995" style="stop-color:#ABB6C3"/>
	</linearGradient>
	<polygon id="后体-侧" class="st5" points="505.4,568.5 681.8,309.5 683.3,142.5 506.9,313.5 	"/>
	<g id="后体-装饰">
		<path class="st6" d="M592.8,398l8.7-5.9v-70.8l-8.7,6V398z M607.8,374.3l8.7-5.9v-71l-8.7,6V374.3z M622.8,350.6l8.7-5.9v-71.2
			l-8.7,6V350.6z M637.8,326.9l8.7-5.9v-71.4l-8.7,6V326.9z M652.8,303.1l8.7-5.9v-71.6l-8.7,6V303.1z"/>
	</g>
</g>
<g id="屏幕_1_">
	
		<linearGradient id="屏幕-前_1_" gradientUnits="userSpaceOnUse" x1="103.75" y1="201.026" x2="535.5335" y2="201.026" gradientTransform="matrix(1 0 0 -1 0 550)">
		<stop  offset="0" style="stop-color:#E7EFF5"/>
		<stop  offset="0.2574" style="stop-color:#C3C5D2"/>
		<stop  offset="0.6421" style="stop-color:#C6C8D5"/>
		<stop  offset="0.8254" style="stop-color:#CED3DD"/>
		<stop  offset="0.8651" style="stop-color:#DDE4EC"/>
		<stop  offset="0.8962" style="stop-color:#DFE6EE"/>
		<stop  offset="0.9307" style="stop-color:#98A5B5"/>
		<stop  offset="0.995" style="stop-color:#7E8EA0"/>
	</linearGradient>
	<path id="屏幕-前" class="st7" d="M530.1,650.9l-1,1c-14.6,14.1-37.3,15.6-53.6,3.4L90.1,408.1c-9.9-7.3-15.7-18.9-15.7-31.2
		V34.4L540.8,260v365.8C540.8,635.3,537,644.4,530.1,650.9z"/>
	
		<linearGradient id="屏幕-前-暗角反光_1_" gradientUnits="userSpaceOnUse" x1="103.75" y1="201.026" x2="535.5335" y2="201.026" gradientTransform="matrix(1 0 0 -1 0 550)">
		<stop  offset="0" style="stop-color:#C3C6D2"/>
		<stop  offset="0.1409" style="stop-color:#C3C6D2;stop-opacity:0"/>
	</linearGradient>
	<path id="屏幕-前-暗角反光" class="st8" d="M530.1,650.9l-1,1c-14.6,14.1-37.3,15.6-53.6,3.4L90.1,408.1
		c-9.9-7.3-15.7-18.9-15.7-31.2V34.4L540.8,260v365.8C540.8,635.3,537,644.4,530.1,650.9z"/>
	
		<linearGradient id="中-高光_1_" gradientUnits="userSpaceOnUse" x1="494.75" y1="-35.4548" x2="494.75" y2="226.6767" gradientTransform="matrix(1 0 0 -1 0 550)">
		<stop  offset="0" style="stop-color:#FFFFFF;stop-opacity:0"/>
		<stop  offset="1" style="stop-color:#FFFFFF;stop-opacity:0.3"/>
	</linearGradient>
	<path id="中-高光" class="st9" d="M473.5,256l28.7,14.5v393c-9.3,0.4-18.7-2.3-26.6-8.2l-2.1-1.4V256z M516,277.5l-8-4v389.3
		c2.7-0.5,5.4-1.3,8-2.4V277.5z"/>
	<g id="屏幕">
		
			<linearGradient id="SVGID_1_" gradientUnits="userSpaceOnUse" x1="116.5615" y1="207.25" x2="460.0948" y2="207.25" gradientTransform="matrix(1 0 0 -1 0 550)">
			<stop  offset="0" style="stop-color:#3EADED"/>
			<stop  offset="1" style="stop-color:#0B528D"/>
		</linearGradient>
		<path class="st10" d="M449.4,587.1c-2.8,0-5.6-0.8-8.1-2.4L109.3,379c-10-6.5-16-17.6-16-29.5V107.6c0-5.7,4.8-9.2,9.2-9.2
			c1.7,0,3.3,0.5,4.8,1.4L451,303c8.3,5.1,13.2,14,13.2,23.8v245.4C464.3,581.4,456.5,587.1,449.4,587.1z"/>
		<path class="st11" d="M102.5,99.9L102.5,99.9c1.4,0,2.8,0.4,4,1.2l0,0l0,0l343.7,203.2c7.8,4.9,12.5,13.3,12.5,22.5v245.4
			c0,8.3-7,13.4-13.4,13.4c-2.5,0-5.1-0.8-7.3-2.2l0,0l0,0L110,377.7c-9.6-6.2-15.3-16.8-15.3-28.3V107.6
			C94.8,102.9,98.8,99.9,102.5,99.9 M102.5,96.9c-5.6,0-10.7,4.5-10.7,10.7v241.8c0,12.4,6.3,24,16.7,30.8l331.9,205.7
			c2.8,1.8,5.9,2.7,8.9,2.7c8.5,0,16.4-6.8,16.4-16.4V326.8c0-10.2-5.3-19.7-14-25.1L108,98.5C106.3,97.4,104.3,96.9,102.5,96.9
			L102.5,96.9z"/>
	</g>
	
		<linearGradient id="高光_1_" gradientUnits="userSpaceOnUse" x1="123.1" y1="562.5764" x2="123.1" y2="887.8258" gradientTransform="matrix(1 0 0 -1 0 960)">
		<stop  offset="0" style="stop-color:#FFFFFF;stop-opacity:0"/>
		<stop  offset="1" style="stop-color:#FFFFFF;stop-opacity:0.5"/>
	</linearGradient>
	<polygon id="高光_2_" class="st12" points="141.4,430.4 104.8,390.4 104.8,54.3 141.4,76.8 	"/>
	
		<linearGradient id="屏幕-顶_1_" gradientUnits="userSpaceOnUse" x1="204.4422" y1="526.8555" x2="383.8853" y2="425.3286" gradientTransform="matrix(1 0 0 1 0 -319.25)">
		<stop  offset="0" style="stop-color:#DFE6EE"/>
		<stop  offset="0.5" style="stop-color:#F5F7F8"/>
		<stop  offset="0.995" style="stop-color:#ABB6C3"/>
	</linearGradient>
	<path id="屏幕-顶" class="st13" d="M474.5,279.6L80.4,46.6c-8.5-5.3-7.9-17.8,1.2-22.2l18.6-8.9c5.9-2.9,12.9-2.6,18.6,0.7
		L533,246.1c9.9,5.8,10.5,19.9,1.1,26.5l-8.1,5.6C510.6,288.8,490.5,289.4,474.5,279.6z"/>
</g>
</svg>
