<?xml version="1.0" encoding="utf-8"?>
<!-- Generator: Adobe Illustrator 21.0.0, SVG Export Plug-In . SVG Version: 6.00 Build 0)  -->
<svg version="1.1" id="图层_1" xmlns="http://www.w3.org/2000/svg" xmlns:xlink="http://www.w3.org/1999/xlink" x="0px" y="0px"
	 viewBox="0 0 774 774" style="enable-background:new 0 0 774 774;" xml:space="preserve">
<style type="text/css">
	.st0{fill:url(#body_1_);}
	.st1{fill:url(#地面_1_);}
	.st2{fill:url(#光线_1_);}
	.st3{fill:url(#SVGID_1_);}
	.st4{fill:url(#SVGID_2_);}
	.st5{fill:url(#SVGID_3_);}
	.st6{fill:url(#SVGID_4_);}
	.st7{fill:url(#SVGID_5_);}
	.st8{fill:url(#SVGID_6_);}
	.st9{fill:#FFFFFF;}
	.st10{fill:url(#SVGID_7_);}
	.st11{fill:#677A82;}
	.st12{fill:url(#SVGID_8_);}
	.st13{fill:url(#SVGID_9_);}
	.st14{fill:url(#SVGID_10_);}
	.st15{fill:url(#SVGID_11_);}
	.st16{fill:url(#SVGID_12_);}
	.st17{fill:url(#SVGID_13_);}
</style>
<g>
	<g id="地球_3_">
		
			<radialGradient id="body_1_" cx="301.7634" cy="-4738.9888" r="425.73" gradientTransform="matrix(1 0 0 -1 0 -4465.0449)" gradientUnits="userSpaceOnUse">
			<stop  offset="0.1458" style="stop-color:#91D9FF"/>
			<stop  offset="0.8886" style="stop-color:#1156A3"/>
			<stop  offset="1" style="stop-color:#0A396F"/>
		</radialGradient>
		<path id="body_3_" class="st0" d="M387.1,757.3C182.4,757.3,15.8,590.7,15.8,386S182.3,14.3,387.1,14.3s371.3,166.8,371.3,371.5
			S591.9,757.3,387.1,757.3z"/>
		
			<radialGradient id="地面_1_" cx="272.1287" cy="-4716.3979" r="461.7917" fx="433.1487" fy="-4717.6733" gradientTransform="matrix(1 0 0 -1 0 -4465.0449)" gradientUnits="userSpaceOnUse">
			<stop  offset="0.155" style="stop-color:#F3F5F7;stop-opacity:0.8"/>
			<stop  offset="0.7377" style="stop-color:#D5D9DF;stop-opacity:0.3"/>
			<stop  offset="1" style="stop-color:#D4D8DE;stop-opacity:0"/>
		</radialGradient>
		<path id="地面_3_" class="st1" d="M202.1,679.4h-0.3l-1.3-1.3l0,0l-0.6-1.1l-1.1,0.3v-0.2l-0.6-1.1l-0.8-0.8V675l-0.5-0.6v-2.7
			l1.1-0.5v-2.8l-0.6-0.2l0.3-0.8l-1.7-2.1v-1.9l0,0v-0.3v-0.6l1.3-1.3l-0.2-1.3l1.1-0.3l1.4-1.4v-1.9l0.8-0.5h0.5l0.6-2.4l0.8-0.6
			l1.1-3.2l-0.2-0.6l0.2-0.5v-0.8l-0.6-1.4V646l-0.8-3v-1.6l-0.3-0.3l1.1-0.6l-1.4-1.6l1.7-2.2l-0.2-0.2l1.9-1.6l-0.5-0.8h0.8
			l1.1-0.6l0.5,0.8l1.1-1.1h3.3V633l0.2,0.2l0.3-0.5l0.6,0.6h2.2l1.6-2.2l0,0l2.4-1.1l0.5-1.7v-0.2l1.4-1.4l0.6,0.8l2.5-2.5v-1.7
			l1.4-1.4l-0.5-0.5l0.8-1.3v-0.2h0.6l1.7-2.2v-1.6l0.8-1.1v-0.2l1.3,0.8v1.9l0.6,1.1v1.3l-0.8,0.8l0.8,2.4v2.2l1.1,1.3l-0.2,0.2
			l-0.5-0.6H227v4.4l-0.6,0.6l1.3,1.3l-0.5,0.6v0.6l-1.6,1.4v2.5l0.5,0.5l-0.3,0.5l-0.3,0.8l-0.5,2.1l-0.5,2.5l-1.1,1.7l-0.3,1.1
			l-0.6,1.9v1.4l-0.8,1.1l-1.4,4.7l-1.6,1.9l-0.6,2.4l-0.2,0.8l-0.6,1.7l-0.8,3.3l-0.2,0.3h-1.9v2.4l-2.1,1.3l1.3,1.3l-0.8,0.5v1.3
			l-0.5,1.3l-0.5,1.1l-0.8,0.8l-0.6,0.3l-1.1-0.2l-4.1,0.3l-0.8,1.4l-0.6,0.3h-1.4L202.1,679.4L202.1,679.4z M148.8,655.3
			C70.1,586.8,24.9,488.2,24.9,383.7c0-5.7,0.2-11.5,0.3-17.2l1.7,2.1l2.7,1.7l0.3-0.2l1.7,1.7l0.8-0.8l0.3,0.3l1.9,1.6h0.6l0.5,0.2
			l1.3,1.3l3.6,0.5l3.3-0.3l1.3,0.3h2.5l1.7,1.1l2.5,0.3l0.3,0.6v1.3l1.7,4l2.5,1.7h3.2l0.2-0.2l0.8,0.2l3.6,1.3l2.1,0.8l1.3,0.8
			l2.1,1.9l3.3,1.6l2.1-0.8l2.1-1.6l2.1-2.1l0.6-1.9l-0.6-3l-0.8-1.1l0.2-1.6l0.3-0.3l0.5-1.4l0.6-0.6l1.6-0.8l3-0.5l1.1-0.8
			l1.6,0.5l0.3-0.3l1.7,0.3h0.8l3.6,2.1V375h0.6l0.3,0.3l4.4,0.5l0.8-0.3h0.2l0.5,0.5l1.3,3.6l1.7-1.7l1.3,0.2l4.1,0.5l1.3,0.3
			l2.2,1.9l0.8-0.8l1.4,0.5h2.5l1.7,1.1h3l1.7-1.7l1.4-0.5l0.6-0.6h0.2l0.6,0.6l1.9-0.6h3.3l0.5,1.3l1.1,0.5l0.8,2.1l-0.3-0.3
			l-2.1,2.4v2.2l1.1,1.4v1.1l2.2,2.7l0.5,1.3l2.7,3v0.2l-0.3,0.6v2.1l1.7,1.9v0.6l0.5,0.5l0.3,1.6l0.3,0.8v1.9l3.3,5.1l0.6,1.9
			l1.4,0.5l1.6,2.2l0.5,1.6l0.8,0.8v1.1l0.3,0.3l-0.5,0.5l1.7,4.3l2.1,1.7h1.1l0.2,0.5l1.6,0.6l1.6,1.6l0.3,0.2v1.1l0.5,0.5v0.5
			l0.5,0.5v0.5l0.6,0.6l0.2,0.5l-0.2,0.2v2.1l1.3,4l0.3,1.6l-0.3,1.9l0.5,3.2l1.6,2.5l1.6,0.6l1.4,0.6v1.6h-2.1l3.8,3.8l1.9,5.2
			l1.4,5.4h0.5v0.6l0.6,0.6l0.3,0.6l0.6,1.9l4.1,1.7v-0.2l0.5,0.5l0.5-0.5l0.5,0.5l0.5-0.5l0.5,0.5l1.4,0.5l0.2,0.2l1.7,1.9l1.4,1.4
			l1.1,0.5l1.4,1.4h0.5l0.6,1.4l0.5,0.5l0,0l1.4,3.3h1.4l1.9,0.6l0.3,0.3l0.2,0.5l-0.3,0.3h-0.8l-0.5,1.1h-4.7l4,4h1.6l0.8-0.3
			l3.2,3.5l0.6,1.9h0.8l0.8,0.8l2.1,0.8l2.2-0.6l0.6-0.6l0.6-0.5h1.1l1.3-0.8l0,0h3.2l0.2-0.2l0.6,0.2l2.1-0.6l3.2-2.1l0.3-0.2
			l1.1,0.5l1.4-0.5h1.3l1.4-0.5h0.6l0.5,0.5h1.3l3.3-0.5l1.4-0.6h0.2l0.8,0.8l1.4-1.4l1.4-0.5l0.8-0.8h2.5l-0.8,0.8l1.1,1.1
			l-0.6,1.7l1.1,1.1v0.2l-1.3,2.7h0.5l-4.1,4.1h2.1v0.6l-1.6,2.5l-1.1,2.5l-0.3,0.3h-0.5l-2.1,2.1v1.6l0.2,0.5l-3.2,5.8v1.4l-1.7,3
			v0.5l-3.3,4.4l-0.3,1.1l-1.1,1.1l-2.7,3.2l-5.4,4.9l-2.1,1.7l-1.7,0.5l-1.6,1.4l-1.7,1.4l-3.3,3.6l-1.1,0.5l-3.2,3.3l-0.6,0.6
			l-0.3,0.6l-0.6,0.3l-1.6,1.6l-0.5,1.3l-0.8,1.1V551l-4.3,4.9h-0.3l-1.4,1.4l-0.5,0.2l-1.3-0.2H183l-1.4,1.4v0.5l-1.1,1.1v2.2
			l-1.7,1.7v1.4L178,567l-1.4,2.4l-0.2,0.2h-4.7l2.7,2.7l0,0l-1.3,3.8l-1.3,2.2v2.4l0.8,0.6l0.3,1.7l-0.8,0.8l-0.6,1.7v3l0.8,0.8
			l-0.5,0.5l0.5,1.1h-2.1l3.2,3.2l0.3,0.8l-0.5,1.3l1.1,1.1l0.2,0.3l-0.6,1.6l2.7,2.7l1.4,0.5l0.3,0.3v0.5l0,0l-1.3,1.3l0.5,0.5
			l-0.5,0.5v1.7l-0.2,0.2l0.6,2.7v0.2l-0.2,0.2v2.7l0.3,0.3L177,614l0.6,1.9l-0.2,1.1h-3.2l1.7,1.7v1.7l1.4,1.4h0.3l0.2,0.5l0.2,1.1
			l-1.4,1.4l0.2,0.2l-1.7,1.7l1.7,1.7l-0.3,0.5v0.5l-0.2,0.2h-2.1v1.7l-2.2,1.1h-1.3l-0.6,1.6l-1.9,1.1l-2.7-1.1v1.7l-0.3,0.2
			l-1.1,0.6l-2.4-2.4v1.3l-0.3-1.1l-1.7,5.4l-0.3,0.3l-0.3,0.8l-2.2,1.3v0.6l-0.3,0.3H156l-4.4,2.7l0.2,0.5h-0.5l-0.2,0.2l-0.3-0.2
			h-2.4v3l0.3,0.3l-0.6,0.8l0.6,1.6l-0.5,1.4l1.3,1.7l-0.8,0.8L148.8,655.3L148.8,655.3z M514.5,576.8h-1.9l-3.2-3.2h-1.3v-0.8
			l-3-1.6l-1.6-2.1l-0.5-0.2v-1.1l-1.6-0.8v-1.1l-2.2-0.3l-0.3-1.1l-2.1-2.4l-1.4-0.8l-0.3-0.5l0.5-1.7l-2.2-3.5l-0.5-2.7l-1.3-1.3
			l-0.5-1.3v-1.7l-2.5-1.6l-0.8-0.2v-0.3l-1.1-3v-0.3l-0.3-1.9l-0.3-0.2v-2.2h-1.9l-0.3-0.2l-1.4-2.2h-1.3l-0.2-0.6l-0.2-0.2v-3
			h-1.7l-1.1-0.6l-1.6-3l-3.2-2.2l-0.6,0.5l-1.4-1.9h-0.6l-1.7-2.2l-1.1-0.3l-0.8-1.6v-0.3h0.2l2.2,1.9l1.9,0.6l1.7-0.5h0.3l0.6,0.6
			l1.9-0.6h0.2h0.2l0.8,1.7h0.3l0.3,1.4l0.8,0.2v0.3v2.7h2.5l1.4,1.4h1.3l1.9,1.6l1.1,1.4h0.8v1.4l2.4,4h-1.1l6,2.4v0.3l2.2,1.6
			l0.8-0.5l1.4,1.4v1.4l2.4,2.7l0.5-0.2l-2.4,2.4h5.2l-5.7,7.6l6.6-4v0.3l2.5,2.5h1.3v1.4l1.7-0.6v0.2l0.2,0.6l-0.2,0.6l1.9,0.5
			l-1.4,0.3l0.6,0.8v1.9l3,1.1l0.8-0.3l0,0l0.6,0.6l0.6,0.8l0.8,0.8l-0.3,0.2l-0.5,3.8l0.3,0.3l-0.8,1.7l0.6,1.7l-0.5,2.2l-2.4-0.5
			l-0.5,1.6L514.5,576.8z M590.2,575.2l0.8-1.1v-1.3l0.5-0.5h0.5v0.3l-0.2,0.8l-0.8,0.8v2.1h-0.6l-0.2,0.2V575.2z M601.6,569.6
			l-2.2-1.1l-0.6-0.6l0.6-0.5v-2.5l-1.1-1.7l-1.6-1.6l-3,1.1l-0.5,0.8l-1.6,1.1v1.9l0.6,1.3l0.3,0.6l-1.4,3l-1.1-2.1v-2.5h-3.2v-0.2
			h0.2v-1.3v-0.2l1.7-0.8v-1.7l0.5-0.5v-1.3l0.3-0.5l-0.2-1.7l0.8-1.3l-0.5-1.3l0.5-0.2l0.6-1.1l0.2-0.2v0.2l1.4,1.9l1.7,1.7
			l1.1,0.3l1.9,0.6v1.4l1.4,1.1l0.5,1.1l1.3,1.3l0.6,1.9l-1.3,1.7h1.1l0.8,2.7l0.6,0.2v0.6h0.6v0.2l-1.1,0.2l-0.5,0.5v-2.5
			L601.6,569.6L601.6,569.6z M566,568.4l-1.6-2.1h-0.5l-0.3-1.1l-1.4,0.5l-1.7-2.4l-0.5,1.1l-1.3,0.2l-0.5-0.6h-3l-0.3,1.3l-1.1,0.3
			l-0.6-0.5l-1.1,0.6V564l-1.6-3.3l-1.7,2.5l-0.3-0.2l-1.4,0.8h-0.2l-0.5-0.5h-0.8l-0.5-1.7l-1.4,1.1v-3.3l-0.5-0.3l0.5-0.6v-2.4
			l-1.1-1.1l-1.1-1.4h0.2l9-9l-10.6,5.2h-0.3l-1.4-1.4l-0.8-1.3V546l0.2-1.1v-1.1l0.5-0.6l1.3-2.1l0.8,1.3h2.2l1.9,1.1l4.4,0.8v-2.2
			l0.6-1.6v-1.3l1.1,0.5v-1.3l5.7,3l-3.6-5.5l3.2-0.8l1.9-1.3l1.4-2.1l0.2-0.5l1.4-1.6l2.4-2.4v-1.3l0.2-0.3l1.6-0.3v6.2l3.3-6.3
			l0.5-0.2l0.2-0.2l1.1-0.2l0.6-1.9l0,0l3-3v-1.4l0.5-1.3h0.8l0.2-0.8h0.6l0.6-0.5l1.3,1.9v2.4h1.4l0.3,0.2l1.4,1.7v3l-3.2-2.5v3.2
			H577v1.4l-3.3,1.6l2.4,0.8l-0.3,0.3l1.1,2.1l-1.3,1.7l1.9,1.3l0.2,1.1l1.4,1.4l-3.2,2.2l2.1,1.1l0.8,3.8l-1.4,1.9l-0.6,0.2v2.7
			l-0.6,0.6v1.7l-1.6,1.3l0.2,0.8h-6.3l4.4,3l-0.6,0.6H568l2.2,2.2l-5.4,5.4l5.1-2.1v3.6l-0.8,1.6l-1.1,0.6h-1.1l-1.1,0.3L566,568.4
			L566,568.4L566,568.4z M625.8,567.6L625.8,567.6v-0.3h0.6l0.3,0.2l0,0h-1.1L625.8,567.6L625.8,567.6z M599.2,557.3l0.5-1.4
			l0.3-0.3l0.8,0.6l1.4-0.3h0.8l0.8-0.5l-0.2,0.2l-0.8,0.6l-2.2,0.6l-0.5,0.5L599.2,557.3L599.2,557.3z M597,545.9l-0.3-0.2l1.4-1.4
			l0.6,1.1l0.3,0.2l-1.3,0.3L597,545.9L597,545.9z M505.6,542l-0.8-0.3l-1.6-0.3l-1.1-1.1l1.7-1.3h-3l-0.6-0.6l-1.7,0.6l-2.7-3.3
			l0.5-0.5l-1.3-2.7l-1.4-0.5l-0.8-1.1l-0.8-0.6l0.6-0.6l-1.7-1.7l0.2-0.2l0.6-2.7l-0.6-1.6l-0.3-1.1l-0.5-4.3l-1.4-2.2l-0.6-0.6
			l-1.3-0.6v-2.2h-1.1l-0.3-0.6l-0.8-0.3l-1.9-2.2h-0.5l-0.3-1.4l-0.8-0.3v-0.8l-0.5-0.5V504l-2.1,0.8v-0.2l0.2-0.2V500h-0.6
			l0.5-0.5l-0.5-0.5l0,0l0,0l-0.2-0.2l0.8-2.2l0.3,1.1v0.6l0.8,1.1l-0.5,1.3l1.9,1.9l3.3-0.6v0.6l1.4,1.4l0.5,1.1h0.6l0,0v1.4
			l0.5,0.5l-2.1,0.8v3.5l2.7,0.8l3.3,3.3l1.3-1.3h1.6l0,0l0.2,0.5l0.6,1.9l0.6,0.3v1.1h3.3l0.2,0.2l3.6,3.6l0.8,1.4l0.2,0.6
			l-0.3,0.3v3l-0.5,0.5v2.5l0.5,0.5v1.3l-2.1,1.3l3.2,3.2l0,0l0.5,1.4l0.6,0.6v0.5l0.6,0.6l0.6,1.4v1.1l-1.6-1.6v2.4l-0.3,0.3
			L505.6,542z M493.1,538.8l0.3-1.4h0.2l1.1-1.1l0.2,2.4L493.1,538.8L493.1,538.8z M490.4,538.8l0.5-0.8l0.8,0.8H490.4z
			 M582.6,521.3L582.6,521.3L582.6,521.3L582.6,521.3z M616.3,515.4h-1.4l0,0l-0.3-1.1V514l3.2,2.1l-0.2,0.2L616.3,515.4z
			 M388.9,515.7l-0.6-2.7l-0.6-1.7l0.3-0.5l-0.6-1.7V508l0.3-1.7h4v0.5h1.4l0.2,0.3l1.3,2.7h0.2l-0.2,0.8l0.3,0.3v1.9v0.2l-0.8,1.4
			l-0.8,0.8l-0.8,0.3h-2.4l-0.6,0.3L388.9,515.7z M614.7,509.6l-0.5-0.6l-1.3-1.4l1.6-0.6v-0.2l3.2-1.6v-0.6l0.5,0.5l1.3-1.7
			l1.6,1.3v-3.6l0.8,0.8l-0.5,1.3l0.8,2.5h0.2v3.2l-2.5,0.5l-1.6,3.2l-0.5,2.2l1.1,0.6l-0.5,0.5L614.7,509.6z M623.9,509.6
			L623.9,509.6L623.9,509.6L623.9,509.6L623.9,509.6z M608.7,505.1h0.5l-0.3,0.5L608.7,505.1z M387.7,503.6h1.1v-1.9h0.6v0.2v1.9
			h0.3l-2.2,1.4L387.7,503.6L387.7,503.6z M370,503.2l-0.8-0.6l-1.1-1.4l-1.6-3.3v-1.7l-0.5-2.4l-1.1-1.7v-2.5h-0.8v-0.2l-0.5-1.9
			l-1.6-2.1l-1.7-2.1h-0.5l-0.5-0.5l-0.5-1.4l-0.3-0.3l-0.3-1.6l-0.5-1.3l-1.1-2.4l-0.3-1.3l-0.8-1.9v-3.2h-1.4l-0.3-0.3v-1.4h-1.3
			l-0.3-0.6v-0.6l-0.6-0.6l-0.5-1.7l-1.3-0.5l-0.6-1.4v-3l-1.9-4.1v-0.5h1.6l-2.7-4.1l0.6-0.6l-0.6-1.9v-1.3l-1.4-3.2v-0.2l3.6-1.6
			l-3.8-1.6l0.3-0.6v-1.9l-0.6-1.9l-0.3-0.3l-0.2-0.5h0.2l0.2-0.2h10l-9.5-3.8l7.4-7.4l-7.7,3.2l-0.5-0.5l-0.5,0.2l-3.2-7.6v10
			l-1.6,2.7l1.4,1.4v0.3l-1.3,1.3v0.2l-0.8,0.5l-2.7,1.7l-0.5,0.2l-0.8-0.2l-3.8-2.7l-1.3-1.4v-1.6h-0.2v-0.5l0.8-0.8h0.5l1.1-1.4h6
			l1.9-4.4h-5.4v1.3l-1.7,1.1l-3.2-1.1l-1.1-1.4l0.3-0.3l0.6-0.3l-1.3-3.3l-1.6,0.5l-1.1,0.8l-1.7-1.1H321l-0.3-0.8v-0.2l-0.2-0.2
			l0,0l0,0l-0.5-0.5l-0.5-1.7l-0.8-0.8v-2.7l-2.4,0.8v-0.2h-1.7l-0.6-1.9l-1.9-1.9h-2.4l-0.8,0.3l-0.3-0.2l-1.4-1.4l-1.3,1.3h-0.5
			l-0.6,0.3l-0.6-0.3h-3l-0.8,0.8l-0.3-0.3H299l-0.5-0.5h-2.4l-0.6-0.3l-1.7,1.7v0.5h-2.1l-1.1,0.5h-1.3v-0.5H286l-0.6,0.6l-0.2,0.2
			l-1.1-0.3l-0.3-0.2l-0.5-1.6h-2.7l-0.3,0.6l-0.8-0.3l-0.5,0.5l-0.3-0.2h-2.8l-1.4-0.5l-2.4,0.3l-1.3-1.1h-1.7l-0.3,0.3l-0.3-0.3
			h-3.8v-0.8l-1.3-2.2l-0.5-1.9l-0.8-1.3v-0.6h-0.5l0,0l-3.6-0.8l-1.9,0.6L255,404h-1.1l-2.4,1.6l-0.8,0.6l-1.3-0.8l-2.5-0.6
			l-1.4,0.5l-1.3-0.8h-1.4l-1.4-0.5l0.3-0.3l-2.2-2.2h-1.1l-0.5-0.5h-1.6l-0.2-0.2l-2.2-0.6l-1.6,0.3l-1.1-2.7l-1.4-3.6l-1.1,1.1
			l-0.3-0.3h-4.1l-0.5-1.1h-1.4l-0.3-0.8l-1.6-2.2v-0.8l-1.6-1.7l-1.7-1.7l-1.1,1.1l-0.5-1.4l-1.4,1.4l-0.5-0.5h-0.6v-3.2l-3.2,3.2
			h-7.1l5.4,2.1l-0.2,0.5v1.3l0.2,0.8l-5.5,0.8l4.1,2.7h-1.4l3.8,3.8v0.2l0.6,0.6l0.3,0.6l1.4,3.6l1.9,0.5l0,0l2.1,2.1h0.3l0.6,0.8
			l2.4,6.2l2.7,3.2l0.5,1.4l2.5,2.5l1.4-1.4v1.3h1.1l0.6,1.6h0.8l0.2,0.2l0.5,3l2.7-1.1h0.5l1.7,0.6l2.1-1.9l1.4,0.3l0.5-0.2
			l0.5,0.5h2.1l1.9-0.6l0.2-0.2h1.4v-0.8l3.3-3.3l-1.3-1.3l2.7-2.7l0.5,0.5l0.5,3.3l2.1,2.4l0.5,0.5l3.2,2.7l2.4,1.1l0.6-0.6h0.2
			l2.7,0.5l1.3-0.5h5.5l0.6,1.1l0.5,1.6l1.3,1.3l0.5,1.3l2.5,1.7l0.3,0.2l-0.2,0.5v0.5l-0.2,0.5l-1.7,2.5l-1.3,1.3l-0.3,0.6
			l-0.5-0.5l-0.6,0.6v-5.8l-3,7.4h-1.9l1.4,1.4l-1.3,3.2h1.4l0.2,0.5l-1.1,0.2l-0.3-0.3l-2.5,1.1l-2.4,3.3v1.1l-1.7,0.6h-0.8
			l-1.9,1.9v2.5l-0.2,0.2l-0.6-0.3l-1.4,0.5h-1.3l-1.7,1.1h-1.7l-0.2,0.5l-0.5-0.5l-1.4,1.4l-0.6,0.2l-2.4,0.5l-2.2,2.5l-0.8,2.1
			l-1.1,0.2l-1.4,1.4l-1.6,0.8l-3.3,0.5l-0.5,0.5l-4.9,1.6H227l-1.9,0.6l-1.3,2.1l-0.2,0.2l-0.6-0.6l-1.3,1.3l0,0h-2.5l-3,2.2v0.2
			l-1.3,0.3l-1.9,0.8l0,0l-0.6-0.6H211l-0.5-0.5H208l-2.2,2.2l-0.2,0.5l-1.1,1.4H202l-1.4,1.4h-0.2l-1.7-0.5l-0.2,0.2l-0.2-0.5
			l-1.1-1.1l0.2-0.2v-3.3l-1.4-1.3l-0.3-4.7l-0.8-1.1v-0.2h0.5V464l-0.5-3.2l-0.5-1.3l-1.4-3.6l-1.6-0.3l-0.5-2.7h-1.3l-2.7-2.7
			v-1.7l-1.4-0.5l-1.1-3.6l0.6-1.7l-1.6-0.6v-0.6l-2.2-1.9l-0.5-1.3h-1.9l-0.5-0.2l-3.8-3.8l-0.3-1.6l-0.5-1.9v-0.2l0.6-3.2
			l-0.8-0.8l-0.5-1.7l-1.1-1.1l-0.5-1.7l-0.5-0.5l-0.6-1.9h-0.5l-0.2-0.3l-1.4-1.7l-1.9-1.3l-2.2-2.2l-0.5,0.5l-0.2-0.2l0.5-0.5
			l-1.1-3.2l-1.3-0.5l-1.1-2.4l-1.4-0.5l-0.5-1.4l-1.1-0.5v-0.2V404l-1.9-4.1h-0.8l-0.3-0.3l-0.5-1.1l-0.5-0.5l-0.3-1.1l-1.6-1.9
			l1.3-1.3l-4-1.6v-3.3l0.5-1.1v-9.6l-3.6,9.2l-0.5,0.5l-1.4,3.5v1.3l-0.5,1.4l-1.9-1.9l-0.6-1.6l-1.4-0.5l0,0v-1.6l-1.9-1.7v-0.3
			l-0.5-0.5v-5.1l2.7-0.5l3.6,0.6l2.4-0.8l0.6-1.7l1.3-1.9l1.6-3.3l0.3-3.5l1.6-1.6v-1.4l2.1-2.5l0.5-4.1l0.5-2.1v-2.2l0.5-1.4
			l-0.6-2.1l-1.1-1.7l0,0l1.4-1.4l-1.4-1.4l1.7-1.7v-2.8l-3.3-1.4l-2.1,2.1l-0.2-0.2l-2.2-1.3h-1.7l-3.2,3.6l-0.2,0.3h-0.3l-1.4,0.5
			l-4,0.3l-0.6-0.5l-2.2-2.4h-1.6l-2.5-1.1l-2.2-0.5l-4.3,1.1l0.6,1.9l0,0l-0.3-0.2l-0.6,0.6h-0.5l-0.6,0.6H121l-0.8-0.3V344h-3.5
			l1.1-1.1h-3.5v-1.3l-0.8,0.8l-1.1-1.1l0.6-0.6l-1.3-2.7l-2.4-1.1l-0.6,0.3l-0.2-0.2l0.2-0.5l8.9-3.5h-7.3v-3.3l-1.7,0.6l-0.3-0.8
			l3.3-3.3h-5.5l-0.3,0.2l-0.3-0.3l0,0v-0.3l-0.2-0.2l0.8-1.9l0.6,1.6l2.1-0.8l0.6,0.3h3.2l3.8-1.6l-0.8-0.8h0.6l2.7-2.7l-0.5-0.2
			l0,0l0,0l3,1.1h3.8v-1.4l0.2-0.2l0.5-1.1l1.1-1.1l1.4-0.5l0.3-0.8l0.8-0.2h1.3l2.7-1.3l0.6-0.3h3l0.6-0.3l0.6,0.3h2.4h0.2l3.3,3.3
			l0.5-0.5l0.5,0.5l1.4-1.4l0.2,0.3l1.6,1.6l2.4,1.1l0.5-0.5l1.1,0.6l1.3,0.5l3,1.7l0.2-0.2l0.2,0.2l2.7,0.6l2.5-1.3h1.7l0.3-0.2
			l0.2,0.2h4.3l0.3,0.3l3.5,0.6l0.5-0.5h1.7l0.6-1.7l1.4-0.8l1.6-1.6l0.5-1.4l1.4-1.4l-0.5-1.1l0.5-0.6l-1.7-2.5l-0.3-1.9l-0.5-1.4
			l-1.6-2.4l-0.5-0.2l0,0l-3.2-2.5l-0.5,0.5l-0.3-0.2l-1.4-1.4h-0.8l-0.5-0.2l-0.6-0.6h-1.6l-0.5-0.2l-0.5-0.5l-0.6-0.3l-0.3-0.8
			l-3.6-3l-1.4-0.5l-2.4-1.4l-1.6,0.3v-1.1l-0.5-0.5l0.2-0.2l1.7,0.6l1.4-4.1l-0.5-0.5l2.7-2.7v-2.2l-1.1-0.3l1.3-2.7l2.4-1.1
			l1.1-2.7l-2.1-2.1l-2.7,0.8l-0.5,0.5l-0.3-0.2h-2.5l-1.1,0.5h-1.6l-1.3,1.3l-0.2,0.3H151l-0.6,1.9l-0.3,0.3h-1.3l-0.8,0.3
			l-1.4-0.5l-0.5,0.2l-0.3-0.6H140l1.7,1.7l-0.2,0.2l-1.1,1.4l-1.1,0.3l-0.2,0.2l0,0l-1.9-0.6l-0.5,0.5l-1.1-0.5l-1.1,1.1l-1.1-1.1
			l-0.6,1.9l-1.3-0.5l-0.8,0.3l0.2-0.2l-0.8-0.3l-0.8-2.4l-0.6,0.2h-0.2l-1.9-1.9l-1.3,1.3l-1.3-1.3l-1.7,1.7h-0.6l-2.4,0.8v1.9
			l-0.2,0.2h-3.8l0,0l0,0l0,0l0,0v6.3l0,0l-1.3,1.3l1.1,1.1l-0.3,0.3l-0.3,0.2H112l-0.6,1.9l-1.1,1.1l0.6,1.9v0.6l-0.5,1.4l0.5,1.4
			v2.5l-0.2,0.8h-0.6l-2.5,2.1l0.5,3l-0.2,0.2l-1.1,0.8h-2.5l3.5,4.1l0.8,0.8l0.5,1.7l1.7,1.7l0,0l-0.5,0.5h-1.4l-1.7,0.6l0.2-0.3
			l-3,2.5l-1.3-1.4l-0.5,0.5l-0.2-0.5l-2.4-0.8h-1.1l-0.5-1.1h-3.3v1.3l-1.3-1.3l-3,1.3l-0.3,1.1l-1.3-0.6l-1.4,1.4l-0.6-1.7
			l-3.5,1.4l-0.8,2.4l0.3,1.6l-1.1,1.1l2.7,3l-2.1,2.2l1.3,0.5l-0.6,0.3l-0.2-0.2l-0.2,0.2l-0.5,0.2l-0.8-1.3v-1.6h-1.4l-0.6-0.8
			l-1.3-0.8v-1.6l-1.6-0.6l-1.3-2.7h-1.1l-0.5-1.3v0.3l0.5-1.4l-0.5-1.9l0.3-1.6l0.3-0.3l1.1-2.5l-2.4-2.1l-0.6-0.3l-0.3-0.6l-2.4-3
			l-1.3-0.5l-0.2-0.2l-2.2-2.5l-0.6,0.6l-4.1-4.1l-1.6-0.6h-0.5l-5.8-5.8h-0.5l-0.5-0.5l-0.8-0.8l-0.5-1.4l-1.3-1.3l-0.6-1.9h-3
			l-1.1,1.1v-2.2l-4.3-1.7l-1.9,1.9H38l-0.8,0.8c5.1-18.2,11.4-35.9,19.1-53.1v0.2l3.6,0.6l0.8,0.8l2.5-0.8l2.1-1.6l5.5,0.3l7.6-0.6
			l-0.8-3.2l0.6-1.6l-1.4-1.4l-0.5-1.1l-1.4-1.4l-2.4,0.5l-0.3-0.2l-1.7-2.4l-1.1,0.3l-0.2-0.3v-2.4l-0.5-0.5l-0.2-0.5l0.8-0.3v-2.5
			l0.5-0.5l1.3,1.3v-4.4l0.5-0.2H73l0.6-0.6l0.8-0.3l1.9,2.2l0.5,1.3l1.9,1.9h3l1.6-3.6l0.5-2.2l-0.5-2.5v-2.1l0.5-3.2l-1.6-4
			l-1.9,1.9l1.4-3.3h-0.8l0.6-1.7l1.3-0.5l0.5,0.5l2.1-0.8l0.2,0.2l1.6-0.6l0.6,0.3h1.7l1.7,1.1h7.3v-1.9l0.3-0.8l0,0l1.6,1.6v-2.1
			l2.5-1.1l-1.1-0.5l0.8-0.8l0.2-0.3l1.6,0.5l1.4-3.6l-2.4-2.4H101l-0.3-0.6h-0.2v-0.6l-2.2-2.5l-1.3,1.6c0,0-0.2,0.2-0.3,0.5l0,0
			H97l-0.8,0.8l-1.4-1.4l-2.1,2.1l-0.3-0.2l-1.6,0.5l-1.6-1.6l-0.5-1.1l-0.2,0.5l-0.6-0.6v1.9l-1.3,1.1l-0.3-0.3l-2.1,2.1h-0.3
			l-2.4-0.8c10.1-15.7,21.8-30.8,34.1-44.7l-0.6,1.9l1.6,0.6v0.2l1.4,1.4v1.1l1.1,1.1v0.6l0.3,0.6l-1.6,4l3.3-1.1v0.2l3.6,2.1
			l0.6-0.6l0.3,0.2v0.6l1.4,1.4h1.7l0.5,0.5h1.4l1.1,1.1h1.9l1.1-1.1h1.1l1.4-1.4v-3.6l-0.6-0.3v-1.1l1.1,0.5l3,3l1.3-3.3l1.4-1.4
			l0,0l0,0l2.5-2.5l-2.2-3.3l-2.2-2.2l-0.2-0.6v-2.4l-2.7,0.6l-0.8,0.3h-1.7l-0.5,0.5l-1.6,0.3l-2.5-0.3l-1.3-0.3l-1.6-1.6l-1.6,0.6
			l-0.6-0.3h-1.7l-0.2-0.2l-2.1-0.8l-0.5,0.2v-1.9l-0.5,0.2c4-4.1,7.9-8.2,12.2-12.3h0.2l1.4,1.4l1.1-0.5l4.9,3.2v-1.3l0,0l0.3,0.3
			l0.6,0.6l0.5,1.1l1.7,1.7v1.3l-0.3,1.1l-2.5,6.3l5.8-4.3l0.6-1.9l1.1,1.1l1.3-0.3l-3,7.1l5.7-5.7l0.2,0.5l5.2,5.2l-1.9-7.7
			l-0.2-0.3l0.2-0.2v-2.7l0.6-1.9l-0.2-0.2l0.6-0.6l-0.5-0.5l0.5-0.5l-2.5-2.5l-1.7-0.6l0,0l0.2-0.3v-1.9l0.6-0.6l-0.6-1.9l0,0
			l1.3-1.3l-1.3-1.3v-0.8l-1.4-2.4h0.2l1.6-0.3l1.9,0.3l0.2,0.2v1.1l1.9,1.9l0.6,0.3l0.2,0.6l0.2,0.3h-0.3l-0.5,0.5h-1.4l-2.2,2.2
			l0.3,0.3l-0.5,0.5v3.3l1.9,0.6l1.6,1.4l2.4,3.5h2.5l0.5,1.4l1.7-1.7h1.1l0.8-0.8l9-5.5l-7.9,1.4l0,0v-1.6l1.3-0.2l0.2-0.2l5.1,0.6
			l-1.4-3.3h0.2l2.2-2.7l0.5-0.3l1.9-2.5l0.3,0.2l2.1-0.6v1.6l-0.3,0.3l2.5,2.5l3.3-2.2l0.3,0.8l2.7,1.3l0.3-0.3v7.3l3.6-9l2.1,0.8
			l2.4-2.4l-0.5-0.5l1.1-1.1L197,113l0.5-0.5l0,0l0.5,0.5l0.8-0.8l0.3,0.2h3.2l2.4-1.1V111h3.3v-1.9l0.3-0.3l1.1-0.5l0.2-0.2
			l0.5,0.2l-0.5,0.5l0.6,1.6l-0.5,1.1l1.3,2.7h4.7l1.4-1.4v-1.6h0.2l0.8,0.3l-0.5-0.5l1.3-0.5l0.2-0.8l7.9,2.5l-6.8-6.8l-0.3-0.2
			v-0.3l-1.9-3h-0.8l-0.2-0.8l-0.3-0.3l0,0v-2.5l-0.2-0.3l0.5-0.3l0.6,0.3l1.1-0.5l0.8,0.3l4-0.5l4.1,0.3l1.3,0.8l2.2,0.8l1.6,3.8
			l2.5-2.5l0.8,0.8h0.6l0.3,0.8l2.4,0.5l3,1.7l2.5,0.3l0.3,0.3l0.5,1.7l1.9,0.6l0.6,0.6l1.3,2.7l4.1,1.7v-3.3v-0.2l0.8-0.8l-0.5-1.1
			l0.2-0.2v-2.5l3.5-3.5h-4.4l-0.5-0.5h-0.5l-0.6,0.3l-2.2-3.2h-0.6l0,0v-1.7l-2.2-2.2l-1.1,1.4l-0.3-0.3h-1.6l-0.6-0.3v-0.3
			l-1.3-0.5l-0.3-0.8l1.3-1.3v-2.4l6.3,2.5l-7.6-7.6h-1.1l-0.6-1.1l-1.1-1.1l0.6-0.6l-0.8-2.2l1.6-2.5l2.2-2.2l-0.6-1.9v-0.5
			l0.6-1.9l-1.4-1.4v-0.6l-0.6-4l-0.3-1.1V61l-0.3-0.3l0.2-0.5l1.4-1.4l-1.6-1.6l0.3-1.3v-0.3c1.1-0.3,1.9-0.8,2.7-1.3l0.5,0.3
			l0.3,0.6l2.4,1.1l0.6-0.6l0,0l3.2,1.1h0.2l0.6,1.7v1.6l0.5,0.5V62l0.3,1.3l-0.5,3l0.2,0.5l-0.5,0.5l0.6,1.6v0.2l-1.1,1.1l1.1,2.4
			l1.1,1.1l0.5,1.7l0.6,0.3v1.9L255,77l0.2,1.1l1.3,1.3l0.2,0.5l0.5,3.5l0.8,0.8l0.2,0.9l1.4,1.4v1.1l1.3,2.1l-0.3,1.3l0.8,2.4h0.2
			l-0.2,0.5l0.8,0.8l0.3,1.7l2.5,3.6l1.6,0.3l0.3,1.1l1.4,0.5l0.2,0.2v1.9l-0.5,1.6l0.6,3l1.1,1.1l-0.8,0.8v0.8l-0.6,1.9l0.6,0.6
			v0.5l-2.4,1.1l2.2,2.2v1.1l-1.6-0.6v1.7h-3l-0.3,0.3l-3.2-1.7l-1.1,1.1l-2.2,0.3h-2.1l-4,4.9h3.6l1.7,1.7l0.6-1.9l1.4,1.3l4.1,0.5
			l2.1,0.5l2.2-0.5h0.8l0.3,0.3l3.3,0.6l2.5-2.1v-1.7l1.7-0.6v-1.6l1.4-1.4v-1.4l1.4-3.2l-1.3-1.6l0.2-0.5l1.3-1.7l0.6-1.9l-1.7-5.1
			l-2.1-1.1l-0.2-0.3l-0.3-1.7l0.5-0.5l0.8-0.8l1.4-0.5l1.1-1.1v1.3l2.1,1.4l0.6,1.7h0.6l-0.6,1.7l2.1,0.8l0.3,0.6l0.8,0.8l-0.6,0.6
			l2.7,2.7h1.3l1.6,1.4l2.2-0.6l1.3-0.5l1.6-0.5l2.4-2.4l-2.4-2.4l-0.5,0.2l-0.8-2.2l-1.9,2.4l-0.2-0.5h-0.5l0.3-0.8l-1.3-1.3
			l-0.5-0.6l5.1-2.1l-4.4-1.7l-0.3-0.6l-0.5-0.5l-0.5-1.3l-1.1-0.8v-0.8l-2.1-2.4H283l-1.4-0.6l-0.8-2.1l-1.9,0.6l-1.7-1.1l-1.3,0.5
			l-1.6-0.6l-2.2,2.2l-0.2,0.3l-1.4-0.3l-0.5,0.3l-0.6-1.7l-1.9-1.9l-0.2-0.3l0.5-2.5l-1.1-1.6l0.2-0.5l0.5-3.8l-1.6-2.7l-1.7-1.7
			h-0.8l-0.2-0.6l-3-2.4l-1.3-0.6l0.5-2.2l-0.3-4l-0.3-0.3l0.2-0.2l1.7-1.9l0.5,1.6l1.1,1.1v1.1l0.5,0.5l-1.1,0.3l1.7,4.3l1.7-0.6
			l1.1,0.8h2.7l0.5-0.2l1.1,2.7l2.4-2.4h1.9l3.2,2.5l1.3-0.2l4,4l-1.9-4.4l7.3-7.3l-8.5,3.3l-0.5-0.2l-0.2-0.5l-0.3-0.3l-0.6-2.1
			h-1.9l-0.5-1.1h-2.2l-0.3,0.3l-1.4-0.2l-1.3-1.3H269l-0.8-0.6l-0.6-1.7h-0.5l0.3-0.3l0.6-0.5h0.3l1.1,1.4l0.5,0.3l3.2,1.4l2.5-0.8
			l1.9-3.5l-2.1-3.3l-1.9-0.5l0.2-0.2h3.8l0.5,0.6l1.6,1.6l2.4,0.3l0.3,0.8l1.4,0.5l2.2,2.2h2.2l3.3-0.5l1.1-0.6l0.5,0.5l0,0v0.2
			l0.5,1.4V64l-1.7,1.4l0.8,1.9v2.2l1.7,1.3l-0.5,1.3l0.6,5.1h2.7l3.5,2.2h2.1l1.4,0.3v1.6l2.1,2.1h1.9l7.4,7.4l-3.5-8.7v-0.3
			l0.3-0.5l2.2,1.6h1.3l5.7,5.7l-3.2-9.5h-2.1l-0.8-0.3l-0.8-0.5l1.3-1.6l-5.5,1.4l-1.1,0.6l-1.3-0.5l-0.3,0.3l-0.3-0.3l-3-3v-0.5
			l-0.3-0.2l-0.2-0.2l0.8-2.1l-0.8-2.2l-1.3-1.1l-0.3-2.2l-2.2-3.2l-1.3-0.5l-0.2-0.2l0.3-0.8l-0.6-1.6l-0.5-3.3l-2.1-2.1h-0.3
			l-1.7-1.1h-2.5l-0.6-0.8l-0.8-0.6l0,0l-0.5-1.1v-5.1l-3.5,3.5l-2.7-0.3h-0.5l-0.5-0.3l-0.6-2.1h-0.3v-1.6l-1.7-3.3l-0.8-0.5
			l0.3-0.8l-1.1-1.1c4.9-1.6,9.6-2.7,14.4-4.1v0.6l3.2,2.7H307l-9.2-3.6l-0.5-0.5l1.7-0.8c23.7-5.7,48.1-9,72.4-9.8v0.8l0.3,0.3
			l-0.2,1.1l-0.8,0.3l-3.8,9.6l5.8-5.8h1.1l1.9-1.9l0.5-1.3h0.2l5.4-2.2l-2.7-1.3c1.7,0,3.5,0,5.1,0c93.3,0,181.6,35.4,248.8,99.9
			v0.5l-2.2,2.2l0.5,0.5h-0.8l-0.8,0.8h-3.2l-0.8,0.3l-1.9-0.5l-2.4,1.1l-2.4-1.1l-0.6,1.6h-1.7l-1.1,1.1h-2.2l-1.4,1.1h-1.3
			l-1.4,1.1l-0.2-0.3h-2.7l-0.6,1.7l-1.7,1.4l-0.5,1.3l-1.1,1.1l-0.8,2.2l1.4,2.1l-0.2,0.8l-1.1,1.4l-1.7,2.5l0.6,1.6v1.9l0.3,0.8
			l-0.6,0.6v1.1l-0.6,0.6l0.5,1.7l-0.6,0.6l-0.5,1.4l-1.7,2.2l0.2,0.3l-0.3,0.2l-0.3,1.6h-0.6l-0.6,4.4v1.3l-0.6,0.6l0.5,1.1
			l-0.5,0.5l-0.5,1.3l-1.4,1.6v0.3l-0.5,0.5v1.7l-1.4,1.1v1.9l-1.4,1.4v1.3l-0.8,1.1l-1.3,3.2l1.1,2.4l2.4,1.1l0.6-0.3l0.8,0.8h2.5
			l1.4-1.4l1.1-0.3v2.4l1.3,1.6l0.2,0.5l-0.6,1.9l4,3.5l0.2-0.3l0.6,0.6l2.7-0.5v1.3l3.6-3.6l0.6-1.9l-0.6-0.6l0.5-0.8l-0.2-0.3
			l0.5-1.3l0.5,0.2v-1.3h1.4l-0.8-0.6h0.8l0.3-0.3l0.3,0.3h1.6h0.2l0.3,0.6l1.1,1.1l1.4,0.5l0.3,0.3l2.4,1.1l0.6,0.6h0.6l0.5,1.1
			h0.6l0.2,0.2l-0.2,0.5v0.6l-1.3,1.3l2.7,2.7h1.3l0.3,0.6l-0.3,0.3v2.5l1.9,1.9l0.6,0.3l0.6,1.9l0.2,0.2l-0.2,0.2l0.5,0.5l-0.6,0.6
			l0.8,0.8l-0.3,0.6l0.8,2.1l-0.3,0.3l0.6,3.2l0.3,0.8v1.1l1.4,4.4l0.3,0.2l-0.3,0.3l1.1,2.4l1.1,1.1v1.9l0.5,0.5l0.6,4.3h0.3v1.4
			l0.5,1.1v0.3l-1.4,1.4v1.9l-0.5,1.9l0.6,2.5l0.2,0.2l-1.1,1.1v1.6l-0.3,0.5H629v2.1l-1.3,1.3l0.5,2.4l-1.3,1.3l0.8,2.7l0.2,0.2
			l-0.8,1.1l-0.3,1.1l-1.4,1.4v1.3l-0.8,1.3l-1.1,4.1l-0.3,0.3l-0.8,2.4l-1.1,0.8v0.6l-1.1,0.5v1.7l-0.6,0.6l0.2,0.5l-3.2-1.3
			l1.7,4.4v0.2l-2.4,1.1l1.3,1.3l-0.6,0.6l-0.6,0.6h-1.1l-0.6,0.6l-1.4,0.5l-0.2,0.2l-0.5-0.5l-0.5,0.5l-0.3-0.3l-0.5-0.2v-1.3
			l-1.7-1.7l-1.6,0.6l-1.6-0.6l-1.7,1.7v1.1l-1.1,1.1v1.7l-0.3,0.3l-0.2,0.6l-1.9,0.6l-0.3,1.1h-0.3l-1.7,1.7h-1.4v2.7l-0.5,2.7v2.7
			l1.1,1.1v3.3l0,0l-1.6,1.4l0.5,0.5l-2.1,2.1v0.6l-0.3,0.2L594,305h-0.6l-2.1,0.8l-0.5,1.4l-1.6,1.4v2.2l0.2,0.3l-0.3,0.3l1.1,3.3
			h0.3l-5.1,2.1h-0.3V316l1.3-2.2l-0.3-0.8l1.4-3.6h-3.6l-0.6,0.6H583l-2.2-0.8l0,0l0,0l-0.5-0.2l-1.3-3.2l-2.5,3.5h-0.3l-0.6-0.6
			l-2.1,1.7h-1.6l1.3-2.7l-4.4,4.4v-1.4l0.6-0.8l1.3-1.3v-2.7l-3-1.6l-3-4.3l-1.1,2.5h-2.7l-0.6,1.9l-0.5,0.5l-0.5,1.1l-1.4,1.4v1.6
			l-0.6,0.6h-0.8l-2.7,1.9l-0.5,3.2l-1.1,1.1h-1.9l1.6,1.6h-0.2l-4-0.8v2.5l-0.5,0.5v1.1l-0.5,0.5v0.5l-0.6,0.6l0.6,1.9v1.9l2.1,0.8
			l1.4,0.8l0.3,0.3l1.9,2.2v1.9l0.8-0.8l1.3,1.6v-2.7l0,0v0.3l1.9,4.1h2.7l0.6-0.3l1.6,0.6l1.6-1.6l1.1-2.4l0,0l0.5-0.5v-0.8
			l0.8-0.3l0.3,0.8l1.6,1.6h4l-0.3,0.3h-1.1l-0.2,0.2l-0.6-0.3l-4.1,1.7l1.9,1.9l-0.5,0.2v0.5H566l-2.7,2.7l0.8,0.8l-0.3,0.3
			l-1.6-1.6l-1.6,4.4l0.5,1.3l-0.3,1.4v4.3l3,1.1v2.4l2.7-1.1l1.6,0.6l1.1,2.2l-0.5,1.6l1.6,0.6v1.1l1.9,1.4v1.4l1.6,2.4l-3.2-0.6
			l0,0l-0.3-0.8l-2.4,0.8l-1.6-0.6l-0.2,0.2l-0.2-0.2l-2.7,1.1l-7.9,17.4l10.6-14.1l0,0l1.4,0.5l0.3-0.2l1.6,1.4l2.2,0.8l1.4-0.8
			l1.3,1.3l1.9,1.3l2.4,1.6l0.3,0.6l-0.3,0.2l-0.8,1.1h-0.3l-1.4,1.4v0.2l-5.2-2.1l2.4,3.2l-1.6,1.6v0.5l-4,4l4-1.6v7.9l3.6-9.2
			l0.3-0.3l0.5,0.5l2.5,1.1l0.6-0.6v1.4l-1.1,0.3l1.1,1.1v1.4l-2.2,2.2v3h1.1l0.2,0.2l-1.1,1.1l0.3,0.3l-0.8,1.4h-0.2l-0.2,0.6
			l-0.2,0.2l-0.5-1.3l-2.2,5.5h-1.1l0,0l0,0h-0.2l-0.2,0.3l-2.2,2.2h-1.9l1.1,1.1l-1.4,1.4h2.7l0.5,0.5l-1.1,0.3l-3.2,7.7h-3l4,4
			h-0.6l-0.5,1.1h-0.5l-0.2,0.5l-1.6,0.5l-5.4-5.4l3,7.6l-2.1,2.1l-0.5,0.2h-2.4l-0.2,0.3l-1.1-1.1l-1.4,1.4l-1.1,0.3l-1.3-1.3
			l-3.8-1.6v4l0.5,1.1v0.2l-2.4-2.4v4.3l-0.2,0.5l-0.5,0.5l-0.8,0.3l-0.6-0.3l-1.4,0.5h-4.7v-1.7l-3,3h-4l2.2,2.2l-0.6,0.6v-0.8
			l-1.7-1.7l-1.6,0.6l-2.1-0.8l-0.5,1.3l-1.1-1.1l-0.3,0.3l-1.7-4.3l-1.6,4.1l-0.3-0.3l-1.3,1.3h-4l1.7,1.7h-1.1l-1.7,0.6l-1.3,1.3
			h-2.1v1.4l-1.3,1.3l1.3,1.3v1.6l0,0l-0.6-0.6l-1.9,1.9l-0.5,1.1l-0.6,0.6v2.7l-0.6,1.9l0,0l-2.5,1.1l4.9,1.9l1.1,0.8l1.7,1.7
			l3.3,8.2v-7l0,0v0.3l3.8,1.7l2.2,1.4l0.3,1.1l2.5,1.9l0.8,0.8l0.6,1.6v0.3l1.1,1.1l-0.6,0.6l1.9,1.9l0.5,1.7l0.5,0.5l0.5,1.7
			l0.2,0.2l-0.5,0.5l0.5,1.1l-0.5,0.5l0.6,1.9v1.6l0.6,0.6l0.2,0.3l-0.8,0.8v2.1l0.3,0.6l-0.2,0.2l-1.6,0.6l0.8,2.1l-0.6,1.6l0,0
			l-0.3,1.1l-1.1,1.1l-3,1.3v0.5l0,0l-0.6,0.6l-1.7,0.8h-0.2l-0.6-0.6l-0.2,0.2v-3.2l-3,3l-0.3-0.2H515v0.8h-7.3v-3l-3,3l-1.4-3.6
			l-0.2,0.2l0,0v-0.6l-1.6-2.4h-1.7l-3.2-3.2l-0.8-0.3v-0.2l-1.3-1.3l-2.1-0.8l0,0l-0.5-1.1v-0.3l1.3-1.3l-1.9-1.9l-1.7-0.6h-0.5
			l-0.6-0.6l-1.4,0.5l-1.1-1.1l-0.6,0.6l-2.4-2.4v4l-1.7,1.7l2.7,1.1l-0.2,0.5v0.6l-1.3,1.3l0.8,0.8l-1.1,1.1l-0.5,1.1l-1.3,1.3
			l-0.5,3.8l-1.3,1.4v1.4h-2.1v-1.6l1.3-1.3l-0.5-1.4l0.8-0.8l-2.5-2.4l-0.2-0.5v-0.3l0.6-0.6l-1.1-2.4l-0.3-0.3l-0.5-3.2l-0.5-0.5
			l-0.5-1.1l-2.1-2.1v-0.8h9.2l-3.5-3.5v-2.7h-0.2l-0.3-2.7l-0.3-0.3l0,0v-1.6l-0.2-0.3l0.2-0.2v-5.1l-2.7,2.7l-0.3-0.3l-1.1-1.9
			l-0.5-0.5v-0.5l-10-4l5.5,5.5v1.1h-3.6l0.5,1.4l-0.8,2.2l-1.1,0.6H461l-0.5-1.4V457l0.3-0.3l-0.3-0.3v-6l-1.4,4.3l-0.5-1.3V451
			l-0.2-0.2l1.1-1.1l-2.7-1.1l-0.2-0.5l-0.8-1.9v-1.6l-0.8-0.8v-2.5l-1.7-2.2l-1.4-0.5l-0.3-0.3l-0.3-0.2l2.1-2.1H449l-1.4-1.4v1.1
			l-1.6-0.6l-0.2-0.3h-0.6l-0.6-1.1l-0.6-0.8v-5.5l-0.8,0.8v-0.3l-0.6-0.6L441,423h-1.6l0,0h-0.2h-0.5l0.3-0.3l-0.8,0.3h-0.5v0.2
			l0,0l-0.5-0.3l-0.8-0.8h-0.5l-0.3-0.3l-0.3-0.8l-3.3,0.8v-0.2l-4,4l0,0h-1.3l0.3,0.6l-1.6,1.6h-1.1l-3-3v1.4l-1.7-0.6h-3.2v3
			l0.2,0.2l-0.2,0.2v1.1l-0.3,0.3l-3.2,1.1l-1.1,1.1l-1.4,3.6l1.1,1.1l0.2,0.5v0.3l-0.3,0.3l-0.2,0.3h-3.5l1.9,1.9l-0.8,0.6v0.2
			l-0.5,0.2l-0.8-0.8h-1.6l-1.1,0.5h-2.4l-1.3,3.8l-0.8,0.6l-1.1,2.1l-4.9,3.8l-0.5,1.4l-0.5,0.5l-1.9,0.3l-1.9,1.7l-0.8,2.1
			l0.3,0.6l-0.6,0.6l-2.4-0.5l-2.2,2.2v0.6h-2.5l-2.5,2.5l-0.6,1.9l0.8,2.2l-1.1,1.1l0.6,2.1v4.9l1.3,0.5l0.2,1.6l-0.8,3l-1.4,2.5
			v3.8l0.5,1.3l0.3,3.2l-2.4,0.8l-1.3,3l0.2,0.2l-0.3,0.5l-0.6,0.6H374h-0.5l-2.5,1.7l-0.6,1.9l0,0l-1.3,1.3l0.6,0.6l-0.5,0.3
			L370,503.2z M514.3,497.2l-0.6,0.3l-0.2-0.2v-0.5l-1.3-1.3l1.3,0.3l-0.3,0.3l2.7,1.1l-0.5,0.2L514.3,497.2z M478,495.7v-1.6
			l0.6,0.6v0.8L478,495.7L478,495.7z M508.9,494.9l0.5,0.2l-0.2,0.2L508.9,494.9z M602.8,490.1v-1.4l0.8-0.2l0.3,0.5l-0.6,0.6
			l-0.2,0.3L602.8,490.1L602.8,490.1z M236.9,487L236.9,487l-0.2,0.3L236.9,487z M616.8,484.9l-0.6-0.8l-0.2-0.8h0.2l1.4,1.9v0.3
			L616.8,484.9z M595.6,480.2L595.6,480.2L595.6,480.2L595.6,480.2L595.6,480.2z M595.4,472.4l-0.3,0.3h-0.8l1.6-1.6v1.7l0.3,0.2
			v0.2L595.4,472.4z M593.4,468H592v-0.6h-1.6v-0.8l-0.6-1.4l-0.2-0.6l0.3-1.3l1.3-0.8v-1.9l-0.5-1.4l0.3-0.8l0.5-2.7V453l-0.2-0.3
			l1.3-1.7v-0.3l0.5,0.2l1.1,1.1l2.4,0.6l-0.2,0.5l1.1,3l0.6,0.3l0.2,1.4l0,0l-0.2,1.3l-0.2,0.6l-1.1,1.9l-1.3,1.4l-1.7,1.7l0.5,1.3
			l-0.3,0.6v1.9l0.3,1.3l0.3,0.3L593.4,468z M533.8,448.7h-0.6l-0.5-0.5h-0.8l-0.5-0.6v-0.2l-0.5-1.1v-1.9l-0.2-0.3l0.5-0.5l1.6-1.3
			l0.3-1.1h0.5l0.2,0.2h1.9l0.3-0.2l0.5,0.5l1.1-0.5l0.5,0.5l1.6-0.6l0.3,0.2l-0.3,0.3l-0.5,1.1l-0.5,0.5l-0.6,2.2l0.2,0.6l0,0
			l-1.9,0.6v0.5l-2.2,0.8v0.8H533.8z M530.8,437.2l-0.5-0.6l0.2-0.5h1.9V435l0.5,1.4v0.2l-1.3,1.3L530.8,437.2z M537.7,430.4
			L537.7,430.4v0.5V430.4z M587.8,425v-1.4h-1.1v-1.7l-0.6-0.2v-3.3l0.5-1.4l1.3-2.1l0.2-0.8l1.4-2.1l-0.6-0.3l0.2-0.2l0.6-0.5
			l0.6-0.5l0.5,0.8h0.3v1.1l-0.3,2.2L590,416l0.2,2.1l-0.2,0.8l-0.6,3.2l0.6,0.3l-1.1,1.3L587.8,425L587.8,425z M432.1,422.9
			l0.3,1.3l-0.3,0.2V422.9z M567.4,412.7l2.2-2.2l0.6,0.6l-1.6,1.6L567.4,412.7L567.4,412.7z M571.9,408.2L571.9,408.2l-0.3,0.5
			l0.6,0.2l-1.7,0.6L571.9,408.2z M628.6,363.2l0.3-1.3V360l-0.8-1.7l-1.1-1.9l-1.1-1.1l1.1-0.5l0.2-0.6h0.2h0.3l1.1,1.4h1.1
			l1.3,2.4h0.8v1.1h0.3l-1.1,1.1l0.5,2.4l-0.5,3.2l0.3,0.6h-0.2L628.6,363.2z M25.5,365.7c0.3-7.1,0.8-14.1,1.7-21l1.1,0.3l0.3,0.3
			l1.1,1.7l0.5,0.5l-0.3,0.3l-0.8,2.4l1.9,3l0.6,0.2v2.2l0.2,0.2l-1.1,3.3l-1.4,1.4l0.5,0.5l-0.3,0.3l-3.3,1.9L25.5,365.7z
			 M575.7,364.9L575.7,364.9h0.3H575.7z M138.9,362.1l1.3-0.8l0.3,0.2h0.6l-0.8,0.6h-0.8H138.9L138.9,362.1z M99.2,361L99.2,361
			L99.2,361L99.2,361L99.2,361z M637.5,353.4L637.5,353.4l0.2-0.5h1.4l-0.3,0.3l-0.5,1.4L637.5,353.4z M643.5,351.5l-1.1-0.2
			l0.2-1.1l0.5-0.3h0.2l0.8,0.5l0.3,0.2v0.3l-0.5,0.5v0.2L643.5,351.5L643.5,351.5z M651.4,350.7l0.5-0.2l-2.1-2.1v-1.1l0.6-1.1
			v-2.1l-1.9-1.3h-3.2l-1.3,0.6l-2.4,1.4v0.3l-1.4,0.6h-0.5l-1.6,0.5l-1.9,0.2l-0.5,0.2l-0.5-0.3h-2.1l-0.8,1.7v0.8l-0.6-0.2
			l-1.9,0.6h-0.2V349l1.3-0.8l0.5-1.3l0.3-0.3l0.6-0.5l2.4-2.4v-0.2l0.5-0.5l0.3-1.4l0.8-0.6l0,0l0.8,0.8l1.9-0.8l1.3-0.3h1.1
			l1.7-0.6l1.7-0.5l0.2,1.1h2.2l0.5-0.2l0.8,0.5l3.5-2.2l-0.6-0.6l1.7-2.5h-1.6v-0.3l-0.3-0.3l0.5-0.5v-0.8l1.1-1.6v-1.3l2.7,1.3
			l0.5-1.6l0.5-0.2l2.7-1.9l1.7-1.1l0.3-1.9l0.6-1.1v-1.9l0.2-0.6l0.8-0.6l1.6-2.4l-0.8-1.6l1.1-3.5l-0.5-2.2l0.5-1.7l-0.5-3
			l-1.1-2.4l0.3-1.4l-0.8-1.7h-0.2v-0.6l0.6,0.5l2.1-1.6l2.5,2.5l0.3,0.5l0.3,1.9l0.8,1.6h0.6l0.3,0.5l0.6,2.1l-0.2,0.5l0.3,1.4v0.8
			l-0.2,0.6v2.1l0.2,0.8v0.5l-2.2,1.1l-0.3,2.7v1.6l1.3,2.1l1.1,2.7l-0.5,2.1v6l1.1,1.6h-2.4l-1.7,0.5l-1.3,3.2l0,0l-0.5,0.3
			l-0.3,0.3h-1.6l-2.4,1.4v1.9l-2.2-0.3l0,0l-0.3-0.3v0.3l1.3-1.3h-5.2l-1.4,1.4l-0.8,2.7l1.4,1.4l0.3,0.2l-0.3,0.2l-1.1,1.9v0.6
			l-0.5,0.5v0.8l-0.3,0.5L651.4,350.7z M48.4,351l-0.3-0.6l-1.7-1.7l-1.1,0.3l-1.6-0.5l-0.6-0.6l-1.4-0.5l-0.6-0.5l2.1,0.3l1.9-0.6
			h2.7l0.5-0.5l0.2,0.2h0.3l-1.1,3.3L49,351v0.3l-0.2,0.2L48.4,351z M597.3,343.6v1.3l-0.6-1.7l0,0l0.5-0.5v-1.9l1.9-1.3l-2.5-4.1
			v-0.3l-0.3-0.6l3,0.6l-1.9-4.4l-0.2-0.2l0.5-0.5l-1.6-1.6l-1.4-2.1l0,0l5.5-2.2l2.1,2.1l2.4,3.2v2.5l1.3,1.3l0.3,2.7v5.2l2.5-2.5
			l0.2,1.1l-1.1,1.1l0.5,0.5h-0.6l-1.6,1.6h-2.4l-0.3,0.6l-1.4,0.5l-2.5,2.1L597.3,343.6z M86.8,343.9l-0.8-0.3l-1.7-4.3l-0.5,1.1
			l-0.8-0.8h1.1l0.6-0.6l0.6,0.3l2.1-0.8l0.3,0.2l-2.2,0.8l1.4,1.4v2.1l0.5,1.3L86.8,343.9L86.8,343.9z M671.6,338.8L671.6,338.8
			h0.3l-0.3,0.3V338.8z M56.3,337.9l0.5-0.5v0.8l-0.5,0.3V337.9z M671.9,335.7l0.6,0.8l-0.3,0.3L671.9,335.7z M57.6,334.4l-0.5-1.4
			l-0.3-1.3l0.3,0.3h1.6l0.5,0.5l-0.5,1.4h-0.2l-1.1,1.1v-0.6H57.6L57.6,334.4z M55.2,327l-3-1.3l-0.2,0.2l-0.3-1.1h-0.5v-0.5
			l-1.1-2.2h-1.9l-2.4-1.1l-1.1-1.9H43l-1.9-0.6l-0.2,0.2v-0.2l-2.7-1.1l-1.6-1.1l-1.9-2.7l-0.3-0.3l-0.5-1.1l-1.6-1.6
			c0.8-4,1.7-8.1,2.7-12.2l0.2,0.3l0.6,1.9L39,302l0.5,0.2l0.3,0.6l2.7,3.3v1.3l0.5,0.5v0.8l0.6,1.7l2.4,2.4l1.1,0.8l0.5,1.4
			l1.4,0.5l0.6,0.6H52l0.3,0.2v0.8l1.1,2.4h2.1l1.6,0.3l2.1,1.1l-1.1,1.1l-0.5,1.1l-0.6,0.6v3v0.2l-1.6,0.5v1.4L55.2,327z
			 M588.8,321.4l-1.6,1.6l-0.3-0.2v-1.4h0.6l5.5-5.5l0.3,0.6l3.8,1.9l0.2,0.5l1.9,4l0.3,0.3h-8.7l0,0L588.8,321.4z M567.9,313.5
			L567.9,313.5h0.6l-0.3,0.3L567.9,313.5z M137.7,292.8l2.4-2.4l0.6,0.6l0,0l-2.1,1.6l-1.3,0.6L137.7,292.8z M44.6,290.9l0.2-0.2
			l-0.2,0.3V290.9z M659.8,289.8L659.8,289.8l0.5,0.2l-0.3,0.2L659.8,289.8z M135.4,288.9l1.1-0.3l1.6-1.6l0,0v1.7l-0.5,1.3
			L135.4,288.9z M671.3,285.4l-1.3-0.6l-0.8-0.6l-1.7-2.4l-1.6,0.5l-0.2-0.2h-2.5l-1.7,1.4l-0.3,0.3l-1.7-1.4l-0.2,0.2v-0.5l1.4,0.5
			l1.6-1.6l0.2-0.8l1.4-0.6l-1.7-2.5l-0.3-0.2l-0.2-0.6h1.4l-1.3-3.5l-0.2-0.6l0.2-0.6l-0.3-2.2l-0.5-1.7l-1.4-2.2l1.1,0.6h0.6
			l0.3,1.1l2.5,2.5l1.3,0.6l1.1,1.6h1.1l0.3,0.6l2.1,1.1h1.1l0.8,1.1h3.8l0.6-0.3v0.6l2.1,1.1l0.3,0.3v1.4l-2.4,1.1l-0.2-0.2
			l-1.9,1.1l-1.7,1.7l-0.8,2.4L671.3,285.4L671.3,285.4z M657.1,248.7l-1.6-1.7v-0.3l-0.2-0.3l0.8,1.1h0.8l0.5,0.6l0.6,0.6v1.4
			l-1.4,0.5L657.1,248.7L657.1,248.7z M654.2,243.5L654.2,243.5L654.2,243.5L654.2,243.5z M651.2,235.3l-0.6-0.3v-0.2l0.3-1.4
			l-1.1-1.9v-3.3l-0.5-1.9l-0.2-1.4l-0.5-1.4l-1.1-1.4v-0.2l0.5-1.1l-2.1-2.1v-0.6l-0.6-1.4v-3.3l-1.9-2.5l-1.3-0.5l-0.6-0.6
			l-0.8-2.4l-1.4-0.5l-0.2-0.5l-1.1-2.5v-2.1l-0.2-0.2v-2.1l-1.6-2.1l-0.8-0.8l-0.2-1.1h0.3l2.1-0.6v-1.3l0.2,0.2l0.5,1.1l0.3,0.2
			v1.7l0.6,0.6v0.6l1.9,1.9l0.5,0.2v0.2v5.2l0.8,1.1l0.5,1.4l1.6,1.6v0.2l0.8,2.4h1.7v0.6l0.8,0.8l0.6,1.6l1.9,2.5l0.5,1.1l1.4,2.7
			l1.3,1.3v1.9l1.4,0.3l0.2,0.3l1.1,1.7h-0.5l-0.2,0.2l-0.2-0.2h-4.9l1.6,2.4l-0.5,1.4l0.8,1.7v0.3l-0.5,2.4l1.1,1.4v0.5
			L651.2,235.3z M79.9,199.7v-0.5l0.5,0.5H79.9z M81.3,190.5c0.3-0.3,0.5-0.8,0.8-1.3v0.6L81.3,190.5L81.3,190.5z M136.8,151.2
			L136.8,151.2l1.1,0.5L136.8,151.2z M132.2,150.2l-1.3-1.3l-0.8-0.3l-0.2-0.2l0.2-0.2l0,0h1.6l0.2,0.3l1.3,1.3H133L132.2,150.2
			L132.2,150.2z M171.6,111.5l-0.8-1.4l0,0v-1.7l0.3-0.8h0.6l2.2,1.1l-0.2,0.6v0.8l-0.5,0.8l-0.6,0.3L171.6,111.5L171.6,111.5z
			 M209.4,94.1L209.4,94.1l0.5,0.2L209.4,94.1z M197.2,88.6L197.2,88.6l-0.8-1.9l-1.4,1.4l-0.2-0.3l-4-1.6L190,87l-1.1-1.1l0.5-0.5
			L187,83c0.8-0.5,1.6-1.1,2.4-1.6L190,82l1.4,3.2h2.1l2.2,0.5l1.4,1.1l1.3,1.6l0.5,0.2l-0.5,0.5L197.2,88.6z M187.1,88.3v-0.6h0.3
			l0.6-0.6v1.3l-0.5,0.2L187.1,88.3z"/>
		
			<radialGradient id="光线_1_" cx="386.6812" cy="-110.124" r="371.5" gradientTransform="matrix(1 0 0 1 0 496)" gradientUnits="userSpaceOnUse">
			<stop  offset="0.2738" style="stop-color:#FFFFFF"/>
			<stop  offset="0.8763" style="stop-color:#FFFFFF;stop-opacity:0.42"/>
			<stop  offset="1" style="stop-color:#FFFFFF;stop-opacity:0"/>
		</radialGradient>
		<path id="光线_3_" class="st2" d="M138.7,437.5c45.8,10.4,93.9,17.9,143.5,22.3c9,104.2,34.5,203.9,73.5,296.4
			c3.3,0.3,6.3,0.5,9.6,0.6c-39.4-92.5-65.1-191.9-74.3-296.4c30.8,2.4,62.1,3.8,94.2,3.8c68.5,0,134.4-5.8,197.1-16.9
			c-18.2,130.6-94.1,243-200.9,310.2c1.7,0,3.6,0,5.4,0c3.6,0,7.1,0,10.6-0.2c103.7-69.6,176.7-182,193.7-311.6
			c59.3-10.9,115.2-26.4,166.8-45.8c0.2-3.2,0.2-6,0.2-9.2c-51.4,19.6-107,35.1-166,46c1.7-16.3,2.7-32.7,2.7-49.3
			c0-156-80.9-293.6-202.8-373.1c-1.7,0-3.5,0-5.4,0c-3.6,0-7.1,0-10.7,0.2C501.9,91,586,229.7,586,387.4c0,17.2-1.1,34.1-3,50.9
			c-62.9,11.2-129.5,17.1-198.2,17.1c-32.1,0-63.9-1.4-94.9-3.8c-2.1-25.8-3.2-51.9-3.2-78.1c0-126.2,24-246.9,67.5-357.8
			c-3.3,0.3-6.3,0.5-9.6,1.1c-43,110.8-66.7,231-66.7,356.8c0,26.1,1.1,51.9,3,77.5c-49.8-4.4-98-12.2-143.7-22.4
			c-1.4-14.1-2.1-28.1-2.1-42.5c0-154.6,80.9-291,202.7-368.3c-7,0.8-13.6,2.1-20.4,3.3c-115.2,80.5-190.8,214.1-190.8,365.2
			c0,13.6,0.6,27.2,1.9,40.5C89,417.6,50.9,406,15.3,392.8c0,3.2,0.2,6,0.3,9.2c35.9,13.3,74.1,24.8,113.8,34.1
			c14.5,130.4,85.5,243.9,188,315.5c6.8,1.3,13.6,2.4,20.4,3.3C230.2,685.4,154.3,570.4,138.7,437.5z"/>
		<g id="光点_3_">
			
				<radialGradient id="SVGID_1_" cx="590.3809" cy="-133.2236" r="14.3882" gradientTransform="matrix(1 0 0 1 0 496)" gradientUnits="userSpaceOnUse">
				<stop  offset="0.2738" style="stop-color:#FFFFFF"/>
				<stop  offset="0.8763" style="stop-color:#FFFFFF;stop-opacity:0.42"/>
				<stop  offset="1" style="stop-color:#FFFFFF;stop-opacity:0"/>
			</radialGradient>
			<circle class="st3" cx="590.4" cy="362.9" r="14.4"/>
			
				<radialGradient id="SVGID_2_" cx="467.1309" cy="-407.3901" r="14.3802" gradientTransform="matrix(1 0 0 1 0 496)" gradientUnits="userSpaceOnUse">
				<stop  offset="0.2738" style="stop-color:#FFFFFF"/>
				<stop  offset="0.8763" style="stop-color:#FFFFFF;stop-opacity:0.42"/>
				<stop  offset="1" style="stop-color:#FFFFFF;stop-opacity:0"/>
			</radialGradient>
			<circle class="st4" cx="467.2" cy="88.6" r="14.4"/>
			
				<radialGradient id="SVGID_3_" cx="514.6465" cy="134.8943" r="20.455" gradientTransform="matrix(1 0 0 1 0 496)" gradientUnits="userSpaceOnUse">
				<stop  offset="0.2738" style="stop-color:#FFFFFF"/>
				<stop  offset="0.8763" style="stop-color:#FFFFFF;stop-opacity:0.42"/>
				<stop  offset="1" style="stop-color:#FFFFFF;stop-opacity:0"/>
			</radialGradient>
			<circle class="st5" cx="514.6" cy="630.8" r="20.4"/>
			
				<radialGradient id="SVGID_4_" cx="286.8423" cy="-41.101" r="21.9253" gradientTransform="matrix(1 0 0 1 0 496)" gradientUnits="userSpaceOnUse">
				<stop  offset="0.2738" style="stop-color:#FFFFFF"/>
				<stop  offset="0.8763" style="stop-color:#FFFFFF;stop-opacity:0.42"/>
				<stop  offset="1" style="stop-color:#FFFFFF;stop-opacity:0"/>
			</radialGradient>
			<circle class="st6" cx="286.8" cy="455" r="22"/>
			
				<radialGradient id="SVGID_5_" cx="308.5554" cy="-335.5241" r="22.0308" gradientTransform="matrix(1 0 0 1 0 496)" gradientUnits="userSpaceOnUse">
				<stop  offset="0.2738" style="stop-color:#FFFFFF"/>
				<stop  offset="0.8763" style="stop-color:#FFFFFF;stop-opacity:0.42"/>
				<stop  offset="1" style="stop-color:#FFFFFF;stop-opacity:0"/>
			</radialGradient>
			<circle class="st7" cx="308.5" cy="160.5" r="22.1"/>
			
				<radialGradient id="SVGID_6_" cx="162.7434" cy="57.1372" r="18.1472" gradientTransform="matrix(1 0 0 1 0 496)" gradientUnits="userSpaceOnUse">
				<stop  offset="0.2738" style="stop-color:#FFFFFF"/>
				<stop  offset="0.8763" style="stop-color:#FFFFFF;stop-opacity:0.42"/>
				<stop  offset="1" style="stop-color:#FFFFFF;stop-opacity:0"/>
			</radialGradient>
			<circle class="st8" cx="162.7" cy="553" r="18.2"/>
		</g>
	</g>
	<rect x="115.4" y="318.5" class="st9" width="543" height="187"/>
	<g>
		
			<radialGradient id="SVGID_7_" cx="386.8309" cy="431.4457" r="201.5463" gradientTransform="matrix(1 0 0 0.956 0 0.3138)" gradientUnits="userSpaceOnUse">
			<stop  offset="0.495" style="stop-color:#00216A"/>
			<stop  offset="1" style="stop-color:#004C94"/>
		</radialGradient>
		<rect x="118" y="322.3" class="st10" width="537.7" height="181"/>
	</g>
	<g>
		<path class="st11" d="M258.9,466c-5.2,5.8-16.8,16.1-36.1,20.6c-8.7,2-16.4,2.5-25.3,2.5h-62.1V330.8h50.5c4.9,0,9.6,0,14.4,0.2
			c6.7,0.4,33.2,1.1,52.5,17c2.9,2.2,7.6,6.5,12.6,14.4c5.6,8.7,11.9,22.9,11.9,46.2C277,438.4,267.4,456.2,258.9,466z M228.4,377.2
			c-2.2-2.7-7-8.1-15.5-10.8c-7.4-2.5-14.1-2.2-21.8-2.2h-15.9v93.1h12.1c11.7,0,25.1-0.7,35.4-8.3c8.1-6.1,14.6-17.5,14.6-39
			C237.4,397.9,236,386.9,228.4,377.2z"/>
		<path class="st11" d="M415.4,489.1l-57.4-98l1.3,98h-38.1V330.8H360l57.9,99.3l-1.6-99.3h37.9v158.3H415.4z"/>
		<path class="st11" d="M632,462.4c-13.7,24.9-42.2,28.3-49.8,29.2c-5.2,0.7-10.5,1.1-15.9,1.1c-31.4,0-49.1-10.5-59.6-19.1
			c-4.3-3.6-6.3-5.8-12.6-13.2l30-18.8c0.7,0.7,3.8,4.3,7,6.7c10.3,8.5,25.6,13.2,38.8,13.2c1.8,0,7.2,0,12.3-1.6
			c1.1-0.2,16.8-4.7,16.8-16.8c0-14.6-21.1-15-35.2-17c-7.4-0.9-15-2.2-22.4-4c-11.4-2.9-22-7.2-29.8-16.6
			c-1.6-1.8-4.7-5.8-6.7-11.7c-0.7-2.2-2-7.4-2-13.9c0-1.3,0.2-6.5,0.9-11c1.8-10.1,6.1-18.2,13.7-25.3c7.8-7.4,23.3-16.6,49.3-16.6
			c9.6,0,30.7,1.1,52.2,15.7c5.4,3.6,8.5,6.3,17.5,14.1l-29.2,20.9c-8.7-8.5-14.8-13.5-26.7-17.3c-2-0.4-8.1-2.2-14.8-2.2
			c-16.1,0-23.5,9.4-23.5,16.8c0,4.3,2.2,7.2,3.4,8.3c5.4,5.8,14.1,5.6,28.9,7.8c9,1.3,17.7,3.1,26.5,5.2c5.6,1.1,26,5.2,34.1,24.4
			c1.1,2.9,3.1,9,3.1,17C638.3,442.3,637.9,451.7,632,462.4z"/>
	</g>
	<g>
		
			<linearGradient id="SVGID_8_" gradientUnits="userSpaceOnUse" x1="206.3306" y1="232.7759" x2="206.3306" y2="391.076" gradientTransform="matrix(1 0 0 1 0 104)">
			<stop  offset="0" style="stop-color:#FFFFFF"/>
			<stop  offset="1" style="stop-color:#909094"/>
		</linearGradient>
		<path class="st12" d="M258.9,472c-5.2,5.8-16.8,16.1-36.1,20.6c-8.7,2-16.4,2.5-25.3,2.5h-62.1V336.8h50.5c4.9,0,9.6,0,14.4,0.2
			c6.7,0.4,33.2,1.1,52.5,17c2.9,2.2,7.6,6.5,12.6,14.4c5.6,8.7,11.9,22.9,11.9,46.2C277,444.4,267.4,462.2,258.9,472z M228.4,383.2
			c-2.2-2.7-7-8.1-15.5-10.8c-7.4-2.5-14.1-2.2-21.8-2.2h-15.9v93.1h12.1c11.7,0,25.1-0.7,35.4-8.3c8.1-6.1,14.6-17.5,14.6-39
			C237.4,403.9,236,392.9,228.4,383.2z"/>
		
			<linearGradient id="SVGID_9_" gradientUnits="userSpaceOnUse" x1="387.6808" y1="232.7759" x2="387.6808" y2="391.076" gradientTransform="matrix(1 0 0 1 0 104)">
			<stop  offset="0" style="stop-color:#FFFFFF"/>
			<stop  offset="1" style="stop-color:#909094"/>
		</linearGradient>
		<path class="st13" d="M415.4,495.1l-57.4-98l1.3,98h-38.1V336.8H360l57.9,99.3l-1.6-99.3h37.9v158.3H415.4z"/>
		
			<linearGradient id="SVGID_10_" gradientUnits="userSpaceOnUse" x1="566.1809" y1="228.9756" x2="566.1809" y2="394.6761" gradientTransform="matrix(1 0 0 1 0 104)">
			<stop  offset="0" style="stop-color:#FFFFFF"/>
			<stop  offset="1" style="stop-color:#909094"/>
		</linearGradient>
		<path class="st14" d="M632,468.4c-13.7,24.9-42.2,28.3-49.8,29.2c-5.2,0.7-10.5,1.1-15.9,1.1c-31.4,0-49.1-10.5-59.6-19.1
			c-4.3-3.6-6.3-5.8-12.6-13.2l30-18.8c0.7,0.7,3.8,4.3,7,6.7c10.3,8.5,25.6,13.2,38.8,13.2c1.8,0,7.2,0,12.3-1.6
			c1.1-0.2,16.8-4.7,16.8-16.8c0-14.6-21.1-15-35.2-17c-7.4-0.9-15-2.2-22.4-4c-11.4-2.9-22-7.2-29.8-16.6
			c-1.6-1.8-4.7-5.8-6.7-11.7c-0.7-2.2-2-7.4-2-13.9c0-1.3,0.2-6.5,0.9-11c1.8-10.1,6.1-18.2,13.7-25.3c7.8-7.4,23.3-16.6,49.3-16.6
			c9.6,0,30.7,1.1,52.2,15.7c5.4,3.6,8.5,6.3,17.5,14.1l-29.2,20.9c-8.7-8.5-14.8-13.5-26.7-17.3c-2-0.4-8.1-2.2-14.8-2.2
			c-16.1,0-23.5,9.4-23.5,16.8c0,4.3,2.2,7.2,3.4,8.3c5.4,5.8,14.1,5.6,28.9,7.8c9,1.3,17.7,3.1,26.5,5.2c5.6,1.1,26,5.2,34.1,24.4
			c1.1,2.9,3.1,9,3.1,17C638.3,448.3,637.9,457.7,632,468.4z"/>
	</g>
	<g>
		
			<linearGradient id="SVGID_11_" gradientUnits="userSpaceOnUse" x1="386.781" y1="392.9759" x2="386.781" y2="399.3091" gradientTransform="matrix(1 0 0 1 0 104)">
			<stop  offset="0" style="stop-color:#004C94"/>
			<stop  offset="1" style="stop-color:#007EE9"/>
		</linearGradient>
		<polygon class="st15" points="118,503.3 129.7,497 643.9,497 655.6,503.3 		"/>
	</g>
	<g>
		
			<linearGradient id="SVGID_12_" gradientUnits="userSpaceOnUse" x1="643.8809" y1="308.7759" x2="655.6311" y2="308.7759" gradientTransform="matrix(1 0 0 1 0 104)">
			<stop  offset="0" style="stop-color:#004C94"/>
			<stop  offset="1" style="stop-color:#007EE9"/>
		</linearGradient>
		<polygon class="st16" points="655.6,503.3 643.9,497.3 643.9,322.3 655.6,322.3 		"/>
	</g>
	<g>
		
			<linearGradient id="SVGID_13_" gradientUnits="userSpaceOnUse" x1="129.7014" y1="308.7759" x2="117.9512" y2="308.7759" gradientTransform="matrix(1 0 0 1 0 104)">
			<stop  offset="0" style="stop-color:#004C94"/>
			<stop  offset="1" style="stop-color:#007EE9"/>
		</linearGradient>
		<polygon class="st17" points="118,503.3 129.7,497.3 129.7,322.3 118,322.3 		"/>
	</g>
</g>
</svg>
