<?xml version="1.0" encoding="utf-8"?>
<!-- Generator: Adobe Illustrator 21.0.0, SVG Export Plug-In . SVG Version: 6.00 Build 0)  -->
<svg version="1.1" id="图层_1" xmlns="http://www.w3.org/2000/svg" xmlns:xlink="http://www.w3.org/1999/xlink" x="0px" y="0px"
	 viewBox="0 0 792 687" style="enable-background:new 0 0 792 687;" xml:space="preserve">
<style type="text/css">
	.st0{fill:url(#SVGID_1_);}
	.st1{fill:url(#SVGID_2_);}
	.st2{fill:#A8B3C0;}
	.st3{fill:url(#SVGID_3_);}
	.st4{fill:url(#SVGID_4_);stroke:#959A9E;stroke-width:4;stroke-miterlimit:10;}
	.st5{opacity:0.57;fill:#60B1DA;enable-background:new    ;}
	.st6{opacity:0.32;fill:#959A9E;enable-background:new    ;}
	.st7{fill:url(#高光_2_);}
	.st8{fill:url(#SVGID_5_);}
	.st9{fill:url(#SVGID_6_);stroke:url(#SVGID_7_);stroke-width:10;stroke-miterlimit:10;}
	.st10{fill:url(#高光_3_);}
	.st11{fill:url(#SVGID_8_);}
	.st12{fill:url(#高光_4_);}
	.st13{fill:url(#高光_5_);}
	.st14{fill:url(#高光_6_);}
	.st15{fill:#FFFFFF;}
	.st16{fill:none;stroke:#FFFFFF;stroke-miterlimit:10;}
	.st17{opacity:0.57;fill:#909AA0;enable-background:new    ;}
</style>
<g>
	
		<linearGradient id="SVGID_1_" gradientUnits="userSpaceOnUse" x1="364.2272" y1="558.8241" x2="364.2272" y2="33.3918" gradientTransform="matrix(1 0 0 -1 0 692)">
		<stop  offset="0" style="stop-color:#D7DDE6"/>
		<stop  offset="0.7425" style="stop-color:#7E8EA0"/>
	</linearGradient>
	<path class="st0" d="M709.3,583.7L90.8,658.5c-9.9,1.2-18.9-5.9-19.9-15.9L19.1,154.7c-1.2-11.5,7.8-21.5,19.4-21.5h653.6
		c9.6,0,17.4,7.8,17.4,17.4v433.1H709.3z"/>
	
		<linearGradient id="SVGID_2_" gradientUnits="userSpaceOnUse" x1="384.2272" y1="33.3918" x2="384.2272" y2="558.8241" gradientTransform="matrix(1 0 0 -1 0 692)">
		<stop  offset="0" style="stop-color:#5A6267"/>
		<stop  offset="0.995" style="stop-color:#7E8EA0"/>
	</linearGradient>
	<path class="st1" d="M729.3,583.7l-618.5,74.8c-9.9,1.2-18.9-5.9-19.9-15.9L39.1,154.7c-1.2-11.5,7.8-21.5,19.4-21.5h653.6
		c9.6,0,17.4,7.8,17.4,17.4v433.1H729.3z"/>
	<path class="st2" d="M723,525.4H311.4c-6.2,0-11.3-5.1-11.3-11.3V30c0-6.2,5.1-11.3,11.3-11.3H723c6.2,0,11.3,5.1,11.3,11.3v484.1
		C734.3,520.4,729.2,525.4,723,525.4z"/>
	
		<linearGradient id="SVGID_3_" gradientUnits="userSpaceOnUse" x1="312.581" y1="419.974" x2="746.7809" y2="419.974" gradientTransform="matrix(1 0 0 -1 0 692)">
		<stop  offset="0" style="stop-color:#D7DDE6"/>
		<stop  offset="0.995" style="stop-color:#7E8EA0"/>
	</linearGradient>
	<path class="st3" d="M735.5,525.4H323.9c-6.2,0-11.3-5.1-11.3-11.3V30c0-6.2,5.1-11.3,11.3-11.3h411.6c6.2,0,11.3,5.1,11.3,11.3
		v484.1C746.8,520.4,741.7,525.4,735.5,525.4z"/>
	
		<linearGradient id="SVGID_4_" gradientUnits="userSpaceOnUse" x1="534.131" y1="644.524" x2="534.131" y2="185.3241" gradientTransform="matrix(1 0 0 -1 0 692)">
		<stop  offset="0" style="stop-color:#FFFFFF"/>
		<stop  offset="1" style="stop-color:#D5D6D6"/>
	</linearGradient>
	<path class="st4" d="M711.3,506.7H357c-5.1,0-9.2-4.1-9.2-9.2V56.7c0-5.1,4.1-9.2,9.2-9.2h354.3c5.1,0,9.2,4.1,9.2,9.2v440.8
		C720.5,502.5,716.4,506.7,711.3,506.7z"/>
	<rect x="364.1" y="83.9" class="st5" width="21.1" height="194.6"/>
	<polygon class="st6" points="302.7,236.1 354.5,154.3 370.3,154.3 415.4,203.5 729,202.7 694.8,304.7 	"/>
	
		<linearGradient id="高光_2_" gradientUnits="userSpaceOnUse" x1="317.431" y1="799.879" x2="317.431" y2="519.5286" gradientTransform="matrix(1 0 0 1 0 -480)">
		<stop  offset="0" style="stop-color:#FFFFFF;stop-opacity:0"/>
		<stop  offset="1" style="stop-color:#FFFFFF;stop-opacity:0.5"/>
	</linearGradient>
	<polygon id="高光_9_" class="st7" points="323.2,348.5 307.9,348.5 314.5,28 327,24.3 	"/>
	
		<linearGradient id="SVGID_5_" gradientUnits="userSpaceOnUse" x1="424.1313" y1="528.624" x2="424.1313" y2="20.9524" gradientTransform="matrix(1 0 0 -1 0 692)">
		<stop  offset="0" style="stop-color:#DFE6EE"/>
		<stop  offset="0.3144" style="stop-color:#DEE3E8"/>
		<stop  offset="0.5644" style="stop-color:#F5F7F8"/>
		<stop  offset="0.995" style="stop-color:#ABB6C3"/>
	</linearGradient>
	<path class="st8" d="M733.3,597.4l-632.4,73.5c-15.6,1.8-29-10.8-28.1-26.5l25.1-457.1c0.8-14.2,2.5-24.9,16.7-23.8l249.4-0.1
		l43.8,48.8l344.5,1.7c13.7,1.1,24,6.7,23.2,20.4l-19.8,339.5C754.9,586.1,745.4,596,733.3,597.4z"/>
	
		<linearGradient id="SVGID_6_" gradientUnits="userSpaceOnUse" x1="125.3723" y1="273.9061" x2="734.1031" y2="273.9061" gradientTransform="matrix(1 0 0 -1 0 692)">
		<stop  offset="0" style="stop-color:#3EADED"/>
		<stop  offset="1" style="stop-color:#0B528D"/>
	</linearGradient>
	
		<linearGradient id="SVGID_7_" gradientUnits="userSpaceOnUse" x1="429.7377" y1="485.9253" x2="429.7377" y2="61.8882" gradientTransform="matrix(1 0 0 -1 0 692)">
		<stop  offset="0" style="stop-color:#5A6267"/>
		<stop  offset="1" style="stop-color:#C8D0DA"/>
	</linearGradient>
	<path class="st9" d="M712,562.1l-579.7,63c-3.8,0.4-7.1-2.6-6.9-6.5l21.3-388.1c0.6-11.5,10.6-20.2,22.1-19.3l181.3-0.1l35.5,39.6
		l339.7,1.4c11.1,0.9,8.4,9.9,8.8,21.7l-16.6,282.6C717.3,559.3,715,561.8,712,562.1z"/>
	
		<linearGradient id="高光_3_" gradientUnits="userSpaceOnUse" x1="49.5291" y1="927.8976" x2="49.5291" y2="634.0018" gradientTransform="matrix(1 0 0 1 0 -480)">
		<stop  offset="0" style="stop-color:#FFFFFF;stop-opacity:0"/>
		<stop  offset="1" style="stop-color:#FFFFFF;stop-opacity:0.5"/>
	</linearGradient>
	<path id="高光_10_" class="st10" d="M72.7,477.9H57.4l-31-320.8c0,0-0.2-4.8,2.4-10.6c2.6-5.8,9.1-8.5,9.1-8.5l0.9,20.8
		L72.7,477.9z"/>
	
		<linearGradient id="SVGID_8_" gradientUnits="userSpaceOnUse" x1="125.3723" y1="273.9061" x2="734.1031" y2="273.9061" gradientTransform="matrix(1 0 0 -1 0 692)">
		<stop  offset="0" style="stop-color:#3EADED"/>
		<stop  offset="1" style="stop-color:#0B528D"/>
	</linearGradient>
	<path class="st11" d="M712,562.1l-579.7,63c-3.8,0.4-7.1-2.6-6.9-6.5l21.3-388.1c0.6-11.5,10.6-20.2,22.1-19.3l181.3-0.1l35.5,39.6
		l339.7,1.4c11.1,0.9,8.4,9.9,8.8,21.7l-16.6,282.6C717.3,559.3,715,561.8,712,562.1z"/>
	
		<linearGradient id="高光_4_" gradientUnits="userSpaceOnUse" x1="178.631" y1="983.3898" x2="178.631" y2="706.2855" gradientTransform="matrix(1 0 0 1 0 -480)">
		<stop  offset="0" style="stop-color:#FFFFFF;stop-opacity:0"/>
		<stop  offset="1" style="stop-color:#FFFFFF;stop-opacity:0.5"/>
	</linearGradient>
	<polygon id="高光_1_" class="st12" points="188.2,531.7 142.3,531.7 164.9,211.2 215,211.2 	"/>
	
		<linearGradient id="高光_5_" gradientUnits="userSpaceOnUse" x1="230.381" y1="983.3898" x2="230.381" y2="706.2855" gradientTransform="matrix(1 0 0 1 0 -480)">
		<stop  offset="0" style="stop-color:#FFFFFF;stop-opacity:0"/>
		<stop  offset="1" style="stop-color:#FFFFFF;stop-opacity:0.5"/>
	</linearGradient>
	<polygon id="高光_8_" class="st13" points="221.1,531.7 205.8,531.7 238.4,211.2 255,211.2 	"/>
	
		<linearGradient id="高光_6_" gradientUnits="userSpaceOnUse" x1="94.331" y1="938.3442" x2="94.331" y2="661.2758" gradientTransform="matrix(1 0 0 1 0 -480)">
		<stop  offset="0" style="stop-color:#FFFFFF;stop-opacity:0.5"/>
		<stop  offset="1" style="stop-color:#FFFFFF"/>
	</linearGradient>
	<polygon id="高光_11_" class="st14" points="88,486.6 81.4,486.6 99.5,174.1 107.3,166.2 	"/>
	<rect x="347.7" y="22" class="st15" width="369.6" height="2.3"/>
	<polyline class="st16" points="395.1,207.4 405.5,216.5 749.9,216.5 	"/>
	<rect x="395.1" y="93.9" class="st17" width="294.7" height="16.9"/>
	<rect x="395.1" y="129.8" class="st17" width="194.6" height="16.9"/>
</g>
</svg>
