<?xml version="1.0" encoding="utf-8"?>
<!-- Generator: Adobe Illustrator 21.1.0, SVG Export Plug-In . SVG Version: 6.00 Build 0)  -->
<!DOCTYPE svg PUBLIC "-//W3C//DTD SVG 1.1//EN" "http://www.w3.org/Graphics/SVG/1.1/DTD/svg11.dtd">
<svg version="1.1" id="球型摄像机" xmlns="http://www.w3.org/2000/svg" xmlns:xlink="http://www.w3.org/1999/xlink" x="0px"
	 y="0px" viewBox="0 0 962 940.2" style="enable-background:new 0 0 962 940.2;" xml:space="preserve">
<style type="text/css">
	.st0{fill:url(#body_1_);}
	.st1{fill:#5C6E7C;}
	.st2{fill:#66757F;}
	.st3{fill:#405160;stroke:#B7BABC;stroke-miterlimit:10;}
	.st4{fill:#081221;}
	.st5{opacity:0.2;fill:#0F0F0F;enable-background:new    ;}
	.st6{fill:#293547;}
	.st7{opacity:0.3;fill:#1E2733;enable-background:new    ;}
	.st8{fill:#1E2733;}
	.st9{fill:#334054;stroke:#1E2733;stroke-miterlimit:10;}
	.st10{fill:#121923;}
	.st11{opacity:0.3;fill:url(#_x31__1_);enable-background:new    ;}
	.st12{fill:#0A0F17;}
	.st13{opacity:0.25;fill:url(#_x31__2_);stroke:#373737;stroke-miterlimit:10;enable-background:new    ;}
	.st14{opacity:0.2;fill:url(#_x31__3_);stroke:#B7BABC;stroke-miterlimit:10;enable-background:new    ;}
	.st15{opacity:0.1;fill:url(#高光_2_);enable-background:new    ;}
	.st16{opacity:0.2;fill:url(#暗部_4_);enable-background:new    ;}
	.st17{fill:#2481BA;}
	.st18{fill:url(#body_4_);}
	.st19{fill:url(#SVGID_1_);}
	.st20{opacity:0.3;fill:#3B4757;enable-background:new    ;}
	.st21{fill:#8290A2;}
	.st22{fill:url(#body_5_);}
	.st23{opacity:0.5;fill:url(#SVGID_2_);enable-background:new    ;}
	.st24{opacity:0.2;fill:url(#SVGID_3_);enable-background:new    ;}
	.st25{fill:#657485;}
	.st26{opacity:0.2;fill:url(#暗部_5_);enable-background:new    ;}
	.st27{fill:url(#L-1_2_);}
	.st28{opacity:0.2;}
	.st29{fill:url(#SVGID_4_);}
</style>
<g id="球型摄像机_1_">
	<g id="球体">
		
			<linearGradient id="body_1_" gradientUnits="userSpaceOnUse" x1="-41.0956" y1="1788.587" x2="1532.0424" y2="1804.0099" gradientTransform="matrix(2.5964 0 0 -2.5964 -488.0791 5250.7866)">
			<stop  offset="0" style="stop-color:#E7EFF5"/>
			<stop  offset="0.1188" style="stop-color:#C3C5D2"/>
			<stop  offset="0.2164" style="stop-color:#C6C8D5"/>
			<stop  offset="0.2858" style="stop-color:#CED3DD"/>
			<stop  offset="0.3368" style="stop-color:#DFE6EE"/>
			<stop  offset="0.375" style="stop-color:#DDE4EC"/>
			<stop  offset="0.4851" style="stop-color:#98A5B5"/>
			<stop  offset="0.995" style="stop-color:#7E8EA0"/>
		</linearGradient>
		<path id="body_2_" class="st0" d="M483.3,288.3c183.2,0,331.8,136.8,331.8,305.6S666.5,904.4,483.3,904.4S151.5,762.7,151.5,593.9
			S300,288.3,483.3,288.3z"/>
	</g>
	<g id="镜头_1_">
		<g>
			<path id="镜头bg_10_" class="st1" d="M688.2,668.8c6.3,108-81.3,200.2-194.9,205.7c-113.6,5.5-209.4-80.3-212.5-191.4
				c-3.1-111.1,84.7-203.7,195.4-206C587.5,474.6,682.1,560.7,688.2,668.8z"/>
			<path class="st2" d="M479.2,874.4c110.4-9.4,194-99.6,188.2-205.4c-5.7-102.8-91.7-185.4-196.1-191.9
				c-107.3,6.5-191.5,97.2-188.6,205.7C285.8,788.3,372.5,870.5,479.2,874.4z"/>
			<path id="_x31__132_" class="st3" d="M658.4,669.8c4.8,92.6-70.2,171.3-167.6,175.8c-97.8,4.4-179.9-68.8-183-163.4
				c-2.6-94.9,72.9-173.8,168.2-176.1C571.9,504,653.3,577.2,658.4,669.8z"/>
			<path id="_x31__131_" class="st4" d="M641.5,670.7c4.6,83.9-63.4,154.9-151.8,158.7c-88,3.9-162.8-62.2-165.1-147.5
				c-2.3-85.3,65.5-156.6,151.8-158.7C563.5,520.7,637.2,586.8,641.5,670.7z"/>
			<path id="_x31__130_" class="st5" d="M618.7,672.1c3.8,72.1-54.8,133.2-130.5,136.3c-75.8,3-139.5-53.4-142.1-127
				c-2.3-73.5,56.3-134.9,130.8-136.6C551.6,542.9,615.2,599.9,618.7,672.1z"/>
			<path id="_x31__129_" class="st6" d="M612.1,671.8c3.4,67.9-51.5,125.3-122.6,128.4c-71.1,2.7-131.4-50.5-133.7-119.5
				c-2-69.1,52.9-126.7,122.9-128.6C549.1,550.5,609,604.1,612.1,671.8z"/>
			<path id="_x31__128_" class="st7" d="M577,675.1c2.3,52.1-37.6,96-89.6,98.2c-51.8,2.1-95.5-38.7-97.5-91.6
				c-1.5-52.7,38.7-96.8,89.6-98.2C531.4,582.2,574.7,623,577,675.1z"/>
			<path id="_x31__127_" class="st8" d="M567.2,671.5c2,44.4-33.8,82-80.2,83.9c-46.4,1.6-85.5-33.2-87.3-78.1
				c-1.7-45,34.5-82.9,80.2-83.9C526.1,592.3,564.9,627.1,567.2,671.5z"/>
			<path id="_x31__126_" class="st9" d="M557,672.9c1.7,39.7-29.9,72.9-71.1,74.6c-41.3,1.4-76.1-29.3-77.6-69.4
				c-1.5-40,30.5-73.2,71.1-74.6C520.9,602.4,555.3,633.7,557,672.9z"/>
			<path id="_x31__125_" class="st10" d="M530.2,670.4c1.3,25-19,45.8-44.7,46.9c-25.8,0.9-47.8-18.6-48.7-43.6
				c-0.8-25,19.2-46.1,44.7-47.1C507.2,626,528.9,645.4,530.2,670.4z"/>
			
				<linearGradient id="_x31__1_" gradientUnits="userSpaceOnUse" x1="371.1443" y1="1773.5198" x2="378.9653" y2="1746.3849" gradientTransform="matrix(2.5964 0 0 -2.5964 -488.0791 5250.7866)">
				<stop  offset="0" style="stop-color:#272EC3"/>
				<stop  offset="1" style="stop-color:#9A40EE"/>
			</linearGradient>
			<path id="_x31__124_" class="st11" d="M525.3,670.7c1.1,22.5-17.2,41.7-40.4,42.3c-23.3,0.9-43-16.7-44.1-39.5
				c-1.1-22.7,17.4-41.7,40.4-42.3C504.6,630.4,524.2,648,525.3,670.7z"/>
			<path id="_x31__123_" class="st12" d="M505.5,672.9c0.5,13.2-9.4,24.1-22.6,24.7c-13.1,0.6-23.8-9.9-24.6-23
				c-0.5-13.2,9.4-24.1,22.6-24.7C494.1,649.3,505.2,659.7,505.5,672.9z"/>
			
				<linearGradient id="_x31__2_" gradientUnits="userSpaceOnUse" x1="370.2088" y1="1762.5582" x2="333.1323" y2="1770.744" gradientTransform="matrix(2.5964 0 0 -2.5964 -488.0791 5250.7866)">
				<stop  offset="0" style="stop-color:#FFFFFF;stop-opacity:0"/>
				<stop  offset="1" style="stop-color:#FFFFFF"/>
			</linearGradient>
			<path id="_x31__122_" class="st13" d="M641.5,670.7c4.6,83.9-63.4,154.9-151.8,158.7c-88,3.9-162.8-62.2-165.1-147.5
				c-2.3-85.3,65.5-156.6,151.8-158.7C563.5,520.7,637.2,586.8,641.5,670.7z"/>
			
				<linearGradient id="_x31__3_" gradientUnits="userSpaceOnUse" x1="306.5197" y1="1761.9885" x2="441.6557" y2="1761.9885" gradientTransform="matrix(2.5964 0 0 -2.5964 -488.0791 5250.7866)">
				<stop  offset="0" style="stop-color:#182D54;stop-opacity:0"/>
				<stop  offset="1" style="stop-color:#3DA8EA"/>
			</linearGradient>
			<path id="_x31__121_" class="st14" d="M658.4,669.8c4.8,92.6-70.2,171.3-167.6,175.8c-97.8,4.4-179.9-68.8-183-163.4
				c-2.6-94.9,72.9-173.8,168.2-176.1C571.9,504,653.3,577.2,658.4,669.8z"/>
		</g>
	</g>
	
		<linearGradient id="高光_2_" gradientUnits="userSpaceOnUse" x1="311.9114" y1="1705.3905" x2="311.9114" y2="1862.9635" gradientTransform="matrix(2.5941 0.1108 0.1108 -2.5941 -633.3547 5198.1133)">
		<stop  offset="0" style="stop-color:#FFFFFF;stop-opacity:0"/>
		<stop  offset="1" style="stop-color:#FFFFFF"/>
	</linearGradient>
	<path id="高光_1_" class="st15" d="M409.2,833.3l-61.5-2.5c0,0-24.9-136.8-20.4-235c4.4-98.2,40.3-207.4,40.3-207.4l61.5,2.5
		c0,0-38.3,80.6-40.3,207.4C386.6,725.6,409.2,833.3,409.2,833.3z"/>
	<g id="L-3">
		
			<linearGradient id="暗部_4_" gradientUnits="userSpaceOnUse" x1="376.9166" y1="1740.5111" x2="376.9166" y2="1788.6521" gradientTransform="matrix(2.5964 0 0 -2.5964 -488.0791 5250.7866)">
			<stop  offset="0" style="stop-color:#3B4757;stop-opacity:0"/>
			<stop  offset="1" style="stop-color:#3B4757"/>
		</linearGradient>
		<path id="暗部_3_" class="st16" d="M319.1,538.4c0,0-86.1,54.1-104.3,85.8c-17.9,31.1-37.4,87.7-37.4,87.7L164.6,680l-7.1-36.9
			l80.8-93.7l159.6-180.3l234.2,20.1l44.8,138.2l146.7,120l-20.7,23.8l-8.5,29.5l-19.3,38.3c0,0-40.4-95.5-77.6-132.6
			c-37.2-37.1-44.1-66.5-44.1-66.5s-26.5-55-83-93.4c-48.9-33.1-121.8-39.6-147-28C344.7,456.1,319.1,538.4,319.1,538.4z"/>
		<path id="厚度_2_" class="st17" d="M484.6,62.9C268,62.9,92.8,240.9,92.8,460.5c0,64.8,22.4,125.9,50.6,180l-0.3,0.3l8.4,14.7
			l10.1,13.4l-2.3-23.6c38.3-46.2,94.5-83.3,159.6-107C330.7,455.1,395,392,484.1,392S638.5,464,652.8,539.5
			c62.8,23.2,116.2,57.2,154.2,101l-5,38.7l17.1-24.2c27.1-56.3,54.3-124.3,54.3-195C873.7,240.9,700.6,62.9,484.6,62.9z"/>
		<linearGradient id="body_4_" gradientUnits="userSpaceOnUse" x1="73.2775" y1="517.1625" x2="837.4745" y2="289.4473">
			<stop  offset="0" style="stop-color:#3EADED"/>
			<stop  offset="1" style="stop-color:#0B528D"/>
		</linearGradient>
		<path id="body_3_" class="st18" d="M309.7,534.1c11.8-83.3,85.8-146.9,175-146.9s163.2,63.9,175,146.9
			c70.2,25.8,125.2,63.2,163.8,113.2c32.1-57.8,53.1-120.8,53.1-191.9c0-219.6-175.2-397.7-391.8-397.7S92.8,235.8,92.8,455.5
			c0,70.8,20.1,136.5,55.3,194.2C186.1,599.8,239.5,559.9,309.7,534.1z"/>
		<g id="hhl">
			
				<linearGradient id="SVGID_1_" gradientUnits="userSpaceOnUse" x1="278.3665" y1="1816.8966" x2="278.3665" y2="1907.8108" gradientTransform="matrix(2.5964 0 0 -2.5964 -488.0791 5250.7866)">
				<stop  offset="0" style="stop-color:#FFFFFF;stop-opacity:0"/>
				<stop  offset="1" style="stop-color:#FFFFFF;stop-opacity:0.5"/>
			</linearGradient>
			<rect x="188" y="254.5" class="st19" width="93.3" height="311.9"/>
		</g>
	</g>
	<g id="L-2">
		<path class="st20" d="M484,110.7c-113.5,0-216.9,28.9-292.9,75.6c-61.7,70.3-99.8,163.1-99.8,265c0,4.2,0,8.5,0.3,12.5
			c62.8-99.7,215-170.1,392.4-170.1c176.1,0,326.8,69.1,390.8,167.6c0-3.4,0.3-6.8,0.3-10.2c0-102.8-38.3-196.4-101.5-267.2
			C697.6,138.5,596,110.7,484,110.7z"/>
		<path id="厚度_1_" class="st21" d="M483.3,272.3c183.9,0,333.4,76.4,391.8,182c15.9-28.6,31.9-65.4,31.9-97.6
			c0-150.6-189.8-272.5-423.5-272.5S59.7,206.2,59.7,356.7c0,32.3,15.9,69.1,31.9,97.6C149.7,348.8,299.4,272.3,483.3,272.3z"/>
		<polygon class="st21" points="84.4,440.7 91.6,476.7 98.9,435.4 		"/>
		<polygon class="st21" points="882,440.7 876.5,476.7 875.1,454.4 		"/>
		
			<linearGradient id="body_5_" gradientUnits="userSpaceOnUse" x1="210.9833" y1="1922.6489" x2="537.2068" y2="1922.6489" gradientTransform="matrix(2.5964 0 0 -2.5964 -488.0791 5250.7866)">
			<stop  offset="0" style="stop-color:#E7EFF5"/>
			<stop  offset="7.975666e-02" style="stop-color:#C3C5D2"/>
			<stop  offset="0.1617" style="stop-color:#C6C8D5"/>
			<stop  offset="0.2232" style="stop-color:#CED3DD"/>
			<stop  offset="0.2539" style="stop-color:#DFE6EE"/>
			<stop  offset="0.2949" style="stop-color:#DDE4EC"/>
			<stop  offset="0.428" style="stop-color:#98A5B5"/>
			<stop  offset="0.995" style="stop-color:#7E8EA0"/>
		</linearGradient>
		<path id="body" class="st22" d="M483.3,259.9c183.9,0,340.5,75.6,398.9,180.9c15.9-28.6,24.6-58.9,24.6-91.5
			c0-150.6-189.8-272.5-423.5-272.5S59.7,198.7,59.7,349.4c0,32.3,8.7,62.9,24.6,91.5C142.8,335.5,299.4,259.9,483.3,259.9z"/>
		<g id="暗部_2_">
			
				<linearGradient id="SVGID_2_" gradientUnits="userSpaceOnUse" x1="487.4547" y1="1918.01" x2="520.5813" y2="1943.5649" gradientTransform="matrix(2.5964 0 0 -2.5964 -488.0791 5250.7866)">
				<stop  offset="0" style="stop-color:#3B4757;stop-opacity:0"/>
				<stop  offset="1" style="stop-color:#3B4757"/>
			</linearGradient>
			<path class="st23" d="M906.4,343.7c0,0,0.6,32.3-6.2,52.6c-6.9,20.7-18.1,44.7-18.1,44.7l-5.9,35.9l-1.3-22.4l-11.8-18.9
				l6.9-13.3c0,0,0.6-2.2-8.7-11.6c-9-9.4-46.1-125.9-73.8-156.6c-33.3-37.1-173.3-139.6-173.3-139.6l249.9,107.3L906.4,343.7z"/>
			
				<linearGradient id="SVGID_3_" gradientUnits="userSpaceOnUse" x1="226.4779" y1="1863.3995" x2="219.9903" y2="1901.5343" gradientTransform="matrix(2.5964 0 0 -2.5964 -488.0791 5250.7866)">
				<stop  offset="0" style="stop-color:#8799B3;stop-opacity:0"/>
				<stop  offset="1" style="stop-color:#8799B3"/>
			</linearGradient>
			<path class="st24" d="M105.6,258.8c0,0-8.4,70.5-6.5,101s6.5,49,6.5,49l-21.2,32c0,0-16.2-33.1-20.1-51.2
				c-3.7-18.2-4.4-45.3-4.4-45.3l17.1-68.8L105.6,258.8z"/>
		</g>
	</g>
	<g id="L-1_1_">
		<polygon class="st25" points="59.7,340.9 57.2,354.4 60.9,370.3 61.7,336.3 		"/>
		<polygon class="st25" points="909.7,341.7 912.6,355 905.9,370.3 906.4,337.5 		"/>
		
			<linearGradient id="暗部_5_" gradientUnits="userSpaceOnUse" x1="374.095" y1="1940.4105" x2="374.095" y2="1976.2772" gradientTransform="matrix(2.5964 0 0 -2.5964 -488.0791 5250.7866)">
			<stop  offset="0" style="stop-color:#374E68;stop-opacity:0.1"/>
			<stop  offset="1" style="stop-color:#374E68"/>
		</linearGradient>
		<path id="暗部_1_" class="st26" d="M483.3,79.1c-234,0-423.6,121.9-423.6,272.5c0,9.7,0.9,19.2,2.2,28.6
			c44.8-123.1,216.4-211.7,421.3-211.4c204.9,0.3,377.6,90.3,421.2,210.6c1.6-9.1,2.2-18.4,2.2-28c0-26.8-6.2-53.2-17.4-77.6
			c-13.7-26.4-32.4-51.8-55.9-75.6C757.2,126.3,628.8,79.1,483.3,79.1z"/>
		<path id="厚度" class="st25" d="M484.6,124.5c216.9,0,395.2,102.8,424.6,234.1c2.8-12.5,5.6-27.1,5.6-40.2
			c0-149.2-192.6-270-430.5-270S54.1,169.1,54.1,318.5c0,13,0.3,23.5,3.1,35.6C86.6,223.1,267.7,124.5,484.6,124.5z"/>
		
			<linearGradient id="L-1_2_" gradientUnits="userSpaceOnUse" x1="52.7777" y1="116.9807" x2="915.4" y2="116.9807" gradientTransform="matrix(1 0 0 1 0 80)">
			<stop  offset="0" style="stop-color:#DFE6EE"/>
			<stop  offset="0.5" style="stop-color:#F5F7F8"/>
			<stop  offset="0.995" style="stop-color:#ABB6C3"/>
		</linearGradient>
		<path id="L-1" class="st27" d="M483.3,114.7c216.9,0,399.7,109.2,429.3,240.6c2.8-12.5,2.8-22.9,2.8-35.9
			c0-149.2-194.5-280.7-432.1-280.7S52.8,159.4,52.8,308.6c0,13,0.3,26.4,3.1,38.8C85.5,216.6,266.3,114.7,483.3,114.7z"/>
		<g id="hhl_2_" class="st28">
			
				<linearGradient id="SVGID_4_" gradientUnits="userSpaceOnUse" x1="259.5346" y1="1948.6317" x2="255.4684" y2="1977.7206" gradientTransform="matrix(2.5964 0 0 -2.5964 -488.0791 5250.7866)">
				<stop  offset="0" style="stop-color:#FFFFFF;stop-opacity:0"/>
				<stop  offset="1" style="stop-color:#FFFFFF"/>
			</linearGradient>
			<polygon class="st29" points="139.4,222 228.3,167.3 222.7,93.5 174.3,120.6 137.2,148.4 			"/>
		</g>
	</g>
</g>
</svg>
