<?xml version="1.0" encoding="utf-8"?>
<!-- Generator: Adobe Illustrator 21.0.0, SVG Export Plug-In . SVG Version: 6.00 Build 0)  -->
<svg version="1.1" id="图层_1" xmlns="http://www.w3.org/2000/svg" xmlns:xlink="http://www.w3.org/1999/xlink" x="0px" y="0px"
	 viewBox="0 0 867 765" style="enable-background:new 0 0 867 765;" xml:space="preserve">
<style type="text/css">
	.st0{fill:url(#SVGID_1_);}
	.st1{fill:url(#SVGID_2_);}
	.st2{fill:#A8B3C0;}
	.st3{fill:url(#SVGID_3_);}
	.st4{fill:url(#SVGID_4_);stroke:#959A9E;stroke-width:4;stroke-miterlimit:10;}
	.st5{opacity:0.57;fill:#60B1DA;enable-background:new    ;}
	.st6{opacity:0.32;fill:#959A9E;enable-background:new    ;}
	.st7{fill:url(#高光_1_);}
	.st8{fill:url(#SVGID_5_);}
	.st9{fill:url(#SVGID_6_);stroke:url(#SVGID_7_);stroke-width:10;stroke-miterlimit:10;}
	.st10{fill:url(#高光_2_);}
	.st11{fill:url(#SVGID_8_);}
	.st12{fill:url(#高光_3_);}
	.st13{fill:url(#高光_4_);}
	.st14{fill:url(#高光_5_);}
	.st15{fill:#FFFFFF;}
	.st16{fill:none;stroke:#FFFFFF;stroke-miterlimit:10;}
	.st17{opacity:0.57;fill:#909AA0;enable-background:new    ;}
	.st18{fill:url(#body_1_);}
	.st19{fill:url(#地面_1_);}
	.st20{fill:url(#光线_1_);}
	.st21{fill:url(#SVGID_9_);}
	.st22{fill:url(#SVGID_10_);}
	.st23{fill:url(#SVGID_11_);}
	.st24{fill:url(#SVGID_12_);}
	.st25{fill:url(#SVGID_13_);}
	.st26{fill:url(#SVGID_14_);}
</style>
<g>
	<g>
		
			<linearGradient id="SVGID_1_" gradientUnits="userSpaceOnUse" x1="369.8912" y1="630.0565" x2="369.8912" y2="104.6243" gradientTransform="matrix(1 0 0 -1 0 758)">
			<stop  offset="0" style="stop-color:#D7DDE6"/>
			<stop  offset="0.7425" style="stop-color:#7E8EA0"/>
		</linearGradient>
		<path class="st0" d="M714.9,578.4L96.4,653.2c-9.9,1.2-18.9-5.9-19.9-15.9L24.7,149.4c-1.2-11.5,7.8-21.5,19.4-21.5h653.6
			c9.6,0,17.4,7.8,17.4,17.4v433.1H714.9z"/>
		
			<linearGradient id="SVGID_2_" gradientUnits="userSpaceOnUse" x1="389.8912" y1="104.6243" x2="389.8912" y2="630.0565" gradientTransform="matrix(1 0 0 -1 0 758)">
			<stop  offset="0" style="stop-color:#5A6267"/>
			<stop  offset="0.995" style="stop-color:#7E8EA0"/>
		</linearGradient>
		<path class="st1" d="M734.9,578.4l-618.5,74.8c-9.9,1.2-18.9-5.9-19.9-15.9L44.7,149.4c-1.2-11.5,7.8-21.5,19.4-21.5h653.6
			c9.6,0,17.4,7.8,17.4,17.4v433.1H734.9z"/>
		<path class="st2" d="M728.6,520.1H317c-6.2,0-11.3-5.1-11.3-11.3V24.7c0-6.2,5.1-11.3,11.3-11.3h411.6c6.2,0,11.3,5.1,11.3,11.3
			v484.1C739.9,515.1,734.8,520.1,728.6,520.1z"/>
		
			<linearGradient id="SVGID_3_" gradientUnits="userSpaceOnUse" x1="318.245" y1="491.2065" x2="752.445" y2="491.2065" gradientTransform="matrix(1 0 0 -1 0 758)">
			<stop  offset="0" style="stop-color:#D7DDE6"/>
			<stop  offset="0.995" style="stop-color:#7E8EA0"/>
		</linearGradient>
		<path class="st3" d="M741.1,520.1H329.5c-6.2,0-11.3-5.1-11.3-11.3V24.7c0-6.2,5.1-11.3,11.3-11.3h411.6c6.2,0,11.3,5.1,11.3,11.3
			v484.1C752.4,515.1,747.3,520.1,741.1,520.1z"/>
		
			<linearGradient id="SVGID_4_" gradientUnits="userSpaceOnUse" x1="539.795" y1="715.7565" x2="539.795" y2="256.5565" gradientTransform="matrix(1 0 0 -1 0 758)">
			<stop  offset="0" style="stop-color:#FFFFFF"/>
			<stop  offset="1" style="stop-color:#D5D6D6"/>
		</linearGradient>
		<path class="st4" d="M716.9,501.4H362.6c-5.1,0-9.2-4.1-9.2-9.2V51.4c0-5.1,4.1-9.2,9.2-9.2h354.3c5.1,0,9.2,4.1,9.2,9.2v440.8
			C726.1,497.2,722,501.4,716.9,501.4z"/>
		<rect x="369.7" y="78.7" class="st5" width="21.1" height="194.6"/>
		<polygon class="st6" points="308.3,230.8 360.1,149 375.9,149 421,198.2 734.6,197.4 700.4,299.4 		"/>
		
			<linearGradient id="高光_1_" gradientUnits="userSpaceOnUse" x1="323.095" y1="794.6465" x2="323.095" y2="514.2961" gradientTransform="matrix(1 0 0 1 0 -480)">
			<stop  offset="0" style="stop-color:#FFFFFF;stop-opacity:0"/>
			<stop  offset="1" style="stop-color:#FFFFFF;stop-opacity:0.5"/>
		</linearGradient>
		<polygon id="高光_19_" class="st7" points="328.8,343.2 313.5,343.2 320.1,22.7 332.6,19 		"/>
		
			<linearGradient id="SVGID_5_" gradientUnits="userSpaceOnUse" x1="429.7953" y1="599.8565" x2="429.7953" y2="92.1849" gradientTransform="matrix(1 0 0 -1 0 758)">
			<stop  offset="0" style="stop-color:#DFE6EE"/>
			<stop  offset="0.3144" style="stop-color:#DEE3E8"/>
			<stop  offset="0.5644" style="stop-color:#F5F7F8"/>
			<stop  offset="0.995" style="stop-color:#ABB6C3"/>
		</linearGradient>
		<path class="st8" d="M738.9,592.1l-632.4,73.5c-15.6,1.8-29-10.8-28.1-26.5L103.5,182c0.8-14.2,2.5-24.9,16.7-23.8l249.4-0.1
			l43.8,48.8l344.5,1.7c13.7,1.1,24,6.7,23.2,20.4l-19.8,339.5C760.5,580.8,751,590.7,738.9,592.1z"/>
		
			<linearGradient id="SVGID_6_" gradientUnits="userSpaceOnUse" x1="131.0363" y1="345.1386" x2="739.7671" y2="345.1386" gradientTransform="matrix(1 0 0 -1 0 758)">
			<stop  offset="0" style="stop-color:#3EADED"/>
			<stop  offset="1" style="stop-color:#0B528D"/>
		</linearGradient>
		
			<linearGradient id="SVGID_7_" gradientUnits="userSpaceOnUse" x1="435.4017" y1="557.1577" x2="435.4017" y2="133.1207" gradientTransform="matrix(1 0 0 -1 0 758)">
			<stop  offset="0" style="stop-color:#5A6267"/>
			<stop  offset="1" style="stop-color:#C8D0DA"/>
		</linearGradient>
		<path class="st9" d="M717.6,556.8l-579.7,63c-3.8,0.4-7.1-2.6-6.9-6.5l21.3-388.1c0.6-11.5,10.6-20.2,22.1-19.3l181.3-0.1
			l35.5,39.6l339.7,1.4c11.1,0.9,8.4,9.9,8.8,21.7l-16.6,282.6C722.9,554,720.6,556.5,717.6,556.8z"/>
		
			<linearGradient id="高光_2_" gradientUnits="userSpaceOnUse" x1="55.1931" y1="922.6652" x2="55.1931" y2="628.7694" gradientTransform="matrix(1 0 0 1 0 -480)">
			<stop  offset="0" style="stop-color:#FFFFFF;stop-opacity:0"/>
			<stop  offset="1" style="stop-color:#FFFFFF;stop-opacity:0.5"/>
		</linearGradient>
		<path id="高光_18_" class="st10" d="M78.3,472.6H63L32,151.8c0,0-0.2-4.8,2.4-10.6c2.6-5.8,9.1-8.5,9.1-8.5l0.9,20.8L78.3,472.6
			z"/>
		
			<linearGradient id="SVGID_8_" gradientUnits="userSpaceOnUse" x1="131.0363" y1="345.1386" x2="739.7671" y2="345.1386" gradientTransform="matrix(1 0 0 -1 0 758)">
			<stop  offset="0" style="stop-color:#3EADED"/>
			<stop  offset="1" style="stop-color:#0B528D"/>
		</linearGradient>
		<path class="st11" d="M717.6,556.8l-579.7,63c-3.8,0.4-7.1-2.6-6.9-6.5l21.3-388.1c0.6-11.5,10.6-20.2,22.1-19.3l181.3-0.1
			l35.5,39.6l339.7,1.4c11.1,0.9,8.4,9.9,8.8,21.7l-16.6,282.6C722.9,554,720.6,556.5,717.6,556.8z"/>
		
			<linearGradient id="高光_3_" gradientUnits="userSpaceOnUse" x1="184.295" y1="978.1573" x2="184.295" y2="701.053" gradientTransform="matrix(1 0 0 1 0 -480)">
			<stop  offset="0" style="stop-color:#FFFFFF;stop-opacity:0"/>
			<stop  offset="1" style="stop-color:#FFFFFF;stop-opacity:0.5"/>
		</linearGradient>
		<polygon id="高光_17_" class="st12" points="193.8,526.4 147.9,526.4 170.5,205.9 220.6,205.9 		"/>
		
			<linearGradient id="高光_4_" gradientUnits="userSpaceOnUse" x1="236.045" y1="978.1573" x2="236.045" y2="701.053" gradientTransform="matrix(1 0 0 1 0 -480)">
			<stop  offset="0" style="stop-color:#FFFFFF;stop-opacity:0"/>
			<stop  offset="1" style="stop-color:#FFFFFF;stop-opacity:0.5"/>
		</linearGradient>
		<polygon id="高光_16_" class="st13" points="226.7,526.4 211.4,526.4 244,205.9 260.6,205.9 		"/>
		
			<linearGradient id="高光_5_" gradientUnits="userSpaceOnUse" x1="99.995" y1="933.1117" x2="99.995" y2="656.0433" gradientTransform="matrix(1 0 0 1 0 -480)">
			<stop  offset="0" style="stop-color:#FFFFFF;stop-opacity:0.5"/>
			<stop  offset="1" style="stop-color:#FFFFFF"/>
		</linearGradient>
		<polygon id="高光_15_" class="st14" points="93.6,481.3 87,481.3 105.1,168.8 112.9,160.9 		"/>
		<rect x="353.3" y="16.7" class="st15" width="369.6" height="2.3"/>
		<polyline class="st16" points="400.7,202.1 411.1,211.2 755.5,211.2 		"/>
		<rect x="400.7" y="88.6" class="st17" width="294.7" height="16.9"/>
		<rect x="400.7" y="124.5" class="st17" width="194.6" height="16.9"/>
	</g>
	<g id="地球_6_">
		
			<radialGradient id="body_1_" cx="545.3108" cy="-4917.7505" r="275.3039" gradientTransform="matrix(1 0 0 -1 0 -4479.0449)" gradientUnits="userSpaceOnUse">
			<stop  offset="0.1458" style="stop-color:#91D9FF"/>
			<stop  offset="0.8886" style="stop-color:#1156A3"/>
			<stop  offset="1" style="stop-color:#0A396F"/>
		</radialGradient>
		<path id="body_6_" class="st18" d="M600.5,751.3c-132.4,0-240.1-107.7-240.1-240.1S468,270.7,600.5,270.7S840.6,378.6,840.6,511
			S732.9,751.3,600.5,751.3z"/>
		
			<radialGradient id="地面_1_" cx="526.1471" cy="-4903.1421" r="298.6237" fx="630.2728" fy="-4903.9663" gradientTransform="matrix(1 0 0 -1 0 -4479.0449)" gradientUnits="userSpaceOnUse">
			<stop  offset="0.155" style="stop-color:#F3F5F7;stop-opacity:0.8"/>
			<stop  offset="0.7377" style="stop-color:#D5D9DF;stop-opacity:0.3"/>
			<stop  offset="1" style="stop-color:#D4D8DE;stop-opacity:0"/>
		</radialGradient>
		<path id="地面_6_" class="st19" d="M480.8,700.8h-0.2l-0.8-0.8l0,0l-0.4-0.7l-0.7,0.2v-0.1l-0.4-0.7l-0.5-0.5V698l-0.3-0.4v-1.7
			l0.7-0.3v-1.8l-0.4-0.1l0.2-0.5l-1.1-1.4v-1.2l0,0v-0.1V690l0.8-0.8l-0.1-0.8l0.7-0.2l0.9-0.9V686l0.5-0.3h0.3l0.4-1.6l0.5-0.4
			l0.7-2.1l-0.1-0.4l0.1-0.3v-0.5l-0.4-0.9v-0.2l-0.5-1.9v-1l-0.2-0.2l0.7-0.4l-0.9-1l1.1-1.4l-0.1-0.1l1.2-1l-0.3-0.5h0.5l0.7-0.4
			l0.3,0.5l0.7-0.7h2.1V671l0.1,0.1l0.2-0.3l0.4,0.4h1.4l1-1.4l0,0l1.6-0.7l0.3-1.1v-0.1l0.9-0.9l0.4,0.5l1.6-1.6v-1.1l0.9-0.9
			l-0.3-0.3l0.5-0.8v-0.1h0.4l1.1-1.4V660l0.5-0.7v-0.1l0.8,0.5v1.2l0.4,0.7v0.8l-0.5,0.5l0.5,1.6v1.4l0.7,0.8l-0.1,0.1l-0.3-0.4
			h-2.3v2.8l-0.4,0.4l0.8,0.8l-0.3,0.4v0.4l-1,0.9v1.6l0.3,0.3l-0.2,0.3l-0.2,0.5l-0.3,1.4l-0.3,1.6l-0.7,1.1l-0.2,0.7l-0.4,1.2v0.9
			l-0.5,0.7l-0.9,3l-1,1.2l-0.4,1.6l-0.1,0.5l-0.4,1.1l-0.5,2.1l-0.1,0.2h-1.2v1.6l-1.4,0.8l0.8,0.8l-0.5,0.3v0.8l-0.3,0.8l-0.3,0.7
			l-0.5,0.5l-0.4,0.2l-0.7-0.1l-2.7,0.2l-0.5,0.9l-0.4,0.2H481L480.8,700.8L480.8,700.8z M446.4,685.3
			c-50.9-44.3-80.1-108.1-80.1-175.6c0-3.7,0.1-7.4,0.2-11.1l1.1,1.4l1.7,1.1l0.2-0.1l1.1,1.1l0.5-0.5l0.2,0.2l1.2,1h0.4l0.3,0.1
			l0.8,0.8l2.3,0.3l2.1-0.2l0.8,0.2h1.6l1.1,0.7l1.6,0.2l0.2,0.4v0.8l1.1,2.6l1.6,1.1h2.1l0.1-0.1l0.5,0.1l2.3,0.8l1.4,0.5l0.8,0.5
			l1.4,1.2l2.1,1l1.4-0.5l1.4-1l1.4-1.4l0.4-1.2l-0.4-1.9l-0.5-0.7l0.1-1l0.2-0.2l0.3-0.9l0.4-0.4l1-0.5l1.9-0.3l0.7-0.5l1,0.3
			l0.2-0.2l1.1,0.2h0.5l2.3,1.4v-0.9h0.4l0.2,0.2l2.8,0.3l0.5-0.2h0.1l0.3,0.3l0.8,2.3l1.1-1.1l0.8,0.1l2.7,0.3l0.8,0.2l1.4,1.2
			l0.5-0.5l0.9,0.3h1.6l1.1,0.7h1.9l1.1-1.1l0.9-0.3l0.4-0.4h0.1l0.4,0.4l1.2-0.4h2.1l0.3,0.8l0.7,0.3l0.5,1.4l-0.2-0.2l-1.4,1.6
			v1.4l0.7,0.9v0.7l1.4,1.7l0.3,0.8l1.7,1.9v0.1l-0.2,0.4v1.4l1.1,1.2v0.4l0.3,0.3l0.2,1l0.2,0.5v1.2l2.1,3.3l0.4,1.2l0.9,0.3l1,1.4
			l0.3,1l0.5,0.5v0.7l0.2,0.2l-0.3,0.3l1.1,2.8l1.4,1.1h0.7l0.1,0.3l1,0.4l1,1l0.2,0.1v0.7l0.3,0.3v0.3l0.3,0.3v0.3l0.4,0.4l0.1,0.3
			l-0.1,0.1v1.4l0.8,2.6l0.2,1l-0.2,1.2l0.3,2.1l1,1.6l1,0.4l0.9,0.4v1h-1.4l2.5,2.5l1.2,3.4l0.9,3.5h0.3v0.4l0.4,0.4l0.2,0.4
			l0.4,1.2l2.7,1.1v-0.1l0.3,0.3l0.3-0.3l0.3,0.3l0.3-0.3l0.3,0.3l0.9,0.3l0.1,0.1l1.1,1.2l0.9,0.9l0.7,0.3l0.9,0.9h0.3l0.4,0.9
			l0.3,0.3l0,0l0.9,2.1h0.9l1.2,0.4l0.2,0.2l0.1,0.3l-0.2,0.2h-0.5l-0.3,0.7h-3l2.6,2.6h1l0.5-0.2l2.1,2.3l0.4,1.2h0.5l0.5,0.5
			l1.4,0.5l1.4-0.4l0.4-0.4l0.4-0.3h0.7l0.8-0.5l0,0h2.1l0.1-0.1l0.4,0.1l1.4-0.4l2.1-1.4l0.2-0.1l0.7,0.3l0.9-0.3h0.8l0.9-0.3h0.4
			l0.3,0.3h0.8l2.1-0.3l0.9-0.4h0.1l0.5,0.5l0.9-0.9l0.9-0.3l0.5-0.5h1.6l-0.5,0.5l0.7,0.7l-0.4,1.1l0.7,0.7v0.1l-0.8,1.7h0.3
			l-2.7,2.7h1.4v0.4l-1,1.6l-0.7,1.6l-0.2,0.2h-0.3l-1.4,1.4v1l0.1,0.3l-2.1,3.8v0.9l-1.1,1.9v0.3l-2.1,2.8L492,602l-0.7,0.7
			l-1.7,2.1l-3.5,3.2l-1.4,1.1l-1.1,0.3l-1,0.9l-1.1,0.9l-2.1,2.3l-0.7,0.3l-2.1,2.1l-0.4,0.4l-0.2,0.4l-0.4,0.2l-1,1l-0.3,0.8
			l-0.5,0.7v-1.6l-2.8,3.2h-0.2l-0.9,0.9l-0.3,0.1l-0.8-0.1h-0.1l-0.9,0.9v0.3l-0.7,0.7v1.4l-1.1,1.1v0.9l-0.5,0.9l-0.9,1.6
			l-0.1,0.1h-3l1.7,1.7l0,0l-0.8,2.5l-0.8,1.4v1.6l0.5,0.4l0.2,1.1l-0.5,0.5l-0.4,1.1v1.9l0.5,0.5l-0.3,0.3l0.3,0.7h-1.4l2.1,2.1
			l0.2,0.5l-0.3,0.8l0.7,0.7l0.1,0.2l-0.4,1l1.7,1.7l0.9,0.3l0.2,0.2v0.3l0,0l-0.8,0.8l0.3,0.3l-0.3,0.3v1.1l-0.1,0.1l0.4,1.7v0.1
			l-0.1,0.1v1.7l0.2,0.2l-0.3,0.3l0.4,1.2l-0.1,0.7h-2.1l1.1,1.1v1.1l0.9,0.9h0.2l0.1,0.3l0.1,0.7l-0.9,0.9l0.1,0.1l-1.1,1.1
			l1.1,1.1l-0.2,0.3v0.3l-0.1,0.1h-1.4v1.1l-1.4,0.7h-0.8l-0.4,1l-1.2,0.7l-1.7-0.7v1.1l-0.2,0.1l-0.7,0.4l-1.6-1.6v0.8l-0.2-0.7
			l-1.1,3.5l-0.2,0.2l-0.2,0.5l-1.4,0.8v0.4l-0.2,0.2H451l-2.8,1.7l0.1,0.3H448l-0.1,0.1l-0.2-0.1h-1.6v1.9l0.2,0.2l-0.4,0.5l0.4,1
			L446,684l0.8,1.1l-0.5,0.5L446.4,685.3L446.4,685.3z M682.9,634.5h-1.2l-2.1-2.1h-0.8v-0.5l-1.9-1l-1-1.4l-0.3-0.1v-0.7l-1-0.5
			v-0.7l-1.4-0.2l-0.2-0.7l-1.4-1.6l-0.9-0.5l-0.2-0.3l0.3-1.1l-1.4-2.3l-0.3-1.7l-0.8-0.8l-0.3-0.8v-1.1l-1.6-1l-0.5-0.1v-0.2
			l-0.7-1.9v-0.2l-0.2-1.2l-0.2-0.1V610h-1.2l-0.2-0.1l-0.9-1.4h-0.8l-0.1-0.4l-0.1-0.1V606H660l-0.7-0.4l-1-1.9l-2.1-1.4l-0.4,0.3
			l-0.9-1.2h-0.4l-1.1-1.4l-0.7-0.2l-0.5-1v-0.1h0.1l1.4,1.2l1.2,0.4l1.1-0.3h0.2l0.4,0.4l1.2-0.4h0.1h0.1l0.5,1.1h0.2l0.2,0.9
			l0.5,0.1v0.2v1.7h1.6l0.9,0.9h0.8l1.2,1l0.7,0.9h0.5v0.9l1.6,2.6h-0.7l3.9,1.6v0.2l1.4,1l0.5-0.3l0.9,0.9v0.9l1.6,1.7l0.3-0.1
			l-1.6,1.6h3.4l-3.7,4.9l4.3-2.6v0.2l1.6,1.6h0.8v0.9l1.1-0.4v0.1l0.1,0.4l-0.1,0.4l1.2,0.3l-0.9,0.2l0.4,0.5v1.2l1.9,0.7l0.5-0.2
			l0,0l0.4,0.4l0.4,0.5l0.5,0.5l-0.2,0.1l-0.3,2.5l0.2,0.2l-0.5,1.1l0.4,1.1l-0.3,1.4l-1.6-0.3l-0.3,1L682.9,634.5z M731.8,633.5
			l0.5-0.7v-0.8l0.3-0.3h0.3v0.2l-0.1,0.5l-0.5,0.5v1.4h-0.4l-0.1,0.1V633.5z M739.2,629.9l-1.4-0.7l-0.4-0.4l0.4-0.3v-1.6l-0.7-1.1
			l-1-1l-1.9,0.7l-0.3,0.5l-1,0.7v1.2l0.4,0.8l0.2,0.4l-0.9,1.9l-0.7-1.4v-1.6h-2.1V628h0.1v-0.8v-0.1l1.1-0.5v-1.1l0.3-0.3v-0.8
			l0.2-0.3l-0.1-1.1l0.5-0.8l-0.3-0.8l0.3-0.1l0.4-0.7l0.1-0.1v0.1l0.9,1.2l1.1,1.1l0.7,0.2l1.2,0.4v0.9l0.9,0.7l0.3,0.7l0.8,0.8
			l0.4,1.2l-0.8,1.1h0.7l0.5,1.7l0.4,0.1v0.4h0.4v0.1l-0.7,0.1l-0.3,0.3V630L739.2,629.9L739.2,629.9z M716.2,629.1l-1-1.4h-0.3
			l-0.2-0.7l-0.9,0.3l-1.1-1.6l-0.3,0.7l-0.8,0.1l-0.3-0.4h-1.9l-0.2,0.8l-0.7,0.2l-0.4-0.3l-0.7,0.4v-1.1l-1-2.1l-1.1,1.6l-0.2-0.1
			l-0.9,0.5h-0.1l-0.3-0.3H703l-0.3-1.1l-0.9,0.7v-2.1l-0.3-0.2l0.3-0.4v-1.6l-0.7-0.7l-0.7-0.9h0.1l5.8-5.8l-6.9,3.4h-0.2l-0.9-0.9
			l-0.5-0.8v-0.7l0.1-0.7v-0.7l0.3-0.4l0.8-1.4l0.5,0.8h1.4l1.2,0.7l2.8,0.5v-1.4l0.4-1v-0.8l0.7,0.3v-0.8l3.7,1.9l-2.3-3.6l2.1-0.5
			l1.2-0.8l0.9-1.4l0.1-0.3l0.9-1l1.6-1.6v-0.8l0.1-0.2l1-0.2v4l2.1-4.1l0.3-0.1l0.1-0.1l0.7-0.1l0.4-1.2l0,0l1.9-1.9v-0.9l0.3-0.8
			h0.5l0.1-0.5h0.4l0.4-0.3l0.8,1.2v1.6h0.9l0.2,0.1l0.9,1.1v1.9l-2.1-1.6v2.1h-0.4v0.9l-2.1,1l1.6,0.5l-0.2,0.2l0.7,1.4l-0.8,1.1
			l1.2,0.8l0.1,0.7l0.9,0.9l-2.1,1.4l1.4,0.7l0.5,2.5l-0.9,1.2l-0.4,0.1v1.7l-0.4,0.4v1.1l-1,0.8l0.1,0.5h-4.1l2.8,1.9l-0.4,0.4
			h-2.8l1.4,1.4l-3.5,3.5l3.3-1.4v2.3l-0.5,1l-0.7,0.4h-0.7l-0.7,0.2L716.2,629.1L716.2,629.1L716.2,629.1z M754.8,628.6
			L754.8,628.6v-0.3h0.4l0.2,0.1l0,0h-0.7L754.8,628.6L754.8,628.6z M737.6,621.9l0.3-0.9l0.2-0.2l0.5,0.4l0.9-0.2h0.5l0.5-0.3
			l-0.1,0.1l-0.5,0.4l-1.4,0.4l-0.3,0.3H737.6L737.6,621.9z M736.2,614.6l-0.2-0.1l0.9-0.9l0.4,0.7l0.2,0.1l-0.8,0.2L736.2,614.6
			L736.2,614.6z M677.1,612l-0.5-0.2l-1-0.2l-0.7-0.7l1.1-0.8H674l-0.4-0.4l-1.1,0.4l-1.7-2.1l0.3-0.3l-0.8-1.7l-0.9-0.3l-0.5-0.7
			l-0.5-0.4l0.4-0.4l-1.1-1.1l0.1-0.1l0.4-1.7l-0.4-1l-0.2-0.7l-0.3-2.8l-0.9-1.4l-0.4-0.4l-0.8-0.4v-1.4h-0.7l-0.2-0.4l-0.5-0.2
			l-1.2-1.4h-0.3l-0.2-0.9l-0.5-0.2v-0.5l-0.3-0.3v-1.6l-1.4,0.5v-0.1l0.1-0.1v-2.8h-0.4l0.3-0.3l-0.3-0.3l0,0l0,0l-0.1-0.1l0.5-1.4
			l0.2,0.7v0.4l0.5,0.7l-0.3,0.8l1.2,1.2l2.1-0.4v0.4l0.9,0.9l0.3,0.7h0.4l0,0v0.9l0.3,0.3l-1.4,0.5v2.3l1.7,0.5l2.1,2.1l0.8-0.8h1
			l0,0l0.1,0.3l0.4,1.2l0.4,0.2v0.7h2.1l0.1,0.1l2.3,2.3l0.5,0.9l0.1,0.4l-0.2,0.2v1.9l-0.3,0.3v1.6l0.3,0.3v0.8l-1.4,0.8l2.1,2.1
			l0,0l0.3,0.9l0.4,0.4v0.3l0.4,0.4l0.4,0.9v0.7l-1-1v1.6l-0.2,0.2L677.1,612z M669,610l0.2-0.9h0.1l0.7-0.7l0.1,1.6L669,610
			L669,610z M667.3,610l0.3-0.5l0.5,0.5H667.3z M726.9,598.6L726.9,598.6L726.9,598.6L726.9,598.6z M748.7,594.9h-0.9l0,0l-0.2-0.7
			v-0.2l2.1,1.4l-0.1,0.1L748.7,594.9z M601.7,595l-0.4-1.7l-0.4-1.1l0.2-0.3l-0.4-1.1v-0.7l0.2-1.1h2.6v0.3h0.9l0.1,0.2l0.8,1.7
			h0.1l-0.1,0.5l0.2,0.2v1.2v0.1l-0.5,0.9l-0.5,0.5l-0.5,0.2h-1.6l-0.4,0.2L601.7,595z M747.7,591l-0.3-0.4l-0.8-0.9l1-0.4v-0.1
			l2.1-1v-0.4l0.3,0.3l0.8-1.1l1,0.8v-2.3l0.5,0.5l-0.3,0.8l0.5,1.6h0.1v2.1l-1.6,0.3l-1,2.1l-0.3,1.4l0.7,0.4l-0.3,0.3L747.7,591z
			 M753.6,591L753.6,591L753.6,591L753.6,591L753.6,591z M743.8,588.2h0.3l-0.2,0.3L743.8,588.2z M600.9,587.2h0.7v-1.2h0.4v0.1v1.2
			h0.2l-1.4,0.9L600.9,587.2L600.9,587.2z M589.4,587l-0.5-0.4l-0.7-0.9l-1-2.1v-1.1l-0.3-1.6l-0.7-1.1v-1.6h-0.5V578l-0.3-1.2
			l-1-1.4l-1.1-1.4h-0.3l-0.3-0.3l-0.3-0.9l-0.2-0.2l-0.2-1l-0.3-0.8l-0.7-1.6l-0.2-0.8l-0.5-1.2v-2.1h-0.9l-0.2-0.2V564h-0.8
			l-0.2-0.4v-0.4l-0.4-0.4l-0.3-1.1l-0.8-0.3l-0.4-0.9v-1.9l-1.2-2.7v-0.3h1l-1.7-2.7l0.4-0.4l-0.4-1.2v-0.8l-0.9-2.1v-0.1l2.3-1
			l-2.5-1l0.2-0.4v-1.2l-0.4-1.2l-0.2-0.2l-0.1-0.3h0.1l0.1-0.1h6.5l-6.1-2.5l4.8-4.8l-5,2.1l-0.3-0.3l-0.3,0.1l-2.1-4.9v6.5l-1,1.7
			l0.9,0.9v0.2l-0.8,0.8v0.1l-0.5,0.3l-1.7,1.1l-0.3,0.1l-0.5-0.1l-2.5-1.7l-0.8-0.9v-1h-0.1v-0.3l0.5-0.5h0.3l0.7-0.9h3.9l1.2-2.8
			h-3.5v0.8l-1.1,0.7l-2.1-0.7l-0.7-0.9l0.2-0.2l0.4-0.2l-0.8-2.1l-1,0.3l-0.7,0.5l-1.1-0.7h-1.1l-0.2-0.5v-0.1l-0.1-0.1l0,0l0,0
			l-0.3-0.3l-0.3-1.1l-0.5-0.5V529l-1.6,0.5v-0.1h-1.1l-0.4-1.2l-1.2-1.2h-1.6l-0.5,0.2l-0.2-0.1l-0.9-0.9l-0.8,0.8h-0.3l-0.4,0.2
			l-0.4-0.2h-1.9l-0.5,0.5l-0.2-0.2h-0.7l-0.3-0.3h-1.6l-0.4-0.2l-1.1,1.1v0.3h-1.4l-0.7,0.3h-0.8v-0.3h-2.1l-0.4,0.4l-0.1,0.1
			l-0.7-0.2l-0.2-0.1l-0.3-1h-1.7l-0.2,0.4l-0.5-0.2l-0.3,0.3l-0.2-0.1h-1.8l-0.9-0.3l-1.6,0.2l-0.8-0.7h-1.1L524,527l-0.2-0.2h-2.5
			v-0.5l-0.8-1.4l-0.3-1.2l-0.5-0.8v-0.4h-0.3l0,0l-2.3-0.5l-1.2,0.4l-0.7,0.5h-0.7l-1.6,1l-0.5,0.4l-0.8-0.5l-1.6-0.4l-0.9,0.3
			l-0.8-0.5h-0.9l-0.9-0.3l0.2-0.2l-1.4-1.4h-0.7l-0.3-0.3h-1l-0.1-0.1l-1.4-0.4l-1,0.2l-0.7-1.7l-0.9-2.3l-0.7,0.7l-0.2-0.2h-2.7
			l-0.3-0.7H494l-0.2-0.5l-1-1.4v-0.5l-1-1.1l-1.1-1.1l-0.7,0.7l-0.3-0.9l-0.9,0.9l-0.3-0.3H488V510l-2.1,2.1h-4.6l3.5,1.4l-0.1,0.3
			v0.8l0.1,0.5l-3.6,0.5l2.7,1.7H483l2.5,2.5v0.1l0.4,0.4l0.2,0.4l0.9,2.3l1.2,0.3l0,0l1.4,1.4h0.2l0.4,0.5l1.6,4l1.7,2.1l0.3,0.9
			l1.6,1.6l0.9-0.9v0.8h0.7l0.4,1h0.5l0.1,0.1l0.3,1.9l1.7-0.7h0.3l1.1,0.4l1.4-1.2l0.9,0.2l0.3-0.1l0.3,0.3h1.4l1.2-0.4l0.1-0.1
			h0.9v-0.5l2.1-2.1l-0.8-0.8l1.7-1.7l0.3,0.3l0.3,2.1l1.4,1.6l0.3,0.3l2.1,1.7l1.6,0.7l0.4-0.4h0.1l1.7,0.3l0.8-0.3h3.6l0.4,0.7
			l0.3,1l0.8,0.8l0.3,0.8l1.6,1.1l0.2,0.1l-0.1,0.3v0.3l-0.1,0.3l-1.1,1.6l-0.8,0.8l-0.2,0.4l-0.3-0.3l-0.4,0.4v-3.8l-1.9,4.8h-1.2
			l0.9,0.9l-0.8,2.1h0.9l0.1,0.3l-0.7,0.1l-0.2-0.2l-1.6,0.7l-1.6,2.1v0.7l-1.1,0.4h-0.5l-1.2,1.2v1.6l-0.1,0.1l-0.4-0.2l-0.9,0.3
			H513l-1.1,0.7h-1.1l-0.1,0.3l-0.3-0.3l-0.9,0.9L509,558l-1.6,0.3l-1.4,1.6l-0.5,1.4l-0.7,0.1l-0.9,0.9l-1,0.5l-2.1,0.3l-0.3,0.3
			l-3.2,1h-0.3l-1.2,0.4l-0.8,1.4l-0.1,0.1l-0.4-0.4l-0.8,0.8l0,0h-1.6l-1.9,1.4v0.1l-0.8,0.2l-1.2,0.5l0,0l-0.4-0.4h-0.9l-0.3-0.3
			h-1.6l-1.4,1.4l-0.1,0.3l-0.7,0.9h-1.6l-0.9,0.9h-0.1l-1.1-0.3l-0.1,0.1l-0.1-0.3l-0.7-0.7l0.1-0.1v-2.1l-0.9-0.8l-0.2-3l-0.5-0.7
			v-0.1h0.3v-2.1l-0.3-2.1l-0.3-0.8l-0.9-2.3l-1-0.2l-0.3-1.7h-0.8l-1.7-1.7v-1.1l-0.9-0.3l-0.7-2.3l0.4-1.1l-1-0.4v-0.4l-1.4-1.2
			l-0.3-0.8h-1.2l-0.3-0.1l-2.5-2.5l-0.2-1l-0.3-1.2v-0.1l0.4-2.1l-0.5-0.5l-0.3-1.1l-0.7-0.7l-0.3-1.1l-0.3-0.3l-0.4-1.2H460
			l-0.1-0.2l-0.9-1.1l-1.2-0.8l-1.4-1.4l-0.3,0.3l-0.1-0.1l0.3-0.3l-0.7-2.1l-0.8-0.3l-0.7-1.6l-0.9-0.3l-0.3-0.9l-0.7-0.3v-0.1
			v-0.8l-1.2-2.7h-0.5L450,520l-0.3-0.7l-0.3-0.3l-0.2-0.7l-1-1.2l0.8-0.8l-2.6-1V513l0.3-0.7v-6.2l-2.3,5.9l-0.3,0.3l-0.9,2.3v0.8
			l-0.3,0.9l-1.2-1.2l-0.4-1l-0.9-0.3l0,0v-1l-1.2-1.1v-0.2l-0.3-0.3v-3.3l1.7-0.3l2.3,0.4l1.6-0.5l0.4-1.1l0.8-1.2l1-2.1l0.2-2.3
			l1-1v-0.9l1.4-1.6l0.3-2.7l0.3-1.4v-1.4l0.3-0.9l-0.4-1.4l-0.7-1.1l0,0l0.9-0.9l-0.9-0.9l1.1-1.1v-1.8l-2.1-0.9l-1.4,1.4l-0.1-0.1
			l-1.4-0.8H444l-2.1,2.3l-0.1,0.2h-0.2l-0.9,0.3l-2.6,0.2l-0.4-0.3l-1.4-1.6h-1l-1.6-0.7l-1.4-0.3l-2.8,0.7l0.4,1.2l0,0l-0.2-0.1
			l-0.4,0.4H429l-0.4,0.4h-0.2l-0.5-0.2v-1.6h-2.3l0.7-0.7h-2.3v-0.8l-0.5,0.5l-0.7-0.7l0.4-0.4l-0.8-1.7l-1.6-0.7l-0.4,0.2
			l-0.1-0.1l0.1-0.3l5.8-2.3h-4.7v-2.1l-1.1,0.4l-0.2-0.5l2.1-2.1h-3.6l-0.2,0.1l-0.2-0.2l0,0v-0.2l-0.1-0.1l0.5-1.2l0.4,1l1.4-0.5
			l0.4,0.2h2.1l2.5-1l-0.5-0.5h0.4l1.7-1.7l-0.3-0.1l0,0l0,0l1.9,0.7h2.5V468l0.1-0.1l0.3-0.7l0.7-0.7l0.9-0.3l0.2-0.5l0.5-0.1h0.8
			l1.7-0.8l0.4-0.2h1.9l0.4-0.2l0.4,0.2h1.6h0.1l2.1,2.1l0.3-0.3l0.3,0.3l0.9-0.9l0.1,0.2l1,1l1.6,0.7l0.3-0.3l0.7,0.4l0.8,0.3
			l1.9,1.1l0.1-0.1l0.1,0.1l1.7,0.4l1.6-0.8h1.1l0.2-0.1l0.1,0.1h2.8l0.2,0.2l2.3,0.4l0.3-0.3h1.1l0.4-1.1l0.9-0.5l1-1l0.3-0.9
			l0.9-0.9l-0.3-0.7l0.3-0.4l-1.1-1.6l-0.2-1.2l-0.3-0.9l-1-1.6l-0.3-0.1l0,0l-2.1-1.6l-0.3,0.3l-0.2-0.1l-0.9-0.9h-0.5l-0.3-0.1
			l-0.4-0.4h-1l-0.3-0.1l-0.3-0.3l-0.4-0.2l-0.2-0.5l-2.3-1.9l-0.9-0.3l-1.6-0.9l-1,0.2v-0.7l-0.3-0.3l0.1-0.1l1.1,0.4l0.9-2.7
			l-0.3-0.3l1.7-1.7v-1.4l-0.7-0.2l0.8-1.7l1.6-0.7l0.7-1.7l-1.4-1.4l-1.7,0.5l-0.3,0.3L453,439h-1.6l-0.7,0.3h-1l-0.8,0.8l-0.1,0.2
			h-0.8l-0.4,1.2l-0.2,0.2h-0.8l-0.5,0.2l-0.9-0.3l-0.3,0.1l-0.2-0.4h-3.8l1.1,1.1l-0.1,0.1l-0.7,0.9l-0.7,0.2l-0.1,0.1l0,0
			l-1.2-0.4l-0.3,0.3l-0.7-0.3l-0.7,0.7l-0.7-0.7l-0.4,1.2l-0.8-0.3l-0.5,0.2l0.1-0.1l-0.5-0.2l-0.5-1.6l-0.4,0.1h-0.1l-1.2-1.2
			l-0.8,0.8l-0.8-0.8l-1.1,1.1h-0.4l-1.6,0.5v1.2l-0.1,0.1h-2.5l0,0l0,0l0,0l0,0v4.1l0,0l-0.8,0.8l0.7,0.7l-0.2,0.2l-0.2,0.1h-1.6
			l-0.4,1.2l-0.7,0.7l0.4,1.2v0.4l-0.3,0.9l0.3,0.9v1.6l-0.1,0.5h-0.4l-1.6,1.4l0.3,1.9l-0.1,0.1l-0.7,0.5h-1.6l2.3,2.7l0.5,0.5
			l0.3,1.1l1.1,1.1l0,0l-0.3,0.3h-0.9l-1.1,0.4l0.1-0.2l-1.9,1.6l-0.8-0.9l-0.3,0.3l-0.1-0.3l-1.6-0.5h-0.7l-0.3-0.7h-2.1v0.8
			l-0.8-0.8l-1.9,0.8l-0.2,0.7l-0.8-0.4l-0.9,0.9l-0.4-1.1l-2.3,0.9l-0.5,1.6l0.2,1l-0.7,0.7l1.7,1.9l-1.4,1.4l0.8,0.3l-0.4,0.2
			l-0.1-0.1l-0.1,0.1l-0.3,0.1l-0.5-0.8v-1h-0.9l-0.4-0.5l-0.8-0.5v-1l-1-0.4l-0.8-1.7h-0.7l-0.3-0.8v0.2l0.3-0.9l-0.3-1.2l0.2-1
			l0.2-0.2l0.7-1.6l-1.6-1.4l-0.4-0.2l-0.2-0.4l-1.6-1.9l-0.8-0.3l-0.1-0.1l-1.4-1.6l-0.4,0.4l-2.7-2.7l-1-0.4h-0.3l-3.8-3.8h-0.3
			l-0.3-0.3l-0.5-0.5l-0.3-0.9l-0.8-0.8l-0.4-1.2h-1.9l-0.7,0.7v-1.4l-2.8-1.1l-1.2,1.2h-0.7l-0.5,0.5c3.3-11.8,7.4-23.2,12.4-34.3
			v0.1l2.3,0.4l0.5,0.5l1.6-0.5l1.4-1l3.6,0.2l4.9-0.4l-0.5-2.1l0.4-1l-0.9-0.9l-0.3-0.7l-0.9-0.9l-1.6,0.3l-0.2-0.1l-1.1-1.6
			l-0.7,0.2l-0.1-0.2V405l-0.3-0.3l-0.1-0.3l0.5-0.2v-1.5l0.3-0.3l0.8,0.8v-2.8l0.3-0.1h0.9l0.4-0.4l0.5-0.2l1.2,1.4l0.3,0.8
			l1.2,1.2h1.9l1-2.3l0.3-1.4l-0.3-1.6v-1.4l0.3-2.1l-1-2.6l-1.2,1.2l0.9-2.1h-0.5l0.4-1.1l0.8-0.3l0.3,0.3l1.4-0.5l0.1,0.1l1-0.4
			l0.4,0.2h1.1l1.1,0.7h4.7v-1.2l0.2-0.5l0,0l1,1v-1.4l1.6-0.7l-0.7-0.3l0.5-0.5l0.1-0.2l1,0.3l0.9-2.3l-1.6-1.6h-1.6l-0.2-0.4h-0.1
			v-0.4l-1.4-1.6l-0.8,1c0,0-0.1,0.1-0.2,0.3l0,0h0.2l-0.5,0.5l-0.9-0.9l-1.4,1.4l-0.2-0.1l-1,0.3l-1-1l-0.3-0.7l-0.1,0.3l-0.4-0.4
			v1.2l-0.8,0.7l-0.2-0.2l-1.4,1.4h-0.2l-1.6-0.5c6.5-10.2,14.1-19.9,22.1-28.9l-0.4,1.2l1,0.4v0.1l0.9,0.9v0.7l0.7,0.7v0.4l0.2,0.4
			l-1,2.6l2.1-0.7v0.1l2.3,1.4l0.4-0.4l0.2,0.1v0.4l0.9,0.9h1.1l0.3,0.3h0.9l0.7,0.7h1.2l0.7-0.7h0.7l0.9-0.9v-2.3l-0.4-0.2v-0.7
			l0.7,0.3l1.9,1.9l0.8-2.1l0.9-0.9l0,0l0,0l1.6-1.6l-1.4-2.1l-1.4-1.4l-0.1-0.4V352l-1.7,0.4l-0.5,0.2h-1.1l-0.3,0.3l-1,0.2
			l-1.6-0.2l-0.8-0.2l-1-1l-1,0.4l-0.4-0.2h-1.1l-0.1-0.1l-1.4-0.5l-0.3,0.1v-1.2l-0.3,0.1c2.6-2.7,5.1-5.3,7.9-8h0.1l0.9,0.9
			l0.7-0.3l3.2,2.1v-0.8l0,0l0.2,0.2l0.4,0.4l0.3,0.7l1.1,1.1v0.8l-0.2,0.7l-1.6,4.1l3.8-2.8l0.4-1.2l0.7,0.7l0.8-0.2l-1.9,4.6
			l3.7-3.7l0.1,0.3l3.4,3.4l-1.2-5l-0.1-0.2l0.1-0.1v-1.7l0.4-1.2l-0.1-0.1l0.4-0.4l-0.3-0.3l0.3-0.3l-1.6-1.6l-1.1-0.4l0,0l0.1-0.2
			v-1.2l0.4-0.4l-0.4-1.2l0,0l0.8-0.8l-0.8-0.8v-0.5l-0.9-1.6h0.1l1-0.2l1.2,0.2l0.1,0.1v0.7l1.2,1.2l0.4,0.2l0.1,0.4l0.1,0.2h-0.2
			l-0.3,0.3h-0.9l-1.4,1.4l0.2,0.2l-0.3,0.3v2.1l1.2,0.4l1,0.9l1.6,2.3h1.6l0.3,0.9l1.1-1.1h0.7l0.5-0.5l5.8-3.6l-5.1,0.9l0,0v-1
			l0.8-0.1l0.1-0.1l3.3,0.4l-0.9-2.1h0.1l1.4-1.7l0.3-0.2l1.2-1.6l0.2,0.1l1.4-0.4v1l-0.2,0.2l1.6,1.6l2.1-1.4l0.2,0.5l1.7,0.8
			l0.2-0.2v4.7l2.3-5.8l1.4,0.5l1.6-1.6l-0.3-0.3l0.7-0.7l-0.5-0.2l0.3-0.3l0,0l0.3,0.3l0.5-0.5l0.2,0.1h2.1l1.6-0.7v-0.2h2.1v-1.2
			l0.2-0.2l0.7-0.3l0.1-0.1l0.3,0.1l-0.3,0.3l0.4,1l-0.3,0.7l0.8,1.7h3l0.9-0.9v-1h0.1l0.5,0.2l-0.3-0.3l0.8-0.3l0.1-0.5l5.1,1.6
			l-4.4-4.4l-0.2-0.1v-0.2l-1.2-1.9h-0.5l-0.1-0.5l-0.2-0.2l0,0v-1.6l-0.1-0.2l0.3-0.2l0.4,0.2l0.7-0.3l0.5,0.2l2.6-0.3l2.7,0.2
			l0.8,0.5l1.4,0.5l1,2.5l1.6-1.6l0.5,0.5h0.4l0.2,0.5l1.6,0.3l1.9,1.1l1.6,0.2l0.2,0.2l0.3,1.1l1.2,0.4l0.4,0.4l0.8,1.7l2.7,1.1
			v-2.1V332l0.5-0.5l-0.3-0.7l0.1-0.1v-1.6l2.3-2.3h-2.8l-0.3-0.3h-0.3l-0.4,0.2l-1.4-2.1H511l0,0v-1.1l-1.4-1.4l-0.7,0.9l-0.2-0.2
			h-1l-0.4-0.2v-0.2l-0.8-0.3l-0.2-0.5l0.8-0.8v-1.6l4.1,1.6l-4.9-4.9h-0.7l-0.4-0.7l-0.7-0.7l0.4-0.4l-0.5-1.4l1-1.6l1.4-1.4
			l-0.4-1.2v-0.3l0.4-1.2l-0.9-0.9v-0.4l-0.4-2.6l-0.2-0.7v-1L505,301l0.1-0.3l0.9-0.9l-1-1l0.2-0.8v-0.2c0.7-0.2,1.2-0.5,1.7-0.8
			l0.3,0.2l0.2,0.4l1.6,0.7l0.4-0.4l0,0l2.1,0.7h0.1l0.4,1.1v1l0.3,0.3v0.9l0.2,0.8l-0.3,1.9l0.1,0.3l-0.3,0.3l0.4,1v0.1l-0.7,0.7
			l0.7,1.6l0.7,0.7l0.3,1.1l0.4,0.2v1.2l1.2-0.4l0.1,0.7l0.8,0.8l0.1,0.3l0.3,2.3l0.5,0.5l0.1,0.6l0.9,0.9v0.7l0.8,1.4l-0.2,0.8
			l0.5,1.6h0.1l-0.1,0.3l0.5,0.5l0.2,1.1l1.6,2.3l1,0.2l0.2,0.7l0.9,0.3l0.1,0.1v1.2l-0.3,1l0.4,1.9l0.7,0.7l-0.5,0.5v0.5l-0.4,1.2
			l0.4,0.4v0.3l-1.6,0.7l1.4,1.4v0.7l-1-0.4v1.1h-1.9l-0.2,0.2l-2.1-1.1L518,339l-1.4,0.2h-1.4l-2.6,3.2h2.3l1.1,1.1l0.4-1.2
			l0.9,0.8l2.7,0.3l1.4,0.3l1.4-0.3h0.5l0.2,0.2l2.1,0.4l1.6-1.4v-1.1l1.1-0.4v-1l0.9-0.9v-0.9l0.9-2.1l-0.8-1l0.1-0.3l0.8-1.1
			l0.4-1.2l-1.1-3.3l-1.4-0.7l-0.1-0.2l-0.2-1.1l0.3-0.3l0.5-0.5l0.9-0.3l0.7-0.7v0.8l1.4,0.9l0.4,1.1h0.4l-0.4,1.1l1.4,0.5l0.2,0.4
			l0.5,0.5l-0.4,0.4l1.7,1.7h0.8l1,0.9l1.4-0.4l0.8-0.3l1-0.3l1.6-1.6l-1.6-1.6l-0.3,0.1l-0.5-1.4l-1.2,1.6l-0.1-0.3h-0.3l0.2-0.5
			l-0.8-0.8l-0.3-0.4l3.3-1.4l-2.8-1.1l-0.2-0.4l-0.3-0.3l-0.3-0.8l-0.7-0.5v-0.5l-1.4-1.6h-1.6l-0.9-0.4l-0.5-1.4l-1.2,0.4
			l-1.1-0.7l-0.8,0.3l-1-0.4l-1.4,1.4l-0.1,0.2l-0.9-0.2l-0.3,0.2l-0.4-1.1l-1.2-1.2l-0.1-0.2l0.3-1.6l-0.7-1l0.1-0.3l0.3-2.5
			l-1-1.7l-1.1-1.1h-0.5l-0.1-0.4l-1.9-1.6l-0.8-0.4l0.3-1.4l-0.2-2.6l-0.2-0.2l0.1-0.1l1.1-1.2l0.3,1l0.7,0.7v0.7l0.3,0.3l-0.7,0.2
			l1.1,2.8l1.1-0.4l0.7,0.5h1.7l0.3-0.1l0.7,1.7l1.6-1.6h1.2l2.1,1.6l0.8-0.1l2.6,2.6l-1.2-2.8l4.7-4.7l-5.5,2.1l-0.3-0.1l-0.1-0.3
			l-0.2-0.2l-0.4-1.4H529l-0.3-0.7h-1.4l-0.2,0.2l-0.9-0.1l-0.8-0.8h-1.2l-0.5-0.4l-0.4-1.1h-0.3l0.2-0.2l0.4-0.3h0.2l0.7,0.9
			l0.3,0.2l2.1,0.9l1.6-0.5l1.2-2.3l-1.4-2.1l-1.2-0.3l0.1-0.1h2.5l0.3,0.4l1,1l1.6,0.2l0.2,0.5l0.9,0.3l1.4,1.4h1.4l2.1-0.3
			l0.7-0.4l0.3,0.3l0,0v0.1l0.3,0.9v0.8l-1.1,0.9l0.5,1.2v1.4l1.1,0.8l-0.3,0.8l0.4,3.3h1.7l2.3,1.4h1.4l0.9,0.2v1l1.4,1.4h1.2
			l4.8,4.8l-2.3-5.6v-0.2l0.2-0.3l1.4,1h0.8l3.7,3.7l-2.1-6.1h-1.4l-0.5-0.2l-0.5-0.3l0.8-1l-3.6,0.9l-0.7,0.4l-0.8-0.3l-0.2,0.2
			l-0.2-0.2l-1.9-1.9v-0.3l-0.2-0.1l-0.1-0.1l0.5-1.4l-0.5-1.4l-0.8-0.7l-0.2-1.4l-1.4-2.1l-0.8-0.3l-0.1-0.1l0.2-0.5l-0.4-1
			l-0.3-2.1l-1.4-1.4h-0.2l-1.1-0.7h-1.6l-0.4-0.5l-0.5-0.4l0,0l-0.3-0.7v-3.3L535,294l-1.7-0.2h-0.3l-0.3-0.2l-0.4-1.4H532v-0.8
			l-1.1-2.1l-0.5-0.3l0.2-0.5l-0.7-0.7c3.2-1,6.2-1.7,9.3-2.7v0.4l2.1,1.7h7.4l-5.9-2.3l-0.3-0.3l1.1-0.5
			c15.3-3.7,31.1-5.8,46.8-6.3v0.5l0.2,0.2l-0.1,0.7l-0.5,0.2l-2.5,6.2l3.8-3.8h0.7l1.2-1.2l0.3-0.8h0.1l3.5-1.4l-1.7-0.8
			c1.1,0,2.3,0,3.3,0c60.3,0,117.4,22.9,160.9,64.6v0.3l-1.4,1.4l0.3,0.3h-0.5l-0.5,0.5h-2.1l-0.5,0.2l-1.2-0.3l-1.6,0.7l-1.6-0.7
			l-0.4,1h-1.1l-0.7,0.7h-1.4l-0.9,0.7h-0.8l-0.9,0.7l-0.1-0.2h-1.7l-0.4,1.1l-1.1,0.9l-0.3,0.8l-0.7,0.7l-0.5,1.4l0.9,1.4l-0.1,0.5
			l-0.7,0.9l-1.1,1.6l0.4,1v1.2l0.2,0.5l-0.4,0.4v0.7l-0.4,0.4l0.3,1.1l-0.4,0.4l-0.3,0.9l-1.1,1.4l0.1,0.2l-0.2,0.1l-0.2,1h-0.4
			l-0.4,2.8v0.8l-0.4,0.4l0.3,0.7l-0.3,0.3l-0.3,0.8l-0.9,1v0.2l-0.3,0.3v1.1l-0.9,0.7v1.2l-0.9,0.9v0.8l-0.5,0.7l-0.8,2.1l0.7,1.6
			l1.6,0.7l0.4-0.2l0.5,0.5h1.6l0.9-0.9l0.7-0.2v1.6l0.8,1l0.1,0.3l-0.4,1.2l2.6,2.3l0.1-0.2l0.4,0.4l1.7-0.3v0.8l2.3-2.3l0.4-1.2
			l-0.4-0.4l0.3-0.5l-0.1-0.2l0.3-0.8l0.3,0.1v-0.8h0.9l-0.5-0.4h0.5l0.2-0.2l0.2,0.2h1h0.1l0.2,0.4l0.7,0.7l0.9,0.3l0.2,0.2
			l1.6,0.7l0.4,0.4h0.4l0.3,0.7h0.4l0.1,0.1l-0.1,0.3v0.4l-0.8,0.8l1.7,1.7h0.8l0.2,0.4l-0.2,0.2v1.6l1.2,1.2l0.4,0.2l0.4,1.2
			l0.1,0.1l-0.1,0.1l0.3,0.3l-0.4,0.4l0.5,0.5l-0.2,0.4l0.5,1.4l-0.2,0.2l0.4,2.1l0.2,0.5v0.7l0.9,2.8l0.2,0.1l-0.2,0.2l0.7,1.6
			l0.7,0.7v1.2l0.3,0.3l0.4,2.8h0.2v0.9l0.3,0.7v0.2l-0.9,0.9v1.2l-0.3,1.2l0.4,1.6l0.1,0.1l-0.7,0.7v1l-0.2,0.3h-2.8v1.4l-0.8,0.8
			l0.3,1.6l-0.8,0.8l0.5,1.7l0.1,0.1l-0.5,0.7l-0.2,0.7l-0.9,0.9v0.8l-0.5,0.8l-0.7,2.7l-0.2,0.2l-0.5,1.6l-0.7,0.5v0.4l-0.7,0.3
			v1.1l-0.4,0.4l0.1,0.3l-2.1-0.8l1.1,2.8v0.1l-1.6,0.7l0.8,0.8l-0.4,0.4l-0.4,0.4h-0.7l-0.4,0.4l-0.9,0.3l-0.1,0.1l-0.3-0.3
			l-0.3,0.3l-0.2-0.2l-0.3-0.1v-0.8l-1.1-1.1l-1,0.4l-1-0.4l-1.1,1.1v0.7l-0.7,0.7v1.1l-0.2,0.2l-0.1,0.4l-1.2,0.4l-0.2,0.7h-0.2
			l-1.1,1.1h-0.9v1.7l-0.3,1.7v1.7l0.7,0.7v2.1l0,0l-1,0.9l0.3,0.3l-1.4,1.4v0.4l-0.2,0.1l-0.1,0.1h-0.4l-1.4,0.5l-0.3,0.9l-1,0.9
			v1.4l0.1,0.2l-0.2,0.2l0.7,2.1h0.2l-3.3,1.4h-0.2v-0.5l0.8-1.4l-0.2-0.5l0.9-2.3h-2.3l-0.4,0.4h-0.2l-1.4-0.5l0,0l0,0l-0.3-0.1
			l-0.8-2.1l-1.6,2.3h-0.2l-0.4-0.4l-1.4,1.1h-1l0.8-1.7l-2.8,2.8v-0.9l0.4-0.5l0.8-0.8v-1.7l-1.9-1l-1.9-2.8l-0.7,1.6h-1.7
			l-0.4,1.2l-0.3,0.3l-0.3,0.7l-0.9,0.9v1l-0.4,0.4H710l-1.7,1.2l-0.3,2.1l-0.7,0.7H706l1,1h-0.1l-2.6-0.5v1.6l-0.3,0.3v0.7
			l-0.3,0.3v0.3l-0.4,0.4l0.4,1.2v1.2l1.4,0.5l0.9,0.5l0.2,0.2l1.2,1.4v1.2l0.5-0.5l0.8,1v-1.7l0,0v0.2l1.2,2.7h1.7l0.4-0.2l1,0.4
			l1-1l0.7-1.6l0,0l0.3-0.3v-0.5l0.5-0.2l0.2,0.5l1,1h2.6l-0.2,0.2h-0.7l-0.1,0.1l-0.4-0.2l-2.7,1.1l1.2,1.2l-0.3,0.1v0.3h-0.2
			l-1.7,1.7l0.5,0.5l-0.2,0.2l-1-1l-1,2.8l0.3,0.8l-0.2,0.9v2.8l1.9,0.7v1.6l1.7-0.7l1,0.4l0.7,1.4l-0.3,1l1,0.4v0.7l1.2,0.9v0.9
			l1,1.6l-2.1-0.4l0,0l-0.2-0.5l-1.6,0.5l-1-0.4l-0.1,0.1l-0.1-0.1l-1.7,0.7l-5.1,11.3l6.9-9.1l0,0l0.9,0.3l0.2-0.1l1,0.9l1.4,0.5
			l0.9-0.5l0.8,0.8l1.2,0.8l1.6,1l0.2,0.4l-0.2,0.1l-0.5,0.7h-0.2l-0.9,0.9v0.1l-3.4-1.4l1.6,2.1l-1,1v0.3l-2.6,2.6l2.6-1v5.1
			l2.3-5.9l0.2-0.2l0.3,0.3l1.6,0.7l0.4-0.4v0.9l-0.7,0.2l0.7,0.7v0.9l-1.4,1.4v1.9h0.7l0.1,0.1l-0.7,0.7l0.2,0.2l-0.5,0.9h-0.1
			l-0.1,0.4l-0.1,0.1l-0.3-0.8l-1.4,3.6h-0.7l0,0l0,0H720l-0.1,0.2l-1.4,1.4h-1.2l0.7,0.7l-0.9,0.9h1.7l0.3,0.3l-0.7,0.2l-2.1,5
			h-1.9l2.6,2.6h-0.4l-0.3,0.7h-0.3l-0.1,0.3l-1,0.3l-3.5-3.5l1.9,4.9l-1.4,1.4l-0.3,0.1H710l-0.1,0.2l-0.7-0.7l-0.9,0.9l-0.7,0.2
			l-0.8-0.8l-2.5-1v2.6l0.3,0.7v0.1l-1.6-1.6v2.8l-0.1,0.3l-0.3,0.3l-0.5,0.2l-0.4-0.2l-0.9,0.3h-3v-1.1l-1.9,1.9h-2.6l1.4,1.4
			l-0.4,0.4v-0.6l-1.1-1.1l-1,0.4l-1.4-0.5l-0.3,0.8l-0.7-0.7l-0.2,0.2l-1.1-2.8l-1,2.7l-0.2-0.2l-0.8,0.8h-2.6l1.1,1.1h-0.7
			l-1.1,0.4l-0.8,0.8h-1.4v0.9l-0.8,0.8l0.8,0.8v1l0,0l-0.4-0.4l-1.2,1.2l-0.3,0.7l-0.4,0.4v1.7l-0.4,1.2l0,0l-1.6,0.7l3.2,1.2
			l0.7,0.5l1.1,1.1l2.1,5.3v-4.5l0,0v0.2l2.5,1.1l1.4,0.9l0.2,0.7l1.6,1.2l0.5,0.5l0.4,1v0.2l0.7,0.7l-0.4,0.4l1.2,1.2l0.3,1.1
			l0.3,0.3l0.3,1.1l0.1,0.1l-0.3,0.3l0.3,0.7l-0.3,0.3l0.4,1.2v1l0.4,0.4l0.1,0.2l-0.5,0.5v1.4l0.2,0.4l-0.1,0.1l-1,0.4l0.5,1.4
			l-0.4,1l0,0l-0.2,0.7l-0.7,0.7l-1.9,0.8v0.3l0,0l-0.4,0.4l-1.1,0.5h-0.1l-0.4-0.4l-0.1,0.1v-2.1l-1.9,1.9l-0.2-0.1h-1.7v0.5h-4.7
			v-1.9l-1.9,1.9l-0.9-2.3l-0.1,0.1l0,0v-0.4l-1-1.6h-1.1l-2.1-2.1l-0.5-0.2v-0.1l-0.8-0.8l-1.4-0.5l0,0l-0.3-0.7v-0.2l0.8-0.8
			l-1.2-1.2l-1.1-0.4h-0.3l-0.4-0.4l-0.9,0.3l-0.7-0.7l-0.4,0.4l-1.6-1.6v2.6l-1.1,1.1l1.7,0.7l-0.1,0.3v0.4l-0.8,0.8l0.5,0.5
			l-0.7,0.7l-0.3,0.7l-0.8,0.8l-0.3,2.5l-0.8,0.9v0.9h-1.4v-1l0.8-0.8l-0.3-0.9l0.5-0.5l-1.6-1.6l-0.1-0.3v-0.2l0.4-0.4l-0.7-1.6
			l-0.2-0.2l-0.3-2.1l-0.3-0.3l-0.3-0.7l-1.4-1.4v-0.5h5.9l-2.3-2.3v-1.6h-0.1l-0.2-1.7l-0.2-0.2l0,0v-1l-0.1-0.2l0.1-0.1v-3.3
			l-1.7,1.7l-0.2-0.2l-0.7-1.2l-0.3-0.3v-0.3l-6.5-2.6l3.6,3.6v0.7h-2.3l0.3,0.9l-0.5,1.4l-0.7,0.4h-0.5l-0.3-0.9v-2.7l0.2-0.2
			l-0.2-0.2v-3.9l-0.9,2.8l-0.3-0.8v-1.6l-0.1-0.1l0.7-0.7l-1.7-0.7l-0.1-0.3l-0.5-1.2v-1l-0.5-0.5v-1.6l-1.1-1.4l-0.9-0.3l-0.2-0.2
			l-0.2-0.1l1.4-1.4h-2.8l-0.9-0.9v0.7l-1-0.4l-0.1-0.2H638l-0.4-0.7l-0.4-0.5v-3.6l-0.5,0.5v-0.2l-0.4-0.4l-1-2.8h-1l0,0h-0.1h-0.3
			l0.2-0.2l-0.5,0.2h-0.3v0.1l0,0l-0.3-0.2l-0.5-0.5H632l-0.2-0.2l-0.2-0.5l-2.1,0.5v-0.1l-2.6,2.6l0,0h-0.8l0.2,0.4l-1,1h-0.7
			l-1.9-1.9v0.9l-1.1-0.4h-2.1v1.9l0.1,0.1l-0.1,0.1v0.7l-0.2,0.2l-2.1,0.7l-0.7,0.7l-0.9,2.3l0.7,0.7l0.1,0.3v0.2l-0.2,0.2
			l-0.1,0.2h-2.3l1.2,1.2l-0.5,0.4v0.1l-0.3,0.1l-0.5-0.5h-1l-0.7,0.3h-1.6l-0.8,2.5l-0.5,0.4l-0.7,1.4l-3.2,2.5l-0.3,0.9l-0.3,0.3
			l-1.2,0.2l-1.2,1.1l-0.5,1.4l0.2,0.4l-0.4,0.4l-1.6-0.3l-1.4,1.4v0.4h-1.6l-1.6,1.6l-0.4,1.2l0.5,1.4l-0.7,0.7l0.4,1.4v3.2
			l0.8,0.3l0.1,1l-0.5,1.9l-0.9,1.6v2.5l0.3,0.8l0.2,2.1l-1.6,0.5l-0.8,1.9l0.1,0.1l-0.2,0.3l-0.4,0.4H592h-0.3l-1.6,1.1l-0.4,1.2
			l0,0l-0.8,0.8l0.4,0.4l-0.3,0.2L589.4,587z M682.7,583.1l-0.4,0.2l-0.1-0.1v-0.3l-0.8-0.8l0.8,0.2l-0.2,0.2l1.7,0.7l-0.3,0.1
			L682.7,583.1z M659.3,582v-1l0.4,0.4v0.5L659.3,582L659.3,582z M679.2,581.5l0.3,0.1l-0.1,0.1L679.2,581.5z M740,578.5v-0.9
			l0.5-0.1l0.2,0.3l-0.4,0.4l-0.1,0.2L740,578.5L740,578.5z M503.3,576.4L503.3,576.4l-0.1,0.2L503.3,576.4z M749,575.1l-0.4-0.5
			l-0.1-0.5h0.1l0.9,1.2v0.2L749,575.1z M735.3,572L735.3,572L735.3,572L735.3,572L735.3,572z M735.2,567l-0.2,0.2h-0.5l1-1v1.1
			l0.2,0.1v0.1L735.2,567z M733.9,564.2H733v-0.4h-1v-0.5l-0.4-0.9l-0.1-0.4l0.2-0.8l0.8-0.5v-1.2l-0.3-0.9l0.2-0.5l0.3-1.7v-1.7
			l-0.1-0.2l0.8-1.1V553l0.3,0.1l0.7,0.7l1.6,0.4l-0.1,0.3l0.7,1.9l0.4,0.2l0.1,0.9l0,0l-0.1,0.8l-0.1,0.4l-0.7,1.2l-0.8,0.9
			l-1.1,1.1l0.3,0.8l-0.2,0.4v1.2l0.2,0.8l0.2,0.2L733.9,564.2z M695.3,551.7H695l-0.3-0.3h-0.5l-0.3-0.4v-0.1l-0.3-0.7v-1.2
			l-0.1-0.2l0.3-0.3l1-0.8l0.2-0.7h0.3l0.1,0.1h1.2l0.2-0.1l0.3,0.3l0.7-0.3l0.3,0.3l1-0.4l0.2,0.1l-0.2,0.2l-0.3,0.7l-0.3,0.3
			l-0.4,1.4l0.1,0.4l0,0l-1.2,0.4v0.3l-1.4,0.5v0.5H695.3z M693.4,544.2l-0.3-0.4l0.1-0.3h1.2v-0.7l0.3,0.9v0.1l-0.8,0.8
			L693.4,544.2z M697.9,539.8L697.9,539.8v0.3V539.8z M730.3,536.4v-0.9h-0.7v-1.1l-0.4-0.1v-2.1l0.3-0.9l0.8-1.4l0.1-0.5l0.9-1.4
			l-0.4-0.2l0.1-0.1l0.4-0.3l0.4-0.3l0.3,0.5h0.2v0.7l-0.2,1.4l-0.5,0.9l0.1,1.4l-0.1,0.5l-0.4,2.1l0.4,0.2l-0.7,0.8L730.3,536.4
			L730.3,536.4z M629.6,535l0.2,0.8l-0.2,0.1V535z M717.1,528.4l1.4-1.4l0.4,0.4l-1,1H717.1L717.1,528.4z M720,525.5L720,525.5
			l-0.2,0.3l0.4,0.1l-1.1,0.4L720,525.5z M756.6,496.4l0.2-0.8v-1.2l-0.5-1.1l-0.7-1.2l-0.7-0.7l0.7-0.3l0.1-0.4h0.1h0.2l0.7,0.9
			h0.7l0.8,1.6h0.5v0.7h0.2l-0.7,0.7l0.3,1.6l-0.3,2.1l0.2,0.4h-0.1L756.6,496.4z M366.6,498c0.2-4.6,0.5-9.1,1.1-13.6l0.7,0.2
			l0.2,0.2l0.7,1.1l0.3,0.3l-0.2,0.2L369,488l1.2,1.9l0.4,0.1v1.4l0.1,0.1l-0.7,2.1l-0.9,0.9l0.3,0.3l-0.2,0.2l-2.1,1.2L366.6,498z
			 M722.4,497.5L722.4,497.5h0.2H722.4z M440,495.7l0.8-0.5l0.2,0.1h0.4l-0.5,0.4h-0.5L440,495.7L440,495.7z M414.3,494.9
			L414.3,494.9L414.3,494.9L414.3,494.9L414.3,494.9z M762.4,490L762.4,490l0.1-0.3h0.9l-0.2,0.2l-0.3,0.9L762.4,490z M766.3,488.8
			l-0.7-0.1l0.1-0.7l0.3-0.2h0.1l0.5,0.3l0.2,0.1v0.2l-0.3,0.3v0.1L766.3,488.8z M771.4,488.3l0.3-0.1l-1.4-1.4v-0.7l0.4-0.7v-1.3
			l-1.2-0.8h-2.1l-0.8,0.4l-1.6,0.9v0.2l-0.9,0.4h-0.3l-1,0.3l-1.2,0.1l-0.3,0.1l-0.3-0.2h-1.4l-0.5,1.1v0.5l-0.4-0.1l-1.2,0.4h-0.1
			v-0.1l0.8-0.5l0.3-0.8l0.2-0.2l0.4-0.3l1.6-1.6v-0.1l0.3-0.3l0.2-0.9l0.5-0.4l0,0l0.5,0.5l1.2-0.5l0.8-0.2h0.7l1.1-0.4l1.1-0.3
			l0.1,0.7h1.4l0.3-0.1l0.5,0.3l2.3-1.4l-0.4-0.4l1.1-1.6h-1v-0.2l-0.2-0.2l0.3-0.3v-0.5l0.7-1v-0.8l1.7,0.8l0.3-1l0.3-0.1l1.7-1.2
			l1.1-0.7l0.2-1.2l0.4-0.7v-1.2l0.1-0.4l0.5-0.4l1-1.6l-0.5-1l0.7-2.3l-0.3-1.4l0.3-1.1l-0.3-1.9l-0.7-1.6l0.2-0.9l-0.5-1.1h-0.1
			v-0.4l0.4,0.3l1.4-1l1.6,1.6l0.2,0.3l0.2,1.2l0.5,1h0.4l0.2,0.3l0.4,1.4l-0.1,0.3l0.2,0.9v0.5l-0.1,0.4v1.4l0.1,0.5v0.3l-1.4,0.7
			l-0.2,1.7v1l0.8,1.4l0.7,1.7l-0.3,1.4v3.9l0.7,1h-1.6l-1.1,0.3l-0.8,2.1l0,0l-0.3,0.2l-0.2,0.2h-1l-1.6,0.9v1.2l-1.4-0.2l0,0
			l-0.2-0.2v0.2l0.8-0.8h-3.4l-0.9,0.9l-0.5,1.7l0.9,0.9l0.2,0.1l-0.2,0.1l-0.7,1.2v0.4l-0.3,0.3v0.5l-0.2,0.3L771.4,488.3z
			 M381.4,488.5l-0.2-0.4l-1.1-1.1l-0.7,0.2l-1-0.3l-0.4-0.4l-0.9-0.3l-0.4-0.3l1.4,0.2l1.2-0.4h1.7l0.3-0.3l0.1,0.1h0.2l-0.7,2.1
			l0.8,0.9v0.2l-0.1,0.1L381.4,488.5z M736.4,483.7v0.8l-0.4-1.1l0,0l0.3-0.3v-1.2l1.2-0.8l-1.6-2.7v-0.2l-0.2-0.4l1.9,0.4l-1.2-2.8
			l-0.1-0.1l0.3-0.3l-1-1l-0.9-1.4l0,0l3.6-1.4l1.4,1.4l1.6,2.1v1.6l0.8,0.8l0.2,1.7v3.4l1.6-1.6l0.1,0.7l-0.7,0.7l0.3,0.3h-0.4
			l-1,1h-1.6l-0.2,0.4l-0.9,0.3l-1.6,1.4L736.4,483.7z M406.3,483.9l-0.5-0.2l-1.1-2.8l-0.3,0.7l-0.5-0.5h0.7l0.4-0.4l0.4,0.2
			l1.4-0.5l0.2,0.1l-1.4,0.5l0.9,0.9v1.4l0.3,0.8L406.3,483.9L406.3,483.9z M784.5,480.7L784.5,480.7h0.2l-0.2,0.2V480.7z
			 M386.6,480.1l0.3-0.3v0.5l-0.3,0.2V480.1z M784.6,478.6l0.4,0.5l-0.2,0.2L784.6,478.6z M387.4,477.8l-0.3-0.9l-0.2-0.8l0.2,0.2h1
			l0.3,0.3l-0.3,0.9H388l-0.7,0.7v-0.4H387.4L387.4,477.8z M385.8,473l-1.9-0.8l-0.1,0.1l-0.2-0.7h-0.3v-0.3l-0.7-1.4h-1.2l-1.6-0.7
			l-0.7-1.2H378l-1.2-0.4l-0.1,0.1v-0.1l-1.7-0.7l-1-0.7l-1.2-1.7l-0.2-0.2l-0.3-0.7l-1-1c0.5-2.6,1.1-5.2,1.7-7.9l0.1,0.2l0.4,1.2
			l2.1,0.9l0.3,0.1l0.2,0.4l1.7,2.1v0.8l0.3,0.3v0.5l0.4,1.1l1.6,1.6l0.7,0.5l0.3,0.9l0.9,0.3l0.4,0.4h1.6l0.2,0.1v0.5l0.7,1.6h1.4
			l1,0.2l1.4,0.7l-0.7,0.7l-0.3,0.7l-0.4,0.4v1.9v0.1l-1,0.3v0.9L385.8,473z M730.9,469.4l-1,1l-0.2-0.1v-0.9h0.4l3.6-3.6l0.2,0.4
			l2.5,1.2l0.1,0.3l1.2,2.6l0.2,0.2h-5.6l0,0L730.9,469.4z M717.4,464.3L717.4,464.3h0.4l-0.2,0.2L717.4,464.3z M439.3,450.9
			l1.6-1.6l0.4,0.4l0,0l-1.4,1l-0.8,0.4L439.3,450.9z M379,449.7l0.1-0.1L379,449.7L379,449.7z M776.8,449L776.8,449l0.3,0.1
			l-0.2,0.1L776.8,449z M437.7,448.3l0.7-0.2l1-1l0,0v1.1l-0.3,0.8L437.7,448.3z M784.3,446.1l-0.8-0.4l-0.5-0.4l-1.1-1.6l-1,0.3
			l-0.1-0.1H779l-1.1,0.9l-0.2,0.2l-1.1-0.9l-0.1,0.1V444l0.9,0.3l1-1l0.1-0.5l0.9-0.4l-1.1-1.6l-0.2-0.1l-0.1-0.4h0.9l-0.8-2.3
			l-0.1-0.4l0.1-0.4l-0.2-1.4l-0.3-1.1l-0.9-1.4l0.7,0.4h0.4l0.2,0.7l1.6,1.6l0.8,0.4l0.7,1h0.7l0.2,0.4l1.4,0.7h0.7l0.5,0.7h2.5
			l0.4-0.2v0.4l1.4,0.7l0.2,0.2v0.9l-1.6,0.7l-0.1-0.1l-1.2,0.7l-1.1,1.1l-0.5,1.6L784.3,446.1L784.3,446.1z M775.1,422.4l-1-1.1
			v-0.2l-0.1-0.2l0.5,0.7h0.5l0.3,0.4l0.4,0.4v0.9l-0.9,0.3L775.1,422.4L775.1,422.4z M773.2,419L773.2,419L773.2,419L773.2,419z
			 M771.3,413.7l-0.4-0.2v-0.1l0.2-0.9l-0.7-1.2v-2.1l-0.3-1.2l-0.1-0.9l-0.3-0.9l-0.7-0.9v-0.1l0.3-0.7l-1.4-1.4v-0.4l-0.4-0.9
			v-2.1l-1.2-1.6l-0.8-0.3l-0.4-0.4l-0.5-1.6l-0.9-0.3l-0.1-0.3l-0.7-1.6v-1.4l-0.1-0.1v-1.4l-1-1.4l-0.5-0.5l-0.1-0.7h0.2l1.4-0.4
			v-0.8l0.1,0.1l0.3,0.7l0.2,0.1v1.1l0.4,0.4v0.4l1.2,1.2l0.3,0.1v0.1v3.4l0.5,0.7l0.3,0.9l1,1v0.1l0.5,1.6h1.1v0.4l0.5,0.5l0.4,1
			l1.2,1.6l0.3,0.7l0.9,1.7l0.8,0.8v1.2l0.9,0.2l0.1,0.2l0.7,1.1h-0.3l-0.1,0.1l-0.1-0.1h-3.2l1,1.6l-0.3,0.9l0.5,1.1v0.2l-0.3,1.6
			l0.7,0.9v0.3L771.3,413.7z M401.8,390.7v-0.3l0.3,0.3H401.8z M402.7,384.8c0.2-0.2,0.3-0.5,0.5-0.8v0.4L402.7,384.8L402.7,384.8z
			 M438.6,359.3L438.6,359.3l0.7,0.3L438.6,359.3z M435.6,358.7l-0.8-0.8l-0.5-0.2l-0.1-0.1l0.1-0.1l0,0h1l0.1,0.2l0.8,0.8h-0.1
			L435.6,358.7L435.6,358.7z M461.1,333.7l-0.5-0.9l0,0v-1.1l0.2-0.5h0.4l1.4,0.7l-0.1,0.4v0.5l-0.3,0.5l-0.4,0.2L461.1,333.7
			L461.1,333.7z M485.6,322.4L485.6,322.4l0.3,0.1L485.6,322.4z M477.7,318.8L477.7,318.8l-0.5-1.2l-0.9,0.9l-0.1-0.2l-2.6-1
			l-0.5,0.5l-0.7-0.7l0.3-0.3l-1.6-1.6c0.5-0.3,1-0.7,1.6-1l0.4,0.4l0.9,2.1h1.4l1.4,0.3l0.9,0.7l0.8,1l0.3,0.1l-0.3,0.3
			L477.7,318.8z M471.1,318.6v-0.4h0.2l0.4-0.4v0.8l-0.3,0.1L471.1,318.6z"/>
		
			<radialGradient id="光线_1_" cx="600.2161" cy="15.0446" r="240.2353" gradientTransform="matrix(1 0 0 1 0 496)" gradientUnits="userSpaceOnUse">
			<stop  offset="0.2738" style="stop-color:#FFFFFF"/>
			<stop  offset="0.8763" style="stop-color:#FFFFFF;stop-opacity:0.42"/>
			<stop  offset="1" style="stop-color:#FFFFFF;stop-opacity:0"/>
		</radialGradient>
		<path id="光线_6_" class="st20" d="M439.8,544.4c29.6,6.7,60.7,11.6,92.8,14.4c5.8,67.4,22.3,131.9,47.5,191.7
			c2.1,0.2,4.1,0.3,6.2,0.4c-25.5-59.8-42.1-124.1-48-191.7c19.9,1.6,40.2,2.5,60.9,2.5c44.3,0,86.9-3.8,127.5-10.9
			c-11.8,84.5-60.9,157.1-129.9,200.6c1.1,0,2.3,0,3.5,0c2.3,0,4.6,0,6.9-0.1c67.1-45,114.3-117.7,125.3-201.5
			c38.3-7,74.5-17.1,107.9-29.6c0.1-2.1,0.1-3.9,0.1-5.9c-33.2,12.7-69.2,22.7-107.3,29.7c1.1-10.5,1.7-21.1,1.7-31.9
			c0-100.9-52.3-189.9-131.1-241.3c-1.1,0-2.3,0-3.5,0c-2.3,0-4.6,0-6.9,0.1C674.7,320.3,729.1,410,729.1,512
			c0,11.1-0.7,22.1-1.9,32.9C686.5,552.2,643.4,556,599,556c-20.8,0-41.3-0.9-61.4-2.5c-1.4-16.7-2.1-33.6-2.1-50.5
			c0-81.6,15.5-159.7,43.6-231.4c-2.1,0.2-4.1,0.3-6.2,0.7c-27.8,71.7-43.1,149.4-43.1,230.7c0,16.9,0.7,33.6,1.9,50.1
			c-32.2-2.8-63.4-7.9-92.9-14.5c-0.9-9.1-1.4-18.2-1.4-27.5c0-100,52.3-188.2,131.1-238.2c-4.5,0.5-8.8,1.4-13.2,2.1
			C480.9,327.3,432,413.7,432,511.4c0,8.8,0.4,17.6,1.2,26.2c-25.5-6-50.2-13.5-73.2-22.1c0,2.1,0.1,3.9,0.2,5.9
			c23.2,8.6,47.9,16,73.6,22.1c9.4,84.3,55.3,157.7,121.6,204c4.4,0.8,8.8,1.6,13.2,2.1C499,704.7,450,630.4,439.8,544.4z"/>
		<g id="光点_6_">
			
				<radialGradient id="SVGID_9_" cx="731.9412" cy="0.1506" r="9.3083" gradientTransform="matrix(1 0 0 1 0 496)" gradientUnits="userSpaceOnUse">
				<stop  offset="0.2738" style="stop-color:#FFFFFF"/>
				<stop  offset="0.8763" style="stop-color:#FFFFFF;stop-opacity:0.42"/>
				<stop  offset="1" style="stop-color:#FFFFFF;stop-opacity:0"/>
			</radialGradient>
			<circle class="st21" cx="731.9" cy="496.2" r="9.3"/>
			
				<radialGradient id="SVGID_10_" cx="652.2723" cy="-177.1429" r="9.2793" gradientTransform="matrix(1 0 0 1 0 496)" gradientUnits="userSpaceOnUse">
				<stop  offset="0.2738" style="stop-color:#FFFFFF"/>
				<stop  offset="0.8763" style="stop-color:#FFFFFF;stop-opacity:0.42"/>
				<stop  offset="1" style="stop-color:#FFFFFF;stop-opacity:0"/>
			</radialGradient>
			<circle class="st22" cx="652.3" cy="318.8" r="9.3"/>
			
				<radialGradient id="SVGID_11_" cx="682.9744" cy="173.5325" r="13.2275" gradientTransform="matrix(1 0 0 1 0 496)" gradientUnits="userSpaceOnUse">
				<stop  offset="0.2738" style="stop-color:#FFFFFF"/>
				<stop  offset="0.8763" style="stop-color:#FFFFFF;stop-opacity:0.42"/>
				<stop  offset="1" style="stop-color:#FFFFFF;stop-opacity:0"/>
			</radialGradient>
			<circle class="st23" cx="682.9" cy="669.5" r="13.2"/>
			
				<radialGradient id="SVGID_12_" cx="535.6619" cy="59.7227" r="14.1637" gradientTransform="matrix(1 0 0 1 0 496)" gradientUnits="userSpaceOnUse">
				<stop  offset="0.2738" style="stop-color:#FFFFFF"/>
				<stop  offset="0.8763" style="stop-color:#FFFFFF;stop-opacity:0.42"/>
				<stop  offset="1" style="stop-color:#FFFFFF;stop-opacity:0"/>
			</radialGradient>
			<circle class="st24" cx="535.6" cy="555.8" r="14.2"/>
			
				<radialGradient id="SVGID_13_" cx="549.7029" cy="-130.6486" r="14.2633" gradientTransform="matrix(1 0 0 1 0 496)" gradientUnits="userSpaceOnUse">
				<stop  offset="0.2738" style="stop-color:#FFFFFF"/>
				<stop  offset="0.8763" style="stop-color:#FFFFFF;stop-opacity:0.42"/>
				<stop  offset="1" style="stop-color:#FFFFFF;stop-opacity:0"/>
			</radialGradient>
			<circle class="st25" cx="549.6" cy="365.4" r="14.3"/>
			
				<radialGradient id="SVGID_14_" cx="455.4117" cy="123.2498" r="11.7351" gradientTransform="matrix(1 0 0 1 0 496)" gradientUnits="userSpaceOnUse">
				<stop  offset="0.2738" style="stop-color:#FFFFFF"/>
				<stop  offset="0.8763" style="stop-color:#FFFFFF;stop-opacity:0.42"/>
				<stop  offset="1" style="stop-color:#FFFFFF;stop-opacity:0"/>
			</radialGradient>
			<circle class="st26" cx="455.4" cy="619.2" r="11.8"/>
		</g>
	</g>
</g>
</svg>
