<?xml version="1.0" encoding="utf-8"?>
<!-- Generator: Adobe Illustrator 21.1.0, SVG Export Plug-In . SVG Version: 6.00 Build 0)  -->
<!DOCTYPE svg PUBLIC "-//W3C//DTD SVG 1.1//EN" "http://www.w3.org/Graphics/SVG/1.1/DTD/svg11.dtd">
<svg version="1.1" id="HUB" xmlns="http://www.w3.org/2000/svg" xmlns:xlink="http://www.w3.org/1999/xlink" x="0px" y="0px"
	 viewBox="0 0 811 639.1" style="enable-background:new 0 0 811 639.1;" xml:space="preserve">
<style type="text/css">
	.st0{fill:url(#底部_1_);}
	.st1{fill:url(#暗角反光_1_);}
	.st2{fill:url(#SVGID_1_);}
	.st3{fill:url(#SVGID_2_);}
	.st4{fill:url(#顶-背景_1_);}
	.st5{fill:#043977;}
	.st6{fill:url(#面板_1_);}
	.st7{fill:#073A76;}
	.st8{fill:#F4F4F4;}
	.st9{fill:#0B2638;}
	.st10{fill:url(#高光_1_);}
</style>
<linearGradient id="底部_1_" gradientUnits="userSpaceOnUse" x1="49.0567" y1="1117.9875" x2="763.5003" y2="1117.9875" gradientTransform="matrix(1 0 0 1 0 -710)">
	<stop  offset="0" style="stop-color:#E7EFF5"/>
	<stop  offset="0.2574" style="stop-color:#C3C5D2"/>
	<stop  offset="0.3352" style="stop-color:#C6C8D5"/>
	<stop  offset="0.3997" style="stop-color:#CED3DD"/>
	<stop  offset="0.4592" style="stop-color:#DDE4EC"/>
	<stop  offset="0.4655" style="stop-color:#DFE6EE"/>
	<stop  offset="0.5693" style="stop-color:#98A5B5"/>
	<stop  offset="0.995" style="stop-color:#7E8EA0"/>
</linearGradient>
<path id="底部" class="st0" d="M2.1,177.6v181.9c0,18,9.4,34.7,24.7,44l329.9,219.3c34.3,20.9,77.3,20.9,111.6,0l316.9-219.3
	c15.3-9.4,24.7-26.1,24.7-44V181.6L2.1,177.6z"/>
<linearGradient id="暗角反光_1_" gradientUnits="userSpaceOnUse" x1="1.0567" y1="1119.9875" x2="770.5018" y2="1119.9875" gradientTransform="matrix(1 0 0 1 0 -710)">
	<stop  offset="0" style="stop-color:#C3C6D2"/>
	<stop  offset="0.1409" style="stop-color:#C3C6D2;stop-opacity:0"/>
</linearGradient>
<path id="暗角反光" class="st1" d="M2.1,181.6v177.9c0,18,9.4,34.7,24.7,44l329.9,219.3c34.3,20.9,77.3,20.9,111.6,0
	l316.9-219.3c15.3-9.4,24.7-26.1,24.7-44V181.6H2.1z"/>
<g id="高光">
	
		<linearGradient id="SVGID_1_" gradientUnits="userSpaceOnUse" x1="387.05" y1="1320.9036" x2="387.05" y2="1149.7201" gradientTransform="matrix(1 0 0 1 0 -710)">
		<stop  offset="0" style="stop-color:#FFFFFF;stop-opacity:0"/>
		<stop  offset="1" style="stop-color:#FFFFFF;stop-opacity:0.3"/>
	</linearGradient>
	<path class="st2" d="M352.7,619.8l4.2,2.8c19.7,12,42.3,17.1,64.5,15.3v-274h-68.7V619.8z"/>
	
		<linearGradient id="SVGID_2_" gradientUnits="userSpaceOnUse" x1="437.3" y1="1319.6624" x2="437.3" y2="1148.8771" gradientTransform="matrix(1 0 0 1 0 -710)">
		<stop  offset="0" style="stop-color:#FFFFFF;stop-opacity:0"/>
		<stop  offset="1" style="stop-color:#FFFFFF;stop-opacity:0.3"/>
	</linearGradient>
	<path class="st3" d="M429.3,637c5.4-0.9,10.8-2.1,16-3.8v-270h-16V637z"/>
</g>
<linearGradient id="顶-背景_1_" gradientUnits="userSpaceOnUse" x1="164.1233" y1="1042.2482" x2="590.2297" y2="801.1616" gradientTransform="matrix(1 0 0 1 0 -710)">
	<stop  offset="0" style="stop-color:#DFE6EE"/>
	<stop  offset="0.5" style="stop-color:#F5F7F8"/>
	<stop  offset="0.995" style="stop-color:#ABB6C3"/>
</linearGradient>
<path id="顶-背景" class="st4" d="M793.4,215.9l-323,197.4c-35.6,21.7-80.4,21.7-116,0L13.3,204.9c-16.9-10.3-15.1-35.4,3.1-43.2
	L375.8,7.9c23.4-10,49.8-10,73.1,0l340,145.5C815.3,164.6,817.9,200.9,793.4,215.9z"/>
<g id="装饰">
	<path class="st5" d="M552,476.3l8.7-6v40l-8.7,6V476.3z M572,502.5l8.7-5.9v-40.2l-8.7,6V502.5z M592,488.8l8.7-5.9v-40.4l-8.7,6
		V488.8z M612,475l8.7-5.9v-40.6l-8.7,6V475z M632,461.4l8.7-5.9v-40.8l-8.7,6V461.4z M652,447.6l8.7-5.9v-41l-8.7,6V447.6z
		 M672,434l8.7-5.9v-41.2l-8.7,6V434z M692,420.3l8.7-5.9V373l-8.7,6V420.3z M712,406.5l8.7-5.9V359l-8.7,6V406.5z M732,351v41.7
		l8.7-5.9v-41.8L732,351z"/>
</g>
<g>
	
		<linearGradient id="面板_1_" gradientUnits="userSpaceOnUse" x1="13.695" y1="297.9874" x2="358.6949" y2="159.9874" gradientTransform="matrix(1 0 0 -1 0 642.5)">
		<stop  offset="0" style="stop-color:#3EADED"/>
		<stop  offset="1" style="stop-color:#0B528D"/>
	</linearGradient>
	<path id="面板" class="st6" d="M335.5,584.5c-5.3,0-10.5-1.7-15-4.8L46.8,401.6c-20.2-14.1-32.3-37.5-32.3-62.7v-68.2
		c0-14.8,11.7-26.9,26-26.9c4.7,0,9.3,1.4,13.4,3.9l279,172c18.3,11.5,29.7,32.4,29.7,54.6v82.1
		C362.7,573.8,348.6,584.5,335.5,584.5z"/>
	<path id="边" class="st7" d="M40.6,244.9c4.5,0,8.9,1.3,12.9,3.8l278.9,172c8.9,5.6,16.3,13.5,21.4,22.9s7.8,20.1,7.8,30.8v82.1
		c0,7.5-2.8,14.4-8,19.5c-4.9,4.8-11.5,7.6-18.2,7.6c-5.1,0-10.1-1.6-14.5-4.7L47.4,400.8c-20-13.9-31.9-37-31.9-61.9v-68.1
		C15.5,256.5,26.8,244.9,40.6,244.9L40.6,244.9 M40.6,242.9c-14.1,0-27,11.6-27,27.9V339c0,25.5,12.3,49.3,32.7,63.5l273.6,178.1
		c4.9,3.4,10.3,5,15.6,5c14.6,0,28.2-12,28.2-29.1v-82.1c0-22.7-11.5-43.7-30.2-55.4L54.6,247C50,244.1,45.2,242.9,40.6,242.9
		L40.6,242.9z"/>
</g>
<g>
	<g>
		<g>
			<polygon class="st8" points="301.7,449.9 301.7,439 281.4,425.3 281.4,436.1 275.2,432 275.2,462 307.9,484 307.9,454 			"/>
			<g>
				<polygon class="st9" points="286.7,469.8 288,470.6 288,451.6 286.7,450.8 				"/>
				<polygon class="st9" points="282.5,467 283.8,467.9 283.8,448.8 282.5,447.9 				"/>
				<polygon class="st9" points="290.9,472.5 292.2,473.5 292.2,454.5 290.9,453.5 				"/>
				<polygon class="st9" points="295.1,475.4 296.4,476.4 296.4,457.3 295.1,456.4 				"/>
				<polygon class="st9" points="299.3,459.1 299.3,478.3 300.6,479.1 300.6,460 				"/>
			</g>
		</g>
		<g>
			<polygon class="st8" points="301.7,533.8 301.7,544.5 281.4,531 281.4,520.2 275.2,516 275.2,486 307.9,507.9 307.9,537.8 			"/>
			<g>
				<polygon class="st9" points="286.7,493.6 288,494.5 288,513.5 286.7,512.7 				"/>
				<polygon class="st9" points="282.5,490.9 283.8,491.8 283.8,510.8 282.5,509.8 				"/>
				<polygon class="st9" points="290.9,496.5 292.2,497.4 292.2,516.3 290.9,515.5 				"/>
				<polygon class="st9" points="295.1,499.3 296.4,500.1 296.4,519.2 295.1,518.3 				"/>
				<polygon class="st9" points="299.3,521 299.3,502 300.6,503 300.6,522 				"/>
			</g>
		</g>
		<g>
			<polygon class="st8" points="247.8,413.5 247.8,402.6 227.5,389 227.5,399.9 221.3,395.6 221.3,426 254,447.9 254,417.6 			"/>
			<g>
				<polygon class="st9" points="232.8,433.5 234.1,434.5 234.1,415.4 232.8,414.5 				"/>
				<polygon class="st9" points="228.6,430.8 229.9,431.6 229.9,412.5 228.6,411.6 				"/>
				<polygon class="st9" points="237,436.5 238.3,437.4 238.3,418.1 237,417.3 				"/>
				<polygon class="st9" points="241.2,439.3 242.5,440.1 242.5,421 241.2,420.1 				"/>
				<polygon class="st9" points="245.4,423 245.4,442 246.7,443 246.7,423.9 				"/>
			</g>
		</g>
		<g>
			<polygon class="st8" points="247.8,497.8 247.8,508.7 227.5,495.1 227.5,484.3 221.3,480 221.3,449.9 254,471.8 254,501.9 			"/>
			<g>
				<polygon class="st9" points="232.8,457.5 234.1,458.5 234.1,477.5 232.8,476.6 				"/>
				<polygon class="st9" points="228.6,454.8 229.9,455.6 229.9,474.8 228.6,473.9 				"/>
				<polygon class="st9" points="237,460.4 238.3,461.3 238.3,480.4 237,479.5 				"/>
				<polygon class="st9" points="241.2,463.1 242.5,464 242.5,483.1 241.2,482.3 				"/>
				<polygon class="st9" points="245.4,485 245.4,466 246.7,466.9 246.7,486 				"/>
			</g>
		</g>
		<g>
			<polygon class="st8" points="193.9,377.3 193.9,366.4 173.5,352.6 173.5,363.5 167.4,359.5 167.4,389.8 200.1,411.6 200.1,381.5 
							"/>
			<g>
				<polygon class="st9" points="178.8,397.5 180.2,398.4 180.2,379.1 178.8,378.3 				"/>
				<polygon class="st9" points="174.6,394.6 176,395.5 176,376.4 174.6,375.4 				"/>
				<polygon class="st9" points="183,400.3 184.4,401.1 184.4,382 183,381 				"/>
				<polygon class="st9" points="187.2,403 188.6,404 188.6,384.8 187.2,383.9 				"/>
				<polygon class="st9" points="191.4,386.6 191.4,405.9 192.8,406.8 192.8,387.5 				"/>
			</g>
		</g>
		<g>
			<polygon class="st8" points="193.9,461.9 193.9,472.8 173.5,459.3 173.5,448.3 167.4,444.1 167.4,413.8 200.1,435.6 200.1,466 
							"/>
			<g>
				<polygon class="st9" points="178.8,421.5 180.2,422.4 180.2,441.5 178.8,440.6 				"/>
				<polygon class="st9" points="174.6,418.6 176,419.5 176,438.8 174.6,437.9 				"/>
				<polygon class="st9" points="183,424.3 184.4,425.1 184.4,444.4 183,443.5 				"/>
				<polygon class="st9" points="187.2,427 188.6,428 188.6,447.1 187.2,446.3 				"/>
				<polygon class="st9" points="191.4,449 191.4,430 192.8,430.9 192.8,450 				"/>
			</g>
		</g>
		<g>
			<polygon class="st8" points="139.9,341 139.9,330 119.6,316.3 119.6,327.3 113.4,323.1 113.4,353.5 146.1,375.5 146.1,345.1 			
				"/>
			<g>
				<polygon class="st9" points="124.9,361.3 126.2,362.1 126.2,342.9 124.9,342 				"/>
				<polygon class="st9" points="120.7,358.5 122,359.4 122,340 120.7,339.1 				"/>
				<polygon class="st9" points="129.1,364 130.5,365 130.5,345.8 129.1,344.9 				"/>
				<polygon class="st9" points="133.3,366.9 134.7,367.8 134.7,348.5 133.3,347.6 				"/>
				<polygon class="st9" points="137.5,350.5 137.5,369.8 138.9,370.6 138.9,351.4 				"/>
			</g>
		</g>
		<g>
			<polygon class="st8" points="139.9,425.9 139.9,436.9 119.6,423.3 119.6,412.3 113.4,408.1 113.4,377.8 146.1,399.5 146.1,430 
							"/>
			<g>
				<polygon class="st9" points="124.9,385.4 126.2,386.3 126.2,405.5 124.9,404.6 				"/>
				<polygon class="st9" points="120.7,382.5 122,383.5 122,402.8 120.7,401.9 				"/>
				<polygon class="st9" points="129.1,388.3 130.5,389.1 130.5,408.4 129.1,407.5 				"/>
				<polygon class="st9" points="133.3,391 134.7,392 134.7,411.1 133.3,410.3 				"/>
				<polygon class="st9" points="137.5,413 137.5,393.9 138.9,394.8 138.9,414 				"/>
			</g>
		</g>
		<g>
			<polygon class="st8" points="86,304.6 86,293.6 65.7,280 65.7,291 59.5,286.9 59.5,317.4 92.2,339.4 92.2,308.9 			"/>
			<g>
				<polygon class="st9" points="71,325 72.3,326 72.3,306.6 71,305.8 				"/>
				<polygon class="st9" points="66.8,322.3 68.1,323.1 68.1,303.9 66.8,303 				"/>
				<polygon class="st9" points="75.2,328 76.5,328.9 76.5,309.5 75.2,308.5 				"/>
				<polygon class="st9" points="79.4,330.8 80.7,331.6 80.7,312.3 79.4,311.4 				"/>
				<polygon class="st9" points="83.6,314.3 83.6,333.5 84.9,334.5 84.9,315.1 				"/>
			</g>
		</g>
		<g>
			<polygon class="st8" points="86,389.9 86,401 65.7,387.4 65.7,376.4 59.5,372.3 59.5,341.6 92.2,363.5 92.2,394 			"/>
			<g>
				<polygon class="st9" points="71,349.4 72.3,350.3 72.3,369.5 71,368.6 				"/>
				<polygon class="st9" points="66.8,346.5 68.1,347.5 68.1,366.8 66.8,365.9 				"/>
				<polygon class="st9" points="75.2,352.1 76.5,353 76.5,372.4 75.2,371.5 				"/>
				<polygon class="st9" points="79.4,355 80.7,355.9 80.7,375.1 79.4,374.3 				"/>
				<polygon class="st9" points="83.6,377 83.6,357.8 84.9,358.6 84.9,378 				"/>
			</g>
		</g>
	</g>
</g>
<linearGradient id="高光_1_" gradientUnits="userSpaceOnUse" x1="58.1" y1="808.4879" x2="58.1" y2="656.2159" gradientTransform="matrix(1 0 0 1 0 -426)">
	<stop  offset="0" style="stop-color:#FFFFFF;stop-opacity:0"/>
	<stop  offset="1" style="stop-color:#FFFFFF;stop-opacity:0.5"/>
</linearGradient>
<polygon id="高光_2_" class="st10" points="76.5,398 39.8,398 39.7,221.9 76.5,243.4 "/>
</svg>
