<?xml version="1.0" encoding="utf-8"?>
<!-- Generator: Adobe Illustrator 21.0.0, SVG Export Plug-In . SVG Version: 6.00 Build 0)  -->
<svg version="1.1" id="图层_1" xmlns="http://www.w3.org/2000/svg" xmlns:xlink="http://www.w3.org/1999/xlink" x="0px" y="0px"
	 viewBox="0 0 809 745" style="enable-background:new 0 0 809 745;" xml:space="preserve">
<style type="text/css">
	.st0{fill:#90908E;}
	.st1{fill:url(#SVGID_1_);}
	.st2{opacity:0.26;fill:#FFFFFF;enable-background:new    ;}
	.st3{fill:url(#SVGID_2_);}
	.st4{fill:url(#SVGID_3_);}
	.st5{fill:url(#SVGID_4_);}
	.st6{fill:url(#SVGID_5_);}
	.st7{fill:#264351;}
	.st8{fill:#FFFFFF;}
	.st9{opacity:0.17;fill:#FFFFFF;enable-background:new    ;}
	.st10{opacity:0.68;fill:#384951;enable-background:new    ;}
	.st11{fill:url(#SVGID_6_);}
	.st12{opacity:0.83;fill:#FFFFFF;enable-background:new    ;}
	.st13{fill:url(#SVGID_7_);}
	.st14{fill:url(#SVGID_8_);}
	.st15{fill:#D99C70;}
	.st16{fill:url(#SVGID_9_);}
	.st17{fill:#1C1A19;}
	.st18{fill:url(#SVGID_10_);}
	.st19{fill:#F4B78E;}
	.st20{fill:url(#SVGID_11_);}
	.st21{fill:url(#SVGID_12_);}
	.st22{fill:url(#SVGID_13_);}
	.st23{opacity:0.54;}
	.st24{opacity:0.32;fill:#E3442F;enable-background:new    ;}
	.st25{fill:none;stroke:#264351;stroke-width:8;stroke-miterlimit:10;}
</style>
<g>
	<g>
		<rect x="195.2" y="726" class="st0" width="442.7" height="5.5"/>
		
			<linearGradient id="SVGID_1_" gradientUnits="userSpaceOnUse" x1="195.1192" y1="569.1704" x2="638.5919" y2="569.1704" gradientTransform="matrix(1 0 0 1 0 104)">
			<stop  offset="0" style="stop-color:#D1D8E1"/>
			<stop  offset="0.995" style="stop-color:#4F5C62"/>
		</linearGradient>
		<path class="st1" d="M232.1,621.9c0,0-45.3,30.8-35.6,106.9h442.1c0,0,1.6-97.2-34-106.9C568.9,612.2,232.1,621.9,232.1,621.9z"/>
		<path class="st2" d="M195.4,718c0,0.2,0,0.5,0,0.7l5.3,4.2l110.4-102.6l-6-0.2c-8.8,0.2-17.1,0.4-24.6,0.6L195.4,718z"/>
		
			<linearGradient id="SVGID_2_" gradientUnits="userSpaceOnUse" x1="407.131" y1="458.1759" x2="407.131" y2="550.976" gradientTransform="matrix(1 0 0 1 0 104)">
			<stop  offset="0" style="stop-color:#D1D8E1"/>
			<stop  offset="0.995" style="stop-color:#4F5C62"/>
		</linearGradient>
		<polygon class="st3" points="254.8,562.2 305.9,655 505.3,655 559.5,562.2 		"/>
		
			<linearGradient id="SVGID_3_" gradientUnits="userSpaceOnUse" x1="405.581" y1="-87.8241" x2="405.581" y2="485.576" gradientTransform="matrix(1 0 0 1 0 104)">
			<stop  offset="0" style="stop-color:#D7DDE6"/>
			<stop  offset="0.995" style="stop-color:#7E8EA0"/>
		</linearGradient>
		<path class="st4" d="M753.9,589.6H57.3c-22,0-39.8-17.8-39.8-39.8V56c0-22,17.8-39.8,39.8-39.8h696.6c22,0,39.8,17.8,39.8,39.8
			v493.8C793.7,571.7,775.9,589.6,753.9,589.6z"/>
		
			<radialGradient id="SVGID_4_" cx="405.5811" cy="473.3996" r="319.6137" gradientTransform="matrix(1 0 0 0.9154 0 -135.5741)" gradientUnits="userSpaceOnUse">
			<stop  offset="0.2797" style="stop-color:#384951"/>
			<stop  offset="1" style="stop-color:#ADB8C5"/>
		</radialGradient>
		<path class="st5" d="M722.1,552.4h-633c-22,0-39.8-17.8-39.8-39.8V83c0-22,17.8-39.8,39.8-39.8h633c22,0,39.8,17.8,39.8,39.8
			v429.6C761.9,534.6,744,552.4,722.1,552.4z"/>
		<g>
			
				<linearGradient id="SVGID_5_" gradientUnits="userSpaceOnUse" x1="405.8311" y1="-44.8241" x2="405.8311" y2="431.8759" gradientTransform="matrix(1 0 0 1 0 104)">
				<stop  offset="0" style="stop-color:#3EADED"/>
				<stop  offset="1" style="stop-color:#0B528D"/>
			</linearGradient>
			<path class="st6" d="M87.1,535.9c-9,0-16.3-7.3-16.3-16.3V75.5c0-9,7.3-16.3,16.3-16.3h637.5c9,0,16.3,7.3,16.3,16.3v444.1
				c0,9-7.3,16.3-16.3,16.3H87.1z"/>
			<path class="st7" d="M724.6,63.3c6.8,0,12.3,5.5,12.3,12.3v444.1c0,6.8-5.5,12.3-12.3,12.3H87.1c-6.8,0-12.3-5.5-12.3-12.3V75.6
				c0-6.8,5.5-12.3,12.3-12.3H724.6 M724.6,55.3H87.1c-11.2,0-20.3,9.1-20.3,20.3v444.1c0,11.2,9.1,20.3,20.3,20.3h637.5
				c11.2,0,20.3-9.1,20.3-20.3V75.6C744.9,64.4,735.8,55.3,724.6,55.3L724.6,55.3z"/>
		</g>
		<path class="st8" d="M27,52.4l-0.2,511.1L43.3,54.3C43.6,45.2,51,38,60.1,38h696.8c7.4,0,16.3,5.8,16.5,13.2l7.4,482.2l2.7-494.1
			c0,0-5.4-12.8-18.2-13.2c-20-0.7-719.1,0-719.1,0s-10.7-0.6-16.8,8.7C25.8,40.3,27,52.4,27,52.4z"/>
		<path class="st9" d="M89.3,540.1h79.8c51.1-50.3,320-304.1,575.6-330.4V76.3c0-11.5-10.2-20.8-22.8-20.8H89.3
			c-12.6,0-22.8,9.3-22.8,20.8v442.9C66.5,530.8,76.7,540.1,89.3,540.1z"/>
		<g>
			<path class="st10" d="M425.4,590.1h-39.5c-11.9,0-21.6-9.7-21.6-21.6v-5.9c0-11.9,9.7-21.6,21.6-21.6h39.5
				c11.9,0,21.6,9.7,21.6,21.6v5.9C447,580.4,437.3,590.1,425.4,590.1z"/>
			
				<linearGradient id="SVGID_6_" gradientUnits="userSpaceOnUse" x1="407.1309" y1="444.7339" x2="407.1309" y2="477.6602" gradientTransform="matrix(1 0 0 1 0 104)">
				<stop  offset="0" style="stop-color:#D1D8E1"/>
				<stop  offset="0.995" style="stop-color:#9CA8B7"/>
			</linearGradient>
			<path class="st11" d="M428.6,581.7h-42.9c-8,0-14.5-6.5-14.5-14.5v-4c0-8,6.5-14.5,14.5-14.5h42.9c8,0,14.5,6.5,14.5,14.5v4
				C443.1,575.2,436.6,581.7,428.6,581.7z"/>
			<path class="st12" d="M387.7,554.6h39c8.1,0,14.8,5.8,16.2,13.5c0.2-1,0.3-1.9,0.3-2.9c0-9.1-7.4-16.5-16.5-16.5h-39
				c-9.1,0-16.5,7.4-16.5,16.5c0,1,0.1,2,0.3,2.9C372.9,560.5,379.6,554.6,387.7,554.6z"/>
		</g>
		<path class="st2" d="M270.5,620.9c-7.7,0.2-14.5,0.4-20.1,0.5c-11.2,8.2-31,24.3-49,46c-2.7,8.1-4.7,17.4-5.7,27.9
			C208.1,679.3,244.3,634.9,270.5,620.9z"/>
		
			<linearGradient id="SVGID_7_" gradientUnits="userSpaceOnUse" x1="195.1159" y1="610.926" x2="638.592" y2="610.926" gradientTransform="matrix(1 0 0 1 0 104)">
			<stop  offset="0" style="stop-color:#DEE3EA"/>
			<stop  offset="0.995" style="stop-color:#7E8EA0"/>
		</linearGradient>
		<path class="st13" d="M196.5,728.8h442.1c0,0,0.2-11.9-1.1-27.7H195.3C194.9,709.5,195.2,718.8,196.5,728.8z"/>
		
			<linearGradient id="SVGID_8_" gradientUnits="userSpaceOnUse" x1="195.1809" y1="600.126" x2="637.8809" y2="600.126" gradientTransform="matrix(1 0 0 1 0 104)">
			<stop  offset="0.3119" style="stop-color:#FFFFFF"/>
			<stop  offset="0.995" style="stop-color:#768188"/>
		</linearGradient>
		<rect x="195.2" y="701.4" class="st14" width="442.7" height="5.5"/>
	</g>
	<path class="st15" d="M478.8,269.6H342.2c-10.2,0-18.5-8.3-18.5-18.5v-3.7c0-10.2,8.3-18.5,18.5-18.5h136.6
		c10.2,0,18.5,8.3,18.5,18.5v3.7C497.3,261.3,489,269.6,478.8,269.6z"/>
	
		<linearGradient id="SVGID_9_" gradientUnits="userSpaceOnUse" x1="407.809" y1="395.7319" x2="407.809" y2="179.6761" gradientTransform="matrix(1 0 0 1 0 104)">
		<stop  offset="0" style="stop-color:#5F6160"/>
		<stop  offset="0.995" style="stop-color:#070707"/>
	</linearGradient>
	<path class="st16" d="M491.7,342.4l10.9-57.5l-95.3-1.2v0.6l-94.4,1.2l10.9,57.5c-47.7,47.4-31.1,136.2-31.1,136.2
		s46.4,21.8,115.6,20.5v-0.6c68.7,1,114.7-20.6,114.7-20.6S539.5,389.9,491.7,342.4z"/>
	<polygon class="st17" points="362.3,324.2 408.2,499.2 455.6,324.2 	"/>
	
		<linearGradient id="SVGID_10_" gradientUnits="userSpaceOnUse" x1="407.2018" y1="243.6759" x2="407.2018" y2="78.8759" gradientTransform="matrix(1 0 0 1 0 104)">
		<stop  offset="0" style="stop-color:#EFC8A9"/>
		<stop  offset="0.995" style="stop-color:#FFAC6A"/>
	</linearGradient>
	<path class="st18" d="M476.5,265.3c0,45.5-31.1,82.4-69.4,82.4c-38.3,0-69.4-36.9-69.4-82.4s-0.8-82.4,69.4-82.4
		C484.6,182.9,476.5,219.8,476.5,265.3z"/>
	<path class="st19" d="M407.7,182.9v164.7c38-0.4,68.8-37.1,68.8-82.4C476.5,219.9,484.5,183.1,407.7,182.9z"/>
	<ellipse class="st15" cx="407.6" cy="237.6" rx="69.2" ry="17.7"/>
	
		<linearGradient id="SVGID_11_" gradientUnits="userSpaceOnUse" x1="261.3809" y1="92.576" x2="552.7809" y2="92.576" gradientTransform="matrix(1 0 0 1 0 104)">
		<stop  offset="0" style="stop-color:#5F6160"/>
		<stop  offset="0.995" style="stop-color:#070707"/>
	</linearGradient>
	<ellipse class="st20" cx="407.1" cy="196.6" rx="145.7" ry="45.6"/>
	
		<linearGradient id="SVGID_12_" gradientUnits="userSpaceOnUse" x1="407.1809" y1="21.6759" x2="407.1809" y2="88.7759" gradientTransform="matrix(1 0 0 1 0 104)">
		<stop  offset="0" style="stop-color:#5F6160"/>
		<stop  offset="0.995" style="stop-color:#070707"/>
	</linearGradient>
	<path class="st21" d="M337,125.7v56.2c0,6,31.4,10.9,70.2,10.9s70.2-4.9,70.2-10.9v-56.2H337z"/>
	
		<linearGradient id="SVGID_13_" gradientUnits="userSpaceOnUse" x1="407.0809" y1="32.576" x2="407.0809" y2="10.8716" gradientTransform="matrix(1 0 0 1 0 104)">
		<stop  offset="0" style="stop-color:#5F6160"/>
		<stop  offset="0.995" style="stop-color:#070707"/>
	</linearGradient>
	<ellipse class="st22" cx="407.1" cy="125.7" rx="70.2" ry="10.9"/>
	<g class="st23">
		<g>
			<rect x="143.6" y="109.3" class="st24" width="528.2" height="10.8"/>
			<rect x="143.6" y="129.7" class="st24" width="528.2" height="10.8"/>
			<rect x="143.6" y="150" class="st24" width="528.2" height="10.8"/>
			<rect x="143.6" y="170.4" class="st24" width="528.2" height="10.8"/>
			<rect x="143.6" y="191.4" class="st24" width="528.2" height="10.8"/>
			<rect x="143.6" y="211.8" class="st24" width="528.2" height="10.8"/>
			<rect x="143.6" y="232.2" class="st24" width="528.2" height="10.8"/>
			<rect x="143.6" y="252.5" class="st24" width="528.2" height="10.8"/>
			<rect x="143.6" y="272.6" class="st24" width="528.2" height="10.8"/>
			<rect x="143.6" y="293" class="st24" width="528.2" height="10.8"/>
			<rect x="143.6" y="313.4" class="st24" width="528.2" height="10.8"/>
			<rect x="143.6" y="333.8" class="st24" width="528.2" height="10.8"/>
			<rect x="143.6" y="354.1" class="st24" width="528.2" height="10.8"/>
			<rect x="143.6" y="374.5" class="st24" width="528.2" height="10.8"/>
			<rect x="143.6" y="394.6" class="st24" width="528.2" height="10.8"/>
			<rect x="143.6" y="415" class="st24" width="528.2" height="10.8"/>
			<rect x="143.6" y="435.4" class="st24" width="528.2" height="10.8"/>
			<rect x="143.6" y="455.8" class="st24" width="528.2" height="10.8"/>
			<rect x="143.6" y="477.7" class="st24" width="528.2" height="10.8"/>
		</g>
	</g>
	<polyline class="st25" points="671.5,181.2 671.5,109.3 601.2,109.3 	"/>
	<g>
		<polyline class="st25" points="140.2,181.2 140.2,109.3 210.5,109.3 		"/>
		<polyline class="st25" points="140.2,416.9 140.2,488.9 210.5,488.9 		"/>
		<polyline class="st25" points="671,416.9 671,488.9 600.7,488.9 		"/>
	</g>
</g>
</svg>
