<?xml version="1.0" encoding="utf-8"?>
<!-- Generator: Adobe Illustrator 21.1.0, SVG Export Plug-In . SVG Version: 6.00 Build 0)  -->
<!DOCTYPE svg PUBLIC "-//W3C//DTD SVG 1.1//EN" "http://www.w3.org/Graphics/SVG/1.1/DTD/svg11.dtd">
<svg version="1.1" id="三层交换机" xmlns="http://www.w3.org/2000/svg" xmlns:xlink="http://www.w3.org/1999/xlink" x="0px"
	 y="0px" viewBox="0 0 850.5 937.6" style="enable-background:new 0 0 850.5 937.6;" xml:space="preserve">
<style type="text/css">
	.st0{fill:url(#底部_1_);}
	.st1{fill:url(#暗角反光_1_);}
	.st2{fill:url(#SVGID_1_);}
	.st3{fill:url(#SVGID_2_);}
	.st4{fill:url(#顶-背景_1_);}
	.st5{fill:#043977;}
	.st6{fill:url(#面板_1_);}
	.st7{fill:#073A76;}
	.st8{fill:#FFFFFF;}
	.st9{fill:url(#SVGID_3_);}
	.st10{fill:url(#SVGID_4_);}
	.st11{fill:url(#SVGID_5_);}
	.st12{fill:url(#SVGID_6_);}
	.st13{fill:url(#SVGID_7_);}
	.st14{fill:url(#SVGID_8_);}
	.st15{fill:url(#SVGID_9_);}
	.st16{fill:url(#SVGID_10_);}
	.st17{fill:url(#SVGID_11_);}
	.st18{fill:url(#SVGID_12_);}
	.st19{fill:url(#SVGID_13_);}
	.st20{fill:url(#SVGID_14_);}
	.st21{fill:url(#SVGID_15_);}
	.st22{fill:url(#SVGID_16_);}
	.st23{fill:url(#SVGID_17_);}
	.st24{fill:url(#SVGID_18_);}
	.st25{fill:url(#SVGID_19_);}
	.st26{fill:url(#SVGID_20_);}
	.st27{fill:url(#SVGID_21_);}
	.st28{fill:url(#SVGID_22_);}
	.st29{fill:url(#SVGID_23_);}
	.st30{fill:url(#SVGID_24_);}
	.st31{fill:url(#SVGID_25_);}
	.st32{fill:url(#SVGID_26_);}
	.st33{fill:url(#高光_1_);}
</style>
<linearGradient id="底部_1_" gradientUnits="userSpaceOnUse" x1="70.6949" y1="708.1625" x2="785.1385" y2="708.1625" gradientTransform="matrix(1 0 0 -1 0 1256)">
	<stop  offset="0" style="stop-color:#E7EFF5"/>
	<stop  offset="0.2574" style="stop-color:#C3C5D2"/>
	<stop  offset="0.3352" style="stop-color:#C6C8D5"/>
	<stop  offset="0.3997" style="stop-color:#CED3DD"/>
	<stop  offset="0.4592" style="stop-color:#DDE4EC"/>
	<stop  offset="0.4655" style="stop-color:#DFE6EE"/>
	<stop  offset="0.5693" style="stop-color:#98A5B5"/>
	<stop  offset="0.995" style="stop-color:#7E8EA0"/>
</linearGradient>
<path id="底部" class="st0" d="M23.7,177.4v461.9c0,18,9.4,34.7,24.7,44l329.9,219.3c34.3,20.9,77.3,20.9,111.6,0l316.9-219.3
	c15.3-9.4,24.7-26.1,24.7-44V181.4L23.7,177.4z"/>
<linearGradient id="暗角反光_1_" gradientUnits="userSpaceOnUse" x1="22.6949" y1="706.1625" x2="792.14" y2="706.1625" gradientTransform="matrix(1 0 0 -1 0 1256)">
	<stop  offset="0" style="stop-color:#C3C6D2"/>
	<stop  offset="0.1409" style="stop-color:#C3C6D2;stop-opacity:0"/>
</linearGradient>
<path id="暗角反光" class="st1" d="M23.7,181.4v457.9c0,18,9.4,34.7,24.7,44l329.9,219.3c34.3,20.9,77.3,20.9,111.6,0
	l316.9-219.3c15.3-9.4,24.7-26.1,24.7-44V181.4H23.7z"/>
<g id="高光">
	
		<linearGradient id="SVGID_1_" gradientUnits="userSpaceOnUse" x1="408.7382" y1="389.2596" x2="408.7382" y2="710.1524" gradientTransform="matrix(1 0 0 -1 0 1256)">
		<stop  offset="0" style="stop-color:#FFFFFF;stop-opacity:0"/>
		<stop  offset="1" style="stop-color:#FFFFFF;stop-opacity:0.3"/>
	</linearGradient>
	<path class="st2" d="M374.4,899.7l4.2,2.8c19.7,12,42.3,17.1,64.5,15.3v-514h-68.7V899.7z"/>
	
		<linearGradient id="SVGID_2_" gradientUnits="userSpaceOnUse" x1="458.8882" y1="390.5007" x2="458.8882" y2="710.9953" gradientTransform="matrix(1 0 0 -1 0 1256)">
		<stop  offset="0" style="stop-color:#FFFFFF;stop-opacity:0"/>
		<stop  offset="1" style="stop-color:#FFFFFF;stop-opacity:0.3"/>
	</linearGradient>
	<path class="st3" d="M450.9,916.9c5.4-0.9,10.8-2.1,16-3.8v-510h-16V916.9z"/>
</g>
<linearGradient id="顶-背景_1_" gradientUnits="userSpaceOnUse" x1="185.7819" y1="923.885" x2="611.8882" y2="1164.9717" gradientTransform="matrix(1 0 0 -1 0 1256)">
	<stop  offset="0" style="stop-color:#DFE6EE"/>
	<stop  offset="0.5" style="stop-color:#F5F7F8"/>
	<stop  offset="0.995" style="stop-color:#ABB6C3"/>
</linearGradient>
<path id="顶-背景" class="st4" d="M815.1,215.7l-323,197.4c-35.6,21.7-80.4,21.7-116,0L35,204.7c-16.9-10.3-15.1-35.4,3.1-43.2
	L397.4,7.7c23.4-10,49.8-10,73.1,0l340,145.5C836.9,164.5,839.6,200.8,815.1,215.7z"/>
<g id="装饰">
	<path class="st5" d="M573.7,756.1l8.7-6v40l-8.7,6V756.1z M593.7,782.3l8.7-5.9v-40.2l-8.7,6V782.3z M613.7,768.6l8.7-5.9v-40.4
		l-8.7,6V768.6z M633.7,754.9l8.7-5.9v-40.6l-8.7,6V754.9z M653.7,741.2l8.7-5.9v-40.8l-8.7,6V741.2z M673.7,727.5l8.7-5.9v-41
		l-8.7,6V727.5z M693.7,713.8l8.7-5.9v-41.2l-8.7,6V713.8z M713.7,700.1l8.7-5.9v-41.4l-8.7,6V700.1z M733.7,686.3l8.7-5.9v-41.6
		l-8.7,6V686.3z M753.7,630.9v41.7l8.7-5.9v-41.8L753.7,630.9z"/>
</g>
<g>
	
		<linearGradient id="面板_1_" gradientUnits="userSpaceOnUse" x1="46.0882" y1="691.95" x2="385.1903" y2="691.95" gradientTransform="matrix(1 0 0 -1 0 1256)">
		<stop  offset="0" style="stop-color:#3EADED"/>
		<stop  offset="1" style="stop-color:#0B528D"/>
	</linearGradient>
	<path id="面板" class="st6" d="M358.2,861.4c-5.3,0-10.5-1.7-15-4.8L78.4,677.5c-20.2-14.1-32.3-37.5-32.3-62.7V293.6
		c0-14.8,11.7-26.9,26-26.9c4.7,0,9.3,1.4,13.4,3.9l270,164c18.3,11.5,29.7,32.4,29.7,54.6v344.1
		C385.4,850.7,371.3,861.4,358.2,861.4z"/>
	<path id="边" class="st7" d="M72.2,267.7c4.5,0,8.9,1.3,12.9,3.8l269.9,164c8.9,5.6,16.3,13.5,21.4,22.9s7.8,20.1,7.8,30.8v344.1
		c0,7.5-2.8,14.4-8,19.5c-4.9,4.8-11.5,7.6-18.2,7.6c-5.1,0-10.1-1.6-14.5-4.7L79.1,676.6c-20-13.9-31.9-37-31.9-61.9V293.6
		C47.2,279.3,58.4,267.7,72.2,267.7L72.2,267.7 M72.2,265.7c-14.1,0-27,11.6-27,27.9v321.2c0,25.5,12.3,49.3,32.7,63.5l264.6,179.1
		c4.9,3.4,10.3,5,15.6,5c14.6,0,28.2-12,28.2-29.1V489.2c0-22.7-11.5-43.7-30.2-55.4l-269.9-164C81.7,267,76.9,265.7,72.2,265.7
		L72.2,265.7z"/>
</g>
<g id="图形">
	<g>
		<g>
			<g>
				<g id="箭头_79_">
					<g>
						<g>
							<polygon class="st8" points="108.6,455.5 55.9,460.1 108.2,530.9 108.2,510.6 135.2,527.7 127.3,505.3 135.3,493 
								108.5,475.9 							"/>
							<polygon class="st8" points="140.5,531 149.2,536.5 141.3,514.1 149.2,501.8 140.7,496.3 132.7,508.6 							"/>
							<polygon class="st8" points="154.3,539.8 163,545.3 155.3,523 163.3,510.6 154.5,505.1 146.6,517.5 							"/>
						</g>
						<g>
							
								<linearGradient id="SVGID_3_" gradientUnits="userSpaceOnUse" x1="711.8227" y1="482.3404" x2="711.8227" y2="530.5948" gradientTransform="matrix(6.123234e-17 -1 -1 -6.123234e-17 643.2397 1205.0227)">
								<stop  offset="0" style="stop-color:#FFFFFF"/>
								<stop  offset="0.995" style="stop-color:#EBF3F9"/>
							</linearGradient>
							<polygon class="st9" points="108.6,455.5 108.2,530.9 108.2,510.6 135.2,527.7 127.3,505.3 135.3,493 108.5,475.9 							"/>
							
								<linearGradient id="SVGID_4_" gradientUnits="userSpaceOnUse" x1="688.6227" y1="487.8893" x2="688.6227" y2="525.8183" gradientTransform="matrix(6.123234e-17 -1 -1 -6.123234e-17 643.2397 1205.0227)">
								<stop  offset="0" style="stop-color:#FFFFFF"/>
								<stop  offset="0.995" style="stop-color:#EBF3F9"/>
							</linearGradient>
							<polygon class="st10" points="140.5,531 149.2,536.5 141.3,514.1 149.2,501.8 140.7,496.3 132.7,508.6 							"/>
							
								<linearGradient id="SVGID_5_" gradientUnits="userSpaceOnUse" x1="679.8227" y1="487.9687" x2="679.8227" y2="525.8845" gradientTransform="matrix(6.123234e-17 -1 -1 -6.123234e-17 643.2397 1205.0227)">
								<stop  offset="0" style="stop-color:#FFFFFF"/>
								<stop  offset="0.995" style="stop-color:#EBF3F9"/>
							</linearGradient>
							<polygon class="st11" points="154.3,539.8 163,545.3 155.3,523 163.3,510.6 154.5,505.1 146.6,517.5 							"/>
						</g>
					</g>
				</g>
			</g>
			<g>
				<g id="箭头_78_">
					<g>
						<g>
							<polygon class="st8" points="314.2,586.2 366.4,656.9 314,661.2 314,641 287.2,623.9 295,611.6 287.3,589.3 314.2,606.4 
															"/>
							<polygon class="st8" points="281.9,620.6 273.3,615.1 281.2,602.8 273.3,580.5 281.9,586 289.9,608.3 							"/>
							<polygon class="st8" points="268,611.8 259.3,606.3 267.3,594 259.3,571.7 268,577.2 275.8,599.5 							"/>
						</g>
						<g>
							
								<linearGradient id="SVGID_6_" gradientUnits="userSpaceOnUse" x1="581.3227" y1="958.4159" x2="581.3227" y2="1006.2272" gradientTransform="matrix(4.489653e-11 -1 1 4.489653e-11 -696.5806 1205.0227)">
								<stop  offset="0" style="stop-color:#FFFFFF"/>
								<stop  offset="0.995" style="stop-color:#EBF3F9"/>
							</linearGradient>
							<polygon class="st12" points="314.2,586.2 314,661.2 314,641 287.2,623.9 295,611.6 287.3,589.3 314.2,606.4 							"/>
							
								<linearGradient id="SVGID_7_" gradientUnits="userSpaceOnUse" x1="604.4727" y1="963.7376" x2="604.4727" y2="1001.5484" gradientTransform="matrix(4.489653e-11 -1 1 4.489653e-11 -696.5806 1205.0227)">
								<stop  offset="0" style="stop-color:#FFFFFF"/>
								<stop  offset="0.995" style="stop-color:#EBF3F9"/>
							</linearGradient>
							<polygon class="st13" points="281.9,620.6 273.3,615.1 281.2,602.8 273.3,580.5 281.9,586 289.9,608.3 							"/>
							
								<linearGradient id="SVGID_8_" gradientUnits="userSpaceOnUse" x1="613.2727" y1="963.7673" x2="613.2727" y2="1001.5914" gradientTransform="matrix(4.489653e-11 -1 1 4.489653e-11 -696.5806 1205.0227)">
								<stop  offset="0" style="stop-color:#FFFFFF"/>
								<stop  offset="0.995" style="stop-color:#EBF3F9"/>
							</linearGradient>
							<polygon class="st14" points="268,611.8 259.3,606.3 267.3,594 259.3,571.7 268,577.2 275.8,599.5 							"/>
						</g>
					</g>
				</g>
			</g>
		</g>
		<g>
			<g>
				<g id="箭头_77_">
					<g>
						<g>
							<polygon class="st8" points="114.7,553.7 100.7,613.9 161.3,636.6 148.7,614.2 168,604.6 151.5,588.3 146.5,566.4 
								127.2,576.1 							"/>
							<polygon class="st8" points="171.7,602.7 177.8,599.6 161.5,583.4 156.3,561.5 150.3,564.6 155.3,586.5 							"/>
							<polygon class="st8" points="181.7,597.8 187.8,594.7 171.5,578.4 166.3,556.5 160.2,559.6 165.3,581.5 							"/>
						</g>
						<g>
							
								<linearGradient id="SVGID_9_" gradientUnits="userSpaceOnUse" x1="582.7423" y1="401.1302" x2="582.7423" y2="470.327" gradientTransform="matrix(-0.7071 -0.7071 -0.7071 0.7071 878.189 679.0634)">
								<stop  offset="0" style="stop-color:#FFFFFF"/>
								<stop  offset="0.995" style="stop-color:#EBF3F9"/>
							</linearGradient>
							<polygon class="st15" points="114.7,553.7 161.3,636.6 148.7,614.2 168,604.6 151.5,588.3 146.5,566.4 127.2,576.1 							
								"/>
							
								<linearGradient id="SVGID_10_" gradientUnits="userSpaceOnUse" x1="573.5499" y1="420.5167" x2="573.5499" y2="462.4897" gradientTransform="matrix(-0.7071 -0.7071 -0.7071 0.7071 878.189 679.0634)">
								<stop  offset="0" style="stop-color:#FFFFFF"/>
								<stop  offset="0.995" style="stop-color:#EBF3F9"/>
							</linearGradient>
							<polygon class="st16" points="171.7,602.7 177.8,599.6 161.5,583.4 156.3,561.5 150.3,564.6 155.3,586.5 							"/>
							
								<linearGradient id="SVGID_11_" gradientUnits="userSpaceOnUse" x1="570.0143" y1="425.4929" x2="570.0143" y2="467.4456" gradientTransform="matrix(-0.7071 -0.7071 -0.7071 0.7071 878.189 679.0634)">
								<stop  offset="0" style="stop-color:#FFFFFF"/>
								<stop  offset="0.995" style="stop-color:#EBF3F9"/>
							</linearGradient>
							<polygon class="st17" points="181.7,597.8 187.8,594.7 171.5,578.4 166.3,556.5 160.2,559.6 165.3,581.5 							"/>
						</g>
					</g>
				</g>
			</g>
			<g>
				<g id="箭头_76_">
					<g>
						<g>
							<polygon class="st8" points="260.8,480.6 321.2,503.7 307.4,563.5 294.9,541.2 275.8,550.7 270.7,528.8 254.3,512.5 
								273.5,503 							"/>
							<polygon class="st8" points="272.2,552.5 266,555.6 260.8,533.7 244.5,517.4 250.7,514.3 267,530.7 							"/>
							<polygon class="st8" points="262.3,557.5 256,560.5 251,538.6 234.7,522.3 240.8,519.3 257,535.6 							"/>
						</g>
						<g>
							
								<linearGradient id="SVGID_12_" gradientUnits="userSpaceOnUse" x1="531.123" y1="968.1804" x2="531.123" y2="1037.106" gradientTransform="matrix(-0.7071 -0.7071 0.7071 -0.7071 -69.1958 1626.4481)">
								<stop  offset="0" style="stop-color:#FFFFFF"/>
								<stop  offset="0.995" style="stop-color:#EBF3F9"/>
							</linearGradient>
							<polygon class="st18" points="260.8,480.6 307.4,563.5 294.9,541.2 275.8,550.7 270.7,528.8 254.3,512.5 273.5,503 							
								"/>
							
								<linearGradient id="SVGID_13_" gradientUnits="userSpaceOnUse" x1="540.2094" y1="987.5341" x2="540.2094" y2="1029.2809" gradientTransform="matrix(-0.7071 -0.7071 0.7071 -0.7071 -69.1958 1626.4481)">
								<stop  offset="0" style="stop-color:#FFFFFF"/>
								<stop  offset="0.995" style="stop-color:#EBF3F9"/>
							</linearGradient>
							<polygon class="st19" points="272.2,552.5 266,555.6 260.8,533.7 244.5,517.4 250.7,514.3 267,530.7 							"/>
							
								<linearGradient id="SVGID_14_" gradientUnits="userSpaceOnUse" x1="543.6743" y1="992.4949" x2="543.6743" y2="1034.2621" gradientTransform="matrix(-0.7071 -0.7071 0.7071 -0.7071 -69.1958 1626.4481)">
								<stop  offset="0" style="stop-color:#FFFFFF"/>
								<stop  offset="0.995" style="stop-color:#EBF3F9"/>
							</linearGradient>
							<polygon class="st20" points="262.3,557.5 256,560.5 251,538.6 234.7,522.3 240.8,519.3 257,535.6 							"/>
						</g>
					</g>
				</g>
			</g>
		</g>
		<g>
			<g>
				<g id="箭头_75_">
					<g>
						<g>
							<polygon class="st8" points="177.7,654.5 210.5,734.9 244,696.3 226,685 226.2,654.4 210.8,653.7 195.7,635.1 195.5,665.7 
															"/>
							<polygon class="st8" points="226.3,648.5 226.3,638.6 211,637.9 195.7,619.3 195.7,629.2 210.8,647.8 							"/>
							<polygon class="st8" points="226.3,632.6 226.3,622.8 211,622.1 195.8,603.5 195.8,613.3 211,631.9 							"/>
						</g>
						<g>
							
								<linearGradient id="SVGID_15_" gradientUnits="userSpaceOnUse" x1="461.5929" y1="436.8166" x2="461.5929" y2="545.0456" gradientTransform="matrix(-1 0 0 1 672.431 141.011)">
								<stop  offset="0" style="stop-color:#FFFFFF"/>
								<stop  offset="0.995" style="stop-color:#EBF3F9"/>
							</linearGradient>
							<polygon class="st21" points="177.7,654.5 244,696.3 226,685 226.2,654.4 210.8,653.7 195.7,635.1 195.5,665.7 							"/>
							
								<linearGradient id="SVGID_16_" gradientUnits="userSpaceOnUse" x1="461.4429" y1="467.6606" x2="461.4429" y2="534.0222" gradientTransform="matrix(-1 0 0 1 672.431 141.011)">
								<stop  offset="0" style="stop-color:#FFFFFF"/>
								<stop  offset="0.995" style="stop-color:#EBF3F9"/>
							</linearGradient>
							<polygon class="st22" points="226.3,648.5 226.3,638.6 211,637.9 195.7,619.3 195.7,629.2 210.8,647.8 							"/>
							
								<linearGradient id="SVGID_17_" gradientUnits="userSpaceOnUse" x1="461.3929" y1="476.3438" x2="461.3929" y2="542.7322" gradientTransform="matrix(-1 0 0 1 672.431 141.011)">
								<stop  offset="0" style="stop-color:#FFFFFF"/>
								<stop  offset="0.995" style="stop-color:#EBF3F9"/>
							</linearGradient>
							<polygon class="st23" points="226.3,632.6 226.3,622.8 211,622.1 195.8,603.5 195.8,613.3 211,631.9 							"/>
						</g>
					</g>
				</g>
			</g>
			<g>
				<g id="箭头_74_">
					<g>
						<g>
							<polygon class="st8" points="178.7,420.5 211.8,382.1 244.7,462.7 226.8,451.3 226.8,481.9 211.5,463.2 196.3,462.5 
								196.5,431.9 							"/>
							<polygon class="st8" points="226.8,487.8 226.8,497.7 211.5,479 196.3,478.3 196.3,468.4 211.5,469.2 							"/>
							<polygon class="st8" points="226.7,503.7 226.7,513.5 211.5,494.9 196.3,494.1 196.3,484.3 211.5,485 							"/>
						</g>
						<g>
							
								<linearGradient id="SVGID_18_" gradientUnits="userSpaceOnUse" x1="460.7429" y1="941.4418" x2="460.7429" y2="1050.1139" gradientTransform="matrix(-1 0 0 -1 672.431 1480.8313)">
								<stop  offset="0" style="stop-color:#FFFFFF"/>
								<stop  offset="0.995" style="stop-color:#EBF3F9"/>
							</linearGradient>
							<polygon class="st24" points="178.7,420.5 244.7,462.7 226.8,451.3 226.8,481.9 211.5,463.2 196.3,462.5 196.5,431.9 							
								"/>
							
								<linearGradient id="SVGID_19_" gradientUnits="userSpaceOnUse" x1="460.8929" y1="972.4916" x2="460.8929" y2="1039.1061" gradientTransform="matrix(-1 0 0 -1 672.431 1480.8313)">
								<stop  offset="0" style="stop-color:#FFFFFF"/>
								<stop  offset="0.995" style="stop-color:#EBF3F9"/>
							</linearGradient>
							<polygon class="st25" points="226.8,487.8 226.8,497.7 211.5,479 196.3,478.3 196.3,468.4 211.5,469.2 							"/>
							
								<linearGradient id="SVGID_20_" gradientUnits="userSpaceOnUse" x1="460.9429" y1="981.2688" x2="460.9429" y2="1047.8567" gradientTransform="matrix(-1 0 0 -1 672.431 1480.8313)">
								<stop  offset="0" style="stop-color:#FFFFFF"/>
								<stop  offset="0.995" style="stop-color:#EBF3F9"/>
							</linearGradient>
							<polygon class="st26" points="226.7,503.7 226.7,513.5 211.5,494.9 196.3,494.1 196.3,484.3 211.5,485 							"/>
						</g>
					</g>
				</g>
			</g>
		</g>
		<g>
			<g>
				<g id="箭头_73_">
					<g>
						<g>
							<polygon class="st8" points="260.3,698.9 320.9,752.5 307.4,675.4 294.7,681.7 275.7,648.1 270.3,663.3 254,658.9 273,692.5 
															"/>
							<polygon class="st8" points="272,641.5 265.8,630.7 260.5,645.9 244.2,641.5 250.3,652.3 266.7,656.8 							"/>
							<polygon class="st8" points="262,624.1 256,613.2 250.7,628.5 234.3,624.1 240.5,634.9 256.8,639.4 							"/>
						</g>
						<g>
							
								<linearGradient id="SVGID_21_" gradientUnits="userSpaceOnUse" x1="455.1844" y1="562.0395" x2="455.1844" y2="649.462" gradientTransform="matrix(-0.7071 0.7071 0.7071 0.7071 146.4718 -93.9381)">
								<stop  offset="0" style="stop-color:#FFFFFF"/>
								<stop  offset="0.995" style="stop-color:#EBF3F9"/>
							</linearGradient>
							<polygon class="st27" points="260.3,698.9 307.4,675.4 294.7,681.7 275.7,648.1 270.3,663.3 254,658.9 273,692.5 							"/>
							
								<linearGradient id="SVGID_22_" gradientUnits="userSpaceOnUse" x1="441.1482" y1="579.3094" x2="441.1482" y2="640.1974" gradientTransform="matrix(-0.7071 0.7071 0.7071 0.7071 146.4718 -93.9381)">
								<stop  offset="0" style="stop-color:#FFFFFF"/>
								<stop  offset="0.995" style="stop-color:#EBF3F9"/>
							</linearGradient>
							<polygon class="st28" points="272,641.5 265.8,630.7 260.5,645.9 244.2,641.5 250.3,652.3 266.7,656.8 							"/>
							
								<linearGradient id="SVGID_23_" gradientUnits="userSpaceOnUse" x1="435.7388" y1="582.5309" x2="435.7388" y2="643.4187" gradientTransform="matrix(-0.7071 0.7071 0.7071 0.7071 146.4718 -93.9381)">
								<stop  offset="0" style="stop-color:#FFFFFF"/>
								<stop  offset="0.995" style="stop-color:#EBF3F9"/>
							</linearGradient>
							<polygon class="st29" points="262,624.1 256,613.2 250.7,628.5 234.3,624.1 240.5,634.9 256.8,639.4 							"/>
						</g>
					</g>
				</g>
			</g>
			<g>
				<g id="箭头_72_">
					<g>
						<g>
							<polygon class="st8" points="115.5,441.3 102.2,363.8 162.5,417.8 149.8,424.1 168.7,457.9 152.3,453.4 147,468.7 128.2,435 
															"/>
							<polygon class="st8" points="172.3,464.5 178.5,475.4 162,470.9 156.8,486.2 150.7,475.3 156,460 							"/>
							<polygon class="st8" points="182.2,482 188.3,492.8 171.8,488.4 166.5,503.7 160.5,492.8 165.8,477.5 							"/>
						</g>
						<g>
							
								<linearGradient id="SVGID_24_" gradientUnits="userSpaceOnUse" x1="375.4573" y1="887.6641" x2="375.4573" y2="975.0864" gradientTransform="matrix(-0.7071 0.7071 -0.7071 -0.7071 1093.8564 853.4465)">
								<stop  offset="0" style="stop-color:#FFFFFF"/>
								<stop  offset="0.995" style="stop-color:#EBF3F9"/>
							</linearGradient>
							<polygon class="st30" points="115.5,441.3 162.5,417.8 149.8,424.1 168.7,457.9 152.3,453.4 147,468.7 128.2,435 							"/>
							
								<linearGradient id="SVGID_25_" gradientUnits="userSpaceOnUse" x1="389.7764" y1="904.9341" x2="389.7764" y2="965.8218" gradientTransform="matrix(-0.7071 0.7071 -0.7071 -0.7071 1093.8564 853.4465)">
								<stop  offset="0" style="stop-color:#FFFFFF"/>
								<stop  offset="0.995" style="stop-color:#EBF3F9"/>
							</linearGradient>
							<polygon class="st31" points="172.3,464.5 178.5,475.4 162,470.9 156.8,486.2 150.7,475.3 156,460 							"/>
							
								<linearGradient id="SVGID_26_" gradientUnits="userSpaceOnUse" x1="395.2212" y1="908.1553" x2="395.2212" y2="969.043" gradientTransform="matrix(-0.7071 0.7071 -0.7071 -0.7071 1093.8564 853.4465)">
								<stop  offset="0" style="stop-color:#FFFFFF"/>
								<stop  offset="0.995" style="stop-color:#EBF3F9"/>
							</linearGradient>
							<polygon class="st32" points="182.2,482 188.3,492.8 171.8,488.4 166.5,503.7 160.5,492.8 165.8,477.5 							"/>
						</g>
					</g>
				</g>
			</g>
		</g>
	</g>
</g>
<linearGradient id="高光_1_" gradientUnits="userSpaceOnUse" x1="100.9882" y1="176.9647" x2="100.9882" y2="-148.2847" gradientTransform="matrix(1 0 0 1 0 400.1666)">
	<stop  offset="0" style="stop-color:#FFFFFF;stop-opacity:0"/>
	<stop  offset="1" style="stop-color:#FFFFFF;stop-opacity:0.5"/>
</linearGradient>
<polygon id="高光_2_" class="st33" points="119.3,610.1 82.7,610.1 82.7,234 119.3,256.5 "/>
</svg>
