<?xml version="1.0" encoding="utf-8"?>
<!-- Generator: Adobe Illustrator 21.0.0, SVG Export Plug-In . SVG Version: 6.00 Build 0)  -->
<svg version="1.1" id="图层_1" xmlns="http://www.w3.org/2000/svg" xmlns:xlink="http://www.w3.org/1999/xlink" x="0px" y="0px"
	 viewBox="0 0 792 857" style="enable-background:new 0 0 792 857;" xml:space="preserve">
<style type="text/css">
	.st0{fill:url(#底部_1_);}
	.st1{fill:url(#暗角反光_1_);}
	.st2{fill:url(#中高光_1_);}
	.st3{fill:url(#顶-背景_1_);}
	.st4{fill:#043977;}
	.st5{fill:url(#面板_1_);}
	.st6{fill:#073A76;}
	.st7{fill:url(#高光_1_);}
	.st8{fill:#FFFFFF;}
</style>
<g>
	
		<linearGradient id="底部_1_" gradientUnits="userSpaceOnUse" x1="59.2758" y1="-4894.1333" x2="733.4939" y2="-4894.1333" gradientTransform="matrix(1 0 0 -1 0 -4384.7695)">
		<stop  offset="0" style="stop-color:#E7EFF5"/>
		<stop  offset="0.2574" style="stop-color:#C3C5D2"/>
		<stop  offset="0.3352" style="stop-color:#C6C8D5"/>
		<stop  offset="0.3997" style="stop-color:#CED3DD"/>
		<stop  offset="0.4592" style="stop-color:#DDE4EC"/>
		<stop  offset="0.4655" style="stop-color:#DFE6EE"/>
		<stop  offset="0.5693" style="stop-color:#98A5B5"/>
		<stop  offset="0.995" style="stop-color:#7E8EA0"/>
	</linearGradient>
	<path id="底部" class="st0" d="M15,178.7v398.1c0,17,8.9,32.7,23.3,41.5l311.3,207c32.4,19.7,72.9,19.7,105.3,0l299.1-207
		c14.4-8.9,23.3-24.6,23.3-41.5V182.4L15,178.7z"/>
	
		<linearGradient id="暗角反光_1_" gradientUnits="userSpaceOnUse" x1="13.9782" y1="-4895.9829" x2="740.1013" y2="-4895.9829" gradientTransform="matrix(1 0 0 -1 0 -4384.7695)">
		<stop  offset="0" style="stop-color:#C3C6D2"/>
		<stop  offset="0.1409" style="stop-color:#C3C6D2;stop-opacity:0"/>
	</linearGradient>
	<path id="暗角反光" class="st1" d="M15,182.4v394.4c0,17,8.9,32.7,23.3,41.5l311.3,207c32.4,19.7,72.9,19.7,105.3,0l299.1-207
		c14.4-8.9,23.3-24.6,23.3-41.5V182.4H15z"/>
	
		<linearGradient id="中高光_1_" gradientUnits="userSpaceOnUse" x1="389.5309" y1="-5376.0688" x2="389.5309" y2="-5072.8818" gradientTransform="matrix(1 0 0 -1 0 -4584.7695)">
		<stop  offset="0" style="stop-color:#FFFFFF;stop-opacity:0"/>
		<stop  offset="1" style="stop-color:#FFFFFF;stop-opacity:0.3"/>
	</linearGradient>
	<path id="中高光" class="st2" d="M345.9,354.6h64.8v485.1c-20.9,1.7-42.3-3.1-60.9-14.4l-4-2.6L345.9,354.6L345.9,354.6z
		 M418.2,353.9v484.9c5.1-0.8,10.2-2,15.1-3.6V353.9H418.2L418.2,353.9z"/>
	
		<linearGradient id="顶-背景_1_" gradientUnits="userSpaceOnUse" x1="167.8548" y1="-4709.353" x2="569.9705" y2="-4481.8403" gradientTransform="matrix(1 0 0 -1 0 -4384.7695)">
		<stop  offset="0" style="stop-color:#DFE6EE"/>
		<stop  offset="0.5" style="stop-color:#F5F7F8"/>
		<stop  offset="0.995" style="stop-color:#ABB6C3"/>
	</linearGradient>
	<path id="顶-背景" class="st3" d="M761.8,214.8L456.9,401.1c-33.6,20.5-75.9,20.5-109.5,0L25.5,204.4
		c-15.9-9.7-14.3-33.4,2.9-40.8L367.6,18.5c22.1-9.4,47-9.4,69,0l320.9,137.3C782.4,166.5,784.9,200.8,761.8,214.8z"/>
	<g id="装饰">
		<path class="st4" d="M533.9,687l8.2-5.7V719l-8.2,5.7V687z M552.8,711.8l8.2-5.6v-37.9l-8.2,5.7V711.8z M571.7,698.8l8.2-5.6
			v-38.1l-8.2,5.7V698.8z M590.6,685.9l8.2-5.6V642l-8.2,5.7V685.9z M609.4,673l8.2-5.6v-38.5l-8.2,5.7V673z M628.3,660l8.2-5.6
			v-38.7l-8.2,5.7V660z M647.2,647.1l8.2-5.6v-38.9l-8.2,5.7V647.1z M666.1,634.2l8.2-5.6v-39.1l-8.2,5.7V634.2z M684.9,621.2
			l8.2-5.6v-39.3l-8.2,5.7V621.2z M703.8,568.9v39.4l8.2-5.6v-39.4L703.8,568.9z"/>
	</g>
	<g id="前面板">
		
			<linearGradient id="面板_1_" gradientUnits="userSpaceOnUse" x1="38.3586" y1="215.1801" x2="353.5532" y2="253.8717" gradientTransform="matrix(1 0 0 1 0 288.75)">
			<stop  offset="0" style="stop-color:#3EADED"/>
			<stop  offset="1" style="stop-color:#0B528D"/>
		</linearGradient>
		<path id="面板_2_" class="st5" d="M330.6,783.6c-5,0-9.9-1.6-14.2-4.5L66.6,612.9c-19.1-13.3-30.5-35.4-30.5-59.2V288.3
			c0-14,11-25.4,24.5-25.4c4.4,0,8.8,1.3,12.6,3.7L328,421.4c17.3,10.9,28,30.6,28,51.5V757C356.2,773.5,342.9,783.6,330.6,783.6z"
			/>
		<path id="边_2_" class="st6" d="M60.8,263.9c4.2,0,8.4,1.2,12.2,3.6l254.7,154.8c8.4,5.3,15.4,12.7,20.2,21.6
			c4.8,8.9,7.4,19,7.4,29.1v285.1c0,7.1-2.6,13.6-7.5,18.4c-4.6,4.5-10.9,7.2-17.2,7.2c-4.8,0-9.5-1.5-13.7-4.4L67.3,612.2
			c-18.9-13.1-30.1-34.9-30.1-58.4V288.5C37.1,274.8,47.8,263.9,60.8,263.9L60.8,263.9 M60.8,262c-13.3,0-25.5,10.9-25.5,26.3v265.4
			c0,24.1,11.6,46.5,30.9,59.9l249.7,167.1c4.6,3.2,9.7,4.7,14.7,4.7c13.8,0,26.6-11.3,26.6-27.5V472.8c0-21.4-10.9-41.2-28.5-52.3
			L74,265.7C69.6,263.2,65.1,262,60.8,262L60.8,262z"/>
	</g>
	
		<linearGradient id="高光_1_" gradientUnits="userSpaceOnUse" x1="78.981" y1="-5035.1382" x2="78.981" y2="-4728.2017" gradientTransform="matrix(1 0 0 -1 0 -4484.7695)">
		<stop  offset="0" style="stop-color:#FFFFFF;stop-opacity:0"/>
		<stop  offset="1" style="stop-color:#FFFFFF;stop-opacity:0.5"/>
	</linearGradient>
	<polygon id="高光_3_" class="st7" points="96.4,581.5 61.7,581.5 61.6,226.6 96.4,247.8 	"/>
	<g>
		<polygon class="st8" points="149.7,613.2 122.7,593.8 122.7,402.2 149.7,422.3 		"/>
		<polygon class="st8" points="98.4,418.7 178.1,455.7 136.2,364.9 		"/>
	</g>
	<g>
		<polygon class="st8" points="231.7,420.1 258.7,439.5 258.7,631.1 231.7,611 		"/>
		<polygon class="st8" points="287.1,614.7 207.4,577.7 249.3,668.4 		"/>
	</g>
</g>
</svg>
