<?xml version="1.0" encoding="utf-8"?>
<!-- Generator: Adobe Illustrator 21.1.0, SVG Export Plug-In . SVG Version: 6.00 Build 0)  -->
<!DOCTYPE svg PUBLIC "-//W3C//DTD SVG 1.1//EN" "http://www.w3.org/Graphics/SVG/1.1/DTD/svg11.dtd">
<svg version="1.1" id="中间件" xmlns="http://www.w3.org/2000/svg" xmlns:xlink="http://www.w3.org/1999/xlink" x="0px" y="0px"
	 viewBox="0 0 702 758" style="enable-background:new 0 0 702 758;" xml:space="preserve">
<style type="text/css">
	.st0{fill:url(#SVGID_1_);}
	.st1{fill:url(#_x31__1_);}
	.st2{fill:url(#_x32__1_);}
	.st3{fill:url(#_x33__1_);}
	.st4{fill:url(#_x34__1_);}
	.st5{fill:url(#_x36__1_);}
	.st6{fill:url(#SVGID_2_);}
	.st7{fill:url(#SVGID_3_);}
	.st8{fill:none;stroke:#073A76;stroke-width:2;stroke-miterlimit:10;}
	.st9{fill:url(#高光_1_);}
</style>
<g id="中间件_1_">
	<g>
		<g id="后_11_">
			
				<linearGradient id="SVGID_1_" gradientUnits="userSpaceOnUse" x1="120.5974" y1="421.115" x2="680.3017" y2="421.115" gradientTransform="matrix(1 0 0 -1 0 738)">
				<stop  offset="0" style="stop-color:#E7EFF5"/>
				<stop  offset="0.2574" style="stop-color:#C3C5D2"/>
				<stop  offset="0.3352" style="stop-color:#C6C8D5"/>
				<stop  offset="0.3997" style="stop-color:#CED3DD"/>
				<stop  offset="0.4592" style="stop-color:#DDE4EC"/>
				<stop  offset="0.4655" style="stop-color:#DFE6EE"/>
				<stop  offset="0.5693" style="stop-color:#98A5B5"/>
				<stop  offset="0.995" style="stop-color:#7E8EA0"/>
			</linearGradient>
			<path class="st0" d="M577.7,380.1c-0.4-54.1,34.5-87.5,81.4-82.8c11,1.1,18.8-7,18.7-19.4l-0.3-44.3
				c-0.2-27.3-20.5-55.9-45.4-63.8L556,145.6C554.1,84.3,507.7,21.5,451,4.5S348.5,21.3,347.6,80.1L270,56
				c-24.1-7.5-43.6,6.6-43.4,31.5l0.4,65.1c-0.9-0.3-1.8-0.6-2.7-0.9c-57.7-18.6-104.1,13.7-103.7,72.3
				c0.4,58.5,47.5,122.4,105.2,142.7l0,0c1.5,0.5,2.7,2.1,2.7,3.6l0.4,53.6c0.2,29.7,23.8,62.4,52.6,73.1l357.9,134
				c22.8,8.7,41.1-4.6,40.9-29.6l-0.3-46.1c-0.1-13.6-8.6-28.6-20.7-36C612.9,490.9,578.1,433.6,577.7,380.1z"/>
		</g>
		<g id="补角_9_">
			
				<linearGradient id="_x31__1_" gradientUnits="userSpaceOnUse" x1="54.9861" y1="423.8776" x2="141.942" y2="507.5726" gradientTransform="matrix(1 0 0 -1 0 738)">
				<stop  offset="0" style="stop-color:#E7EFF5"/>
				<stop  offset="0.1782" style="stop-color:#C3C5D2"/>
				<stop  offset="0.3353" style="stop-color:#CED3DD"/>
				<stop  offset="0.4592" style="stop-color:#DDE4EC"/>
				<stop  offset="0.4655" style="stop-color:#DFE6EE"/>
				<stop  offset="1" style="stop-color:#A1ADBC"/>
			</linearGradient>
			<path id="_x31__9_" class="st1" d="M154.3,157.3l-116,114.1c-2.4,2.3-0.5,6.4,3.2,6.8L142.4,289c1.8,0.2,3.4-0.6,4.1-2L201,181.9
				c1-1.9,0-4.3-2.1-5.4l-39.4-19.8C157.7,155.8,155.6,156,154.3,157.3z"/>
			
				<linearGradient id="_x32__1_" gradientUnits="userSpaceOnUse" x1="196.9227" y1="551.8947" x2="274.6022" y2="663.9893" gradientTransform="matrix(1 0 0 -1 0 738)">
				<stop  offset="0" style="stop-color:#E7ECF1"/>
				<stop  offset="1" style="stop-color:#C3C5D2"/>
			</linearGradient>
			<polygon id="_x32__9_" class="st2" points="134.4,164.9 234.9,63.3 347.6,80.1 247.4,182.6 			"/>
			
				<linearGradient id="_x33__1_" gradientUnits="userSpaceOnUse" x1="293.3812" y1="655.2648" x2="474.9525" y2="639.6546" gradientTransform="matrix(1 0 0 -1 0 738)">
				<stop  offset="7.296731e-02" style="stop-color:#EBECED"/>
				<stop  offset="0.3601" style="stop-color:#CED3DD"/>
				<stop  offset="0.995" style="stop-color:#8F9DAE"/>
			</linearGradient>
			<path id="_x33__9_" class="st3" d="M372.3,19.2L266.9,125.7l173.4,63.6l74.5-76.9l0.1-0.1c24-31-1.7-78.4-40.6-97.9l-13.8-6.9
				C419.1-7.9,387.3,3.8,372.3,19.2z"/>
			
				<linearGradient id="_x34__1_" gradientUnits="userSpaceOnUse" x1="500.119" y1="536.6505" x2="636.5693" y2="424.0789" gradientTransform="matrix(1 0 0 -1 0 738)">
				<stop  offset="8.610867e-03" style="stop-color:#C5C7D4"/>
				<stop  offset="0.4888" style="stop-color:#EBECED"/>
				<stop  offset="0.5581" style="stop-color:#CED3DD"/>
				<stop  offset="0.792" style="stop-color:#8F9DAE"/>
				<stop  offset="1" style="stop-color:#6A7B90"/>
			</linearGradient>
			<path id="_x34__9_" class="st4" d="M555.9,145.6L454.6,249l82.1,29.3L564.4,400l106.3-105.2c0,0,7.1-8.6,7.1-13.1
				s-0.5-53.1-0.5-53.1s-0.1-27.5-29.6-51.1C632.9,165.8,555.9,145.6,555.9,145.6z"/>
			
				<linearGradient id="_x36__1_" gradientUnits="userSpaceOnUse" x1="640.7726" y1="95.0266" x2="498.0697" y2="240.5836" gradientTransform="matrix(1 0 0 -1 0 738)">
				<stop  offset="0" style="stop-color:#98A5B5"/>
				<stop  offset="0.2574" style="stop-color:#C3C5D2"/>
				<stop  offset="0.3847" style="stop-color:#C6C8D5"/>
				<stop  offset="0.6832" style="stop-color:#98A5B5"/>
				<stop  offset="0.7894" style="stop-color:#929FB0"/>
				<stop  offset="0.995" style="stop-color:#8F9DAE"/>
			</linearGradient>
			<path id="_x36__9_" class="st5" d="M503.3,564.3c0,0,55.9-205.9,86.2-128.7c18.6,47.7,57.5,76.2,68.5,82.8s23.6,21,23.2,31.9
				c-0.4,11-0.4,11-0.4,11v46.3c0,0,0.3,12.9-15.7,26.2c-12.4,10.3-96.5,96.1-96.5,96.1L503.3,564.3z"/>
		</g>
		<g id="前_11_">
			
				<linearGradient id="SVGID_2_" gradientUnits="userSpaceOnUse" x1="20.296" y1="318.9587" x2="579.6036" y2="318.9587" gradientTransform="matrix(1 0 0 -1 0 738)">
				<stop  offset="0" style="stop-color:#DFE6EE"/>
				<stop  offset="0.5" style="stop-color:#F5F7F8"/>
				<stop  offset="0.995" style="stop-color:#ABB6C3"/>
			</linearGradient>
			<path class="st6" d="M477,482.1c-0.5-53.9,34.4-87,81.2-82c11,1.2,18.7-6.9,18.6-19.2l-0.4-44.1c-0.2-27.2-20.6-55.7-45.4-63.8
				l-76-24.4c-1.8-61-48.3-123.8-104.9-141c-56.7-17.2-102.4,16.2-103.2,74.8L169.3,158c-24.1-7.6-43.5,6.4-43.3,31.2l0.5,64.8
				c-0.9-0.3-1.8-0.6-2.7-0.9c-57.6-18.9-104,13.2-103.5,71.4s47.5,122.1,105.2,142.6l0,0c1.5,0.5,2.7,2.1,2.7,3.6l0.4,53.3
				c0.2,29.6,23.8,62.3,52.6,73l357.6,135.3c22.8,8.7,41.1-4.3,40.8-29.2l-0.4-45.9c-0.1-13.5-8.6-28.5-20.7-36
				C512.3,592.5,477.5,535.4,477,482.1z"/>
		</g>
		<g id="面板_10_">
			
				<linearGradient id="SVGID_3_" gradientUnits="userSpaceOnUse" x1="88.3985" y1="326.6663" x2="488.6014" y2="326.6663" gradientTransform="matrix(1 0 0 -1 0 738)">
				<stop  offset="0" style="stop-color:#3EADED"/>
				<stop  offset="1" style="stop-color:#0B528D"/>
			</linearGradient>
			<path class="st7" d="M414,450c-0.3-36.7,29.9-70.1,61.9-66.4c7.5,0.9,12.8-4.6,12.7-13l-0.3-30.1c-0.2-18.5-14.1-38.2-31.1-43.8
				l-52-17.3c-1.3-41.7-26.6-87.1-65.3-99.5c-38.7-12.3-69.9,21.2-70.5,61.3l-66.1-21.8c-16.5-5.4-29.8,4-29.6,21l0.4,51.2
				c-0.6-0.2-1.2-0.4-1.8-0.6c-39.4-13.5-84.2,3.6-83.9,43.6s45.6,88.2,85,102.7l0,0c1,0.4,1.8,1.5,1.8,2.5l0.4,56.8
				c0.1,20.3,16.3,42.9,36,50.5l244.8,95c15.6,6.1,28.2,4.5,28-12.5l-0.3-31.2c-0.1-9.2-5.9-19.5-14.2-24.7
				C438.4,553.8,414.4,486.3,414,450z"/>
			<path class="st8" d="M414,450c-0.3-36.7,29.9-70.1,61.9-66.4c7.5,0.9,12.8-4.6,12.7-13l-0.3-30.1c-0.2-18.5-14.1-38.2-31.1-43.8
				l-52-17.3c-1.3-41.7-26.6-87.1-65.3-99.5c-38.7-12.3-69.9,21.2-70.5,61.3l-66.1-21.8c-16.5-5.4-29.8,4-29.6,21l0.4,51.2
				c-0.6-0.2-1.2-0.4-1.8-0.6c-39.4-13.5-84.2,3.6-83.9,43.6s45.6,88.2,85,102.7l0,0c1,0.4,1.8,1.5,1.8,2.5l0.4,56.8
				c0.1,20.3,16.3,42.9,36,50.5l244.8,95c15.6,6.1,28.2,4.5,28-12.5l-0.3-31.2c-0.1-9.2-5.9-19.5-14.2-24.7
				C438.4,553.8,414.4,486.3,414,450z"/>
		</g>
		
			<linearGradient id="高光_1_" gradientUnits="userSpaceOnUse" x1="192.35" y1="419.1912" x2="192.35" y2="718.7981" gradientTransform="matrix(1 0 0 -1 0 894)">
			<stop  offset="0" style="stop-color:#FFFFFF;stop-opacity:0"/>
			<stop  offset="1" style="stop-color:#FFFFFF;stop-opacity:0.5"/>
		</linearGradient>
		<path id="高光_10_" class="st9" d="M212.5,505.2l-38.3-3.3l-2-343.2l39.8,12.5L212.5,505.2z"/>
	</g>
</g>
</svg>
