<?xml version="1.0" encoding="utf-8"?>
<!-- Generator: Adobe Illustrator 21.0.0, SVG Export Plug-In . SVG Version: 6.00 Build 0)  -->
<svg version="1.1" id="图层_1" xmlns="http://www.w3.org/2000/svg" xmlns:xlink="http://www.w3.org/1999/xlink" x="0px" y="0px"
	 viewBox="0 0 795 753" style="enable-background:new 0 0 795 753;" xml:space="preserve">
<style type="text/css">
	.st0{fill:url(#body_2_);}
	.st1{fill:url(#地面_2_);}
	.st2{fill:url(#光线_2_);}
	.st3{fill:url(#SVGID_1_);}
	.st4{fill:url(#SVGID_2_);}
	.st5{fill:url(#SVGID_3_);}
	.st6{fill:url(#SVGID_4_);}
	.st7{fill:url(#SVGID_5_);}
	.st8{fill:url(#SVGID_6_);}
	.st9{opacity:0.53;fill:#0C3551;enable-background:new    ;}
	.st10{fill:url(#SVGID_7_);}
	.st11{fill:url(#SVGID_8_);}
	.st12{fill:url(#SVGID_9_);}
	.st13{fill:url(#SVGID_10_);}
	.st14{fill:#2E3940;}
	.st15{fill:#AFAEAE;}
	.st16{fill:#FFFFFF;}
	.st17{fill:#606162;}
	.st18{fill:none;stroke:#606162;stroke-width:2;stroke-miterlimit:10;}
	.st19{fill:#989898;}
	.st20{opacity:0.35;fill:none;stroke:url(#SVGID_11_);stroke-width:9;stroke-miterlimit:10;enable-background:new    ;}
	.st21{opacity:0.35;fill:none;stroke:url(#SVGID_12_);stroke-width:9;stroke-miterlimit:10;enable-background:new    ;}
	.st22{opacity:0.35;fill:none;stroke:url(#SVGID_13_);stroke-width:9;stroke-miterlimit:10;enable-background:new    ;}
	.st23{opacity:0.35;fill:none;stroke:url(#SVGID_14_);stroke-width:9;stroke-miterlimit:10;enable-background:new    ;}
	.st24{opacity:0.35;fill:none;stroke:url(#SVGID_15_);stroke-width:9;stroke-miterlimit:10;enable-background:new    ;}
	.st25{opacity:0.35;fill:none;stroke:url(#SVGID_16_);stroke-width:9;stroke-miterlimit:10;enable-background:new    ;}
	.st26{opacity:0.35;fill:none;stroke:url(#SVGID_17_);stroke-width:9;stroke-miterlimit:10;enable-background:new    ;}
</style>
<g>
	<g id="地球_1_">
		
			<radialGradient id="body_2_" cx="291.4491" cy="-4737.6006" r="402.2803" gradientTransform="matrix(1 0 0 -1 0 -4473.0449)" gradientUnits="userSpaceOnUse">
			<stop  offset="0.1458" style="stop-color:#91D9FF"/>
			<stop  offset="0.8886" style="stop-color:#1156A3"/>
			<stop  offset="1" style="stop-color:#0A396F"/>
		</radialGradient>
		<path id="body_1_" class="st0" d="M372,721.3c-193.4,0-350.9-157.4-350.9-350.9S178.4,19.2,372,19.2s350.9,157.6,350.9,351
			S565.6,721.3,372,721.3z"/>
		
			<radialGradient id="地面_2_" cx="263.4467" cy="-4716.2539" r="436.3557" fx="415.5975" fy="-4717.459" gradientTransform="matrix(1 0 0 -1 0 -4473.0449)" gradientUnits="userSpaceOnUse">
			<stop  offset="0.155" style="stop-color:#F3F5F7;stop-opacity:0.8"/>
			<stop  offset="0.7377" style="stop-color:#D5D9DF;stop-opacity:0.3"/>
			<stop  offset="1" style="stop-color:#D4D8DE;stop-opacity:0"/>
		</radialGradient>
		<path id="地面_1_" class="st1" d="M197.3,647.6H197l-1.2-1.2l0,0l-0.6-1l-1,0.3v-0.1l-0.6-1l-0.7-0.7v-0.1l-0.4-0.6v-2.5l1-0.4
			v-2.7l-0.6-0.1l0.3-0.7l-1.6-1.9v-1.8l0,0v-0.3v-0.6l1.2-1.2l-0.1-1.2l1-0.3l1.3-1.3v-1.8l0.7-0.4h0.4l0.6-2.2l0.7-0.6l1-3
			l-0.1-0.6l0.1-0.4v-0.7l-0.6-1.3v-0.3l-0.7-2.8v-1.5l-0.3-0.3l1-0.6l-1.3-1.5l1.6-2.1L198,608l1.8-1.5l-0.4-0.7h0.7l1-0.6l0.4,0.7
			l1-1h3.1v-0.1l0.1,0.1l0.3-0.4l0.6,0.6h2.1l1.5-2.1l0,0l2.2-1l0.4-1.6v-0.1l1.3-1.3l0.6,0.7l2.4-2.4v-1.6l1.3-1.3L218,594l0.7-1.2
			v-0.1h0.6l1.6-2.1v-1.5l0.7-1V588l1.2,0.7v1.8l0.6,1v1.2l-0.7,0.7l0.7,2.2v2.1l1,1.2l-0.1,0.1l-0.4-0.6h-3.3v4.2l-0.6,0.6l1.2,1.2
			l-0.4,0.6v0.6l-1.5,1.3v2.4l0.4,0.4l-0.3,0.4l-0.3,0.7l-0.4,1.9l-0.4,2.4l-1,1.6l-0.3,1l-0.6,1.8v1.3l-0.7,1l-1.3,4.5l-1.5,1.8
			l-0.6,2.2l-0.1,0.7l-0.6,1.6l-0.7,3.1l-0.1,0.3H209v2.2l-1.9,1.2l1.2,1.2l-0.7,0.4v1.2l-0.4,1.2l-0.4,1l-0.7,0.7l-0.6,0.3l-1-0.1
			l-3.9,0.3l-0.7,1.3l-0.6,0.3H198L197.3,647.6L197.3,647.6z M146.9,624.9C72.5,560.2,29.8,467,29.8,368.3c0-5.4,0.1-10.9,0.3-16.3
			l1.6,1.9l2.5,1.6l0.3-0.1l1.6,1.6l0.7-0.7l0.3,0.3l1.8,1.5h0.6l0.4,0.1l1.2,1.2l3.4,0.4l3.1-0.3l1.2,0.3h2.4l1.6,1l2.4,0.3
			l0.3,0.6v1.2l1.6,3.7l2.4,1.6h3l0.1-0.1l0.7,0.1l3.4,1.2l1.9,0.7l1.2,0.7l1.9,1.8l3.1,1.5l1.9-0.7l1.9-1.5l1.9-1.9l0.6-1.8
			l-0.6-2.8l-0.7-1l0.1-1.5l0.3-0.3l0.4-1.3l0.6-0.6l1.5-0.7l2.8-0.4l1-0.7l1.5,0.4l0.3-0.3l1.6,0.3h0.7l3.4,1.9v-1.3h0.6l0.3,0.3
			l4.2,0.4l0.7-0.3h0.1l0.4,0.4l1.2,3.4l1.6-1.6l1.2,0.1l3.9,0.4l1.2,0.3l2.1,1.8l0.7-0.7l1.3,0.4h2.4l1.6,1h2.8l1.6-1.6l1.3-0.4
			l0.6-0.6h0.1l0.6,0.6l1.8-0.6h3.1l0.4,1.2l1,0.4l0.7,1.9l-0.3-0.3l-1.9,2.2v2.1l1,1.3v1l2.1,2.5l0.4,1.2l2.5,2.8v0.1l-0.3,0.6v1.9
			l1.6,1.8v0.6l0.4,0.4l0.3,1.5l0.3,0.7v1.8l3.1,4.8l0.6,1.8l1.3,0.4l1.5,2.1l0.4,1.5l0.7,0.7v1l0.3,0.3l-0.4,0.4l1.6,4l1.9,1.6h1
			l0.1,0.4l1.5,0.6l1.5,1.5l0.3,0.1v1l0.4,0.4v0.4l0.4,0.4v0.4l0.6,0.6l0.1,0.4l-0.1,0.1v1.9l1.2,3.7l0.3,1.5l-0.3,1.8l0.4,3
			l1.5,2.4l1.5,0.6l1.3,0.6v1.5h-1.9l3.6,3.6l1.8,4.9l1.3,5.1h0.4v0.6l0.6,0.6l0.3,0.6l0.6,1.8l3.9,1.6v-0.1l0.4,0.4l0.4-0.4
			l0.4,0.4l0.4-0.4l0.4,0.4l1.3,0.4l0.1,0.1l1.6,1.8l1.3,1.3l1,0.4l1.3,1.3h0.4l0.6,1.3l0.4,0.4l0,0l1.3,3.1h1.3l1.8,0.6l0.3,0.3
			l0.1,0.4l-0.3,0.3h-0.7l-0.4,1h-4.5l3.7,3.7h1.5l0.7-0.3l3,3.3l0.6,1.8h0.7l0.7,0.7l1.9,0.7l2.1-0.6l0.6-0.6l0.6-0.4h1l1.2-0.7
			l0,0h3l0.1-0.1l0.6,0.1l1.9-0.6l3-1.9l0.3-0.1l1,0.4l1.3-0.4h1.2l1.3-0.4h0.6l0.4,0.4h1.2l3.1-0.4l1.3-0.6h0.1l0.7,0.7l1.3-1.3
			l1.3-0.4l0.7-0.7h2.4l-0.7,0.7l1,1l-0.6,1.6l1,1v0.1l-1.2,2.5h0.4l-3.9,3.9h1.9v0.6l-1.5,2.4l-1,2.4l-0.3,0.3h-0.4l-1.9,1.9v1.5
			l0.1,0.4l-3,5.5v1.3l-1.6,2.8v0.4l-3.1,4.2l-0.3,1l-1,1l-2.5,3l-5.1,4.6l-1.9,1.6l-1.6,0.4l-1.5,1.3l-1.6,1.3l-3.1,3.4l-1,0.4
			l-3,3.1l-0.6,0.6l-0.3,0.6L186,522l-1.5,1.5l-0.4,1.2l-0.7,1v-2.4l-4,4.6h-0.3l-1.3,1.3l-0.4,0.1l-1.2-0.1h-0.1l-1.3,1.3v0.4l-1,1
			v2.1l-1.6,1.6v1.3l-0.7,1.3l-1.3,2.2l-0.1,0.1h-4.5l2.5,2.5l0,0l-1.2,3.6l-1.2,2.1v2.2l0.7,0.6l0.3,1.6l-0.7,0.7l-0.6,1.6v2.8
			l0.7,0.7l-0.4,0.4l0.4,1h-1.9l3,3l0.3,0.7l-0.4,1.2l1,1l0.1,0.3l-0.6,1.5l2.5,2.5l1.3,0.4l0.3,0.3v0.4l0,0l-1.2,1.2l0.4,0.4
			l-0.4,0.4v1.6l-0.1,0.1l0.6,2.5v0.1l-0.1,0.1v2.5l0.3,0.3l-0.4,0.4l0.6,1.8l-0.1,1h-3l1.6,1.6v1.6l1.3,1.3h0.3l0.1,0.4l0.1,1
			l-1.3,1.3l0.1,0.1l-1.6,1.6l1.6,1.6l-0.3,0.4v0.4l-0.1,0.1h-1.9v1.6l-2.1,1h-1.2l-0.6,1.5l-1.8,1l-2.5-1v1.6l-0.3,0.1l-1,0.6
			l-2.2-2.2v1.2l-0.3-1l-1.6,5.1l-0.3,0.3l-0.3,0.7l-2.1,1.2v0.6l-0.3,0.3H151l-4.2,2.5l0.1,0.4h-0.4l-0.1,0.1l-0.3-0.1h-2.2v2.8
			l0.3,0.3l-0.6,0.7l0.6,1.5l-0.4,1.3l1.2,1.6l-0.7,0.7v5.1L146.9,624.9L146.9,624.9z M492.4,550.7h-1.8l-3-3h-1.2V547l-2.8-1.5
			l-1.5-1.9l-0.4-0.1v-1l-1.5-0.7v-1l-2.1-0.3l-0.3-1l-1.9-2.2l-1.3-0.7l-0.3-0.4l0.4-1.6l-2.1-3.3l-0.4-2.5l-1.2-1.2l-0.4-1.2v-1.6
			l-2.4-1.5l-0.7-0.1v-0.3l-1-2.8v-0.3l-0.3-1.8l-0.3-0.1v-2.1h-1.8l-0.3-0.1l-1.3-2.1h-1.2l-0.1-0.6l-0.1-0.1v-2.8h-1.6l-1-0.6
			l-1.5-2.8l-3-2.1l-0.6,0.4l-1.3-1.8h-0.6l-1.6-2.1l-1-0.3l-0.7-1.5V499h0.1l2.1,1.8l1.8,0.6l1.6-0.4h0.3l0.6,0.6l1.8-0.6h0.1h0.1
			l0.7,1.6h0.3l0.3,1.3l0.7,0.1v0.3v2.5h2.4l1.3,1.3h1.2l1.8,1.5l1,1.3h0.7v1.3l2.2,3.7h-1l5.7,2.2v0.3l2.1,1.5l0.7-0.4l1.3,1.3v1.3
			l2.2,2.5l0.4-0.1l-2.2,2.2h4.9l-5.4,7.2l6.3-3.7v0.3l2.4,2.4h1.2v1.3l1.6-0.6v0.1l0.1,0.6l-0.1,0.6l1.8,0.4l-1.3,0.3l0.6,0.7v1.8
			l2.8,1l0.7-0.3l0,0l0.6,0.6l0.6,0.7l0.7,0.7l-0.3,0.1l-0.4,3.6l0.3,0.3l-0.7,1.6l0.6,1.6l-0.4,2.1l-2.2-0.4l-0.4,1.5L492.4,550.7z
			 M564,549.2l0.7-1V547l0.4-0.4h0.4v0.3l-0.1,0.7l-0.7,0.7v1.9h-0.6l-0.1,0.1L564,549.2L564,549.2z M574.8,544l-2.1-1l-0.6-0.6
			l0.6-0.4v-2.4l-1-1.6l-1.5-1.5l-2.8,1l-0.4,0.7l-1.5,1v1.8l0.6,1.2l0.3,0.6l-1.3,2.8l-1-1.9v-2.4h-3v-0.1h0.1V540v-0.1l1.6-0.7
			v-1.6l0.4-0.4V536l0.3-0.4l-0.1-1.6l0.7-1.2l-0.4-1.2l0.4-0.1l0.6-1l0.1-0.1v0.1l1.3,1.8l1.6,1.6l1,0.3l1.8,0.6v1.3l1.3,1l0.4,1
			l1.2,1.2l0.6,1.8l-1.2,1.6h1l0.7,2.5l0.6,0.1v0.6h0.6v0.1l-1,0.1l-0.4,0.4v-2.4L574.8,544L574.8,544z M541.1,542.8l-1.5-1.9h-0.4
			l-0.3-1l-1.3,0.4l-1.6-2.2l-0.4,1l-1.2,0.1l-0.4-0.6h-2.8l-0.3,1.2l-1,0.3l-0.6-0.4l-1,0.6v-1.6l-1.5-3.1l-1.6,2.4l-0.3-0.1
			l-1.3,0.7h-0.1l-0.4-0.4h-0.7l-0.4-1.6l-1.3,1v-3.1l-0.4-0.3l0.4-0.6v-2.2l-1-1l-1-1.3h0.1l8.5-8.5l-10,4.9H517l-1.3-1.3L515,523
			v-1l0.1-1v-1l0.4-0.6l1.2-1.9l0.7,1.2h2.1l1.8,1l4.2,0.7v-2.1l0.6-1.5v-1.2l1,0.4v-1.2l5.4,2.8l-3.4-5.2l3-0.7l1.8-1.2l1.3-1.9
			l0.1-0.4l1.3-1.5l2.2-2.2v-1.2l0.1-0.3l1.5-0.3v5.8l3.1-6l0.4-0.1l0.1-0.1l1-0.1l0.6-1.8l0,0l2.8-2.8v-1.3l0.4-1.2h0.7l0.1-0.7
			h0.6l0.6-0.4l1.2,1.8v2.2h1.3l0.3,0.1l1.3,1.6v2.8l-3-2.4v3h-0.6v1.3l-3.1,1.5l2.2,0.7l-0.3,0.3l1,1.9l-1.2,1.6l1.8,1.2l0.1,1
			l1.3,1.3l-3,2.1l1.9,1l0.7,3.6l-1.3,1.8l-0.6,0.1v2.5l-0.6,0.6v1.6l-1.5,1.2l0.1,0.7h-6l4.2,2.8l-0.6,0.6h-4l2.1,2.1l-5.1,5.1
			l4.8-1.9v3.4l-0.7,1.5l-1,0.6h-1l-1,0.3L541.1,542.8L541.1,542.8L541.1,542.8z M597.6,542L597.6,542v-0.3h0.6l0.3,0.1l0,0h-1
			L597.6,542L597.6,542z M572.5,532.3l0.4-1.3l0.3-0.3l0.7,0.6l1.3-0.3h0.7l0.7-0.4l-0.1,0.1l-0.7,0.6l-2.1,0.6l-0.4,0.4
			L572.5,532.3L572.5,532.3z M570.4,521.6l-0.3-0.1l1.3-1.3l0.6,1l0.3,0.1l-1.2,0.3H570.4z M484.1,517.8l-0.7-0.3l-1.5-0.3l-1-1
			l1.6-1.2h-2.8l-0.6-0.6l-1.6,0.6l-2.5-3.1l0.4-0.4l-1.2-2.5l-1.3-0.4l-0.7-1l-0.7-0.6l0.6-0.6l-1.6-1.6l0.1-0.1l0.6-2.5l-0.6-1.5
			l-0.3-1l-0.4-4l-1.3-2.1L468,493l-1.2-0.6v-2.1h-1l-0.3-0.6l-0.7-0.3l-1.8-2.1h-0.4l-0.3-1.3l-0.7-0.3V485l-0.4-0.4v-2.2l-1.9,0.7
			V483l0.1-0.1v-4.2h-0.6l0.4-0.4l-0.4-0.4l0,0l0,0l-0.1-0.1l0.7-2.1l0.3,1v0.6l0.7,1l-0.4,1.2l1.8,1.8l3.1-0.6v0.6l1.3,1.3l0.4,1
			h0.6l0,0v1.3l0.4,0.4l-1.9,0.7v3.3l2.5,0.7l3.1,3.1l1.2-1.2h1.5l0,0l0.1,0.4l0.6,1.8l0.6,0.3v1h3.1l0.1,0.1l3.4,3.4l0.7,1.3
			l0.1,0.6l-0.3,0.3v2.8l-0.4,0.4v2.4l0.4,0.4v1.2l-1.9,1.2l3,3l0,0l0.4,1.3l0.6,0.6v0.4l0.6,0.6l0.6,1.3v1l-1.5-1.5v2.2l-0.3,0.3
			L484.1,517.8z M472.3,514.8l0.3-1.3h0.1l1-1l0.1,2.2L472.3,514.8L472.3,514.8z M469.7,514.8l0.4-0.7l0.7,0.7H469.7z M556.8,498.3
			L556.8,498.3L556.8,498.3L556.8,498.3z M588.6,492.7h-1.3l0,0l-0.3-1v-0.3l3,1.9l-0.1,0.1L588.6,492.7z M373.8,493l-0.6-2.5
			l-0.6-1.6l0.3-0.4l-0.6-1.6v-1l0.3-1.6h3.7v0.4h1.3l0.1,0.3l1.2,2.5h0.1l-0.1,0.7l0.3,0.3v1.8v0.1l-0.7,1.3l-0.7,0.7l-0.7,0.3
			h-2.2l-0.6,0.3H373.8z M587.1,487.2l-0.4-0.6l-1.2-1.3l1.5-0.6v-0.1l3-1.5v-0.6l0.4,0.4l1.2-1.6l1.5,1.2v-3.4l0.7,0.7l-0.4,1.2
			l0.7,2.4h0.1v3l-2.4,0.4l-1.5,3l-0.4,2.1l1,0.6l-0.4,0.4L587.1,487.2z M595.8,487.2L595.8,487.2L595.8,487.2L595.8,487.2
			L595.8,487.2z M581.5,483h0.4l-0.3,0.4L581.5,483z M372.6,481.5h1v-1.8h0.6v0.1v1.8h0.3l-2.1,1.3L372.6,481.5L372.6,481.5z
			 M355.9,481.2l-0.7-0.6l-1-1.3l-1.5-3.1v-1.6l-0.4-2.2l-1-1.6v-2.4h-0.7v-0.1l-0.4-1.8l-1.5-1.9l-1.6-1.9h-0.4l-0.4-0.4l-0.4-1.3
			l-0.3-0.3l-0.3-1.5l-0.4-1.2l-1-2.2l-0.3-1.2l-0.7-1.8v-3h-1.3l-0.3-0.3v-1.3h-1.2l-0.3-0.6V447l-0.6-0.6l-0.4-1.6l-1.2-0.4
			l-0.6-1.3v-2.8l-1.8-3.9V436h1.5l-2.5-3.9l0.6-0.6l-0.6-1.8v-1.2l-1.3-3v-0.1l3.4-1.5l-3.6-1.5l0.3-0.6V420l-0.6-1.8l-0.3-0.3
			l-0.1-0.4h0.1l0.1-0.1h9.4l-9-3.6l7-7l-7.3,3l-0.4-0.4l-0.4,0.1l-3-7.2v9.4l-1.5,2.5l1.3,1.3v0.3l-1.2,1.2v0.1l-0.7,0.4l-2.5,1.6
			l-0.4,0.1l-0.7-0.1l-3.6-2.5l-1.2-1.3v-1.5h-0.1v-0.4l0.7-0.7h0.4l1-1.3h5.7l1.8-4.2h-5.1v1.2l-1.6,1l-3-1l-1-1.3l0.3-0.3l0.6-0.3
			l-1.2-3.1l-1.5,0.4l-1,0.7l-1.6-1h-1.6l-0.3-0.7v-0.1l-0.1-0.1l0,0l0,0l-0.4-0.4l-0.4-1.6l-0.7-0.7v-2.5l-2.2,0.7V398h-1.6
			l-0.6-1.8l-1.8-1.8h-2.2l-0.7,0.3l-0.3-0.1l-1.3-1.3l-1.2,1.2h-0.4l-0.6,0.3l-0.6-0.3h-2.8l-0.7,0.7l-0.3-0.3h-1l-0.4-0.4H288
			l-0.6-0.3l-1.6,1.6v0.4h-1.9l-1,0.4h-1.2v-0.4h-3.1l-0.6,0.6l-0.1,0.1l-1-0.3l-0.3-0.1l-0.4-1.5h-2.5l-0.3,0.6l-0.7-0.3l-0.4,0.4
			l-0.3-0.1h-2.7l-1.3-0.4l-2.2,0.3l-1.2-1H263l-0.3,0.3l-0.3-0.3h-3.6v-0.7l-1.2-2.1l-0.4-1.8l-0.7-1.2v-0.6h-0.4l0,0l-3.4-0.7
			l-1.8,0.6l-1,0.7h-1l-2.2,1.5l-0.7,0.6l-1.2-0.7l-2.4-0.6l-1.3,0.4l-1.2-0.7h-1.3l-1.3-0.4l0.3-0.3l-2.1-2.1h-1l-0.4-0.4h-1.5
			l-0.1-0.1l-2.1-0.6l-1.5,0.3l-1-2.5l-1.3-3.4l-1,1l-0.3-0.3h-3.9l-0.4-1h-1.3l-0.3-0.7l-1.5-2.1v-0.7l-1.5-1.6l-1.6-1.6l-1,1
			l-0.4-1.3l-1.3,1.3l-0.4-0.4h-0.6v-3l-3,3h-6.7l5.1,1.9l-0.1,0.4v1.2l0.1,0.7l-5.2,0.7l3.9,2.5h-1.3l3.6,3.6v0.1l0.6,0.6l0.3,0.6
			l1.3,3.4l1.8,0.4l0,0l1.9,1.9h0.3l0.6,0.7l2.2,5.8l2.5,3l0.4,1.3l2.4,2.4l1.3-1.3v1.2h1l0.6,1.5h0.7l0.1,0.1l0.4,2.8l2.5-1h0.4
			l1.6,0.6l1.9-1.8l1.3,0.3l0.4-0.1l0.4,0.4h1.9l1.8-0.6l0.1-0.1h1.3v-0.7l3.1-3.1l-1.2-1.2l2.5-2.5l0.4,0.4l0.4,3.1l1.9,2.2
			l0.4,0.4l3,2.5l2.2,1l0.6-0.6h0.1l2.5,0.4l1.2-0.4h5.2l0.6,1l0.4,1.5l1.2,1.2l0.4,1.2l2.4,1.6l0.3,0.1L267,415v0.4l-0.1,0.4
			l-1.6,2.4l-1.2,1.2l-0.3,0.6l-0.4-0.4l-0.6,0.6v-5.5l-2.8,7h-1.8l1.3,1.3l-1.2,3h1.3l0.1,0.4l-1,0.1l-0.3-0.3l-2.4,1l-2.2,3.1v1
			l-1.6,0.6h-0.7l-1.8,1.8v2.4l-0.1,0.1l-0.6-0.3l-1.3,0.4h-1.2l-1.6,1h-1.6l-0.1,0.4l-0.4-0.4l-1.3,1.3l-0.6,0.1l-2.2,0.4l-2.1,2.4
			l-0.7,1.9l-1,0.1l-1.3,1.3l-1.5,0.7l-3.1,0.4l-0.4,0.4l-4.6,1.5h-0.4l-1.8,0.6l-1.2,1.9l-0.1,0.1l-0.6-0.6l-1.2,1.2l0,0h-2.4
			l-2.8,2.1v0.1l-1.2,0.3l-1.8,0.7l0,0l-0.6-0.6h-1.3l-0.4-0.4h-2.4l-2.1,2.1l-0.1,0.4l-1,1.3h-2.4l-1.3,1.3h-0.1l-1.6-0.4l-0.1,0.1
			l-0.1-0.4l-1-1l0.1-0.1v-3.1l-1.3-1.2l-0.3-4.5l-0.7-1v-0.1h0.4v-3l-0.4-3l-0.4-1.2l-1.3-3.4l-1.5-0.3l-0.4-2.5H189l-2.5-2.5v-1.6
			l-1.3-0.4l-1-3.4l0.6-1.6l-1.5-0.6v-0.6l-2.1-1.8l-0.4-1.2H179l-0.4-0.1l-3.6-3.6l-0.3-1.5l-0.4-1.8v-0.1l0.6-3l-0.7-0.7l-0.4-1.6
			l-1-1l-0.4-1.6l-0.4-0.4l-0.6-1.8H171l-0.1-0.3l-1.3-1.6l-1.8-1.2l-2.1-2.1l-0.4,0.4l-0.1-0.1l0.4-0.4l-1-3l-1.2-0.4l-1-2.2
			l-1.3-0.4l-0.4-1.3l-1-0.4v-0.1V388l-1.8-3.9h-0.7l-0.3-0.3l-0.4-1l-0.4-0.4l-0.3-1l-1.5-1.8l1.2-1.2l-3.7-1.5v-3.1l0.4-1v-9.1
			l-3.4,8.7l-0.4,0.4l-1.3,3.3v1.2l-0.4,1.3l-1.8-1.8l-0.6-1.5l-1.3-0.4l0,0v-1.5l-1.8-1.6v-0.3l-0.4-0.4v-4.8l2.5-0.4l3.4,0.6
			l2.2-0.7l0.6-1.6l1.2-1.8l1.5-3.1l0.3-3.3l1.5-1.5v-1.3l1.9-2.4l0.4-3.9l0.4-1.9v-2.1l0.4-1.3l-0.6-1.9l-1-1.6l0,0l1.3-1.3
			l-1.3-1.3l1.6-1.6v-2.7l-3.1-1.3l-1.9,1.9l-0.1-0.1l-2.1-1.2h-1.6l-3,3.4l-0.1,0.3h-0.3l-1.3,0.4l-3.7,0.3l-0.6-0.4l-2.1-2.2h-1.5
			l-2.4-1l-2.1-0.4l-4,1l0.6,1.8l0,0l-0.3-0.1l-0.6,0.6h-0.4l-0.6,0.6h-0.3l-0.7-0.3v-2.2h-3.3l1-1h-3.3v-1.2l-0.7,0.7l-1-1l0.6-0.6
			l-1.2-2.5l-2.2-1l-0.6,0.3l-0.1-0.1l0.1-0.4l8.4-3.3h-6.9v-3.1l-1.6,0.6l-0.3-0.7l3.1-3.1h-5.2l-0.3,0.1l-0.3-0.3l0,0v-0.3
			l-0.1-0.1l0.7-1.8l0.6,1.5l1.9-0.7l0.6,0.3h3l3.6-1.5l-0.7-0.7h0.6l2.5-2.5l-0.4-0.1l0,0l0,0l2.8,1h3.6v-1.3l0.1-0.1l0.4-1l1-1
			l1.3-0.4l0.3-0.7l0.7-0.1h1.2l2.5-1.2l0.6-0.3h2.8l0.6-0.3l0.6,0.3h2.2h0.1l3.1,3.1l0.4-0.4l0.4,0.4l1.3-1.3l0.1,0.3l1.5,1.5
			l2.2,1l0.4-0.4l1,0.6l1.2,0.4l2.8,1.6l0.1-0.1l0.1,0.1l2.5,0.6l2.4-1.2h1.6l0.3-0.1l0.1,0.1h4l0.3,0.3l3.3,0.6l0.4-0.4h1.6
			l0.6-1.6l1.3-0.7l1.5-1.5l0.4-1.3l1.3-1.3l-0.4-1l0.4-0.6l-1.6-2.4l-0.3-1.8l-0.4-1.3l-1.5-2.2l-0.4-0.1l0,0l-3-2.4l-0.4,0.4
			l-0.3-0.1l-1.3-1.3h-0.7l-0.4-0.1l-0.6-0.6H168l-0.4-0.1l-0.4-0.4l-0.6-0.3l-0.3-0.7l-3.4-2.8l-1.3-0.4l-2.2-1.3l-1.5,0.3v-1
			l-0.4-0.4l0.1-0.1l1.6,0.6l1.3-3.9l-0.4-0.4l2.5-2.5V276l-1-0.3l1.2-2.5l2.2-1l1-2.5l-1.9-1.9l-2.5,0.7l-0.4,0.4l-0.3-0.1h-2.4
			l-1,0.4H156l-1.2,1.2l-0.1,0.3h-1.2l-0.6,1.8l-0.3,0.3h-1.2l-0.7,0.3l-1.3-0.4l-0.4,0.1l-0.3-0.6h-5.5l1.6,1.6l-0.1,0.1l-1,1.3
			l-1,0.3l-0.1,0.1l0,0l-1.8-0.6l-0.4,0.4l-1-0.4l-1,1l-1-1l-0.6,1.8l-1.2-0.4l-0.7,0.3l0.1-0.1l-0.7-0.3l-0.7-2.2l-0.6,0.1h-0.1
			l-1.8-1.8l-1.2,1.2l-1.2-1.2l-1.6,1.6h-0.6l-2.2,0.7v1.8l-0.1,0.1h-3.6l0,0l0,0l0,0l0,0v6l0,0l-1.2,1.2l1,1l-0.3,0.3l-0.3,0.1
			h-2.4l-0.6,1.8l-1,1l0.6,1.8v0.6l-0.4,1.3l0.4,1.3v2.4l-0.1,0.7h-0.6l-2.4,1.9l0.4,2.8l-0.1,0.1l-1,0.7h-2.4l3.3,3.9l0.7,0.7
			l0.4,1.6l1.6,1.6l0,0l-0.4,0.4h-1.3l-1.6,0.6l0.1-0.3l-2.8,2.4l-1.2-1.3l-0.4,0.4l-0.1-0.4l-2.2-0.7h-1l-0.4-1h-3.1v1.2l-1.2-1.2
			l-2.8,1.2l-0.3,1l-1.2-0.6l-1.3,1.3l-0.6-1.6l-3.3,1.3l-0.7,2.2l0.3,1.5l-1,1l2.5,2.8l-1.9,2.1l1.2,0.4l-0.6,0.3l-0.1-0.1
			l-0.1,0.1l-0.4,0.1l-0.7-1.2v-1.5h-1.3l-0.6-0.7l-1.2-0.7v-1.5l-1.5-0.6l-1.2-2.5h-1l-0.4-1.2v0.3l0.4-1.3l-0.4-1.8l0.3-1.5
			L83,308l1-2.4l-2.2-1.9l-0.6-0.3l-0.3-0.6l-2.2-2.8l-1.2-0.4l-0.1-0.1l-2.1-2.4l-0.6,0.6l-3.9-3.9l-1.5-0.6h-0.4l-5.5-5.5H63
			l-0.4-0.4l-0.7-0.7l-0.4-1.3l-1.2-1.2l-0.6-1.8h-2.8l-1,1v-2.1l-4-1.6l-1.8,1.8h-1l-0.7,0.7c4.8-17.2,10.8-33.9,18.1-50.2v0.1
			l3.4,0.6l0.7,0.7l2.4-0.7l1.9-1.5l5.2,0.3l7.2-0.6l-0.7-3l0.6-1.5l-1.3-1.3l-0.4-1l-1.3-1.3l-2.2,0.4l-0.3-0.1l-1.6-2.2l-1,0.3
			l-0.1-0.3v-2.2l-0.4-0.4l-0.1-0.4l0.7-0.3v-2.4l0.4-0.4l1.2,1.2v-4.2l0.4-0.1h1.3l0.6-0.6l0.7-0.3l1.8,2.1L86,214l1.8,1.8h2.8
			l1.5-3.4l0.4-2.1l-0.4-2.4V206l0.4-3l-1.5-3.7l-1.8,1.8l1.3-3.1h-0.7l0.6-1.6l1.2-0.4l0.4,0.4l1.9-0.7l0.1,0.1l1.5-0.6l0.6,0.3
			h1.6l1.6,1h6.9v-1.8l0.3-0.7l0,0l1.5,1.5v-1.9l2.4-1l-1-0.4l0.7-0.7l0.1-0.3l1.5,0.4l1.3-3.4l-2.2-2.2h-2.2l-0.3-0.6h-0.1v-0.6
			l-2.1-2.4l-1.2,1.5c0,0-0.1,0.1-0.3,0.4l0,0h0.3l-0.7,0.7l-1.3-1.3l-1.9,1.9l-0.3-0.1l-1.5,0.4l-1.5-1.5l-0.4-1l-0.1,0.4l-0.6-0.6
			v1.8l-1.2,1l-0.3-0.3l-1.9,1.9h-0.3l-2.2-0.7c9.6-14.8,20.6-29.1,32.3-42.3l-0.6,1.8l1.5,0.6v0.1l1.3,1.3v1l1,1v0.6l0.3,0.6
			l-1.5,3.7l3.1-1v0.1l3.4,1.9l0.6-0.6l0.3,0.1v0.6l1.3,1.3h1.6l0.4,0.4h1.3l1,1h1.8l1-1h1l1.3-1.3v-3.4l-0.6-0.3v-1l1,0.4l2.8,2.8
			l1.2-3.1l1.3-1.3l0,0l0,0l2.4-2.4l-2.1-3.1l-2.1-2.1l-0.1-0.6v-2.2l-2.5,0.6l-0.7,0.3h-1.6l-0.4,0.4l-1.5,0.3l-2.4-0.3l-1.2-0.3
			l-1.5-1.5l-1.5,0.6l-0.6-0.3h-1.6l-0.1-0.1l-1.9-0.7l-0.4,0.1v-1.8l-0.4,0.1c3.7-3.9,7.5-7.8,11.5-11.7h0.1l1.3,1.3l1-0.4l4.6,3
			v-1.2l0,0l0.3,0.3l0.6,0.6l0.4,1l1.6,1.6v1.2l-0.3,1l-2.4,6l5.5-4l0.6-1.8l1,1l1.2-0.3l-2.8,6.7l5.4-5.4l0.1,0.4l4.9,4.9l-1.8-7.3
			l-0.1-0.3l0.1-0.1v-2.5l0.6-1.8l-0.1-0.1l0.6-0.6l-0.4-0.4l0.4-0.4l-2.4-2.4l-1.6-0.6l0,0l0.1-0.3v-1.8l0.6-0.6l-0.6-1.8l0,0
			l1.2-1.2l-1.2-1.2V118l-1.3-2.2h0.1l1.5-0.3l1.8,0.3l0.1,0.1v1l1.8,1.8l0.6,0.3l0.1,0.6l0.1,0.3h-0.3l-0.4,0.4h-1.3l-2.1,2.1
			l0.3,0.3l-0.4,0.4v3.1l1.8,0.6l1.5,1.3l2.2,3.3h2.4l0.4,1.3l1.6-1.6h1l0.7-0.7l8.5-5.2l-7.5,1.3l0,0V125l1.2-0.1l0.1-0.1l4.8,0.6
			l-1.3-3.1h0.1l2.1-2.5l0.4-0.3l1.8-2.4l0.3,0.1l1.9-0.6v1.5l-0.3,0.3l2.4,2.4l3.1-2.1l0.3,0.7l2.5,1.2l0.3-0.3v6.9l3.4-8.5
			l1.9,0.7l2.2-2.2l-0.4-0.4l1-1l-0.7-0.3l0.4-0.4l0,0l0.4,0.4l0.7-0.7l0.3,0.1h3l2.2-1v-0.3h3.1v-1.8l0.3-0.3l1-0.4l0.1-0.1
			l0.4,0.1l-0.4,0.4l0.6,1.5l-0.4,1l1.2,2.5h4.5l1.3-1.3v-1.5h0.1l0.7,0.3l-0.4-0.4l1.2-0.4l0.1-0.7l7.5,2.4l-6.4-6.4l-0.3-0.1v-0.3
			l-1.8-2.8h-0.7l-0.1-0.7l-0.3-0.3l0,0v-2.4l-0.1-0.3l0.4-0.3l0.6,0.3l1-0.4l0.7,0.3l3.7-0.4l3.9,0.3l1.2,0.7l2.1,0.7l1.5,3.6
			l2.4-2.4l0.7,0.7h0.6l0.3,0.7l2.2,0.4l2.8,1.6l2.4,0.3l0.3,0.3l0.4,1.6l1.8,0.6l0.6,0.6l1.2,2.5l3.9,1.6v-3.1v-0.1l0.7-0.7l-0.4-1
			l0.1-0.1v-2.4l3.3-3.3h-4.2l-0.4-0.4h-0.4l-0.6,0.3l-2.1-3h-0.6l0,0v-1.6l-2.1-2.1l-1,1.3l-0.3-0.3h-1.5l-0.6-0.3v-0.3l-1.2-0.4
			l-0.3-0.7l1.2-1.2v-2.2l6,2.4l-7.2-7.2h-1l-0.6-1l-1-1l0.6-0.6l-0.7-2.1l1.5-2.4l2.1-2.1l-0.6-1.8v-0.4l0.6-1.8l-1.3-1.3v-0.6
			l-0.6-3.7l-0.3-1v-1.5l-0.3-0.3l0.1-0.4l1.3-1.3l-1.5-1.5l0.3-1.2v-0.3c1-0.3,1.8-0.7,2.5-1.2l0.4,0.3l0.3,0.6l2.2,1l0.6-0.6l0,0
			l3,1h0.1l0.6,1.6v1.5l0.4,0.4v1.3l0.3,1.2l-0.4,2.8l0.1,0.4l-0.4,0.4l0.6,1.5v0.1l-1,1l1,2.2l1,1l0.4,1.6l0.6,0.3v1.8l1.8-0.6
			l0.1,1l1.2,1.2l0.1,0.4l0.4,3.3l0.7,0.7l0.1,0.9l1.3,1.3v1l1.2,1.9l-0.3,1.2l0.7,2.2h0.1l-0.1,0.4l0.7,0.7l0.3,1.6l2.4,3.4
			l1.5,0.3l0.3,1l1.3,0.4l0.1,0.1v1.8l-0.4,1.5l0.6,2.8l1,1l-0.7,0.7v0.7l-0.6,1.8l0.6,0.6v0.4l-2.2,1l2.1,2.1v1l-1.5-0.6v1.6h-2.8
			l-0.3,0.3l-3-1.6l-1,1l-2.1,0.3h-1.9l-3.7,4.6h3.4l1.6,1.6l0.6-1.8l1.3,1.2l3.9,0.4l1.9,0.4l2.1-0.4h0.7l0.3,0.3l3.1,0.6l2.4-1.9
			v-1.6l1.6-0.6v-1.5l1.3-1.3v-1.3l1.3-3l-1.2-1.5l0.1-0.4l1.2-1.6l0.6-1.8l-1.6-4.8l-1.9-1l-0.1-0.3l-0.3-1.6l0.4-0.4l0.7-0.7
			l1.3-0.4l1-1v1.2l1.9,1.3l0.6,1.6h0.6l-0.6,1.6l1.9,0.7l0.3,0.6l0.7,0.7l-0.6,0.6l2.5,2.5h1.2l1.5,1.3l2.1-0.6l1.2-0.4l1.5-0.4
			l2.2-2.2l-2.2-2.2l-0.4,0.1l-0.7-2.1l-1.8,2.2l-0.1-0.4h-0.4l0.3-0.7l-1.2-1.2l-0.4-0.6l4.8-1.9l-4.2-1.6l-0.3-0.6l-0.4-0.4
			l-0.4-1.2l-1-0.7v-0.7l-1.9-2.2h-2.2l-1.3-0.6l-0.7-1.9l-1.8,0.6l-1.6-1l-1.2,0.4l-1.5-0.6l-2.1,2.1L269,95l-1.3-0.3l-0.4,0.3
			l-0.6-1.6l-1.8-1.8l-0.1-0.3l0.4-2.4l-1-1.5l0.1-0.4l0.4-3.6l-1.5-2.5l-1.6-1.6h-0.7l-0.1-0.6l-2.8-2.2l-1.2-0.6l0.4-2.1l-0.3-3.7
			l-0.3-0.3l0.1-0.1l1.6-1.8l0.4,1.5l1,1v1l0.4,0.4l-1,0.3l1.6,4l1.6-0.6l1,0.7h2.5l0.4-0.1l1,2.5l2.2-2.2h1.8l3,2.4l1.2-0.1
			l3.7,3.7l-1.8-4.2l6.9-6.9l-8.1,3.1l-0.4-0.1l-0.1-0.4l-0.3-0.3l-0.6-1.9h-1.8l-0.4-1h-2.1l-0.3,0.3l-1.3-0.1l-1.2-1.2h-1.8
			l-0.7-0.6l-0.6-1.6h-0.4l0.3-0.3l0.6-0.4h0.3l1,1.3l0.4,0.3l3,1.3l2.4-0.7l1.8-3.3l-1.9-3.1l-1.8-0.4l0.1-0.1h3.6l0.4,0.6l1.5,1.5
			l2.2,0.3l0.3,0.7l1.3,0.4l2.1,2.1h2.1l3.1-0.4l1-0.6l0.4,0.4l0,0v0.1l0.4,1.3v1.2l-1.6,1.3l0.7,1.8v2.1l1.6,1.2l-0.4,1.2l0.6,4.8
			h2.5l3.3,2.1h1.9l1.3,0.3V86l1.9,1.9h1.8l7,7l-3.3-8.2v-0.3l0.3-0.4l2.1,1.5h1.2l5.4,5.4l-3-9h-1.9l-0.7-0.3l-0.7-0.4l1.2-1.5
			l-5.2,1.3l-1,0.6l-1.2-0.4l-0.3,0.3l-0.3-0.3l-2.8-2.8V80l-0.3-0.1l-0.1-0.1l0.7-1.9l-0.7-2.1l-1.2-1l-0.3-2.1l-2.1-3l-1.2-0.4
			l-0.1-0.1l0.3-0.7l-0.6-1.5l-0.4-3.1l-1.9-1.9h-0.3l-1.6-1h-2.4l-0.6-0.7l-0.7-0.6l0,0l-0.4-1v-4.8l-3.3,3.3l-2.5-0.3H279
			l-0.4-0.3l-0.6-1.9h-0.3v-1.5l-1.6-3.1l-0.7-0.4l0.3-0.7l-1-1c4.6-1.5,9.1-2.5,13.6-3.9v0.6l3,2.5h10.9l-8.7-3.4l-0.4-0.4l1.6-0.7
			c22.4-5.4,45.4-8.5,68.4-9.3v0.7l0.3,0.3l-0.1,1l-0.7,0.3l-3.6,9.1l5.5-5.5h1l1.8-1.8l0.4-1.2h0.1l5.1-2.1l-2.5-1.2
			c1.6,0,3.3,0,4.8,0c88.1,0,171.6,33.5,235.1,94.4v0.4l-2.1,2.1l0.4,0.4h-0.7l-0.7,0.7h-3l-0.7,0.3l-1.8-0.4l-2.2,1l-2.2-1
			l-0.6,1.5h-1.6l-1,1H592l-1.3,1h-1.2l-1.3,1l-0.1-0.3h-2.5l-0.6,1.6l-1.6,1.3l-0.4,1.2l-1,1l-0.7,2.1l1.3,1.9l-0.1,0.7l-1,1.3
			l-1.6,2.4l0.6,1.5v1.8l0.3,0.7l-0.6,0.6v1l-0.6,0.6l0.4,1.6l-0.6,0.6l-0.4,1.3l-1.6,2.1l0.1,0.3l-0.3,0.1l-0.3,1.5h-0.6l-0.6,4.2
			v1.2l-0.6,0.6l0.4,1l-0.4,0.4l-0.4,1.2l-1.3,1.5v0.3l-0.4,0.4v1.6l-1.3,1v1.8l-1.3,1.3v1.2l-0.7,1l-1.2,3l1,2.2l2.2,1l0.6-0.3
			l0.7,0.7h2.4l1.3-1.3l1-0.3v2.2l1.2,1.5l0.1,0.4l-0.6,1.8l3.7,3.3l0.1-0.3l0.6,0.6l2.5-0.4v1.2l3.4-3.4l0.6-1.8l-0.6-0.6l0.4-0.7
			l-0.1-0.3l0.4-1.2l0.4,0.1v-1.2h1.3l-0.7-0.6h0.7l0.3-0.3l0.3,0.3h1.5h0.1l0.3,0.6l1,1l1.3,0.4l0.3,0.3l2.2,1l0.6,0.6h0.6l0.4,1
			h0.6l0.1,0.1l-0.1,0.4v0.6l-1.2,1.2l2.5,2.5h1.2l0.3,0.6l-0.3,0.3v2.4l1.8,1.8l0.6,0.3l0.6,1.8l0.1,0.1l-0.1,0.1l0.4,0.4l-0.6,0.6
			l0.7,0.7l-0.3,0.6l0.7,1.9l-0.3,0.3l0.6,3l0.3,0.7v1l1.3,4.2l0.3,0.1l-0.3,0.3l1,2.2l1,1v1.8l0.4,0.4l0.6,4h0.3v1.3l0.4,1v0.3
			l-1.3,1.3v1.8l-0.4,1.8l0.6,2.4l0.1,0.1l-1,1v1.5l-0.3,0.4h-4.2v1.9l-1.2,1.2l0.4,2.2l-1.2,1.2l0.7,2.5l0.1,0.1l-0.7,1l-0.3,1
			l-1.3,1.3v1.2l-0.7,1.2l-1,3.9l-0.3,0.3l-0.7,2.2l-1,0.7v0.6l-1,0.4v1.6l-0.6,0.6l0.1,0.4l-3-1.2l1.6,4.2v0.1l-2.2,1l1.2,1.2
			l-0.6,0.6l-0.6,0.6h-1l-0.6,0.6l-1.3,0.4l-0.1,0.1l-0.4-0.4l-0.4,0.4l-0.3-0.3l-0.4-0.1v-1.2l-1.6-1.6l-1.5,0.6l-1.5-0.6l-1.6,1.6
			v1l-1,1v1.6l-0.3,0.3l-0.1,0.6l-1.8,0.6l-0.3,1h-0.3l-1.6,1.6h-1.3v2.5L576,284v2.5l1,1v3.1l0,0l-1.5,1.3l0.4,0.4l-1.9,1.9v0.6
			l-0.3,0.1l-0.1,0.1H573l-1.9,0.7l-0.4,1.3l-1.5,1.3v2.1l0.1,0.3L569,301l1,3.1h0.3l-4.8,1.9h-0.3v-0.7l1.2-2.1l-0.3-0.7l1.3-3.4
			H564l-0.6,0.6h-0.3L561,299l0,0l0,0l-0.4-0.1l-1.2-3l-2.4,3.3h-0.3l-0.6-0.6l-1.9,1.6h-1.5l1.2-2.5l-4.2,4.2v-1.3l0.6-0.7l1.2-1.2
			v-2.5l-2.8-1.5l-2.8-4l-1,2.4h-2.5l-0.6,1.8l-0.4,0.4l-0.4,1l-1.3,1.3v1.5l-0.6,0.6h-0.7l-2.5,1.8l-0.4,3l-1,1h-1.8l1.5,1.5h-0.1
			l-3.7-0.7v2.4l-0.4,0.4v1l-0.4,0.4v0.4l-0.6,0.6l0.6,1.8v1.8l1.9,0.7l1.3,0.7l0.3,0.3l1.8,2.1v1.8l0.7-0.7l1.2,1.5V319l0,0v0.3
			l1.8,3.9h2.5l0.6-0.3l1.5,0.6l1.5-1.5l1-2.2l0,0l0.4-0.4v-0.7l0.7-0.3l0.3,0.7l1.5,1.5h3.7l-0.3,0.3h-1l-0.1,0.1l-0.6-0.3
			l-3.9,1.6l1.8,1.8l-0.4,0.1v0.4h-0.3l-2.5,2.5l0.7,0.7l-0.3,0.3l-1.5-1.5l-1.5,4.2l0.4,1.2l-0.3,1.3v4l2.8,1v2.2l2.5-1l1.5,0.6
			l1,2.1l-0.4,1.5l1.5,0.6v1l1.8,1.3v1.3l1.5,2.2l-3-0.6l0,0l-0.3-0.7l-2.2,0.7l-1.5-0.6l-0.1,0.1l-0.1-0.1l-2.5,1l-7.5,16.4
			l10-13.3l0,0l1.3,0.4l0.3-0.1l1.5,1.3l2.1,0.7l1.3-0.7l1.2,1.2l1.8,1.2l2.2,1.5l0.3,0.6l-0.3,0.1l-0.7,1h-0.3l-1.3,1.3v0.1
			l-4.9-1.9l2.2,3l-1.5,1.5v0.4l-3.7,3.7l3.7-1.5v7.5l3.4-8.7l0.3-0.3l0.4,0.4l2.4,1l0.6-0.6v1.3l-1,0.3l1,1v1.3l-2.1,2.1v2.8h1
			l0.1,0.1l-1,1l0.3,0.3l-0.7,1.3h-0.1l-0.1,0.6l-0.1,0.1l-0.4-1.2l-2.1,5.2h-1l0,0l0,0h-0.1l-0.1,0.3l-2.1,2.1h-1.8l1,1l-1.3,1.3
			h2.5l0.4,0.4l-1,0.3l-3,7.3h-2.8l3.7,3.7h-0.6l-0.4,1h-0.4l-0.1,0.4l-1.5,0.4l-5.1-5.1l2.8,7.2l-1.9,1.9l-0.4,0.1h-2.2l-0.1,0.3
			l-1-1l-1.3,1.3l-1,0.3l-1.2-1.2l-3.6-1.5v3.7l0.4,1v0.1l-2.2-2.2v4l-0.1,0.4l-0.4,0.4l-0.7,0.3l-0.6-0.3l-1.3,0.4h-4.5V409
			l-2.8,2.8h-3.7l2.1,2.1l-0.6,0.6v-0.7l-1.6-1.6l-1.5,0.6l-1.9-0.7l-0.4,1.2l-1-1l-0.3,0.3l-1.6-4l-1.5,3.9l-0.3-0.3l-1.2,1.2h-3.7
			l1.6,1.6h-1l-1.6,0.6l-1.2,1.2h-1.9v1.3l-1.2,1.2l1.2,1.2v1.5l0,0l-0.6-0.6l-1.8,1.8l-0.4,1l-0.6,0.6v2.5l-0.6,1.8l0,0l-2.4,1
			l4.6,1.8l1,0.7l1.6,1.6l3.1,7.8v-6.6l0,0v0.3l3.6,1.6l2.1,1.3l0.3,1l2.4,1.8l0.7,0.7l0.6,1.5v0.3l1,1l-0.6,0.6l1.8,1.8l0.4,1.6
			l0.4,0.4l0.4,1.6l0.1,0.1l-0.4,0.4l0.4,1l-0.4,0.4l0.6,1.8v1.5l0.6,0.6l0.1,0.3l-0.7,0.7v1.9l0.3,0.6l-0.1,0.1l-1.5,0.6l0.7,1.9
			l-0.6,1.5l0,0l-0.3,1l-1,1l-2.8,1.2v0.4l0,0l-0.6,0.6l-1.6,0.7h-0.1l-0.6-0.6l-0.1,0.1v-3l-2.8,2.8l-0.3-0.1h-2.5v0.7H494v-2.8
			l-2.8,2.8l-1.3-3.4l-0.1,0.1l0,0v-0.6l-1.5-2.2h-1.6l-3-3l-0.7-0.3v-0.1l-1.2-1.2l-1.9-0.7l0,0l-0.4-1v-0.3l1.2-1.2l-1.8-1.8
			l-1.6-0.6h-0.4l-0.6-0.6l-1.3,0.4l-1-1l-0.6,0.6l-2.2-2.2v3.7l-1.6,1.6l2.5,1l-0.1,0.4v0.6l-1.2,1.2l0.7,0.7l-1,1l-0.4,1l-1.2,1.2
			l-0.4,3.6l-1.2,1.3v1.3h-1.9v-1.5l1.2-1.2l-0.4-1.3l0.7-0.7l-2.4-2.2l-0.1-0.4V461l0.6-0.6l-1-2.2l-0.3-0.3l-0.4-3l-0.4-0.4
			l-0.4-1l-1.9-1.9v-0.7h8.7l-3.3-3.3v-2.5h-0.1l-0.3-2.5l-0.3-0.3l0,0v-1.5l-0.1-0.3l0.1-0.1v-4.8l-2.5,2.5l-0.3-0.3l-1-1.8
			l-0.4-0.4v-0.4l-9.4-3.7l5.2,5.2v1h-3.4l0.4,1.3l-0.7,2.1l-1,0.6h-0.7l-0.4-1.3v-3.9l0.3-0.3l-0.3-0.3v-5.7l-1.3,4l-0.4-1.2v-2.2
			l-0.1-0.1l1-1l-2.5-1l-0.1-0.4l-0.7-1.8V425l-0.7-0.7v-2.4l-1.6-2.1l-1.3-0.4l-0.3-0.3l-0.3-0.1l1.9-1.9h-4.2l-1.3-1.3v1l-1.5-0.6
			l-0.1-0.3H437l-0.6-1l-0.6-0.7V409l-0.7,0.7v-0.3l-0.6-0.6l-1.5-4h-1.5l0,0h-0.1H431l0.3-0.3l-0.7,0.3h-0.4v0.1l0,0l-0.4-0.3
			l-0.7-0.7h-0.4l-0.3-0.3l-0.3-0.7l-3.1,0.7v-0.1l-3.7,3.7l0,0h-1.2l0.3,0.6l-1.5,1.5h-1l-2.8-2.8v1.3l-1.6-0.6h-3v2.8l0.1,0.1
			l-0.1,0.1v1l-0.3,0.3l-3,1l-1,1l-1.3,3.4l1,1l0.1,0.4v0.3l-0.3,0.3l-0.1,0.3h-3.3l1.8,1.8l-0.7,0.6v0.1l-0.4,0.1l-0.7-0.7h-1.5
			l-1,0.4h-2.2l-1.2,3.6l-0.7,0.6l-1,1.9l-4.6,3.6l-0.4,1.3l-0.4,0.4l-1.8,0.3l-1.8,1.6l-0.7,1.9l0.3,0.6l-0.6,0.6l-2.2-0.4
			l-2.1,2.1v0.6H378l-2.4,2.4l-0.6,1.8l0.7,2.1l-1,1l0.6,1.9v4.6l1.2,0.4l0.1,1.5l-0.7,2.8l-1.3,2.4v3.6l0.4,1.2l0.3,3l-2.2,0.7
			l-1.2,2.8l0.1,0.1l-0.3,0.4l-0.6,0.6H371h-0.4l-2.4,1.6l-0.6,1.8l0,0l-1.2,1.2l0.6,0.6l-0.4,0.3L355.9,481.2z M492.3,475.6
			l-0.6,0.3l-0.1-0.1v-0.4l-1.2-1.2l1.2,0.3l-0.3,0.3l2.5,1l-0.4,0.1L492.3,475.6z M457.9,474.1v-1.5l0.6,0.6v0.7L457.9,474.1
			L457.9,474.1z M487.2,473.3l0.4,0.1l-0.1,0.1L487.2,473.3z M575.9,468.8v-1.3l0.7-0.1l0.3,0.4l-0.6,0.6l-0.1,0.3L575.9,468.8
			L575.9,468.8z M230.1,465.8L230.1,465.8l-0.1,0.3L230.1,465.8z M589.1,463.9l-0.6-0.7l-0.1-0.7h0.1l1.3,1.8v0.3L589.1,463.9z
			 M569.1,459.4L569.1,459.4L569.1,459.4L569.1,459.4L569.1,459.4z M568.9,452.1l-0.3,0.3h-0.7l1.5-1.5v1.6l0.3,0.1v0.1L568.9,452.1
			z M567,447.9h-1.3v-0.6h-1.5v-0.7l-0.6-1.3l-0.1-0.6l0.3-1.2l1.2-0.7V441l-0.4-1.3l0.3-0.7l0.4-2.5V434l-0.1-0.3l1.2-1.6v-0.3
			l0.4,0.1l1,1l2.2,0.6l-0.1,0.4l1,2.8l0.6,0.3l0.1,1.3l0,0l-0.1,1.2l-0.1,0.6l-1,1.8l-1.2,1.3l-1.6,1.6l0.4,1.2l-0.3,0.6v1.8
			l0.3,1.2l0.3,0.3L567,447.9z M510.7,429.7h-0.6l-0.4-0.4H509l-0.4-0.6v-0.1l-0.4-1v-1.8l-0.1-0.3l0.4-0.4l1.5-1.2l0.3-1h0.4
			l0.1,0.1h1.8l0.3-0.1l0.4,0.4l1-0.4l0.4,0.4l1.5-0.6l0.3,0.1l-0.3,0.3l-0.4,1l-0.4,0.4l-0.6,2.1l0.1,0.6l0,0l-1.8,0.6v0.4
			l-2.1,0.7v0.7L510.7,429.7L510.7,429.7z M507.8,418.8l-0.4-0.6l0.1-0.4h1.8v-1l0.4,1.3v0.1l-1.2,1.2L507.8,418.8z M514.4,412.4
			L514.4,412.4v0.4V412.4z M561.8,407.3V406h-1v-1.6l-0.6-0.1v-3.1l0.4-1.3l1.2-1.9l0.1-0.7l1.3-1.9l-0.6-0.3l0.1-0.1l0.6-0.4
			l0.6-0.4l0.4,0.7h0.3v1l-0.3,2.1l-0.7,1.3l0.1,1.9l-0.1,0.7l-0.6,3l0.6,0.3l-1,1.2L561.8,407.3L561.8,407.3z M414.6,405.3l0.3,1.2
			l-0.3,0.1V405.3z M542.5,395.6l2.1-2.1l0.6,0.6l-1.5,1.5H542.5L542.5,395.6z M546.7,391.5L546.7,391.5l-0.3,0.4l0.6,0.1l-1.6,0.6
			L546.7,391.5z M600.3,348.9l0.3-1.2v-1.8l-0.7-1.6l-1-1.8l-1-1l1-0.4l0.1-0.6h0.1h0.3l1,1.3h1l1.2,2.2h0.7v1h0.3l-1,1l0.4,2.2
			l-0.4,3l0.3,0.6h-0.1L600.3,348.9z M30.4,351.3c0.3-6.7,0.7-13.3,1.6-19.9l1,0.3l0.3,0.3l1,1.6l0.4,0.4l-0.3,0.3l-0.7,2.2l1.8,2.8
			l0.6,0.1v2.1l0.1,0.1l-1,3.1l-1.3,1.3l0.4,0.4l-0.3,0.3l-3.1,1.8L30.4,351.3z M550.3,350.5L550.3,350.5h0.3H550.3z M137.5,347.8
			l1.2-0.7l0.3,0.1h0.6l-0.7,0.6h-0.7L137.5,347.8L137.5,347.8z M100,346.8L100,346.8L100,346.8L100,346.8L100,346.8z M608.7,339.6
			L608.7,339.6l0.1-0.4h1.3l-0.3,0.3l-0.4,1.3L608.7,339.6z M614.3,337.8l-1-0.1l0.1-1l0.4-0.3h0.1l0.7,0.4l0.3,0.1v0.3l-0.4,0.4
			v0.1L614.3,337.8z M621.8,337.1l0.4-0.1l-1.9-1.9v-1l0.6-1v-1.9l-1.8-1.2h-3l-1.2,0.6l-2.2,1.3v0.3l-1.3,0.6H611l-1.5,0.4
			l-1.8,0.1l-0.4,0.1l-0.4-0.3H605l-0.7,1.6v0.7l-0.6-0.1l-1.8,0.6h-0.1v-0.1l1.2-0.7l0.4-1.2l0.3-0.3l0.6-0.4l2.2-2.2v-0.1l0.4-0.4
			l0.3-1.3l0.7-0.6l0,0l0.7,0.7l1.8-0.7l1.2-0.3h1l1.6-0.6l1.6-0.4l0.1,1h2.1l0.4-0.1l0.7,0.4l3.3-2.1l-0.6-0.6l1.6-2.4h-1.5v-0.3
			l-0.3-0.3l0.4-0.4v-0.7l1-1.5v-1.2l2.5,1.2l0.4-1.5l0.4-0.1l2.5-1.8l1.6-1l0.3-1.8l0.6-1v-1.8l0.1-0.6l0.7-0.6l1.5-2.2l-0.7-1.5
			l1-3.3l-0.4-2.1l0.4-1.6l-0.4-2.8l-1-2.2l0.3-1.3l-0.7-1.6H632v-0.6l0.6,0.4l1.9-1.5l2.4,2.4l0.3,0.4l0.3,1.8l0.7,1.5h0.6l0.3,0.4
			l0.6,1.9l-0.1,0.4l0.3,1.3v0.7l-0.1,0.6v1.9l0.1,0.7v0.4l-2.1,1l-0.3,2.5v1.5l1.2,1.9l1,2.5l-0.4,1.9v5.7l1,1.5h-2.2l-1.6,0.4
			l-1.2,3l0,0l-0.4,0.3l-0.3,0.3h-1.5l-2.2,1.3v1.8l-2.1-0.3l0,0l-0.3-0.3v0.3l1.2-1.2h-4.9l-1.3,1.3l-0.7,2.5l1.3,1.3l0.3,0.1
			l-0.3,0.1l-1,1.8v0.6l-0.4,0.4v0.7l-0.3,0.4L621.8,337.1z M52.1,337.4l-0.3-0.6l-1.6-1.6l-1,0.3l-1.5-0.4l-0.6-0.6l-1.3-0.4
			l-0.6-0.4l1.9,0.3l1.8-0.6h2.5l0.4-0.4l0.1,0.1h0.3l-1,3.1l1.2,1.3v0.3l-0.1,0.1L52.1,337.4z M570.7,330.4v1.2l-0.6-1.6l0,0
			l0.4-0.4v-1.8l1.8-1.2l-2.4-3.9v-0.3l-0.3-0.6l2.8,0.6l-1.8-4.2l-0.1-0.1l0.4-0.4l-1.5-1.5l-1.3-1.9l0,0l5.2-2.1l1.9,1.9l2.2,3
			v2.4l1.2,1.2l0.3,2.5v4.9l2.4-2.4l0.1,1l-1,1l0.4,0.4h-0.6l-1.5,1.5h-2.2l-0.3,0.6l-1.3,0.4l-2.4,1.9L570.7,330.4z M88.4,330.7
			l-0.7-0.3l-1.6-4l-0.4,1l-0.7-0.7h1l0.6-0.6l0.6,0.3l1.9-0.7l0.3,0.1l-2.1,0.7l1.3,1.3v1.9l0.4,1.2L88.4,330.7L88.4,330.7z
			 M640.9,325.9L640.9,325.9h0.3l-0.3,0.3V325.9z M59.5,325l0.4-0.4v0.7l-0.4,0.3V325z M641.2,322.9l0.6,0.7l-0.3,0.3L641.2,322.9z
			 M60.7,321.7l-0.4-1.3l-0.3-1.2l0.3,0.3h1.5l0.4,0.4l-0.4,1.3h-0.1l-1,1V321.7L60.7,321.7L60.7,321.7z M58.5,314.7l-2.8-1.2
			l-0.1,0.1l-0.3-1h-0.4v-0.4l-1-2.1h-1.8l-2.2-1l-1-1.8h-1.6l-1.8-0.6l-0.1,0.1v-0.1l-2.5-1l-1.5-1l-1.8-2.5l-0.3-0.3l-0.4-1
			l-1.5-1.5c0.7-3.7,1.6-7.6,2.5-11.5l0.1,0.3l0.6,1.8l3,1.3l0.4,0.1l0.3,0.6l2.5,3.1v1.2l0.4,0.4v0.7l0.6,1.6l2.2,2.2l1,0.7
			l0.4,1.3l1.3,0.4l0.6,0.6h2.2l0.3,0.1v0.7l1,2.2h1.9l1.5,0.3l1.9,1l-1,1l-0.4,1l-0.6,0.6v2.8v0.1l-1.5,0.4v1.3L58.5,314.7z
			 M562.7,309.4l-1.5,1.5l-0.3-0.1v-1.3h0.6l5.2-5.2l0.3,0.6l3.6,1.8l0.1,0.4l1.8,3.7l0.3,0.3h-8.2l0,0L562.7,309.4z M542.9,302
			L542.9,302h0.6l-0.3,0.3L542.9,302z M136.5,282.4l2.2-2.2l0.6,0.6l0,0l-1.9,1.5l-1.2,0.6L136.5,282.4z M48.5,280.6l0.1-0.1
			l-0.1,0.3V280.6z M629.7,279.6L629.7,279.6l0.4,0.1l-0.3,0.1L629.7,279.6z M134.2,278.7l1-0.3l1.5-1.5l0,0v1.6l-0.4,1.2
			L134.2,278.7z M640.6,275.4l-1.2-0.6l-0.7-0.6l-1.6-2.2l-1.5,0.4l-0.1-0.1h-2.4l-1.6,1.3l-0.3,0.3l-1.6-1.3l-0.1,0.1v-0.4l1.3,0.4
			l1.5-1.5l0.1-0.7l1.3-0.6l-1.6-2.4l-0.3-0.1l-0.1-0.6h1.3l-1.2-3.3l-0.1-0.6l0.1-0.6l-0.3-2.1l-0.4-1.6l-1.3-2.1l1,0.6h0.6l0.3,1
			l2.4,2.4l1.2,0.6l1,1.5h1l0.3,0.6l1.9,1h1l0.7,1h3.6l0.6-0.3v0.6l1.9,1l0.3,0.3v1.3l-2.2,1l-0.1-0.1l-1.8,1l-1.6,1.6l-0.7,2.2
			L640.6,275.4L640.6,275.4z M627.2,240.7l-1.5-1.6v-0.3l-0.1-0.3l0.7,1h0.7l0.4,0.6l0.6,0.6v1.3l-1.3,0.4L627.2,240.7L627.2,240.7z
			 M624.5,235.8L624.5,235.8L624.5,235.8L624.5,235.8z M621.7,228l-0.6-0.3v-0.1l0.3-1.3l-1-1.8v-3.1l-0.4-1.8l-0.1-1.3l-0.4-1.3
			l-1-1.3v-0.1l0.4-1l-1.9-1.9v-0.6l-0.6-1.3v-3.1l-1.8-2.4l-1.2-0.4l-0.6-0.6l-0.7-2.2l-1.3-0.4l-0.1-0.4l-1-2.4V197l-0.1-0.1V195
			l-1.5-1.9l-0.7-0.7l-0.1-1h0.3l1.9-0.6v-1.2l0.1,0.1l0.4,1l0.3,0.1v1.6l0.6,0.6v0.6l1.8,1.8l0.4,0.1v0.1v4.9l0.7,1l0.4,1.3
			l1.5,1.5v0.1l0.7,2.2h1.6v0.6l0.7,0.7l0.6,1.5l1.8,2.4l0.4,1l1.3,2.5l1.2,1.2v1.8l1.3,0.3l0.1,0.3l1,1.6H626l-0.1,0.1l-0.1-0.1
			h-4.6l1.5,2.2l-0.4,1.3l0.7,1.6v0.3l-0.4,2.2l1,1.3v0.4L621.7,228z M81.8,194.4V194l0.4,0.4H81.8z M83.1,185.8
			c0.3-0.3,0.4-0.7,0.7-1.2v0.6L83.1,185.8L83.1,185.8z M135.6,148.6L135.6,148.6l1,0.4L135.6,148.6z M131.2,147.7l-1.2-1.2
			l-0.7-0.3l-0.1-0.1l0.1-0.1l0,0h1.5l0.1,0.3l1.2,1.2H132L131.2,147.7L131.2,147.7z M168.4,111.1l-0.7-1.3l0,0v-1.6l0.3-0.7h0.6
			l2.1,1l-0.1,0.6v0.7l-0.4,0.7l-0.6,0.3L168.4,111.1L168.4,111.1z M204.1,94.6L204.1,94.6l0.4,0.1L204.1,94.6z M192.6,89.4
			L192.6,89.4l-0.7-1.8l-1.3,1.3l-0.1-0.3l-3.7-1.5l-0.7,0.7l-1-1l0.4-0.4l-2.2-2.2c0.7-0.4,1.5-1,2.2-1.5l0.6,0.6l1.3,3h1.9
			l2.1,0.4l1.3,1l1.2,1.5l0.4,0.1l-0.4,0.4L192.6,89.4z M183.1,89.1v-0.6h0.3l0.6-0.6v1.2l-0.4,0.1L183.1,89.1z"/>
		
			<radialGradient id="光线_2_" cx="371.5809" cy="-125.574" r="351.025" gradientTransform="matrix(1 0 0 1 0 496)" gradientUnits="userSpaceOnUse">
			<stop  offset="0.2738" style="stop-color:#FFFFFF"/>
			<stop  offset="0.8763" style="stop-color:#FFFFFF;stop-opacity:0.42"/>
			<stop  offset="1" style="stop-color:#FFFFFF;stop-opacity:0"/>
		</radialGradient>
		<path id="光线_1_" class="st2" d="M137.4,419.1c43.3,9.9,88.7,16.9,135.6,21.1c8.5,98.4,32.6,192.7,69.5,280.1
			c3.1,0.3,6,0.4,9.1,0.6c-37.2-87.4-61.5-181.3-70.2-280.1c29.1,2.2,58.7,3.6,89,3.6c64.7,0,127-5.5,186.3-16
			C539.5,551.8,467.8,658,366.8,721.5c1.6,0,3.4,0,5.1,0c3.4,0,6.7,0,10-0.1c98-65.7,167-171.9,183-294.4
			c56-10.3,108.9-24.9,157.6-43.3c0.1-3,0.1-5.7,0.1-8.7c-48.5,18.5-101.1,33.2-156.8,43.5c1.6-15.4,2.5-30.9,2.5-46.6
			c0-147.4-76.5-277.4-191.7-352.5c-1.6,0-3.3,0-5.1,0c-3.4,0-6.7,0-10.2,0.1c119.1,72.3,198.5,203.3,198.5,352.4
			c0,16.3-1,32.3-2.8,48.1c-59.5,10.6-122.3,16.1-187.3,16.1c-30.3,0-60.3-1.3-89.6-3.6c-1.9-24.3-3-49-3-73.8
			c0-119.2,22.7-233.3,63.8-338c-3.1,0.3-6,0.4-9.1,1c-40.6,104.7-63,218.2-63,337.2c0,24.6,1,49,2.8,73.2
			c-47.1-4.2-92.6-11.5-135.8-21.2c-1.3-13.3-1.9-26.6-1.9-40.2c0-146.1,76.5-275,191.5-348.1c-6.6,0.7-12.8,1.9-19.3,3.1
			c-108.9,76-180.3,202.3-180.3,345.1c0,12.8,0.6,25.7,1.8,38.2c-37.3-8.8-73.3-19.7-107-32.3c0,3,0.1,5.7,0.3,8.7
			c33.9,12.5,70.1,23.5,107.6,32.3c13.7,123.2,80.8,230.5,177.6,298.2c6.4,1.2,12.8,2.2,19.3,3.1
			C223.9,653.3,152.2,544.7,137.4,419.1z"/>
		<g id="光点_1_">
			
				<radialGradient id="SVGID_1_" cx="564.1592" cy="-147.5046" r="13.6013" gradientTransform="matrix(1 0 0 1 0 496)" gradientUnits="userSpaceOnUse">
				<stop  offset="0.2738" style="stop-color:#FFFFFF"/>
				<stop  offset="0.8763" style="stop-color:#FFFFFF;stop-opacity:0.42"/>
				<stop  offset="1" style="stop-color:#FFFFFF;stop-opacity:0"/>
			</radialGradient>
			<circle class="st3" cx="564.1" cy="348.6" r="13.6"/>
			
				<radialGradient id="SVGID_2_" cx="447.7079" cy="-406.5698" r="13.5882" gradientTransform="matrix(1 0 0 1 0 496)" gradientUnits="userSpaceOnUse">
				<stop  offset="0.2738" style="stop-color:#FFFFFF"/>
				<stop  offset="0.8763" style="stop-color:#FFFFFF;stop-opacity:0.42"/>
				<stop  offset="1" style="stop-color:#FFFFFF;stop-opacity:0"/>
			</radialGradient>
			<circle class="st4" cx="447.8" cy="89.4" r="13.6"/>
			
				<radialGradient id="SVGID_3_" cx="492.5809" cy="105.8451" r="19.3289" gradientTransform="matrix(1 0 0 1 0 496)" gradientUnits="userSpaceOnUse">
				<stop  offset="0.2738" style="stop-color:#FFFFFF"/>
				<stop  offset="0.8763" style="stop-color:#FFFFFF;stop-opacity:0.42"/>
				<stop  offset="1" style="stop-color:#FFFFFF;stop-opacity:0"/>
			</radialGradient>
			<circle class="st5" cx="492.6" cy="601.8" r="19.3"/>
			
				<radialGradient id="SVGID_4_" cx="277.3498" cy="-60.4563" r="20.6939" gradientTransform="matrix(1 0 0 1 0 496)" gradientUnits="userSpaceOnUse">
				<stop  offset="0.2738" style="stop-color:#FFFFFF"/>
				<stop  offset="0.8763" style="stop-color:#FFFFFF;stop-opacity:0.42"/>
				<stop  offset="1" style="stop-color:#FFFFFF;stop-opacity:0"/>
			</radialGradient>
			<circle class="st6" cx="277.3" cy="435.7" r="20.8"/>
			
				<radialGradient id="SVGID_5_" cx="297.8669" cy="-338.624" r="20.8571" gradientTransform="matrix(1 0 0 1 0 496)" gradientUnits="userSpaceOnUse">
				<stop  offset="0.2738" style="stop-color:#FFFFFF"/>
				<stop  offset="0.8763" style="stop-color:#FFFFFF;stop-opacity:0.42"/>
				<stop  offset="1" style="stop-color:#FFFFFF;stop-opacity:0"/>
			</radialGradient>
			<circle class="st7" cx="297.8" cy="157.4" r="20.9"/>
			
				<radialGradient id="SVGID_6_" cx="160.081" cy="32.3709" r="17.1526" gradientTransform="matrix(1 0 0 1 0 496)" gradientUnits="userSpaceOnUse">
				<stop  offset="0.2738" style="stop-color:#FFFFFF"/>
				<stop  offset="0.8763" style="stop-color:#FFFFFF;stop-opacity:0.42"/>
				<stop  offset="1" style="stop-color:#FFFFFF;stop-opacity:0"/>
			</radialGradient>
			<circle class="st8" cx="160.1" cy="528.3" r="17.2"/>
		</g>
	</g>
	<polygon class="st9" points="453.4,474.2 413.4,485.2 410.4,670.3 473.3,705.2 524.3,686.5 	"/>
	<g>
		
			<linearGradient id="SVGID_7_" gradientUnits="userSpaceOnUse" x1="522.031" y1="459.6259" x2="681.8309" y2="299.826" gradientTransform="matrix(1 0 0 1 0 104)">
			<stop  offset="0.396" style="stop-color:#5E7893"/>
			<stop  offset="0.995" style="stop-color:#45627C"/>
		</linearGradient>
		<polygon class="st10" points="521.9,450.6 432.6,474.2 539.4,530.6 708,536.6 771.3,493.3 647,466.6 		"/>
		
			<linearGradient id="SVGID_8_" gradientUnits="userSpaceOnUse" x1="437.5382" y1="577.2377" x2="770.9096" y2="388.6196" gradientTransform="matrix(1 0 0 1 0 104)">
			<stop  offset="0.396" style="stop-color:#2B4453"/>
			<stop  offset="0.995" style="stop-color:#45627C"/>
		</linearGradient>
		<polygon class="st11" points="432.6,474.2 548.6,507.8 707.2,518.5 771.3,493.3 771.3,702.3 706.1,734.3 552.4,713.8 432.6,672.5 
					"/>
		
			<linearGradient id="SVGID_9_" gradientUnits="userSpaceOnUse" x1="549.181" y1="489.4259" x2="432.5809" y2="489.4259" gradientTransform="matrix(1 0 0 1 0 104)">
			<stop  offset="1.485149e-02" style="stop-color:#5E7893"/>
			<stop  offset="0.995" style="stop-color:#0E171E"/>
		</linearGradient>
		<polygon class="st12" points="549.2,507.8 548.6,507.8 432.6,474.2 432.6,672.5 549.2,712.7 		"/>
		
			<linearGradient id="SVGID_10_" gradientUnits="userSpaceOnUse" x1="528.9242" y1="572.8732" x2="731.0522" y2="458.5113" gradientTransform="matrix(1 0 0 1 0 104)">
			<stop  offset="0.396" style="stop-color:#5E7893"/>
			<stop  offset="0.995" style="stop-color:#45627C"/>
		</linearGradient>
		<polygon class="st13" points="549.2,507.8 549.2,712.7 552.4,713.8 706.1,734.3 706.1,518.4 		"/>
		<ellipse class="st14" cx="508.1" cy="474.7" rx="24.8" ry="8.1"/>
		<ellipse class="st14" cx="680.2" cy="497.6" rx="28.7" ry="12.5"/>
		<path class="st15" d="M483.3,471.9V295.3c0,0,4.6-91.1,117.5-93.4s105.3,152.5,105.3,152.5v138.8c0,0-29,25.2-52.6,0V320.1
			c0,0,2.4-76.3-58.7-76.3S530.7,306,530.7,306v165.1C530.6,471.1,506.2,486.4,483.3,471.9z"/>
		<path class="st16" d="M488.9,475.2c0,0-7.6-136.4,8.4-164.3v164.3H488.9z"/>
		<path class="st17" d="M667.6,498.7v-209c0,0-14.1-48.1-46.1-54.9l-3.6-22.4c0,0,62.6,32.9,72.4,84.7l1.4,9.4v192.2L667.6,498.7
			L667.6,498.7z"/>
		<path class="st16" d="M507.8,274.7c0,0,28.2-86.2,138.1-29c0,0-21-42.7-72.1-32.4C522.6,223.6,507.8,274.7,507.8,274.7z"/>
		<path class="st16" d="M651.5,264.5c0,0,18.3,17.7,16,40.1s0,194,0,194h9.2v-194C676.7,304.7,678.7,270.4,651.5,264.5z"/>
		<path class="st17" d="M501.8,312.5c0,0,3.4-67,58.3-75.6c0,0-25.1,11.8-37.5,32C509.7,290.1,501.8,312.5,501.8,312.5z"/>
		<line class="st18" x1="698.8" y1="493.6" x2="696.9" y2="300.2"/>
		<path class="st19" d="M509.2,479.1c0,0-8-173.9,14.9-212.2c22.9-38.3,66.4-34.9,66.4-34.9s-41.2,8-53.2,40.6s-17.2,37.2-14.9,57.8
			s0.6,145.9,0.6,145.9L509.2,479.1z"/>
		<line class="st18" x1="484.6" y1="471.2" x2="485.9" y2="297.9"/>
		<g>
			
				<linearGradient id="SVGID_11_" gradientUnits="userSpaceOnUse" x1="774.0245" y1="416.2661" x2="432.1826" y2="416.2661" gradientTransform="matrix(1 0 0 1 0 104)">
				<stop  offset="0.3663" style="stop-color:#FFFFFF"/>
				<stop  offset="1" style="stop-color:#007EE9"/>
			</linearGradient>
			<polyline class="st20" points="433.6,496.5 548,533.9 705.2,543.8 772.3,515.6 			"/>
			
				<linearGradient id="SVGID_12_" gradientUnits="userSpaceOnUse" x1="774.0245" y1="442.4661" x2="432.1826" y2="442.4661" gradientTransform="matrix(1 0 0 1 0 104)">
				<stop  offset="0.3663" style="stop-color:#FFFFFF"/>
				<stop  offset="1" style="stop-color:#007EE9"/>
			</linearGradient>
			<polyline class="st21" points="433.6,522.7 548,560.1 705.2,570 772.3,541.8 			"/>
			
				<linearGradient id="SVGID_13_" gradientUnits="userSpaceOnUse" x1="774.0245" y1="468.666" x2="432.1826" y2="468.666" gradientTransform="matrix(1 0 0 1 0 104)">
				<stop  offset="0.3663" style="stop-color:#FFFFFF"/>
				<stop  offset="1" style="stop-color:#007EE9"/>
			</linearGradient>
			<polyline class="st22" points="433.6,548.9 548,586.3 705.2,596.2 772.3,568 			"/>
			
				<linearGradient id="SVGID_14_" gradientUnits="userSpaceOnUse" x1="774.0245" y1="494.8661" x2="432.1826" y2="494.8661" gradientTransform="matrix(1 0 0 1 0 104)">
				<stop  offset="0.3663" style="stop-color:#FFFFFF"/>
				<stop  offset="1" style="stop-color:#007EE9"/>
			</linearGradient>
			<polyline class="st23" points="433.6,575.1 548,612.5 705.2,622.4 772.3,594.2 			"/>
			
				<linearGradient id="SVGID_15_" gradientUnits="userSpaceOnUse" x1="774.0245" y1="521.0661" x2="432.1826" y2="521.0661" gradientTransform="matrix(1 0 0 1 0 104)">
				<stop  offset="0.3663" style="stop-color:#FFFFFF"/>
				<stop  offset="1" style="stop-color:#007EE9"/>
			</linearGradient>
			<polyline class="st24" points="433.6,601.3 548,638.7 705.2,648.6 772.3,620.4 			"/>
			
				<linearGradient id="SVGID_16_" gradientUnits="userSpaceOnUse" x1="774.0245" y1="547.3156" x2="432.186" y2="547.3156" gradientTransform="matrix(1 0 0 1 0 104)">
				<stop  offset="0.3663" style="stop-color:#FFFFFF"/>
				<stop  offset="1" style="stop-color:#007EE9"/>
			</linearGradient>
			<polyline class="st25" points="433.6,627.6 548,664.9 705.2,674.8 772.3,646.6 			"/>
			
				<linearGradient id="SVGID_17_" gradientUnits="userSpaceOnUse" x1="774.0297" y1="573.5659" x2="432.186" y2="573.5659" gradientTransform="matrix(1 0 0 1 0 104)">
				<stop  offset="0.3663" style="stop-color:#FFFFFF"/>
				<stop  offset="1" style="stop-color:#007EE9"/>
			</linearGradient>
			<polyline class="st26" points="433.6,653.8 548,691.1 705.2,701.1 772.3,672.8 			"/>
		</g>
	</g>
</g>
</svg>
