<?xml version="1.0" encoding="utf-8"?>
<!-- Generator: Adobe Illustrator 21.0.0, SVG Export Plug-In . SVG Version: 6.00 Build 0)  -->
<svg version="1.1" id="图层_1" xmlns="http://www.w3.org/2000/svg" xmlns:xlink="http://www.w3.org/1999/xlink" x="0px" y="0px"
	 viewBox="0 0 714 828" style="enable-background:new 0 0 714 828;" xml:space="preserve">
<style type="text/css">
	.st0{fill:url(#底部_1_);}
	.st1{fill:url(#暗角反光_1_);}
	.st2{fill:url(#中高光_1_);}
	.st3{fill:url(#顶-背景_1_);}
	.st4{fill:url(#顶-背景_2_);}
	.st5{fill:#043977;}
	.st6{fill:url(#面板_1_);}
	.st7{fill:#073A76;}
	.st8{fill:url(#高光_1_);}
	.st9{fill:url(#body_1_);}
	.st10{fill:url(#地面_1_);}
	.st11{fill:url(#光线_1_);}
	.st12{fill:url(#SVGID_1_);}
	.st13{fill:url(#SVGID_2_);}
	.st14{fill:url(#SVGID_3_);}
	.st15{fill:url(#SVGID_4_);}
	.st16{fill:url(#SVGID_5_);}
	.st17{fill:url(#SVGID_6_);}
	.st18{opacity:0.69;fill:url(#SVGID_7_);}
</style>
<g>
	
		<linearGradient id="底部_1_" gradientUnits="userSpaceOnUse" x1="55.4276" y1="-4920.3604" x2="654.4576" y2="-4920.3604" gradientTransform="matrix(1 0 0 -1 0 -4390.7695)">
		<stop  offset="0" style="stop-color:#E7EFF5"/>
		<stop  offset="0.2574" style="stop-color:#C3C5D2"/>
		<stop  offset="0.3352" style="stop-color:#C6C8D5"/>
		<stop  offset="0.3997" style="stop-color:#CED3DD"/>
		<stop  offset="0.4592" style="stop-color:#DDE4EC"/>
		<stop  offset="0.4655" style="stop-color:#DFE6EE"/>
		<stop  offset="0.5693" style="stop-color:#98A5B5"/>
		<stop  offset="0.995" style="stop-color:#7E8EA0"/>
	</linearGradient>
	<path id="底部_4_" class="st0" d="M16.1,235.8v353.7c0,15.1,7.9,29.1,20.7,36.9l276.6,183.9c28.8,17.5,64.8,17.5,93.6,0
		l265.7-183.9c12.8-7.9,20.7-21.9,20.7-36.9V239.1L16.1,235.8z"/>
	
		<linearGradient id="暗角反光_1_" gradientUnits="userSpaceOnUse" x1="15.1815" y1="-4922.0039" x2="660.3282" y2="-4922.0039" gradientTransform="matrix(1 0 0 -1 0 -4390.7695)">
		<stop  offset="0" style="stop-color:#C3C6D2"/>
		<stop  offset="0.1409" style="stop-color:#C3C6D2;stop-opacity:0"/>
	</linearGradient>
	<path id="暗角反光_4_" class="st1" d="M16.1,239.2v350.3c0,15.1,7.9,29.1,20.7,36.9l276.6,183.9c28.8,17.5,64.8,17.5,93.6,0
		l265.7-183.9c12.8-7.9,20.7-21.9,20.7-36.9V239.1L16.1,239.2L16.1,239.2z"/>
	
		<linearGradient id="中高光_1_" gradientUnits="userSpaceOnUse" x1="348.7914" y1="-5370.8843" x2="348.7914" y2="-5101.5083" gradientTransform="matrix(1 0 0 -1 0 -4590.7695)">
		<stop  offset="0" style="stop-color:#FFFFFF;stop-opacity:0"/>
		<stop  offset="1" style="stop-color:#FFFFFF;stop-opacity:0.3"/>
	</linearGradient>
	<path id="中高光_2_" class="st2" d="M310,392.1h57.6v431c-18.7,1.5-37.6-2.8-54.1-12.8l-3.6-2.3L310,392.1L310,392.1z
		 M374.2,391.4v430.8c4.5-0.7,9.1-1.8,13.4-3.2V391.4L374.2,391.4L374.2,391.4z"/>
	
		<linearGradient id="顶-背景_1_" gradientUnits="userSpaceOnUse" x1="151.8936" y1="-4756.208" x2="509.1655" y2="-4554.0674" gradientTransform="matrix(1 0 0 -1 0 -4390.7695)">
		<stop  offset="0" style="stop-color:#DFE6EE"/>
		<stop  offset="0.5" style="stop-color:#F5F7F8"/>
		<stop  offset="0.995" style="stop-color:#ABB6C3"/>
	</linearGradient>
	<path id="顶-背景_4_" class="st3" d="M679.5,267.9L408.7,433.4c-29.9,18.2-67.4,18.2-97.3,0l-286-174.8
		c-14.1-8.6-12.6-29.7,2.6-36.3L329.4,93.4c19.6-8.4,41.8-8.4,61.3,0l285.1,122C697.9,224.9,700.1,255.4,679.5,267.9z"/>
	<radialGradient id="顶-背景_2_" cx="354.6997" cy="267.0857" r="233.9029" gradientUnits="userSpaceOnUse">
		<stop  offset="0" style="stop-color:#003AAA"/>
		<stop  offset="0.995" style="stop-color:#00366A"/>
	</radialGradient>
	<path id="顶-背景_5_" class="st4" d="M634.6,267.7L401.3,410.4c-25.7,15.7-58.1,15.7-83.8,0L70.9,259.8
		c-12.2-7.4-10.9-25.6,2.2-31.2l259.7-111.1c16.9-7.2,36-7.2,52.8,0l245.7,105.1C650.5,230.7,652.3,257,634.6,267.7z"/>
	<g id="装饰_4_">
		<path class="st5" d="M477.1,687.5l7.3-5.1v33.5l-7.3,5.1V687.5z M493.9,709.4l7.3-5v-33.7l-7.3,5.1V709.4z M510.7,698l7.3-5v-33.9
			l-7.3,5.1V698z M527.4,686.4l7.3-5v-34l-7.3,5.1V686.4z M544.2,675l7.3-5v-34.2l-7.3,5.1V675z M561,663.5l7.3-5v-34.4l-7.3,5.1
			V663.5z M577.8,652l7.3-5v-34.6l-7.3,5.1V652z M594.5,640.5l7.3-5v-34.7l-7.3,5.1V640.5z M611.3,628.9l7.3-5V589l-7.3,5.1V628.9z
			 M628.1,582.5v35l7.3-5v-35L628.1,582.5z"/>
	</g>
	<g id="前面板_2_">
		
			<linearGradient id="面板_1_" gradientUnits="userSpaceOnUse" x1="36.8458" y1="236.0209" x2="316.8906" y2="270.3977" gradientTransform="matrix(1 0 0 1 0 288.75)">
			<stop  offset="0" style="stop-color:#3EADED"/>
			<stop  offset="1" style="stop-color:#0B528D"/>
		</linearGradient>
		<path id="面板_4_" class="st6" d="M296.4,773.2c-4.4,0-8.8-1.4-12.6-4L61.9,621.6c-17-11.8-27.1-31.5-27.1-52.6V333.2
			c0-12.4,9.8-22.6,21.8-22.6c3.9,0,7.8,1.2,11.2,3.3l226.4,137.5c15.4,9.7,24.9,27.2,24.9,45.8v252.4
			C319.2,764.2,307.4,773.2,296.4,773.2z"/>
		<path id="边_4_" class="st7" d="M56.7,311.5c3.7,0,7.5,1.1,10.8,3.2l226.3,137.5c7.5,4.7,13.7,11.3,17.9,19.2
			c4.3,7.9,6.6,16.9,6.6,25.9v253.3c0,6.3-2.3,12.1-6.7,16.3c-4.1,4-9.7,6.4-15.3,6.4c-4.3,0-8.4-1.3-12.2-3.9L62.5,620.9
			c-16.8-11.6-26.7-31-26.7-51.9V333.3C35.7,321.3,45.2,311.5,56.7,311.5L56.7,311.5 M56.7,309.8c-11.8,0-22.7,9.7-22.7,23.4V569
			c0,21.4,10.3,41.3,27.5,53.2l221.9,148.6c4.1,2.8,8.6,4.2,13.1,4.2c12.3,0,23.6-10,23.6-24.4V497.2c0-19-9.7-36.6-25.3-46.5
			L68.4,313.2C64.6,310.9,60.6,309.8,56.7,309.8L56.7,309.8z"/>
	</g>
	
		<linearGradient id="高光_1_" gradientUnits="userSpaceOnUse" x1="72.9179" y1="-5056.8223" x2="72.9179" y2="-4784.1147" gradientTransform="matrix(1 0 0 -1 0 -4490.7695)">
		<stop  offset="0" style="stop-color:#FFFFFF;stop-opacity:0"/>
		<stop  offset="1" style="stop-color:#FFFFFF;stop-opacity:0.5"/>
	</linearGradient>
	<polygon id="高光_13_" class="st8" points="88.3,593.8 57.6,593.8 57.5,278.3 88.3,297.3 	"/>
	<g id="地球_5_">
		
			<radialGradient id="body_1_" cx="314.8855" cy="-4543.167" r="219.4857" gradientTransform="matrix(1 0 0 -1 0 -4389.0449)" gradientUnits="userSpaceOnUse">
			<stop  offset="0.1458" style="stop-color:#91D9FF"/>
			<stop  offset="0.8886" style="stop-color:#1156A3"/>
			<stop  offset="1" style="stop-color:#0A396F"/>
		</radialGradient>
		<path id="body_5_" class="st9" d="M358.8,403.3c-105.5,0-191.4-85.9-191.4-191.5S253.2,20.2,358.8,20.2s191.4,86,191.4,191.5
			S464.5,403.3,358.8,403.3z"/>
		
			<radialGradient id="地面_1_" cx="299.6071" cy="-4531.52" r="238.0774" fx="382.6213" fy="-4532.1772" gradientTransform="matrix(1 0 0 -1 0 -4389.0449)" gradientUnits="userSpaceOnUse">
			<stop  offset="0.155" style="stop-color:#F3F5F7;stop-opacity:0.8"/>
			<stop  offset="0.7377" style="stop-color:#D5D9DF;stop-opacity:0.3"/>
			<stop  offset="1" style="stop-color:#D4D8DE;stop-opacity:0"/>
		</radialGradient>
		<path id="地面_5_" class="st10" d="M263.5,363.1h-0.2l-0.7-0.7l0,0l-0.3-0.6l-0.6,0.2v-0.1l-0.3-0.6L261,361v-0.1l-0.3-0.3v-1.4
			l0.6-0.3v-1.4l-0.3-0.1l0.2-0.4l-0.9-1.1v-1l0,0v-0.1v-0.3l0.7-0.7l-0.1-0.7l0.6-0.2l0.7-0.7v-1l0.4-0.3h0.3l0.3-1.2l0.4-0.3
			l0.6-1.6l-0.1-0.3l0.1-0.3v-0.4l-0.3-0.7V346l-0.4-1.5v-0.8l-0.2-0.2l0.6-0.3l-0.7-0.8l0.9-1.1l-0.1-0.1l1-0.8l-0.3-0.4h0.4
			l0.6-0.3l0.3,0.4l0.6-0.6h1.7v-0.1l0.1,0.1l0.2-0.3l0.3,0.3h1.1l0.8-1.1l0,0l1.2-0.6l0.3-0.9v-0.1l0.7-0.7l0.3,0.4l1.3-1.3v-0.9
			l0.7-0.7l-0.3-0.3l0.4-0.7v-0.1h0.3l0.9-1.1v-0.9l0.4-0.6v-0.1l0.7,0.4v1l0.3,0.6v0.7l-0.4,0.4l0.4,1.2v1.1l0.6,0.7l-0.1,0.1
			l-0.3-0.3h-1.8v2.3l-0.3,0.3l0.7,0.7l-0.3,0.3v0.3l-0.8,0.7v1.3l0.3,0.3l-0.2,0.3l-0.2,0.4l-0.3,1.1L275,345l-0.6,0.9l-0.2,0.6
			l-0.3,1v0.7l-0.4,0.6l-0.7,2.4l-0.8,1l-0.3,1.2l-0.1,0.4l-0.3,0.9l-0.4,1.7l-0.1,0.2h-1v1.2l-1.1,0.7l0.7,0.7l-0.4,0.3v0.7
			l-0.3,0.7l-0.3,0.6l-0.4,0.4l-0.3,0.2l-0.6-0.1l-2.1,0.2l-0.4,0.7l-0.3,0.2h-0.7L263.5,363.1L263.5,363.1z M236,350.7
			c-40.6-35.3-63.9-86.1-63.9-140c0-2.9,0.1-5.9,0.2-8.9l0.9,1.1l1.4,0.9l0.2-0.1l0.9,0.9l0.4-0.4l0.2,0.2l1,0.8h0.3l0.3,0.1
			l0.7,0.7l1.9,0.3l1.7-0.2l0.7,0.2h1.3l0.9,0.6l1.3,0.2l0.2,0.3v0.7l0.9,2.1l1.3,0.9h1.6l0.1-0.1l0.4,0.1l1.9,0.7l1.1,0.4l0.7,0.4
			l1.1,1l1.7,0.8l1.1-0.4l1.1-0.8l1.1-1.1l0.3-1l-0.3-1.5l-0.4-0.6l0.1-0.8l0.2-0.2l0.3-0.7l0.3-0.3l0.8-0.4l1.5-0.3l0.6-0.4
			l0.8,0.3l0.2-0.2l0.9,0.2h0.4l1.9,1.1v-0.7h0.3l0.2,0.2l2.3,0.3l0.4-0.2h0.1l0.3,0.3l0.7,1.9l0.9-0.9l0.7,0.1l2.1,0.3l0.7,0.2
			l1.1,1l0.4-0.4l0.7,0.3h1.3l0.9,0.6h1.5l0.9-0.9l0.7-0.3l0.3-0.3h0.1l0.3,0.3l1-0.3h1.7l0.3,0.7l0.6,0.3l0.4,1.1l-0.2-0.2
			l-1.1,1.2v1.1l0.6,0.7v0.6l1.1,1.4l0.3,0.7l1.4,1.5v0.1l-0.2,0.3v1.1l0.9,1v0.3l0.3,0.3l0.2,0.8l0.2,0.4v1l1.7,2.6l0.3,1l0.7,0.3
			l0.8,1.1l0.3,0.8l0.4,0.4v0.6l0.2,0.2l-0.3,0.3l0.9,2.2l1.1,0.9h0.6l0.1,0.3l0.8,0.3l0.8,0.8l0.2,0.1v0.6l0.3,0.3v0.3l0.3,0.3v0.3
			l0.3,0.3l0.1,0.3l-0.1,0.1v1.1l0.7,2.1l0.2,0.8l-0.2,1l0.3,1.6l0.8,1.3l0.8,0.3l0.7,0.3v0.8h-1.1l2,2l1,2.7l0.7,2.8h0.3v0.3
			l0.3,0.3l0.2,0.3l0.3,1l2.1,0.9v-0.1l0.3,0.3l0.3-0.3l0.3,0.3l0.3-0.3l0.3,0.3l0.7,0.3l0.1,0.1l0.9,1l0.7,0.7l0.6,0.3l0.7,0.7h0.3
			l0.3,0.7l0.3,0.3l0,0l0.7,1.7h0.7l1,0.3l0.2,0.2l0.1,0.3l-0.2,0.2h-0.4l-0.3,0.6h-2.4l2.1,2.1h0.8l0.4-0.2l1.6,1.8l0.3,1h0.4
			l0.4,0.4l1.1,0.4l1.1-0.3l0.3-0.3l0.3-0.3h0.6l0.7-0.4l0,0h1.6l0.1-0.1l0.3,0.1l1.1-0.3l1.6-1.1l0.2-0.1l0.6,0.3l0.7-0.3h0.7
			l0.7-0.3h0.3l0.3,0.3h0.7l1.7-0.3l0.7-0.3h0.1l0.4,0.4l0.7-0.7l0.7-0.3l0.4-0.4h1.3l-0.4,0.4l0.6,0.6l-0.3,0.9l0.6,0.6v0.1
			l-0.7,1.4h0.3l-2.1,2.1h1.1v0.3l-0.8,1.3l-0.6,1.3l-0.2,0.2h-0.3l-1.1,1.1v0.8l0.1,0.3l-1.6,3v0.7l-0.9,1.5v0.3l-1.7,2.3l-0.2,0.6
			l-0.6,0.6l-1.4,1.6l-2.8,2.5l-1.1,0.9l-0.9,0.3l-0.8,0.7l-0.9,0.7l-1.7,1.9l-0.6,0.3l-1.6,1.7l-0.3,0.3l-0.2,0.3l-0.3,0.2
			l-0.8,0.8l-0.3,0.7l-0.4,0.6V297l-2.2,2.5h-0.2l-0.7,0.7l-0.3,0.1l-0.7-0.1h-0.1l-0.7,0.7v0.3l-0.6,0.6v1.1l-0.9,0.9v0.7l-0.4,0.7
			l-0.7,1.2l-0.1,0.1h-2.4l1.4,1.4l0,0l-0.7,2l-0.7,1.1v1.2l0.4,0.3l0.2,0.9l-0.4,0.4l-0.3,0.9v1.5l0.4,0.4l-0.3,0.3l0.3,0.6H247
			l1.6,1.6l0.2,0.4l-0.3,0.7l0.6,0.6l0.1,0.2l-0.3,0.8l1.4,1.4l0.7,0.3l0.2,0.2v0.3l0,0l-0.7,0.7l0.3,0.3l-0.3,0.3v0.9l-0.1,0.1
			l0.3,1.4v0.1l-0.1,0.1v1.4l0.2,0.2l-0.3,0.3l0.3,1l-0.1,0.6h-1.6l0.9,0.9v0.9l0.7,0.7h0.2l0.1,0.3l0.1,0.6l-0.7,0.7l0.1,0.1
			l-0.9,0.9l0.9,0.9l-0.2,0.3v0.3l-0.1,0.1h-1.1v0.9l-1.1,0.6h-0.7l-0.2,0.4l-1,0.6l-1.4-0.6v0.9l-0.2,0.1l-0.6,0.3l-1.2-1.2v0.7
			l-0.2-0.6l-0.9,2.8l-0.2,0.2l-0.2,0.4l-1.1,0.7v0.3l-0.2,0.2h-0.3l-2.3,1.4l0.1,0.3h-0.4l-0.1,0.1l-0.2-0.1h-1.2v1.5l0.2,0.2
			l-0.3,0.4l0.3,0.8l-0.3,0.7l0.7,0.9l-0.4,0.4L236,350.7L236,350.7z M424.6,310.2h-1l-1.6-1.6h-0.7v-0.4l-1.5-0.8l-0.8-1.1
			l-0.3-0.1v-0.6l-0.8-0.4v-0.6l-1.1-0.2l-0.2-0.6l-1.1-1.2l-0.7-0.4l-0.2-0.3l0.3-0.9l-1.1-1.8l-0.3-1.4l-0.7-0.7l-0.3-0.7v-0.9
			l-1.3-0.8l-0.4-0.1v-0.2l-0.6-1.5v-0.2l-0.2-1l-0.2-0.1v-1.1H409l-0.2-0.1l-0.7-1.1h-0.7l-0.1-0.3l-0.1-0.1v-1.5h-0.9l-0.6-0.3
			l-0.8-1.5l-1.6-1.1l-0.3,0.3l-0.7-1H402l-0.9-1.1l-0.6-0.2l-0.4-0.8v-0.1h0.1l1.1,1l1,0.3l0.9-0.3h0.2l0.3,0.3l1-0.3h0.1h0.1
			l0.4,0.9h0.2l0.2,0.7l0.4,0.1v0.2v1.4h1.3l0.7,0.7h0.7l1,0.8l0.6,0.7h0.4v0.7l1.2,2.1h-0.6l3.1,1.2v0.2l1.1,0.8l0.4-0.3l0.7,0.7
			v0.7l1.2,1.4l0.3-0.1l-1.2,1.2h2.7l-2.9,3.9l3.4-2.1v0.2l1.3,1.3h0.7v0.7l0.9-0.3v0.1l0.1,0.3l-0.1,0.3l1,0.3l-0.7,0.2l0.3,0.4v1
			l1.5,0.6l0.4-0.2l0,0l0.3,0.3l0.3,0.4l0.4,0.4l-0.2,0.1l-0.3,2l0.2,0.2l-0.4,0.9l0.3,0.9l-0.3,1.1l-1.2-0.3l-0.2,1L424.6,310.2z
			 M463.6,309.4l0.4-0.6v-0.7l0.3-0.3h0.3v0.2l-0.1,0.4l-0.4,0.4v1.1h-0.4l-0.1,0.1L463.6,309.4L463.6,309.4z M469.5,306.6l-1.1-0.6
			l-0.3-0.3l0.3-0.3v-1.3l-0.6-0.9l-0.8-0.8l-1.5,0.6l-0.3,0.4l-0.8,0.6v1l0.3,0.7l0.2,0.3l-0.7,1.5l-0.6-1.1v-1.3h-1.6V305h0.1
			v-0.7v-0.1l0.9-0.4V303l0.3-0.3v-0.7l0.2-0.3l-0.1-0.9l0.4-0.7l-0.3-0.7l0.3-0.1l0.3-0.6l0.1-0.1v0.1l0.7,1l0.9,0.9l0.6,0.2l1,0.3
			v0.7l0.7,0.6l0.3,0.6l0.7,0.7l0.3,1l-0.7,0.9h0.6l0.4,1.4l0.3,0.1v0.3h0.3v0.1l-0.6,0.1l-0.3,0.3v-1.3L469.5,306.6L469.5,306.6z
			 M451.1,305.9l-0.8-1.1H450l-0.2-0.6l-0.7,0.3l-0.9-1.2l-0.3,0.6l-0.7,0.1l-0.3-0.3h-1.5l-0.2,0.7l-0.6,0.2l-0.3-0.3l-0.6,0.3
			v-0.9l-0.8-1.7l-0.9,1.3l-0.2-0.1l-0.7,0.4h-0.1l-0.3-0.3h-0.4l-0.3-0.9l-0.7,0.6v-1.7l-0.3-0.2l0.3-0.3v-1.2L439,299l-0.6-0.7
			h0.1l4.6-4.6l-5.5,2.7h-0.2l-0.7-0.7l-0.4-0.7v-0.6l0.1-0.6v-0.6l0.3-0.3l0.7-1.1l0.4,0.7h1.1l1,0.6l2.3,0.4v-1.1l0.3-0.8v-0.7
			l0.6,0.3v-0.7l2.9,1.5l-1.9-2.8l1.6-0.4l1-0.7l0.7-1.1l0.1-0.3l0.7-0.8l1.2-1.2V284l0.1-0.2l0.8-0.2v3.2l1.7-3.2l0.3-0.1l0.1-0.1
			l0.6-0.1l0.3-1l0,0l1.5-1.5v-0.7l0.3-0.7h0.4l0.1-0.4h0.3l0.3-0.3l0.7,1v1.2h0.7l0.2,0.1l0.7,0.9v1.5l-1.6-1.3v1.6h-0.3v0.7
			l-1.7,0.8l1.2,0.4l-0.2,0.2l0.6,1.1l-0.7,0.9l1,0.7l0.1,0.6l0.7,0.7l-1.6,1.1l1.1,0.6l0.4,2l-0.7,1l-0.3,0.1v1.4l-0.3,0.3v0.9
			l-0.8,0.7l0.1,0.4h-3.2l2.3,1.5l-0.3,0.3h-2.2l1.1,1.1l-2.8,2.8l2.6-1.1v1.9l-0.4,0.8l-0.6,0.3h-0.6l-0.6,0.2L451.1,305.9
			L451.1,305.9L451.1,305.9z M481.9,305.5L481.9,305.5v-0.2h0.3l0.2,0.1l0,0h-0.6L481.9,305.5L481.9,305.5z M468.2,300.2l0.3-0.7
			l0.2-0.2l0.4,0.3l0.7-0.2h0.4l0.4-0.3l-0.1,0.1l-0.4,0.3l-1.1,0.3l-0.3,0.3L468.2,300.2L468.2,300.2z M467.1,294.3l-0.2-0.1
			l0.7-0.7l0.3,0.6l0.2,0.1l-0.7,0.2L467.1,294.3L467.1,294.3z M420,292.3l-0.4-0.2l-0.8-0.2l-0.6-0.6l0.9-0.7h-1.5l-0.3-0.3
			l-0.9,0.3l-1.4-1.7l0.3-0.3l-0.7-1.4l-0.7-0.3l-0.4-0.6l-0.4-0.3l0.3-0.3l-0.9-0.9l0.1-0.1l0.3-1.4l-0.3-0.8l-0.2-0.6l-0.3-2.2
			l-0.7-1.1l-0.3-0.3l-0.7-0.3v-1.1h-0.6l-0.2-0.3l-0.4-0.2l-1-1.1H408l-0.2-0.7l-0.4-0.2v-0.4l-0.3-0.3v-1.2l-1.1,0.4V273l0.1-0.1
			v-2.3h-0.3l0.3-0.3l-0.3-0.3l0,0l0,0l-0.1-0.1l0.4-1.1l0.2,0.6v0.3l0.4,0.6l-0.3,0.7l1,1l1.7-0.3v0.3l0.7,0.7l0.3,0.6h0.3l0,0v0.7
			l0.3,0.3l-1.1,0.4v1.8l1.4,0.4l1.7,1.7l0.7-0.7h0.8l0,0l0.1,0.3l0.3,1l0.3,0.2v0.6h1.7l0.1,0.1l1.9,1.9l0.4,0.7l0.1,0.3L419,283
			v1.5l-0.3,0.3v1.3l0.3,0.3v0.7l-1.1,0.7l1.6,1.6l0,0l0.3,0.7l0.3,0.3v0.3l0.3,0.3l0.3,0.7v0.6l-0.8-0.8v1.2l-0.2,0.2L420,292.3z
			 M413.5,290.7l0.2-0.7h0.1l0.6-0.6l0.1,1.2L413.5,290.7L413.5,290.7z M412.1,290.7l0.3-0.4l0.4,0.4H412.1z M459.7,281.6
			L459.7,281.6L459.7,281.6L459.7,281.6z M477,278.6h-0.7l0,0l-0.2-0.6v-0.2l1.6,1.1l-0.1,0.1L477,278.6z M359.8,278.8l-0.3-1.4
			l-0.3-0.9l0.2-0.3l-0.3-0.9v-0.6l0.2-0.9h2.1v0.3h0.7l0.1,0.2l0.7,1.4h0.1l-0.1,0.4l0.2,0.2v1v0.1l-0.4,0.7l-0.4,0.4l-0.4,0.2
			h-1.2l-0.3,0.2L359.8,278.8z M476.2,275.6l-0.3-0.3l-0.7-0.7l0.8-0.3v-0.1l1.6-0.8V273l0.3,0.3l0.7-0.9l0.8,0.7v-1.9l0.4,0.4
			l-0.3,0.7l0.4,1.3h0.1v1.6l-1.3,0.3l-0.8,1.6l-0.3,1.1l0.6,0.3l-0.3,0.3L476.2,275.6z M481,275.6L481,275.6L481,275.6L481,275.6
			L481,275.6z M473.1,273.3h0.3l-0.2,0.3L473.1,273.3z M359.2,272.5h0.6v-1h0.3v0.1v1h0.2l-1.1,0.7L359.2,272.5L359.2,272.5z
			 M350.1,272.3l-0.4-0.3l-0.6-0.7l-0.8-1.7v-0.9l-0.3-1.2l-0.6-0.9v-1.3H347v-0.1l-0.3-1l-0.8-1.1l-0.9-1.1h-0.3l-0.3-0.3l-0.3-0.7
			l-0.2-0.2l-0.2-0.8l-0.3-0.7l-0.6-1.2l-0.2-0.7l-0.4-1v-1.6h-0.7l-0.2-0.2V254H341l-0.1-0.3v-0.3l-0.3-0.3l-0.3-0.9l-0.7-0.3
			l-0.3-0.7v-1.5l-1-2.1v-0.3h0.8l-1.4-2.1l0.3-0.3l-0.3-1v-0.7l-0.7-1.6v-0.1l1.9-0.8l-2-0.8l0.2-0.3v-1l-0.3-1l-0.2-0.2l-0.1-0.3
			h0.1l0.1-0.1h5.2l-4.9-2l3.8-3.8l-4,1.6l-0.3-0.3l-0.3,0.1l-1.6-3.9v5.2l-0.8,1.4l0.7,0.7v0.2L334,237v0.1l-0.4,0.3l-1.4,0.9
			l-0.3,0.1l-0.4-0.1l-2-1.4l-0.7-0.7v-0.8h-0.1V235l0.4-0.4h0.3l0.6-0.7h3.1l1-2.3h-2.8v0.7l-0.9,0.6l-1.6-0.6l-0.6-0.7l0.2-0.2
			l0.3-0.2l-0.7-1.7l-0.8,0.3l-0.6,0.4l-0.9-0.6H325l-0.2-0.4v-0.1l-0.1-0.1l0,0l0,0l-0.3-0.3l-0.3-0.9l-0.4-0.4v-1.4l-1.2,0.4v-0.1
			h-0.9l-0.3-1l-1-1h-1.2l-0.4,0.2l-0.2-0.1l-0.7-0.7l-0.7,0.7h-0.3l-0.3,0.2l-0.3-0.2h-1.5l-0.4,0.4l-0.2-0.2h-0.6l-0.3-0.3h-1.2
			l-0.3-0.2l-0.9,0.9v0.3h-1.1l-0.6,0.3h-0.7v-0.3h-1.7l-0.3,0.3l-0.1,0.1l-0.6-0.2l-0.2-0.1l-0.3-0.8h-1.4L304,225l-0.4-0.2
			l-0.3,0.3l-0.2-0.1h-1.4l-0.7-0.3l-1.2,0.2l-0.7-0.6h-0.9l-0.2,0.2l-0.2-0.2h-2V224l-0.7-1.1l-0.3-1l-0.4-0.7v-0.3h-0.3l0,0
			l-1.9-0.4l-1,0.3l-0.6,0.4h-0.6l-1.2,0.8l-0.4,0.3l-0.7-0.4l-1.3-0.3l-0.7,0.3l-0.7-0.4h-0.7l-0.7-0.3l0.2-0.2l-1.1-1.1h-0.6
			l-0.3-0.3h-0.8l-0.1-0.1l-1.1-0.3l-0.8,0.2l-0.6-1.4l-0.7-1.9l-0.6,0.6l-0.2-0.2h-2.1l-0.3-0.6h-0.7l-0.2-0.4l-0.8-1.1v-0.4
			l-0.8-0.9l-0.9-0.9l-0.6,0.6l-0.3-0.7l-0.7,0.7l-0.3-0.3h-0.3V211l-1.6,1.6H264l2.8,1.1l-0.1,0.3v0.7l0.1,0.4l-2.8,0.4l2.1,1.4
			h-0.7l2,2v0.1l0.3,0.3l0.2,0.3l0.7,1.9l1,0.3l0,0l1.1,1.1h0.2l0.3,0.4l1.2,3.2l1.4,1.6l0.3,0.7l1.3,1.3l0.7-0.7v0.7h0.6l0.3,0.8
			h0.4l0.1,0.1l0.3,1.5l1.4-0.6h0.3l0.9,0.3l1.1-1l0.7,0.2l0.3-0.1l0.3,0.3h1.1l1-0.3l0.1-0.1h0.7v-0.4l1.7-1.7l-0.7-0.7l1.4-1.4
			l0.3,0.3l0.3,1.7l1.1,1.2l0.3,0.3l1.6,1.4l1.2,0.6l0.3-0.3h0.1l1.4,0.3l0.7-0.3h2.8l0.3,0.6l0.3,0.8l0.7,0.7l0.3,0.7l1.3,0.9
			l0.2,0.1l-0.1,0.3v0.3l-0.1,0.3l-0.9,1.3l-0.7,0.7l-0.2,0.3l-0.3-0.3l-0.3,0.3v-3l-1.5,3.8h-1l0.7,0.7l-0.7,1.6h0.7l0.1,0.3
			l-0.6,0.1l-0.2-0.2l-1.3,0.6l-1.2,1.7v0.6l-0.9,0.3h-0.4l-1,1v1.3l-0.1,0.1l-0.3-0.2l-0.7,0.3h-0.7l-0.9,0.6h-0.9l-0.1,0.3
			l-0.3-0.3l-0.7,0.7l-0.3,0.1l-1.2,0.3l-1.1,1.3l-0.4,1.1l-0.6,0.1l-0.7,0.7l-0.8,0.4l-1.7,0.3l-0.3,0.3l-2.5,0.8h-0.3l-1,0.3
			l-0.7,1.1l-0.1,0.1l-0.3-0.3l-0.7,0.7l0,0h-1.4l-1.5,1.1v0.1l-0.7,0.2l-1,0.4l0,0l-0.3-0.3h-0.7l-0.3-0.3h-1.3l-1.1,1.1l-0.1,0.3
			l-0.6,0.7h-1.3l-0.7,0.7h-0.1l-0.9-0.3l-0.1,0.1l-0.1-0.3l-0.6-0.6l0.1-0.1v-1.7l-0.7-0.7l-0.2-2.4l-0.4-0.6v-0.1h0.3v-1.6
			l-0.3-1.6l-0.3-0.7l-0.7-1.9l-0.8-0.2l-0.3-1.4h-0.7l-1.4-1.4v-0.9l-0.7-0.3l-0.6-1.9l0.3-0.9l-0.8-0.3v-0.3l-1.1-1l-0.3-0.7h-1
			l-0.3-0.1l-2-2l-0.2-0.8l-0.3-1v-0.1l0.3-1.6l-0.4-0.4l-0.3-0.9l-0.6-0.6l-0.3-0.9l-0.3-0.3l-0.3-1h-0.3l-0.1-0.2l-0.7-0.9l-1-0.7
			l-1.1-1.1l-0.3,0.3l-0.1-0.1l0.3-0.3l-0.6-1.6l-0.7-0.3l-0.6-1.2l-0.7-0.3l-0.3-0.7l-0.6-0.3v-0.1v-0.7l-1-2.1h-0.4L239,219
			l-0.3-0.6l-0.3-0.3l-0.2-0.6l-0.8-1l0.7-0.7l-2.1-0.8v-1.7l0.3-0.6v-4.9l-1.9,4.7l-0.3,0.3l-0.7,1.8v0.7l-0.3,0.7l-1-1l-0.3-0.8
			l-0.7-0.3l0,0v-0.8l-1-0.9v-0.2l-0.3-0.3v-2.6l1.4-0.3l1.9,0.3l1.2-0.4l0.3-0.9l0.7-1l0.8-1.7l0.2-1.8l0.8-0.8V202l1.1-1.3
			l0.3-2.1l0.3-1.1v-1.1l0.3-0.7l-0.3-1.1l-0.6-0.9l0,0l0.7-0.7l-0.7-0.7l0.9-0.9v-1.4l-1.7-0.7l-1.1,1.1l-0.1-0.1l-1.1-0.7h-0.9
			l-1.6,1.9l-0.1,0.2h-0.2l-0.7,0.3l-2.1,0.2l-0.3-0.3l-1.1-1.2h-0.8l-1.3-0.6l-1.1-0.3l-2.2,0.6l0.3,1l0,0l-0.2-0.1l-0.3,0.3h-0.3
			l-0.3,0.3h-0.1l-0.4-0.2v-1.2h-1.8l0.6-0.6h-1.8v-0.7l-0.4,0.4l-0.6-0.6l0.3-0.3l-0.7-1.4l-1.2-0.6l-0.3,0.2l-0.1-0.1l0.1-0.3
			l4.6-1.8h-3.8v-1.7l-0.9,0.3l-0.2-0.4l1.7-1.7h-2.8l-0.2,0.1l-0.2-0.2l0,0v-0.2l-0.1-0.1l0.4-1l0.3,0.8l1.1-0.4l0.3,0.2h1.6l2-0.8
			l-0.4-0.4h0.3l1.4-1.4l-0.3-0.1l0,0l0,0l1.5,0.6h2v-0.7l0.1-0.1l0.3-0.6l0.6-0.6l0.7-0.3l0.2-0.4l0.4-0.1h0.7l1.4-0.7l0.3-0.2h1.5
			l0.3-0.2l0.3,0.2h1.2h0.1l1.7,1.7l0.3-0.3l0.3,0.3l0.7-0.7l0.1,0.2l0.8,0.8l1.2,0.6l0.3-0.3l0.6,0.3l0.7,0.3l1.5,0.9l0.1-0.1
			l0.1,0.1l1.4,0.3l1.3-0.7h0.9l0.2-0.1l0.1,0.1h2.2l0.2,0.2l1.8,0.3l0.3-0.3h0.9l0.3-0.9l0.7-0.4l0.8-0.8l0.3-0.7l0.7-0.7l-0.3-0.6
			l0.3-0.3l-0.9-1.3l-0.2-1l-0.3-0.7l-0.8-1.2l-0.3-0.1l0,0l-1.6-1.3l-0.3,0.3l-0.2-0.1l-0.7-0.7h-0.4l-0.3-0.1l-0.3-0.3h-0.8
			l-0.3-0.1l-0.3-0.3l-0.3-0.2l-0.2-0.4l-1.9-1.5l-0.7-0.3l-1.2-0.7l-0.8,0.2v-0.6l-0.3-0.3l0.1-0.1l0.9,0.3l0.7-2.1l-0.3-0.3
			l1.4-1.4v-1.1l-0.6-0.2l0.7-1.4l1.2-0.6l0.6-1.4l-1.1-1.1l-1.4,0.4l-0.3,0.3l-0.2-0.1h-1.3l-0.6,0.3h-0.8l-0.7,0.7l-0.1,0.2h-0.7
			l-0.3,1l-0.2,0.2h-0.7l-0.4,0.3l-0.7-0.3l-0.3,0.1l-0.2-0.3h-3l0.9,0.9l-0.1,0.1l-0.6,0.7l-0.6,0.2l-0.1,0.1l0,0l-1-0.3l-0.3,0.3
			l-0.6-0.3l-0.6,0.6l-0.6-0.6l-0.3,1l-0.7-0.3l-0.4,0.2l0.1-0.1l-0.4-0.2l-0.4-1.2l-0.3,0.1h-0.1l-1-1l-0.7,0.7l-0.7-0.7l-0.9,0.9
			h-0.3l-1.2,0.4v1l-0.1,0.1h-2l0,0l0,0l0,0l0,0v3.2l0,0l-0.7,0.7l0.6,0.6l-0.1,0.2l-0.2,0.1h-1.3l-0.3,1l-0.6,0.6l0.3,1v0.3
			l-0.3,0.7l0.3,0.7v1.3l-0.1,0.4h-0.3l-1.3,1.1l0.3,1.5l-0.2,0.1l-0.6,0.4h-1.3l1.8,2.1l0.4,0.4l0.3,0.9l0.9,0.9l0,0l-0.3,0.3h-0.7
			l-0.9,0.3l0.1-0.2l-1.5,1.3l-0.7-0.7l-0.3,0.3l-0.1-0.3l-1.2-0.4h-0.6l-0.3-0.6h-1.7v0.7l-0.7-0.7l-1.5,0.7l-0.2,0.6l-0.7-0.3
			l-0.7,0.7l-0.3-0.9l-1.8,0.7l-0.4,1.2l0.2,0.8l-0.6,0.6l1.4,1.5l-1.1,1.1l0.7,0.3l-0.3,0.2l-0.1-0.1l-0.1,0.1l-0.3,0.1l-0.4-0.7
			v-0.8h-0.7l-0.3-0.4l-0.7-0.4v-0.8l-0.8-0.3l-0.7-1.4h-0.6l-0.3-0.7v0.2l0.3-0.7l-0.3-1l0.2-0.8l0.2-0.2l0.6-1.3l-1.2-1.1
			l-0.3-0.2l-0.2-0.3l-1.2-1.5l-0.7-0.3l-0.1-0.1l-1.1-1.3l-0.3,0.3l-2.1-2.1l-0.8-0.3h-0.3l-3-3h-0.3l-0.3-0.3l-0.4-0.4l-0.3-0.7
			l-0.7-0.7l-0.3-1h-1.5l-0.6,0.6v-1.1l-2.2-0.9l-1,1h-0.6l-0.4,0.4c2.6-9.4,5.9-18.5,9.8-27.4v0.1l1.9,0.3l0.4,0.4l1.3-0.4l1.1-0.8
			l2.8,0.2l3.9-0.3l-0.4-1.6l0.3-0.8l-0.7-0.7l-0.3-0.6l-0.7-0.7l-1.2,0.3l-0.2-0.1l-0.9-1.2l-0.6,0.2l-0.1-0.2v-1.2l-0.3-0.3
			l-0.1-0.3l0.4-0.2v-1.2l0.3-0.3l0.7,0.7v-2.3l0.3-0.1h0.7l0.3-0.3l0.4-0.2l1,1.1l0.3,0.7l1,1h1.5l0.8-1.9l0.3-1.1l-0.3-1.3v-1.1
			l0.3-1.6l-0.8-2.1l-1,1l0.7-1.7h-0.4l0.3-0.9l0.7-0.3l0.3,0.3l1.1-0.4l0.1,0.1l0.8-0.3l0.3,0.2h0.9l0.9,0.6h3.8v-1l0.2-0.4l0,0
			l0.8,0.8v-1.1l1.3-0.6l-0.6-0.3l0.4-0.4l0.1-0.2l0.8,0.3l0.7-1.9l-1.2-1.2h-1.2l-0.2-0.3h-0.1v-0.3l-1.1-1.3l-0.7,0.8
			c0,0-0.1,0.1-0.2,0.3l0,0h0.2l-0.4,0.4l-0.7-0.7l-1.1,1.1l-0.2-0.1l-0.8,0.3l-0.8-0.8l-0.3-0.6l-0.1,0.3l-0.3-0.3v1l-0.7,0.6
			l-0.2-0.2l-1.1,1.1h-0.2l-1.2-0.4c5.2-8.1,11.2-15.9,17.6-23l-0.3,1l0.8,0.3v0.1l0.7,0.7v0.6l0.6,0.6v0.3l0.2,0.3l-0.8,2.1
			l1.7-0.6v0.1l1.9,1.1l0.3-0.3l0.2,0.1v0.3l0.7,0.7h0.9l0.3,0.3h0.7l0.6,0.6h1l0.6-0.6h0.6l0.7-0.7V92l-0.3-0.2v-0.6l0.6,0.3
			l1.5,1.5l0.7-1.7l0.7-0.7l0,0l0,0l1.3-1.3l-1.1-1.7l-1.1-1.1l-0.1-0.3V85l-1.4,0.3l-0.4,0.2h-0.9l-0.3,0.3l-0.8,0.2l-1.3-0.2
			l-0.7-0.2l-0.8-0.8l-0.8,0.3l-0.3-0.2h-0.9l-0.1-0.1l-1.1-0.4l0.3-0.3v-1l-0.3,0.1c2.1-2.1,4.1-4.2,6.3-6.3h0.1l0.7,0.7l0.6-0.3
			l2.5,1.6v-0.7l0,0l0.2,0.2l0.3,0.3l0.3,0.6l0.9,0.9v0.7l-0.2,0.6l-1.3,3.2l3-2.2l0.3-1l0.6,0.6l0.7-0.2l-1.5,3.7l2.9-2.9L239,83
			l2.7,2.7l-1-4l-0.1-0.2l0.1-0.1V80l0.3-1l-0.1-0.1l0.3-0.3l-0.3-0.3l0.3-0.3l-1.3-1.3l-0.9-0.3l0,0l0.1-0.2v-1l0.3-0.3l-0.3-1l0,0
			l0.7-0.7l-0.7-0.7v-0.4l-0.7-1.2h0.1l0.8-0.2l1,0.2l0.1,0.1v0.6l1,1l0.3,0.2l0.1,0.3l0.1,0.2h-0.2l-0.3,0.3h-0.7l-1.1,1.1l0.2,0.2
			l-0.3,0.3v1.7l1,0.3l0.8,0.7l1.2,1.8h1.3l0.3,0.7l0.9-0.9h0.6l0.4-0.4l4.6-2.8l-4.1,0.7l0,0v-0.8l0.7-0.1l0.1-0.1l2.6,0.3
			l-0.7-1.7h0.1l1.1-1.4l0.3-0.2l1-1.3l0.2,0.1l1.1-0.3v0.8l-0.2,0.2l1.3,1.3l1.7-1.1l0.2,0.4l1.4,0.7l0.2-0.2v3.8l1.9-4.6l1.1,0.4
			l1.2-1.2l-0.3-0.3l0.6-0.6l-0.4-0.2l0.3-0.3l0,0l0.3,0.3l0.4-0.4l0.2,0.1h1.6l1.2-0.6v-0.2h1.7v-1l0.2-0.2l0.6-0.3l0.1-0.1
			l0.3,0.1l-0.3,0.3l0.3,0.8l-0.3,0.6l0.7,1.4h2.4l0.7-0.7V70h0.1l0.4,0.2l-0.3-0.3l0.7-0.3l0.1-0.4l4.1,1.3l-3.5-3.5l-0.2-0.1v-0.2
			l-1-1.5H272l-0.1-0.4l-0.2-0.2l0,0v-1.3l-0.1-0.2l0.3-0.2l0.3,0.2l0.6-0.3l0.4,0.2l2.1-0.3l2.1,0.2l0.7,0.4l1.1,0.4l0.8,2l1.3-1.3
			l0.4,0.4h0.3l0.2,0.4l1.2,0.3l1.5,0.9l1.3,0.2l0.2,0.2l0.3,0.9l1,0.3l0.3,0.3l0.7,1.4l2.1,0.9v-1.7v-0.1l0.4-0.4l-0.3-0.6l0.1-0.1
			v-1.3l1.8-1.8h-2.3l-0.3-0.3H290l-0.3,0.2l-1.3-1.4H288l0,0v-0.9l-1.1-1.1l-0.6,0.7l-0.2-0.2h-0.8l-0.3-0.2v-0.2l-0.7-0.3
			l-0.2-0.4l0.7-0.7v-1.2l3.2,1.3l-3.9-3.9h-0.6l-0.3-0.6l-0.6-0.6l0.3-0.3l-0.4-1.1l0.8-1.3l1.1-1.1l-0.3-1v-0.3l0.3-1l-0.7-0.7
			v-0.3l-0.3-2.1l-0.2-0.6v-0.8l-0.2-0.2l0.1-0.3l0.7-0.7l-0.9-0.8l0.2-0.7v-0.2c0.6-0.2,1-0.4,1.4-0.7L285,41l0.2,0.3l1.2,0.6
			l0.3-0.3l0,0l1.6,0.6h0.1l0.3,0.9v0.8l0.3,0.3v0.7l0.2,0.7l-0.3,1.5l0.1,0.3l-0.3,0.3l0.3,0.8v0.1l-0.6,0.6l0.6,1.2l0.6,0.6
			l0.3,0.9l0.3,0.2v1l1-0.3l0.1,0.6l0.7,0.7l0.1,0.3l0.3,1.8l0.4,0.4l0.1,0.5l0.7,0.7v0.6l0.7,1.1l-0.2,0.7l0.4,1.2h0.1l-0.1,0.3
			l0.4,0.4l0.2,0.9l1.3,1.9l0.8,0.2l0.2,0.6l0.7,0.3l0.1,0.1v1l-0.3,0.8l0.3,1.5l0.6,0.6l-0.4,0.4v0.4l-0.3,1l0.3,0.3v0.3l-1.2,0.6
			l1.1,1.1v0.6l-0.8-0.3v0.9h-1.5l-0.2,0.2l-1.6-0.9l-0.6,0.6l-1.1,0.2h-1.1l-2.1,2.5h1.9l0.9,0.9l0.3-1l0.7,0.7l2.1,0.3l1.1,0.3
			l1.1-0.3h0.4l0.2,0.2l1.7,0.3l1.3-1.1v-0.9l0.9-0.3v-0.8l0.7-0.7v-0.7l0.7-1.6l-0.7-0.8l0.1-0.3l0.7-0.9l0.3-1l-0.9-2.6l-1.1-0.6
			l-0.1-0.2l-0.2-0.9l0.3-0.3l0.4-0.4l0.7-0.3l0.6-0.6v0.7l1.1,0.7l0.3,0.9h0.3l-0.3,0.9l1.1,0.4l0.2,0.3l0.4,0.4l-0.3,0.3l1.4,1.4
			h0.7l0.8,0.7l1.1-0.3l0.7-0.3l0.8-0.3l1.2-1.2l-1.2-1.2l-0.3,0.1l-0.4-1.1l-1,1.2l-0.1-0.3h-0.3l0.2-0.4l-0.7-0.7l-0.3-0.3
			l2.6-1.1l-2.3-0.9l-0.2-0.3l-0.3-0.3l-0.3-0.7l-0.6-0.4v-0.4l-1.1-1.2h-1.2l-0.7-0.3l-0.4-1.1l-1,0.3l-0.9-0.6l-0.7,0.3l-0.8-0.3
			l-1.1,1.1l-0.1,0.2l-0.7-0.2l-0.3,0.2l-0.3-0.9l-1-1l-0.1-0.2l0.3-1.3l-0.6-0.8l0.1-0.3l0.3-2l-0.8-1.4l-0.9-0.9h-0.4l-0.1-0.3
			l-1.5-1.2l-0.7-0.3l0.3-1.1l-0.2-2.1l-0.2-0.2l0.1-0.1l0.9-1l0.3,0.8l0.6,0.6V47l0.3,0.3l-0.6,0.2l0.9,2.2l0.9-0.3l0.6,0.4h1.4
			l0.3-0.1l0.6,1.4l1.2-1.2h1L303,51l0.7-0.1l2.1,2.1l-1-2.3l3.8-3.8l-4.4,1.7l-0.3-0.1l-0.1-0.3l-0.2-0.2l-0.3-1.1h-1l-0.3-0.6
			h-1.1l-0.2,0.2l-0.7-0.1l-0.7-0.7h-1l-0.4-0.3l-0.3-0.9h-0.3l0.2-0.2l0.3-0.3h0.2l0.6,0.7l0.3,0.2l1.6,0.7l1.3-0.4l1-1.8l-1.1-1.7
			l-1-0.3l0.1-0.1h2l0.3,0.3l0.8,0.8l1.2,0.2l0.2,0.4l0.7,0.3l1.1,1.1h1.1l1.7-0.3l0.6-0.3l0.3,0.3l0,0v0.1l0.3,0.7v0.7l-0.9,0.7
			l0.4,1v1.1l0.9,0.7l-0.3,0.7l0.3,2.6h1.4l1.8,1.1h1.1l0.7,0.2v0.8l1.1,1.1h1l3.8,3.8l-1.8-4.5v-0.2l0.2-0.3l1.1,0.8h0.7l2.9,2.9
			l-1.6-4.9h-1.1l-0.4-0.2l-0.4-0.3l0.7-0.8l-2.8,0.7l-0.6,0.3l-0.7-0.3l-0.2,0.2l-0.2-0.2l-1.5-1.5v-0.3l-0.2-0.1l-0.1-0.1l0.4-1.1
			l-0.4-1.1l-0.7-0.6l-0.1-0.9l-1.1-1.6l-0.7-0.3l-0.1-0.1l0.2-0.4l-0.3-0.8l-0.3-1.7l-1.1-1.1h-0.2l-0.9-0.6H310l-0.3-0.4l-0.4-0.3
			l0,0l-0.3-0.6V37l-1.8,1.8l-1.4-0.2h-0.3l-0.3-0.2l-0.3-1.1h-0.2v-0.7l-0.9-1.7l-0.4-0.3l0.2-0.4l-0.6-0.6
			c2.5-0.8,4.9-1.4,7.4-2.1V32l1.6,1.4h5.9l-4.7-1.9l-0.3-0.3l0.9-0.4c12.2-2.9,24.8-4.6,37.3-5.1v0.4l0.2,0.2l-0.1,0.6l-0.4,0.2
			l-2,4.9l3-3h0.6l1-1l0.3-0.7h0.1l2.8-1.1l-1.4-0.7c0.9,0,1.8,0,2.6,0c48.1,0,93.6,18.3,128.3,51.5v0.3l-1.1,1.1l0.3,0.3h-0.4
			l-0.4,0.4h-1.6l-0.4,0.2l-1-0.3l-1.2,0.6l-1.2-0.6l-0.3,0.8h-0.9l-0.6,0.6h-1.1l-0.7,0.6h-0.7l-0.7,0.6l-0.1-0.2h-1.4l-0.3,0.9
			l-0.9,0.7l-0.3,0.7l-0.6,0.6l-0.4,1.1l0.7,1.1l-0.1,0.4l-0.6,0.7l-0.9,1.3l0.3,0.8v1l0.2,0.4l-0.3,0.3V92l-0.3,0.3l0.3,0.9
			l-0.3,0.3l-0.3,0.7l-0.9,1.1l0.1,0.2l-0.2,0.1l-0.2,0.8h-0.3l-0.3,2.3v0.7l-0.3,0.3l0.3,0.6l-0.3,0.3l-0.3,0.7l-0.7,0.8v0.2
			l-0.3,0.3v0.9l-0.7,0.6v1l-0.7,0.7v0.7l-0.4,0.6l-0.7,1.6l0.6,1.2l1.2,0.6l0.3-0.2l0.4,0.4h1.3l0.7-0.7l0.6-0.2v1.2l0.7,0.8
			l0.1,0.3l-0.3,1l2.1,1.8l0.1-0.2l0.3,0.3l1.4-0.3v0.7l1.9-1.9l0.3-1l-0.3-0.3l0.3-0.4l-0.1-0.2l0.3-0.7l0.3,0.1v-0.7h0.7l-0.4-0.3
			h0.4l0.2-0.2l0.2,0.2h0.8h0.1l0.2,0.3l0.6,0.6l0.7,0.3l0.2,0.2l1.2,0.6l0.3,0.3h0.3l0.3,0.6h0.3l0.1,0.1l-0.1,0.3v0.3l-0.7,0.7
			l1.4,1.4h0.7l0.2,0.3l-0.2,0.2v1.3l1,1l0.3,0.2l0.3,1l0.1,0.1l-0.1,0.1l0.3,0.3l-0.3,0.3l0.4,0.4l-0.2,0.3l0.4,1.1l-0.2,0.2
			l0.3,1.6l0.2,0.4v0.6l0.7,2.3l0.2,0.1l-0.2,0.2l0.6,1.2l0.6,0.6v1l0.3,0.3l0.3,2.2h0.2v0.7l0.3,0.6v0.2l-0.7,0.7v1l-0.3,1l0.3,1.3
			l0.1,0.1l-0.6,0.6v0.8l-0.2,0.3h-2.3v1.1l-0.7,0.7l0.3,1.2l-0.7,0.7l0.4,1.4l0.1,0.1l-0.4,0.6L483,146l-0.7,0.7v0.7l-0.4,0.7
			l-0.6,2.1l-0.2,0.2l-0.4,1.2l-0.6,0.4v0.3l-0.6,0.3v0.9l-0.3,0.3l0.1,0.3l-1.6-0.7l0.9,2.3v0.1l-1.2,0.6l0.7,0.7l-0.3,0.3
			l-0.3,0.3h-0.6l-0.3,0.3l-0.7,0.3l-0.1,0.1l-0.3-0.3l-0.3,0.3L475,158l-0.3-0.1v-0.7l-0.9-0.9l-0.8,0.3l-0.8-0.3l-0.9,0.9v0.6
			l-0.6,0.6v0.9l-0.2,0.2l-0.1,0.3l-1,0.3l-0.2,0.6h-0.2l-0.9,0.9h-0.7v1.4l-0.3,1.4v1.4l0.6,0.6v1.7l0,0l-0.8,0.7l0.3,0.3l-1.1,1.1
			v0.3l-0.2,0.1l-0.1,0.1h-0.3l-1.1,0.4l-0.3,0.7l-0.8,0.7v1.1l0.1,0.2l-0.2,0.2l0.6,1.7h0.2l-2.6,1.1h-0.2v-0.4l0.7-1.1l-0.2-0.4
			l0.7-1.9h-1.9l-0.3,0.3h-0.2l-1.1-0.4l0,0l0,0l-0.3-0.1l-0.7-1.6l-1.3,1.8h-0.2l-0.5-0.4l-1.1,0.9h-0.8l0.7-1.4l-2.3,2.3v-0.7
			l0.3-0.4l0.7-0.7v-1.4l-1.5-0.8l-1.5-2.2l-0.6,1.4h-1.4l-0.3,1l-0.3,0.3L448,171l-0.7,0.7v0.8l-0.3,0.3h-0.4l-1.4,1l-0.3,1.6
			l-0.6,0.6h-1l0.8,0.8h-0.1l-2.1-0.4v1.3l-0.3,0.3v0.6l-0.3,0.3v0.3l-0.3,0.3l0.3,1v1l1.1,0.4l0.7,0.4l0.2,0.2l1,1.1v1l0.4-0.4
			l0.7,0.8v-1.4l0,0v0.2l1,2.1h1.4l0.3-0.2l0.8,0.3l0.8-0.8l0.6-1.2l0,0l0.3-0.3v-0.4l0.4-0.2l0.2,0.4l0.8,0.8h2.1l-0.2,0.2h-0.6
			l-0.1,0.1l-0.3-0.2l-2.1,0.9l1,1l-0.3,0.1v0.3h-0.2l-1.4,1.4l0.4,0.4l-0.2,0.2l-0.8-0.8l-0.8,2.3l0.3,0.7l-0.2,0.7v2.2l1.5,0.6
			v1.2l1.4-0.6l0.8,0.3l0.6,1.1l-0.3,0.8l0.8,0.3v0.6l1,0.7v0.7l0.8,1.2l-1.6-0.3l0,0l-0.2-0.4l-1.2,0.4l-0.8-0.3l-0.1,0.1l-0.1-0.1
			l-1.4,0.6l-4.1,9l5.5-7.3l0,0l0.7,0.3l0.2-0.1l0.8,0.7l1.1,0.4l0.7-0.4l0.7,0.7l1,0.7l1.2,0.8l0.2,0.3l-0.2,0.1l-0.4,0.6h-0.2
			l-0.7,0.7v0.1l-2.7-1.1l1.2,1.6l-0.8,0.8v0.3l-2.1,2.1l2.1-0.8v4.1l1.9-4.7l0.2-0.2l0.3,0.3l1.3,0.6l0.3-0.3v0.7l-0.6,0.2l0.6,0.6
			v0.7L457,213v1.5h0.6l0.1,0.1l-0.6,0.6l0.2,0.2l-0.4,0.7h-0.1l-0.1,0.3l-0.1,0.1l-0.3-0.7l-1.1,2.8h-0.6l0,0l0,0h-0.1l-0.1,0.2
			l-1.1,1.1h-1l0.6,0.6l-0.7,0.7h1.4l0.3,0.3l-0.6,0.2l-1.6,4H450l2.1,2.1h-0.3l-0.3,0.6h-0.3l-0.1,0.3l-0.8,0.3l-2.8-2.8l1.5,3.9
			L448,231l-0.3,0.1h-1.2l-0.1,0.2l-0.6-0.6l-0.7,0.7l-0.6,0.2l-0.7-0.7l-2-0.8v2.1l0.3,0.6v0.1l-1.2-1.2v2.2l-0.1,0.3l-0.3,0.3
			l-0.4,0.2l-0.3-0.2l-0.7,0.3h-2.4v-0.9l-1.5,1.5h-2.1l1.1,1.1l-0.3,0.3v-0.5l-0.9-0.9l-0.8,0.3l-1.1-0.4l-0.3,0.7l-0.6-0.6
			l-0.2,0.2l-0.9-2.2l-0.8,2.1l-0.2-0.2l-0.7,0.7h-2.1l0.9,0.9h-0.6l-0.9,0.3l-0.7,0.7h-1.1v0.7l-0.7,0.7l0.7,0.7v0.8l0,0l-0.3-0.3
			l-1,1l-0.3,0.6l-0.3,0.3v1.4l-0.3,1l0,0l-1.3,0.6l2.5,1l0.6,0.4l0.9,0.9l1.7,4.2V248l0,0v0.2l2,0.9l1.1,0.7l0.2,0.6l1.3,1l0.4,0.4
			l0.3,0.8v0.2l0.6,0.6l-0.3,0.3l1,1l0.3,0.9l0.3,0.3l0.3,0.9l0.1,0.1l-0.3,0.3l0.3,0.6l-0.3,0.3l0.3,1v0.8l0.3,0.3l0.1,0.2
			l-0.4,0.4v1.1l0.2,0.3L433,262l-0.8,0.3l0.4,1.1l-0.3,0.8l0,0l-0.2,0.6l-0.6,0.6L430,266v0.3l0,0l-0.3,0.3l-0.9,0.4h-0.1l-0.3-0.3
			l-0.1,0.1v-1.6l-1.5,1.5l-0.2-0.1h-1.4v0.4h-3.8v-1.5l-1.5,1.5l-0.7-1.9l-0.1,0.1l0,0v-0.3l-0.8-1.2h-0.9l-1.6-1.6l-0.4-0.2v-0.1
			l-0.7-0.7l-1.1-0.4l0,0l-0.3-0.6v-0.2l0.7-0.7l-1-1l-0.9-0.3h-0.3l-0.3-0.3l-0.7,0.3l-0.6-0.6l-0.3,0.3l-1.2-1.2v2.1l-0.9,0.9
			l1.4,0.6l-0.1,0.3v0.3l-0.7,0.7l0.4,0.4l-0.6,0.6l-0.3,0.6l-0.7,0.7l-0.3,2l-0.7,0.7v0.7h-1.1V266l0.7-0.7l-0.3-0.7l0.4-0.4
			l-1.3-1.2l-0.1-0.3v-0.2l0.3-0.3l-0.6-1.2l-0.2-0.2l-0.3-1.6l-0.3-0.3l-0.3-0.6l-1.1-1.1v-0.4h4.7l-1.8-1.8v-1.3h-0.1l-0.2-1.4
			l-0.2-0.2l0,0v-0.8l-0.1-0.2l0.1-0.1v-2.6l-1.4,1.4l-0.2-0.2l-0.6-1l-0.3-0.3v-0.3l-5.2-2.1l2.8,2.8v0.6h-1.9l0.3,0.7l-0.4,1.1
			l-0.6,0.3h-0.4l-0.3-0.7v-2.1l0.2-0.2l-0.2-0.2v-3.1l-0.7,2.2l-0.3-0.7v-1.2l-0.1-0.1l0.6-0.6l-1.4-0.6l-0.1-0.3l-0.4-1v-0.8
			l-0.4-0.4v-1.3l-0.9-1.1l-0.7-0.3l-0.2-0.2l-0.2-0.1l1.1-1.1h-2.3l-0.7-0.7v0.6l-0.8-0.3l-0.1-0.2h-0.3l-0.3-0.6l-0.3-0.4v-2.8
			l-0.4,0.4v-0.2l-0.3-0.3l-0.8-2.2h-0.8l0,0h-0.1h0.2l0.2-0.2l-0.4,0.2h-0.3v0.1l0,0l-0.3-0.2l-0.4-0.4h-0.3l-0.2-0.2l-0.2-0.4
			l-1.7,0.4v-0.1l-2.1,2.1l0,0h-0.7l0.2,0.3l-0.8,0.8h-0.6l-1.5-1.5v0.7l-0.9-0.3h-1.6v1.5l0.1,0.1l-0.1,0.1v0.6l-0.2,0.2l-1.6,0.6
			l-0.6,0.6l-0.7,1.9l0.6,0.6l0.1,0.3v0.2l-0.2,0.2l-0.1,0.2h-1.8l1,1l-0.4,0.3v0.1l-0.3,0.1l-0.4-0.4h-0.8l-0.6,0.3h-1.1l-0.7,2
			l-0.4,0.3l-0.6,1.1l-2.5,2l-0.3,0.7l-0.3,0.3l-1,0.2l-1,0.9l-0.4,1.1l0.2,0.3l-0.3,0.3l-1.2-0.3l-1.1,1.1v0.3h-1.3l-1.3,1.3
			l-0.3,1l0.4,1.1l-0.6,0.6l0.3,1.1v2.5l0.7,0.3l0.1,0.8l-0.4,1.5l-0.7,1.3v2l0.3,0.7l0.2,1.6l-1.2,0.4l-0.7,1.5l0.1,0.1l-0.2,0.3
			l-0.3,0.3h-0.1h-0.3l-1.3,0.9l-0.3,1l0,0l-0.7,0.7l0.3,0.3l-0.3,0.2L350.1,272.3z M424.5,269.2l-0.3,0.2l-0.1-0.1V269l-0.7-0.7
			l0.7,0.2l-0.2,0.2l1.4,0.6l-0.3,0.1L424.5,269.2z M405.7,268.4v-0.8l0.3,0.3v0.4L405.7,268.4L405.7,268.4z M421.7,268l0.3,0.1
			l-0.1,0.1L421.7,268z M470.1,265.6v-0.7l0.4-0.1l0.2,0.3l-0.3,0.3l-0.1,0.2L470.1,265.6L470.1,265.6z M281.4,263.9L281.4,263.9
			l-0.1,0.2L281.4,263.9z M477.2,262.9l-0.3-0.4l-0.1-0.4h0.1l0.7,1v0.2L477.2,262.9z M466.4,260.4L466.4,260.4L466.4,260.4
			L466.4,260.4L466.4,260.4z M466.3,256.4l-0.2,0.2h-0.4l0.8-0.8v0.9l0.2,0.1v0.1L466.3,256.4z M465.2,254.2h-0.7v-0.3h-0.8v-0.4
			l-0.3-0.7l-0.1-0.3l0.2-0.7l0.7-0.4v-1l-0.3-0.7l0.2-0.4l0.3-1.4v-1.4l-0.1-0.2l0.7-0.9v-0.2l0.3,0.1l0.6,0.6l1.2,0.3l-0.1,0.3
			l0.6,1.5l0.3,0.2l0.1,0.7l0,0l-0.1,0.7l-0.1,0.3l-0.6,1l-0.7,0.7l-0.9,0.9l0.3,0.7l-0.2,0.3v1l0.2,0.7l0.2,0.2L465.2,254.2z
			 M434.5,244.2h-0.3l-0.3-0.3h-0.4l-0.3-0.3v-0.1L433,243v-1l-0.1-0.2l0.3-0.3l0.8-0.7l0.2-0.6h0.3l0.1,0.1h1l0.2-0.1l0.3,0.3
			l0.6-0.3l0.3,0.3l0.8-0.3l0.2,0.1l-0.2,0.2l-0.3,0.6l-0.3,0.3l-0.3,1.1l0.1,0.3l0,0l-1,0.3v0.3l-1.1,0.4v0.4H434.5z M432.9,238.2
			l-0.3-0.3l0.1-0.3h1v-0.6l0.3,0.7v0.1l-0.7,0.7L432.9,238.2z M436.5,234.7L436.5,234.7v0.3V234.7z M462.3,232v-0.7h-0.6v-0.9
			l-0.3-0.1v-1.7l0.3-0.7l0.7-1.1l0.1-0.4l0.7-1.1l-0.3-0.2l0.1-0.1l0.3-0.3l0.3-0.3l0.3,0.4h0.2v0.6l-0.2,1.1l-0.4,0.7l0.1,1.1
			l-0.1,0.4l-0.3,1.6l0.3,0.2l-0.6,0.7L462.3,232L462.3,232z M382.1,230.9l0.2,0.7l-0.2,0.1V230.9z M451.8,225.6l1.1-1.1l0.3,0.3
			l-0.8,0.8H451.8L451.8,225.6z M454.1,223.3L454.1,223.3l-0.2,0.3l0.3,0.1l-0.9,0.3L454.1,223.3z M483.4,200.1l0.2-0.7v-1l-0.4-0.9
			l-0.6-1L482,196l0.6-0.3l0.1-0.3h0.1h0.2l0.6,0.7h0.6l0.7,1.2h0.4v0.6h0.2l-0.6,0.6l0.3,1.2l-0.3,1.6l0.2,0.3h-0.1L483.4,200.1z
			 M172.5,201.4c0.2-3.7,0.4-7.3,0.9-10.8l0.6,0.2l0.2,0.2l0.6,0.9l0.3,0.3l-0.2,0.2l-0.4,1.2l1,1.5l0.3,0.1v1.1l0.1,0.1l-0.6,1.7
			l-0.7,0.7l0.3,0.3l-0.2,0.2l-1.7,1L172.5,201.4z M456.1,201L456.1,201h0.2H456.1z M230.9,199.5l0.7-0.4l0.2,0.1h0.3l-0.4,0.3h-0.4
			L230.9,199.5L230.9,199.5z M210.5,199L210.5,199L210.5,199L210.5,199L210.5,199z M487.9,195L487.9,195l0.1-0.3h0.7l-0.2,0.2
			l-0.3,0.7L487.9,195z M491.1,194.1l-0.6-0.1l0.1-0.6l0.3-0.2h0.1l0.4,0.3l0.2,0.1v0.2l-0.3,0.3v0.1L491.1,194.1z M495.1,193.7
			l0.3-0.1l-1.1-1.1v-0.6l0.3-0.6v-1l-1-0.7H492l-0.7,0.3l-1.2,0.7v0.2l-0.7,0.3h-0.3l-0.8,0.3l-1,0.1l-0.3,0.1l-0.3-0.2h-1
			l-0.4,0.9v0.4l-0.3-0.1l-1,0.3H484v-0.1l0.7-0.4l0.3-0.7l0.2-0.2l0.3-0.3l1.2-1.2v-0.1l0.3-0.3l0.2-0.7l0.4-0.3l0,0l0.4,0.4l1-0.4
			l0.7-0.2h0.6l0.9-0.3l0.9-0.3l0.1,0.6h1.1l0.3-0.1l0.4,0.3l1.8-1.1l-0.3-0.3l0.9-1.3h-0.8v-0.2l-0.2-0.2l0.3-0.3v-0.4l0.6-0.8
			v-0.6l1.4,0.7l0.3-0.8l0.3-0.1l1.4-1l0.9-0.6l0.2-1l0.3-0.6v-1l0.1-0.3l0.4-0.3l0.8-1.2l-0.4-0.8l0.6-1.8l-0.3-1.1l0.3-0.9
			l-0.3-1.5l-0.6-1.2l0.2-0.7l-0.4-0.9h-0.1v-0.3l0.3,0.3l1.1-0.8l1.3,1.3l0.2,0.3l0.2,1l0.4,0.8h0.3l0.2,0.3l0.3,1.1l-0.1,0.3
			l0.2,0.7v0.4L505,174v1.1l0.1,0.4v0.3l-1.1,0.6l-0.2,1.4v0.8l0.7,1.1l0.6,1.4l-0.3,1.1v3.1l0.6,0.8h-1.2l-0.9,0.3l-0.7,1.6l0,0
			l-0.3,0.2l-0.2,0.2h-0.8l-1.2,0.7v1l-1.1-0.2l0,0l-0.2-0.2v0.2l0.7-0.7h-2.7l-0.7,0.7l-0.4,1.4l0.7,0.7l0.2,0.1l-0.2,0.1l-0.6,1
			v0.3l-0.3,0.3v0.4l-0.2,0.3L495.1,193.7z M184.3,193.9l-0.2-0.3l-0.9-0.9l-0.6,0.2l-0.8-0.3l-0.3-0.3l-0.7-0.3l-0.3-0.3l1.1,0.2
			l1-0.3h1.4l0.3-0.3l0.1,0.1h0.2l-0.6,1.7l0.7,0.7v0.2l-0.1,0.1L184.3,193.9z M467.2,190v0.7l-0.3-0.9l0,0l0.3-0.3v-1l1-0.7
			l-1.3-2.1v-0.2l-0.2-0.3l1.5,0.3l-1-2.3l-0.1-0.1l0.3-0.3l-0.8-0.8l-0.7-1.1l0,0l2.8-1.1l1.1,1.1l1.2,1.6v1.3l0.7,0.7l0.2,1.4v2.7
			l1.3-1.3l0.1,0.6l-0.6,0.6l0.3,0.3h-0.3l-0.8,0.8h-1.2l-0.2,0.3l-0.7,0.3l-1.3,1.1L467.2,190z M204.1,190.2l-0.4-0.2l-0.9-2.2
			l-0.3,0.6l-0.4-0.4h0.6l0.3-0.3l0.3,0.2l1.1-0.4l0.2,0.1l-1.1,0.4l0.7,0.7v1.1l0.3,0.7L204.1,190.2L204.1,190.2z M505.6,187.6
			L505.6,187.6h0.2l-0.2,0.2V187.6z M188.3,187.1l0.3-0.3v0.4l-0.3,0.2V187.1z M505.7,185.9l0.3,0.4l-0.2,0.2L505.7,185.9z
			 M189,185.3l-0.3-0.7l-0.2-0.7l0.2,0.2h0.8l0.3,0.3l-0.3,0.7h-0.1l-0.6,0.6v-0.3H189L189,185.3z M187.8,181.4l-1.5-0.7l-0.1,0.1
			l-0.2-0.6h-0.2V180l-0.6-1.1h-1l-1.2-0.6l-0.6-1h-0.9l-1-0.3l-0.1,0.1V177l-1.4-0.6l-0.8-0.6l-1-1.4l-0.2-0.2l-0.3-0.6L176,173
			c0.4-2.1,0.9-4.2,1.4-6.3l0.1,0.2l0.3,1l1.6,0.7l0.3,0.1l0.2,0.3l1.4,1.7v0.7l0.3,0.3v0.4l0.3,0.9l1.2,1.2l0.6,0.4l0.3,0.7
			l0.7,0.3l0.3,0.3h1.2l0.2,0.1v0.4l0.6,1.2h1.1l0.8,0.2l1.1,0.6l-0.6,0.6l-0.3,0.6l-0.3,0.3v1.5v0.1l-0.8,0.3v0.7L187.8,181.4z
			 M462.9,178.6l-0.8,0.8l-0.2-0.1v-0.7h0.3l2.8-2.8l0.2,0.3l2,1l0.1,0.3l1,2.1l0.2,0.2h-4.5l0,0L462.9,178.6z M452.1,174.5
			L452.1,174.5h0.3l-0.2,0.2L452.1,174.5z M230.3,163.8l1.2-1.2l0.3,0.3l0,0l-1.1,0.8l-0.7,0.3L230.3,163.8z M182.3,162.9l0.1-0.1
			L182.3,162.9L182.3,162.9z M499.4,162.3L499.4,162.3l0.3,0.1l-0.2,0.1L499.4,162.3z M229.1,161.8l0.6-0.2l0.8-0.8l0,0v0.9
			l-0.3,0.7L229.1,161.8z M505.4,160l-0.7-0.3l-0.4-0.3l-0.9-1.2l-0.8,0.3l-0.1-0.1h-1.3l-0.9,0.7l-0.2,0.2l-0.9-0.7l-0.1,0.1v-0.3
			l0.7,0.3l0.8-0.8l0.1-0.4l0.7-0.3l-0.9-1.3l-0.2-0.1l-0.1-0.3h0.7l-0.7-1.8l-0.1-0.3l0.1-0.3l-0.2-1.1l-0.3-0.9l-0.7-1.1l0.6,0.3
			h0.3l0.2,0.6l1.3,1.3l0.7,0.3l0.6,0.8h0.6l0.2,0.3l1.1,0.6h0.6l0.4,0.6h2l0.3-0.2v0.3l1.1,0.6l0.2,0.2v0.7l-1.2,0.6l-0.1-0.1
			l-1,0.6L506,158l-0.4,1.2L505.4,160L505.4,160z M498.1,141.1l-0.8-0.9v-0.2l-0.1-0.2l0.4,0.6h0.4l0.3,0.3l0.3,0.3v0.7l-0.7,0.3
			L498.1,141.1L498.1,141.1z M496.6,138.4L496.6,138.4L496.6,138.4L496.6,138.4z M495,134.2l-0.3-0.2v-0.1l0.2-0.7l-0.6-1v-1.7
			l-0.3-1l-0.1-0.7l-0.3-0.7l-0.6-0.7v-0.1l0.3-0.6l-1.1-1.1v-0.3l-0.3-0.7v-1.7l-1-1.3l-0.7-0.3L490,121l-0.4-1.2l-0.7-0.3
			l-0.1-0.3l-0.6-1.3v-1.1l-0.1-0.1v-1.1l-0.8-1.1l-0.4-0.4l-0.1-0.6h0.2l1.1-0.3v-0.7l0.1,0.1l0.3,0.6l0.2,0.1v0.9l0.3,0.3v0.3l1,1
			l0.3,0.1v0.1v2.7l0.4,0.6l0.3,0.7l0.8,0.8v0.1l0.4,1.2h0.9v0.3l0.4,0.4l0.3,0.8l1,1.3l0.3,0.6l0.7,1.4l0.7,0.7v1l0.7,0.2l0.1,0.2
			l0.6,0.9h-0.3l-0.1,0.1l-0.1-0.1h-2.5l0.8,1.2l-0.3,0.7l0.4,0.9v0.2l-0.3,1.2l0.6,0.7v0.3L495,134.2z M200.5,115.9v-0.3l0.3,0.3
			H200.5z M201.2,111.1c0.2-0.2,0.3-0.4,0.4-0.7v0.3L201.2,111.1L201.2,111.1z M229.8,90.8L229.8,90.8l0.6,0.3L229.8,90.8z
			 M227.5,90.3l-0.7-0.7l-0.4-0.2l-0.1-0.1l0.1-0.1l0,0h0.8l0.1,0.2l0.7,0.7h-0.1L227.5,90.3L227.5,90.3z M247.8,70.4l-0.4-0.7l0,0
			v-0.9l0.2-0.4h0.3l1.1,0.6l-0.1,0.3v0.4l-0.3,0.4l-0.3,0.2L247.8,70.4L247.8,70.4z M267.2,61.4L267.2,61.4l0.3,0.1L267.2,61.4z
			 M261,58.5L261,58.5l-0.4-1l-0.7,0.7l-0.1-0.2l-2.1-0.8l-0.4,0.4l-0.6-0.6l0.3-0.3l-1.2-1.2c0.4-0.3,0.8-0.6,1.2-0.8l0.3,0.3
			l0.7,1.6h1.1l1.1,0.3l0.7,0.6l0.7,0.8l0.3,0.1l-0.3,0.3L261,58.5z M255.8,58.4v-0.3h0.2l0.3-0.3v0.7l-0.3,0.1L255.8,58.4z"/>
		
			<radialGradient id="光线_1_" cx="358.6724" cy="-284.2058" r="191.5532" gradientTransform="matrix(1 0 0 1 0 496)" gradientUnits="userSpaceOnUse">
			<stop  offset="0.2738" style="stop-color:#FFFFFF"/>
			<stop  offset="0.8763" style="stop-color:#FFFFFF;stop-opacity:0.42"/>
			<stop  offset="1" style="stop-color:#FFFFFF;stop-opacity:0"/>
		</radialGradient>
		<path id="光线_5_" class="st11" d="M230.8,238.4c23.6,5.4,48.4,9.2,74,11.5c4.6,53.7,17.8,105.1,37.9,152.8
			c1.7,0.2,3.2,0.3,4.9,0.3c-20.3-47.7-33.6-98.9-38.3-152.8c15.9,1.2,32,2,48.6,2c35.3,0,69.3-3,101.6-8.7
			c-9.3,67.3-48.4,125.3-103.5,159.9c0.9,0,1.9,0,2.8,0c1.9,0,3.7,0,5.5-0.1c53.5-35.9,91.1-93.8,99.9-160.6
			c30.6-5.6,59.4-13.6,86-23.6c0.1-1.6,0.1-3.1,0.1-4.7c-26.5,10.1-55.2,18.1-85.6,23.7c0.9-8.4,1.4-16.9,1.4-25.4
			c0-80.4-41.7-151.4-104.6-192.4c-0.9,0-1.8,0-2.8,0c-1.9,0-3.7,0-5.5,0.1c65,39.4,108.3,110.9,108.3,192.2
			c0,8.9-0.6,17.6-1.5,26.2c-32.4,5.8-66.8,8.8-102.2,8.8c-16.5,0-32.9-0.7-48.9-2c-1.1-13.3-1.6-26.8-1.6-40.3
			c0-65.1,12.4-127.3,34.8-184.5c-1.7,0.2-3.2,0.3-4.9,0.6c-22.2,57.1-34.4,119.1-34.4,183.9c0,13.5,0.6,26.8,1.5,40
			c-25.7-2.3-50.5-6.3-74.1-11.5c-0.7-7.3-1.1-14.5-1.1-21.9c0-79.7,41.7-150,104.5-189.9c-3.6,0.4-7,1.1-10.5,1.7
			c-59.5,41.5-98.5,110.3-98.5,188.2c0,7,0.3,14,1,20.9c-20.4-4.8-40-10.8-58.4-17.6c0,1.6,0.1,3.1,0.2,4.7
			c18.5,6.9,38.2,12.8,58.7,17.6c7.5,67.2,44.1,125.7,96.9,162.7c3.5,0.7,7,1.2,10.5,1.7C278,366.2,238.9,307,230.8,238.4z"/>
		<g id="光点_5_">
			
				<radialGradient id="SVGID_1_" cx="463.6772" cy="-296.08" r="7.4205" gradientTransform="matrix(1 0 0 1 0 496)" gradientUnits="userSpaceOnUse">
				<stop  offset="0.2738" style="stop-color:#FFFFFF"/>
				<stop  offset="0.8763" style="stop-color:#FFFFFF;stop-opacity:0.42"/>
				<stop  offset="1" style="stop-color:#FFFFFF;stop-opacity:0"/>
			</radialGradient>
			<circle class="st12" cx="463.6" cy="199.9" r="7.4"/>
			
				<radialGradient id="SVGID_2_" cx="400.1409" cy="-437.4271" r="7.4147" gradientTransform="matrix(1 0 0 1 0 496)" gradientUnits="userSpaceOnUse">
				<stop  offset="0.2738" style="stop-color:#FFFFFF"/>
				<stop  offset="0.8763" style="stop-color:#FFFFFF;stop-opacity:0.42"/>
				<stop  offset="1" style="stop-color:#FFFFFF;stop-opacity:0"/>
			</radialGradient>
			<circle class="st13" cx="400.2" cy="58.5" r="7.4"/>
			
				<radialGradient id="SVGID_3_" cx="424.6376" cy="-157.8515" r="10.5456" gradientTransform="matrix(1 0 0 1 0 496)" gradientUnits="userSpaceOnUse">
				<stop  offset="0.2738" style="stop-color:#FFFFFF"/>
				<stop  offset="0.8763" style="stop-color:#FFFFFF;stop-opacity:0.42"/>
				<stop  offset="1" style="stop-color:#FFFFFF;stop-opacity:0"/>
			</radialGradient>
			<circle class="st14" cx="424.6" cy="338.1" r="10.5"/>
			
				<radialGradient id="SVGID_4_" cx="307.1928" cy="-248.5862" r="11.299" gradientTransform="matrix(1 0 0 1 0 496)" gradientUnits="userSpaceOnUse">
				<stop  offset="0.2738" style="stop-color:#FFFFFF"/>
				<stop  offset="0.8763" style="stop-color:#FFFFFF;stop-opacity:0.42"/>
				<stop  offset="1" style="stop-color:#FFFFFF;stop-opacity:0"/>
			</radialGradient>
			<circle class="st15" cx="307.2" cy="247.5" r="11.3"/>
			
				<radialGradient id="SVGID_5_" cx="318.3871" cy="-400.3595" r="11.3784" gradientTransform="matrix(1 0 0 1 0 496)" gradientUnits="userSpaceOnUse">
				<stop  offset="0.2738" style="stop-color:#FFFFFF"/>
				<stop  offset="0.8763" style="stop-color:#FFFFFF;stop-opacity:0.42"/>
				<stop  offset="1" style="stop-color:#FFFFFF;stop-opacity:0"/>
			</radialGradient>
			<circle class="st16" cx="318.4" cy="95.6" r="11.4"/>
			
				<radialGradient id="SVGID_6_" cx="243.2134" cy="-197.9393" r="9.3558" gradientTransform="matrix(1 0 0 1 0 496)" gradientUnits="userSpaceOnUse">
				<stop  offset="0.2738" style="stop-color:#FFFFFF"/>
				<stop  offset="0.8763" style="stop-color:#FFFFFF;stop-opacity:0.42"/>
				<stop  offset="1" style="stop-color:#FFFFFF;stop-opacity:0"/>
			</radialGradient>
			<circle class="st17" cx="243.2" cy="298" r="9.4"/>
		</g>
	</g>
	<radialGradient id="SVGID_7_" cx="355.8758" cy="341.4767" r="207.4125" gradientUnits="userSpaceOnUse">
		<stop  offset="0" style="stop-color:#003AAA"/>
		<stop  offset="0.995" style="stop-color:#00366A"/>
	</radialGradient>
	<path class="st18" d="M530.5,266.7c-16.8,24.6-90,60.9-181.7,60.9c-98,0-181.6-38.9-190.3-66.1L74,260.3l246.5,150.6
		c25.7,15.7,58.1,15.7,83.8,0l233.4-142.7L530.5,266.7z"/>
</g>
</svg>
