<?xml version="1.0" encoding="utf-8"?>
<!-- Generator: Adobe Illustrator 21.1.0, SVG Export Plug-In . SVG Version: 6.00 Build 0)  -->
<!DOCTYPE svg PUBLIC "-//W3C//DTD SVG 1.1//EN" "http://www.w3.org/Graphics/SVG/1.1/DTD/svg11.dtd">
<svg version="1.1" id="路由器" xmlns="http://www.w3.org/2000/svg" xmlns:xlink="http://www.w3.org/1999/xlink" x="0px" y="0px"
	 viewBox="0 0 820.6 642.6" style="enable-background:new 0 0 820.6 642.6;" xml:space="preserve">
<style type="text/css">
	.st0{fill:url(#暗角反光_2_);}
	.st1{fill:url(#暗角反光_4_);}
	.st2{fill:url(#中高光_1_);}
	.st3{fill:url(#高光_1_);}
	.st4{fill:url(#顶_1_);}
	.st5{fill:url(#顶面_1_);stroke:#073A76;stroke-width:3;stroke-miterlimit:10;}
	.st6{fill:#043977;}
	.st7{fill:#FFFFFF;}
	.st8{fill:url(#SVGID_1_);}
	.st9{fill:url(#SVGID_2_);}
	.st10{fill:url(#SVGID_3_);}
	.st11{fill:url(#SVGID_4_);}
	.st12{fill:url(#SVGID_5_);}
	.st13{fill:url(#SVGID_6_);}
	.st14{fill:url(#SVGID_7_);}
	.st15{fill:url(#SVGID_8_);}
	.st16{fill:url(#SVGID_9_);}
	.st17{fill:url(#SVGID_10_);}
	.st18{fill:url(#SVGID_11_);}
	.st19{fill:url(#SVGID_12_);}
</style>
<linearGradient id="暗角反光_2_" gradientUnits="userSpaceOnUse" x1="26.7692" y1="568.7875" x2="887.9143" y2="568.7875" gradientTransform="matrix(1 0 0 1 0 -142)">
	<stop  offset="0" style="stop-color:#E7EFF5"/>
	<stop  offset="0.2574" style="stop-color:#C3C5D2"/>
	<stop  offset="0.3352" style="stop-color:#C6C8D5"/>
	<stop  offset="0.3997" style="stop-color:#CED3DD"/>
	<stop  offset="0.4592" style="stop-color:#DDE4EC"/>
	<stop  offset="0.4655" style="stop-color:#DFE6EE"/>
	<stop  offset="0.5842" style="stop-color:#98A5B5"/>
	<stop  offset="0.995" style="stop-color:#7E8EA0"/>
</linearGradient>
<path id="暗角反光_1_" class="st0" d="M500.2,216.2c-28.6-3.3-58.2-5.1-88.7-5.1s-60.1,1.8-88.7,5.1H2.8v210.6
	c0,119.1,183,215.7,408.7,215.7s408.7-96.6,408.7-215.7V216.2H500.2z"/>
<linearGradient id="暗角反光_4_" gradientUnits="userSpaceOnUse" x1="7.2702" y1="568.7875" x2="788.8751" y2="568.7875" gradientTransform="matrix(1 0 0 1 0 -142)">
	<stop  offset="0" style="stop-color:#C3C6D2"/>
	<stop  offset="0.1409" style="stop-color:#C3C6D2;stop-opacity:0"/>
</linearGradient>
<path id="暗角反光_3_" class="st1" d="M500.2,216.2c-28.6-3.3-58.2-5.1-88.7-5.1s-60.1,1.8-88.7,5.1H2.8v210.6
	c0,119.1,183,215.7,408.7,215.7s408.7-96.6,408.7-215.7V216.2H500.2z"/>
<linearGradient id="中高光_1_" gradientUnits="userSpaceOnUse" x1="436.7" y1="734.8691" x2="436.7" y2="535.3734" gradientTransform="matrix(1 0 0 1 0 -142)">
	<stop  offset="0" style="stop-color:#FFFFFF;stop-opacity:0"/>
	<stop  offset="1" style="stop-color:#FFFFFF;stop-opacity:0.3"/>
</linearGradient>
<path id="中高光" class="st2" d="M483,639.2c-5.3,0.5-10.6,0.9-16,1.3V367.3h16V639.2z M390.4,642.2c7,0.2,14.1,0.3,21.1,0.3
	c16.1,0,32-0.5,47.6-1.4v-273h-68.7L390.4,642.2L390.4,642.2z"/>
<linearGradient id="高光_1_" gradientUnits="userSpaceOnUse" x1="79.8" y1="-136.3733" x2="79.8" y2="57.1382" gradientTransform="matrix(1 0 0 -1 0 361.375)">
	<stop  offset="0" style="stop-color:#FFFFFF;stop-opacity:0"/>
	<stop  offset="1" style="stop-color:#FFFFFF;stop-opacity:0.5"/>
</linearGradient>
<polygon id="高光_2_" class="st3" points="103.2,517.3 56.5,517.3 56.4,293.6 103.2,321 "/>
<linearGradient id="顶_1_" gradientUnits="userSpaceOnUse" x1="-20.2294" y1="442.6563" x2="669.7361" y2="307.6631" gradientTransform="matrix(1 0 0 1 0 -142)">
	<stop  offset="0" style="stop-color:#DFE6EE"/>
	<stop  offset="0.5" style="stop-color:#F5F7F8"/>
	<stop  offset="0.995" style="stop-color:#ABB6C3"/>
</linearGradient>
<ellipse id="顶" class="st4" cx="411.5" cy="216.2" rx="408.7" ry="215.7"/>
<linearGradient id="顶面_1_" gradientUnits="userSpaceOnUse" x1="61.5031" y1="355.3624" x2="740.9691" y2="512.8545" gradientTransform="matrix(1 0 0 -1 0 645.375)">
	<stop  offset="0" style="stop-color:#3EADED"/>
	<stop  offset="1" style="stop-color:#0B528D"/>
</linearGradient>
<ellipse id="顶面" class="st5" cx="411.5" cy="208.9" rx="380.2" ry="192"/>
<g id="装饰">
	<path class="st6" d="M654.4,507.2c-2.9,1.2-5.8,2.4-8.7,3.5V557c2.9-1.1,5.8-2.2,8.7-3.4V507.2z"/>
	<path class="st6" d="M674.4,498.3c-2.9,1.4-5.8,2.7-8.7,4v46.6c2.9-1.3,5.8-2.5,8.7-3.8V498.3z"/>
	<path class="st6" d="M634.4,514.9c-2.9,1-5.8,2.1-8.7,3.1v46c2.9-1,5.8-2,8.7-3V514.9z"/>
	<path class="st6" d="M694.4,488.2c-2.9,1.5-5.8,3.1-8.7,4.6v47c2.9-1.4,5.8-2.9,8.7-4.4V488.2z"/>
	<path class="st6" d="M605.7,570.3c2.9-0.8,5.8-1.7,8.7-2.6v-45.9c-2.9,0.9-5.8,1.8-8.7,2.7V570.3z"/>
	<path class="st6" d="M714.4,476.5c-2.8,1.8-5.7,3.6-8.7,5.3v47.5c3-1.7,5.9-3.3,8.7-5.1V476.5z"/>
	<path class="st6" d="M794.4,396.1c-2.6,5-5.5,9.9-8.7,14.7v52.4c3.1-4.1,6-8.3,8.7-12.6V396.1z"/>
	<path class="st6" d="M754.4,446.4c-2.8,2.5-5.7,5.1-8.7,7.5v48.8c3-2.3,5.9-4.7,8.7-7.1V446.4z"/>
	<path class="st6" d="M765.7,485.5c3-2.9,5.9-5.9,8.7-8.9v-50.9c-2.7,3.3-5.7,6.5-8.7,9.7V485.5z"/>
	<path class="st6" d="M734.4,462.9c-2.8,2.1-5.7,4.2-8.7,6.2v48c3-1.9,5.9-3.9,8.7-5.9V462.9z"/>
</g>
<g id="箭头">
	<g>
		<g>
			<polygon class="st7" points="560.6,154 482,203.6 560.6,253.3 560.6,226.5 620.9,226.5 609.1,203.6 620.9,180.7 560.6,180.7 			
				"/>
			<polygon class="st7" points="628.8,226.5 641.8,226.5 630,203.6 641.8,180.7 628.8,180.7 617,203.6 			"/>
			<polygon class="st7" points="649.7,226.5 662.8,226.5 650.9,203.6 662.8,180.7 649.7,180.7 637.9,203.6 			"/>
		</g>
		<g>
			
				<linearGradient id="SVGID_1_" gradientUnits="userSpaceOnUse" x1="65.3512" y1="-136.1957" x2="65.3512" y2="-29.2705" gradientTransform="matrix(6.123234e-17 -1 -1 -6.123234e-17 541.3723 268.9887)">
				<stop  offset="0" style="stop-color:#FFFFFF"/>
				<stop  offset="0.995" style="stop-color:#EBF3F9"/>
			</linearGradient>
			<polygon class="st8" points="560.6,154 560.6,253.3 560.6,226.5 620.9,226.5 609.1,203.6 620.9,180.7 560.6,180.7 			"/>
			
				<linearGradient id="SVGID_2_" gradientUnits="userSpaceOnUse" x1="65.4012" y1="-109.5438" x2="65.4012" y2="-52.9584" gradientTransform="matrix(6.123234e-17 -1 -1 -6.123234e-17 541.3723 268.9887)">
				<stop  offset="0" style="stop-color:#FFFFFF"/>
				<stop  offset="0.995" style="stop-color:#EBF3F9"/>
			</linearGradient>
			<polygon class="st9" points="628.8,226.5 641.8,226.5 630,203.6 641.8,180.7 628.8,180.7 617,203.6 			"/>
			
				<linearGradient id="SVGID_3_" gradientUnits="userSpaceOnUse" x1="65.4012" y1="-109.5438" x2="65.4012" y2="-52.9584" gradientTransform="matrix(6.123234e-17 -1 -1 -6.123234e-17 541.3723 268.9887)">
				<stop  offset="0" style="stop-color:#FFFFFF"/>
				<stop  offset="0.995" style="stop-color:#EBF3F9"/>
			</linearGradient>
			<polygon class="st10" points="649.7,226.5 662.8,226.5 650.9,203.6 662.8,180.7 649.7,180.7 637.9,203.6 			"/>
		</g>
	</g>
	<g>
		<g>
			<polygon class="st7" points="355.6,299.1 405.2,377.7 454.9,299.1 428.1,299.1 428.1,268.8 405.2,280.6 382.4,268.8 382.4,299.1 
							"/>
			<polygon class="st7" points="428.1,260.9 428.1,247.9 405.2,259.7 382.4,247.9 382.4,260.9 405.2,272.7 			"/>
			<polygon class="st7" points="428.1,240 428.1,226.9 405.2,238.8 382.4,226.9 382.4,240 405.2,251.8 			"/>
		</g>
		<g>
			
				<linearGradient id="SVGID_4_" gradientUnits="userSpaceOnUse" x1="-514.5988" y1="593.9128" x2="-514.5988" y2="647.6381" gradientTransform="matrix(-1 0 0 1 -109.3488 -353.6348)">
				<stop  offset="0" style="stop-color:#FFFFFF"/>
				<stop  offset="0.995" style="stop-color:#EBF3F9"/>
			</linearGradient>
			<polygon class="st11" points="355.6,299.1 454.9,299.1 428.1,299.1 428.1,268.8 405.2,280.6 382.4,268.8 382.4,299.1 			"/>
			
				<linearGradient id="SVGID_5_" gradientUnits="userSpaceOnUse" x1="-514.5988" y1="592.3777" x2="-514.5988" y2="648.9631" gradientTransform="matrix(-1 0 0 1 -109.3488 -353.6348)">
				<stop  offset="0" style="stop-color:#FFFFFF"/>
				<stop  offset="0.995" style="stop-color:#EBF3F9"/>
			</linearGradient>
			<polygon class="st12" points="428.1,260.9 428.1,247.9 405.2,259.7 382.4,247.9 382.4,260.9 405.2,272.7 			"/>
			
				<linearGradient id="SVGID_6_" gradientUnits="userSpaceOnUse" x1="-514.5988" y1="592.3777" x2="-514.5988" y2="648.9631" gradientTransform="matrix(-1 0 0 1 -109.3488 -353.6348)">
				<stop  offset="0" style="stop-color:#FFFFFF"/>
				<stop  offset="0.995" style="stop-color:#EBF3F9"/>
			</linearGradient>
			<polygon class="st13" points="428.1,240 428.1,226.9 405.2,238.8 382.4,226.9 382.4,240 405.2,251.8 			"/>
		</g>
	</g>
	<g>
		<g>
			<polygon class="st7" points="428.2,112.2 428.2,142.5 405.3,130.7 382.4,142.5 382.4,112.2 355.6,112.2 405.3,33.6 454.9,112.2 
							"/>
			<polygon class="st7" points="405.3,138.6 428.2,150.4 428.2,163.4 405.3,151.6 382.4,163.4 382.4,150.4 			"/>
			<polygon class="st7" points="405.3,159.5 428.2,171.3 428.2,184.4 405.3,172.5 382.4,184.4 382.4,171.3 			"/>
		</g>
		<g>
			
				<linearGradient id="SVGID_7_" gradientUnits="userSpaceOnUse" x1="237.2012" y1="586.9993" x2="237.2012" y2="640.7245" gradientTransform="matrix(1 0 0 -1 168.0488 757.9053)">
				<stop  offset="0" style="stop-color:#FFFFFF"/>
				<stop  offset="0.995" style="stop-color:#EBF3F9"/>
			</linearGradient>
			<polygon class="st14" points="428.2,112.2 428.2,142.5 405.3,130.7 382.4,142.5 382.4,112.2 355.6,112.2 454.9,112.2 			"/>
			
				<linearGradient id="SVGID_8_" gradientUnits="userSpaceOnUse" x1="237.2512" y1="585.4643" x2="237.2512" y2="642.0497" gradientTransform="matrix(1 0 0 -1 168.0488 757.9053)">
				<stop  offset="0" style="stop-color:#FFFFFF"/>
				<stop  offset="0.995" style="stop-color:#EBF3F9"/>
			</linearGradient>
			<polygon class="st15" points="405.3,138.6 428.2,150.4 428.2,163.4 405.3,151.6 382.4,163.4 382.4,150.4 			"/>
			
				<linearGradient id="SVGID_9_" gradientUnits="userSpaceOnUse" x1="237.2512" y1="585.4643" x2="237.2512" y2="642.0497" gradientTransform="matrix(1 0 0 -1 168.0488 757.9053)">
				<stop  offset="0" style="stop-color:#FFFFFF"/>
				<stop  offset="0.995" style="stop-color:#EBF3F9"/>
			</linearGradient>
			<polygon class="st16" points="405.3,159.5 428.2,171.3 428.2,184.4 405.3,172.5 382.4,184.4 382.4,171.3 			"/>
		</g>
	</g>
	<g>
		<g>
			<polygon class="st7" points="249.8,154 328.4,203.6 249.8,253.3 249.8,226.5 189.5,226.5 201.3,203.6 189.5,180.8 249.8,180.8 
							"/>
			<polygon class="st7" points="181.6,226.5 168.6,226.5 180.4,203.6 168.6,180.8 181.6,180.8 193.4,203.6 			"/>
			<polygon class="st7" points="160.7,226.5 147.6,226.5 159.5,203.6 147.6,180.8 160.7,180.8 172.5,203.6 			"/>
		</g>
		<g>
			
				<linearGradient id="SVGID_10_" gradientUnits="userSpaceOnUse" x1="65.3512" y1="453.7288" x2="65.3512" y2="560.6541" gradientTransform="matrix(6.123234e-17 -1 1 6.123234e-17 -320.8678 268.9887)">
				<stop  offset="0" style="stop-color:#FFFFFF"/>
				<stop  offset="0.995" style="stop-color:#EBF3F9"/>
			</linearGradient>
			<polygon class="st17" points="249.8,154 249.8,253.3 249.8,226.5 189.5,226.5 201.3,203.6 189.5,180.8 249.8,180.8 			"/>
			
				<linearGradient id="SVGID_11_" gradientUnits="userSpaceOnUse" x1="65.3512" y1="480.3807" x2="65.3512" y2="536.9661" gradientTransform="matrix(6.123234e-17 -1 1 6.123234e-17 -320.8678 268.9887)">
				<stop  offset="0" style="stop-color:#FFFFFF"/>
				<stop  offset="0.995" style="stop-color:#EBF3F9"/>
			</linearGradient>
			<polygon class="st18" points="181.6,226.5 168.6,226.5 180.4,203.6 168.6,180.8 181.6,180.8 193.4,203.6 			"/>
			
				<linearGradient id="SVGID_12_" gradientUnits="userSpaceOnUse" x1="65.3512" y1="480.3807" x2="65.3512" y2="536.9661" gradientTransform="matrix(6.123234e-17 -1 1 6.123234e-17 -320.8678 268.9887)">
				<stop  offset="0" style="stop-color:#FFFFFF"/>
				<stop  offset="0.995" style="stop-color:#EBF3F9"/>
			</linearGradient>
			<polygon class="st19" points="160.7,226.5 147.6,226.5 159.5,203.6 147.6,180.8 160.7,180.8 172.5,203.6 			"/>
		</g>
	</g>
</g>
</svg>
