<?xml version="1.0" encoding="utf-8"?>
<!-- Generator: Adobe Illustrator 21.1.0, SVG Export Plug-In . SVG Version: 6.00 Build 0)  -->
<!DOCTYPE svg PUBLIC "-//W3C//DTD SVG 1.1//EN" "http://www.w3.org/Graphics/SVG/1.1/DTD/svg11.dtd">
<svg version="1.1" id="服务器" xmlns="http://www.w3.org/2000/svg" xmlns:xlink="http://www.w3.org/1999/xlink" x="0px" y="0px"
	 viewBox="0 0 696 885.1" style="enable-background:new 0 0 696 885.1;" xml:space="preserve">
<style type="text/css">
	.st0{fill:url(#底部_1_);}
	.st1{fill:url(#暗角反光_1_);}
	.st2{fill:url(#body-高光_1_);}
	.st3{fill:url(#顶-背景_1_);}
	.st4{fill:#043977;}
	.st5{fill:url(#面板_1_);}
	.st6{fill:#0A396F;}
	.st7{fill:url(#SVGID_1_);}
	.st8{fill:#0C1116;}
	.st9{fill:#324F60;}
	.st10{fill:url(#装饰线_1_);}
	.st11{fill:url(#高光_1_);}
</style>
<linearGradient id="底部_1_" gradientUnits="userSpaceOnUse" x1="56.319" y1="203.6041" x2="646.9345" y2="203.6041" gradientTransform="matrix(1 0 0 1 0 294.3334)">
	<stop  offset="0" style="stop-color:#E7EFF5"/>
	<stop  offset="0.1188" style="stop-color:#C3C5D2"/>
	<stop  offset="0.2164" style="stop-color:#C6C8D5"/>
	<stop  offset="0.2858" style="stop-color:#CED3DD"/>
	<stop  offset="0.3368" style="stop-color:#DFE6EE"/>
	<stop  offset="0.375" style="stop-color:#DDE4EC"/>
	<stop  offset="0.4851" style="stop-color:#98A5B5"/>
	<stop  offset="0.995" style="stop-color:#7E8EA0"/>
</linearGradient>
<path id="底部" class="st0" d="M17.5,200.5v495.9c0,18,9.4,34.7,24.7,44l189.9,127.3c34.3,20.9,77.3,20.9,111.6,0l316.9-219.3
	c15.3-9.4,24.7-26.1,24.7-44V112.5L17.5,200.5z"/>
<linearGradient id="暗角反光_1_" gradientUnits="userSpaceOnUse" x1="16.6384" y1="203.6041" x2="652.7224" y2="203.6041" gradientTransform="matrix(1 0 0 1 0 294.3334)">
	<stop  offset="0" style="stop-color:#C3C6D2"/>
	<stop  offset="0.1013" style="stop-color:#C3C6D2;stop-opacity:0"/>
</linearGradient>
<path id="暗角反光" class="st1" d="M17.5,204.5v491.9c0,18,9.4,34.7,24.7,44l189.9,127.3c34.3,20.9,77.3,20.9,111.6,0
	l316.9-219.3c15.3-9.4,24.7-26.1,24.7-44V112.5L17.5,204.5z"/>
<linearGradient id="body-高光_1_" gradientUnits="userSpaceOnUse" x1="274.3921" y1="273.8333" x2="274.3921" y2="680.4289" gradientTransform="matrix(1 0 0 -1 0 1084)">
	<stop  offset="0" style="stop-color:#FFFFFF;stop-opacity:0"/>
	<stop  offset="1" style="stop-color:#FFFFFF;stop-opacity:0.3"/>
</linearGradient>
<path id="body-高光" class="st2" d="M228.1,294.9h68.7v588c-22.2,1.8-44.8-3.3-64.5-15.3l-4.2-2.8V294.9z M304.7,294.2V882
	c5.4-0.9,10.8-2.1,16-3.8v-584H304.7z"/>
<linearGradient id="顶-背景_1_" gradientUnits="userSpaceOnUse" x1="136.1296" y1="-0.1931" x2="516.3486" y2="-215.3173" gradientTransform="matrix(1 0 0 1 0 294.3334)">
	<stop  offset="0" style="stop-color:#DFE6EE"/>
	<stop  offset="0.5" style="stop-color:#F5F7F8"/>
	<stop  offset="0.995" style="stop-color:#ABB6C3"/>
</linearGradient>
<path id="顶-背景" class="st3" d="M668.8,146.8l-323,197.4c-35.6,21.7-80.4,21.7-116,0L28.7,227.8c-16.9-10.3-15.1-35.4,3.1-43.2
	L406.2,7.8c23.4-10,49.8-10,73.1,0l185,76.5C690.7,95.6,693.3,131.9,668.8,146.8z"/>
<path id="装饰_1_" class="st4" d="M427.4,571.2l8.7-6v190l-8.7,6V571.2z M447.4,747.4l8.7-5.9V541.3l-8.7,6V747.4z M467.4,733.7
	l8.7-5.9V517.4l-8.7,6V733.7z M487.4,720l8.7-5.9V493.5l-8.7,6V720z M507.4,706.3l8.7-5.9V469.6l-8.7,6V706.3z M527.4,692.6l8.7-5.9
	v-241l-8.7,6V692.6z M547.4,678.9l8.7-5.9V421.8l-8.7,6V678.9z M567.4,665.2l8.7-5.9V397.9l-8.7,6V665.2z M587.4,651.4l8.7-5.9
	V373.9l-8.7,6V651.4z M607.4,356v281.7l8.7-5.9V350L607.4,356z"/>
<g id="装饰面板">
	
		<linearGradient id="面板_1_" gradientUnits="userSpaceOnUse" x1="38.7992" y1="437.2806" x2="241.4658" y2="444.614" gradientTransform="matrix(1 0 0 1 0 94.3333)">
		<stop  offset="0" style="stop-color:#3EADED"/>
		<stop  offset="1" style="stop-color:#0B528D"/>
	</linearGradient>
	<path id="面板" class="st5" d="M218.8,367.4l-140-81c-4.1-2.5-8.7-3.9-13.4-3.9c-14.3,0-26,12.1-26,26.9v167.7
		c0,7.9,4.1,15.3,10.8,19.6l62.6,39.8c18.3,11.5,29.7,32.4,29.7,54.6V732c0,8,4.1,15.5,11,19.8l53,31.7c4.5,3.1,9.7,4.8,15,4.8
		c13.1,0,27.2-10.7,27.1-28.1V422C248.5,399.8,237.1,378.9,218.8,367.4z"/>
	<g id="边">
		<path class="st6" d="M65.4,284.5c4.2,0,8.5,1.2,12.4,3.6l140,81c17.7,11.2,28.7,31.4,28.7,52.9v338.1c0.1,9.1-4,15.1-7.4,18.5
			c-4.7,4.7-11.3,7.6-17.7,7.6c-4.8,0-9.6-1.5-13.9-4.4l0,0l0,0l-53-31.7c-6.3-3.9-10-10.7-10-18.1V591c0-22.8-11.7-44.4-30.6-56.3
			l-62.6-39.8c-6.2-3.9-9.8-10.6-9.8-17.9V309.4C41.4,295.6,52.2,284.5,65.4,284.5 M65.4,282.5c-14.3,0-26,12.1-26,26.9v167.7
			c0,7.9,4.1,15.3,10.8,19.6l62.6,39.8c18.3,11.5,29.7,32.4,29.7,54.6V732c0,8,4.1,15.5,11,19.8l53,31.7c4.5,3.1,9.7,4.8,15,4.8
			c13.1,0,27.2-10.7,27.1-28.1V422c0-22.2-11.4-43.1-29.7-54.6l-140-81C74.7,283.9,70.1,282.5,65.4,282.5L65.4,282.5z"/>
	</g>
</g>
<g id="按钮">
	
		<linearGradient id="SVGID_1_" gradientUnits="userSpaceOnUse" x1="50.8806" y1="462.95" x2="80.938" y2="462.95" gradientTransform="matrix(1 0 0 -1 0 1084)">
		<stop  offset="0" style="stop-color:#3EADED"/>
		<stop  offset="1" style="stop-color:#0B528D"/>
	</linearGradient>
	<path class="st7" d="M78.1,697.7c-0.8,0-1.6-0.2-2.4-0.7L52,681c-2.1-1.2-3.3-3.4-3.3-5.9v-19.9c0-1.7,1.5-2.8,2.8-2.8
		c0.5,0,1,0.2,1.5,0.4L78.7,669c2.5,1.5,4.1,4.2,4,7.2V693c0,1.3-0.5,2.5-1.4,3.3C80.5,697.2,79.3,697.7,78.1,697.7L78.1,697.7z
		 M78.1,642.7c-0.8,0-1.6-0.2-2.4-0.7L52,626c-2.1-1.2-3.3-3.4-3.3-5.9v-19.9c0-1.7,1.5-2.8,2.8-2.8c0.5,0,1,0.2,1.5,0.4L78.7,614
		c2.5,1.5,4.1,4.2,4,7.2V638c0,1.3-0.5,2.5-1.4,3.3C80.5,642.2,79.3,642.7,78.1,642.7L78.1,642.7z M78.2,589.7
		c-0.8,0-1.6-0.2-2.4-0.7l-23.7-16c-2.1-1.3-3.3-3.5-3.3-5.9v-19.9c0-1.7,1.5-2.8,2.8-2.8c0.5,0,1,0.1,1.5,0.4L78.8,561
		c2.4,1.5,4,4.3,4,7.2V585C82.9,587.9,80.5,589.7,78.2,589.7z"/>
	<path class="st6" d="M51.7,544.9L51.7,544.9c0.4,0,0.8,0.1,1.2,0.4l25.7,16.2c2.3,1.4,3.7,4,3.7,6.7V585c0,2.6-2.2,4.2-4.2,4.2
		c-0.7,0-1.5-0.2-2.1-0.6l-23.7-16c-1.9-1.2-3-3.2-3-5.5v-19.9C49.4,545.8,50.6,544.9,51.7,544.9 M51.6,597.9c0.4,0,0.8,0.1,1.2,0.4
		l25.7,16.2c2.4,1.4,3.8,4,3.7,6.7V638c0,2.6-2.2,4.2-4.2,4.2c-0.7,0-1.5-0.2-2.1-0.6l-23.7-16l0,0l0,0c-1.9-1.1-3-3.1-3-5.4v-20
		C49.3,598.8,50.5,597.9,51.6,597.9 M51.6,652.9c0.4,0,0.8,0.1,1.2,0.4l25.7,16.2c2.4,1.4,3.8,4,3.7,6.7V693c0,2.6-2.2,4.2-4.2,4.2
		c-0.7,0-1.5-0.2-2.1-0.6l-23.7-16l0,0l0,0c-1.9-1.1-3-3.1-3-5.4v-20C49.3,653.8,50.5,652.9,51.6,652.9 M51.7,543.9
		c-1.7,0-3.3,1.4-3.3,3.3v19.9c0,2.6,1.3,4.9,3.5,6.3l23.7,16c0.8,0.5,1.8,0.8,2.6,0.8c2.7,0,5.2-2.2,5.2-5.2v-16.8
		c0-3.1-1.6-6-4.2-7.6l-25.7-16.2C52.9,544,52.3,543.9,51.7,543.9L51.7,543.9z M51.6,596.9c-1.7,0-3.3,1.4-3.3,3.3v19.9
		c0,2.6,1.3,5,3.5,6.3l23.7,16c0.8,0.5,1.8,0.8,2.6,0.8c2.7,0,5.2-2.2,5.2-5.2v-16.8c0.1-3.1-1.5-6-4.2-7.6l-25.7-16.2
		C52.8,597,52.2,596.9,51.6,596.9L51.6,596.9z M51.6,651.9c-1.7,0-3.3,1.4-3.3,3.3v19.9c0,2.6,1.3,5,3.5,6.3l23.7,16
		c0.8,0.5,1.8,0.8,2.6,0.8c2.7,0,5.2-2.2,5.2-5.2v-16.8c0.1-3.1-1.5-6-4.2-7.6l-25.7-16.2C52.8,652,52.2,651.9,51.6,651.9
		L51.6,651.9z"/>
</g>
<g id="USB">
	<path class="st8" d="M202.9,603.7v34.5l-13-8v-34.5L202.9,603.7z M189.9,681.5l13,8V655l-13-8V681.5z M189.9,731.5l13,8V705l-13-8
		V731.5z"/>
	<path id="装饰_2_" class="st9" d="M193.9,598.2v34.5l-4-2.5v-34.5L193.9,598.2z M189.9,681.5l4,2.5v-34.5l-4-2.5V681.5z
		 M189.9,731.5l4,2.5v-34.5l-4-2.5V731.5z"/>
</g>
<linearGradient id="装饰线_1_" gradientUnits="userSpaceOnUse" x1="63.3921" y1="683.8" x2="195.3921" y2="683.8" gradientTransform="matrix(1 0 0 -1 0 1084)">
	<stop  offset="0" style="stop-color:#DFE6EE"/>
	<stop  offset="0.5" style="stop-color:#F5F7F8"/>
	<stop  offset="0.995" style="stop-color:#ABB6C3"/>
</linearGradient>
<path id="装饰线" class="st10" d="M195.4,398.7v6l-132-77v-6L195.4,398.7z M63.4,346.7l132,77v-6l-132-77V346.7z M63.4,364.7
	l132,77v-6l-132-77V364.7z M63.4,383.7l132,77v-6l-132-77V383.7z M63.4,401.7l132,77v-6l-132-77V401.7z"/>
<linearGradient id="高光_1_" gradientUnits="userSpaceOnUse" x1="80.9921" y1="493.3453" x2="80.9921" y2="818.5947" gradientTransform="matrix(1 0 0 -1 0 1084)">
	<stop  offset="0" style="stop-color:#FFFFFF;stop-opacity:0"/>
	<stop  offset="1" style="stop-color:#FFFFFF;stop-opacity:0.5"/>
</linearGradient>
<polygon id="高光_2_" class="st11" points="99.4,623.6 62.7,623.6 62.6,247.5 99.4,269 "/>
</svg>
