<?xml version="1.0" encoding="utf-8"?>
<!-- Generator: Adobe Illustrator 21.1.0, SVG Export Plug-In . SVG Version: 6.00 Build 0)  -->
<!DOCTYPE svg PUBLIC "-//W3C//DTD SVG 1.1//EN" "http://www.w3.org/Graphics/SVG/1.1/DTD/svg11.dtd">
<svg version="1.1" id="标准应用" xmlns="http://www.w3.org/2000/svg" xmlns:xlink="http://www.w3.org/1999/xlink" x="0px"
	 y="0px" viewBox="0 0 857 897" style="enable-background:new 0 0 857 897;" xml:space="preserve">
<style type="text/css">
	.st0{fill:url(#底部_1_);}
	.st1{fill:url(#暗角反光_1_);}
	.st2{fill:url(#中高光_1_);}
	.st3{fill:url(#顶-背景_1_);}
	.st4{fill:#043977;}
	.st5{fill:#073A76;}
	.st6{fill:url(#SVGID_1_);}
	.st7{fill:url(#SVGID_2_);stroke:#073A76;stroke-miterlimit:10;}
	.st8{fill:url(#SVGID_3_);}
	.st9{fill:url(#SVGID_4_);stroke:#073A76;stroke-miterlimit:10;}
	.st10{fill:url(#SVGID_5_);}
	.st11{fill:url(#SVGID_6_);stroke:#073A76;stroke-miterlimit:10;}
	.st12{fill:url(#高光_1_);}
</style>
<linearGradient id="底部_1_" gradientUnits="userSpaceOnUse" x1="75.0567" y1="143.0375" x2="789.5003" y2="143.0375" gradientTransform="matrix(1 0 0 1 0 385.5)">
	<stop  offset="0" style="stop-color:#E7EFF5"/>
	<stop  offset="0.2574" style="stop-color:#C3C5D2"/>
	<stop  offset="0.3352" style="stop-color:#C6C8D5"/>
	<stop  offset="0.3997" style="stop-color:#CED3DD"/>
	<stop  offset="0.4592" style="stop-color:#DDE4EC"/>
	<stop  offset="0.4655" style="stop-color:#DFE6EE"/>
	<stop  offset="0.5693" style="stop-color:#98A5B5"/>
	<stop  offset="0.995" style="stop-color:#7E8EA0"/>
</linearGradient>
<path id="底部" class="st0" d="M28.1,178.1V600c0,18,9.4,34.7,24.7,44l329.9,219.3c34.3,20.9,77.3,20.9,111.6,0L811.2,644
	c15.3-9.4,24.7-26.1,24.7-44V182.1L28.1,178.1z"/>
<linearGradient id="暗角反光_1_" gradientUnits="userSpaceOnUse" x1="27.0567" y1="145.0375" x2="796.5018" y2="145.0375" gradientTransform="matrix(1 0 0 1 0 385.5)">
	<stop  offset="0" style="stop-color:#C3C6D2"/>
	<stop  offset="0.1409" style="stop-color:#C3C6D2;stop-opacity:0"/>
</linearGradient>
<path id="暗角反光" class="st1" d="M28.1,182.1V600c0,18,9.4,34.7,24.7,44l329.9,219.3c34.3,20.9,77.3,20.9,111.6,0L811.2,644
	c15.3-9.4,24.7-26.1,24.7-44V182.1H28.1z"/>
<linearGradient id="中高光_1_" gradientUnits="userSpaceOnUse" x1="425" y1="168.25" x2="425" y2="515.263" gradientTransform="matrix(1 0 0 -1 0 980)">
	<stop  offset="0" style="stop-color:#FFFFFF;stop-opacity:0"/>
	<stop  offset="1" style="stop-color:#FFFFFF;stop-opacity:0.3"/>
</linearGradient>
<path id="中高光" class="st2" d="M378.7,364.5h68.7v514c-22.2,1.8-44.8-3.3-64.5-15.3l-4.2-2.8V364.5z M455.3,363.8v513.8
	c5.4-0.9,10.8-2.1,16-3.8v-510H455.3z"/>
<linearGradient id="顶-背景_1_" gradientUnits="userSpaceOnUse" x1="190.1447" y1="-52.7139" x2="616.2511" y2="-293.8005" gradientTransform="matrix(1 0 0 1 0 385.5)">
	<stop  offset="0" style="stop-color:#DFE6EE"/>
	<stop  offset="0.5" style="stop-color:#F5F7F8"/>
	<stop  offset="0.995" style="stop-color:#ABB6C3"/>
</linearGradient>
<path id="顶-背景" class="st3" d="M819.4,216.4l-323,197.4c-35.6,21.7-80.4,21.7-116,0L39.3,205.4c-16.9-10.3-15.1-35.4,3.1-43.2
	L401.8,8.4c23.4-10,49.8-10,73.1,0l340,145.5C841.3,165.1,843.9,201.4,819.4,216.4z"/>
<g id="装饰">
	<path class="st4" d="M578,716.8l8.7-6v40l-8.7,6V716.8z M598,743l8.7-5.9v-40.2l-8.7,6V743z M618,729.3l8.7-5.9V683l-8.7,6V729.3z
		 M638,715.5l8.7-5.9V669l-8.7,6V715.5z M658,701.8l8.7-5.9v-40.8l-8.7,6V701.8z M678,688.2l8.7-5.9v-41l-8.7,6V688.2z M698,674.5
		l8.7-5.9v-41.2l-8.7,6V674.5z M718,660.8l8.7-5.9v-41.4l-8.7,6V660.8z M738,647l8.7-5.9v-41.6l-8.7,6V647z M758,591.5v41.7l8.7-5.9
		v-41.8L758,591.5z"/>
</g>
<g id="图形">
	<g>
		<path class="st5" d="M192,439.6c0.1-37.5-28.8-87.4-64.7-111.3c-35.8-23.9-64.9-12.9-64.9,24.6s28.9,87.4,64.7,111.3
			c0.1,0.1,0.2,0.1,0.3,0.2l0,0l64.4,43.2l0.3-67.7l0,0C192,439.9,192,439.8,192,439.6z"/>
	</g>
	<g>
		<g>
			
				<linearGradient id="SVGID_1_" gradientUnits="userSpaceOnUse" x1="213.2" y1="311.4" x2="341.3023" y2="311.4" gradientTransform="matrix(1 0 0 1 0 185.5)">
				<stop  offset="0" style="stop-color:#3EADED"/>
				<stop  offset="1" style="stop-color:#0B528D"/>
			</linearGradient>
			<path class="st6" d="M311.6,576.5c-10.3,0-22.1-4.3-34.3-12.5l-0.7-0.5L213.2,521l0.3-67.2c0.1-22.8,11.2-36.5,29.6-36.5
				c10.3,0,22.2,4.3,34.4,12.5c35.5,23.7,64.1,73.1,63.8,110.2C341.2,562.8,330.1,576.5,311.6,576.5z"/>
			<path class="st5" d="M243.2,416.8v1c10.2,0,22,4.3,34.1,12.4c35.3,23.6,63.9,72.9,63.6,109.8c-0.2,22.5-11.1,36-29.3,36
				c-10.2,0-21.9-4.3-34-12.4l-0.7-0.5l-63.1-42.3l0.3-67c0.1-22.5,11-36,29.1-36L243.2,416.8 M243.2,416.8c-18,0-30,13.1-30.1,37
				l-0.3,67.5l63.6,42.6l0.7,0.5c12.7,8.5,24.5,12.6,34.5,12.6c18,0,30.1-13.1,30.3-37c0.3-37.2-28.4-86.8-64-110.6
				C265.2,420.9,253.3,416.8,243.2,416.8L243.2,416.8z"/>
		</g>
		
			<linearGradient id="SVGID_2_" gradientUnits="userSpaceOnUse" x1="212.4" y1="411.4" x2="342.3023" y2="411.4" gradientTransform="matrix(1 0 0 1 0 85.5)">
			<stop  offset="0" style="stop-color:#3EADED"/>
			<stop  offset="1" style="stop-color:#0B528D"/>
		</linearGradient>
		<path class="st7" d="M277.9,429.8c35.3,23.6,63.8,72.9,63.5,109.9S312.2,587.6,277,564l-0.1-0.1l-0.1-0.1l-0.8-0.5l0,0l-62.8-42.1
			l0.3-66l0,0v-0.9v-0.1v-0.1C213.7,417,242.6,406.1,277.9,429.8 M277.9,428.9c-35.8-23.9-65-12.9-65.2,24.6c0,0.1,0,0.2,0,0.3l0,0
			l-0.3,67.7l64.4,43.2l0,0c0.1,0.1,0.2,0.1,0.3,0.2c35.7,23.9,64.9,12.9,65.2-24.6C342.6,502.6,313.8,452.9,277.9,428.9
			L277.9,428.9z"/>
	</g>
	<g>
		<g>
			
				<linearGradient id="SVGID_3_" gradientUnits="userSpaceOnUse" x1="63.4" y1="376.1" x2="190.8" y2="376.1" gradientTransform="matrix(1 0 0 1 0 185.5)">
				<stop  offset="0" style="stop-color:#3EADED"/>
				<stop  offset="1" style="stop-color:#0B528D"/>
			</linearGradient>
			<path class="st8" d="M161.2,641.2c-10.2,0-22-4.3-34.1-12.5C92,605,63.4,555.5,63.4,518.5c0-22.8,10.9-36.5,29.3-36.5
				c10.2,0,22,4.3,34.2,12.5l0.7,0.4l63.2,42.4l-0.3,67.2C190.4,627.5,179.5,641.2,161.2,641.2z"/>
			<path class="st5" d="M92.7,481.5v1c10.1,0,21.8,4.3,33.9,12.4l0,0l0,0l0.7,0.4l63,42.3l-0.3,67c-0.1,22.6-10.8,36.1-28.8,36.1
				c-10.1,0-21.8-4.3-33.8-12.4c-35-23.6-63.5-72.8-63.5-109.8c0-22.5,10.7-36,28.8-36L92.7,481.5 M92.7,481.5
				c-17.9,0-29.8,13.1-29.8,37c0,37.2,28.6,86.8,63.9,110.6c12.6,8.5,24.4,12.6,34.4,12.6c17.9,0,29.8-13.1,29.8-37.1l0.3-67.5
				l-63.5-42.6l-0.7-0.4C114.4,485.5,102.6,481.5,92.7,481.5L92.7,481.5z"/>
		</g>
		
			<linearGradient id="SVGID_4_" gradientUnits="userSpaceOnUse" x1="62.4" y1="476.05" x2="191.7" y2="476.05" gradientTransform="matrix(1 0 0 1 0 85.5)">
			<stop  offset="0" style="stop-color:#3EADED"/>
			<stop  offset="1" style="stop-color:#0B528D"/>
		</linearGradient>
		<path class="st9" d="M190.9,537.3l-0.2,66l0,0v0.9v0.1v0.1c-0.1,37-28.8,47.9-63.8,24.3C91.8,605,63.3,555.8,63.3,518.8
			s28.6-47.9,63.8-24.3l0.1,0.1l0.1,0.1l0.8,0.5l0,0L190.9,537.3 M191.7,537l-64.4-43.2l0,0c-0.1-0.1-0.2-0.1-0.3-0.2
			c-35.7-23.9-64.6-12.9-64.6,24.6s28.8,87.4,64.3,111.3s64.5,12.9,64.6-24.6c0-0.1,0-0.2,0-0.3l0,0L191.7,537L191.7,537z"/>
	</g>
	<g>
		<g>
			
				<linearGradient id="SVGID_5_" gradientUnits="userSpaceOnUse" x1="212.8989" y1="461.6" x2="339.9023" y2="461.6" gradientTransform="matrix(1 0 0 1 0 185.5)">
				<stop  offset="0" style="stop-color:#3EADED"/>
				<stop  offset="1" style="stop-color:#0B528D"/>
			</linearGradient>
			<path class="st10" d="M310.4,741.7c-10.2,0-22-4.3-34.1-12.4c-35.1-23.7-63.6-73.1-63.4-110.2l0.3-66.6l62.7,42.1l0.7,0.4
				c35.2,23.7,63.6,73.1,63.3,110.2C339.8,728,328.8,741.7,310.4,741.7z"/>
			<path class="st5" d="M213.7,553.5l62,41.6l0,0l0,0l0.7,0.4c35.1,23.6,63.4,72.8,63.1,109.7c-0.2,22.6-11.1,36-29.1,36
				c-10.1,0-21.8-4.3-33.8-12.4c-35-23.6-63.4-72.9-63.2-109.8v-0.7L213.7,553.5 M212.7,551.5l-0.3,66.8v0.7
				c-0.2,37.2,28.3,86.8,63.6,110.6c12.6,8.5,24.4,12.5,34.4,12.5c17.9,0,29.9-13.1,30.1-37c0.3-37.2-28.2-86.8-63.6-110.6l-0.7-0.4
				L212.7,551.5L212.7,551.5z"/>
		</g>
		
			<linearGradient id="SVGID_6_" gradientUnits="userSpaceOnUse" x1="211.9989" y1="561.2676" x2="340.9023" y2="561.2676" gradientTransform="matrix(1 0 0 1 0 85.5)">
			<stop  offset="0" style="stop-color:#3EADED"/>
			<stop  offset="1" style="stop-color:#0B528D"/>
		</linearGradient>
		<path class="st11" d="M276.9,595c35.2,23.6,63.5,72.9,63.2,109.9s-29,47.9-64.1,24.3c-35-23.6-63.4-72.9-63.2-109.9v-0.1v-0.1
			v-0.9l0,0l0.3-66l62.7,42.1l0,0l0.8,0.5l0.1,0.1L276.9,595 M276.9,594.2c-0.1-0.1-0.2-0.1-0.3-0.2l0,0l-64.3-43.2l-0.3,67.7l0,0
			c0,0.1,0,0.2,0,0.3c-0.2,37.5,28.5,87.4,64,111.3s64.6,12.9,64.9-24.6S312.6,618,276.9,594.2L276.9,594.2z"/>
	</g>
</g>
<linearGradient id="高光_1_" gradientUnits="userSpaceOnUse" x1="95.9" y1="286.488" x2="95.9" y2="-38.7614" gradientTransform="matrix(1 0 0 1 0 285.5)">
	<stop  offset="0" style="stop-color:#FFFFFF;stop-opacity:0"/>
	<stop  offset="1" style="stop-color:#FFFFFF;stop-opacity:0.5"/>
</linearGradient>
<polygon id="高光_2_" class="st12" points="114.3,605 77.6,605 77.5,228.9 114.3,251.4 "/>
</svg>
