<?xml version="1.0" encoding="utf-8"?>
<!-- Generator: Adobe Illustrator 21.0.0, SVG Export Plug-In . SVG Version: 6.00 Build 0)  -->
<svg version="1.1" id="图层_1" xmlns="http://www.w3.org/2000/svg" xmlns:xlink="http://www.w3.org/1999/xlink" x="0px" y="0px"
	 viewBox="0 0 779 814" style="enable-background:new 0 0 779 814;" xml:space="preserve">
<style type="text/css">
	.st0{fill:url(#SVGID_1_);}
	.st1{fill:url(#SVGID_2_);}
	.st2{fill:#FFFFFF;}
	.st3{fill:url(#SVGID_3_);}
	.st4{fill:url(#SVGID_4_);}
	.st5{opacity:0.62;fill:#4F5556;enable-background:new    ;}
	.st6{fill:url(#SVGID_5_);}
	.st7{fill:url(#SVGID_6_);}
	.st8{fill:url(#SVGID_7_);}
	.st9{fill:#0A335B;}
	.st10{fill:url(#SVGID_8_);stroke:url(#SVGID_9_);stroke-width:9;stroke-miterlimit:10;}
	.st11{fill:#21201B;}
	.st12{fill:#FCF629;}
	.st13{fill:#FFFDE3;}
	.st14{fill:url(#SVGID_10_);stroke:url(#SVGID_11_);stroke-width:12;stroke-miterlimit:10;}
	.st15{fill:url(#body-高光_1_);}
	.st16{fill:#1E262D;}
	.st17{fill:#5A676B;}
	.st18{opacity:0.29;fill:#223438;enable-background:new    ;}
	.st19{fill:url(#body_1_);}
	.st20{fill:url(#地面_1_);}
	.st21{fill:url(#光线_1_);}
	.st22{fill:url(#SVGID_12_);}
	.st23{fill:url(#SVGID_13_);}
	.st24{fill:url(#SVGID_14_);}
	.st25{fill:url(#SVGID_15_);}
	.st26{fill:url(#SVGID_16_);}
	.st27{fill:url(#SVGID_17_);}
</style>
<g>
	
		<radialGradient id="SVGID_1_" cx="355.4312" cy="-5165.0713" r="349.3145" gradientTransform="matrix(1 0 0 -1 0 -4809.5449)" gradientUnits="userSpaceOnUse">
		<stop  offset="0.1458" style="stop-color:#91D9FF"/>
		<stop  offset="0.8886" style="stop-color:#1156A3"/>
		<stop  offset="1" style="stop-color:#0A396F"/>
	</radialGradient>
	<path class="st0" d="M691.1,527.2L19.8,708c-5.8,0-10.5-4.7-10.5-10.5l5.3-535.7c0-5.8,4.7-10.5,10.5-10.5l666-148.2
		c5.8,0,10.5,4.7,10.5,10.5v503.1C701.7,522.5,696.9,527.2,691.1,527.2z"/>
	
		<linearGradient id="SVGID_2_" gradientUnits="userSpaceOnUse" x1="266.8904" y1="-154.2125" x2="571.0424" y2="148.2303" gradientTransform="matrix(1 2.818500e-03 -2.818500e-03 1 -7.8195 118.5112)">
		<stop  offset="0" style="stop-color:#D7DDE6"/>
		<stop  offset="0.995" style="stop-color:#7E8EA0"/>
	</linearGradient>
	<polygon class="st1" points="699,5.7 81.4,143.2 101.1,217.2 768.1,63.1 	"/>
	<polygon class="st2" points="95.9,140.2 694.8,6 695.4,8.7 96.6,142.9 	"/>
	
		<linearGradient id="SVGID_3_" gradientUnits="userSpaceOnUse" x1="-3261.9807" y1="1325.9818" x2="-3226.8337" y2="1327.9178" gradientTransform="matrix(0.6318 -0.7298 1.1262 0.9749 1275.5139 -3614.0159)">
		<stop  offset="0" style="stop-color:#8292A3"/>
		<stop  offset="0.4678" style="stop-color:#BFC7D3"/>
		<stop  offset="1" style="stop-color:#505F70"/>
	</linearGradient>
	<path class="st3" d="M760.4,82.1L760.4,82.1c-5.7,6.5-15.6,7.3-22.1,1.6l-56.7-49c-6.5-5.7-7.3-15.6-1.6-22.1l0,0
		c5.7-6.5,15.6-7.3,22.1-1.6l56.7,49C765.3,65.7,766,75.6,760.4,82.1z"/>
	
		<linearGradient id="SVGID_4_" gradientUnits="userSpaceOnUse" x1="125.3542" y1="-5066.0947" x2="6.804" y2="-5184.6445" gradientTransform="matrix(1 0 0 -1 0 -4809.5449)">
		<stop  offset="0" style="stop-color:#D8E8F3"/>
		<stop  offset="0.6733" style="stop-color:#505F70"/>
	</linearGradient>
	<path class="st4" d="M15.7,384l0.1-94.2c0,0-1.8-75.2,70.1-72.7l-2.7,193L15.7,384z"/>
	<path class="st5" d="M50.8,215.5c0,0-24.3,48.3,41.3,51.8S50.8,215.5,50.8,215.5z"/>
	
		<linearGradient id="SVGID_5_" gradientUnits="userSpaceOnUse" x1="128.8271" y1="-4956.2246" x2="50.5448" y2="-5034.5068" gradientTransform="matrix(1 0 0 -1 0 -4809.5449)">
		<stop  offset="0.3762" style="stop-color:#D8E8F3"/>
		<stop  offset="0.6658" style="stop-color:#7FA6CD"/>
		<stop  offset="1" style="stop-color:#35353A"/>
	</linearGradient>
	<path class="st6" d="M21.4,164.5c0-0.4,0.1-0.7,0.1-1.1c0.8-2.4,2.8-6.8,5-7.3c18.6-4.9,77.8-18,88.3-20.3
		c2.2-0.3,38.3,34.4,50.6,47.3c2.8,2.9,11.2,10.7,8.4,12.1l-72.3,18.1c-5.3,1.3-9,6.1-9,11.6v4.6c0,9.3-10.2,15-18.2,10.2
		c-17.2-10.6-44.3-28.1-52.7-52.6c-0.5-1.4-0.4-6.7-0.4-10.3L21.4,164.5z"/>
	
		<linearGradient id="SVGID_6_" gradientUnits="userSpaceOnUse" x1="146.0109" y1="-5281.7461" x2="-38.2117" y2="-5465.9688" gradientTransform="matrix(1 0 0 -1 0 -4809.5449)">
		<stop  offset="0" style="stop-color:#D8E8F3"/>
		<stop  offset="0.6386" style="stop-color:#505F70"/>
	</linearGradient>
	<path class="st7" d="M15,376.3l-3.3,326.1c0,2.8,1.2,5.4,3.3,7.2l59.2,49c3.9,3.4,9.8,2.9,13.3-0.9l122.8-138.3
		c2.9-3.2,3.2-8,0.8-11.5L83.9,410.1c-0.4-0.5-0.5,0.6-0.7,0"/>
	
		<linearGradient id="SVGID_7_" gradientUnits="userSpaceOnUse" x1="80.8806" y1="-5220.8711" x2="770.1804" y2="-5220.8711" gradientTransform="matrix(1 0 0 -1 0 -4809.5449)">
		<stop  offset="0" style="stop-color:#D7DDE6"/>
		<stop  offset="0.995" style="stop-color:#7E8EA0"/>
	</linearGradient>
	<path class="st8" d="M759.7,583.1L91.4,763.8c-5.8,0-10.5-4.7-10.5-10.5l0.3-535.7c0-5.8,4.7-10.5,10.5-10.5l668-148.2
		c5.8,0,10.5,4.7,10.5,10.5v503.1C770.2,578.3,765.5,583.1,759.7,583.1z"/>
	<polygon class="st2" points="89.1,207.8 761.7,59.1 768.1,63.1 83.6,214.6 	"/>
	<polygon class="st9" points="80.9,411.3 15,376.3 15,368 80.9,403 	"/>
	<polygon class="st9" points="80.9,427.8 15,392.8 15,384.4 80.9,419.4 	"/>
	<polygon class="st9" points="80.9,444.2 15,409.2 15,400.8 80.9,435.8 	"/>
	<polygon class="st9" points="80.9,460.7 15,425.7 15,417.3 80.9,452.3 	"/>
	<polygon class="st9" points="80.9,477.1 15,442.1 15,433.7 80.9,468.7 	"/>
	<polygon class="st9" points="80.9,493.5 15,458.5 15,450.2 80.9,485.2 	"/>
	<polygon class="st9" points="79.9,510 14,475 14,466.6 79.9,501.6 	"/>
	<polygon class="st9" points="79.9,526.4 14,491.4 14,483 79.9,518 	"/>
	<polygon class="st9" points="79.9,542.8 14,507.8 14,499.5 79.9,534.5 	"/>
	<polygon class="st9" points="79.9,559.3 14,524.3 14,515.9 79.9,550.9 	"/>
	<polygon class="st9" points="79.9,575.7 14,540.7 14,532.3 79.9,567.3 	"/>
	<polygon class="st9" points="79.9,592.2 14,557.2 14,548.8 79.9,583.8 	"/>
	<rect x="82.9" y="214" class="st2" width="2.8" height="545"/>
	
		<linearGradient id="SVGID_8_" gradientUnits="userSpaceOnUse" x1="791.0143" y1="-1799.8414" x2="1165.4756" y2="-1779.2142" gradientTransform="matrix(0.9359 0.3524 -0.3524 0.9359 -1190.6915 1757.9122)">
		<stop  offset="0" style="stop-color:#DEE3EA"/>
		<stop  offset="0.995" style="stop-color:#7E8EA0"/>
	</linearGradient>
	
		<linearGradient id="SVGID_9_" gradientUnits="userSpaceOnUse" x1="159.7588" y1="323.8213" x2="551.1448" y2="323.8213" gradientTransform="matrix(1 0 0 1 0 104)">
		<stop  offset="0" style="stop-color:#FFFFFF"/>
		<stop  offset="0.245" style="stop-color:#F8F8F8"/>
		<stop  offset="0.4728" style="stop-color:#C7CFD9"/>
		<stop  offset="0.6955" style="stop-color:#909094"/>
		<stop  offset="1" style="stop-color:#DEE2E7"/>
	</linearGradient>
	<path class="st10" d="M530.9,493.9c-42,111.5-154.6,172.4-251.4,135.9c-96.9-36.5-141.4-156.4-99.4-268s154.6-172.4,251.4-135.9
		S572.8,382.3,530.9,493.9z"/>
	<ellipse class="st11" cx="25.7" cy="597.4" rx="5.1" ry="9.3"/>
	<ellipse class="st12" cx="24.7" cy="597.4" rx="5.1" ry="9.3"/>
	<ellipse class="st13" cx="22.7" cy="598" rx="1.5" ry="5.1"/>
	
		<linearGradient id="SVGID_10_" gradientUnits="userSpaceOnUse" x1="896.6421" y1="-1787.5294" x2="1064.6345" y2="-1778.2755" gradientTransform="matrix(0.9359 0.3524 -0.3524 0.9359 -1190.6915 1757.9122)">
		<stop  offset="0" style="stop-color:#DBE0E7"/>
		<stop  offset="1" style="stop-color:#DEE2E7"/>
	</linearGradient>
	
		<linearGradient id="SVGID_11_" gradientUnits="userSpaceOnUse" x1="632.0557" y1="-564.2828" x2="813.3917" y2="-564.2828" gradientTransform="matrix(0.9876 0.1567 -0.1567 0.9876 -446.5641 878.949)">
		<stop  offset="0" style="stop-color:#FFFFFF"/>
		<stop  offset="0.245" style="stop-color:#F8F8F8"/>
		<stop  offset="0.4282" style="stop-color:#909094"/>
		<stop  offset="1" style="stop-color:#DEE2E7"/>
	</linearGradient>
	<path class="st14" d="M434.1,464.5c-18.8,50-69.3,77.3-112.8,61c-43.4-16.4-63.4-70.2-44.6-120.2s69.3-77.3,112.8-61
		S453,414.5,434.1,464.5z"/>
	
		<linearGradient id="body-高光_1_" gradientUnits="userSpaceOnUse" x1="124.1804" y1="230.7146" x2="124.1804" y2="-192.1816" gradientTransform="matrix(1 0 0 1 0 496)">
		<stop  offset="0" style="stop-color:#FFFFFF;stop-opacity:0"/>
		<stop  offset="1" style="stop-color:#FFFFFF;stop-opacity:0.3"/>
	</linearGradient>
	<path id="body-高光_2_" class="st15" d="M90.7,207.5l61.1-13.4l-5.2,608.2c-22.2,1.8-44.8-3.3-64.5-15.3l-4.2-2.8L86,210.6
		L90.7,207.5z M154.3,193.6l0.2,607.9c5.4-0.9,10.8-2.1,16-3.8V190.1l-15,3.2L154.3,193.6z"/>
	<ellipse class="st16" cx="750.8" cy="88.4" rx="11" ry="12"/>
	<g>
		<path class="st17" d="M759.1,78.5l-6.8,7.4l7.2,7.9c1.5-2,2.3-4.6,2.3-7.4C761.9,83.3,760.8,80.6,759.1,78.5z"/>
		<path class="st17" d="M750.8,84.3l6.8-7.4c-1.9-1.6-4.2-2.6-6.8-2.6c-2.6,0-4.9,1-6.8,2.6L750.8,84.3z"/>
		<path class="st17" d="M750.8,87.5l-7.3,7.9c1.9,1.9,4.5,3,7.3,3s5.3-1.1,7.3-3L750.8,87.5z"/>
		<path class="st17" d="M749.4,85.9l-6.8-7.4c-1.7,2.1-2.8,4.9-2.8,7.9c0,2.8,0.9,5.4,2.3,7.4L749.4,85.9z"/>
	</g>
	<ellipse class="st16" cx="750.8" cy="560.3" rx="11" ry="12"/>
	<g>
		<path class="st17" d="M759.1,550.4l-6.8,7.4l7.2,7.9c1.5-2,2.3-4.6,2.3-7.4C761.9,555.3,760.8,552.5,759.1,550.4z"/>
		<path class="st17" d="M750.8,556.3l6.8-7.4c-1.9-1.6-4.2-2.6-6.8-2.6c-2.6,0-4.9,1-6.8,2.6L750.8,556.3z"/>
		<path class="st17" d="M750.8,559.4l-7.3,7.9c1.9,1.9,4.5,3,7.3,3s5.3-1.1,7.3-3L750.8,559.4z"/>
		<path class="st17" d="M749.4,557.8l-6.8-7.4c-1.7,2.1-2.8,4.9-2.8,7.9c0,2.8,0.9,5.4,2.3,7.4L749.4,557.8z"/>
	</g>
	<ellipse class="st16" cx="127.2" cy="231.1" rx="11" ry="12"/>
	<g>
		<g>
			<path class="st17" d="M135.4,221.2l-6.8,7.4l7.2,7.9c1.5-2,2.3-4.6,2.3-7.4C138.2,226,137.1,223.3,135.4,221.2z"/>
		</g>
		<g>
			<path class="st17" d="M127.2,227l6.8-7.4c-1.9-1.6-4.2-2.6-6.8-2.6c-2.6,0-4.9,1-6.8,2.6L127.2,227z"/>
		</g>
		<g>
			<path class="st17" d="M127.2,230.2l-7.3,7.9c1.9,1.9,4.5,3,7.3,3c2.8,0,5.3-1.1,7.3-3L127.2,230.2z"/>
		</g>
		<g>
			<path class="st17" d="M125.7,228.6l-6.8-7.4c-1.7,2.1-2.8,4.9-2.8,7.9c0,2.8,0.9,5.4,2.3,7.4L125.7,228.6z"/>
		</g>
	</g>
	<ellipse class="st16" cx="127.2" cy="733.3" rx="11" ry="12"/>
	<g>
		<path class="st17" d="M135.4,723.4l-6.8,7.4l7.2,7.9c1.5-2,2.3-4.6,2.3-7.4C138.2,728.2,137.1,725.5,135.4,723.4z"/>
		<path class="st17" d="M127.2,729.2l6.8-7.4c-1.9-1.6-4.2-2.6-6.8-2.6c-2.6,0-4.9,1-6.8,2.6L127.2,729.2z"/>
		<path class="st17" d="M127.2,732.4l-7.3,7.9c1.9,1.9,4.5,3,7.3,3c2.8,0,5.3-1.1,7.3-3L127.2,732.4z"/>
		<path class="st17" d="M125.7,730.8l-6.8-7.4c-1.7,2.1-2.8,4.9-2.8,7.9c0,2.8,0.9,5.4,2.3,7.4L125.7,730.8z"/>
	</g>
	<g>
		<ellipse class="st18" cx="471.1" cy="573" rx="222" ry="208.4"/>
		<g id="地球">
			
				<radialGradient id="body_1_" cx="452.5662" cy="-4927.3169" r="269.3" gradientTransform="matrix(1 0 0 -1 0 -4419.0449)" gradientUnits="userSpaceOnUse">
				<stop  offset="0.1458" style="stop-color:#91D9FF"/>
				<stop  offset="0.8886" style="stop-color:#1156A3"/>
				<stop  offset="1" style="stop-color:#0A396F"/>
			</radialGradient>
			<path id="body" class="st19" d="M506.5,814C377,814,271.6,708.6,271.6,579.1S376.9,344,506.5,344s234.9,105.5,234.9,235
				S636.1,814,506.5,814z"/>
			
				<radialGradient id="地面_1_" cx="433.8206" cy="-4913.0264" r="292.1112" fx="535.6756" fy="-4913.833" gradientTransform="matrix(1 0 0 -1 0 -4419.0449)" gradientUnits="userSpaceOnUse">
				<stop  offset="0.155" style="stop-color:#F3F5F7;stop-opacity:0.8"/>
				<stop  offset="0.7377" style="stop-color:#D5D9DF;stop-opacity:0.3"/>
				<stop  offset="1" style="stop-color:#D4D8DE;stop-opacity:0"/>
			</radialGradient>
			<path id="地面" class="st20" d="M389.5,764.7h-0.2l-0.8-0.8l0,0l-0.4-0.7l-0.7,0.2v-0.1l-0.4-0.7l-0.5-0.5V762l-0.3-0.4v-1.7
				l0.7-0.3v-1.8l-0.4-0.1l0.2-0.5l-1.1-1.3v-1.2l0,0v-0.2v-0.4l0.8-0.8l-0.1-0.8l0.7-0.2l0.9-0.9v-1.2l0.5-0.3h0.3l0.4-1.5l0.5-0.4
				l0.7-2l-0.1-0.4l0.1-0.3v-0.5l-0.4-0.9v-0.2l-0.5-1.9v-1l-0.2-0.2l0.7-0.4l-0.9-1l1.1-1.4l-0.1-0.1l1.2-1l-0.3-0.5h0.5l0.7-0.4
				l0.3,0.5l0.7-0.7h2.1v-0.1l0.1,0.1l0.2-0.3l0.4,0.4h1.4l1-1.4l0,0l1.5-0.7l0.3-1.1v-0.1l0.9-0.9l0.4,0.5l1.6-1.6v-1.1l0.9-0.9
				l-0.3-0.3l0.5-0.8v-0.1h0.4l1.1-1.4v-1l0.5-0.7V724l0.8,0.5v1.2l0.4,0.7v0.8l-0.5,0.5l0.5,1.5v1.4l0.7,0.8l-0.1,0.1l-0.3-0.4
				h-2.2v2.8l-0.4,0.4l0.8,0.8l-0.3,0.4v0.4l-1,0.9v1.6l0.3,0.3l-0.2,0.3l-0.2,0.5l-0.3,1.3l-0.3,1.6l-0.7,1.1l-0.2,0.7l-0.4,1.2
				v0.9L402,747l-0.9,3l-1,1.2l-0.4,1.5l-0.1,0.5l-0.4,1.1l-0.5,2.1l-0.1,0.2h-1.2v1.5l-1.3,0.8l0.8,0.8l-0.5,0.3v0.8l-0.3,0.8
				l-0.3,0.7l-0.5,0.5l-0.4,0.2l-0.7-0.1l-2.6,0.2l-0.5,0.9l-0.4,0.2h-0.9L389.5,764.7L389.5,764.7z M355.8,749.5
				c-49.8-43.3-78.4-105.7-78.4-171.8c0-3.6,0.1-7.3,0.2-10.9l1.1,1.3l1.7,1.1l0.2-0.1l1.1,1.1l0.5-0.5l0.2,0.2l1.2,1h0.4l0.3,0.1
				l0.8,0.8l2.3,0.3l2.1-0.2l0.8,0.2h1.6l1.1,0.7l1.6,0.2l0.2,0.4v0.8l1.1,2.5l1.6,1.1h2l0.1-0.1l0.5,0.1l2.3,0.8l1.3,0.5l0.8,0.5
				l1.3,1.2l2.1,1l1.3-0.5l1.3-1l1.3-1.3l0.4-1.2l-0.4-1.9l-0.5-0.7l0.1-1l0.2-0.2l0.3-0.9l0.4-0.4l1-0.5l1.9-0.3l0.7-0.5l1,0.3
				l0.2-0.2l1.1,0.2h0.5l2.3,1.3v-0.9h0.4l0.2,0.2l2.8,0.3l0.5-0.2h0.1l0.3,0.3l0.8,2.3l1.1-1.1l0.8,0.1l2.6,0.3l0.8,0.2l1.4,1.2
				l0.5-0.5l0.9,0.3h1.6l1.1,0.7h1.9l1.1-1.1l0.9-0.3l0.4-0.4h0.1l0.4,0.4l1.2-0.4h2.1l0.3,0.8l0.7,0.3l0.5,1.3l-0.2-0.2l-1.3,1.5
				v1.4l0.7,0.9v0.7l1.4,1.7l0.3,0.8l1.7,1.9v0.1l-0.2,0.4v1.3l1.1,1.2v0.4l0.3,0.3l0.2,1l0.2,0.5v1.2l2.1,3.2l0.4,1.2l0.9,0.3
				l1,1.4l0.3,1l0.5,0.5v0.7l0.2,0.2l-0.3,0.3l1.1,2.7l1.3,1.1h0.7l0.1,0.3l1,0.4l1,1l0.2,0.1v0.7l0.3,0.3v0.3l0.3,0.3v0.3l0.4,0.4
				l0.1,0.3l-0.1,0.1v1.3l0.8,2.5l0.2,1L363,615l0.3,2l1,1.6l1,0.4l0.9,0.4v1h-1.3l2.4,2.4l1.2,3.3l0.9,3.4h0.3v0.4l0.4,0.4l0.2,0.4
				l0.4,1.2l2.6,1.1v-0.1l0.3,0.3l0.3-0.3l0.3,0.3l0.3-0.3l0.3,0.3l0.9,0.3l0.1,0.1l1.1,1.2l0.9,0.9l0.7,0.3l0.9,0.9h0.3l0.4,0.9
				l0.3,0.3l0,0l0.9,2.1h0.9l1.2,0.4l0.2,0.2l0.1,0.3l-0.2,0.2H383l-0.3,0.7h-3l2.5,2.5h1l0.5-0.2l2,2.2l0.4,1.2h0.5l0.5,0.5
				l1.3,0.5l1.4-0.4l0.4-0.4l0.4-0.3h0.7l0.8-0.5l0,0h2l0.1-0.1l0.4,0.1l1.3-0.4l2-1.3l0.2-0.1l0.7,0.3l0.9-0.3h0.8l0.9-0.3h0.4
				l0.3,0.3h0.8l2.1-0.3l0.9-0.4h0.1l0.5,0.5l0.9-0.9l0.9-0.3l0.5-0.5h1.6l-0.5,0.5l0.7,0.7l-0.4,1.1l0.7,0.7v0.1l-0.8,1.7h0.3
				l-2.6,2.6h1.3v0.4l-1,1.6l-0.7,1.6l-0.2,0.2h-0.3l-1.3,1.3v1l0.1,0.3l-2,3.7v0.9l-1.1,1.9v0.3l-2.1,2.8l-0.2,0.7l-0.7,0.7l-1.7,2
				l-3.4,3.1l-1.3,1.1l-1.1,0.3l-1,0.9l-1.1,0.9l-2.1,2.3l-0.7,0.3l-2,2.1l-0.4,0.4l-0.2,0.4l-0.4,0.2l-1,1l-0.3,0.8l-0.5,0.7v-1.6
				l-2.7,3.1h-0.2l-0.9,0.9l-0.3,0.1l-0.8-0.1h-0.1l-0.9,0.9v0.3l-0.7,0.7v1.4l-1.1,1.1v0.9l-0.5,0.9l-0.9,1.5l-0.1,0.1h-3l1.7,1.7
				l0,0l-0.8,2.4l-0.8,1.4v1.5l0.5,0.4l0.2,1.1l-0.5,0.5l-0.4,1.1v1.9l0.5,0.5l-0.3,0.3l0.3,0.7h-1.3l2,2l0.2,0.5l-0.3,0.8l0.7,0.7
				l0.1,0.2l-0.4,1l1.7,1.7l0.9,0.3l0.2,0.2v0.3l0,0l-0.8,0.8l0.3,0.3l-0.3,0.3v1.1l-0.1,0.1l0.4,1.7v0.1l-0.1,0.1v1.7l0.2,0.2
				l-0.3,0.3l0.4,1.2l-0.1,0.7h-2l1.1,1.1v1.1l0.9,0.9h0.2l0.1,0.3l0.1,0.7l-0.9,0.9l0.1,0.1l-1.1,1.1l1.1,1.1l-0.2,0.3v0.3
				l-0.1,0.1H372v1.1l-1.4,0.7h-0.8l-0.4,1l-1.2,0.7l-1.7-0.7v1.1l-0.2,0.1l-0.7,0.4l-1.5-1.5v0.8l-0.2-0.7l-1.1,3.4l-0.2,0.2
				l-0.2,0.5l-1.4,0.8v0.4l-0.2,0.2h-0.4l-2.8,1.7l0.1,0.3h-0.3l-0.1,0.1l-0.2-0.1h-1.5v1.9l0.2,0.2l-0.4,0.5l0.4,1l-0.3,0.9
				l0.8,1.1l-0.5,0.5L355.8,749.5L355.8,749.5z M587.1,699.8h-1.2l-2-2h-0.8v-0.5l-1.9-1l-1-1.3l-0.3-0.1v-0.7l-1-0.5V693l-1.4-0.2
				l-0.2-0.7l-1.3-1.5l-0.9-0.5l-0.2-0.3l0.3-1.1l-1.4-2.2l-0.3-1.7l-0.8-0.8l-0.3-0.8v-1.1l-1.6-1l-0.5-0.1v-0.2l-0.7-1.9v-0.2
				l-0.2-1.2l-0.2-0.1V676H568l-0.2-0.1l-0.9-1.4h-0.8l-0.1-0.4l-0.1-0.1v-1.9h-1.1l-0.7-0.4l-1-1.9l-2-1.4l-0.4,0.3l-0.9-1.2h-0.4
				l-1.1-1.4l-0.7-0.2l-0.5-1v-0.2h0.1l1.4,1.2l1.2,0.4l1.1-0.3h0.2l0.4,0.4l1.2-0.4h0.1h0.1l0.5,1.1h0.2l0.2,0.9l0.5,0.1v0.2v1.7
				h1.6l0.9,0.9h0.8l1.2,1l0.7,0.9h0.5v0.9l1.5,2.5h-0.7l3.8,1.5v0.2l1.4,1l0.5-0.3l0.9,0.9v0.9l1.5,1.7l0.3-0.1l-1.5,1.5h3.3
				l-3.6,4.8l4.2-2.5v0.2l1.6,1.6h0.8v0.9l1.1-0.4v0.1l0.1,0.4l-0.1,0.4l1.2,0.3l-0.9,0.2l0.4,0.5v1.2l1.9,0.7l0.5-0.2l0,0l0.4,0.4
				l0.4,0.5l0.5,0.5l-0.2,0.1l-0.3,2.4l0.2,0.2l-0.5,1.1l0.4,1.1l-0.3,1.4l-1.5-0.3l-0.3,1L587.1,699.8z M635,698.8l0.5-0.7v-0.8
				l0.3-0.3h0.3v0.2l-0.1,0.5l-0.5,0.5v1.3h-0.4l-0.1,0.1L635,698.8L635,698.8z M642.2,695.3l-1.4-0.7l-0.4-0.4l0.4-0.3v-1.6
				l-0.7-1.1l-1-1l-1.9,0.7l-0.3,0.5l-1,0.7v1.2l0.4,0.8l0.2,0.4l-0.9,1.9l-0.7-1.3v-1.6h-2v-0.1h0.1v-0.8v-0.1l1.1-0.5v-1.1
				l0.3-0.3v-0.8l0.2-0.3l-0.1-1.1l0.5-0.8l-0.3-0.8l0.3-0.1l0.4-0.7l0.1-0.1v0.1l0.9,1.2l1.1,1.1l0.7,0.2l1.2,0.4v0.9l0.9,0.7
				l0.3,0.7l0.8,0.8l0.4,1.2l-0.8,1.1h0.7l0.5,1.7l0.4,0.1v0.4h0.4v0.1l-0.7,0.1L642,697v-1.6L642.2,695.3L642.2,695.3z
				 M619.7,694.5l-1-1.3h-0.3l-0.2-0.7l-0.9,0.3l-1.1-1.5l-0.3,0.7l-0.8,0.1l-0.3-0.4h-1.9l-0.2,0.8l-0.7,0.2l-0.4-0.3l-0.7,0.4
				v-1.1l-1-2.1l-1.1,1.6l-0.2-0.1l-0.9,0.5h-0.1l-0.3-0.3h-0.5l-0.3-1.1l-0.9,0.7v-2.1l-0.3-0.2l0.3-0.4v-1.5l-0.7-0.7l-0.7-0.9
				h0.1l5.7-5.7l-6.7,3.3h-0.2l-0.9-0.9l-0.5-0.8v-0.7l0.1-0.7v-0.7l0.3-0.4l0.8-1.3l0.5,0.8h1.4l1.2,0.7l2.8,0.5v-1.4l0.4-1V676
				l0.7,0.3v-0.8l3.6,1.9l-2.3-3.5l2-0.5l1.2-0.8l0.9-1.3l0.1-0.3l0.9-1l1.5-1.5v-0.8l0.1-0.2l1-0.2v3.9l2.1-4l0.3-0.1l0.1-0.1
				l0.7-0.1l0.4-1.2l0,0l1.9-1.9v-0.9l0.3-0.8h0.5l0.1-0.5h0.4l0.4-0.3l0.8,1.2v1.5h0.9l0.2,0.1l0.9,1.1v1.9l-2-1.6v2h-0.4v0.9
				l-2.1,1l1.5,0.5l-0.2,0.2l0.7,1.3l-0.8,1.1l1.2,0.8l0.1,0.7l0.9,0.9l-2,1.4l1.3,0.7l0.5,2.4l-0.9,1.2l-0.4,0.1v1.7l-0.4,0.4v1.1
				l-1,0.8l0.1,0.5h-4l2.8,1.9l-0.4,0.4h-2.7l1.4,1.4l-3.4,3.4l3.2-1.3v2.3l-0.5,1l-0.7,0.4H620l-0.7,0.2L619.7,694.5L619.7,694.5
				L619.7,694.5z M657.5,694L657.5,694v-0.2h0.4l0.2,0.1l0,0h-0.7L657.5,694L657.5,694z M640.7,687.5l0.3-0.9l0.2-0.2l0.5,0.4
				l0.9-0.2h0.5l0.5-0.3l-0.1,0.1l-0.5,0.4l-1.4,0.4l-0.3,0.3H640.7z M639.3,680.3l-0.2-0.1l0.9-0.9l0.4,0.7l0.2,0.1l-0.8,0.2H639.3
				z M581.5,677.8l-0.5-0.2l-1-0.2l-0.7-0.7l1.1-0.8h-1.9l-0.4-0.4l-1.1,0.4l-1.7-2.1l0.3-0.3l-0.8-1.7l-0.9-0.3l-0.5-0.7l-0.5-0.4
				l0.4-0.4l-1.1-1.1l0.1-0.1l0.4-1.7l-0.4-1l-0.2-0.7l-0.3-2.7l-0.9-1.4l-0.4-0.4l-0.8-0.4v-1.4H569l-0.2-0.4l-0.5-0.2l-1.2-1.4
				h-0.3l-0.2-0.9l-0.5-0.2v-0.5l-0.3-0.3v-1.5l-1.3,0.5v-0.1l0.1-0.1v-2.8h-0.4l0.3-0.3l-0.3-0.3l0,0l0,0l-0.1-0.1l0.5-1.4l0.2,0.7
				v0.4l0.5,0.7l-0.3,0.8l1.2,1.2l2.1-0.4v0.4l0.9,0.9l0.3,0.7h0.4l0,0v0.9l0.3,0.3l-1.3,0.5v2.2l1.7,0.5l2.1,2.1l0.8-0.8h1l0,0
				l0.1,0.3l0.4,1.2l0.4,0.2v0.7h2.1l0.1,0.1l2.3,2.3l0.5,0.9l0.1,0.4l-0.2,0.2v1.9l-0.3,0.3v1.6l0.3,0.3v0.8l-1.3,0.8l2,2l0,0
				l0.3,0.9l0.4,0.4v0.3l0.4,0.4l0.4,0.9v0.7l-1-1v1.5l-0.2,0.2L581.5,677.8z M573.6,675.8l0.2-0.9h0.1l0.7-0.7l0.1,1.5L573.6,675.8
				L573.6,675.8z M571.9,675.8l0.3-0.5l0.5,0.5H571.9z M630.2,664.7L630.2,664.7L630.2,664.7L630.2,664.7z M651.5,661h-0.9l0,0
				l-0.2-0.7v-0.2l2,1.3l-0.1,0.1L651.5,661z M507.7,661.2l-0.4-1.7l-0.4-1.1l0.2-0.3l-0.4-1.1v-0.7l0.2-1.1h2.5v0.3h0.9l0.1,0.2
				l0.8,1.7h0.1l-0.1,0.5l0.2,0.2v1.2v0.1l-0.5,0.9l-0.5,0.5l-0.5,0.2h-1.5l-0.4,0.2L507.7,661.2z M650.5,657.3l-0.3-0.4l-0.8-0.9
				l1-0.4v-0.1l2-1v-0.4l0.3,0.3l0.8-1.1l1,0.8v-2.3l0.5,0.5l-0.3,0.8l0.5,1.6h0.1v2l-1.6,0.3l-1,2l-0.3,1.4l0.7,0.4l-0.3,0.3
				L650.5,657.3z M656.3,657.3L656.3,657.3L656.3,657.3L656.3,657.3L656.3,657.3z M646.7,654.5h0.3l-0.2,0.3L646.7,654.5z
				 M506.9,653.5h0.7v-1.2h0.4v0.1v1.2h0.2l-1.4,0.9L506.9,653.5L506.9,653.5z M495.7,653.3l-0.5-0.4l-0.7-0.9l-1-2.1v-1.1l-0.3-1.5
				l-0.7-1.1v-1.6H492v-0.1l-0.3-1.2l-1-1.3l-1.1-1.3h-0.3l-0.3-0.3l-0.3-0.9l-0.2-0.2l-0.2-1l-0.3-0.8l-0.7-1.5l-0.2-0.8l-0.5-1.2
				v-2h-0.9l-0.2-0.2v-0.9h-0.8l-0.2-0.4v-0.4l-0.4-0.4l-0.3-1.1l-0.8-0.3l-0.4-0.9v-1.9l-1.2-2.6v-0.3h1l-1.7-2.6l0.4-0.4l-0.4-1.2
				v-0.8l-0.9-2v-0.1l2.3-1l-2.4-1l0.2-0.4v-1.2l-0.4-1.2l-0.2-0.2l-0.1-0.3h0.1l0.1-0.1h6.3l-6-2.4l4.7-4.7l-4.9,2l-0.3-0.3
				l-0.3,0.1l-2-4.8v6.3l-1,1.7l0.9,0.9v0.2l-0.8,0.8v0.1l-0.5,0.3l-1.7,1.1l-0.3,0.1l-0.5-0.1l-2.4-1.7l-0.8-0.9v-1h-0.1v-0.3
				l0.5-0.5h0.3l0.7-0.9h3.8l1.2-2.8h-3.4v0.8l-1.1,0.7l-2-0.7l-0.7-0.9l0.2-0.2l0.4-0.2l-0.8-2.1l-1,0.3l-0.7,0.5l-1.1-0.7h-1.1
				l-0.2-0.5v-0.1l-0.1-0.1l0,0l0,0l-0.3-0.3l-0.3-1.1l-0.5-0.5v-1.7L462,597v-0.1h-1.1l-0.4-1.2l-1.2-1.2h-1.5l-0.5,0.2l-0.2-0.1
				l-0.9-0.9l-0.8,0.8h-0.3l-0.4,0.2l-0.4-0.2h-1.9l-0.5,0.5l-0.2-0.2H451l-0.3-0.3h-1.5l-0.4-0.2l-1.1,1.1v0.3h-1.3l-0.7,0.3h-0.8
				v-0.3h-2.1l-0.4,0.4l-0.1,0.1l-0.7-0.2l-0.2-0.1l-0.3-1h-1.7l-0.2,0.4l-0.5-0.2l-0.3,0.3l-0.2-0.1h-1.8l-0.9-0.3l-1.5,0.2
				l-0.8-0.7h-1.1l-0.2,0.2l-0.2-0.2h-2.4V594l-0.8-1.4l-0.3-1.2l-0.5-0.8v-0.4h-0.3l0,0l-2.3-0.5l-1.2,0.4l-0.7,0.5h-0.7l-1.5,1
				l-0.5,0.4l-0.8-0.5l-1.6-0.4l-0.9,0.3l-0.8-0.5h-0.9l-0.9-0.3l0.2-0.2l-1.4-1.4h-0.7l-0.3-0.3h-1l-0.1-0.1l-1.4-0.4l-1,0.2
				l-0.7-1.7l-0.9-2.3l-0.7,0.7l-0.2-0.2h-2.6l-0.3-0.7h-0.9l-0.2-0.5l-1-1.4v-0.5l-1-1.1l-1.1-1.1l-0.7,0.7l-0.3-0.9l-0.9,0.9
				l-0.3-0.3h-0.4v-2l-2,2h-4.5l3.4,1.3l-0.1,0.3v0.8l0.1,0.5l-3.5,0.5l2.6,1.7h-0.9l2.4,2.4v0.1l0.4,0.4l0.2,0.4l0.9,2.3l1.2,0.3
				l0,0l1.3,1.3h0.2l0.4,0.5l1.5,3.9l1.7,2l0.3,0.9l1.6,1.6l0.9-0.9v0.8h0.7l0.4,1h0.5l0.1,0.1l0.3,1.9l1.7-0.7h0.3l1.1,0.4l1.3-1.2
				l0.9,0.2l0.3-0.1l0.3,0.3h1.3l1.2-0.4l0.1-0.1h0.9V602l2.1-2.1l-0.8-0.8l1.7-1.7l0.3,0.3l0.3,2.1l1.3,1.5l0.3,0.3l2,1.7l1.5,0.7
				l0.4-0.4h0.1l1.7,0.3l0.8-0.3h3.5l0.4,0.7l0.3,1l0.8,0.8l0.3,0.8l1.6,1.1l0.2,0.1l-0.1,0.3v0.3l-0.1,0.3l-1.1,1.6l-0.8,0.8
				l-0.2,0.4l-0.3-0.3l-0.4,0.4v-3.7l-1.9,4.7h-1.2l0.9,0.9l-0.8,2h0.9l0.1,0.3l-0.7,0.1l-0.2-0.2l-1.6,0.7l-1.5,2.1v0.7l-1.1,0.4
				h-0.5l-1.2,1.2v1.6l-0.1,0.1l-0.4-0.2l-0.9,0.3H421l-1.1,0.7h-1.1l-0.1,0.3l-0.3-0.3l-0.9,0.9l-0.4,0.1l-1.5,0.3l-1.4,1.6
				l-0.5,1.3l-0.7,0.1l-0.9,0.9l-1,0.5l-2.1,0.3l-0.3,0.3l-3.1,1h-0.3l-1.2,0.4l-0.8,1.3l-0.1,0.1l-0.4-0.4l-0.8,0.8l0,0h-1.6
				l-1.9,1.4v0.1l-0.8,0.2l-1.2,0.5l0,0l-0.4-0.4h-0.9l-0.3-0.3h-1.6l-1.4,1.4l-0.1,0.3l-0.7,0.9h-1.6l-0.9,0.9h-0.1l-1.1-0.3
				l-0.1,0.1l-0.1-0.3l-0.7-0.7l0.1-0.1v-2.1l-0.9-0.8l-0.2-3l-0.5-0.7v-0.1h0.3v-2l-0.3-2l-0.3-0.8l-0.9-2.3l-1-0.2l-0.3-1.7h-0.8
				l-1.7-1.7v-1.1l-0.9-0.3l-0.7-2.3l0.4-1.1l-1-0.4v-0.4l-1.4-1.2l-0.3-0.8h-1.2l-0.3-0.1l-2.4-2.4l-0.2-1l-0.3-1.2V607l0.4-2
				l-0.5-0.5l-0.3-1.1l-0.7-0.7l-0.3-1.1l-0.3-0.3l-0.4-1.2h-0.3l-0.1-0.2l-0.9-1.1l-1.2-0.8l-1.4-1.4l-0.3,0.3l-0.1-0.1l0.3-0.3
				l-0.7-2l-0.8-0.3l-0.7-1.5l-0.9-0.3l-0.3-0.9l-0.7-0.3v-0.1v-0.8l-1.2-2.6h-0.5l-0.2-0.2l-0.3-0.7l-0.3-0.3l-0.2-0.7l-1-1.2
				l0.8-0.8l-2.5-1v-2.1l0.3-0.7v-6.1l-2.3,5.8l-0.3,0.3l-0.9,2.2v0.8l-0.3,0.9l-1.2-1.2l-0.4-1l-0.9-0.3l0,0v-1l-1.2-1.1v-0.2
				l-0.3-0.3v-3.2l1.7-0.3l2.3,0.4l1.5-0.5l0.4-1.1l0.8-1.2l1-2.1l0.2-2.2l1-1v-0.9l1.3-1.6l0.3-2.6l0.3-1.3v-1.4l0.3-0.9l-0.4-1.3
				l-0.7-1.1l0,0l0.9-0.9l-0.9-0.9l1.1-1.1v-1.8l-2.1-0.9l-1.3,1.3l-0.1-0.1l-1.4-0.8h-1.1l-2,2.3l-0.1,0.2h-0.2l-0.9,0.3l-2.5,0.2
				l-0.4-0.3l-1.4-1.5h-1l-1.6-0.7l-1.4-0.3l-2.7,0.7l0.4,1.2l0,0l-0.2-0.1l-0.4,0.4H339l-0.4,0.4h-0.2l-0.5-0.2v-1.5h-2.2l0.7-0.7
				h-2.2v-0.8l-0.5,0.5l-0.7-0.7l0.4-0.4l-0.8-1.7l-1.5-0.7l-0.4,0.2l-0.1-0.1l0.1-0.3l5.6-2.2h-4.6v-2.1l-1.1,0.4l-0.2-0.5l2.1-2.1
				H329l-0.2,0.1l-0.2-0.2l0,0v-0.2l-0.1-0.1l0.5-1.2l0.4,1l1.3-0.5l0.4,0.2h2l2.4-1l-0.5-0.5h0.4l1.7-1.7l-0.3-0.1l0,0l0,0l1.9,0.7
				h2.4v-0.9l0.1-0.1l0.3-0.7l0.7-0.7l0.9-0.3l0.2-0.5l0.5-0.1h0.8l1.7-0.8l0.4-0.2h1.9l0.4-0.2l0.4,0.2h1.5h0.1l2.1,2.1l0.3-0.3
				l0.3,0.3l0.9-0.9l0.1,0.2l1,1l1.5,0.7l0.3-0.3l0.7,0.4l0.8,0.3l1.9,1.1l0.1-0.1l0.1,0.1l1.7,0.4l1.6-0.8h1.1l0.2-0.1l0.1,0.1h2.7
				l0.2,0.2l2.2,0.4l0.3-0.3h1.1l0.4-1.1l0.9-0.5l1-1l0.3-0.9l0.9-0.9l-0.3-0.7l0.3-0.4l-1.1-1.6l-0.2-1.2l-0.3-0.9l-1-1.5l-0.3-0.1
				l0,0l-2-1.6l-0.3,0.3l-0.2-0.1l-0.9-0.9H369l-0.3-0.1l-0.4-0.4h-1l-0.3-0.1l-0.3-0.3l-0.4-0.2l-0.2-0.5l-2.3-1.9l-0.9-0.3
				l-1.5-0.9l-1,0.2v-0.7l-0.3-0.3l0.1-0.1l1.1,0.4l0.9-2.6l-0.3-0.3l1.7-1.7v-1.4l-0.7-0.2l0.8-1.7l1.5-0.7l0.7-1.7l-1.3-1.3
				l-1.7,0.5l-0.3,0.3l-0.2-0.1h-1.6l-0.7,0.3h-1l-0.8,0.8l-0.1,0.2h-0.8l-0.4,1.2l-0.2,0.2H356l-0.5,0.2l-0.9-0.3l-0.3,0.1
				l-0.2-0.4h-3.7l1.1,1.1l-0.1,0.1l-0.7,0.9l-0.7,0.2l-0.1,0.1l0,0l-1.2-0.4l-0.3,0.3l-0.7-0.3l-0.7,0.7l-0.7-0.7l-0.4,1.2
				l-0.8-0.3l-0.5,0.2l0.1-0.1l-0.5-0.2l-0.5-1.5l-0.4,0.1h-0.1l-1.2-1.2l-0.8,0.8l-0.8-0.8l-1.1,1.1h-0.4l-1.5,0.5v1.2l-0.1,0.1
				h-2.4l0,0l0,0l0,0l0,0v4l0,0l-0.8,0.8l0.7,0.7l-0.2,0.2l-0.2,0.1h-1.6l-0.4,1.2l-0.7,0.7l0.4,1.2v0.4l-0.3,0.9l0.3,0.9v1.6
				l-0.1,0.5h-0.4l-1.6,1.3l0.3,1.9l-0.1,0.1l-0.7,0.5h-1.6l2.2,2.6l0.5,0.5l0.3,1.1l1.1,1.1l0,0l-0.3,0.3h-0.9l-1.1,0.4l0.1-0.2
				l-1.9,1.6l-0.8-0.9l-0.3,0.3l-0.1-0.3l-1.5-0.5h-0.7l-0.3-0.7h-2.1v0.8l-0.8-0.8l-1.9,0.8l-0.2,0.7l-0.8-0.4l-0.9,0.9l-0.4-1.1
				l-2.2,0.9l-0.5,1.5l0.2,1l-0.7,0.7l1.7,1.9l-1.3,1.4l0.8,0.3l-0.4,0.2l-0.1-0.1l-0.1,0.1l-0.3,0.1l-0.5-0.8v-1h-0.9l-0.4-0.5
				l-0.8-0.5v-1l-1-0.4l-0.8-1.7h-0.7l-0.3-0.8v0.2l0.3-0.9l-0.3-1.2l0.2-1l0.2-0.2l0.7-1.6l-1.5-1.3l-0.4-0.2l-0.2-0.4l-1.5-1.9
				l-0.8-0.3l-0.1-0.1l-1.4-1.6l-0.4,0.4l-2.6-2.6l-1-0.4h-0.3l-3.7-3.7h-0.3l-0.3-0.3l-0.5-0.5l-0.3-0.9l-0.8-0.8l-0.4-1.2h-1.9
				l-0.7,0.7v-1.4l-2.7-1.1l-1.2,1.2h-0.7l-0.5,0.5c3.2-11.5,7.2-22.7,12.1-33.6v0.1l2.3,0.4l0.5,0.5l1.6-0.5l1.3-1l3.5,0.2l4.8-0.4
				l-0.5-2l0.4-1l-0.9-0.9l-0.3-0.7l-0.9-0.9l-1.5,0.3l-0.2-0.1l-1.1-1.5l-0.7,0.2l-0.1-0.2v-1.5l-0.3-0.3l-0.1-0.3l0.5-0.2V473
				l0.3-0.3l0.8,0.8v-2.8l0.3-0.1h0.9l0.4-0.4l0.5-0.2l1.2,1.4l0.3,0.8l1.2,1.2h1.9l1-2.3l0.3-1.4l-0.3-1.6v-1.3l0.3-2l-1-2.5
				l-1.2,1.2l0.9-2.1h-0.5l0.4-1.1l0.8-0.3l0.3,0.3l1.3-0.5l0.1,0.1l1-0.4l0.4,0.2h1.1l1.1,0.7h4.6v-1.2l0.2-0.5l0,0l1,1v-1.3
				l1.6-0.7l-0.7-0.3l0.5-0.5l0.1-0.2l1,0.3l0.9-2.3l-1.5-1.5h-1.5l-0.2-0.4h-0.1v-0.4l-1.4-1.6l-0.8,1c0,0-0.1,0.1-0.2,0.3l0,0h0.2
				l-0.5,0.5l-0.9-0.9l-1.3,1.3l-0.2-0.1l-1,0.3l-1-1l-0.3-0.7l-0.1,0.3l-0.4-0.4v1.2l-0.8,0.7l-0.2-0.2l-1.3,1.3h-0.2l-1.5-0.5
				c6.4-9.9,13.8-19.5,21.6-28.3l-0.4,1.2l1,0.4v0.1l0.9,0.9v0.7l0.7,0.7v0.4l0.2,0.4l-1,2.5l2.1-0.7v0.1l2.3,1.3l0.4-0.4l0.2,0.1
				v0.4l0.9,0.9h1.1l0.3,0.3h0.9l0.7,0.7h1.2l0.7-0.7h0.7l0.9-0.9v-2.3l-0.4-0.2v-0.7l0.7,0.3l1.9,1.9l0.8-2.1l0.9-0.9l0,0l0,0
				l1.6-1.6l-1.4-2.1l-1.4-1.4l-0.1-0.4V423l-1.7,0.4l-0.5,0.2h-1.1l-0.3,0.3l-1,0.2l-1.6-0.2l-0.8-0.2l-1-1l-1,0.4l-0.4-0.2h-1.1
				l-0.1-0.1l-1.3-0.5l-0.3,0.1v-1.2l-0.3,0.1c2.5-2.6,5-5.2,7.7-7.8h0.1l0.9,0.9l0.7-0.3l3.1,2v-0.8l0,0l0.2,0.2l0.4,0.4l0.3,0.7
				l1.1,1.1v0.8l-0.2,0.7l-1.6,4l3.7-2.7l0.4-1.2l0.7,0.7l0.8-0.2l-1.9,4.5l3.6-3.6l0.1,0.3l3.3,3.3l-1.2-4.9l-0.1-0.2l0.1-0.1v-1.7
				l0.4-1.2l-0.1-0.1l0.4-0.4l-0.3-0.3l0.3-0.3l-1.6-1.6l-1.1-0.4l0,0l0.1-0.2v-1.2l0.4-0.4l-0.4-1.2l0,0l0.8-0.8l-0.8-0.8V408
				l-0.9-1.5h0.1l1-0.2l1.2,0.2l0.1,0.1v0.7l1.2,1.2l0.4,0.2l0.1,0.4l0.1,0.2h-0.2l-0.3,0.3h-0.9l-1.4,1.4l0.2,0.2l-0.3,0.3v2.1
				l1.2,0.4l1,0.9l1.5,2.2h1.6l0.3,0.9l1.1-1.1h0.7l0.5-0.5l5.7-3.5l-5,0.9l0,0v-1l0.8-0.1l0.1-0.1l3.2,0.4l-0.9-2.1h0.1l1.4-1.7
				l0.3-0.2l1.2-1.6l0.2,0.1l1.3-0.4v1l-0.2,0.2l1.6,1.6l2.1-1.4l0.2,0.5l1.7,0.8l0.2-0.2v4.6l2.3-5.7l1.3,0.5l1.5-1.5l-0.3-0.3
				l0.7-0.7l-0.5-0.2l0.3-0.3l0,0l0.3,0.3l0.5-0.5l0.2,0.1h2l1.5-0.7V405h2.1v-1.2l0.2-0.2l0.7-0.3l0.1-0.1l0.3,0.1l-0.3,0.3l0.4,1
				l-0.3,0.7l0.8,1.7h3l0.9-0.9v-1h0.1l0.5,0.2L400,405l0.8-0.3l0.1-0.5l5,1.6l-4.3-4.3l-0.2-0.1v-0.2l-1.2-1.9h-0.5l-0.1-0.5
				l-0.2-0.2l0,0V397l-0.1-0.2l0.3-0.2l0.4,0.2l0.7-0.3l0.5,0.2l2.5-0.3l2.6,0.2l0.8,0.5l1.4,0.5l1,2.4l1.6-1.6l0.5,0.5h0.4l0.2,0.5
				l1.5,0.3l1.9,1.1l1.6,0.2l0.2,0.2l0.3,1.1l1.2,0.4l0.4,0.4l0.8,1.7l2.6,1.1v-2.1v-0.1l0.5-0.5l-0.3-0.7l0.1-0.1v-1.6l2.2-2.2
				h-2.8l-0.3-0.3h-0.3l-0.4,0.2l-1.4-2h-0.4l0,0v-1.1l-1.4-1.4l-0.7,0.9l-0.2-0.2h-1l-0.4-0.2v-0.2l-0.8-0.3l-0.2-0.5l0.8-0.8v-1.5
				l4,1.6l-4.8-4.8h-0.7l-0.4-0.7l-0.7-0.7l0.4-0.4l-0.5-1.4l1-1.6l1.4-1.4l-0.4-1.2v-0.3l0.4-1.2l-0.9-0.9v-0.4l-0.4-2.5l-0.2-0.7
				v-1l-0.2-0.2l0.1-0.3l0.9-0.9l-1-1l0.2-0.8v-0.2c0.7-0.2,1.2-0.5,1.7-0.8l0.3,0.2l0.2,0.4l1.5,0.7l0.4-0.4l0,0l2,0.7h0.1l0.4,1.1
				v1l0.3,0.3v0.9l0.2,0.8l-0.3,1.9l0.1,0.3l-0.3,0.3l0.4,1v0.1l-0.7,0.7l0.7,1.5l0.7,0.7l0.3,1.1l0.4,0.2v1.2l1.2-0.4l0.1,0.7
				l0.8,0.8l0.1,0.3l0.3,2.2l0.5,0.5l0.1,0.6l0.9,0.9v0.7l0.8,1.3l-0.2,0.8l0.5,1.5h0.1l-0.1,0.3l0.5,0.5l0.2,1.1l1.6,2.3l1,0.2
				l0.2,0.7l0.9,0.3l0.1,0.1v1.2l-0.3,1l0.4,1.9l0.7,0.7l-0.5,0.5v0.5l-0.4,1.2l0.4,0.4v0.3l-1.5,0.7l1.4,1.4v0.7l-1-0.4v1.1h-1.9
				l-0.2,0.2l-2-1.1l-0.7,0.7l-1.4,0.2h-1.3l-2.5,3.1h2.3l1.1,1.1l0.4-1.2l0.9,0.8l2.6,0.3l1.3,0.3l1.4-0.3h0.5l0.2,0.2l2.1,0.4
				l1.6-1.3V413l1.1-0.4v-1l0.9-0.9v-0.9l0.9-2l-0.8-1l0.1-0.3l0.8-1.1l0.4-1.2l-1.1-3.2l-1.3-0.7l-0.1-0.2l-0.2-1.1l0.3-0.3
				l0.5-0.5l0.9-0.3l0.7-0.7v0.8l1.3,0.9l0.4,1.1h0.4l-0.4,1.1l1.3,0.5l0.2,0.4l0.5,0.5l-0.4,0.4l1.7,1.7h0.8l1,0.9l1.4-0.4l0.8-0.3
				l1-0.3l1.5-1.5l-1.5-1.5l-0.3,0.1l-0.5-1.4l-1.2,1.5l-0.1-0.3h-0.3l0.2-0.5l-0.8-0.8l-0.3-0.4l3.2-1.3l-2.8-1.1l-0.2-0.4
				l-0.3-0.3l-0.3-0.8l-0.7-0.5v-0.5l-1.3-1.5h-1.5l-0.9-0.4l-0.5-1.3l-1.2,0.4l-1.1-0.7l-0.8,0.3l-1-0.4l-1.4,1.4l-0.1,0.2
				l-0.9-0.2l-0.3,0.2l-0.4-1.1l-1.2-1.2l-0.1-0.2l0.3-1.6l-0.7-1l0.1-0.3l0.3-2.4l-1-1.7l-1.1-1.1h-0.5l-0.1-0.4l-1.9-1.5l-0.8-0.4
				l0.3-1.4l-0.2-2.5l-0.2-0.2l0.1-0.1l1.1-1.2l0.3,1l0.7,0.7v0.7l0.3,0.3l-0.7,0.2l1.1,2.7l1.1-0.4l0.7,0.5h1.7l0.3-0.1l0.7,1.7
				l1.5-1.5h1.2l2,1.6l0.8-0.1l2.5,2.5l-1.2-2.8l4.6-4.6l-5.4,2.1l-0.3-0.1l-0.1-0.3l-0.2-0.2l-0.4-1.3h-1.2l-0.3-0.7h-1.4l-0.2,0.2
				l-0.9-0.1l-0.8-0.8h-1.2l-0.5-0.4l-0.4-1.1h-0.3l0.2-0.2l0.4-0.3h0.2l0.7,0.9l0.3,0.2l2,0.9l1.6-0.5l1.2-2.2l-1.3-2.1l-1.2-0.3
				l0.1-0.1h2.4l0.3,0.4l1,1l1.5,0.2l0.2,0.5l0.9,0.3l1.4,1.4h1.4l2.1-0.3l0.7-0.4l0.3,0.3l0,0v0.1l0.3,0.9v0.8l-1.1,0.9l0.5,1.2
				v1.4l1.1,0.8l-0.3,0.8l0.4,3.2h1.7l2.2,1.4h1.3l0.9,0.2v1l1.3,1.3h1.2l4.7,4.7l-2.2-5.5v-0.2l0.2-0.3l1.4,1h0.8l3.6,3.6l-2-6
				h-1.3l-0.5-0.2l-0.5-0.3l0.8-1l-3.5,0.9l-0.7,0.4l-0.8-0.3l-0.2,0.2l-0.2-0.2l-1.9-1.9v-0.3l-0.2-0.1l-0.1-0.1l0.5-1.3l-0.5-1.4
				l-0.8-0.7l-0.2-1.4l-1.4-2l-0.8-0.3l-0.1-0.1l0.2-0.5l-0.4-1l-0.3-2.1l-1.3-1.3h-0.2l-1.1-0.7h-1.6l-0.4-0.5l-0.5-0.4l0,0
				l-0.3-0.7v-3.2l-2.2,2.2l-1.7-0.2h-0.3l-0.3-0.2l-0.4-1.3h-0.2v-1l-1.1-2.1l-0.5-0.3l0.2-0.5l-0.7-0.7c3.1-1,6.1-1.7,9.1-2.6v0.4
				l2,1.7h7.3l-5.8-2.3l-0.3-0.3l1.1-0.5c15-3.6,30.4-5.7,45.8-6.2v0.5l0.2,0.2l-0.1,0.7l-0.5,0.2l-2.4,6.1l3.7-3.7h0.7l1.2-1.2
				l0.3-0.8h0.1l3.4-1.4l-1.7-0.8c1.1,0,2.2,0,3.2,0c59,0,114.9,22.4,157.4,63.2v0.3l-1.4,1.4l0.3,0.3h-0.5l-0.5,0.5h-2l-0.5,0.2
				l-1.2-0.3l-1.5,0.7l-1.5-0.7l-0.4,1h-1.1l-0.7,0.7h-1.4l-0.9,0.7h-0.8l-0.9,0.7l-0.1-0.2H646l-0.4,1.1l-1.1,0.9l-0.3,0.8
				l-0.7,0.7L643,424l0.9,1.3l-0.1,0.5l-0.7,0.9l-1.1,1.6l0.4,1v1.2l0.2,0.5l-0.4,0.4v0.7l-0.4,0.4l0.3,1.1l-0.4,0.4l-0.3,0.9
				l-1.1,1.4l0.1,0.2l-0.2,0.1l-0.2,1h-0.4l-0.4,2.8v0.8l-0.4,0.4l0.3,0.7l-0.3,0.3l-0.3,0.8l-0.9,1v0.2l-0.3,0.3v1.1l-0.9,0.7v1.2
				l-0.9,0.9v0.8l-0.5,0.7l-0.8,2l0.7,1.5l1.5,0.7l0.4-0.2l0.5,0.5h1.6l0.9-0.9l0.7-0.2v1.5l0.8,1l0.1,0.3l-0.4,1.2l2.5,2.2l0.1-0.2
				l0.4,0.4l1.7-0.3v0.8l2.3-2.3l0.4-1.2l-0.4-0.4l0.3-0.5l-0.1-0.2l0.3-0.8l0.3,0.1v-0.8h0.9l-0.5-0.4h0.5l0.2-0.2l0.2,0.2h1h0.1
				l0.2,0.4l0.7,0.7l0.9,0.3l0.2,0.2l1.5,0.7l0.4,0.4h0.4l0.3,0.7h0.4l0.1,0.1l-0.1,0.3v0.4l-0.8,0.8l1.7,1.7h0.8l0.2,0.4l-0.2,0.2
				v1.6l1.2,1.2l0.4,0.2l0.4,1.2l0.1,0.1l-0.1,0.1l0.3,0.3l-0.4,0.4l0.5,0.5l-0.2,0.4l0.5,1.3l-0.2,0.2l0.4,2l0.2,0.5v0.7l0.9,2.8
				l0.2,0.1l-0.2,0.2l0.7,1.5l0.7,0.7v1.2l0.3,0.3l0.4,2.7h0.2v0.9l0.3,0.7v0.2l-0.9,0.9v1.2l-0.3,1.2l0.4,1.6l0.1,0.1l-0.7,0.7v1
				l-0.2,0.3h-2.8v1.3l-0.8,0.8l0.3,1.5l-0.8,0.8l0.5,1.7l0.1,0.1l-0.5,0.7l-0.2,0.7l-0.9,0.9v0.8l-0.5,0.8l-0.7,2.6l-0.2,0.2
				l-0.5,1.5l-0.7,0.5v0.4l-0.7,0.3v1.1l-0.4,0.4l0.1,0.3l-2-0.8l1.1,2.8v0.1l-1.5,0.7l0.8,0.8l-0.4,0.4l-0.4,0.4h-0.7l-0.4,0.4
				l-0.9,0.3l-0.1,0.1l-0.3-0.3l-0.3,0.3l-0.2-0.2l-0.3-0.1v-0.8l-1.1-1.1l-1,0.4l-1-0.4l-1.1,1.1v0.7l-0.7,0.7v1.1l-0.2,0.2
				l-0.1,0.4l-1.2,0.4l-0.2,0.7h-0.2l-1.1,1.1h-0.9v1.7l-0.3,1.7v1.7l0.7,0.7v2.1l0,0l-1,0.9l0.3,0.3l-1.3,1.3v0.4l-0.2,0.1
				l-0.1,0.1h-0.4l-1.3,0.5l-0.3,0.9l-1,0.9v1.4l0.1,0.2l-0.2,0.2l0.7,2.1h0.2l-3.2,1.3h-0.2v-0.5l0.8-1.4l-0.2-0.5l0.9-2.3h-2.3
				l-0.4,0.4h-0.2l-1.4-0.5l0,0l0,0l-0.3-0.1l-0.8-2l-1.6,2.2h-0.2l-0.4-0.4l-1.3,1.1h-1l0.8-1.7l-2.8,2.8v-0.9l0.4-0.5l0.8-0.8
				v-1.7l-1.9-1l-1.9-2.7l-0.7,1.6h-1.7l-0.4,1.2l-0.3,0.3l-0.3,0.7l-0.9,0.9v1l-0.4,0.4h-0.5l-1.7,1.2l-0.3,2l-0.7,0.7h-1.2l1,1
				h-0.1l-2.5-0.5v1.6l-0.3,0.3v0.7l-0.3,0.3v0.3l-0.4,0.4l0.4,1.2v1.2l1.3,0.5l0.9,0.5l0.2,0.2l1.2,1.4v1.2l0.5-0.5l0.8,1v-1.7l0,0
				v0.2l1.2,2.6h1.7l0.4-0.2l1,0.4l1-1l0.7-1.5l0,0l0.3-0.3V544l0.5-0.2l0.2,0.5l1,1h2.5l-0.2,0.2h-0.7l-0.1,0.1l-0.4-0.2l-2.6,1.1
				l1.2,1.2l-0.3,0.1v0.3h-0.2l-1.7,1.7l0.5,0.5l-0.2,0.2l-1-1l-1,2.8l0.3,0.8l-0.2,0.9v2.7l1.9,0.7v1.5l1.7-0.7l1,0.4l0.7,1.4
				l-0.3,1l1,0.4v0.7l1.2,0.9v0.9l1,1.5l-2-0.4l0,0l-0.2-0.5l-1.5,0.5l-1-0.4l-0.1,0.1l-0.1-0.1l-1.7,0.7l-5,11l6.7-8.9l0,0l0.9,0.3
				l0.2-0.1l1,0.9l1.4,0.5l0.9-0.5l0.8,0.8l1.2,0.8l1.5,1l0.2,0.4l-0.2,0.1l-0.5,0.7h-0.2l-0.9,0.9v0.1l-3.3-1.3l1.5,2l-1,1v0.3
				l-2.5,2.5l2.5-1v5l2.3-5.8l0.2-0.2l0.3,0.3l1.6,0.7l0.4-0.4v0.9l-0.7,0.2l0.7,0.7v0.9l-1.4,1.4v1.9h0.7l0.1,0.1l-0.7,0.7l0.2,0.2
				l-0.5,0.9h-0.1l-0.1,0.4l-0.1,0.1l-0.3-0.8l-1.4,3.5h-0.7l0,0l0,0H624l-0.1,0.2l-1.4,1.4h-1.2l0.7,0.7l-0.9,0.9h1.7l0.3,0.3
				l-0.7,0.2l-2,4.9h-1.9l2.5,2.5h-0.4l-0.3,0.7H620l-0.1,0.3l-1,0.3l-3.4-3.4l1.9,4.8l-1.3,1.3l-0.3,0.1h-1.5l-0.1,0.2l-0.7-0.7
				l-0.9,0.9l-0.7,0.2l-0.8-0.8l-2.4-1v2.5l0.3,0.7v0.1l-1.5-1.5v2.7l-0.1,0.3l-0.3,0.3l-0.5,0.2l-0.4-0.2l-0.9,0.3h-3v-1.1
				l-1.9,1.9h-2.5l1.4,1.4l-0.4,0.4V609l-1.1-1.1l-1,0.4l-1.3-0.5l-0.3,0.8l-0.7-0.7l-0.2,0.2l-1.1-2.7l-1,2.6l-0.2-0.2l-0.8,0.8
				h-2.5l1.1,1.1h-0.7l-1.1,0.4l-0.8,0.8h-1.3v0.9l-0.8,0.8l0.8,0.8v1l0,0l-0.4-0.4l-1.2,1.2l-0.3,0.7l-0.4,0.4v1.7l-0.4,1.2l0,0
				l-1.6,0.7l3.1,1.2l0.7,0.5l1.1,1.1l2.1,5.2v-4.4l0,0v0.2l2.4,1.1l1.4,0.9l0.2,0.7l1.6,1.2l0.5,0.5l0.4,1v0.2l0.7,0.7l-0.4,0.4
				l1.2,1.2l0.3,1.1l0.3,0.3l0.3,1.1l0.1,0.1l-0.3,0.3l0.3,0.7l-0.3,0.3l0.4,1.2v1l0.4,0.4l0.1,0.2l-0.5,0.5v1.3l0.2,0.4l-0.1,0.1
				l-1,0.4l0.5,1.3l-0.4,1l0,0l-0.2,0.7l-0.7,0.7l-1.9,0.8v0.3l0,0l-0.4,0.4l-1.1,0.5h-0.1l-0.4-0.4l-0.1,0.1v-2l-1.9,1.9l-0.2-0.1
				h-1.7v0.5h-4.6v-1.9l-1.9,1.9l-0.9-2.3l-0.1,0.1l0,0v-0.4l-1-1.5h-1.1l-2-2l-0.5-0.2v-0.1l-0.8-0.8L574,639l0,0l-0.3-0.7v-0.2
				l0.8-0.8l-1.2-1.2l-1.1-0.4h-0.3l-0.4-0.4l-0.9,0.3l-0.7-0.7l-0.4,0.4l-1.5-1.5v2.5l-1.1,1.1l1.7,0.7l-0.1,0.3v0.4l-0.8,0.8
				l0.5,0.5l-0.7,0.7l-0.3,0.7l-0.8,0.8l-0.3,2.4l-0.8,0.9v0.9H564v-1l0.8-0.8l-0.3-0.9l0.5-0.5l-1.6-1.5l-0.1-0.3v-0.2l0.4-0.4
				l-0.7-1.5l-0.2-0.2l-0.3-2l-0.3-0.3l-0.3-0.7l-1.3-1.3v-0.5h5.8l-2.2-2.2v-1.7h-0.1l-0.2-1.7l-0.2-0.2l0,0v-1l-0.1-0.2l0.1-0.1
				v-3.2l-1.7,1.7l-0.2-0.2l-0.7-1.2l-0.3-0.3v-0.3l-6.3-2.5l3.5,3.5v0.7h-2.3l0.3,0.9l-0.5,1.4l-0.7,0.4h-0.5l-0.3-0.9v-2.6
				l0.2-0.2l-0.2-0.2v-3.8l-0.9,2.7l-0.3-0.8v-1.5l-0.1-0.1l0.7-0.7l-1.7-0.7l-0.1-0.3l-0.5-1.2v-1l-0.5-0.5v-1.6l-1.1-1.4l-0.9-0.3
				l-0.2-0.2l-0.2-0.1l1.3-1.3h-2.8l-0.9-0.9v0.7l-1-0.4l-0.1-0.2h-0.4l-0.4-0.7l-0.4-0.5V606l-0.5,0.5v-0.2l-0.4-0.4l-1-2.7h-1l0,0
				h-0.1h-0.3l0.2-0.2l-0.5,0.2h-0.3v0.1l0,0l-0.3-0.2l-0.5-0.5h-0.3l-0.2-0.2l-0.2-0.5l-2.1,0.5v-0.1l-2.5,2.5l0,0h-0.8l0.2,0.4
				l-1,1h-0.7l-1.9-1.9v0.9l-1.1-0.4h-2v1.9l0.1,0.1l-0.1,0.1v0.7l-0.2,0.2l-2,0.7l-0.7,0.7l-0.9,2.3l0.7,0.7l0.1,0.3v0.2l-0.2,0.2
				l-0.1,0.2h-2.2l1.2,1.2l-0.5,0.4v0.1l-0.3,0.1l-0.5-0.5h-1l-0.7,0.3h-1.5l-0.8,2.4l-0.5,0.4l-0.7,1.3l-3.1,2.4l-0.3,0.9l-0.3,0.3
				l-1.2,0.2l-1.2,1.1l-0.5,1.3l0.2,0.4l-0.4,0.4l-1.5-0.3l-1.4,1.4v0.4h-1.6l-1.6,1.6l-0.4,1.2l0.5,1.4l-0.7,0.7l0.4,1.3v3.1
				l0.8,0.3l0.1,1l-0.5,1.9l-0.9,1.6v2.4l0.3,0.8l0.2,2l-1.5,0.5L500,649l0.1,0.1l-0.2,0.3l-0.4,0.4h-0.1h-0.3l-1.6,1.1l-0.4,1.2
				l0,0l-0.8,0.8l0.4,0.4l-0.3,0.2L495.7,653.3z M587,649.5l-0.4,0.2l-0.1-0.1v-0.3l-0.8-0.8l0.8,0.2l-0.2,0.2l1.7,0.7l-0.3,0.1
				L587,649.5z M564,648.5v-1l0.4,0.4v0.5L564,648.5L564,648.5z M583.6,648l0.3,0.1l-0.1,0.1L583.6,648z M643,645v-0.9l0.5-0.1
				l0.2,0.3l-0.4,0.4l-0.1,0.2L643,645L643,645z M411.5,643L411.5,643l-0.1,0.2L411.5,643z M651.8,641.7l-0.4-0.5l-0.1-0.5h0.1
				l0.9,1.2v0.2L651.8,641.7z M638.4,638.7L638.4,638.7L638.4,638.7L638.4,638.7L638.4,638.7z M638.3,633.8l-0.2,0.2h-0.5l1-1v1.1
				l0.2,0.1v0.1L638.3,633.8z M637,631h-0.9v-0.4h-1v-0.5l-0.4-0.9l-0.1-0.4l0.2-0.8l0.8-0.5v-1.2l-0.3-0.9l0.2-0.5l0.3-1.7v-1.7
				l-0.1-0.2l0.8-1.1V620l0.3,0.1l0.7,0.7l1.5,0.4l-0.1,0.3l0.7,1.9l0.4,0.2l0.1,0.9l0,0l-0.1,0.8l-0.1,0.4l-0.7,1.2l-0.8,0.9
				l-1.1,1.1l0.3,0.8l-0.2,0.4v1.2l0.2,0.8l0.2,0.2L637,631z M599.3,618.8h-0.4l-0.3-0.3h-0.5l-0.3-0.4V618l-0.3-0.7v-1.2l-0.1-0.2
				l0.3-0.3l1-0.8l0.2-0.7h0.3l0.1,0.1h1.2l0.2-0.1l0.3,0.3l0.7-0.3l0.3,0.3l1-0.4l0.2,0.1l-0.2,0.2l-0.3,0.7l-0.3,0.3l-0.4,1.4
				l0.1,0.4l0,0l-1.2,0.4v0.3l-1.4,0.5v0.5H599.3z M597.4,611.5l-0.3-0.4l0.1-0.3h1.2v-0.7l0.3,0.9v0.1l-0.8,0.8L597.4,611.5z
				 M601.8,607.2L601.8,607.2v0.3V607.2z M633.5,603.8v-0.9h-0.7v-1.1l-0.4-0.1v-2.1l0.3-0.9l0.8-1.3l0.1-0.5l0.9-1.3l-0.4-0.2
				l0.1-0.1l0.4-0.3l0.4-0.3l0.3,0.5h0.2v0.7l-0.2,1.4l-0.5,0.9l0.1,1.3l-0.1,0.5l-0.4,2l0.4,0.2l-0.7,0.8L633.5,603.8L633.5,603.8z
				 M535,602.5l0.2,0.8l-0.2,0.1V602.5z M620.6,596l1.4-1.4l0.4,0.4l-1,1H620.6L620.6,596z M623.4,593.2L623.4,593.2l-0.2,0.3
				l0.4,0.1l-1.1,0.4L623.4,593.2z M659.3,564.7l0.2-0.8v-1.2l-0.5-1.1l-0.7-1.2l-0.7-0.7l0.7-0.3l0.1-0.4h0.1h0.2l0.7,0.9h0.7
				l0.8,1.5h0.5v0.7h0.2l-0.7,0.7l0.3,1.5l-0.3,2l0.2,0.4H661L659.3,564.7z M277.8,566.3c0.2-4.5,0.5-8.9,1.1-13.3l0.7,0.2l0.2,0.2
				l0.7,1.1l0.3,0.3l-0.2,0.2l-0.5,1.5l1.2,1.9l0.4,0.1v1.4l0.1,0.1l-0.7,2.1l-0.9,0.9l0.3,0.3l-0.2,0.2l-2.1,1.2L277.8,566.3z
				 M625.8,565.8L625.8,565.8h0.2H625.8z M349.5,564l0.8-0.5l0.2,0.1h0.4l-0.5,0.4h-0.5H349.5L349.5,564z M324.4,563.3L324.4,563.3
				L324.4,563.3L324.4,563.3L324.4,563.3z M664.9,558.5L664.9,558.5l0.1-0.3h0.9l-0.2,0.2l-0.3,0.9L664.9,558.5z M668.7,557.3
				l-0.7-0.1l0.1-0.7l0.3-0.2h0.1l0.5,0.3l0.2,0.1v0.2l-0.3,0.3v0.1L668.7,557.3L668.7,557.3z M673.7,556.8l0.3-0.1l-1.3-1.3v-0.7
				l0.4-0.7v-1.3l-1.2-0.8h-2l-0.8,0.4l-1.5,0.9v0.2l-0.9,0.4h-0.3l-1,0.3l-1.2,0.1l-0.3,0.1l-0.3-0.2h-1.3l-0.5,1.1v0.5l-0.4-0.1
				l-1.2,0.4h-0.1v-0.1l0.8-0.5l0.3-0.8l0.2-0.2l0.4-0.3l1.5-1.5v-0.1l0.3-0.3l0.2-0.9l0.5-0.4l0,0l0.5,0.5l1.2-0.5l0.8-0.2h0.7
				l1.1-0.4l1.1-0.3l0.1,0.7h1.4l0.3-0.1l0.5,0.3l2.2-1.4l-0.4-0.4l1.1-1.6h-1v-0.2l-0.2-0.2l0.3-0.3v-0.5l0.7-1v-0.8l1.7,0.8l0.3-1
				l0.3-0.1l1.7-1.2l1.1-0.7l0.2-1.2l0.4-0.7v-1.2l0.1-0.4l0.5-0.4l1-1.5l-0.5-1l0.7-2.2l-0.3-1.4l0.3-1.1l-0.3-1.9l-0.7-1.5
				l0.2-0.9l-0.5-1.1h-0.1v-0.4l0.4,0.3l1.3-1l1.6,1.6l0.2,0.3l0.2,1.2l0.5,1h0.4l0.2,0.3l0.4,1.3l-0.1,0.3l0.2,0.9v0.5l-0.1,0.4
				v1.3l0.1,0.5v0.3l-1.4,0.7l-0.2,1.7v1l0.8,1.3l0.7,1.7l-0.3,1.3v3.8l0.7,1h-1.5l-1.1,0.3l-0.8,2l0,0l-0.3,0.2l-0.2,0.2h-1
				l-1.5,0.9v1.2l-1.4-0.2l0,0l-0.2-0.2v0.2l0.8-0.8h-3.3l-0.9,0.9l-0.5,1.7l0.9,0.9l0.2,0.1l-0.2,0.1l-0.7,1.2v0.4l-0.3,0.3v0.5
				l-0.2,0.3L673.7,556.8z M292.3,557l-0.2-0.4l-1.1-1.1l-0.7,0.2l-1-0.3l-0.4-0.4l-0.9-0.3l-0.4-0.3l1.3,0.2l1.2-0.4h1.7l0.3-0.3
				l0.1,0.1h0.2l-0.7,2.1l0.8,0.9v0.2l-0.1,0.1L292.3,557z M639.5,552.3v0.8l-0.4-1.1l0,0l0.3-0.3v-1.2l1.2-0.8l-1.6-2.6v-0.2
				l-0.2-0.4l1.9,0.4l-1.2-2.8l-0.1-0.1l0.3-0.3l-1-1l-0.9-1.3l0,0l3.5-1.4l1.3,1.3l1.5,2v1.6l0.8,0.8l0.2,1.7v3.3l1.6-1.6l0.1,0.7
				l-0.7,0.7l0.3,0.3H646l-1,1h-1.5l-0.2,0.4l-0.9,0.3l-1.6,1.3L639.5,552.3z M316.6,552.5l-0.5-0.2l-1.1-2.7l-0.3,0.7l-0.5-0.5h0.7
				l0.4-0.4l0.4,0.2l1.3-0.5l0.2,0.1l-1.4,0.5l0.9,0.9v1.3l0.3,0.8L316.6,552.5L316.6,552.5z M686.5,549.3L686.5,549.3h0.2l-0.2,0.2
				V549.3z M297.3,548.7l0.3-0.3v0.5l-0.3,0.2V548.7z M686.7,547.3l0.4,0.5l-0.2,0.2L686.7,547.3z M298.1,546.5l-0.3-0.9l-0.2-0.8
				l0.2,0.2h1l0.3,0.3l-0.3,0.9h-0.1l-0.7,0.7v-0.4H298.1L298.1,546.5z M296.6,541.8l-1.9-0.8l-0.1,0.1l-0.2-0.7h-0.3v-0.3l-0.7-1.4
				h-1.2l-1.5-0.7l-0.7-1.2h-1.1l-1.2-0.4l-0.1,0.1v-0.1l-1.7-0.7l-1-0.7l-1.2-1.7l-0.2-0.2l-0.3-0.7l-1-1c0.5-2.5,1.1-5.1,1.7-7.7
				l0.1,0.2l0.4,1.2l2,0.9l0.3,0.1l0.2,0.4l1.7,2.1v0.8l0.3,0.3v0.5l0.4,1.1l1.5,1.5l0.7,0.5l0.3,0.9l0.9,0.3l0.4,0.4h1.5l0.2,0.1
				v0.5l0.7,1.5h1.3l1,0.2l1.3,0.7l-0.7,0.7l-0.3,0.7l-0.4,0.4v1.9v0.1l-1,0.3v0.9L296.6,541.8z M634.1,538.3l-1,1l-0.2-0.1v-0.9
				h0.4l3.5-3.5l0.2,0.4l2.4,1.2l0.1,0.3l1.2,2.5l0.2,0.2h-5.5l0,0L634.1,538.3z M620.9,533.3L620.9,533.3h0.4l-0.2,0.2L620.9,533.3
				z M348.8,520.2l1.5-1.5l0.4,0.4l0,0l-1.3,1l-0.8,0.4L348.8,520.2z M289.9,519L289.9,519v0.1V519z M679,518.3L679,518.3l0.3,0.1
				l-0.2,0.1L679,518.3z M347.3,517.7l0.7-0.2l1-1l0,0v1.1l-0.3,0.8L347.3,517.7z M686.3,515.5l-0.8-0.4l-0.5-0.4l-1.1-1.5l-1,0.3
				l-0.1-0.1h-1.6l-1.1,0.9l-0.2,0.2l-1.1-0.9l-0.1,0.1v-0.3l0.9,0.3l1-1l0.1-0.5l0.9-0.4l-1.1-1.6l-0.2-0.1l-0.1-0.4h0.9l-0.8-2.2
				l-0.1-0.4l0.1-0.4l-0.2-1.4l-0.3-1.1l-0.9-1.4l0.7,0.4h0.4l0.2,0.7l1.6,1.6l0.8,0.4l0.7,1h0.7l0.2,0.4l1.3,0.7h0.7l0.5,0.7h2.4
				l0.4-0.2v0.4l1.3,0.7l0.2,0.2v0.9l-1.5,0.7l-0.1-0.1l-1.2,0.7l-1.1,1.1l-0.5,1.5L686.3,515.5L686.3,515.5z M677.3,492.3l-1-1.1
				V491l-0.1-0.2l0.5,0.7h0.5l0.3,0.4l0.4,0.4v0.9l-0.9,0.3L677.3,492.3L677.3,492.3z M675.5,489L675.5,489L675.5,489L675.5,489z
				 M673.6,483.8l-0.4-0.2v-0.1l0.2-0.9l-0.7-1.2v-2.1l-0.3-1.2l-0.1-0.9l-0.3-0.9l-0.7-0.9v-0.1l0.3-0.7l-1.3-1.3v-0.4l-0.4-0.9
				v-2.1l-1.2-1.6l-0.8-0.3l-0.4-0.4l-0.5-1.5l-0.9-0.3l-0.1-0.3l-0.7-1.6v-1.3l-0.1-0.1v-1.3l-1-1.3l-0.5-0.5l-0.1-0.7h0.2l1.3-0.4
				v-0.8l0.1,0.1l0.3,0.7l0.2,0.1v1.1l0.4,0.4v0.4l1.2,1.2l0.3,0.1v0.1v3.3l0.5,0.7l0.3,0.9l1,1v0.1l0.5,1.5h1.1v0.4l0.5,0.5l0.4,1
				l1.2,1.6l0.3,0.7l0.9,1.7l0.8,0.8v1.2l0.9,0.2l0.1,0.2l0.7,1.1h-0.3l-0.1,0.1l-0.1-0.1h-3.1l1,1.5l-0.3,0.9l0.5,1.1v0.2l-0.3,1.5
				l0.7,0.9v0.3L673.6,483.8z M312.2,461.3V461l0.3,0.3H312.2z M313.1,455.5c0.2-0.2,0.3-0.5,0.5-0.8v0.4L313.1,455.5L313.1,455.5z
				 M348.2,430.6L348.2,430.6l0.7,0.3L348.2,430.6z M345.3,430l-0.8-0.8L344,429l-0.1-0.1l0.1-0.1l0,0h1l0.1,0.2l0.8,0.8h-0.1
				L345.3,430L345.3,430z M370.2,405.5l-0.5-0.9l0,0v-1.1l0.2-0.5h0.4l1.4,0.7l-0.1,0.4v0.5l-0.3,0.5l-0.4,0.2L370.2,405.5
				L370.2,405.5z M394.1,394.5L394.1,394.5l0.3,0.1L394.1,394.5z M386.4,391L386.4,391l-0.5-1.2l-0.9,0.9l-0.1-0.2l-2.5-1l-0.5,0.5
				l-0.7-0.7l0.3-0.3l-1.5-1.5c0.5-0.3,1-0.7,1.5-1l0.4,0.4l0.9,2h1.3l1.4,0.3l0.9,0.7l0.8,1l0.3,0.1l-0.3,0.3L386.4,391z
				 M380,390.8v-0.4h0.2l0.4-0.4v0.8l-0.3,0.1L380,390.8z"/>
			
				<radialGradient id="光线_1_" cx="506.231" cy="83.026" r="234.9997" gradientTransform="matrix(1 0 0 1 0 496)" gradientUnits="userSpaceOnUse">
				<stop  offset="0.2738" style="stop-color:#FFFFFF"/>
				<stop  offset="0.8763" style="stop-color:#FFFFFF;stop-opacity:0.42"/>
				<stop  offset="1" style="stop-color:#FFFFFF;stop-opacity:0"/>
			</radialGradient>
			<path id="光线" class="st21" d="M349.4,611.7c29,6.6,59.4,11.3,90.8,14.1c5.7,65.9,21.8,129,46.5,187.5c2.1,0.2,4,0.3,6.1,0.4
				c-24.9-58.5-41.2-121.4-47-187.5c19.5,1.5,39.3,2.4,59.6,2.4c43.3,0,85-3.7,124.7-10.7c-11.5,82.6-59.5,153.7-127.1,196.2
				c1.1,0,2.3,0,3.4,0c2.3,0,4.5,0,6.7-0.1c65.6-44,111.8-115.1,122.5-197.1c37.5-6.9,72.9-16.7,105.5-29c0.1-2,0.1-3.8,0.1-5.8
				c-32.5,12.4-67.7,22.2-105,29.1c1.1-10.3,1.7-20.7,1.7-31.2c0-98.7-51.2-185.7-128.3-236c-1.1,0-2.2,0-3.4,0
				c-2.3,0-4.5,0-6.8,0.1c79.7,48.4,132.9,136.1,132.9,235.9c0,10.9-0.7,21.6-1.9,32.2C590.6,619.3,548.5,623,505,623
				c-20.3,0-40.4-0.9-60-2.4c-1.3-16.3-2-32.8-2-49.4c0-79.8,15.2-156.2,42.7-226.3c-2.1,0.2-4,0.3-6.1,0.7
				c-27.2,70.1-42.2,146.1-42.2,225.7c0,16.5,0.7,32.8,1.9,49c-31.5-2.8-62-7.7-90.9-14.2c-0.9-8.9-1.3-17.8-1.3-26.9
				c0-97.8,51.2-184.1,128.2-233c-4.4,0.5-8.6,1.3-12.9,2.1c-72.9,50.9-120.7,135.4-120.7,231c0,8.6,0.4,17.2,1.2,25.6
				c-25-5.9-49.1-13.2-71.6-21.6c0,2,0.1,3.8,0.2,5.8c22.7,8.4,46.9,15.7,72,21.6c9.2,82.5,54.1,154.3,118.9,199.6
				c4.3,0.8,8.6,1.5,12.9,2.1C407.3,768.5,359.3,695.8,349.4,611.7z"/>
			<g id="光点">
				
					<radialGradient id="SVGID_12_" cx="635.1277" cy="68.4759" r="9.1107" gradientTransform="matrix(1 0 0 1 0 496)" gradientUnits="userSpaceOnUse">
					<stop  offset="0.2738" style="stop-color:#FFFFFF"/>
					<stop  offset="0.8763" style="stop-color:#FFFFFF;stop-opacity:0.42"/>
					<stop  offset="1" style="stop-color:#FFFFFF;stop-opacity:0"/>
				</radialGradient>
				<circle class="st22" cx="635.1" cy="564.5" r="9.1"/>
				
					<radialGradient id="SVGID_13_" cx="557.1804" cy="-104.9631" r="9.0919" gradientTransform="matrix(1 0 0 1 0 496)" gradientUnits="userSpaceOnUse">
					<stop  offset="0.2738" style="stop-color:#FFFFFF"/>
					<stop  offset="0.8763" style="stop-color:#FFFFFF;stop-opacity:0.42"/>
					<stop  offset="1" style="stop-color:#FFFFFF;stop-opacity:0"/>
				</radialGradient>
				<circle class="st23" cx="557.2" cy="391" r="9.1"/>
				
					<radialGradient id="SVGID_14_" cx="587.2278" cy="238.0647" r="12.939" gradientTransform="matrix(1 0 0 1 0 496)" gradientUnits="userSpaceOnUse">
					<stop  offset="0.2738" style="stop-color:#FFFFFF"/>
					<stop  offset="0.8763" style="stop-color:#FFFFFF;stop-opacity:0.42"/>
					<stop  offset="1" style="stop-color:#FFFFFF;stop-opacity:0"/>
				</radialGradient>
				<circle class="st24" cx="587.2" cy="734" r="12.9"/>
				
					<radialGradient id="SVGID_15_" cx="443.1277" cy="126.7369" r="13.8511" gradientTransform="matrix(1 0 0 1 0 496)" gradientUnits="userSpaceOnUse">
					<stop  offset="0.2738" style="stop-color:#FFFFFF"/>
					<stop  offset="0.8763" style="stop-color:#FFFFFF;stop-opacity:0.42"/>
					<stop  offset="1" style="stop-color:#FFFFFF;stop-opacity:0"/>
				</radialGradient>
				<circle class="st25" cx="443.1" cy="622.8" r="13.9"/>
				
					<radialGradient id="SVGID_16_" cx="456.8626" cy="-59.5241" r="13.9256" gradientTransform="matrix(1 0 0 1 0 496)" gradientUnits="userSpaceOnUse">
					<stop  offset="0.2738" style="stop-color:#FFFFFF"/>
					<stop  offset="0.8763" style="stop-color:#FFFFFF;stop-opacity:0.42"/>
					<stop  offset="1" style="stop-color:#FFFFFF;stop-opacity:0"/>
				</radialGradient>
				<circle class="st26" cx="456.8" cy="436.5" r="14"/>
				
					<radialGradient id="SVGID_17_" cx="364.6277" cy="188.8785" r="11.4792" gradientTransform="matrix(1 0 0 1 0 496)" gradientUnits="userSpaceOnUse">
					<stop  offset="0.2738" style="stop-color:#FFFFFF"/>
					<stop  offset="0.8763" style="stop-color:#FFFFFF;stop-opacity:0.42"/>
					<stop  offset="1" style="stop-color:#FFFFFF;stop-opacity:0"/>
				</radialGradient>
				<circle class="st27" cx="364.6" cy="684.8" r="11.5"/>
			</g>
		</g>
	</g>
</g>
</svg>
