<?xml version="1.0" encoding="utf-8"?>
<!-- Generator: Adobe Illustrator 21.1.0, SVG Export Plug-In . SVG Version: 6.00 Build 0)  -->
<!DOCTYPE svg PUBLIC "-//W3C//DTD SVG 1.1//EN" "http://www.w3.org/Graphics/SVG/1.1/DTD/svg11.dtd">
<svg version="1.1" id="图层_1" xmlns="http://www.w3.org/2000/svg" xmlns:xlink="http://www.w3.org/1999/xlink" x="0px" y="0px"
	 viewBox="0 0 896 684.6" style="enable-background:new 0 0 896 684.6;" xml:space="preserve">
<style type="text/css">
	.st0{fill:url(#SVGID_1_);}
	.st1{fill:url(#SVGID_2_);}
	.st2{fill:url(#hhhll_1_);}
	.st3{fill:#5D5D5D;stroke:#043977;stroke-width:8;stroke-miterlimit:10;}
	.st4{fill:url(#SVGID_3_);}
	.st5{fill:url(#SVGID_4_);stroke:#418EB4;stroke-miterlimit:10;}
	.st6{fill:url(#SVGID_5_);stroke:#043977;stroke-miterlimit:10;}
	.st7{fill:url(#SVGID_6_);stroke:#043977;stroke-miterlimit:10;}
	.st8{opacity:0.3;fill:#FFFFFF;enable-background:new    ;}
	.st9{fill:url(#body_1_);stroke:#043977;stroke-miterlimit:10;}
	.st10{opacity:0.5;fill:#0F69B4;enable-background:new    ;}
	.st11{opacity:0.5;fill:#FFFFFF;enable-background:new    ;}
	.st12{fill:url(#显示器_3_);}
	.st13{opacity:0.1;fill:url(#高光_1_);enable-background:new    ;}
	.st14{fill:url(#SVGID_7_);}
	.st15{fill:url(#SVGID_8_);stroke:#418EB4;stroke-miterlimit:10;}
	.st16{fill:url(#SVGID_9_);stroke:#043977;stroke-miterlimit:10;}
	.st17{fill:url(#SVGID_10_);stroke:#043977;stroke-miterlimit:10;}
	.st18{fill:url(#body_2_);stroke:#043977;stroke-miterlimit:10;}
	.st19{fill:url(#显示器_4_);}
	.st20{opacity:0.1;fill:url(#高光_5_);enable-background:new    ;}
	.st21{fill:url(#SVGID_11_);}
	.st22{fill:url(#SVGID_12_);stroke:#418EB4;stroke-miterlimit:10;}
	.st23{fill:url(#SVGID_13_);stroke:#043977;stroke-miterlimit:10;}
	.st24{fill:url(#SVGID_14_);stroke:#043977;stroke-miterlimit:10;}
	.st25{fill:url(#body_3_);stroke:#043977;stroke-miterlimit:10;}
	.st26{fill:url(#显示器_5_);}
	.st27{opacity:0.1;fill:url(#高光_6_);enable-background:new    ;}
</style>
<g>
	<g id="云朵">
		<g>
			
				<linearGradient id="SVGID_1_" gradientUnits="userSpaceOnUse" x1="0.8611" y1="375.1607" x2="990.8116" y2="277.6656" gradientTransform="matrix(1 0 0 -1 0 686)">
				<stop  offset="0" style="stop-color:#DFE6EE"/>
				<stop  offset="0.4851" style="stop-color:#F5F7F8"/>
				<stop  offset="0.995" style="stop-color:#ABB6C3"/>
			</linearGradient>
			<path class="st0" d="M792,337.5c1.6-9.3,2.6-19.1,2.6-28.8c0-87.8-71-159-158.9-159c-6.7,0-13,0.5-19.3,1.1
				C580.6,66.3,497,6.8,399.7,6.8c-114.5,0-209.9,81.5-231.1,189.7C75.9,208.3,4.4,287.7,4.4,383.5c0,35.8,10,69.1,27.2,97.5
				c6.8,12.6,15.8,24.7,27.7,36.5c7.9,90.1,87.7,160.8,184.8,160.8c58.2,0,110.6-25.6,144.5-65.4c31.6,26.8,75.4,43.7,124.3,43.7
				c54.2,0,102.6-20.5,134.5-53.1c2.8-0.2,6-0.7,8.6-1.1c16.1,6.5,33.8,10.2,52.6,10.2c48,0,90.3-23.8,112.6-58.9
				c18.4-10.7,32.3-21.9,42.4-34c17.9-19.3,28.8-45.1,28.8-73.5C892,388.2,848,341.6,792,337.5z"/>
			<g>
				
					<linearGradient id="SVGID_2_" gradientUnits="userSpaceOnUse" x1="-4.464301e-02" y1="448.3407" x2="896.0429" y2="448.3407" gradientTransform="matrix(1 0 0 1 0 -106)">
					<stop  offset="0" style="stop-color:#C3C6D2"/>
					<stop  offset="0.1013" style="stop-color:#C3C6D2;stop-opacity:0"/>
				</linearGradient>
				<path class="st1" d="M796.2,343.5c9.3-53.3-8.2-107.5-44.7-147.1c-35.6-38.8-87.1-58-139.2-52.3c2.6,2.8,5.1,6,7.7,8.8
					c-28.1-65.4-81.7-118-149.4-141c-68.2-23-145.2-12.1-205.2,27.2c-28.6,18.8-53,44.2-71,73.5c-8.8,14.4-16.1,29.5-21.7,45.6
					c-2.8,7.9-5.3,16.1-7,24.4c-1.4,5.8-1.6,7.7-7.7,8.6c-4.9,0.7-9.8,1.8-14.6,2.8C76.1,210.2,23.1,264.4,5.8,330.9
					c-17.7,67.7,6,142.9,54.9,191.8c-1.9-3.5-4-6.8-6-10.3c6.5,66.8,51,126.2,111.3,154.7c69.1,32.3,154.1,19.3,210.6-31.9
					c5.6-5.1,10.7-10.7,15.8-16.3c-0.7-0.2-1.6-0.7-2.5-1.1c61.9,52.3,155.4,58.9,225.5,19.1c7.9-4.4,15.3-9.8,22.6-15.4
					c3.5-2.6,6.8-6,10-8.8c2.5-2.3,2.6-3.2,6-3.5c4.6-0.7,8.2,0.5,12.4,1.9c20.2,6.8,41.7,8.6,62.6,6.5c37-4,71.9-23.8,93.1-54.2
					c4.2-6.5,12.1-9.5,18.6-13.9c6-4.2,11.6-9.1,17-13.9c9.8-9.3,18.1-19.6,25.1-31.6c13.9-24.7,16.3-54.2,9.8-81.4
					c-11.9-48.2-54.4-87.1-104.2-91.2c-2.3-0.2,3.2,12.6,6.8,13c34.7,2.8,68.6,22.1,83.5,54.7c17.2,37.2,8.2,81.9-18.1,112.2
					c-6.1,7-12.6,13.5-19.6,19.3c-4,3.2-8.2,6.5-12.4,9.3c-5.1,3.5-10.7,5.8-14.2,10.9c-10.2,15.1-23.8,27.2-39.5,36.3
					c-36.1,21.4-81.4,24.4-120.3,9.8c-5.3-1.9-10.9-0.5-14.9,3.3c-3.5,3.5-7.7,7-11.7,10.2c-8.8,7.4-18.6,13-28.9,18.6
					c-21.7,11-45.8,17.7-70.1,20.2c-50.1,5.3-103.8-8.6-142.6-41.4c-0.2-0.2-1.8-1.8-2.5-1.1c-51.4,59.8-135.9,80.1-209.7,54.2
					c-33-11.6-62.6-33-83.1-61c-10.1-13.7-17.1-29.2-22-45.5c-2.5-8.2-4-16.3-5.3-24.7c-0.5-3.5-0.5-7.4-2.3-10.7
					c-2.6-5.3-7.4-8.8-11-13C1.4,451.7-3.3,368.4,28.8,305.3c27.7-55.1,82.8-92.8,143.4-100.8c0.2-0.2,0.2-0.2,0.2-0.5
					c13.9-69.3,58.2-128.5,120.3-162C357.6,7.3,437,6.2,503.1,37.1c48.4,23,88,63.1,109.1,112.6c1.1,2.3,4.2,9.3,7.7,8.8
					c46.8-5.3,93.6,10.2,127.6,43c35.2,33.8,47.3,84,39.5,131.3c-0.5,2.8,2.3,6.7,3.7,8.6C791.5,340.7,795.7,345.8,796.2,343.5z"/>
			</g>
		</g>
		
			<linearGradient id="hhhll_1_" gradientUnits="userSpaceOnUse" x1="354.6076" y1="462.7982" x2="354.6076" y2="840.8634" gradientTransform="matrix(1.5348 0 0 -1.5348 -297.8018 1327.879)">
			<stop  offset="0" style="stop-color:#FFFFFF;stop-opacity:0"/>
			<stop  offset="1" style="stop-color:#FFFFFF;stop-opacity:0.5"/>
		</linearGradient>
		<path id="hhhll_8_" class="st2" d="M299.7,652.5l-107.3,8.4V116.3c0,0,22.8-37.3,51.6-61c25.4-20.9,56.5-34.4,56.5-34.4
			L299.7,652.5z"/>
	</g>
	<g id="PC_3_">
		<g id="连线_1_">
			<path id="连线" class="st3" d="M252.6,574.9l358.6-67.1 M419.4,271.9l193.8,214.9 M175.3,510.3l202-245.3"/>
		</g>
		<g id="PC">
			
				<radialGradient id="SVGID_3_" cx="426.9597" cy="33940.2891" r="75.2469" gradientTransform="matrix(1.4748 0 0 -0.1389 -226.6806 4990.6504)" gradientUnits="userSpaceOnUse">
				<stop  offset="0" style="stop-color:#2A3C4E"/>
				<stop  offset="1" style="stop-color:#2A3C4E;stop-opacity:0"/>
			</radialGradient>
			<ellipse class="st4" cx="403" cy="277.7" rx="114.6" ry="11.6"/>
			<g id="支架">
				
					<linearGradient id="SVGID_4_" gradientUnits="userSpaceOnUse" x1="455.6284" y1="691.4448" x2="455.6284" y2="717.7328" gradientTransform="matrix(1.5348 0 0 -1.5348 -297.8018 1327.879)">
					<stop  offset="0" style="stop-color:#CACEDA"/>
					<stop  offset="1" style="stop-color:#D7DBE3"/>
				</linearGradient>
				<rect x="367.9" y="226.2" class="st5" width="67.3" height="40.3"/>
				
					<linearGradient id="SVGID_5_" gradientUnits="userSpaceOnUse" x1="455.6284" y1="694.5804" x2="455.6284" y2="709.2021" gradientTransform="matrix(1.5348 0 0 -1.5348 -297.8018 1327.879)">
					<stop  offset="0" style="stop-color:#70829D;stop-opacity:0"/>
					<stop  offset="0.9854" style="stop-color:#70829D;stop-opacity:0.9854"/>
					<stop  offset="1" style="stop-color:#70829D"/>
				</linearGradient>
				<rect x="367.9" y="229.7" class="st6" width="67.3" height="40.3"/>
			</g>
			<g id="底盘">
				
					<linearGradient id="SVGID_6_" gradientUnits="userSpaceOnUse" x1="455.7414" y1="682.6563" x2="455.7414" y2="691.4186" gradientTransform="matrix(1.5348 0 0 -1.5348 -297.8018 1327.879)">
					<stop  offset="0" style="stop-color:#DFE6EE"/>
					<stop  offset="0.5" style="stop-color:#F5F7F8"/>
					<stop  offset="0.995" style="stop-color:#ABB6C3"/>
				</linearGradient>
				<path class="st7" d="M457.9,280.6H345.4c-2.2,0-4-1.8-4-4v-4.6c0-2.2,1.8-4,4-4h112.5c2.2,0,4,1.8,4,4v4.6
					C462,278.1,460.1,280.6,457.9,280.6z"/>
				<path id="hl" class="st8" d="M458.5,267.4H345.2c-2.9,0-3.2,1.3-3.2,3v3.7h118.2l1.3-3.8C461.4,268.4,460.1,267.4,458.5,267.4z"
					/>
			</g>
			<g id="显示屏幕">
				
					<linearGradient id="body_1_" gradientUnits="userSpaceOnUse" x1="455.6661" y1="708.816" x2="455.6661" y2="813.8928" gradientTransform="matrix(1.5348 0 0 -1.5348 -297.8018 1327.879)">
					<stop  offset="0" style="stop-color:#CACEDA"/>
					<stop  offset="1" style="stop-color:#D7DBE3"/>
				</linearGradient>
				<path id="body_8_" class="st9" d="M517.1,240H286.2c-3,0-5.7-2.7-5.7-5.7V84.4c0-3,2.7-5.7,5.7-5.7h230.6c3,0,5.7,2.7,5.7,5.7
					v149.8C522.5,237.2,520.1,240,517.1,240z"/>
				<polygon id="灰边" class="st10" points="511.8,89.2 293.9,89.2 293.9,89.2 291.4,89.2 291.4,229.2 293.9,229.2 293.9,92 
					511.8,92 				"/>
				<polygon id="白边" class="st11" points="511.8,229.2 293.9,229.2 296.8,94.9 511.8,92 				"/>
				
					<linearGradient id="显示器_3_" gradientUnits="userSpaceOnUse" x1="264.8573" y1="507.3339" x2="521.4922" y2="543.7483" gradientTransform="matrix(1 0 0 -1 0 686)">
					<stop  offset="0" style="stop-color:#3EADED"/>
					<stop  offset="1" style="stop-color:#0B528D"/>
				</linearGradient>
				<rect id="显示器" x="293.9" y="92" class="st12" width="215" height="134.6"/>
				
					<linearGradient id="高光_1_" gradientUnits="userSpaceOnUse" x1="455.7037" y1="722.0864" x2="455.7037" y2="804.201" gradientTransform="matrix(1.5348 0 0 -1.5348 -297.8018 1327.879)">
					<stop  offset="0" style="stop-color:#FFFFFF;stop-opacity:0"/>
					<stop  offset="1" style="stop-color:#FFFFFF"/>
				</linearGradient>
				<polygon id="高光_2_" class="st13" points="293.9,226.2 293.9,92 509.4,92 				"/>
			</g>
		</g>
		<g id="PC_1_">
			
				<radialGradient id="SVGID_7_" cx="309.9259" cy="33462.0078" r="75.2154" gradientTransform="matrix(1.4748 0 0 -0.1389 -226.6806 5231.2026)" gradientUnits="userSpaceOnUse">
				<stop  offset="0" style="stop-color:#2A3C4E"/>
				<stop  offset="1" style="stop-color:#2A3C4E;stop-opacity:0"/>
			</radialGradient>
			<ellipse class="st14" cx="230.4" cy="584.8" rx="114.6" ry="11.6"/>
			<g id="支架_1_">
				
					<linearGradient id="SVGID_8_" gradientUnits="userSpaceOnUse" x1="344.1867" y1="492.6009" x2="344.1867" y2="521.9019" gradientTransform="matrix(1.5348 0 0 -1.5348 -297.8018 1327.879)">
					<stop  offset="0" style="stop-color:#CACEDA"/>
					<stop  offset="1" style="stop-color:#D7DBE3"/>
				</linearGradient>
				<rect x="192.9" y="527" class="st15" width="75" height="45"/>
				
					<linearGradient id="SVGID_9_" gradientUnits="userSpaceOnUse" x1="344.1867" y1="496.3556" x2="344.1867" y2="512.6432" gradientTransform="matrix(1.5348 0 0 -1.5348 -297.8018 1327.879)">
					<stop  offset="0" style="stop-color:#70829D;stop-opacity:0"/>
					<stop  offset="0.9854" style="stop-color:#70829D;stop-opacity:0.9854"/>
					<stop  offset="1" style="stop-color:#70829D"/>
				</linearGradient>
				<rect x="192.9" y="530.5" class="st16" width="75" height="45"/>
			</g>
			<g id="底盘_1_">
				
					<linearGradient id="SVGID_10_" gradientUnits="userSpaceOnUse" x1="344.0861" y1="482.8158" x2="344.0861" y2="492.5763" gradientTransform="matrix(1.5348 0 0 -1.5348 -297.8018 1327.879)">
					<stop  offset="0" style="stop-color:#DFE6EE"/>
					<stop  offset="0.5" style="stop-color:#F5F7F8"/>
					<stop  offset="0.995" style="stop-color:#ABB6C3"/>
				</linearGradient>
				<path class="st17" d="M293.5,586.8H167.2c-2.2,0-4-1.8-4-4v-6.5c0-2.2,1.8-4,4-4h126.2c2.2,0,4,1.8,4,4v6.5
					C297.8,585.1,295.7,586.8,293.5,586.8z"/>
				<path id="hl_1_" class="st8" d="M293.6,572.8h-126c-3,0-3.7,1.6-3.7,3.7v4h131.8l1.3-4.3C297,573.6,295.5,572.8,293.6,572.8z"/>
			</g>
			<g id="显示屏幕_1_">
				
					<linearGradient id="body_2_" gradientUnits="userSpaceOnUse" x1="344.149" y1="511.9946" x2="344.149" y2="629.1232" gradientTransform="matrix(1.5348 0 0 -1.5348 -297.8018 1327.879)">
					<stop  offset="0" style="stop-color:#CACEDA"/>
					<stop  offset="1" style="stop-color:#D7DBE3"/>
				</linearGradient>
				<path id="body_9_" class="st18" d="M359.8,542.1H101.3c-3,0-5.7-2.7-5.7-5.7V368c0-3,2.7-5.7,5.7-5.7h258.3c3,0,5.7,2.7,5.7,5.7
					v168.4C365.1,539.6,362.8,542.1,359.8,542.1z"/>
				<polygon id="灰边_1_" class="st10" points="353.3,374.4 110.6,374.4 110.6,374.4 107.6,374.4 107.6,530 110.6,530 
					110.6,377.4 353.3,377.4 				"/>
				<polygon id="白边_1_" class="st11" points="353.3,530 110.6,530 113.6,380.3 353.3,377.4 				"/>
				
					<linearGradient id="显示器_4_" gradientUnits="userSpaceOnUse" x1="303.5332" y1="500.0318" x2="384.8402" y2="640.86" gradientTransform="matrix(1.5348 0 0 -1.5348 -297.8018 1327.879)">
					<stop  offset="0" style="stop-color:#3EADED"/>
					<stop  offset="1" style="stop-color:#0B528D"/>
				</linearGradient>
				<rect id="显示器_1_" x="110.6" y="377.4" class="st19" width="239.7" height="149.8"/>
				
					<linearGradient id="高光_5_" gradientUnits="userSpaceOnUse" x1="344.1867" y1="526.7379" x2="344.1867" y2="618.2076" gradientTransform="matrix(1.5348 0 0 -1.5348 -297.8018 1327.879)">
					<stop  offset="0" style="stop-color:#FFFFFF;stop-opacity:0"/>
					<stop  offset="1" style="stop-color:#FFFFFF"/>
				</linearGradient>
				<polygon id="高光_3_" class="st20" points="110.6,527 110.6,377.4 350.3,377.4 				"/>
			</g>
		</g>
		<g id="PC_2_">
			
				<radialGradient id="SVGID_11_" cx="583.1877" cy="33572.0039" r="75.2883" gradientTransform="matrix(1.4748 0 0 -0.1389 -226.6806 5175.7734)" gradientUnits="userSpaceOnUse">
				<stop  offset="0" style="stop-color:#2A3C4E"/>
				<stop  offset="1" style="stop-color:#2A3C4E;stop-opacity:0"/>
			</radialGradient>
			<ellipse class="st21" cx="633.4" cy="514.1" rx="114.6" ry="11.6"/>
			<g id="支架_2_">
				
					<linearGradient id="SVGID_12_" gradientUnits="userSpaceOnUse" x1="607.2931" y1="538.2261" x2="607.2931" y2="566.146" gradientTransform="matrix(1.5348 0 0 -1.5348 -297.8018 1327.879)">
					<stop  offset="0" style="stop-color:#CACEDA"/>
					<stop  offset="1" style="stop-color:#D7DBE3"/>
				</linearGradient>
				<rect x="598.6" y="458.9" class="st22" width="71.3" height="43"/>
				
					<linearGradient id="SVGID_13_" gradientUnits="userSpaceOnUse" x1="607.2931" y1="541.7247" x2="607.2931" y2="557.2604" gradientTransform="matrix(1.5348 0 0 -1.5348 -297.8018 1327.879)">
					<stop  offset="0" style="stop-color:#70829D;stop-opacity:0"/>
					<stop  offset="0.9854" style="stop-color:#70829D;stop-opacity:0.9854"/>
					<stop  offset="1" style="stop-color:#70829D"/>
				</linearGradient>
				<rect x="598.6" y="462.4" class="st23" width="71.3" height="43"/>
			</g>
			<g id="底盘_2_">
				
					<linearGradient id="SVGID_14_" gradientUnits="userSpaceOnUse" x1="607.2614" y1="528.9074" x2="607.2614" y2="538.2172" gradientTransform="matrix(1.5348 0 0 -1.5348 -297.8018 1327.879)">
					<stop  offset="0" style="stop-color:#DFE6EE"/>
					<stop  offset="0.5" style="stop-color:#F5F7F8"/>
					<stop  offset="0.995" style="stop-color:#ABB6C3"/>
				</linearGradient>
				<path class="st24" d="M694.2,516.3h-120c-2.2,0-4-1.8-4-4v-5.7c0-2.2,1.8-4,4-4h120c2.2,0,4,1.8,4,4v5.7
					C698.5,514.3,696.5,516.3,694.2,516.3z"/>
				<path id="hl_2_" class="st8" d="M694.4,502.8H574.2c-3,0-3.7,1.6-3.7,3.7v4h125.9l1.3-4C697.9,503.6,696.5,502.8,694.4,502.8z"
					/>
			</g>
			<g id="显示屏幕_2_">
				
					<linearGradient id="body_3_" gradientUnits="userSpaceOnUse" x1="607.3684" y1="556.737" x2="607.3684" y2="668.5176" gradientTransform="matrix(1.5348 0 0 -1.5348 -297.8018 1327.879)">
					<stop  offset="0" style="stop-color:#CACEDA"/>
					<stop  offset="1" style="stop-color:#D7DBE3"/>
				</linearGradient>
				<path id="body_10_" class="st25" d="M757.1,473.4H511.4c-3,0-5.7-2.7-5.7-5.7V307.5c0-3,2.7-5.7,5.7-5.7h245.9
					c3,0,5.7,2.7,5.7,5.7v160.1C762.8,471.1,760.1,473.4,757.1,473.4z"/>
				<polygon id="灰边_2_" class="st10" points="751.6,313.4 520.1,313.4 520.1,313.4 517.3,313.4 517.3,461.8 520.1,461.8 
					520.1,316.3 751.6,316.3 				"/>
				<polygon id="白边_2_" class="st11" points="751.6,461.8 520.1,461.8 523,319.1 751.6,316.3 				"/>
				
					<linearGradient id="显示器_5_" gradientUnits="userSpaceOnUse" x1="568.6014" y1="545.5464" x2="646.06" y2="679.7083" gradientTransform="matrix(1.5348 0 0 -1.5348 -297.8018 1327.879)">
					<stop  offset="0" style="stop-color:#3EADED"/>
					<stop  offset="1" style="stop-color:#0B528D"/>
				</linearGradient>
				<rect id="显示器_2_" x="520.1" y="316.3" class="st26" width="228.4" height="142.7"/>
				
					<linearGradient id="高光_6_" gradientUnits="userSpaceOnUse" x1="607.2554" y1="570.8084" x2="607.2554" y2="658.0555" gradientTransform="matrix(1.5348 0 0 -1.5348 -297.8018 1327.879)">
					<stop  offset="0" style="stop-color:#FFFFFF;stop-opacity:0"/>
					<stop  offset="1" style="stop-color:#FFFFFF"/>
				</linearGradient>
				<polygon id="高光_4_" class="st27" points="520.1,458.9 520.1,316.3 748.3,316.3 				"/>
			</g>
		</g>
	</g>
</g>
</svg>
