<?xml version="1.0" encoding="utf-8"?>
<!-- Generator: Adobe Illustrator 21.1.0, SVG Export Plug-In . SVG Version: 6.00 Build 0)  -->
<!DOCTYPE svg PUBLIC "-//W3C//DTD SVG 1.1//EN" "http://www.w3.org/Graphics/SVG/1.1/DTD/svg11.dtd">
<svg version="1.1" id="交换机" xmlns="http://www.w3.org/2000/svg" xmlns:xlink="http://www.w3.org/1999/xlink" x="0px" y="0px"
	 viewBox="0 0 811 638.7" style="enable-background:new 0 0 811 638.7;" xml:space="preserve">
<style type="text/css">
	.st0{fill:url(#底部_1_);}
	.st1{fill:url(#暗角反光_1_);}
	.st2{fill:url(#中高光_1_);}
	.st3{fill:url(#顶-背景_1_);}
	.st4{fill:url(#SVGID_1_);}
	.st5{fill:#073A76;}
	.st6{fill:#FFFFFF;}
	.st7{fill:url(#SVGID_2_);}
	.st8{fill:url(#SVGID_3_);}
	.st9{fill:url(#SVGID_4_);}
	.st10{fill:url(#SVGID_5_);}
	.st11{fill:url(#SVGID_6_);}
	.st12{fill:url(#SVGID_7_);}
	.st13{fill:url(#SVGID_8_);}
	.st14{fill:url(#SVGID_9_);}
	.st15{fill:url(#SVGID_10_);}
	.st16{fill:url(#SVGID_11_);}
	.st17{fill:url(#SVGID_12_);}
	.st18{fill:url(#SVGID_13_);}
	.st19{fill:#043977;}
	.st20{fill:url(#高光_1_);}
</style>
<linearGradient id="底部_1_" gradientUnits="userSpaceOnUse" x1="49.0567" y1="-333.675" x2="763.5003" y2="-333.675" gradientTransform="matrix(1 0 0 -1 0 74.125)">
	<stop  offset="0" style="stop-color:#E7EFF5"/>
	<stop  offset="0.2574" style="stop-color:#C3C5D2"/>
	<stop  offset="0.3352" style="stop-color:#C6C8D5"/>
	<stop  offset="0.3997" style="stop-color:#CED3DD"/>
	<stop  offset="0.4592" style="stop-color:#DDE4EC"/>
	<stop  offset="0.4655" style="stop-color:#DFE6EE"/>
	<stop  offset="0.5693" style="stop-color:#98A5B5"/>
	<stop  offset="0.995" style="stop-color:#7E8EA0"/>
</linearGradient>
<path id="底部" class="st0" d="M2.1,177.4v181.9c0,18,9.4,34.7,24.7,44l329.9,219.3c34.3,20.9,77.3,20.9,111.6,0l316.9-219.3
	c15.3-9.4,24.7-26.1,24.7-44V181.4L2.1,177.4z"/>
<linearGradient id="暗角反光_1_" gradientUnits="userSpaceOnUse" x1="1.0567" y1="-335.675" x2="770.5018" y2="-335.675" gradientTransform="matrix(1 0 0 -1 0 74.125)">
	<stop  offset="0" style="stop-color:#C3C6D2"/>
	<stop  offset="0.1409" style="stop-color:#C3C6D2;stop-opacity:0"/>
</linearGradient>
<path id="暗角反光" class="st1" d="M2.1,181.4v177.9c0,18,9.4,34.7,24.7,44l329.9,219.3c34.3,20.9,77.3,20.9,111.6,0
	l316.9-219.3c15.3-9.4,24.7-26.1,24.7-44V181.4H2.1z"/>
<linearGradient id="中高光_1_" gradientUnits="userSpaceOnUse" x1="399" y1="737.0625" x2="399" y2="592.0315" gradientTransform="matrix(1 0 0 1 0 -142)">
	<stop  offset="0" style="stop-color:#FFFFFF;stop-opacity:0"/>
	<stop  offset="1" style="stop-color:#FFFFFF;stop-opacity:0.3"/>
</linearGradient>
<path id="中高光" class="st2" d="M352.7,363.8h68.7v274c-22.2,1.8-44.8-3.3-64.5-15.3l-4.2-2.8V363.8z M429.3,363.1v273.8
	c5.4-0.9,10.8-2.1,16-3.8v-270H429.3z"/>
<linearGradient id="顶-背景_1_" gradientUnits="userSpaceOnUse" x1="164.1233" y1="-257.9357" x2="590.2297" y2="-16.8491" gradientTransform="matrix(1 0 0 -1 0 74.125)">
	<stop  offset="0" style="stop-color:#DFE6EE"/>
	<stop  offset="0.5" style="stop-color:#F5F7F8"/>
	<stop  offset="0.995" style="stop-color:#ABB6C3"/>
</linearGradient>
<path id="顶-背景" class="st3" d="M793.4,215.7l-323,197.4c-35.6,21.7-80.4,21.7-116,0L13.3,204.7c-16.9-10.3-15.1-35.4,3.1-43.2
	L375.8,7.7c23.4-10,49.8-10,73.1,0l340,145.5C815.3,164.5,817.9,200.8,793.4,215.7z"/>
<g id="顶-色彩">
	
		<linearGradient id="SVGID_1_" gradientUnits="userSpaceOnUse" x1="96.7008" y1="487.5023" x2="686.7009" y2="379.5023" gradientTransform="matrix(1 0 0 -1 0 642.125)">
		<stop  offset="0" style="stop-color:#3EADED"/>
		<stop  offset="1" style="stop-color:#0B528D"/>
	</linearGradient>
	<path class="st4" d="M409.4,407.3c-18.5,0-36.7-5.1-52.5-14.8L38.3,202.1c-6.9-4.2-10.7-11.6-10.1-19.7c0.6-8.1,5.4-14.8,12.9-18
		L376.3,23c10.5-4.5,21.6-6.8,33-6.8s22.5,2.3,33,6.8l322.5,134.9c11,4.7,18,14.4,18.9,26c0.8,11.5-4.7,22.1-14.9,28.3l-307,180.3
		C446,402.2,427.9,407.3,409.4,407.3z"/>
	<path class="st5" d="M409.4,17.2c11.3,0,22.3,2.2,32.6,6.7l322.5,134.9c10.6,4.5,17.4,13.9,18.3,25.2c0.8,11.2-4.6,21.4-14.4,27.4
		L461.3,391.7c-15.6,9.6-33.6,14.6-51.9,14.6s-36.3-5.1-52-14.6L38.9,201.3c-6.6-4-10.2-11-9.7-18.8c0.6-7.7,5.1-14.1,12.2-17.2
		L376.7,23.9C387.1,19.4,398.1,17.2,409.4,17.2 M409.4,15.2c-11.4,0-22.7,2.3-33.4,6.8L40.7,163.5c-16.6,7.1-18.3,30.1-2.9,39.5
		l318.6,190.4c16.3,9.9,34.6,14.9,53,14.9s36.7-5,53-14.9l307-180.3c22.3-13.6,19.9-45.8-4.1-56.1L442.8,22
		C432.1,17.5,420.7,15.2,409.4,15.2L409.4,15.2z"/>
</g>
<g id="箭头">
	<g>
		<g>
			<polygon class="st6" points="288.9,233.2 210.3,282.8 288.9,332.5 288.9,305.7 349.2,305.7 337.4,282.8 349.2,259.9 288.9,259.9 
							"/>
			<polygon class="st6" points="357.1,305.7 370.1,305.7 358.3,282.8 370.1,259.9 357.1,259.9 345.3,282.8 			"/>
			<polygon class="st6" points="378,305.7 391.1,305.7 379.2,282.8 391.1,259.9 378,259.9 366.2,282.8 			"/>
		</g>
		<g>
			
				<linearGradient id="SVGID_2_" gradientUnits="userSpaceOnUse" x1="22.5512" y1="313.895" x2="22.5512" y2="420.8203" gradientTransform="matrix(6.123234e-17 -1 -1 -6.123234e-17 719.7473 305.3637)">
				<stop  offset="0" style="stop-color:#FFFFFF"/>
				<stop  offset="0.995" style="stop-color:#EBF3F9"/>
			</linearGradient>
			<polygon class="st7" points="288.9,233.2 288.9,332.5 288.9,305.7 349.2,305.7 337.4,282.8 349.2,259.9 288.9,259.9 			"/>
			
				<linearGradient id="SVGID_3_" gradientUnits="userSpaceOnUse" x1="22.6012" y1="340.547" x2="22.6012" y2="397.1323" gradientTransform="matrix(6.123234e-17 -1 -1 -6.123234e-17 719.7473 305.3637)">
				<stop  offset="0" style="stop-color:#FFFFFF"/>
				<stop  offset="0.995" style="stop-color:#EBF3F9"/>
			</linearGradient>
			<polygon class="st8" points="357.1,305.7 370.1,305.7 358.3,282.8 370.1,259.9 357.1,259.9 345.3,282.8 			"/>
			
				<linearGradient id="SVGID_4_" gradientUnits="userSpaceOnUse" x1="22.6012" y1="340.547" x2="22.6012" y2="397.1323" gradientTransform="matrix(6.123234e-17 -1 -1 -6.123234e-17 719.7473 305.3637)">
				<stop  offset="0" style="stop-color:#FFFFFF"/>
				<stop  offset="0.995" style="stop-color:#EBF3F9"/>
			</linearGradient>
			<polygon class="st9" points="378,305.7 391.1,305.7 379.2,282.8 391.1,259.9 378,259.9 366.2,282.8 			"/>
		</g>
	</g>
	<g>
		<g>
			<polygon class="st6" points="258.9,123.8 180.3,173.4 258.9,223.1 258.9,196.3 319.2,196.3 307.4,173.4 319.2,150.6 258.9,150.6 
							"/>
			<polygon class="st6" points="327.1,196.3 340.1,196.3 328.3,173.4 340.1,150.6 327.1,150.6 315.3,173.4 			"/>
			<polygon class="st6" points="348,196.3 361.1,196.3 349.2,173.4 361.1,150.6 348,150.6 336.2,173.4 			"/>
		</g>
		<g>
			
				<linearGradient id="SVGID_5_" gradientUnits="userSpaceOnUse" x1="131.9512" y1="343.895" x2="131.9512" y2="450.8203" gradientTransform="matrix(6.123234e-17 -1 -1 -6.123234e-17 719.7473 305.3637)">
				<stop  offset="0" style="stop-color:#FFFFFF"/>
				<stop  offset="0.995" style="stop-color:#EBF3F9"/>
			</linearGradient>
			<polygon class="st10" points="258.9,123.8 258.9,223.1 258.9,196.3 319.2,196.3 307.4,173.4 319.2,150.6 258.9,150.6 			"/>
			
				<linearGradient id="SVGID_6_" gradientUnits="userSpaceOnUse" x1="131.9512" y1="370.547" x2="131.9512" y2="427.1323" gradientTransform="matrix(6.123234e-17 -1 -1 -6.123234e-17 719.7473 305.3637)">
				<stop  offset="0" style="stop-color:#FFFFFF"/>
				<stop  offset="0.995" style="stop-color:#EBF3F9"/>
			</linearGradient>
			<polygon class="st11" points="327.1,196.3 340.1,196.3 328.3,173.4 340.1,150.6 327.1,150.6 315.3,173.4 			"/>
			
				<linearGradient id="SVGID_7_" gradientUnits="userSpaceOnUse" x1="131.9512" y1="370.547" x2="131.9512" y2="427.1323" gradientTransform="matrix(6.123234e-17 -1 -1 -6.123234e-17 719.7473 305.3637)">
				<stop  offset="0" style="stop-color:#FFFFFF"/>
				<stop  offset="0.995" style="stop-color:#EBF3F9"/>
			</linearGradient>
			<polygon class="st12" points="348,196.3 361.1,196.3 349.2,173.4 361.1,150.6 348,150.6 336.2,173.4 			"/>
		</g>
	</g>
	<g>
		<g>
			<polygon class="st6" points="553.1,173.5 631.7,223.1 553.1,272.8 553.1,246 492.8,246 504.6,223.1 492.8,200.2 553.1,200.2 			
				"/>
			<polygon class="st6" points="484.9,246 471.9,246 483.7,223.1 471.9,200.2 484.9,200.2 496.7,223.1 			"/>
			<polygon class="st6" points="464,246 450.9,246 462.8,223.1 450.9,200.2 464,200.2 475.8,223.1 			"/>
		</g>
		<g>
			
				<linearGradient id="SVGID_8_" gradientUnits="userSpaceOnUse" x1="82.2512" y1="575.3905" x2="82.2512" y2="682.3159" gradientTransform="matrix(6.123234e-17 -1 1 6.123234e-17 -139.2428 305.3637)">
				<stop  offset="0" style="stop-color:#FFFFFF"/>
				<stop  offset="0.995" style="stop-color:#EBF3F9"/>
			</linearGradient>
			<polygon class="st13" points="553.1,173.5 553.1,272.8 553.1,246 492.8,246 504.6,223.1 492.8,200.2 553.1,200.2 			"/>
			
				<linearGradient id="SVGID_9_" gradientUnits="userSpaceOnUse" x1="82.3012" y1="602.0425" x2="82.3012" y2="658.6279" gradientTransform="matrix(6.123234e-17 -1 1 6.123234e-17 -139.2428 305.3637)">
				<stop  offset="0" style="stop-color:#FFFFFF"/>
				<stop  offset="0.995" style="stop-color:#EBF3F9"/>
			</linearGradient>
			<polygon class="st14" points="484.9,246 471.9,246 483.7,223.1 471.9,200.2 484.9,200.2 496.7,223.1 			"/>
			
				<linearGradient id="SVGID_10_" gradientUnits="userSpaceOnUse" x1="82.3012" y1="602.0425" x2="82.3012" y2="658.6279" gradientTransform="matrix(6.123234e-17 -1 1 6.123234e-17 -139.2428 305.3637)">
				<stop  offset="0" style="stop-color:#FFFFFF"/>
				<stop  offset="0.995" style="stop-color:#EBF3F9"/>
			</linearGradient>
			<polygon class="st15" points="464,246 450.9,246 462.8,223.1 450.9,200.2 464,200.2 475.8,223.1 			"/>
		</g>
	</g>
	<g>
		<g>
			<polygon class="st6" points="523.1,64.1 601.7,113.7 523.1,163.4 523.1,136.6 462.8,136.6 474.6,113.7 462.8,90.9 523.1,90.9 			
				"/>
			<polygon class="st6" points="454.9,136.6 441.9,136.6 453.7,113.7 441.9,90.9 454.9,90.9 466.7,113.7 			"/>
			<polygon class="st6" points="434,136.6 420.9,136.6 432.8,113.7 420.9,90.9 434,90.9 445.8,113.7 			"/>
		</g>
		<g>
			
				<linearGradient id="SVGID_11_" gradientUnits="userSpaceOnUse" x1="191.6512" y1="545.3905" x2="191.6512" y2="652.3159" gradientTransform="matrix(6.123234e-17 -1 1 6.123234e-17 -139.2428 305.3637)">
				<stop  offset="0" style="stop-color:#FFFFFF"/>
				<stop  offset="0.995" style="stop-color:#EBF3F9"/>
			</linearGradient>
			<polygon class="st16" points="523.1,64.1 523.1,163.4 523.1,136.6 462.8,136.6 474.6,113.7 462.8,90.9 523.1,90.9 			"/>
			
				<linearGradient id="SVGID_12_" gradientUnits="userSpaceOnUse" x1="191.6512" y1="572.0425" x2="191.6512" y2="628.6279" gradientTransform="matrix(6.123234e-17 -1 1 6.123234e-17 -139.2428 305.3637)">
				<stop  offset="0" style="stop-color:#FFFFFF"/>
				<stop  offset="0.995" style="stop-color:#EBF3F9"/>
			</linearGradient>
			<polygon class="st17" points="454.9,136.6 441.9,136.6 453.7,113.7 441.9,90.9 454.9,90.9 466.7,113.7 			"/>
			
				<linearGradient id="SVGID_13_" gradientUnits="userSpaceOnUse" x1="191.6512" y1="572.0425" x2="191.6512" y2="628.6279" gradientTransform="matrix(6.123234e-17 -1 1 6.123234e-17 -139.2428 305.3637)">
				<stop  offset="0" style="stop-color:#FFFFFF"/>
				<stop  offset="0.995" style="stop-color:#EBF3F9"/>
			</linearGradient>
			<polygon class="st18" points="434,136.6 420.9,136.6 432.8,113.7 420.9,90.9 434,90.9 445.8,113.7 			"/>
		</g>
	</g>
</g>
<g id="装饰">
	<path class="st19" d="M552,476.1l8.7-6v40l-8.7,6V476.1z M572,502.3l8.7-5.9v-40.2l-8.7,6V502.3z M592,488.6l8.7-5.9v-40.4l-8.7,6
		V488.6z M612,474.9l8.7-5.9v-40.6l-8.7,6V474.9z M632,461.2l8.7-5.9v-40.8l-8.7,6V461.2z M652,447.5l8.7-5.9v-41l-8.7,6V447.5z
		 M672,433.8l8.7-5.9v-41.2l-8.7,6V433.8z M692,420.1l8.7-5.9v-41.4l-8.7,6V420.1z M712,406.3l8.7-5.9v-41.6l-8.7,6V406.3z
		 M732,350.9v41.7l8.7-5.9v-41.8L732,350.9z"/>
</g>
<linearGradient id="高光_1_" gradientUnits="userSpaceOnUse" x1="64.9" y1="812.3838" x2="64.9" y2="660.1118" gradientTransform="matrix(1 0 0 1 0 -426)">
	<stop  offset="0" style="stop-color:#FFFFFF;stop-opacity:0"/>
	<stop  offset="1" style="stop-color:#FFFFFF;stop-opacity:0.5"/>
</linearGradient>
<polygon id="高光_2_" class="st20" points="83.3,401.8 46.6,401.8 46.5,225.8 83.3,247.3 "/>
</svg>
