<?xml version="1.0" encoding="utf-8"?>
<!-- Generator: Adobe Illustrator 21.0.0, SVG Export Plug-In . SVG Version: 6.00 Build 0)  -->
<svg version="1.1" id="图层_1" xmlns="http://www.w3.org/2000/svg" xmlns:xlink="http://www.w3.org/1999/xlink" x="0px" y="0px"
	 viewBox="0 0 832 760" style="enable-background:new 0 0 832 760;" xml:space="preserve">
<style type="text/css">
	.st0{fill:#384951;}
	.st1{fill:url(#SVGID_1_);}
	.st2{fill:url(#SVGID_2_);}
	.st3{fill:url(#SVGID_3_);}
	.st4{fill:#264351;}
	.st5{fill:#FFFFFF;}
	.st6{opacity:0.17;fill:#FFFFFF;enable-background:new    ;}
	.st7{opacity:0.68;fill:#384951;enable-background:new    ;}
	.st8{fill:url(#SVGID_4_);}
	.st9{opacity:0.86;fill:#FFFFFF;enable-background:new    ;}
	.st10{fill:url(#SVGID_5_);}
	.st11{opacity:0.83;fill:#FFFFFF;enable-background:new    ;}
	.st12{fill:url(#SVGID_6_);}
	.st13{opacity:0.4;fill:#3C6D22;enable-background:new    ;}
	.st14{opacity:0.32;fill:#4995C4;enable-background:new    ;}
	.st15{opacity:0.26;fill:#FFFFFF;enable-background:new    ;}
</style>
<g>
	<path class="st0" d="M709.3,745.5H123.2c-22.3,0-40.4-18.1-40.4-40.4v-64.5c0-22.3,18.1-40.4,40.4-40.4h586.1
		c22.3,0,40.4,18.1,40.4,40.4v64.5C749.7,727.4,731.6,745.5,709.3,745.5z"/>
	
		<linearGradient id="SVGID_1_" gradientUnits="userSpaceOnUse" x1="416.1809" y1="-91.2241" x2="416.1809" y2="589.6761" gradientTransform="matrix(1 0 0 1 0 104)">
		<stop  offset="0" style="stop-color:#D7DDE6"/>
		<stop  offset="0.995" style="stop-color:#7E8EA0"/>
	</linearGradient>
	<path class="st1" d="M775.3,693.7H57.1c-22,0-39.8-17.8-39.8-39.8V52.6c0-22,17.8-39.8,39.8-39.8h718.2c22,0,39.8,17.8,39.8,39.8
		v601.3C815.1,675.8,797.3,693.7,775.3,693.7z"/>
	
		<radialGradient id="SVGID_2_" cx="416.1811" cy="224.876" r="299.0918" gradientTransform="matrix(1 0 0 1 0 104)" gradientUnits="userSpaceOnUse">
		<stop  offset="0.2797" style="stop-color:#384951"/>
		<stop  offset="1" style="stop-color:#ADB8C5"/>
	</radialGradient>
	<path class="st2" d="M709.8,589.2H122.6c-22,0-39.8-17.8-39.8-39.8v-441c0-22,17.8-39.8,39.8-39.8h587.2c22,0,39.8,17.8,39.8,39.8
		v441C749.7,571.4,731.8,589.2,709.8,589.2z"/>
	<g>
		
			<linearGradient id="SVGID_3_" gradientUnits="userSpaceOnUse" x1="416.2309" y1="-7.0241" x2="416.2309" y2="456.7759" gradientTransform="matrix(1 0 0 1 0 104)">
			<stop  offset="0" style="stop-color:#3EADED"/>
			<stop  offset="1" style="stop-color:#0B528D"/>
		</linearGradient>
		<path class="st3" d="M134.4,560.8c-9,0-16.3-7.3-16.3-16.3V113.3c0-9,7.3-16.3,16.3-16.3h563.7c9,0,16.3,7.3,16.3,16.3v431.2
			c0,9-7.3,16.3-16.3,16.3H134.4z"/>
		<path class="st4" d="M698.1,101c6.8,0,12.3,5.5,12.3,12.3v431.2c0,6.8-5.5,12.3-12.3,12.3H134.4c-6.8,0-12.3-5.5-12.3-12.3V113.3
			c0-6.8,5.5-12.3,12.3-12.3H698.1 M698.1,93H134.4c-11.2,0-20.3,9.1-20.3,20.3v431.2c0,11.2,9.1,20.3,20.3,20.3h563.7
			c11.2,0,20.3-9.1,20.3-20.3V113.3C718.4,102.1,709.3,93,698.1,93L698.1,93z"/>
	</g>
	<path class="st5" d="M27.1,50l-0.2,525.3l17-523.4c0.3-9.3,8-16.8,17.3-16.8h716.2c7.6,0,16.8,6,17,13.6l7.6,495.6l2.8-507.9
		c0,0-5.6-13.1-18.8-13.6c-20.5-0.7-739.1,0-739.1,0s-11-0.6-17.2,8.9C25.9,37.5,27.1,50,27.1,50z"/>
	<path class="st6" d="M134.4,564.8h71.1c45.5-49,285.1-296,512.9-321.6V113.3c0-11.2-9.1-20.3-20.3-20.3H134.4
		c-11.2,0-20.3,9.1-20.3,20.3v431.2C114.1,555.7,123.2,564.8,134.4,564.8z"/>
	<path class="st7" d="M160.4,664.3h-51.6c-14.4,0-26-11.6-26-26l0,0c0-14.4,11.6-26,26-26h51.6c14.4,0,26,11.6,26,26l0,0
		C186.5,652.7,174.8,664.3,160.4,664.3z"/>
	
		<linearGradient id="SVGID_4_" gradientUnits="userSpaceOnUse" x1="134.581" y1="516.1326" x2="134.581" y2="552.4744" gradientTransform="matrix(1 0 0 1 0 104)">
		<stop  offset="0" style="stop-color:#95FF15"/>
		<stop  offset="0.5446" style="stop-color:#83AA00"/>
	</linearGradient>
	<path class="st8" d="M156.1,656.5h-43c-10,0-18.2-8.1-18.2-18.2l0,0c0-10,8.1-18.2,18.2-18.2h43c10,0,18.2,8.1,18.2,18.2l0,0
		C174.3,648.4,166.1,656.5,156.1,656.5z"/>
	<path class="st9" d="M113.1,626.7h43c8.9,0,16.3,6.4,17.9,14.9c0.2-1.1,0.3-2.1,0.3-3.2c0-10-8.1-18.2-18.2-18.2h-43
		c-10,0-18.2,8.1-18.2,18.2c0,1.1,0.1,2.2,0.3,3.2C96.8,633.1,104.2,626.7,113.1,626.7z"/>
	<path class="st7" d="M595.7,664.3h-51.6c-14.4,0-26-11.6-26-26l0,0c0-14.4,11.6-26,26-26h51.6c14.4,0,26,11.6,26,26l0,0
		C621.7,652.7,610.1,664.3,595.7,664.3z"/>
	
		<linearGradient id="SVGID_5_" gradientUnits="userSpaceOnUse" x1="569.881" y1="516.1326" x2="569.881" y2="552.4744" gradientTransform="matrix(1 0 0 1 0 104)">
		<stop  offset="0" style="stop-color:#D1D8E1"/>
		<stop  offset="0.995" style="stop-color:#9CA8B7"/>
	</linearGradient>
	<path class="st10" d="M591.4,656.5h-43c-10,0-18.2-8.1-18.2-18.2l0,0c0-10,8.1-18.2,18.2-18.2h43c10,0,18.2,8.1,18.2,18.2l0,0
		C609.6,648.4,601.4,656.5,591.4,656.5z"/>
	<path class="st11" d="M548.4,626.7h43c8.9,0,16.3,6.4,17.9,14.9c0.2-1.1,0.3-2.1,0.3-3.2c0-10-8.1-18.2-18.2-18.2h-43
		c-10,0-18.2,8.1-18.2,18.2c0,1.1,0.1,2.2,0.3,3.2C532.1,633.1,539.5,626.7,548.4,626.7z"/>
	<path class="st7" d="M723.6,664.3H672c-14.4,0-26-11.6-26-26l0,0c0-14.4,11.6-26,26-26h51.6c14.4,0,26,11.6,26,26l0,0
		C749.7,652.7,738,664.3,723.6,664.3z"/>
	
		<linearGradient id="SVGID_6_" gradientUnits="userSpaceOnUse" x1="697.7809" y1="516.1326" x2="697.7809" y2="552.4744" gradientTransform="matrix(1 0 0 1 0 104)">
		<stop  offset="0" style="stop-color:#D1D8E1"/>
		<stop  offset="0.995" style="stop-color:#9CA8B7"/>
	</linearGradient>
	<path class="st12" d="M719.3,656.5h-43c-10,0-18.2-8.1-18.2-18.2l0,0c0-10,8.1-18.2,18.2-18.2h43c10,0,18.2,8.1,18.2,18.2l0,0
		C737.5,648.4,729.4,656.5,719.3,656.5z"/>
	<path class="st11" d="M676.3,626.7h43c8.9,0,16.3,6.4,17.9,14.9c0.2-1.1,0.3-2.1,0.3-3.2c0-10-8.1-18.2-18.2-18.2h-43
		c-10,0-18.2,8.1-18.2,18.2c0,1.1,0.1,2.2,0.3,3.2C660,633.1,667.4,626.7,676.3,626.7z"/>
	<path class="st13" d="M162.3,654.2h-55.7c-2.5,0-4.6-2.1-4.6-4.6l0,0c0-2.5,2.1-4.6,4.6-4.6h55.7c2.5,0,4.6,2.1,4.6,4.6l0,0
		C166.9,652.2,164.8,654.2,162.3,654.2z"/>
	<rect x="121.9" y="115.3" class="st14" width="587.5" height="12"/>
	<rect x="121.9" y="138" class="st14" width="587.5" height="12"/>
	<rect x="121.9" y="160.7" class="st14" width="587.5" height="12"/>
	<rect x="121.9" y="183.3" class="st14" width="587.5" height="12"/>
	<rect x="121.9" y="206.7" class="st14" width="587.5" height="12"/>
	<rect x="121.9" y="229.3" class="st14" width="587.5" height="12"/>
	<rect x="121.9" y="252" class="st14" width="587.5" height="12"/>
	<rect x="121.9" y="274.7" class="st14" width="587.5" height="12"/>
	<rect x="121.9" y="297" class="st14" width="587.5" height="12"/>
	<rect x="121.9" y="319.7" class="st14" width="587.5" height="12"/>
	<rect x="121.9" y="342.3" class="st14" width="587.5" height="12"/>
	<rect x="121.9" y="365" class="st14" width="587.5" height="12"/>
	<rect x="121.9" y="387.7" class="st14" width="587.5" height="12"/>
	<rect x="121.9" y="410.3" class="st14" width="587.5" height="12"/>
	<rect x="121.9" y="432.7" class="st14" width="587.5" height="12"/>
	<rect x="121.9" y="455.3" class="st14" width="587.5" height="12"/>
	<rect x="121.9" y="478" class="st14" width="587.5" height="12"/>
	<rect x="121.9" y="500.7" class="st14" width="587.5" height="12"/>
	<rect x="121.9" y="525.1" class="st14" width="587.5" height="12"/>
	<g>
		<g>
			<path class="st5" d="M214.9,480.6v-29.8l46.6-26.2l-46.8-27.5l0.1-31.1l69,43.2v29L214.9,480.6z"/>
		</g>
	</g>
	<rect x="284.9" y="455.3" class="st5" width="94" height="22"/>
	
		<ellipse transform="matrix(0.9564 -0.292 0.292 0.9564 -48.7565 85.1656)" class="st15" cx="260.9" cy="205.9" rx="107.8" ry="57.3"/>
</g>
</svg>
