<?xml version="1.0" encoding="utf-8"?>
<!-- Generator: Adobe Illustrator 21.1.0, SVG Export Plug-In . SVG Version: 6.00 Build 0)  -->
<!DOCTYPE svg PUBLIC "-//W3C//DTD SVG 1.1//EN" "http://www.w3.org/Graphics/SVG/1.1/DTD/svg11.dtd">
<svg version="1.1" id="文字" xmlns="http://www.w3.org/2000/svg" xmlns:xlink="http://www.w3.org/1999/xlink" x="0px" y="0px"
	 viewBox="0 0 802 580" style="enable-background:new 0 0 802 580;" xml:space="preserve">
<style type="text/css">
	.st0{fill:url(#背景_1_);}
	.st1{fill:#073A76;}
	.st2{fill:url(#高光_1_);}
</style>
<linearGradient id="背景_1_" gradientUnits="userSpaceOnUse" x1="115.037" y1="462.6182" x2="740.2163" y2="93.136" gradientTransform="matrix(1 0 0 -1 0 582)">
	<stop  offset="0" style="stop-color:#DFE6EE"/>
	<stop  offset="0.5" style="stop-color:#F5F7F8"/>
	<stop  offset="0.995" style="stop-color:#ABB6C3"/>
</linearGradient>
<path id="背景" class="st0" d="M730,532.5H69c-19.1,0-34.5-15.4-34.5-34.5V77c0-19,15.4-34.5,34.5-34.5h661
	c19.1,0,34.5,15.4,34.5,34.5v421C764.5,517,749.1,532.5,730,532.5z"/>
<g id="box">
	<path class="st1" d="M697,91c10.5,0,19,8.5,19,19v355c0,10.5-8.5,19-19,19H102c-10.5,0-19-8.5-19-19V110c0-10.5,8.5-19,19-19H697
		 M697,80H102c-16.6,0-30,13.4-30,30v355c0,16.6,13.4,30,30,30h595c16.6,0,30-13.4,30-30V110C727,93.4,713.6,80,697,80L697,80z"/>
</g>
<path id="text" class="st1" d="M222,394.1V202.9h-58.5v-25.6h140.9v25.6h-58.8v191.2L222,394.1L222,394.1z M391.6,343.5l22.5,3.4
	c-3.7,16.8-10.5,29.4-20.3,37.9s-22,12.8-36.4,12.8c-18.2,0-33-6.9-44.3-20.8c-11.3-13.8-16.9-33.8-16.9-60c0-27.1,5.7-47.8,17.1-62
	c11.4-14.2,25.8-21.4,43.2-21.4c16.7,0,30.6,7,41.7,21s16.7,34.3,16.7,60.8l-0.1,7.1h-96.1c0.9,17.6,5,31,12.3,39.9
	c7.3,9,16.2,13.5,26.6,13.5C373.8,375.8,385.2,365,391.6,343.5z M319.9,300.5h71.9c-1-13.6-3.9-23.8-8.7-30.5
	c-7-9.8-15.9-14.6-26.8-14.6c-9.8,0-18.1,4.1-25,12.2S320.6,286.7,319.9,300.5z M433.6,394.1l47-81.5l-43.3-75.5h27.3l19.6,36.7
	c3.7,6.8,6.7,12.7,9,17.6c3.7-6.6,7-12.3,9.9-17.1l21.7-37.3h26l-44.4,73.7l47.8,83.3h-26.8l-26.5-48.9l-6.9-13.2l-33.9,62h-26.5
	V394.1z M626.5,370.3l3,23.5c-6,1.6-11.4,2.4-16.3,2.4c-7.6,0-13.7-1.5-18.3-4.5s-7.8-7.1-9.5-12.3c-1.7-5.2-2.6-15.6-2.6-31.2
	v-90.3h-16v-20.7h16v-38.9l21.7-16v54.9h22v20.7h-22v91.8c0,8.5,0.6,13.9,1.9,16.4c1.9,3.5,5.4,5.3,10.5,5.3
	C619.4,371.3,622.6,371,626.5,370.3z"/>
<linearGradient id="高光_1_" gradientUnits="userSpaceOnUse" x1="152.5677" y1="145.1416" x2="152.5677" y2="-228.612" gradientTransform="matrix(1 0 0 1 0 292)">
	<stop  offset="0" style="stop-color:#FFFFFF;stop-opacity:0"/>
	<stop  offset="1" style="stop-color:#FFFFFF;stop-opacity:0.5"/>
</linearGradient>
<polygon id="高光_2_" class="st2" points="178.6,475 126.7,475 126.5,42.8 178.6,42.8 "/>
</svg>
