<?xml version="1.0" encoding="utf-8"?>
<!-- Generator: Adobe Illustrator 21.0.0, SVG Export Plug-In . SVG Version: 6.00 Build 0)  -->
<svg version="1.1" id="图层_1" xmlns="http://www.w3.org/2000/svg" xmlns:xlink="http://www.w3.org/1999/xlink" x="0px" y="0px"
	 viewBox="0 0 744 642" style="enable-background:new 0 0 744 642;" xml:space="preserve">
<style type="text/css">
	.st0{fill:#8694A5;}
	.st1{fill:url(#SVGID_1_);}
	.st2{fill:url(#SVGID_2_);}
	.st3{fill:url(#SVGID_3_);}
	.st4{fill:#D0A16C;}
	.st5{fill:url(#SVGID_4_);}
	.st6{fill:url(#SVGID_5_);}
	.st7{fill:#D8AC7F;}
	.st8{fill:#3A271F;}
	.st9{fill:url(#SVGID_6_);}
	.st10{opacity:0.21;fill:#FFFFFF;}
	.st11{opacity:0.4;fill:url(#SVGID_7_);}
	.st12{fill:#33A85D;}
	.st13{opacity:0.32;fill:#472C20;}
	.st14{opacity:0.21;fill:#957868;}
	.st15{opacity:0.13;fill:#FFFAF8;}
	.st16{fill:#155A7C;}
	.st17{fill:#2786C1;}
	.st18{fill:url(#SVGID_8_);}
	.st19{fill:#08485E;}
	.st20{fill:url(#SVGID_9_);}
	.st21{fill:url(#SVGID_10_);}
	.st22{fill:url(#SVGID_11_);}
	.st23{fill:url(#SVGID_12_);}
	.st24{opacity:0.4;fill:url(#SVGID_13_);}
	.st25{fill:#167CB6;}
</style>
<g>
	<path class="st0" d="M674.8,541.6c5.8-1.5,75.2-20.1,51.5-114.8c-9.9-28.2-140.6-93-205.4-82s-142.4,52-176.4,82
		c0,0-50.7,96.4,55.6,129.8C400.1,556.5,526.5,580.6,674.8,541.6z"/>
	<linearGradient id="SVGID_1_" gradientUnits="userSpaceOnUse" x1="529.9602" y1="340.5756" x2="529.9602" y2="560.9797">
		<stop  offset="0" style="stop-color:#FFFFFF"/>
		<stop  offset="1" style="stop-color:#ADB8C5"/>
	</linearGradient>
	<path class="st1" d="M672.9,538.7c5.8-1.5,75.2-20.1,51.5-114.8c-9.9-28.2-140.6-93-205.4-82c-61.3,10.4-134.2,47.7-170.6,77.1
		c-4.1,3.3-7.3,7.7-9.2,12.6c-9.3,23.5-29,94.4,59,122.1C398.2,553.6,524.7,577.7,672.9,538.7z"/>
	
		<linearGradient id="SVGID_2_" gradientUnits="userSpaceOnUse" x1="389.8943" y1="174.4781" x2="424.8867" y2="174.4781" gradientTransform="matrix(0.9897 0.1432 -0.1432 0.9897 37.8855 -10.1668)">
		<stop  offset="0.3465" style="stop-color:#EBCAA2"/>
		<stop  offset="1" style="stop-color:#D7A371"/>
	</linearGradient>
	<path class="st2" d="M433.1,220c-1.5,10.2,0.1,25.4-9.2,24.1c-9.4-1.4-26.1-18.8-24.7-29c1.5-10.2,10.3-17.3,19.6-16
		C428.2,200.5,434.6,209.9,433.1,220z"/>
	<ellipse class="st0" cx="528.4" cy="378.2" rx="61.2" ry="30.3"/>
	<linearGradient id="SVGID_3_" gradientUnits="userSpaceOnUse" x1="453.5385" y1="215.7813" x2="600.2582" y2="362.501">
		<stop  offset="0.3465" style="stop-color:#EBCAA2"/>
		<stop  offset="1" style="stop-color:#D7A371"/>
	</linearGradient>
	<path class="st3" d="M581.9,204.9c0-10-8.1-18.1-18.1-18.1H490c-10,0-18.1,8.1-18.1,18.1v161.3c0,1.9,0.3,3.8,0.9,5.5
		c-0.6,1.4-0.9,2.8-0.9,4.2c0,13.2,24.6,23.9,55,23.9c30.4,0,55-10.7,55-23.9c0-0.6-0.1-1.1-0.2-1.7c0.1-0.6,0.2-1.2,0.2-1.8V204.9z
		"/>
	<path class="st4" d="M581.5,285.5c0,0,0.4,38.9-70.6,73.9c-32.1,11.3-41.2-39-41.2-39L581.5,285.5z"/>
	
		<linearGradient id="SVGID_4_" gradientUnits="userSpaceOnUse" x1="571.1295" y1="48.2443" x2="590.5876" y2="108.6337" gradientTransform="matrix(0.9242 0.382 -0.2978 0.7204 98.8804 -44.1157)">
		<stop  offset="0.3465" style="stop-color:#EBCAA2"/>
		<stop  offset="1" style="stop-color:#D7A371"/>
	</linearGradient>
	<path class="st5" d="M633.6,241.6c-5.1,12.3-25.6,20-36.8,15.4c-11.1-4.6-8.7-19.7-3.6-32c5.1-12.3,18.3-18.6,29.4-14
		S638.7,229.3,633.6,241.6z"/>
	<linearGradient id="SVGID_5_" gradientUnits="userSpaceOnUse" x1="424.8971" y1="143.0879" x2="579.3948" y2="297.5857">
		<stop  offset="0.3465" style="stop-color:#EBCAA2"/>
		<stop  offset="1" style="stop-color:#D7A371"/>
	</linearGradient>
	<path class="st6" d="M407.7,163.1c0,0-1.1,57.3,20.9,111.5c11.3,27.8,33.8,53.4,54.9,73c39.3,36.5,125.2-80.7,132.9-132.4
		c7.7-51.6-130.7-132.9-130.7-132.9L407.7,163.1z"/>
	<path class="st7" d="M607.2,244.2c0,0,14.1,0,15-5.5s6.2-12.2,6.2-12.2s-1.7-11.1-11.6-7C606.8,223.6,607.2,244.2,607.2,244.2z"/>
	<path class="st8" d="M420.9,225.1l7.4-63.2c0,0,49.2-39,50.3-48.9c1-9.9,46.6,46.7,74.4,46.7s41.4,36.8,41.4,36.8
		s1.1,31.3,8.4,36.8c7.3,5.5,68.1-23.2,20.9-121.4c-36.7-72.4-111.6-45-111.6-45S391,39.5,406.2,197.7
		C406.2,197.7,408,219.9,420.9,225.1z"/>
	<linearGradient id="SVGID_6_" gradientUnits="userSpaceOnUse" x1="435.6877" y1="74.6993" x2="604.9575" y2="243.9691">
		<stop  offset="0.3465" style="stop-color:#60504B"/>
		<stop  offset="1" style="stop-color:#351B13"/>
	</linearGradient>
	<path class="st9" d="M420.9,225.1l2.7-68.1c0,0,51.6-39,52.7-48.9s48.9,46.7,78,46.7c29.1,0,43.4,36.8,43.4,36.8
		s-2.7,36.2,4.9,41.7c7.7,5.5,75.2-28.1,25.8-126.4c-38.4-72.4-117-45-117-45S384.6,34.5,400.5,192.7
		C400.5,192.7,407.4,219.9,420.9,225.1z"/>
	<path class="st10" d="M455.8,150.6v79.1c0,0-1.4,30.1-6.3,32.9c-4.9,2.8,9.8,15.4,9.8,15.4l3.5,39.2c0,0-29.4-19.6-31.5-91.8
		C429.2,153.4,455.8,150.6,455.8,150.6z"/>
	<linearGradient id="SVGID_7_" gradientUnits="userSpaceOnUse" x1="523.0399" y1="560.9797" x2="523.0399" y2="408.519">
		<stop  offset="0" style="stop-color:#FFFFFF;stop-opacity:0"/>
		<stop  offset="0.8663" style="stop-color:#E8EBEE"/>
	</linearGradient>
	<path class="st11" d="M702.5,450.8c-9.9-44.5-81.6-44.5-80.3-40.8c1.2,3.7-47,34.6-149.5,16.7c-102.6-17.9-117.4,64.8-117.4,64.8
		s-12.2,0.3-22.1,3.8c6,22.7,23.6,45.2,65,58.2c0,0,126.4,24.1,274.7-14.9c3.1-0.8,24.4-6.5,39.9-26.1
		C711.7,500.9,708.9,479.4,702.5,450.8z"/>
	<path class="st12" d="M380.5,541.7c1.9-15.4,6.2-49.5,6.2-49.5l4.5,58.9l-4.3-0.8C382.8,549.6,380,545.8,380.5,541.7z"/>
	<path class="st0" d="M671.3,536.4c0-1.2,7-56.8,7-56.8l4,52.3c0.3,3.3-2.7,6-6,5.4L671.3,536.4z"/>
	<path class="st13" d="M520.4,61.9c0,0,0.6-0.1,1.7-0.3c10-1.6,61.6-8.1,89.1,28.3c30.5,40.4,27.4,49.2,27.4,49.2
		s-24.9-56.8-57-67.5S520.4,61.9,520.4,61.9z"/>
	<path class="st14" d="M489.2,107.9c0,0,46.4,37.1,59.9,34.3c13.5-2.7,67.3,6,54.1,84.3c0,0,12.6-78.9-54.1-78.6
		C526.9,147.9,489.2,107.9,489.2,107.9z"/>
	<path class="st15" d="M407.7,126.8c0,0,6.1-48.6,55.2-58.5C462.8,68.3,435.4,79,407.7,126.8z"/>
	<g>
		<path class="st16" d="M431.3,600c7-1.8,91.2-24.4,62.5-139.3c0-0.1,0-0.1-0.1-0.2c-12.2-34.3-170.7-112.8-249.3-99.5
			C166,374.4,72,423.7,30.7,460.1c-0.1,0.1-0.8,1.2-0.9,1.4c-2.9,5.8-57.6,117.1,68,156.6c0.1,0,0.1,0,0.2,0
			C101.8,618.9,253.7,646.8,431.3,600z"/>
		<path class="st17" d="M429.1,596.5c7-1.8,91.2-24.4,62.5-139.3c0-0.1,0-0.1-0.1-0.2c-12.2-34.3-170.7-112.8-249.3-99.5
			c-68,11.5-147.6,50.3-194.6,84.1c-14.7,10.6-25.3,25.9-29.8,43.5C8.3,522.3,6.7,586.6,95.6,614.6c0,0,0.1,0,0.1,0
			C99.4,615.3,251.3,643.3,429.1,596.5z"/>
		
			<linearGradient id="SVGID_8_" gradientUnits="userSpaceOnUse" x1="89.012" y1="207.2176" x2="131.4857" y2="207.2176" gradientTransform="matrix(0.9897 0.1432 -0.1432 0.9897 37.8855 -10.1668)">
			<stop  offset="0.3465" style="stop-color:#EBCAA2"/>
			<stop  offset="1" style="stop-color:#D7A371"/>
		</linearGradient>
		<path class="st18" d="M138,209.7c-1.8,12.4,0.2,30.8-11.2,29.2c-11.4-1.6-31.7-22.8-29.9-35.2s12.5-21.1,23.8-19.4
			C132,186,139.8,197.3,138,209.7z"/>
		<ellipse class="st19" cx="253.7" cy="401.7" rx="74.3" ry="36.8"/>
		<linearGradient id="SVGID_9_" gradientUnits="userSpaceOnUse" x1="162.9765" y1="205.1429" x2="340.6665" y2="382.8329">
			<stop  offset="0.3465" style="stop-color:#EBCAA2"/>
			<stop  offset="1" style="stop-color:#D7A371"/>
		</linearGradient>
		<path class="st20" d="M318.6,192.7c0-12.9-10.4-23.3-23.3-23.3h-86.9c-12.9,0-23.3,10.4-23.3,23.3v194.4c0,2.2,0.3,4.3,0.9,6.3
			c0.1,0.3,0.1,0.6,0,0.9c-0.6,1.5-0.9,3.1-0.9,4.7c0,16,29.9,29,66.7,29s66.7-13,66.7-29c0-0.6-0.1-1.3-0.2-1.9c0-0.1,0-0.2,0-0.4
			c0.1-0.7,0.2-1.3,0.2-2V192.7z"/>
		<path class="st4" d="M318,291.2c-1,9.5-9.9,50.3-85.4,87.6c-0.1,0-0.1,0.1-0.2,0.1c-35.6,12.4-47.9-37.6-49.7-46.2
			c-0.1-0.7,0.3-1.4,0.9-1.6l132.6-41.4C317.1,289.5,318.1,290.3,318,291.2z"/>
		
			<linearGradient id="SVGID_10_" gradientUnits="userSpaceOnUse" x1="328.9327" y1="159.0082" x2="352.551" y2="232.3089" gradientTransform="matrix(0.9242 0.382 -0.2978 0.7204 98.8804 -44.1157)">
			<stop  offset="0.3465" style="stop-color:#EBCAA2"/>
			<stop  offset="1" style="stop-color:#D7A371"/>
		</linearGradient>
		<path class="st21" d="M381.4,235.9c-6.2,15-31.1,24.2-44.6,18.7c-13.5-5.6-10.5-23.9-4.3-38.9s22.2-22.6,35.7-17
			C381.6,204.3,387.6,220.9,381.4,235.9z"/>
		<linearGradient id="SVGID_11_" gradientUnits="userSpaceOnUse" x1="128.0255" y1="116.3236" x2="315.5416" y2="303.8398">
			<stop  offset="0.3465" style="stop-color:#EBCAA2"/>
			<stop  offset="1" style="stop-color:#D7A371"/>
		</linearGradient>
		<path class="st22" d="M107.5,140.2c-0.2,0.3-0.4,0.6-0.4,0.9c-0.1,6.6,0,72.4,25.3,134.8c13.7,33.8,41,64.8,66.7,88.7
			c47.7,44.3,152-98,161.3-160.7C369.4,143.9,216,51,202.7,43.1c-0.5-0.3-1.2-0.2-1.7,0.2L107.5,140.2z"/>
		<path class="st7" d="M349.3,237.6c0,0.8,0.6,1.4,1.4,1.4c4.1-0.2,15.9-1.1,16.7-6.6c0.9-5.7,5.7-12.5,7.1-14.4
			c0.2-0.3,0.3-0.7,0.2-1.1c-0.6-2.6-3.5-12.2-14-7.9C350.5,213.3,349.4,232.3,349.3,237.6z"/>
		<path class="st8" d="M123.3,214l8.7-74.2c0-0.4,0.2-0.7,0.5-0.9c5.4-4.3,59.4-47.6,60.6-59c1.3-12,56.6,56.7,90.3,56.7
			c32.4,0,48.9,41.2,50.1,44.5c0.1,0.1,0.1,0.3,0.1,0.4c0.1,3.1,1.7,38.1,10.2,44.5c8.9,6.7,82.6-28.1,25.4-147.4
			C326.3-6.3,240.2,21.6,234.1,23.8c-0.2,0.1-0.5,0.1-0.7,0c-8-1.7-146-27.7-128.1,158.7c0,0,2,24.9,16,32.5
			C122.2,215.5,123.2,214.9,123.3,214z"/>
		<linearGradient id="SVGID_12_" gradientUnits="userSpaceOnUse" x1="141.11" y1="33.3007" x2="346.5694" y2="238.7601">
			<stop  offset="0.3465" style="stop-color:#60504B"/>
			<stop  offset="1" style="stop-color:#351B13"/>
		</linearGradient>
		<path class="st23" d="M123.2,213.9l3.2-80c0-0.4,0.2-0.8,0.5-1c5.9-4.5,62.2-47.6,63.5-59c1.3-12,59.3,56.7,94.7,56.7
			c33.6,0,51,40.5,52.5,44.4c0.1,0.2,0.1,0.4,0.1,0.6c-0.3,3.9-2.9,44,6,50.4c9.3,6.7,91.3-34.1,31.3-153.4
			C330-12.4,239.6,15.7,233.4,17.8c-0.2,0.1-0.4,0.1-0.7,0c-8-1.6-153.1-28-134.3,158.6c0,0.1,0,0.1,0,0.2
			c0.5,1.9,8.2,30.6,22.8,38.4C122.1,215.5,123.1,214.8,123.2,213.9z"/>
		<path class="st10" d="M163.8,125.8c0.9-0.3,1.8,0.4,1.8,1.3v94.3c0,0-1.7,36.6-7.7,40c-5.4,3.1,8.9,16.1,11.5,18.4
			c0.3,0.2,0.4,0.5,0.5,0.9l3.9,43.9c0.1,1.2-1.3,2-2.3,1.1c-8.2-7.4-33.6-36-35.7-109.3C133.6,141.3,157.1,128.1,163.8,125.8z"/>
		<linearGradient id="SVGID_13_" gradientUnits="userSpaceOnUse" x1="247.2586" y1="623.547" x2="247.2586" y2="438.4904">
			<stop  offset="0" style="stop-color:#FFFFFF;stop-opacity:0"/>
			<stop  offset="0.8663" style="stop-color:#2786C1"/>
		</linearGradient>
		<path class="st24" d="M465,489.8c-12-54-99-54-97.5-49.5c1.5,4.5-57,42-181.5,20.3C69,440.2,46.1,527.8,43.8,538.3
			c-0.1,0.6-0.6,1-1.3,1.1c-3.4,0.2-14.7,0.9-24.6,4.2c-0.7,0.2-1.1,1-0.9,1.7c7.6,27.1,29.1,53.9,78.5,69.4c0.1,0,0.1,0,0.2,0
			c3.9,0.7,155.7,28.7,333.4-18.1c3.7-1,29.3-7.8,48.1-31.3c0.2-0.3,0.3-0.6,0.3-1C476,549.9,472.7,524.1,465,489.8z"/>
		<path class="st25" d="M74.3,598.8c1.5-12.1,4-32.2,5.6-45.5c0.2-1.6,2.6-1.6,2.7,0.1l4.3,56.4c0.1,0.9-0.7,1.6-1.6,1.4l-2.2-0.4
			C77.5,609.8,73.6,604.5,74.3,598.8z"/>
		<path class="st19" d="M427.2,592.4c0.7-6.6,4.5-36.6,6.7-54.4c0.2-1.6,2.6-1.6,2.7,0.1l3.7,48.3c0.4,4.9-4,8.9-8.9,8l-3.1-0.6
			C427.6,593.8,427.1,593.1,427.2,592.4z"/>
		<path class="st13" d="M243.9,17.7c0,0,0.7-0.1,2-0.4c12.1-2,74.8-9.8,108.1,34.4c16.5,21.9,24.9,36.1,29.2,45.2
			c0.7,1.6-1.6,2.8-2.4,1.2c-10.9-20.7-34.5-59.2-62.7-68.6C279.2,16.5,243.9,17.7,243.9,17.7z"/>
		<path class="st14" d="M222,88.9c-1.3-1.1,0.3-3.1,1.7-2.1c18,13,44.7,30.5,55.1,28.4c16.3-3.3,81.7,7.3,65.7,102.3
			c0,0,15.3-95.7-65.7-95.4C261.9,122.2,237.7,103.2,222,88.9z"/>
		<path class="st15" d="M108.8,88.5c4.1-15.2,17-47.9,54.7-60.2c1.5-0.5,2.5,1.6,1.2,2.4c-11.5,7.5-32.1,24.4-53.4,58.8
			C110.4,90.9,108.4,90.1,108.8,88.5z"/>
	</g>
</g>
</svg>
