<?xml version="1.0" encoding="utf-8"?>
<!-- Generator: Adobe Illustrator 21.0.0, SVG Export Plug-In . SVG Version: 6.00 Build 0)  -->
<svg version="1.1" id="图层_1" xmlns="http://www.w3.org/2000/svg" xmlns:xlink="http://www.w3.org/1999/xlink" x="0px" y="0px"
	 viewBox="0 0 812 748" style="enable-background:new 0 0 812 748;" xml:space="preserve">
<style type="text/css">
	.st0{fill:#90908E;}
	.st1{fill:url(#SVGID_1_);}
	.st2{opacity:0.26;fill:#FFFFFF;enable-background:new    ;}
	.st3{fill:url(#SVGID_2_);}
	.st4{fill:url(#SVGID_3_);}
	.st5{fill:url(#SVGID_4_);}
	.st6{fill:url(#SVGID_5_);}
	.st7{fill:#264351;}
	.st8{fill:#FFFFFF;}
	.st9{opacity:0.17;fill:#FFFFFF;enable-background:new    ;}
	.st10{opacity:0.68;fill:#384951;enable-background:new    ;}
	.st11{fill:url(#SVGID_6_);}
	.st12{opacity:0.83;fill:#FFFFFF;enable-background:new    ;}
	.st13{fill:url(#SVGID_7_);}
	.st14{fill:url(#SVGID_8_);}
	.st15{fill:url(#SVGID_9_);}
	.st16{fill:#D99C70;}
	.st17{fill:#0E3331;}
	.st18{fill:#F4F4F4;}
	.st19{opacity:0.14;fill:#FFFFFF;enable-background:new    ;}
	.st20{fill:url(#SVGID_10_);}
	.st21{fill:url(#SVGID_11_);}
	.st22{fill:url(#SVGID_12_);}
	.st23{fill:#5F6266;}
	.st24{fill:url(#SVGID_13_);}
	.st25{opacity:0.44;fill:#FFFFFF;enable-background:new    ;}
	.st26{opacity:0.6;fill:#FFFFFF;enable-background:new    ;}
	.st27{opacity:0.63;fill:#2D3035;enable-background:new    ;}
	.st28{fill:url(#SVGID_14_);}
	.st29{fill:#1C2021;stroke:url(#SVGID_15_);stroke-width:9;stroke-miterlimit:10;}
	.st30{fill:url(#SVGID_16_);stroke:url(#SVGID_17_);stroke-width:9;stroke-miterlimit:10;}
	.st31{fill:url(#SVGID_18_);stroke:url(#SVGID_19_);stroke-width:4;stroke-miterlimit:10;}
	.st32{fill:url(#SVGID_20_);}
	.st33{fill:#8693A3;}
	.st34{fill:#FDFFFF;}
	.st35{fill:url(#SVGID_21_);}
</style>
<g>
	<rect x="177.4" y="663.4" class="st0" width="402.9" height="5"/>
	
		<linearGradient id="SVGID_1_" gradientUnits="userSpaceOnUse" x1="177.2245" y1="511.2704" x2="580.7917" y2="511.2704" gradientTransform="matrix(1 0 0 1 0 104)">
		<stop  offset="0" style="stop-color:#D1D8E1"/>
		<stop  offset="0.995" style="stop-color:#4F5C62"/>
	</linearGradient>
	<path class="st1" d="M210.9,568.6c0,0-41.3,28-32.4,97.3h402.3c0,0,1.5-88.4-30.9-97.3C517.4,559.8,210.9,568.6,210.9,568.6z"/>
	<path class="st2" d="M177.5,656.1c0,0.2,0,0.4,0,0.6l4.8,3.9l100.4-93.4l-5.4-0.2c-8,0.2-15.5,0.4-22.4,0.5L177.5,656.1z"/>
	
		<linearGradient id="SVGID_2_" gradientUnits="userSpaceOnUse" x1="370.231" y1="410.2759" x2="370.231" y2="494.6761" gradientTransform="matrix(1 0 0 1 0 104)">
		<stop  offset="0" style="stop-color:#D1D8E1"/>
		<stop  offset="0.995" style="stop-color:#4F5C62"/>
	</linearGradient>
	<polygon class="st3" points="231.6,514.3 278.1,598.7 459.5,598.7 508.9,514.3 	"/>
	
		<linearGradient id="SVGID_3_" gradientUnits="userSpaceOnUse" x1="368.7809" y1="-86.624" x2="368.7809" y2="435.1761" gradientTransform="matrix(1 0 0 1 0 104)">
		<stop  offset="0" style="stop-color:#D7DDE6"/>
		<stop  offset="0.995" style="stop-color:#7E8EA0"/>
	</linearGradient>
	<path class="st4" d="M682.2,539.2H55.4c-22,0-39.8-17.8-39.8-39.8V57.2c0-22,17.8-39.8,39.8-39.8h626.8c22,0,39.8,17.8,39.8,39.8
		v442.2C722,521.4,704.2,539.2,682.2,539.2z"/>
	
		<radialGradient id="SVGID_4_" cx="368.7809" cy="446.4254" r="290.8368" gradientTransform="matrix(1 0 0 0.9154 0 -134.9818)" gradientUnits="userSpaceOnUse">
		<stop  offset="0.2797" style="stop-color:#384951"/>
		<stop  offset="1" style="stop-color:#ADB8C5"/>
	</radialGradient>
	<path class="st5" d="M653.2,505.4H84.4c-22,0-39.8-17.8-39.8-39.8V81.8c0-22,17.8-39.8,39.8-39.8h568.8c22,0,39.8,17.8,39.8,39.8
		v383.8C693,487.6,675.2,505.4,653.2,505.4z"/>
	<g>
		
			<linearGradient id="SVGID_5_" gradientUnits="userSpaceOnUse" x1="369.0809" y1="-47.1242" x2="369.0809" y2="385.9759" gradientTransform="matrix(1 0 0 1 0 104)">
			<stop  offset="0" style="stop-color:#3EADED"/>
			<stop  offset="1" style="stop-color:#0B528D"/>
		</linearGradient>
		<path class="st6" d="M80.8,490c-9,0-16.3-7.3-16.3-16.3V73.2c0-9,7.3-16.3,16.3-16.3h576.6c9,0,16.3,7.3,16.3,16.3v400.5
			c0,9-7.3,16.3-16.3,16.3H80.8z"/>
		<path class="st7" d="M657.3,61c6.8,0,12.3,5.5,12.3,12.3v400.5c0,6.8-5.5,12.3-12.3,12.3H80.7c-6.8,0-12.3-5.5-12.3-12.3V73.3
			c0-6.8,5.5-12.3,12.3-12.3H657.3 M657.3,53H80.7c-11.2,0-20.3,9.1-20.3,20.3v400.5c0,11.2,9.1,20.3,20.3,20.3h576.6
			c11.2,0,20.3-9.1,20.3-20.3V73.3C677.6,62.1,668.5,53,657.3,53L657.3,53z"/>
	</g>
	<path class="st8" d="M24.2,50.4L24,515.6L39,52.2c0.3-8.3,7-14.8,15.3-14.8h634.1c6.7,0,14.8,5.3,15,12l6.7,438.8l2.4-449.7
		c0,0-4.9-11.6-16.6-12c-18.2-0.6-654.4,0-654.4,0s-9.8-0.6-15.3,7.9C23.2,39.3,24.2,50.4,24.2,50.4z"/>
	<path class="st9" d="M81,494.2h72.6c46.5-45.8,291.2-276.7,523.8-300.7V72.1c0-10.5-9.3-19-20.7-19H81c-11.4,0-20.7,8.5-20.7,19
		v403.1C60.2,485.7,69.5,494.2,81,494.2z"/>
	<g>
		<path class="st10" d="M384.8,539.7h-32.1c-11.9,0-21.6-9.7-21.6-21.6v-1.5c0-11.9,9.7-21.6,21.6-21.6h32.1
			c11.9,0,21.6,9.7,21.6,21.6v1.5C406.5,530,396.8,539.7,384.8,539.7z"/>
		
			<linearGradient id="SVGID_6_" gradientUnits="userSpaceOnUse" x1="370.231" y1="398.034" x2="370.231" y2="427.9995" gradientTransform="matrix(1 0 0 1 0 104)">
			<stop  offset="0" style="stop-color:#D1D8E1"/>
			<stop  offset="0.995" style="stop-color:#9CA8B7"/>
		</linearGradient>
		<path class="st11" d="M388.5,532H352c-8,0-14.5-6.5-14.5-14.5v-1c0-8,6.5-14.5,14.5-14.5h36.5c8,0,14.5,6.5,14.5,14.5v1
			C402.9,525.5,396.4,532,388.5,532z"/>
		<path class="st12" d="M352.5,507.4h35.4c7.4,0,13.5,5.3,14.7,12.3c0.2-0.9,0.3-1.8,0.3-2.7c0-8.3-6.7-15-15-15h-35.4
			c-8.3,0-15,6.7-15,15c0,0.9,0.1,1.8,0.3,2.7C339,512.7,345.1,507.4,352.5,507.4z"/>
	</g>
	<path class="st2" d="M245.8,567.7c-7,0.2-13.2,0.3-18.3,0.5c-10.2,7.5-28.2,22.1-44.6,41.9c-2.4,7.4-4.3,15.8-5.2,25.3
		C189.1,620.9,222,580.4,245.8,567.7z"/>
	
		<linearGradient id="SVGID_7_" gradientUnits="userSpaceOnUse" x1="177.2139" y1="549.2761" x2="580.7935" y2="549.2761" gradientTransform="matrix(1 0 0 1 0 104)">
		<stop  offset="0" style="stop-color:#DEE3EA"/>
		<stop  offset="0.995" style="stop-color:#7E8EA0"/>
	</linearGradient>
	<path class="st13" d="M178.5,665.9h402.3c0,0,0.2-10.8-1-25.2H177.4C177,648.4,177.3,656.8,178.5,665.9z"/>
	
		<linearGradient id="SVGID_8_" gradientUnits="userSpaceOnUse" x1="177.381" y1="539.376" x2="580.2809" y2="539.376" gradientTransform="matrix(1 0 0 1 0 104)">
		<stop  offset="0.3119" style="stop-color:#FFFFFF"/>
		<stop  offset="0.995" style="stop-color:#768188"/>
	</linearGradient>
	<rect x="177.4" y="640.9" class="st14" width="402.9" height="5"/>
	<g>
		
			<linearGradient id="SVGID_9_" gradientUnits="userSpaceOnUse" x1="329.2308" y1="169.0597" x2="152.481" y2="169.0597" gradientTransform="matrix(1 0 0 1 0 104)">
			<stop  offset="0" style="stop-color:#EFC8A9"/>
			<stop  offset="0.995" style="stop-color:#FFAC6A"/>
		</linearGradient>
		<path class="st15" d="M255.7,342.7c0,0,51.9,11.2,57.3-14.2c0.7-4.4-1.3-6.6-1.4-7.9c-0.2-3.2,6.5-2,5.8-6.8s0.7-5.9-1.5-8.1
			c-1.5-1.5-0.2-2.8,0.7-3.4c0.5-0.3,0.8-0.8,0.7-1.4c-0.1-2.9-0.8-10-5-11.3c0-1.2,16.3-3.3,16.9-9.1c0.7-5.8-6-22.9-18.7-32.2
			c0,0,12.4-8.7,7-23.8s-4.1-27.2-4.1-27.2s-12.5-33.9-21-35.1c-8.5-1.2-53.5-11.6-77,0C164.8,187.1,164.9,305,164.9,305l-12.4,30.4
			c0,0,28.3,46,82.3,54L255.7,342.7z"/>
		<path class="st16" d="M329.4,280.2c0,0,1.4,5.7-22.5,9.9c-0.9,0.2,0.1-0.3,2.1-1.1c3.7-1.6,10.6-4.4,12.6-6.7
			C324.6,278.8,329.4,280.2,329.4,280.2z"/>
		<path class="st17" d="M152.8,331.4c0,0-18.6,10.6-16.8,17.3s41.6,63.3,107.1,54.5c7.2-1.3-2.5-13.1-6.3-14
			C232.9,388.3,189.2,378.5,152.8,331.4z"/>
		<path class="st18" d="M152.8,328.8c0,0-18.6,10.6-16.8,17.3c1.8,6.6,41.6,63.3,107.1,54.5c7.2-1.3-2.5-13.1-6.3-14
			C232.9,385.6,189.2,375.9,152.8,328.8z"/>
		<path class="st16" d="M310.5,334.5c-1.3,0.1-2.1,0.2-2.1,0.2s-45.2,8.7-73.6-14.3c0,0,4.8,14.5,20.8,22.5l0.1-0.3
			C255.7,342.7,298.7,351.9,310.5,334.5z"/>
		
			<ellipse transform="matrix(0.8223 -0.569 0.569 0.8223 -124.0366 235.076)" class="st16" cx="314.4" cy="316.2" rx="3.1" ry="1.7"/>
		
			<ellipse transform="matrix(0.9876 -0.1568 0.1568 0.9876 -42.9932 53.1369)" class="st19" cx="315.3" cy="299.1" rx="1.7" ry="3.1"/>
		
			<ellipse transform="matrix(0.9876 -0.1568 0.1568 0.9876 -44.7338 53.2743)" class="st19" cx="315.3" cy="310.2" rx="1.7" ry="3.1"/>
		<path class="st16" d="M317,301.2c0,0-13.3,4.3-19.9,2.5c0,0,2.6,3.8,19.9,5.2V301.2z"/>
		<path class="st16" d="M293.5,151.1c0,0,15.6,27.2-50.1,26.9c0,0-9.1,38.3-1.8,54.2c0,0-36.7-25.7-36.2-28.1
			c0.4-2.4,8.9-43.8,8.9-43.8L293.5,151.1z"/>
		
			<linearGradient id="SVGID_10_" gradientUnits="userSpaceOnUse" x1="300.281" y1="121.598" x2="123.548" y2="121.598" gradientTransform="matrix(1 0 0 1 0 104)">
			<stop  offset="0" style="stop-color:#5F6160"/>
			<stop  offset="0.995" style="stop-color:#070707"/>
		</linearGradient>
		<path class="st20" d="M217.1,260.9l24.5-28.6c0,0-15.3-44.3,0-58.1c0,0,50.8,3,58.7-22.1c0,0-67.6-40.4-144.3,0
			c-21.3,11.2-39.8,44-29.5,80s31.9,63.2,31.9,63.2l4.7,21.8l46.3-34.2c0,0-26.9-8.3-30.1-28c-3.2-19.8,20.7-18.6,20.7-18.6
			L217.1,260.9z"/>
	</g>
	<g>
		
			<linearGradient id="SVGID_11_" gradientUnits="userSpaceOnUse" x1="222.7342" y1="171.2596" x2="45.9966" y2="171.2596" gradientTransform="matrix(-1 0 0 1 637.7776 104)">
			<stop  offset="0" style="stop-color:#EFC8A9"/>
			<stop  offset="0.995" style="stop-color:#FFAC6A"/>
		</linearGradient>
		<path class="st21" d="M488.6,344.9c0,0-51.9,11.2-57.3-14.2c-0.7-4.4,1.3-6.6,1.4-7.9c0.2-3.2-6.5-2-5.8-6.8s-0.7-5.9,1.5-8.1
			c1.5-1.5,0.2-2.8-0.7-3.4c-0.5-0.3-0.8-0.8-0.7-1.4c0.1-2.9,0.8-10,5-11.3c0-1.2-16.3-3.3-16.9-9.1s6-22.9,18.7-32.2
			c0,0-12.4-8.7-7-23.8s4.1-27.2,4.1-27.2s12.5-33.9,21-35.1c8.5-1.2,53.5-11.6,77,0c50.6,24.9,50.5,142.8,50.5,142.8l12.4,30.4
			c0,0-28.3,46-82.3,54L488.6,344.9z"/>
		<path class="st16" d="M415,282.5c0,0-1.4,5.7,22.5,9.9c0.9,0.2-0.1-0.3-2.1-1.1c-3.7-1.6-10.6-4.4-12.6-6.7
			C419.8,281.1,415,282.5,415,282.5z"/>
		<path class="st17" d="M591.6,333.7c0,0,18.6,10.6,16.8,17.3c-1.8,6.6-41.6,63.3-107.1,54.5c-7.2-1.3,2.5-13.1,6.3-14
			S555.1,380.8,591.6,333.7z"/>
		<path class="st18" d="M591.6,331.1c0,0,18.6,10.6,16.8,17.3c-1.8,6.6-41.6,63.3-107.1,54.5c-7.2-1.3,2.5-13.1,6.3-14
			C511.5,387.9,555.1,378.1,591.6,331.1z"/>
		<path class="st16" d="M433.9,336.8c1.3,0.1,2.1,0.2,2.1,0.2s45.2,8.7,73.6-14.3c0,0-4.8,14.5-20.8,22.5l-0.1-0.3
			C488.6,344.9,445.7,354.2,433.9,336.8z"/>
		
			<ellipse transform="matrix(0.569 -0.8223 0.8223 0.569 -76.5578 490.7629)" class="st16" cx="429.9" cy="318.4" rx="1.7" ry="3.1"/>
		
			<ellipse transform="matrix(0.1568 -0.9876 0.9876 0.1568 64.1354 677.8134)" class="st19" cx="429" cy="301.3" rx="3.1" ry="1.7"/>
		
			<ellipse transform="matrix(0.1568 -0.9876 0.9876 0.1568 53.2096 687.2307)" class="st19" cx="429.1" cy="312.5" rx="3.1" ry="1.7"/>
		<path class="st16" d="M427.3,303.5c0,0,13.3,4.3,19.9,2.5c0,0-2.6,3.8-19.9,5.2V303.5z"/>
		<path class="st16" d="M450.9,153.4c0,0-15.6,27.2,50.1,26.9c0,0,9.1,38.3,1.8,54.2c0,0,36.7-25.7,36.2-28.1
			c-0.4-2.4-8.9-43.8-8.9-43.8L450.9,153.4z"/>
		
			<linearGradient id="SVGID_12_" gradientUnits="userSpaceOnUse" x1="193.6966" y1="123.898" x2="16.9636" y2="123.898" gradientTransform="matrix(-1 0 0 1 637.7776 104)">
			<stop  offset="0" style="stop-color:#5F6160"/>
			<stop  offset="0.995" style="stop-color:#070707"/>
		</linearGradient>
		<path class="st22" d="M527.3,263.2l-24.5-28.6c0,0,15.3-44.3,0-58.1c0,0-50.8,3-58.7-22.1c0,0,67.6-40.4,144.3,0
			c21.3,11.2,39.8,44,29.5,80S586,297.6,586,297.6l-4.7,21.8L535,285.2c0,0,26.9-8.3,30.1-28c3.2-19.8-20.7-18.6-20.7-18.6
			L527.3,263.2z"/>
	</g>
</g>
<g>
	<path class="st23" d="M538,603.5c0,0-82,18.2-34.2,79.5s153.4,66.3,221.5,37.7s81.8-113.3,53.4-143
		c-28.4-29.8-187.3-28.4-191.9-24.5C582.3,556.9,538,603.5,538,603.5z"/>
	
		<radialGradient id="SVGID_13_" cx="637.1131" cy="533.4056" r="126.0038" gradientTransform="matrix(1 0 0 1 0 104)" gradientUnits="userSpaceOnUse">
		<stop  offset="0.1262" style="stop-color:#FFFFFF"/>
		<stop  offset="0.995" style="stop-color:#C4CCD7"/>
	</radialGradient>
	<path class="st24" d="M534.4,596.6c0,0-82,18.2-34.2,79.5s153.4,66.3,221.5,37.7s81.8-113.3,53.4-143s-187.3-28.4-191.9-24.5
		C578.7,550,534.4,596.6,534.4,596.6z"/>
	<path class="st25" d="M668.8,728.1l-6.7-116.4h-25l-37.6,116.4C622.4,731.5,646.2,731.3,668.8,728.1z"/>
	<path class="st25" d="M725.4,712.1l-51.6-100.4L690,724c11.2-2.7,21.9-6.1,31.7-10.3C723,713.2,724.2,712.7,725.4,712.1z"/>
	<path class="st26" d="M504.8,610.6c0,0-55.3,33.1,24.9,92c0,0-28.7-29.6-32.5-51C493.4,630.1,504.8,610.6,504.8,610.6z"/>
	<ellipse class="st27" cx="636.6" cy="578.2" rx="125.9" ry="89.6"/>
	
		<radialGradient id="SVGID_14_" cx="634.681" cy="389.7759" r="162.5" gradientTransform="matrix(1 0 0 1 0 104)" gradientUnits="userSpaceOnUse">
		<stop  offset="0.1262" style="stop-color:#FFFFFF"/>
		<stop  offset="0.995" style="stop-color:#C4CCD7"/>
	</radialGradient>
	<circle class="st28" cx="634.7" cy="493.8" r="162.5"/>
	
		<linearGradient id="SVGID_15_" gradientUnits="userSpaceOnUse" x1="-1591.0525" y1="-710.8177" x2="-1738.4812" y2="-795.9356" gradientTransform="matrix(0.5818 -0.8134 0.8134 0.5818 2151.2239 -386.6837)">
		<stop  offset="0" style="stop-color:#FFFFFF"/>
		<stop  offset="0.245" style="stop-color:#F8F8F8"/>
		<stop  offset="0.4728" style="stop-color:#C7CFD9"/>
		<stop  offset="0.6955" style="stop-color:#909094"/>
		<stop  offset="1" style="stop-color:#DEE2E7"/>
	</linearGradient>
	
		<ellipse transform="matrix(0.9503 -0.3114 0.3114 0.9503 -136.5108 203.6857)" class="st29" cx="569.6" cy="529.3" rx="78.3" ry="87"/>
	
		<radialGradient id="SVGID_16_" cx="-233.0301" cy="177.9435" r="53.1323" gradientTransform="matrix(0.9503 -0.3114 0.3114 0.9503 732.7464 289.7627)" gradientUnits="userSpaceOnUse">
		<stop  offset="0.2079" style="stop-color:#8191A3"/>
		<stop  offset="1" style="stop-color:#000000"/>
	</radialGradient>
	
		<linearGradient id="SVGID_17_" gradientUnits="userSpaceOnUse" x1="-184.3145" y1="206.0062" x2="-281.7833" y2="149.7327" gradientTransform="matrix(0.9503 -0.3114 0.3114 0.9503 732.7464 289.7627)">
		<stop  offset="0" style="stop-color:#FFFFFF"/>
		<stop  offset="0.245" style="stop-color:#F8F8F8"/>
		<stop  offset="0.4728" style="stop-color:#C7CFD9"/>
		<stop  offset="0.6955" style="stop-color:#909094"/>
		<stop  offset="1" style="stop-color:#DEE2E7"/>
	</linearGradient>
	<path class="st30" d="M614.3,515.7c9.6,29.3-4,60.1-30.4,68.7c-26.4,8.6-55.5-8.1-65.2-37.4s4-60.1,30.4-68.7
		C575.5,469.7,604.7,486.4,614.3,515.7z"/>
	
		<radialGradient id="SVGID_18_" cx="156.7575" cy="333.8682" r="32.5645" gradientTransform="matrix(0.9875 -0.1576 0.1576 0.9875 358.8152 225.9362)" gradientUnits="userSpaceOnUse">
		<stop  offset="0" style="stop-color:#8191A3"/>
		<stop  offset="0.4307" style="stop-color:#000000"/>
	</radialGradient>
	
		<linearGradient id="SVGID_19_" gradientUnits="userSpaceOnUse" x1="185.8875" y1="350.6801" x2="127.6332" y2="317.0468" gradientTransform="matrix(0.9875 -0.1576 0.1576 0.9875 358.8152 225.9362)">
		<stop  offset="0" style="stop-color:#FFFFFF"/>
		<stop  offset="0.245" style="stop-color:#F8F8F8"/>
		<stop  offset="0.4728" style="stop-color:#C7CFD9"/>
		<stop  offset="0.6955" style="stop-color:#909094"/>
		<stop  offset="1" style="stop-color:#DEE2E7"/>
	</linearGradient>
	<path class="st31" d="M596.6,526.1c3,18.6-8.2,35.9-25,38.6c-16.8,2.7-32.8-10.3-35.7-28.9c-3-18.6,8.2-35.9,25-38.6
		S593.6,507.4,596.6,526.1z"/>
	
		<linearGradient id="SVGID_20_" gradientUnits="userSpaceOnUse" x1="-243.3126" y1="192.3812" x2="-214.0773" y2="163.1459" gradientTransform="matrix(0.9503 -0.3114 0.3114 0.9503 732.7464 289.7627)">
		<stop  offset="0" style="stop-color:#C315FF"/>
		<stop  offset="1" style="stop-color:#000000"/>
	</linearGradient>
	<path class="st32" d="M589.4,523.9c3.7,11.4-1.6,23.4-11.8,26.7c-10.3,3.4-21.6-3.2-25.4-14.6s1.6-23.4,11.8-26.7
		C574.2,506,585.7,512.5,589.4,523.9z"/>
	<path class="st33" d="M587,363.1c0,0-49.5,85.4,46.6,71.5c38.3-8.9,57.6-18.7,75.3-30.4c12.7-8.4,20.2-17.3,41.2-26.3
		C733.4,350.6,587,363.1,587,363.1z"/>
	<path class="st34" d="M561.6,530.8c0.9,5.6,4.4,9.2,0.2,9.9c-4.3,0.7-8.4-3.3-9.3-8.9c-0.9-5.6,1.8-10.7,6.1-11.4
		C562.8,519.7,560.7,525.2,561.6,530.8z"/>
	
		<linearGradient id="SVGID_21_" gradientUnits="userSpaceOnUse" x1="625.0402" y1="343.3587" x2="688.6736" y2="233.1425" gradientTransform="matrix(1 0 0 1 0 104)">
		<stop  offset="0" style="stop-color:#DEE3EA"/>
		<stop  offset="0.594" style="stop-color:#2F3A3E"/>
	</linearGradient>
	<path class="st35" d="M751.2,380.4c-29.5-30.4-70.8-49.2-116.5-49.2c-0.8,0-1.6,0-2.4,0c-31.6,9.8-62.1,32-53,81.4
		c9.7,36.6,84.6,19.6,139.4-17C730.1,388,741.8,383.3,751.2,380.4z"/>
	<path class="st8" d="M581.6,394.8c0,0-12.9,32.4,26.4,35.6c22.9,1.9,0-2.4-14.6-13.1C582.9,409.7,581.6,394.8,581.6,394.8z"/>
</g>
</svg>
