<?xml version="1.0" encoding="utf-8"?>
<!-- Generator: Adobe Illustrator 21.1.0, SVG Export Plug-In . SVG Version: 6.00 Build 0)  -->
<!DOCTYPE svg PUBLIC "-//W3C//DTD SVG 1.1//EN" "http://www.w3.org/Graphics/SVG/1.1/DTD/svg11.dtd">
<svg version="1.1" id="虚拟设备" xmlns="http://www.w3.org/2000/svg" xmlns:xlink="http://www.w3.org/1999/xlink" x="0px"
	 y="0px" viewBox="0 0 770 719.6" style="enable-background:new 0 0 770 719.6;" xml:space="preserve">
<style type="text/css">
	.st0{fill:url(#底座_1_);}
	.st1{fill:url(#底_1_);}
	.st2{fill:url(#顶_1_);}
	.st3{fill:url(#中间接_2_);}
	.st4{fill:url(#中间接-暗部_1_);}
	.st5{fill:url(#后体-顶_1_);}
	.st6{fill:url(#后体-侧_1_);}
	.st7{fill:#043977;}
	.st8{fill:url(#屏幕-前_1_);}
	.st9{fill:url(#屏幕-前-暗角反光_1_);}
	.st10{fill:url(#中-高光_1_);}
	.st11{fill:url(#SVGID_1_);}
	.st12{fill:#073A76;}
	.st13{fill:url(#高光_1_);}
	.st14{fill:url(#屏幕-顶_1_);}
	.st15{fill:url(#边光_1_);}
	.st16{fill:url(#光束_1_);}
</style>
<linearGradient id="底座_1_" gradientUnits="userSpaceOnUse" x1="-40.9264" y1="685.9833" x2="720.267" y2="504.2792" gradientTransform="matrix(1 0 0 1 0 -56)">
	<stop  offset="0" style="stop-color:#6ECAFF;stop-opacity:0.2"/>
	<stop  offset="0" style="stop-color:#349CDB;stop-opacity:0.5"/>
	<stop  offset="1" style="stop-color:#0E5793;stop-opacity:0.9"/>
</linearGradient>
<path id="底座" class="st0" d="M711.5,521c0,103.2-114.4,203.2-327.6,197.1C207.3,713,54.9,600.9,62.5,499.5
	c6.2-82.3,144.5-165.5,324-165.5S711.5,417.8,711.5,521z"/>
<g id="座">
	
		<linearGradient id="底_1_" gradientUnits="userSpaceOnUse" x1="146.1287" y1="583.1906" x2="576.1" y2="583.1906" gradientTransform="matrix(1 0 0 1 0 -56)">
		<stop  offset="0" style="stop-color:#A4A7B6"/>
		<stop  offset="0.3104" style="stop-color:#C6C8D5"/>
		<stop  offset="0.4393" style="stop-color:#CED3DD"/>
		<stop  offset="0.5632" style="stop-color:#DDE4EC"/>
		<stop  offset="0.5893" style="stop-color:#DFE6EE"/>
		<stop  offset="0.7821" style="stop-color:#7E8EA0"/>
	</linearGradient>
	<path id="底" class="st1" d="M576.1,498.5l-6.6-0.2C545.8,444.7,461.4,405,360.9,405c-98.1,0-177.6,37.5-204.7,81.2l-9.9-0.3v18.7
		c-4.9,67.1,96,141.2,212.9,144.6C500.3,653.3,576,587.1,576,518.7c0-1.5-0.1-3-0.2-4.5L576.1,498.5z"/>
	
		<linearGradient id="顶_1_" gradientUnits="userSpaceOnUse" x1="77.9703" y1="626.6802" x2="581.881" y2="506.3919" gradientTransform="matrix(1 0 0 1 0 -56)">
		<stop  offset="0" style="stop-color:#DFE6EE"/>
		<stop  offset="0.5" style="stop-color:#F5F7F8"/>
		<stop  offset="0.995" style="stop-color:#ABB6C3"/>
	</linearGradient>
	<path id="顶" class="st2" d="M576.1,498.5c0,68.4-75.7,134.5-216.8,130.5c-116.9-3.4-217.8-77.6-212.8-144.7
		c4.1-54.5,95.7-109.5,214.5-109.5S576.1,430.1,576.1,498.5z"/>
</g>
<g id="中间接_1_">
	
		<linearGradient id="中间接_2_" gradientUnits="userSpaceOnUse" x1="209.4" y1="494.9" x2="457.4" y2="494.9" gradientTransform="matrix(1 0 0 1 0 -56)">
		<stop  offset="0" style="stop-color:#A4A7B6"/>
		<stop  offset="0.3104" style="stop-color:#C6C8D5"/>
		<stop  offset="0.4393" style="stop-color:#CED3DD"/>
		<stop  offset="0.5632" style="stop-color:#DDE4EC"/>
		<stop  offset="0.5893" style="stop-color:#DFE6EE"/>
		<stop  offset="0.7821" style="stop-color:#7E8EA0"/>
	</linearGradient>
	<path id="中间接" class="st3" d="M444.9,547.8L394.2,590c-12.3,10.3-30,11.2-43.3,2.3l-128.5-86.2c-8.1-5.4-13-14.6-13-24.3
		V279.4l248,50v191.7C457.4,531.4,452.8,541.2,444.9,547.8z"/>
	
		<linearGradient id="中间接-暗部_1_" gradientUnits="userSpaceOnUse" x1="272.2267" y1="573.6356" x2="283.8934" y2="542.9689" gradientTransform="matrix(1 0 0 1 0 -56)">
		<stop  offset="0" style="stop-color:#A4A7B6;stop-opacity:0"/>
		<stop  offset="1" style="stop-color:#7E8EA0"/>
	</linearGradient>
	<polygon id="中间接-暗部" class="st4" points="209.4,451.4 341.7,537.4 341.7,566.4 209.6,480.6 	"/>
</g>
<g id="后体">
	
		<linearGradient id="后体-顶_1_" gradientUnits="userSpaceOnUse" x1="260.5856" y1="67.3412" x2="560.8239" y2="237.2129" gradientTransform="matrix(1 0 0 1 0 -56)">
		<stop  offset="0" style="stop-color:#DFE6EE"/>
		<stop  offset="0.5" style="stop-color:#F5F7F8"/>
		<stop  offset="0.995" style="stop-color:#ABB6C3"/>
	</linearGradient>
	<polygon id="后体-顶" class="st5" points="175,60 469.5,22.5 710,131.5 535.5,301 	"/>
	
		<linearGradient id="后体-侧_1_" gradientUnits="userSpaceOnUse" x1="771.9186" y1="442.8812" x2="552.9296" y2="381.3844" gradientTransform="matrix(1 0 0 1 0 -56)">
		<stop  offset="0" style="stop-color:#DFE6EE"/>
		<stop  offset="0.995" style="stop-color:#ABB6C3"/>
	</linearGradient>
	<polygon id="后体-侧" class="st6" points="532,557.5 708.5,298.5 710,131.5 533.5,302.5 	"/>
	<g id="后体-装饰">
		<path class="st7" d="M619.4,387l8.7-5.9v-70.8l-8.7,6V387z M634.4,363.3l8.7-5.9v-71l-8.7,6V363.3z M649.4,339.6l8.7-5.9v-71.2
			l-8.7,6V339.6z M664.4,315.9l8.7-5.9v-71.4l-8.7,6V315.9z M679.4,292.1l8.7-5.9v-71.6l-8.7,6V292.1z"/>
	</g>
</g>
<g id="屏幕_1_">
	
		<linearGradient id="屏幕-前_1_" gradientUnits="userSpaceOnUse" x1="130.391" y1="393.974" x2="562.1746" y2="393.974" gradientTransform="matrix(1 0 0 1 0 -56)">
		<stop  offset="0" style="stop-color:#E7EFF5"/>
		<stop  offset="0.2574" style="stop-color:#C3C5D2"/>
		<stop  offset="0.6421" style="stop-color:#C6C8D5"/>
		<stop  offset="0.8254" style="stop-color:#CED3DD"/>
		<stop  offset="0.8651" style="stop-color:#DDE4EC"/>
		<stop  offset="0.8962" style="stop-color:#DFE6EE"/>
		<stop  offset="0.9307" style="stop-color:#98A5B5"/>
		<stop  offset="0.995" style="stop-color:#7E8EA0"/>
	</linearGradient>
	<path id="屏幕-前" class="st8" d="M556.8,639.9l-1,1c-14.6,14.1-37.3,15.6-53.6,3.4L116.8,397.1c-9.9-7.3-15.7-18.9-15.7-31.2
		V23.4L567.4,249v365.8C567.4,624.3,563.6,633.4,556.8,639.9z"/>
	
		<linearGradient id="屏幕-前-暗角反光_1_" gradientUnits="userSpaceOnUse" x1="130.391" y1="393.974" x2="562.1746" y2="393.974" gradientTransform="matrix(1 0 0 1 0 -56)">
		<stop  offset="0" style="stop-color:#C3C6D2"/>
		<stop  offset="0.1409" style="stop-color:#C3C6D2;stop-opacity:0"/>
	</linearGradient>
	<path id="屏幕-前-暗角反光" class="st9" d="M556.8,639.9l-1,1c-14.6,14.1-37.3,15.6-53.6,3.4L116.8,397.1
		c-9.9-7.3-15.7-18.9-15.7-31.2V23.4L567.4,249v365.8C567.4,624.3,563.6,633.4,556.8,639.9z"/>
	
		<linearGradient id="中-高光_1_" gradientUnits="userSpaceOnUse" x1="521.4" y1="630.4738" x2="521.4" y2="368.3423" gradientTransform="matrix(1 0 0 1 0 -56)">
		<stop  offset="0" style="stop-color:#FFFFFF;stop-opacity:0"/>
		<stop  offset="1" style="stop-color:#FFFFFF;stop-opacity:0.3"/>
	</linearGradient>
	<path id="中-高光" class="st10" d="M500.1,245l28.7,14.5v393c-9.3,0.4-18.7-2.3-26.6-8.2l-2.1-1.4L500.1,245L500.1,245z
		 M542.7,266.5l-8-4v389.3c2.7-0.5,5.4-1.3,8-2.4V266.5z"/>
	<g id="屏幕">
		
			<linearGradient id="SVGID_1_" gradientUnits="userSpaceOnUse" x1="143.2025" y1="387.75" x2="486.7358" y2="387.75" gradientTransform="matrix(1 0 0 1 0 -56)">
			<stop  offset="0" style="stop-color:#3EADED"/>
			<stop  offset="1" style="stop-color:#0B528D"/>
		</linearGradient>
		<path class="st11" d="M475.9,576.1c-2.8,0-5.6-0.8-8.1-2.4L135.9,368c-10-6.5-16-17.6-16-29.5V96.6c0-5.7,4.8-9.2,9.2-9.2
			c1.7,0,3.3,0.5,4.8,1.4L477.7,292c8.3,5.1,13.2,14,13.2,23.8v245.4C490.9,570.4,483.1,576.1,475.9,576.1z"/>
		<path class="st12" d="M129.1,88.9L129.1,88.9c1.4,0,2.8,0.4,4,1.2l0,0l0,0l343.7,203.2c7.8,4.9,12.5,13.3,12.5,22.5v245.4
			c0,8.3-7,13.4-13.4,13.4c-2.5,0-5.1-0.8-7.3-2.2l0,0l0,0L136.7,366.7c-9.6-6.3-15.3-16.8-15.3-28.3V96.6
			C121.4,91.9,125.4,88.9,129.1,88.9 M129.1,85.9c-5.6,0-10.7,4.4-10.7,10.7v241.8c0,12.4,6.3,24,16.7,30.8L467,574.9
			c2.8,1.8,5.9,2.7,8.9,2.7c8.5,0,16.4-6.8,16.4-16.4V315.8c0-10.2-5.3-19.7-14-25.1L134.7,87.5C132.9,86.4,131,85.9,129.1,85.9
			L129.1,85.9z"/>
	</g>
	
		<linearGradient id="高光_1_" gradientUnits="userSpaceOnUse" x1="149.75" y1="32.4426" x2="149.75" y2="-292.8068" gradientTransform="matrix(1 0 0 1 0 354)">
		<stop  offset="0" style="stop-color:#FFFFFF;stop-opacity:0"/>
		<stop  offset="1" style="stop-color:#FFFFFF;stop-opacity:0.5"/>
	</linearGradient>
	<polygon id="高光_2_" class="st13" points="168.1,419.4 131.4,379.4 131.4,43.3 168.1,65.8 	"/>
	
		<linearGradient id="屏幕-顶_1_" gradientUnits="userSpaceOnUse" x1="231.0796" y1="354.1698" x2="410.5228" y2="455.6969" gradientTransform="matrix(1 0 0 -1 0 550.7881)">
		<stop  offset="0" style="stop-color:#DFE6EE"/>
		<stop  offset="0.5" style="stop-color:#F5F7F8"/>
		<stop  offset="0.995" style="stop-color:#ABB6C3"/>
	</linearGradient>
	<path id="屏幕-顶" class="st14" d="M501.2,268.6l-394.1-233c-8.5-5.3-7.9-17.8,1.2-22.2l18.6-8.9c5.9-2.9,12.9-2.6,18.6,0.7
		l414.1,229.9c9.9,5.8,10.5,19.9,1.1,26.5l-8.1,5.6C537.3,277.8,517.1,278.4,501.2,268.6z"/>
</g>
<linearGradient id="边光_1_" gradientUnits="userSpaceOnUse" x1="386.7" y1="567.5844" x2="386.7" y2="91.0396" gradientTransform="matrix(1 0 0 1 0 -56)">
	<stop  offset="0" style="stop-color:#0E5792;stop-opacity:0.6"/>
	<stop  offset="0.604" style="stop-color:#65C6FF;stop-opacity:0.4"/>
	<stop  offset="1" style="stop-color:#65C6FF;stop-opacity:0"/>
</linearGradient>
<path id="边光" class="st15" d="M768.1,10H5.3l57.1,503.9c6.8,97.3,153.1,199.4,321.6,204.3c200,5.7,313-81.9,326.2-178h0.3
	L768.1,10z"/>
<linearGradient id="光束_1_" gradientUnits="userSpaceOnUse" x1="383.6107" y1="763.3245" x2="383.6107" y2="79.6106" gradientTransform="matrix(1 0 0 1 0 -56)">
	<stop  offset="0" style="stop-color:#5FDBFF"/>
	<stop  offset="1" style="stop-color:#5FDBFF;stop-opacity:0"/>
</linearGradient>
<path id="光束" class="st16" d="M277.5,701.9c-1.2-0.4-2.4-0.6-3.6-1L280,10h3.6L277.5,701.9z M130.2,626.4
	c1.3,1.1,2.5,2.1,3.8,3.1L99.5,10h-3.6L130.2,626.4z M671.3,10h-3.6l-65.5,665.8c1.3-0.6,2.5-1.3,3.8-2.1L671.3,10z M429.9,717.8
	c1.3-0.1,2.4-0.1,3.6-0.2L475.4,10h-3.6L429.9,717.8z"/>
</svg>
