<?xml version="1.0" encoding="utf-8"?>
<!-- Generator: Adobe Illustrator 21.0.0, SVG Export Plug-In . SVG Version: 6.00 Build 0)  -->
<svg version="1.1" id="图层_1" xmlns="http://www.w3.org/2000/svg" xmlns:xlink="http://www.w3.org/1999/xlink" x="0px" y="0px"
	 viewBox="0 0 774 776" style="enable-background:new 0 0 774 776;" xml:space="preserve">
<style type="text/css">
	.st0{fill:url(#body_1_);}
	.st1{fill:url(#地面_1_);}
	.st2{fill:url(#光线_1_);}
	.st3{fill:url(#SVGID_1_);}
	.st4{fill:url(#SVGID_2_);}
	.st5{fill:url(#SVGID_3_);}
	.st6{fill:url(#SVGID_4_);}
	.st7{fill:url(#SVGID_5_);}
	.st8{fill:url(#SVGID_6_);}
	.st9{fill:#FFFFFF;}
	.st10{fill:url(#SVGID_7_);}
	.st11{fill:url(#SVGID_8_);}
	.st12{fill:url(#SVGID_9_);}
	.st13{fill:url(#SVGID_10_);}
	.st14{fill:#677A82;}
	.st15{fill:url(#SVGID_11_);}
	.st16{fill:url(#SVGID_12_);}
	.st17{fill:url(#SVGID_13_);}
</style>
<g id="地球_2_">
	
		<radialGradient id="body_1_" cx="301.9766" cy="-4736.8442" r="425.73" gradientTransform="matrix(1 0 0 -1 0 -4461.0449)" gradientUnits="userSpaceOnUse">
		<stop  offset="0.1458" style="stop-color:#91D9FF"/>
		<stop  offset="0.8886" style="stop-color:#1156A3"/>
		<stop  offset="1" style="stop-color:#0A396F"/>
	</radialGradient>
	<path id="body_2_" class="st0" d="M387.3,759.1C182.6,759.1,16,592.5,16,387.8S182.5,16.1,387.3,16.1s371.3,166.8,371.3,371.5
		S592.1,759.1,387.3,759.1z"/>
	
		<radialGradient id="地面_1_" cx="272.3418" cy="-4714.2529" r="461.7917" fx="433.3618" fy="-4715.5278" gradientTransform="matrix(1 0 0 -1 0 -4461.0449)" gradientUnits="userSpaceOnUse">
		<stop  offset="0.155" style="stop-color:#F3F5F7;stop-opacity:0.8"/>
		<stop  offset="0.7377" style="stop-color:#D5D9DF;stop-opacity:0.3"/>
		<stop  offset="1" style="stop-color:#D4D8DE;stop-opacity:0"/>
	</radialGradient>
	<path id="地面_2_" class="st1" d="M202.3,681.2H202l-1.3-1.3l0,0l-0.6-1.1l-1.1,0.3v-0.2l-0.6-1.1l-0.8-0.8v-0.2l-0.5-0.6v-2.7
		l1.1-0.5v-2.8l-0.6-0.2l0.3-0.8l-1.7-2.1v-1.9l0,0v-0.3v-0.6l1.3-1.3l-0.2-1.3l1.1-0.3l1.4-1.4v-1.9l0.8-0.5h0.5l0.6-2.4l0.8-0.6
		l1.1-3.2l-0.2-0.6l0.2-0.5v-0.8l-0.6-1.4v-0.3l-0.8-3v-1.6l-0.3-0.3l1.1-0.6l-1.4-1.6l1.7-2.2l-0.2-0.2l1.9-1.6l-0.5-0.8h0.8
		l1.1-0.6l0.5,0.8l1.1-1.1h3.3v-0.2l0.2,0.2l0.3-0.5l0.6,0.6h2.2l1.6-2.2l0,0l2.4-1.1l0.5-1.7v-0.2l1.4-1.4l0.6,0.8l2.5-2.5v-1.7
		l1.4-1.4l-0.5-0.5l0.8-1.3v-0.2h0.6l1.7-2.2v-1.6l0.8-1.1v-0.2l1.3,0.8v1.9l0.6,1.1v1.3l-0.8,0.8l0.8,2.4v2.2l1.1,1.3l-0.2,0.2
		l-0.5-0.6h-3.5v4.4l-0.6,0.6l1.3,1.3l-0.5,0.6v0.6l-1.6,1.4v2.5l0.5,0.5l-0.3,0.5l-0.3,0.8l-0.5,2.1l-0.5,2.5l-1.1,1.7l-0.3,1.1
		l-0.6,1.9v1.4l-0.8,1.1l-1.4,4.7l-1.6,1.9l-0.6,2.4l-0.2,0.8l-0.6,1.7l-0.8,3.3l-0.2,0.3h-1.9v2.4l-2.1,1.3l1.3,1.3l-0.8,0.5v1.3
		l-0.5,1.3l-0.5,1.1l-0.8,0.8l-0.6,0.3l-1.1-0.2l-4.1,0.3l-0.8,1.4l-0.6,0.3h-1.4L202.3,681.2L202.3,681.2z M149,657.2
		C70.3,588.7,25.1,490.1,25.1,385.6c0-5.7,0.2-11.5,0.3-17.2l1.7,2.1l2.7,1.7l0.3-0.2l1.7,1.7l0.8-0.8l0.3,0.3l1.9,1.6h0.6l0.5,0.2
		l1.3,1.3l3.6,0.5l3.3-0.3l1.3,0.3h2.5l1.7,1.1l2.5,0.3l0.3,0.6v1.3l1.7,4l2.5,1.7h3.2l0.2-0.2l0.8,0.2l3.6,1.3l2.1,0.8l1.3,0.8
		l2.1,1.9l3.3,1.6l2.1-0.8l2.1-1.6l2.1-2.1l0.6-1.9l-0.6-3l-0.8-1.1l0.2-1.6l0.3-0.3l0.5-1.4l0.6-0.6l1.6-0.8l3-0.5l1.1-0.8l1.6,0.5
		l0.3-0.3l1.7,0.3h0.8l3.6,2.1v-1.4h0.6l0.3,0.3l4.4,0.5l0.8-0.3h0.2l0.5,0.5l1.3,3.6l1.7-1.7l1.3,0.2l4.1,0.5l1.3,0.3l2.2,1.9
		l0.8-0.8l1.4,0.5h2.5l1.7,1.1h3l1.7-1.7l1.4-0.5l0.6-0.6h0.2l0.6,0.6l1.9-0.6h3.3l0.5,1.3l1.1,0.5l0.8,2.1l-0.3-0.3l-2.1,2.4v2.2
		l1.1,1.4v1.1l2.2,2.7l0.5,1.3l2.7,3v0.2l-0.3,0.6v2.1l1.7,1.9v0.6l0.5,0.5l0.3,1.6l0.3,0.8v1.9l3.3,5.1l0.6,1.9l1.4,0.5l1.6,2.2
		l0.5,1.6l0.8,0.8v1.1l0.3,0.3l-0.5,0.5l1.7,4.3l2.1,1.7h1.1l0.2,0.5l1.6,0.6l1.6,1.6l0.3,0.2v1.1l0.5,0.5v0.5l0.5,0.5v0.5l0.6,0.6
		l0.2,0.5l-0.2,0.2v2.1l1.3,4l0.3,1.6l-0.3,1.9l0.5,3.2l1.6,2.5l1.6,0.6l1.4,0.6v1.6h-2.1l3.8,3.8l1.9,5.2l1.4,5.4h0.5v0.6l0.6,0.6
		l0.3,0.6l0.6,1.9l4.1,1.7v-0.2l0.5,0.5l0.5-0.5l0.5,0.5l0.5-0.5l0.5,0.5l1.4,0.5l0.2,0.2l1.7,1.9l1.4,1.4l1.1,0.5l1.4,1.4h0.5
		l0.6,1.4l0.5,0.5l0,0l1.4,3.3h1.4l1.9,0.6l0.3,0.3l0.2,0.5l-0.3,0.3h-0.8l-0.5,1.1h-4.7l4,4h1.6l0.8-0.3l3.2,3.5l0.6,1.9h0.8
		l0.8,0.8l2.1,0.8l2.2-0.6l0.6-0.6l0.6-0.5h1.1l1.3-0.8l0,0h3.2l0.2-0.2l0.6,0.2l2.1-0.6l3.2-2.1l0.3-0.2l1.1,0.5l1.4-0.5h1.3
		l1.4-0.5h0.6l0.5,0.5h1.3l3.3-0.5l1.4-0.6h0.2l0.8,0.8l1.4-1.4l1.4-0.5l0.8-0.8h2.5l-0.8,0.8l1.1,1.1l-0.6,1.7l1.1,1.1v0.2
		l-1.3,2.7h0.5l-4.1,4.1h2.1v0.6l-1.6,2.5l-1.1,2.5l-0.3,0.3h-0.5l-2.1,2.1v1.6l0.2,0.5l-3.2,5.8v1.4l-1.7,3v0.5l-3.3,4.4l-0.3,1.1
		l-1.1,1.1l-2.7,3.2l-5.4,4.9l-2.1,1.7l-1.7,0.5l-1.6,1.4l-1.7,1.4l-3.3,3.6l-1.1,0.5l-3.2,3.3l-0.6,0.6l-0.3,0.6l-0.6,0.3l-1.6,1.6
		l-0.5,1.3l-0.8,1.1v-2.5l-4.3,4.9h-0.3l-1.4,1.4l-0.5,0.2l-1.3-0.2h-0.2l-1.4,1.4v0.5l-1.1,1.1v2.2l-1.7,1.7v1.4l-0.8,1.4l-1.4,2.4
		l-0.2,0.2h-4.7l2.7,2.7l0,0l-1.3,3.8l-1.3,2.2v2.4l0.8,0.6l0.3,1.7l-0.8,0.8l-0.6,1.7v3l0.8,0.8l-0.5,0.5l0.5,1.1h-2.1l3.2,3.2
		l0.3,0.8l-0.5,1.3l1.1,1.1l0.2,0.3l-0.6,1.6l2.7,2.7l1.4,0.5l0.3,0.3v0.5l0,0l-1.3,1.3l0.5,0.5l-0.5,0.5v1.7l-0.2,0.2l0.6,2.7v0.2
		l-0.2,0.2v2.7l0.3,0.3l-0.5,0.5l0.6,1.9l-0.2,1.1h-3.2l1.7,1.7v1.7l1.4,1.4h0.3l0.2,0.5l0.2,1.1l-1.4,1.4l0.2,0.2l-1.7,1.7l1.7,1.7
		l-0.3,0.5v0.5l-0.2,0.2h-2.1v1.7l-2.2,1.1h-1.3l-0.6,1.6l-1.9,1.1l-2.7-1.1v1.7l-0.3,0.2l-1.1,0.6l-2.4-2.4v1.3l-0.3-1.1l-1.7,5.4
		l-0.3,0.3l-0.3,0.8l-2.2,1.3v0.6l-0.3,0.3h-0.6l-4.4,2.7l0.2,0.5h-0.5l-0.2,0.2l-0.3-0.2h-2.4v3l0.3,0.3l-0.6,0.8l0.6,1.6l-0.5,1.4
		l1.3,1.7l-0.8,0.8L149,657.2L149,657.2z M514.7,578.6h-1.9l-3.2-3.2h-1.3v-0.8l-3-1.6l-1.6-2.1l-0.5-0.2v-1.1l-1.6-0.8v-1.1
		l-2.2-0.3l-0.3-1.1l-2.1-2.4l-1.4-0.8l-0.3-0.5l0.5-1.7l-2.2-3.5l-0.5-2.7l-1.3-1.3l-0.5-1.3v-1.7l-2.5-1.6l-0.8-0.2v-0.3l-1.1-3
		V545l-0.3-1.9l-0.3-0.2v-2.2h-1.9l-0.3-0.2l-1.4-2.2h-1.3l-0.2-0.6l-0.2-0.2v-3h-1.7l-1.1-0.6l-1.6-3l-3.2-2.2l-0.6,0.5l-1.4-1.9
		h-0.6l-1.7-2.2l-1.1-0.3l-0.8-1.6v-0.3h0.2l2.2,1.9l1.9,0.6l1.7-0.5h0.3l0.6,0.6l1.9-0.6h0.2h0.2l0.8,1.7h0.3l0.3,1.4l0.8,0.2v0.3
		v2.7h2.5l1.4,1.4h1.3l1.9,1.6l1.1,1.4h0.8v1.4l2.4,4h-1.1l6,2.4v0.3l2.2,1.6l0.8-0.5l1.4,1.4v1.4l2.4,2.7l0.5-0.2l-2.4,2.4h5.2
		l-5.7,7.6l6.6-4v0.3l2.5,2.5h1.3v1.4l1.7-0.6v0.2l0.2,0.6l-0.2,0.6l1.9,0.5l-1.4,0.3l0.6,0.8v1.9l3,1.1l0.8-0.3l0,0l0.6,0.6
		l0.6,0.8l0.8,0.8l-0.3,0.2l-0.5,3.8l0.3,0.3l-0.8,1.7l0.6,1.7l-0.5,2.2l-2.4-0.5l-0.5,1.6L514.7,578.6z M590.4,577l0.8-1.1v-1.3
		l0.5-0.5h0.5v0.3l-0.2,0.8l-0.8,0.8v2.1h-0.6l-0.2,0.2L590.4,577L590.4,577z M601.8,571.5l-2.2-1.1l-0.6-0.6l0.6-0.5v-2.5l-1.1-1.7
		l-1.6-1.6l-3,1.1l-0.5,0.8l-1.6,1.1v1.9l0.6,1.3l0.3,0.6l-1.4,3l-1.1-2.1v-2.5H587v-0.2h0.2v-1.3V567l1.7-0.8v-1.7l0.5-0.5v-1.3
		l0.3-0.5l-0.2-1.7l0.8-1.3l-0.5-1.3l0.5-0.2l0.6-1.1l0.2-0.2v0.2l1.4,1.9l1.7,1.7l1.1,0.3l1.9,0.6v1.4l1.4,1.1l0.5,1.1l1.3,1.3
		l0.6,1.9l-1.3,1.7h1.1l0.8,2.7l0.6,0.2v0.6h0.6v0.2l-1.1,0.2l-0.5,0.5v-2.5L601.8,571.5L601.8,571.5z M566.2,570.2l-1.6-2.1h-0.5
		l-0.3-1.1l-1.4,0.5l-1.7-2.4l-0.5,1.1l-1.3,0.2l-0.5-0.6h-3l-0.3,1.3l-1.1,0.3l-0.6-0.5l-1.1,0.6v-1.7l-1.6-3.3L549,565l-0.3-0.2
		l-1.4,0.8h-0.2l-0.5-0.5h-0.8l-0.5-1.7l-1.4,1.1v-3.3l-0.5-0.3l0.5-0.6v-2.4l-1.1-1.1l-1.1-1.4h0.2l9-9l-10.6,5.2H540l-1.4-1.4
		l-0.8-1.3v-1.1l0.2-1.1v-1.1l0.5-0.6l1.3-2.1l0.8,1.3h2.2l1.9,1.1l4.4,0.8v-2.2l0.6-1.6V541l1.1,0.5v-1.3l5.7,3l-3.6-5.5l3.2-0.8
		l1.9-1.3l1.4-2.1l0.2-0.5l1.4-1.6l2.4-2.4v-1.3l0.2-0.3l1.6-0.3v6.2l3.3-6.3l0.5-0.2l0.2-0.2l1.1-0.2l0.6-1.9l0,0l3-3v-1.4l0.5-1.3
		h0.8l0.2-0.8h0.6l0.6-0.5l1.3,1.9v2.4h1.4l0.3,0.2l1.4,1.7v3l-3.2-2.5v3.2h-0.6v1.4l-3.3,1.6l2.4,0.8l-0.3,0.3l1.1,2.1l-1.3,1.7
		l1.9,1.3l0.2,1.1l1.4,1.4l-3.2,2.2l2.1,1.1l0.8,3.8l-1.4,1.9l-0.6,0.2v2.7l-0.6,0.6v1.7l-1.6,1.3l0.2,0.8h-6.3l4.4,3l-0.6,0.6h-4.3
		l2.2,2.2l-5.4,5.4l5.1-2.1v3.6l-0.8,1.6l-1.1,0.6h-1.1l-1.1,0.3L566.2,570.2L566.2,570.2L566.2,570.2z M626,569.4L626,569.4v-0.3
		h0.6l0.3,0.2l0,0h-1.1L626,569.4L626,569.4z M599.4,559.2l0.5-1.4l0.3-0.3l0.8,0.6l1.4-0.3h0.8l0.8-0.5l-0.2,0.2l-0.8,0.6l-2.2,0.6
		l-0.5,0.5L599.4,559.2L599.4,559.2z M597.2,547.8l-0.3-0.2l1.4-1.4l0.6,1.1l0.3,0.2l-1.3,0.3L597.2,547.8L597.2,547.8z
		 M505.8,543.8l-0.8-0.3l-1.6-0.3l-1.1-1.1l1.7-1.3h-3l-0.6-0.6l-1.7,0.6l-2.7-3.3l0.5-0.5l-1.3-2.7l-1.4-0.5l-0.8-1.1l-0.8-0.6
		l0.6-0.6l-1.7-1.7l0.2-0.2l0.6-2.7l-0.6-1.6l-0.3-1.1l-0.5-4.3l-1.4-2.2l-0.6-0.6l-1.3-0.6v-2.2h-1.1l-0.3-0.6l-0.8-0.3l-1.9-2.2
		h-0.5l-0.3-1.4l-0.8-0.3v-0.8l-0.5-0.5v-2.4l-2.1,0.8v-0.2l0.2-0.2v-4.4h-0.6l0.5-0.5l-0.5-0.5l0,0l0,0l-0.2-0.2l0.8-2.2l0.3,1.1
		v0.6l0.8,1.1l-0.5,1.3l1.9,1.9l3.3-0.6v0.6l1.4,1.4l0.5,1.1h0.6l0,0v1.4l0.5,0.5l-2.1,0.8v3.5l2.7,0.8l3.3,3.3l1.3-1.3h1.6l0,0
		l0.2,0.5l0.6,1.9l0.6,0.3v1.1h3.3l0.2,0.2l3.6,3.6l0.8,1.4l0.2,0.6l-0.3,0.3v3l-0.5,0.5v2.5l0.5,0.5v1.3l-2.1,1.3l3.2,3.2l0,0
		l0.5,1.4l0.6,0.6v0.5l0.6,0.6l0.6,1.4v1.1l-1.6-1.6v2.4l-0.3,0.3L505.8,543.8z M493.3,540.7l0.3-1.4h0.2l1.1-1.1l0.2,2.4
		L493.3,540.7L493.3,540.7z M490.7,540.7l0.5-0.8l0.8,0.8H490.7z M582.8,523.1L582.8,523.1L582.8,523.1L582.8,523.1z M616.5,517.3
		h-1.4l0,0l-0.3-1.1v-0.3l3.2,2.1l-0.2,0.2L616.5,517.3z M389.2,517.6l-0.6-2.7l-0.6-1.7l0.3-0.5l-0.6-1.7v-1.1l0.3-1.7h4v0.5h1.4
		l0.2,0.3l1.3,2.7h0.2l-0.2,0.8l0.3,0.3v1.9v0.2l-0.8,1.4l-0.8,0.8l-0.8,0.3h-2.4l-0.6,0.3L389.2,517.6z M614.9,511.4l-0.5-0.6
		l-1.3-1.4l1.6-0.6v-0.2l3.2-1.6v-0.6l0.5,0.5l1.3-1.7l1.6,1.3v-3.6l0.8,0.8l-0.5,1.3l0.8,2.5h0.2v3.2l-2.5,0.5l-1.6,3.2l-0.5,2.2
		l1.1,0.6l-0.5,0.5L614.9,511.4z M624.1,511.4L624.1,511.4L624.1,511.4L624.1,511.4L624.1,511.4z M608.9,507h0.5l-0.3,0.5L608.9,507
		z M387.9,505.4h1.1v-1.9h0.6v0.2v1.9h0.3l-2.2,1.4L387.9,505.4L387.9,505.4z M370.2,505.1l-0.8-0.6l-1.1-1.4l-1.6-3.3v-1.7
		l-0.5-2.4l-1.1-1.7v-2.5h-0.8v-0.2l-0.5-1.9l-1.6-2.1l-1.7-2.1H360l-0.5-0.5l-0.5-1.4l-0.3-0.3l-0.3-1.6l-0.5-1.3l-1.1-2.4
		l-0.3-1.3l-0.8-1.9v-3.2h-1.4L354,471v-1.4h-1.3l-0.3-0.6v-0.6l-0.6-0.6l-0.5-1.7l-1.3-0.5l-0.6-1.4v-3l-1.9-4.1v-0.5h1.6l-2.7-4.1
		l0.6-0.6l-0.6-1.9v-1.3l-1.4-3.2v-0.2l3.6-1.6l-3.8-1.6l0.3-0.6v-1.9l-0.6-1.9l-0.3-0.3l-0.2-0.5h0.2l0.2-0.2h10l-9.5-3.8l7.4-7.4
		l-7.7,3.2l-0.5-0.5l-0.5,0.2l-3.2-7.6v10l-1.6,2.7l1.4,1.4v0.3l-1.3,1.3v0.2l-0.8,0.5l-2.7,1.7l-0.5,0.2l-0.8-0.2l-3.8-2.7
		l-1.3-1.4v-1.6h-0.2v-0.5l0.8-0.8h0.5l1.1-1.4h6l1.9-4.4h-5.4v1.3l-1.7,1.1l-3.2-1.1l-1.1-1.4l0.3-0.3l0.6-0.3l-1.3-3.3l-1.6,0.5
		l-1.1,0.8l-1.7-1.1h-1.7l-0.3-0.8v-0.2l-0.2-0.2l0,0l0,0l-0.5-0.5l-0.5-1.7l-0.8-0.8v-2.7l-2.4,0.8V416h-1.7l-0.6-1.9l-1.9-1.9
		h-2.4l-0.8,0.3l-0.3-0.2l-1.4-1.4l-1.3,1.3h-0.5l-0.6,0.3l-0.6-0.3h-3l-0.8,0.8l-0.3-0.3h-1.1l-0.5-0.5h-2.4l-0.6-0.3l-1.7,1.7v0.5
		h-2.1l-1.1,0.5h-1.3v-0.5h-3.3l-0.6,0.6l-0.2,0.2l-1.1-0.3l-0.3-0.2l-0.5-1.6h-2.7l-0.3,0.6l-0.8-0.3l-0.5,0.5l-0.3-0.2h-2.8
		l-1.4-0.5l-2.4,0.3l-1.3-1.1h-1.7l-0.3,0.3l-0.3-0.3h-3.8v-0.8l-1.3-2.2l-0.5-1.9l-0.8-1.3v-0.6h-0.5l0,0l-3.6-0.8l-1.9,0.6
		l-1.1,0.8h-1.1l-2.4,1.6l-0.8,0.6l-1.3-0.8l-2.5-0.6l-1.4,0.5l-1.3-0.8H243l-1.4-0.5l0.3-0.3l-2.2-2.2h-1.1l-0.5-0.5h-1.6l-0.2-0.2
		l-2.2-0.6l-1.6,0.3l-1.1-2.7l-1.4-3.6l-1.1,1.1l-0.3-0.3h-4.1l-0.5-1.1h-1.4l-0.3-0.8l-1.6-2.2V392l-1.6-1.7l-1.7-1.7l-1.1,1.1
		l-0.5-1.4l-1.4,1.4l-0.5-0.5h-0.6V386l-3.2,3.2H203l5.4,2.1l-0.2,0.5v1.3l0.2,0.8l-5.5,0.8l4.1,2.7h-1.4l3.8,3.8v0.2l0.6,0.6
		l0.3,0.6l1.4,3.6l1.9,0.5l0,0l2.1,2.1h0.3l0.6,0.8l2.4,6.2l2.7,3.2l0.5,1.4l2.5,2.5l1.4-1.4v1.3h1.1l0.6,1.6h0.8l0.2,0.2l0.5,3
		l2.7-1.1h0.5l1.7,0.6l2.1-1.9l1.4,0.3l0.5-0.2l0.5,0.5h2.1l1.9-0.6l0.2-0.2h1.4v-0.8l3.3-3.3l-1.3-1.3l2.7-2.7l0.5,0.5l0.5,3.3
		l2.1,2.4l0.5,0.5l3.2,2.7l2.4,1.1l0.6-0.6h0.2l2.7,0.5l1.3-0.5h5.5l0.6,1.1l0.5,1.6l1.3,1.3l0.5,1.3l2.5,1.7l0.3,0.2l-0.2,0.5v0.5
		l-0.2,0.5l-1.7,2.5l-1.3,1.3l-0.3,0.6l-0.5-0.5l-0.6,0.6v-5.8l-3,7.4h-1.9l1.4,1.4l-1.3,3.2h1.4l0.2,0.5l-1.1,0.2l-0.3-0.3
		l-2.5,1.1l-2.4,3.3v1.1l-1.7,0.6h-0.8l-1.9,1.9v2.5l-0.2,0.2l-0.6-0.3l-1.4,0.5H252l-1.7,1.1h-1.7l-0.2,0.5l-0.5-0.5l-1.4,1.4
		l-0.6,0.2l-2.4,0.5l-2.2,2.5l-0.8,2.1l-1.1,0.2l-1.4,1.4l-1.6,0.8l-3.3,0.5l-0.5,0.5l-4.9,1.6h-0.5l-1.9,0.6L224,473l-0.2,0.2
		l-0.6-0.6l-1.3,1.3l0,0h-2.5l-3,2.2v0.2l-1.3,0.3l-1.9,0.8l0,0l-0.6-0.6h-1.4l-0.5-0.5h-2.5l-2.2,2.2l-0.2,0.5l-1.1,1.4h-2.5
		l-1.4,1.4h-0.2l-1.7-0.5l-0.2,0.2l-0.2-0.5l-1.1-1.1l0.2-0.2v-3.3l-1.4-1.3l-0.3-4.7l-0.8-1.1v-0.2h0.5v-3.2l-0.5-3.2l-0.5-1.3
		l-1.4-3.6l-1.6-0.3l-0.5-2.7h-1.3l-2.7-2.7v-1.7l-1.4-0.5l-1.1-3.6l0.6-1.7l-1.6-0.6v-0.6l-2.2-1.9l-0.5-1.3H179l-0.5-0.2l-3.8-3.8
		l-0.3-1.6l-0.5-1.9v-0.2l0.6-3.2l-0.8-0.8l-0.5-1.7l-1.1-1.1l-0.5-1.7l-0.5-0.5l-0.6-1.9H170l-0.2-0.3l-1.4-1.7l-1.9-1.3l-2.2-2.2
		l-0.5,0.5l-0.2-0.2l0.5-0.5l-1.1-3.2l-1.3-0.5l-1.1-2.4l-1.4-0.5l-0.5-1.4l-1.1-0.5v-0.2v-1.3l-1.9-4.1h-0.8l-0.3-0.3l-0.5-1.1
		l-0.5-0.5l-0.3-1.1l-1.6-1.9l1.3-1.3l-4-1.6v-3.3l0.5-1.1V380l-3.6,9.2l-0.5,0.5l-1.4,3.5v1.3l-0.5,1.4l-1.9-1.9l-0.6-1.6l-1.4-0.5
		l0,0v-1.6l-1.9-1.7v-0.3l-0.5-0.5v-5.1l2.7-0.5l3.6,0.6l2.4-0.8l0.6-1.7l1.3-1.9l1.6-3.3l0.3-3.5l1.6-1.6v-1.4l2.1-2.5l0.5-4.1
		l0.5-2.1v-2.2l0.5-1.4l-0.6-2.1l-1.1-1.7l0,0l1.4-1.4l-1.4-1.4l1.7-1.7v-2.8l-3.3-1.4l-2.1,2.1l-0.2-0.2l-2.2-1.3h-1.7l-3.2,3.6
		l-0.2,0.3h-0.3l-1.4,0.5l-4,0.3l-0.6-0.5l-2.2-2.4h-1.6l-2.5-1.1l-2.2-0.5l-4.3,1.1l0.6,1.9l0,0l-0.3-0.2l-0.6,0.6h-0.5l-0.6,0.6
		h-0.3l-0.8-0.3v-2.4h-3.5l1.1-1.1h-3.5v-1.3l-0.8,0.8l-1.1-1.1l0.6-0.6l-1.3-2.7l-2.4-1.1l-0.6,0.3l-0.2-0.2l0.2-0.5l8.9-3.5h-7.3
		v-3.3l-1.7,0.6l-0.3-0.8l3.3-3.3h-5.5l-0.3,0.2l-0.3-0.3l0,0v-0.3l-0.2-0.2l0.8-1.9l0.6,1.6l2.1-0.8l0.6,0.3h3.2l3.8-1.6l-0.8-0.8
		h0.6l2.7-2.7l-0.5-0.2l0,0l0,0l3,1.1h3.8v-1.4l0.2-0.2l0.5-1.1l1.1-1.1l1.4-0.5l0.3-0.8l0.8-0.2h1.3l2.7-1.3l0.6-0.3h3l0.6-0.3
		l0.6,0.3h2.4h0.2l3.3,3.3l0.5-0.5l0.5,0.5l1.4-1.4l0.2,0.3l1.6,1.6l2.4,1.1l0.5-0.5l1.1,0.6l1.3,0.5l3,1.7l0.2-0.2l0.2,0.2l2.7,0.6
		l2.5-1.3h1.7l0.3-0.2l0.2,0.2h4.3l0.3,0.3l3.5,0.6l0.5-0.5h1.7l0.6-1.7l1.4-0.8l1.6-1.6l0.5-1.4l1.4-1.4l-0.5-1.1l0.5-0.6l-1.7-2.5
		l-0.3-1.9l-0.5-1.4l-1.6-2.4l-0.5-0.2l0,0l-3.2-2.5l-0.5,0.5l-0.3-0.2l-1.4-1.4h-0.8l-0.5-0.2l-0.6-0.6H167l-0.5-0.2l-0.5-0.5
		l-0.6-0.3l-0.3-0.8l-3.6-3l-1.4-0.5l-2.4-1.4l-1.6,0.3v-1.1l-0.5-0.5l0.2-0.2l1.7,0.6l1.4-4.1l-0.5-0.5l2.7-2.7V284l-1.1-0.3
		l1.3-2.7l2.4-1.1l1.1-2.7l-2.1-2.1l-2.7,0.8l-0.5,0.5l-0.3-0.2h-2.5l-1.1,0.5H154l-1.3,1.3l-0.2,0.3h-1.3l-0.6,1.9l-0.3,0.3H149
		l-0.8,0.3l-1.4-0.5l-0.5,0.2l-0.3-0.6h-5.8l1.7,1.7l-0.2,0.2l-1.1,1.4l-1.1,0.3l-0.2,0.2l0,0l-1.9-0.6l-0.5,0.5l-1.1-0.5l-1.1,1.1
		l-1.1-1.1L133,285l-1.3-0.5l-0.8,0.3l0.2-0.2l-0.8-0.3l-0.8-2.4l-0.6,0.2h-0.2l-1.9-1.9l-1.3,1.3l-1.3-1.3l-1.7,1.7h-0.6l-2.4,0.8
		v1.9l-0.2,0.2h-3.8l0,0l0,0l0,0l0,0v6.3l0,0l-1.3,1.3l1.1,1.1l-0.3,0.3l-0.3,0.2h-2.5l-0.6,1.9l-1.1,1.1l0.6,1.9v0.6l-0.5,1.4
		l0.5,1.4v2.5l-0.2,0.8h-0.6l-2.5,2.1l0.5,3l-0.2,0.2l-1.1,0.8h-2.5l3.5,4.1l0.8,0.8l0.5,1.7l1.7,1.7l0,0l-0.5,0.5h-1.4l-1.7,0.6
		l0.2-0.3l-3,2.5l-1.3-1.4l-0.5,0.5l-0.2-0.5l-2.4-0.8h-1.1l-0.5-1.1h-3.3v1.3L94,320l-3,1.3l-0.3,1.1l-1.3-0.6l-1.4,1.4l-0.6-1.7
		l-3.5,1.4l-0.8,2.4l0.3,1.6l-1.1,1.1l2.7,3l-2.1,2.2l1.3,0.5l-0.6,0.3l-0.2-0.2l-0.2,0.2l-0.5,0.2l-0.8-1.3v-1.6h-1.4l-0.6-0.8
		l-1.3-0.8v-1.6l-1.6-0.6l-1.3-2.7h-1.1l-0.5-1.3v0.3l0.5-1.4l-0.5-1.9l0.3-1.6l0.3-0.3l1.1-2.5l-2.4-2.1l-0.6-0.3l-0.3-0.6l-2.4-3
		l-1.3-0.5l-0.2-0.2l-2.2-2.5l-0.6,0.6l-4.1-4.1l-1.6-0.6h-0.5l-5.8-5.8h-0.5l-0.5-0.5l-0.8-0.8l-0.5-1.4l-1.3-1.3l-0.6-1.9h-3
		l-1.1,1.1V290l-4.3-1.7l-1.9,1.9h-1.1l-0.8,0.8c5.1-18.2,11.4-35.9,19.1-53.1v0.2l3.6,0.6l0.8,0.8l2.5-0.8l2.1-1.6l5.5,0.3l7.6-0.6
		l-0.8-3.2l0.6-1.6l-1.4-1.4l-0.5-1.1l-1.4-1.4l-2.4,0.5l-0.3-0.2l-1.7-2.4l-1.1,0.3l-0.2-0.3v-2.4l-0.5-0.5l-0.2-0.5l0.8-0.3v-2.5
		l0.5-0.5l1.3,1.3v-4.4l0.5-0.2h1.4l0.6-0.6l0.8-0.3l1.9,2.2l0.5,1.3l1.9,1.9h3l1.6-3.6l0.5-2.2l-0.5-2.5v-2.1l0.5-3.2l-1.6-4
		l-1.9,1.9l1.4-3.3h-0.8l0.6-1.7l1.3-0.5l0.5,0.5l2.1-0.8l0.2,0.2l1.6-0.6l0.6,0.3h1.7l1.7,1.1h7.3v-1.9l0.3-0.8l0,0l1.6,1.6v-2.1
		l2.5-1.1l-1.1-0.5l0.8-0.8l0.2-0.3l1.6,0.5l1.4-3.6l-2.4-2.4h-2.4l-0.3-0.6h-0.2v-0.6l-2.2-2.5l-1.3,1.6c0,0-0.2,0.2-0.3,0.5l0,0
		h0.3l-0.8,0.8l-1.4-1.4l-2.1,2.1l-0.3-0.2l-1.6,0.5l-1.6-1.6l-0.5-1.1l-0.2,0.5l-0.6-0.6v1.9l-1.3,1.1l-0.3-0.3l-2.1,2.1h-0.3
		l-2.4-0.8c10.1-15.7,21.8-30.8,34.1-44.7l-0.6,1.9l1.6,0.6v0.2l1.4,1.4v1.1l1.1,1.1v0.6l0.3,0.6l-1.6,4l3.3-1.1v0.2l3.6,2.1
		l0.6-0.6l0.3,0.2v0.6l1.4,1.4h1.7l0.5,0.5h1.4l1.1,1.1h1.9l1.1-1.1h1.1l1.4-1.4v-3.6l-0.6-0.3v-1.1l1.1,0.5l3,3l1.3-3.3l1.4-1.4
		l0,0l0,0l2.5-2.5l-2.2-3.3l-2.2-2.2l-0.2-0.6v-2.4l-2.7,0.6l-0.8,0.3h-1.7l-0.5,0.5l-1.6,0.3l-2.5-0.3l-1.3-0.3l-1.6-1.6l-1.6,0.6
		l-0.6-0.3h-1.7l-0.2-0.2l-2.1-0.8l-0.5,0.2v-1.9l-0.5,0.2c4-4.1,7.9-8.2,12.2-12.3h0.2l1.4,1.4l1.1-0.5l4.9,3.2v-1.3l0,0l0.3,0.3
		l0.6,0.6l0.5,1.1l1.7,1.7v1.3l-0.3,1.1l-2.5,6.3l5.8-4.3l0.6-1.9l1.1,1.1l1.3-0.3l-3,7.1l5.7-5.7l0.2,0.5l5.2,5.2l-1.9-7.7
		l-0.2-0.3l0.2-0.2v-2.7l0.6-1.9l-0.2-0.2l0.6-0.6l-0.5-0.5l0.5-0.5l-2.5-2.5l-1.7-0.6l0,0l0.2-0.3v-1.9l0.6-0.6l-0.6-1.9l0,0
		l1.3-1.3l-1.3-1.3v-0.8l-1.4-2.4h0.2l1.6-0.3l1.9,0.3l0.2,0.2v1.1l1.9,1.9l0.6,0.3l0.2,0.6l0.2,0.3h-0.3l-0.5,0.5h-1.4l-2.2,2.2
		l0.3,0.3l-0.5,0.5v3.3l1.9,0.6l1.6,1.4l2.4,3.5h2.5l0.5,1.4l1.7-1.7h1.1l0.8-0.8l9-5.5l-7.9,1.4l0,0v-1.6l1.3-0.2l0.2-0.2l5.1,0.6
		l-1.4-3.3h0.2l2.2-2.7l0.5-0.3l1.9-2.5l0.3,0.2l2.1-0.6v1.6l-0.3,0.3l2.5,2.5l3.3-2.2l0.3,0.8l2.7,1.3l0.3-0.3v7.3l3.6-9l2.1,0.8
		l2.4-2.4l-0.5-0.5l1.1-1.1l-0.8-0.3l0.5-0.5l0,0l0.5,0.5l0.8-0.8l0.3,0.2h3.2l2.4-1.1v-0.3h3.3V111l0.3-0.3l1.1-0.5l0.2-0.2
		l0.5,0.2l-0.5,0.5l0.6,1.6l-0.5,1.1l1.3,2.7h4.7l1.4-1.4v-1.6h0.2l0.8,0.3l-0.5-0.5l1.3-0.5l0.2-0.8l7.9,2.5l-6.8-6.8l-0.3-0.2
		v-0.3l-1.9-3h-0.8l-0.2-0.8l-0.3-0.3l0,0v-2.5l-0.2-0.3l0.5-0.3l0.6,0.3l1.1-0.5l0.8,0.3l4-0.5l4.1,0.3l1.3,0.8l2.2,0.8l1.6,3.8
		l2.5-2.5l0.8,0.8h0.6l0.3,0.8l2.4,0.5l3,1.7l2.5,0.3l0.3,0.3l0.5,1.7l1.9,0.6l0.6,0.6l1.3,2.7l4.1,1.7v-3.3v-0.2l0.8-0.8l-0.5-1.1
		l0.2-0.2V106l3.5-3.5h-4.4l-0.5-0.5h-0.5l-0.6,0.3l-2.2-3.2h-0.6l0,0v-1.7l-2.2-2.2l-1.1,1.4l-0.3-0.3h-1.6l-0.6-0.3v-0.3l-1.3-0.5
		l-0.3-0.8l1.3-1.3v-2.4l6.3,2.5l-7.6-7.6h-1.1l-0.6-1.1l-1.1-1.1l0.6-0.6l-0.8-2.2l1.6-2.5l2.2-2.2l-0.6-1.9v-0.5l0.6-1.9l-1.4-1.4
		v-0.6l-0.6-4l-0.3-1.1v-1.6l-0.3-0.3l0.2-0.5l1.4-1.4l-1.6-1.6l0.3-1.3v-0.3c1.1-0.3,1.9-0.8,2.7-1.3l0.5,0.3l0.3,0.6l2.4,1.1
		l0.6-0.6l0,0l3.2,1.1h0.2l0.6,1.7V62l0.5,0.5v1.4l0.3,1.3l-0.5,3l0.2,0.5l-0.5,0.5l0.6,1.6V71l-1.1,1.1l1.1,2.4l1.1,1.1l0.5,1.7
		l0.6,0.3v1.9l1.9-0.6l0.2,1.1l1.3,1.3l0.2,0.5l0.5,3.5l0.8,0.8l0.2,0.9l1.4,1.4v1.1l1.3,2.1l-0.3,1.3l0.8,2.4h0.2l-0.2,0.5l0.8,0.8
		l0.3,1.7l2.5,3.6l1.6,0.3l0.3,1.1l1.4,0.5l0.2,0.2v1.9l-0.5,1.6l0.6,3l1.1,1.1l-0.8,0.8v0.8l-0.6,1.9l0.6,0.6v0.5l-2.4,1.1l2.2,2.2
		v1.1l-1.6-0.6v1.7h-3L264,122l-3.2-1.7l-1.1,1.1l-2.2,0.3h-2.1l-4,4.9h3.6l1.7,1.7l0.6-1.9l1.4,1.3l4.1,0.5l2.1,0.5l2.2-0.5h0.8
		l0.3,0.3l3.3,0.6l2.5-2.1v-1.7l1.7-0.6v-1.6l1.4-1.4v-1.4l1.4-3.2l-1.3-1.6l0.2-0.5l1.3-1.7l0.6-1.9l-1.7-5.1l-2.1-1.1l-0.2-0.3
		l-0.3-1.7l0.5-0.5l0.8-0.8l1.4-0.5l1.1-1.1v1.3l2.1,1.4l0.6,1.7h0.6l-0.6,1.7l2.1,0.8l0.3,0.6l0.8,0.8l-0.6,0.6l2.7,2.7h1.3
		l1.6,1.4l2.2-0.6l1.3-0.5l1.6-0.5l2.4-2.4l-2.4-2.4l-0.5,0.2l-0.8-2.2l-1.9,2.4l-0.2-0.5h-0.5l0.3-0.8l-1.3-1.3l-0.5-0.6l5.1-2.1
		l-4.4-1.7l-0.3-0.6l-0.5-0.5l-0.5-1.3l-1.1-0.8v-0.8l-2.1-2.4h-2.4l-1.4-0.6l-0.8-2.1l-1.9,0.6l-1.7-1.1l-1.3,0.5l-1.6-0.6
		l-2.2,2.2l-0.2,0.3l-1.4-0.3l-0.5,0.3l-0.6-1.7l-1.9-1.9l-0.2-0.3l0.5-2.5l-1.1-1.6l0.2-0.5l0.5-3.8l-1.6-2.7l-1.7-1.7h-0.8
		l-0.2-0.6l-3-2.4l-1.3-0.6l0.5-2.2l-0.3-4l-0.3-0.3l0.2-0.2l1.7-1.9l0.5,1.6l1.1,1.1V68l0.5,0.5l-1.1,0.3l1.7,4.3l1.7-0.6l1.1,0.8
		h2.7l0.5-0.2l1.1,2.7l2.4-2.4h1.9l3.2,2.5l1.3-0.2l4,4l-1.9-4.4l7.3-7.3l-8.5,3.3l-0.5-0.2l-0.2-0.5l-0.3-0.3l-0.6-2.1h-1.9
		l-0.5-1.1h-2.2l-0.3,0.3l-1.4-0.2l-1.3-1.3h-1.9l-0.8-0.6l-0.6-1.7h-0.5l0.3-0.3l0.6-0.5h0.3l1.1,1.4l0.5,0.3l3.2,1.4l2.5-0.8
		l1.9-3.5l-2.1-3.3l-1.9-0.5l0.2-0.2h3.8l0.5,0.6l1.6,1.6l2.4,0.3l0.3,0.8l1.4,0.5l2.2,2.2h2.2l3.3-0.5l1.1-0.6l0.5,0.5l0,0v0.2
		l0.5,1.4v1.3l-1.7,1.4l0.8,1.9v2.2l1.7,1.3L294,74l0.6,5.1h2.7l3.5,2.2h2.1l1.4,0.3v1.6l2.1,2.1h1.9l7.4,7.4l-3.5-8.7v-0.3l0.3-0.5
		l2.2,1.6h1.3l5.7,5.7l-3.2-9.5h-2.1l-0.8-0.3l-0.8-0.5l1.3-1.6l-5.5,1.4l-1.1,0.6l-1.3-0.5l-0.3,0.3l-0.3-0.3l-3-3v-0.5l-0.3-0.2
		l-0.2-0.2l0.8-2.1l-0.8-2.2l-1.3-1.1l-0.3-2.2l-2.2-3.2l-1.3-0.5l-0.2-0.2l0.3-0.8l-0.6-1.6L298,59l-2.1-2.1h-0.3l-1.7-1.1h-2.5
		l-0.6-0.8l-0.8-0.6l0,0l-0.5-1.1v-5.1l-3.5,3.5l-2.7-0.3h-0.5l-0.5-0.3l-0.6-2.1h-0.3v-1.6l-1.7-3.3l-0.8-0.5l0.3-0.8l-1.1-1.1
		c4.9-1.6,9.6-2.7,14.4-4.1v0.6l3.2,2.7h11.5l-9.2-3.6l-0.5-0.5l1.7-0.8c23.7-5.7,48.1-9,72.4-9.8V27l0.3,0.3l-0.2,1.1l-0.8,0.3
		l-3.8,9.6l5.8-5.8h1.1l1.9-1.9l0.5-1.3h0.2l5.4-2.2l-2.7-1.3c1.7,0,3.5,0,5.1,0c93.3,0,181.6,35.4,248.8,99.9v0.5l-2.2,2.2l0.5,0.5
		h-0.8l-0.8,0.8h-3.2l-0.8,0.3l-1.9-0.5l-2.4,1.1l-2.4-1.1l-0.6,1.6h-1.7l-1.1,1.1h-2.2l-1.4,1.1h-1.3l-1.4,1.1l-0.2-0.3h-2.7
		l-0.6,1.7l-1.7,1.4l-0.5,1.3l-1.1,1.1l-0.8,2.2l1.4,2.1l-0.2,0.8l-1.1,1.4l-1.7,2.5l0.6,1.6v1.9l0.3,0.8l-0.6,0.6v1.1l-0.6,0.6
		l0.5,1.7l-0.6,0.6l-0.5,1.4l-1.7,2.2l0.2,0.3l-0.3,0.2l-0.3,1.6h-0.6l-0.6,4.4v1.3l-0.6,0.6l0.5,1.1l-0.5,0.5l-0.5,1.3l-1.4,1.6
		v0.3l-0.5,0.5v1.7l-1.4,1.1v1.9l-1.4,1.4v1.3l-0.8,1.1l-1.3,3.2l1.1,2.4l2.4,1.1l0.6-0.3l0.8,0.8h2.5l1.4-1.4l1.1-0.3v2.4l1.3,1.6
		l0.2,0.5l-0.6,1.9l4,3.5l0.2-0.3l0.6,0.6l2.7-0.5v1.3l3.6-3.6l0.6-1.9l-0.6-0.6l0.5-0.8l-0.2-0.3l0.5-1.3l0.5,0.2v-1.3h1.4
		l-0.8-0.6h0.8l0.3-0.3l0.3,0.3h1.6h0.2l0.3,0.6l1.1,1.1l1.4,0.5l0.3,0.3l2.4,1.1l0.6,0.6h0.6l0.5,1.1h0.6l0.2,0.2l-0.2,0.5v0.6
		l-1.3,1.3l2.7,2.7h1.3l0.3,0.6l-0.3,0.3v2.5l1.9,1.9l0.6,0.3l0.6,1.9l0.2,0.2l-0.2,0.2l0.5,0.5l-0.6,0.6l0.8,0.8l-0.3,0.6l0.8,2.1
		l-0.3,0.3l0.6,3.2l0.3,0.8v1.1l1.4,4.4l0.3,0.2L632,223l1.1,2.4l1.1,1.1v1.9l0.5,0.5l0.6,4.3h0.3v1.4l0.5,1.1v0.3l-1.4,1.4v1.9
		l-0.5,1.9l0.6,2.5l0.2,0.2l-1.1,1.1v1.6l-0.3,0.5h-4.4v2.1l-1.3,1.3l0.5,2.4l-1.3,1.3l0.8,2.7l0.2,0.2l-0.8,1.1l-0.3,1.1l-1.4,1.4
		v1.3l-0.8,1.3l-1.1,4.1l-0.3,0.3l-0.8,2.4l-1.1,0.8v0.6l-1.1,0.5v1.7l-0.6,0.6l0.2,0.5l-3.2-1.3l1.7,4.4v0.2l-2.4,1.1l1.3,1.3
		l-0.6,0.6l-0.6,0.6h-1.1l-0.6,0.6l-1.4,0.5l-0.2,0.2l-0.5-0.5l-0.5,0.5l-0.3-0.3l-0.5-0.2v-1.3l-1.7-1.7l-1.6,0.6l-1.6-0.6
		l-1.7,1.7v1.1l-1.1,1.1v1.7l-0.3,0.3l-0.2,0.6l-1.9,0.6l-0.3,1.1h-0.3l-1.7,1.7h-1.4v2.7l-0.5,2.7v2.7l1.1,1.1v3.3l0,0l-1.6,1.4
		l0.5,0.5l-2.1,2.1v0.6l-0.3,0.2l-0.2,0.2h-0.6l-2.1,0.8l-0.5,1.4l-1.6,1.4v2.2l0.2,0.3l-0.3,0.3l1.1,3.3h0.3l-5.1,2.1h-0.3v-0.8
		l1.3-2.2l-0.3-0.8l1.4-3.6h-3.6l-0.6,0.6h-0.3l-2.2-0.8l0,0l0,0l-0.5-0.2l-1.3-3.2l-2.5,3.5h-0.3l-0.6-0.6l-2.1,1.7h-1.6l1.3-2.7
		L569,314v-1.4l0.6-0.8l1.3-1.3v-2.7l-3-1.6l-3-4.3l-1.1,2.5h-2.7l-0.6,1.9l-0.5,0.5l-0.5,1.1l-1.4,1.4v1.6l-0.6,0.6h-0.8l-2.7,1.9
		l-0.5,3.2l-1.1,1.1h-1.9l1.6,1.6h-0.2l-4-0.8v2.5l-0.5,0.5v1.1l-0.5,0.5v0.5l-0.6,0.6l0.6,1.9v1.9l2.1,0.8l1.4,0.8l0.3,0.3l1.9,2.2
		v1.9l0.8-0.8l1.3,1.6v-2.7l0,0v0.3l1.9,4.1h2.7l0.6-0.3l1.6,0.6l1.6-1.6l1.1-2.4l0,0l0.5-0.5v-0.8l0.8-0.3l0.3,0.8l1.6,1.6h4
		l-0.3,0.3H570l-0.2,0.2l-0.6-0.3l-4.1,1.7l1.9,1.9l-0.5,0.2v0.5h-0.3l-2.7,2.7l0.8,0.8l-0.3,0.3l-1.6-1.6l-1.6,4.4l0.5,1.3
		l-0.3,1.4v4.3l3,1.1v2.4l2.7-1.1l1.6,0.6l1.1,2.2l-0.5,1.6l1.6,0.6v1.1l1.9,1.4v1.4l1.6,2.4l-3.2-0.6l0,0l-0.3-0.8l-2.4,0.8
		l-1.6-0.6l-0.2,0.2l-0.2-0.2l-2.7,1.1l-7.9,17.4l10.6-14.1l0,0l1.4,0.5l0.3-0.2l1.6,1.4l2.2,0.8l1.4-0.8l1.3,1.3l1.9,1.3l2.4,1.6
		l0.3,0.6l-0.3,0.2l-0.8,1.1h-0.3l-1.4,1.4v0.2l-5.2-2.1l2.4,3.2l-1.6,1.6v0.5l-4,4l4-1.6v7.9l3.6-9.2l0.3-0.3l0.5,0.5l2.5,1.1
		l0.6-0.6v1.4l-1.1,0.3l1.1,1.1v1.4l-2.2,2.2v3h1.1l0.2,0.2l-1.1,1.1l0.3,0.3l-0.8,1.4h-0.2l-0.2,0.6l-0.2,0.2l-0.5-1.3l-2.2,5.5
		h-1.1l0,0l0,0h-0.2l-0.2,0.3l-2.2,2.2h-1.9l1.1,1.1l-1.4,1.4h2.7l0.5,0.5l-1.1,0.3l-3.2,7.7h-3l4,4h-0.6l-0.5,1.1h-0.5l-0.2,0.5
		L564,420l-5.4-5.4l3,7.6l-2.1,2.1l-0.5,0.2h-2.4l-0.2,0.3l-1.1-1.1l-1.4,1.4l-1.1,0.3l-1.3-1.3l-3.8-1.6v4l0.5,1.1v0.2l-2.4-2.4
		v4.3l-0.2,0.5l-0.5,0.5l-0.8,0.3l-0.6-0.3l-1.4,0.5h-4.7v-1.7l-3,3h-4l2.2,2.2l-0.6,0.6v-0.8l-1.7-1.7l-1.6,0.6l-2.1-0.8l-0.5,1.3
		l-1.1-1.1l-0.3,0.3l-1.7-4.3l-1.6,4.1l-0.3-0.3l-1.3,1.3h-4l1.7,1.7h-1.1l-1.7,0.6l-1.3,1.3h-2.1v1.4l-1.3,1.3l1.3,1.3v1.6l0,0
		l-0.6-0.6l-1.9,1.9l-0.5,1.1l-0.6,0.6v2.7l-0.6,1.9l0,0l-2.5,1.1l4.9,1.9l1.1,0.8l1.7,1.7l3.3,8.2v-7l0,0v0.3l3.8,1.7l2.2,1.4
		l0.3,1.1l2.5,1.9l0.8,0.8l0.6,1.6v0.3l1.1,1.1l-0.6,0.6l1.9,1.9l0.5,1.7l0.5,0.5l0.5,1.7l0.2,0.2l-0.5,0.5l0.5,1.1l-0.5,0.5
		l0.6,1.9v1.6l0.6,0.6l0.2,0.3l-0.8,0.8v2.1l0.3,0.6l-0.2,0.2l-1.6,0.6l0.8,2.1l-0.6,1.6l0,0l-0.3,1.1l-1.1,1.1l-3,1.3v0.5l0,0
		l-0.6,0.6l-1.7,0.8H522l-0.6-0.6l-0.2,0.2v-3.2l-3,3l-0.3-0.2h-2.7v0.8h-7.3v-3l-3,3l-1.4-3.6l-0.2,0.2l0,0v-0.6l-1.6-2.4H500
		l-3.2-3.2l-0.8-0.3V484l-1.3-1.3l-2.1-0.8l0,0l-0.5-1.1v-0.3l1.3-1.3l-1.9-1.9l-1.7-0.6h-0.5l-0.6-0.6l-1.4,0.5l-1.1-1.1l-0.6,0.6
		l-2.4-2.4v4l-1.7,1.7l2.7,1.1L484,481v0.6l-1.3,1.3l0.8,0.8l-1.1,1.1l-0.5,1.1l-1.3,1.3l-0.5,3.8l-1.3,1.4v1.4h-2.1v-1.6l1.3-1.3
		l-0.5-1.4l0.8-0.8l-2.5-2.4l-0.2-0.5v-0.3l0.6-0.6l-1.1-2.4l-0.3-0.3l-0.5-3.2l-0.5-0.5l-0.5-1.1l-2.1-2.1v-0.8h9.2l-3.5-3.5v-2.7
		h-0.2l-0.3-2.7l-0.3-0.3l0,0v-1.6l-0.2-0.3l0.2-0.2v-5.1l-2.7,2.7l-0.3-0.3l-1.1-1.9l-0.5-0.5v-0.5l-10-4l5.5,5.5v1.1h-3.6l0.5,1.4
		l-0.8,2.2l-1.1,0.6h-0.8l-0.5-1.4v-4.1l0.3-0.3l-0.3-0.3v-6l-1.4,4.3l-0.5-1.3v-2.4l-0.2-0.2l1.1-1.1l-2.7-1.1l-0.2-0.5l-0.8-1.9
		v-1.6l-0.8-0.8v-2.5l-1.7-2.2l-1.4-0.5l-0.3-0.3l-0.3-0.2l2.1-2.1h-4.4l-1.4-1.4v1.1l-1.6-0.6l-0.2-0.3h-0.6l-0.6-1.1l-0.6-0.8
		v-5.5l-0.8,0.8v-0.3l-0.6-0.6l-1.6-4.3h-1.6l0,0h-0.2h-0.5l0.3-0.3l-0.8,0.3h-0.5v0.2l0,0l-0.5-0.3l-0.8-0.8h-0.5l-0.3-0.3
		l-0.3-0.8l-3.3,0.8v-0.2l-4,4l0,0h-1.3l0.3,0.6l-1.6,1.6h-1.1l-3-3v1.4l-1.7-0.6h-3.2v3l0.2,0.2l-0.2,0.2v1.1l-0.3,0.3l-3.2,1.1
		l-1.1,1.1l-1.4,3.6l1.1,1.1l0.2,0.5v0.3l-0.3,0.3l-0.2,0.3h-3.5l1.9,1.9l-0.8,0.6v0.2l-0.5,0.2l-0.8-0.8h-1.6l-1.1,0.5h-2.4
		l-1.3,3.8l-0.8,0.6l-1.1,2.1l-4.9,3.8l-0.5,1.4l-0.5,0.5l-1.9,0.3l-1.9,1.7l-0.8,2.1l0.3,0.6l-0.6,0.6l-2.4-0.5l-2.2,2.2v0.6h-2.5
		l-2.5,2.5l-0.6,1.9l0.8,2.2l-1.1,1.1l0.6,2.1v4.9l1.3,0.5l0.2,1.6l-0.8,3l-1.4,2.5v3.8l0.5,1.3l0.3,3.2l-2.4,0.8l-1.3,3l0.2,0.2
		l-0.3,0.5l-0.6,0.6h-0.2h-0.5l-2.5,1.7l-0.6,1.9l0,0l-1.3,1.3l0.6,0.6l-0.5,0.3L370.2,505.1z M514.5,499.1l-0.6,0.3l-0.2-0.2v-0.5
		l-1.3-1.3l1.3,0.3l-0.3,0.3l2.7,1.1l-0.5,0.2L514.5,499.1z M478.2,497.5v-1.6l0.6,0.6v0.8L478.2,497.5L478.2,497.5z M509.2,496.7
		l0.5,0.2l-0.2,0.2L509.2,496.7z M603.1,492v-1.4l0.8-0.2l0.3,0.5l-0.6,0.6l-0.2,0.3L603.1,492L603.1,492z M237.1,488.8L237.1,488.8
		l-0.2,0.3L237.1,488.8z M617,486.8l-0.6-0.8l-0.2-0.8h0.2l1.4,1.9v0.3L617,486.8z M595.8,482L595.8,482L595.8,482L595.8,482
		L595.8,482z M595.6,474.3l-0.3,0.3h-0.8l1.6-1.6v1.7l0.3,0.2v0.2L595.6,474.3z M593.6,469.8h-1.4v-0.6h-1.6v-0.8L590,467l-0.2-0.6
		l0.3-1.3l1.3-0.8v-1.9l-0.5-1.4l0.3-0.8l0.5-2.7v-2.7l-0.2-0.3l1.3-1.7v-0.3l0.5,0.2l1.1,1.1l2.4,0.6l-0.2,0.5l1.1,3l0.6,0.3
		l0.2,1.4l0,0l-0.2,1.3l-0.2,0.6l-1.1,1.9l-1.3,1.4l-1.7,1.7l0.5,1.3l-0.3,0.6v1.9l0.3,1.3l0.3,0.3L593.6,469.8z M534,450.6h-0.6
		l-0.5-0.5h-0.8l-0.5-0.6v-0.2l-0.5-1.1v-1.9l-0.2-0.3l0.5-0.5l1.6-1.3l0.3-1.1h0.5l0.2,0.2h1.9l0.3-0.2l0.5,0.5l1.1-0.5l0.5,0.5
		l1.6-0.6l0.3,0.2l-0.3,0.3l-0.5,1.1l-0.5,0.5l-0.6,2.2l0.2,0.6l0,0l-1.9,0.6v0.5l-2.2,0.8v0.8H534z M531,439l-0.5-0.6l0.2-0.5h1.9
		v-1.1l0.5,1.4v0.2l-1.3,1.3L531,439z M537.9,432.2L537.9,432.2v0.5V432.2z M588,426.8v-1.4h-1.1v-1.7l-0.6-0.2v-3.3l0.5-1.4
		l1.3-2.1l0.2-0.8l1.4-2.1l-0.6-0.3l0.2-0.2l0.6-0.5l0.6-0.5l0.5,0.8h0.3v1.1l-0.3,2.2l-0.8,1.4l0.2,2.1l-0.2,0.8l-0.6,3.2l0.6,0.3
		l-1.1,1.3L588,426.8L588,426.8z M432.3,424.8l0.3,1.3l-0.3,0.2V424.8z M567.6,414.5l2.2-2.2l0.6,0.6l-1.6,1.6L567.6,414.5
		L567.6,414.5z M572.1,410.1L572.1,410.1l-0.3,0.5l0.6,0.2l-1.7,0.6L572.1,410.1z M628.8,365l0.3-1.3v-1.9l-0.8-1.7l-1.1-1.9
		l-1.1-1.1l1.1-0.5l0.2-0.6h0.2h0.3l1.1,1.4h1.1l1.3,2.4h0.8v1.1h0.3l-1.1,1.1l0.5,2.4l-0.5,3.2l0.3,0.6h-0.2L628.8,365z
		 M25.7,367.6c0.3-7.1,0.8-14.1,1.7-21l1.1,0.3l0.3,0.3l1.1,1.7l0.5,0.5l-0.3,0.3l-0.8,2.4l1.9,3l0.6,0.2v2.2l0.2,0.2l-1.1,3.3
		l-1.4,1.4l0.5,0.5l-0.3,0.3l-3.3,1.9L25.7,367.6z M575.9,366.8L575.9,366.8h0.3H575.9z M139.1,363.9l1.3-0.8l0.3,0.2h0.6l-0.8,0.6
		h-0.8H139.1L139.1,363.9z M99.4,362.8L99.4,362.8L99.4,362.8L99.4,362.8L99.4,362.8z M637.7,355.2L637.7,355.2l0.2-0.5h1.4L639,355
		l-0.5,1.4L637.7,355.2z M643.7,353.3l-1.1-0.2l0.2-1.1l0.5-0.3h0.2l0.8,0.5l0.3,0.2v0.3l-0.5,0.5v0.2L643.7,353.3z M651.6,352.5
		l0.5-0.2l-2.1-2.1v-1.1l0.6-1.1v-2.1l-1.9-1.3h-3.2l-1.3,0.6l-2.4,1.4v0.3l-1.4,0.6h-0.5l-1.6,0.5l-1.9,0.2l-0.5,0.2l-0.5-0.3h-2.1
		l-0.8,1.7v0.8l-0.6-0.2L630,351h-0.2v-0.2l1.3-0.8l0.5-1.3l0.3-0.3l0.6-0.5l2.4-2.4v-0.2l0.5-0.5l0.3-1.4l0.8-0.6l0,0l0.8,0.8
		l1.9-0.8l1.3-0.3h1.1l1.7-0.6l1.7-0.5l0.2,1.1h2.2l0.5-0.2l0.8,0.5l3.5-2.2l-0.6-0.6l1.7-2.5h-1.6v-0.3l-0.3-0.3l0.5-0.5v-0.8
		l1.1-1.6v-1.3l2.7,1.3l0.5-1.6l0.5-0.2l2.7-1.9l1.7-1.1l0.3-1.9l0.6-1.1v-1.9l0.2-0.6l0.8-0.6l1.6-2.4l-0.8-1.6l1.1-3.5l-0.5-2.2
		l0.5-1.7l-0.5-3l-1.1-2.4l0.3-1.4l-0.8-1.7h-0.2v-0.6l0.6,0.5l2.1-1.6l2.5,2.5l0.3,0.5l0.3,1.9l0.8,1.6h0.6l0.3,0.5l0.6,2.1
		l-0.2,0.5l0.3,1.4v0.8l-0.2,0.6v2.1l0.2,0.8v0.5l-2.2,1.1l-0.3,2.7v1.6l1.3,2.1l1.1,2.7l-0.5,2.1v6l1.1,1.6h-2.4l-1.7,0.5l-1.3,3.2
		l0,0l-0.5,0.3l-0.3,0.3h-1.6l-2.4,1.4v1.9l-2.2-0.3l0,0l-0.3-0.3v0.3l1.3-1.3h-5.2l-1.4,1.4l-0.8,2.7l1.4,1.4l0.3,0.2l-0.3,0.2
		l-1.1,1.9v0.6l-0.5,0.5v0.8l-0.3,0.5L651.6,352.5z M48.6,352.9l-0.3-0.6l-1.7-1.7l-1.1,0.3l-1.6-0.5l-0.6-0.6l-1.4-0.5l-0.6-0.5
		l2.1,0.3l1.9-0.6H48l0.5-0.5l0.2,0.2H49l-1.1,3.3l1.3,1.4v0.3l-0.2,0.2L48.6,352.9z M597.5,345.4v1.3l-0.6-1.7l0,0l0.5-0.5v-1.9
		l1.9-1.3l-2.5-4.1v-0.3l-0.3-0.6l3,0.6l-1.9-4.4l-0.2-0.2l0.5-0.5l-1.6-1.6l-1.4-2.1l0,0l5.5-2.2l2.1,2.1l2.4,3.2v2.5l1.3,1.3
		l0.3,2.7v5.2l2.5-2.5l0.2,1.1l-1.1,1.1l0.5,0.5H608l-1.6,1.6H604l-0.3,0.6l-1.4,0.5l-2.5,2.1L597.5,345.4z M87.1,345.7l-0.8-0.3
		l-1.7-4.3l-0.5,1.1l-0.8-0.8h1.1l0.6-0.6l0.6,0.3l2.1-0.8l0.3,0.2l-2.2,0.8l1.4,1.4v2.1l0.5,1.3L87.1,345.7L87.1,345.7z
		 M671.8,340.7L671.8,340.7h0.3l-0.3,0.3V340.7z M56.5,339.7l0.5-0.5v0.8l-0.5,0.3V339.7z M672.1,337.5l0.6,0.8l-0.3,0.3
		L672.1,337.5z M57.8,336.3l-0.5-1.4l-0.3-1.3l0.3,0.3h1.6l0.5,0.5l-0.5,1.4h-0.2l-1.1,1.1v-0.6H57.8L57.8,336.3z M55.4,328.8
		l-3-1.3l-0.2,0.2l-0.3-1.1h-0.5v-0.5l-1.1-2.2h-1.9l-2.4-1.1l-1.1-1.9h-1.7l-1.9-0.6l-0.2,0.2v-0.2l-2.7-1.1l-1.6-1.1l-1.9-2.7
		l-0.3-0.3l-0.5-1.1l-1.6-1.6c0.8-4,1.7-8.1,2.7-12.2l0.2,0.3l0.6,1.9l3.2,1.4l0.5,0.2l0.3,0.6l2.7,3.3v1.3l0.5,0.5v0.8l0.6,1.7
		l2.4,2.4l1.1,0.8l0.5,1.4l1.4,0.5l0.6,0.6h2.4l0.3,0.2v0.8l1.1,2.4h2.1l1.6,0.3l2.1,1.1l-1.1,1.1l-0.5,1.1l-0.6,0.6v3v0.2l-1.6,0.5
		v1.4L55.4,328.8z M589,323.3l-1.6,1.6l-0.3-0.2v-1.4h0.6l5.5-5.5l0.3,0.6l3.8,1.9l0.2,0.5l1.9,4l0.3,0.3H591l0,0L589,323.3z
		 M568.1,315.4L568.1,315.4h0.6l-0.3,0.3L568.1,315.4z M138,294.7l2.4-2.4l0.6,0.6l0,0l-2.1,1.6l-1.3,0.6L138,294.7z M44.8,292.8
		l0.2-0.2l-0.2,0.3V292.8z M660,291.7L660,291.7l0.5,0.2l-0.3,0.2L660,291.7z M135.6,290.7l1.1-0.3l1.6-1.6l0,0v1.7l-0.5,1.3
		L135.6,290.7z M671.5,287.3l-1.3-0.6l-0.8-0.6l-1.7-2.4l-1.6,0.5l-0.2-0.2h-2.5l-1.7,1.4l-0.3,0.3l-1.7-1.4l-0.2,0.2V284l1.4,0.5
		l1.6-1.6l0.2-0.8l1.4-0.6l-1.7-2.5l-0.3-0.2l-0.2-0.6h1.4l-1.3-3.5l-0.2-0.6l0.2-0.6l-0.3-2.2l-0.5-1.7l-1.4-2.2l1.1,0.6h0.6
		l0.3,1.1l2.5,2.5l1.3,0.6l1.1,1.6h1.1l0.3,0.6l2.1,1.1h1.1l0.8,1.1h3.8l0.6-0.3v0.6l2.1,1.1l0.3,0.3v1.4l-2.4,1.1l-0.2-0.2
		l-1.9,1.1l-1.7,1.7l-0.8,2.4L671.5,287.3L671.5,287.3z M657.3,250.6l-1.6-1.7v-0.3l-0.2-0.3l0.8,1.1h0.8l0.5,0.6l0.6,0.6v1.4
		l-1.4,0.5L657.3,250.6L657.3,250.6z M654.4,245.4L654.4,245.4L654.4,245.4L654.4,245.4z M651.4,237.1l-0.6-0.3v-0.2l0.3-1.4
		l-1.1-1.9V230l-0.5-1.9l-0.2-1.4l-0.5-1.4l-1.1-1.4v-0.2l0.5-1.1l-2.1-2.1v-0.6l-0.6-1.4v-3.3l-1.9-2.5l-1.3-0.5l-0.6-0.6l-0.8-2.4
		l-1.4-0.5l-0.2-0.5l-1.1-2.5v-2.1l-0.2-0.2v-2.1l-1.6-2.1l-0.8-0.8l-0.2-1.1h0.3l2.1-0.6v-1.3l0.2,0.2l0.5,1.1l0.3,0.2v1.7l0.6,0.6
		v0.6l1.9,1.9l0.5,0.2v0.2v5.2l0.8,1.1l0.5,1.4l1.6,1.6v0.2l0.8,2.4h1.7v0.6l0.8,0.8l0.6,1.6l1.9,2.5l0.5,1.1l1.4,2.7l1.3,1.3v1.9
		l1.4,0.3l0.2,0.3l1.1,1.7h-0.5l-0.2,0.2l-0.2-0.2h-4.9l1.6,2.4l-0.5,1.4l0.8,1.7v0.3L652,237l1.1,1.4v0.5L651.4,237.1z M80.1,201.6
		v-0.5l0.5,0.5H80.1z M81.5,192.4c0.3-0.3,0.5-0.8,0.8-1.3v0.6L81.5,192.4L81.5,192.4z M137,153L137,153l1.1,0.5L137,153z
		 M132.4,152.1l-1.3-1.3l-0.8-0.3l-0.2-0.2l0.2-0.2l0,0h1.6l0.2,0.3l1.3,1.3h-0.2L132.4,152.1L132.4,152.1z M171.8,113.4L171,112
		l0,0v-1.7l0.3-0.8h0.6l2.2,1.1l-0.2,0.6v0.8l-0.5,0.8l-0.6,0.3L171.8,113.4L171.8,113.4z M209.6,96L209.6,96l0.5,0.2L209.6,96z
		 M197.4,90.4L197.4,90.4l-0.8-1.9l-1.4,1.4l-0.2-0.3l-4-1.6l-0.8,0.8l-1.1-1.1l0.5-0.5l-2.4-2.4c0.8-0.5,1.6-1.1,2.4-1.6l0.6,0.6
		l1.4,3.2h2.1l2.2,0.5l1.4,1.1l1.3,1.6l0.5,0.2l-0.5,0.5L197.4,90.4z M187.3,90.1v-0.6h0.3l0.6-0.6v1.3l-0.5,0.2L187.3,90.1z"/>
	
		<radialGradient id="光线_1_" cx="386.8816" cy="-108.3241" r="371.5001" gradientTransform="matrix(1 0 0 1 0 496)" gradientUnits="userSpaceOnUse">
		<stop  offset="0.2738" style="stop-color:#FFFFFF"/>
		<stop  offset="0.8763" style="stop-color:#FFFFFF;stop-opacity:0.42"/>
		<stop  offset="1" style="stop-color:#FFFFFF;stop-opacity:0"/>
	</radialGradient>
	<path id="光线_2_" class="st2" d="M138.9,439.3c45.8,10.4,93.9,17.9,143.5,22.3c9,104.2,34.5,203.9,73.5,296.4
		c3.3,0.3,6.3,0.5,9.6,0.6c-39.4-92.5-65.1-191.9-74.3-296.4c30.8,2.4,62.1,3.8,94.2,3.8c68.5,0,134.4-5.8,197.1-16.9
		c-18.2,130.6-94.1,243-200.9,310.2c1.7,0,3.6,0,5.4,0c3.6,0,7.1,0,10.6-0.2c103.7-69.6,176.7-182,193.7-311.6
		c59.3-10.9,115.2-26.4,166.8-45.8c0.2-3.2,0.2-6,0.2-9.2c-51.4,19.6-107,35.1-166,46c1.7-16.3,2.7-32.7,2.7-49.3
		c0-156-80.9-293.6-202.8-373.1c-1.7,0-3.5,0-5.4,0c-3.6,0-7.1,0-10.7,0.2c126,76.5,210.1,215.2,210.1,372.9c0,17.2-1.1,34.1-3,50.9
		c-62.9,11.2-129.5,17.1-198.2,17.1c-32.1,0-63.9-1.4-94.9-3.8c-2.1-25.8-3.2-51.9-3.2-78.1c0-126.2,24-246.9,67.5-357.8
		c-3.3,0.3-6.3,0.5-9.6,1.1c-43,110.8-66.7,231-66.7,356.8c0,26.1,1.1,51.9,3,77.5c-49.8-4.4-98-12.2-143.7-22.4
		c-1.4-14.1-2.1-28.1-2.1-42.5c0-154.6,80.9-291,202.7-368.3c-7,0.8-13.6,2.1-20.4,3.3c-115.2,80.5-190.8,214.1-190.8,365.2
		c0,13.6,0.6,27.2,1.9,40.5c-39.5-9.3-77.6-20.9-113.2-34.1c0,3.2,0.2,6,0.3,9.2c35.9,13.3,74.1,24.8,113.8,34.1
		c14.5,130.4,85.5,243.9,188,315.5c6.8,1.3,13.6,2.4,20.4,3.3C230.4,687.2,154.6,572.3,138.9,439.3z"/>
	<g id="光点_2_">
		
			<radialGradient id="SVGID_1_" cx="590.5811" cy="-131.3684" r="14.3949" gradientTransform="matrix(1 0 0 1 0 496)" gradientUnits="userSpaceOnUse">
			<stop  offset="0.2738" style="stop-color:#FFFFFF"/>
			<stop  offset="0.8763" style="stop-color:#FFFFFF;stop-opacity:0.42"/>
			<stop  offset="1" style="stop-color:#FFFFFF;stop-opacity:0"/>
		</radialGradient>
		<circle class="st3" cx="590.6" cy="364.7" r="14.4"/>
		
			<radialGradient id="SVGID_2_" cx="467.3809" cy="-405.5349" r="14.3555" gradientTransform="matrix(1 0 0 1 0 496)" gradientUnits="userSpaceOnUse">
			<stop  offset="0.2738" style="stop-color:#FFFFFF"/>
			<stop  offset="0.8763" style="stop-color:#FFFFFF;stop-opacity:0.42"/>
			<stop  offset="1" style="stop-color:#FFFFFF;stop-opacity:0"/>
		</radialGradient>
		<circle class="st4" cx="467.4" cy="90.4" r="14.4"/>
		
			<radialGradient id="SVGID_3_" cx="514.8599" cy="136.7497" r="20.455" gradientTransform="matrix(1 0 0 1 0 496)" gradientUnits="userSpaceOnUse">
			<stop  offset="0.2738" style="stop-color:#FFFFFF"/>
			<stop  offset="0.8763" style="stop-color:#FFFFFF;stop-opacity:0.42"/>
			<stop  offset="1" style="stop-color:#FFFFFF;stop-opacity:0"/>
		</radialGradient>
		<circle class="st5" cx="514.8" cy="632.7" r="20.4"/>
		
			<radialGradient id="SVGID_4_" cx="287.0557" cy="-39.2458" r="21.8962" gradientTransform="matrix(1 0 0 1 0 496)" gradientUnits="userSpaceOnUse">
			<stop  offset="0.2738" style="stop-color:#FFFFFF"/>
			<stop  offset="0.8763" style="stop-color:#FFFFFF;stop-opacity:0.42"/>
			<stop  offset="1" style="stop-color:#FFFFFF;stop-opacity:0"/>
		</radialGradient>
		<circle class="st6" cx="287" cy="456.9" r="22"/>
		
			<radialGradient id="SVGID_5_" cx="308.7686" cy="-333.624" r="22.0564" gradientTransform="matrix(1 0 0 1 0 496)" gradientUnits="userSpaceOnUse">
			<stop  offset="0.2738" style="stop-color:#FFFFFF"/>
			<stop  offset="0.8763" style="stop-color:#FFFFFF;stop-opacity:0.42"/>
			<stop  offset="1" style="stop-color:#FFFFFF;stop-opacity:0"/>
		</radialGradient>
		<circle class="st7" cx="308.7" cy="162.4" r="22.1"/>
		
			<radialGradient id="SVGID_6_" cx="162.9566" cy="58.9925" r="18.1472" gradientTransform="matrix(1 0 0 1 0 496)" gradientUnits="userSpaceOnUse">
			<stop  offset="0.2738" style="stop-color:#FFFFFF"/>
			<stop  offset="0.8763" style="stop-color:#FFFFFF;stop-opacity:0.42"/>
			<stop  offset="1" style="stop-color:#FFFFFF;stop-opacity:0"/>
		</radialGradient>
		<circle class="st8" cx="162.9" cy="554.9" r="18.2"/>
	</g>
</g>
<rect x="115.6" y="320.3" class="st9" width="543" height="187"/>
<g>
	
		<radialGradient id="SVGID_7_" cx="387.0313" cy="433.3412" r="201.5464" gradientTransform="matrix(1 0 0 0.956 0 0.4018)" gradientUnits="userSpaceOnUse">
		<stop  offset="0.495" style="stop-color:#00216A"/>
		<stop  offset="1" style="stop-color:#004C94"/>
	</radialGradient>
	<rect x="118.2" y="324.2" class="st10" width="537.7" height="181"/>
</g>
<g>
	
		<linearGradient id="SVGID_8_" gradientUnits="userSpaceOnUse" x1="387.031" y1="394.8255" x2="387.031" y2="401.1587" gradientTransform="matrix(1 0 0 1 0 104)">
		<stop  offset="0" style="stop-color:#004C94"/>
		<stop  offset="1" style="stop-color:#007EE9"/>
	</linearGradient>
	<polygon class="st11" points="118.2,505.2 129.9,498.8 644.1,498.8 655.9,505.2 	"/>
</g>
<g>
	
		<linearGradient id="SVGID_9_" gradientUnits="userSpaceOnUse" x1="644.0811" y1="310.6759" x2="655.8311" y2="310.6759" gradientTransform="matrix(1 0 0 1 0 104)">
		<stop  offset="0" style="stop-color:#004C94"/>
		<stop  offset="1" style="stop-color:#007EE9"/>
	</linearGradient>
	<polygon class="st12" points="655.9,505.2 644.1,499.1 644.1,324.2 655.9,324.2 	"/>
</g>
<g>
	
		<linearGradient id="SVGID_10_" gradientUnits="userSpaceOnUse" x1="129.9151" y1="310.6759" x2="118.1646" y2="310.6759" gradientTransform="matrix(1 0 0 1 0 104)">
		<stop  offset="0" style="stop-color:#004C94"/>
		<stop  offset="1" style="stop-color:#007EE9"/>
	</linearGradient>
	<polygon class="st13" points="118.2,505.2 129.9,499.1 129.9,324.2 118.2,324.2 	"/>
</g>
<g>
	<path class="st14" d="M233.4,486.9h-40.3l-54.2-158.1H181l32.7,112.4l32.5-112.4h42.1L233.4,486.9z"/>
	<path class="st14" d="M452,412.5c-14.8,21-37.2,22.6-60,22.6h-26.4v51.7H326V328.7h78.4c15,0,29.1,1.8,41.2,12.3
		c1.6,1.3,4.5,3.8,7.2,7.8c3.4,5.1,8.7,16.6,8.7,32.2C461.4,386.3,460.7,400,452,412.5z M417.9,366.6c-6.3-8.7-17.7-8.7-27.1-8.7
		h-25.3v47.9h24c6.9,0,9.9,0,13.4-0.7c13.9-2.2,19.5-10.7,19.3-24.2C422.2,373.3,419.9,369.5,417.9,366.6z"/>
	<path class="st14" d="M596.4,486.9L539.1,389l1.3,97.9h-38.1V328.8H541l57.8,99.2l-1.6-99.2H635v158.1L596.4,486.9L596.4,486.9z"/>
</g>
<g>
	
		<linearGradient id="SVGID_11_" gradientUnits="userSpaceOnUse" x1="213.5811" y1="231.7759" x2="213.5811" y2="389.8759" gradientTransform="matrix(1 0 0 1 0 104)">
		<stop  offset="0" style="stop-color:#FFFFFF"/>
		<stop  offset="1" style="stop-color:#909094"/>
	</linearGradient>
	<path class="st15" d="M233.4,493.9h-40.3l-54.2-158.1H181l32.7,112.4l32.5-112.4h42.1L233.4,493.9z"/>
	
		<linearGradient id="SVGID_12_" gradientUnits="userSpaceOnUse" x1="393.7312" y1="231.6759" x2="393.7312" y2="389.776" gradientTransform="matrix(1 0 0 1 0 104)">
		<stop  offset="0" style="stop-color:#FFFFFF"/>
		<stop  offset="1" style="stop-color:#909094"/>
	</linearGradient>
	<path class="st16" d="M452,419.5c-14.8,21-37.2,22.6-60,22.6h-26.4v51.7H326V335.7h78.4c15,0,29.1,1.8,41.2,12.3
		c1.6,1.3,4.5,3.8,7.2,7.8c3.4,5.1,8.7,16.6,8.7,32.2C461.4,393.3,460.7,407,452,419.5z M417.9,373.6c-6.3-8.7-17.7-8.7-27.1-8.7
		h-25.3v47.9h24c6.9,0,9.9,0,13.4-0.7c13.9-2.2,19.5-10.7,19.3-24.2C422.2,380.3,419.9,376.5,417.9,373.6z"/>
	
		<linearGradient id="SVGID_13_" gradientUnits="userSpaceOnUse" x1="568.6306" y1="231.7759" x2="568.6306" y2="389.8759" gradientTransform="matrix(1 0 0 1 0 104)">
		<stop  offset="0" style="stop-color:#FFFFFF"/>
		<stop  offset="1" style="stop-color:#909094"/>
	</linearGradient>
	<path class="st17" d="M596.4,493.9L539.1,396l1.3,97.9h-38.1V335.8H541l57.8,99.2l-1.6-99.2H635v158.1L596.4,493.9L596.4,493.9z"/>
</g>
</svg>
