<?xml version="1.0" encoding="utf-8"?>
<!-- Generator: Adobe Illustrator 21.0.0, SVG Export Plug-In . SVG Version: 6.00 Build 0)  -->
<svg version="1.1" id="图层_1" xmlns="http://www.w3.org/2000/svg" xmlns:xlink="http://www.w3.org/1999/xlink" x="0px" y="0px"
	 viewBox="0 0 860 732" style="enable-background:new 0 0 860 732;" xml:space="preserve">
<style type="text/css">
	.st0{fill:#909AA0;}
	.st1{fill:url(#SVGID_1_);}
	.st2{fill:url(#SVGID_2_);}
	.st3{fill:#F9CF7A;}
	.st4{fill:#81EF8E;}
	.st5{fill:#F46245;}
	.st6{opacity:0.54;fill:#B2B2B2;enable-background:new    ;}
	.st7{fill:url(#SVGID_3_);}
	.st8{fill:url(#SVGID_4_);}
	.st9{opacity:0.57;fill:#909AA0;enable-background:new    ;}
	.st10{fill:#FF5050;}
	.st11{fill:#C91820;}
	.st12{fill:#E1E9EC;}
	.st13{fill:#ACB3C5;}
	.st14{fill:#FFFEFD;}
</style>
<g>
	<path class="st0" d="M776.7,642H58.5c-22,0-39.8-17.8-39.8-39.8V96.4c0-22,17.8-39.8,39.8-39.8h718.2c22,0,39.8,17.8,39.8,39.8
		v505.8C816.5,624.2,798.7,642,776.7,642z"/>
	
		<linearGradient id="SVGID_1_" gradientUnits="userSpaceOnUse" x1="417.5809" y1="-80.0241" x2="417.5809" y2="505.376" gradientTransform="matrix(1 0 0 1 0 104)">
		<stop  offset="0" style="stop-color:#F5F5F5"/>
		<stop  offset="1" style="stop-color:#DDDDDD"/>
	</linearGradient>
	<path class="st1" d="M776.7,609.4H58.5c-22,0-39.8-17.8-39.8-39.8V63.8c0-22,17.8-39.8,39.8-39.8h718.2c22,0,39.8,17.8,39.8,39.8
		v505.8C816.5,591.5,798.7,609.4,776.7,609.4z"/>
	
		<linearGradient id="SVGID_2_" gradientUnits="userSpaceOnUse" x1="417.5809" y1="-80.0241" x2="417.5809" y2="32.4759" gradientTransform="matrix(1 0 0 1 0 104)">
		<stop  offset="0" style="stop-color:#F5F5F5"/>
		<stop  offset="1" style="stop-color:#DDDDDD"/>
	</linearGradient>
	<path class="st2" d="M18.7,63.8v72.7h797.8V63.8c0-22-17.8-39.8-39.8-39.8H58.5C36.5,24,18.7,41.8,18.7,63.8z"/>
	<circle class="st3" cx="96.8" cy="81" r="23.5"/>
	<circle class="st4" cx="166.8" cy="81" r="23.5"/>
	<circle class="st5" cx="228.8" cy="81" r="23.5"/>
	<circle class="st6" cx="616" cy="500" r="204"/>
	
		<linearGradient id="SVGID_3_" gradientUnits="userSpaceOnUse" x1="634.1809" y1="192.7759" x2="634.1809" y2="618.1758" gradientTransform="matrix(1 0 0 1 0 104)">
		<stop  offset="0.2921" style="stop-color:#F5F5F5"/>
		<stop  offset="1" style="stop-color:#DDDDDD"/>
	</linearGradient>
	<circle class="st7" cx="634.2" cy="509.5" r="212.7"/>
	
		<radialGradient id="SVGID_4_" cx="634.1809" cy="405.4759" r="194.4" gradientTransform="matrix(1 0 0 1 0 104)" gradientUnits="userSpaceOnUse">
		<stop  offset="0" style="stop-color:#0AC2DE"/>
		<stop  offset="1" style="stop-color:#2474D3"/>
	</radialGradient>
	<circle class="st8" cx="634.2" cy="509.5" r="194.4"/>
	<path class="st9" d="M371.9,224.4H82.4c-9.1,0-16.5-7.4-16.5-16.5l0,0c0-9.1,7.4-16.5,16.5-16.5h289.5c9.1,0,16.5,7.4,16.5,16.5
		l0,0C388.4,217,381,224.4,371.9,224.4z"/>
	<path class="st9" d="M299.9,298.8H82.4c-9.1,0-16.5-7.4-16.5-16.5l0,0c0-9.1,7.4-16.5,16.5-16.5h217.5c9.1,0,16.5,7.4,16.5,16.5
		l0,0C316.4,291.4,309,298.8,299.9,298.8z"/>
	<g>
		<g>
			<polygon class="st10" points="751.1,392.6 614.1,489.5 654.2,529.5 			"/>
			<polygon class="st11" points="654.2,529.5 751.1,392.6 634.2,509.5 			"/>
		</g>
		<g>
			<polygon class="st12" points="517.3,626.4 614.1,489.5 654.2,529.5 			"/>
			<polygon class="st13" points="654.2,529.5 517.3,626.4 634.2,509.5 			"/>
		</g>
	</g>
	<g>
		<rect x="632.7" y="315.7" class="st14" width="3" height="34"/>
		
			<rect x="638.7" y="325.2" transform="matrix(5.981867e-02 -0.9982 0.9982 5.981867e-02 283.9081 954.7706)" class="st14" width="20.2" height="3"/>
	</g>
	<g>
		
			<rect x="602.1" y="318.4" transform="matrix(0.9848 -0.1736 0.1736 0.9848 -49.0629 109.8813)" class="st14" width="3" height="34"/>
		
			<rect x="615.4" y="317.1" transform="matrix(0.9934 -0.1144 0.1144 0.9934 -33.3779 72.7186)" class="st14" width="3" height="20.2"/>
	</g>
	<g>
		
			<rect x="572.2" y="326.3" transform="matrix(0.9397 -0.342 0.342 0.9397 -82.8099 216.9007)" class="st14" width="3" height="34"/>
		
			<rect x="583.8" y="322.5" transform="matrix(0.9585 -0.2852 0.2852 0.9585 -70.5538 180.7367)" class="st14" width="3" height="20.2"/>
	</g>
	<g>
		<rect x="544.3" y="339.5" transform="matrix(0.866 -0.5 0.5 0.866 -105.1306 320.6468)" class="st14" width="3" height="34"/>
		
			<rect x="553.9" y="333.9" transform="matrix(0.8944 -0.4473 0.4473 0.8944 -95.1995 284.7373)" class="st14" width="3" height="20.2"/>
	</g>
	<g>
		
			<rect x="519.1" y="357.2" transform="matrix(0.766 -0.6428 0.6428 0.766 -118.7167 422.174)" class="st14" width="3" height="34"/>
		
			<rect x="526.5" y="350.1" transform="matrix(0.8031 -0.5958 0.5958 0.8031 -110.6829 385.4836)" class="st14" width="3" height="20.2"/>
	</g>
	<g>
		
			<rect x="497.3" y="378.7" transform="matrix(0.6428 -0.766 0.766 0.6428 -124.9723 523.4785)" class="st14" width="3" height="34"/>
		
			<rect x="502" y="370.7" transform="matrix(0.6875 -0.7262 0.7262 0.6875 -119.1621 484.6534)" class="st14" width="3" height="20.2"/>
	</g>
	<g>
		<rect x="479.6" y="404" transform="matrix(0.5 -0.866 0.866 0.5 -124.0769 627.16)" class="st14" width="3" height="34"/>
		
			<rect x="481.5" y="395.4" transform="matrix(0.5509 -0.8346 0.8346 0.5509 -121.4618 585.2161)" class="st14" width="3" height="20.2"/>
	</g>
	<g>
		
			<rect x="466.4" y="432.1" transform="matrix(0.342 -0.9397 0.9397 0.342 -114.0768 735.2017)" class="st14" width="3" height="34"/>
		
			<rect x="465.6" y="423.2" transform="matrix(0.3976 -0.9176 0.9176 0.3976 -116.1671 689.6396)" class="st14" width="3" height="20.2"/>
	</g>
	<g>
		
			<rect x="458.5" y="461.8" transform="matrix(0.1736 -0.9848 0.9848 0.1736 -91.4563 848.71)" class="st14" width="3" height="34"/>
		
			<rect x="454.9" y="453.5" transform="matrix(0.2322 -0.9727 0.9727 0.2322 -100.4476 799.8893)" class="st14" width="3" height="20.2"/>
	</g>
	<g>
		<rect x="440.3" y="508" class="st14" width="34" height="3"/>
		
			<rect x="449.9" y="484.8" transform="matrix(5.981867e-02 -0.9982 0.9982 5.981867e-02 -69.5447 915.8823)" class="st14" width="3" height="20.2"/>
	</g>
	<g>
		
			<rect x="443.1" y="538.7" transform="matrix(0.9848 -0.1736 0.1736 0.9848 -86.7945 88.0791)" class="st14" width="34" height="3"/>
		
			<rect x="441.7" y="525.5" transform="matrix(0.9934 -0.1144 0.1144 0.9934 -57.3303 55.1437)" class="st14" width="20.2" height="3"/>
	</g>
	<g>
		<rect x="451" y="568.5" transform="matrix(0.9397 -0.342 0.342 0.9397 -166.7159 194.4218)" class="st14" width="34" height="3"/>
		
			<rect x="447.3" y="556.6" transform="matrix(0.9585 -0.2852 0.2852 0.9585 -140.1771 153.625)" class="st14" width="20.2" height="3"/>
	</g>
	<g>
		<rect x="464.1" y="596.5" transform="matrix(0.866 -0.5 0.5 0.866 -234.5391 320.6486)" class="st14" width="34" height="3"/>
		
			<rect x="458.5" y="586.8" transform="matrix(0.8944 -0.4473 0.4473 0.8944 -213.6391 271.7128)" class="st14" width="20.2" height="3"/>
	</g>
	<g>
		
			<rect x="481.7" y="621.8" transform="matrix(0.766 -0.6428 0.6428 0.766 -283.9923 466.4002)" class="st14" width="34" height="3"/>
		
			<rect x="474.7" y="614.3" transform="matrix(0.8031 -0.5958 0.5958 0.8031 -271.4463 410.1022)" class="st14" width="20.2" height="3"/>
	</g>
	<g>
		
			<rect x="503.7" y="643.5" transform="matrix(0.6428 -0.766 0.766 0.6428 -308.0817 629.2095)" class="st14" width="34" height="3"/>
		
			<rect x="495.4" y="638.6" transform="matrix(0.6875 -0.7262 0.7262 0.6875 -306.8357 567.1436)" class="st14" width="20.2" height="3"/>
	</g>
	<g>
		<rect x="528.8" y="661.2" transform="matrix(0.5 -0.866 0.866 0.5 -300.9865 804.0065)" class="st14" width="34" height="3"/>
		
			<rect x="519.9" y="659" transform="matrix(0.5509 -0.8346 0.8346 0.5509 -313.1519 738.9787)" class="st14" width="20.2" height="3"/>
	</g>
	<g>
		
			<rect x="556.6" y="674.2" transform="matrix(0.342 -0.9397 0.9397 0.342 -257.5551 983.6426)" class="st14" width="34" height="3"/>
		
			<rect x="547.6" y="674.7" transform="matrix(0.3976 -0.9176 0.9176 0.3976 -284.4848 919.0992)" class="st14" width="20.2" height="3"/>
	</g>
	<g>
		
			<rect x="586.4" y="682.1" transform="matrix(0.1736 -0.9848 0.9848 0.1736 -174.574 1159.2455)" class="st14" width="34" height="3"/>
		
			<rect x="577.8" y="685.5" transform="matrix(0.2322 -0.9727 0.9727 0.2322 -216.8511 1099.2734)" class="st14" width="20.2" height="3"/>
	</g>
	<g>
		<rect x="632.7" y="669.4" class="st14" width="3" height="34"/>
		
			<rect x="609.5" y="690.7" transform="matrix(5.981867e-02 -0.9982 0.9982 5.981867e-02 -108.4274 1269.3413)" class="st14" width="20.2" height="3"/>
	</g>
	<g>
		
			<rect x="663.5" y="666.7" transform="matrix(0.9848 -0.1736 0.1736 0.9848 -108.595 125.8286)" class="st14" width="3" height="34"/>
		
			<rect x="650.1" y="682.1" transform="matrix(0.9934 -0.1144 0.1144 0.9934 -74.9175 79.0853)" class="st14" width="3" height="20.2"/>
	</g>
	<g>
		<rect x="693.1" y="658.7" transform="matrix(0.9397 -0.342 0.342 0.9397 -189.203 278.29)" class="st14" width="3" height="34"/>
		
			<rect x="681.4" y="676" transform="matrix(0.9585 -0.2852 0.2852 0.9585 -167.3195 223.2534)" class="st14" width="3" height="20.2"/>
	</g>
	<g>
		<rect x="721.1" y="645.7" transform="matrix(0.866 -0.5 0.5 0.866 -234.5374 450.1036)" class="st14" width="3" height="34"/>
		
			<rect x="711.4" y="665" transform="matrix(0.8944 -0.4473 0.4473 0.8944 -226.6635 390.1522)" class="st14" width="3" height="20.2"/>
	</g>
	<g>
		
			<rect x="746.3" y="628.1" transform="matrix(0.766 -0.6428 0.6428 0.766 -239.7316 631.6167)" class="st14" width="3" height="34"/>
		
			<rect x="739" y="648.8" transform="matrix(0.8031 -0.5958 0.5958 0.8031 -246.7876 570.9393)" class="st14" width="3" height="20.2"/>
	</g>
	<g>
		
			<rect x="768.2" y="606.2" transform="matrix(0.6428 -0.766 0.766 0.6428 -202.445 812.2267)" class="st14" width="3" height="34"/>
		
			<rect x="763.3" y="628" transform="matrix(0.6875 -0.7262 0.7262 0.6875 -224.3453 754.8172)" class="st14" width="3" height="20.2"/>
	</g>
	<g>
		<rect x="785.9" y="581" transform="matrix(0.5 -0.866 0.866 0.5 -124.1532 980.8656)" class="st14" width="3" height="34"/>
		
			<rect x="783.5" y="603.5" transform="matrix(0.5509 -0.8346 0.8346 0.5509 -159.5155 930.7159)" class="st14" width="3" height="20.2"/>
	</g>
	<g>
		<rect x="798.8" y="553" transform="matrix(0.342 -0.9397 0.9397 0.342 -9.0747 1127.1169)" class="st14" width="3" height="34"/>
		
			<rect x="799.2" y="575.7" transform="matrix(0.3976 -0.9176 0.9176 0.3976 -55.1578 1087.6279)" class="st14" width="3" height="20.2"/>
	</g>
	<g>
		
			<rect x="806.8" y="523.3" transform="matrix(0.1736 -0.9848 0.9848 0.1736 135.9348 1242.5295)" class="st14" width="3" height="34"/>
		
			<rect x="809.9" y="545.6" transform="matrix(0.2322 -0.9727 0.9727 0.2322 82.5003 1215.8322)" class="st14" width="3" height="20.2"/>
	</g>
	<g>
		<rect x="794" y="508" class="st14" width="34" height="3"/>
		
			<rect x="815.4" y="514" transform="matrix(5.981867e-02 -0.9982 0.9982 5.981867e-02 244.8385 1308.2068)" class="st14" width="3" height="20.2"/>
	</g>
	<g>
		
			<rect x="791.4" y="477.4" transform="matrix(0.9848 -0.1736 0.1736 0.9848 -70.864 147.6158)" class="st14" width="34" height="3"/>
		
			<rect x="806.6" y="490.7" transform="matrix(0.9934 -0.1144 0.1144 0.9934 -50.9528 96.671)" class="st14" width="20.2" height="3"/>
	</g>
	<g>
		
			<rect x="783.3" y="447.5" transform="matrix(0.9397 -0.342 0.342 0.9397 -105.2969 300.7689)" class="st14" width="34" height="3"/>
		
			<rect x="800.7" y="459" transform="matrix(0.9585 -0.2852 0.2852 0.9585 -97.6656 250.36)" class="st14" width="20.2" height="3"/>
	</g>
	<g>
		<rect x="770.4" y="419.7" transform="matrix(0.866 -0.5 0.5 0.866 -105.1056 450.1153)" class="st14" width="34" height="3"/>
		
			<rect x="789.6" y="429.2" transform="matrix(0.8944 -0.4473 0.4473 0.8944 -108.172 403.1995)" class="st14" width="20.2" height="3"/>
	</g>
	<g>
		<rect x="752.5" y="394.4" transform="matrix(0.766 -0.6428 0.6428 0.766 -74.435 587.3049)" class="st14" width="34" height="3"/>
		
			<rect x="773.5" y="401.7" transform="matrix(0.8031 -0.5958 0.5958 0.8031 -85.9507 546.2808)" class="st14" width="20.2" height="3"/>
	</g>
	<g>
		<rect x="731" y="372.6" transform="matrix(0.6428 -0.766 0.766 0.6428 -19.346 706.6117)" class="st14" width="34" height="3"/>
		
			<rect x="752.7" y="377.3" transform="matrix(0.6875 -0.7262 0.7262 0.6875 -36.6718 672.3269)" class="st14" width="20.2" height="3"/>
	</g>
	<g>
		<rect x="705.7" y="354.8" transform="matrix(0.5 -0.866 0.866 0.5 52.7696 804.0695)" class="st14" width="34" height="3"/>
		
			<rect x="727.9" y="356.9" transform="matrix(0.5509 -0.8346 0.8346 0.5509 32.3009 776.906)" class="st14" width="20.2" height="3"/>
	</g>
	<g>
		
			<rect x="677.5" y="341.9" transform="matrix(0.342 -0.9397 0.9397 0.342 134.2627 878.5952)" class="st14" width="34" height="3"/>
		
			<rect x="700.1" y="341.3" transform="matrix(0.3976 -0.9176 0.9176 0.3976 113.3315 858.1289)" class="st14" width="20.2" height="3"/>
	</g>
	<g>
		
			<rect x="647.9" y="333.9" transform="matrix(0.1736 -0.9848 0.9848 0.1736 219.1982 932.0298)" class="st14" width="34" height="3"/>
		
			<rect x="670" y="330.6" transform="matrix(0.2322 -0.9727 0.9727 0.2322 199.1439 916.4383)" class="st14" width="20.2" height="3"/>
	</g>
</g>
</svg>
