<?xml version="1.0" encoding="utf-8"?>
<!-- Generator: Adobe Illustrator 21.1.0, SVG Export Plug-In . SVG Version: 6.00 Build 0)  -->
<!DOCTYPE svg PUBLIC "-//W3C//DTD SVG 1.1//EN" "http://www.w3.org/Graphics/SVG/1.1/DTD/svg11.dtd">
<svg version="1.1" id="网络服务器" xmlns="http://www.w3.org/2000/svg" xmlns:xlink="http://www.w3.org/1999/xlink" x="0px"
	 y="0px" viewBox="0 0 913 903" style="enable-background:new 0 0 913 903;" xml:space="preserve">
<style type="text/css">
	.st0{fill:url(#底部_2_);}
	.st1{fill:url(#暗角反光_2_);}
	.st2{fill:url(#body-高光_2_);}
	.st3{fill:url(#顶-背景_2_);}
	.st4{fill:#043977;}
	.st5{fill:url(#面板_1_);}
	.st6{fill:#0A396F;}
	.st7{fill:url(#SVGID_1_);}
	.st8{fill:#0C1116;}
	.st9{fill:#324F60;}
	.st10{fill:url(#装饰线_2_);}
	.st11{fill:url(#高光_2_);}
	.st12{fill:url(#body_1_);}
	.st13{fill:url(#地面_1_);}
	.st14{fill:url(#光线_1_);}
	.st15{fill:url(#SVGID_2_);}
	.st16{fill:url(#SVGID_3_);}
	.st17{fill:url(#SVGID_4_);}
	.st18{fill:url(#SVGID_5_);}
	.st19{fill:url(#SVGID_6_);}
	.st20{fill:url(#SVGID_7_);}
</style>
<g id="server">
	
		<linearGradient id="底部_2_" gradientUnits="userSpaceOnUse" x1="56.3034" y1="695.4125" x2="646.9189" y2="695.4125" gradientTransform="matrix(1 0 0 -1 0 1194.5)">
		<stop  offset="0" style="stop-color:#E7EFF5"/>
		<stop  offset="0.1188" style="stop-color:#C3C5D2"/>
		<stop  offset="0.2164" style="stop-color:#C6C8D5"/>
		<stop  offset="0.2858" style="stop-color:#CED3DD"/>
		<stop  offset="0.3368" style="stop-color:#DFE6EE"/>
		<stop  offset="0.375" style="stop-color:#DDE4EC"/>
		<stop  offset="0.4851" style="stop-color:#98A5B5"/>
		<stop  offset="0.995" style="stop-color:#7E8EA0"/>
	</linearGradient>
	<path id="底部_1_" class="st0" d="M17.5,201.6v495.9c0,18,9.4,34.7,24.7,44l189.9,127.3c34.3,20.9,77.3,20.9,111.6,0l316.9-219.3
		c15.3-9.4,24.7-26.1,24.7-44V113.7L17.5,201.6z"/>
	
		<linearGradient id="暗角反光_2_" gradientUnits="userSpaceOnUse" x1="16.6228" y1="695.4125" x2="652.7068" y2="695.4125" gradientTransform="matrix(1 0 0 -1 0 1194.5)">
		<stop  offset="0" style="stop-color:#C3C6D2"/>
		<stop  offset="0.1013" style="stop-color:#C3C6D2;stop-opacity:0"/>
	</linearGradient>
	<path id="暗角反光_1_" class="st1" d="M17.5,205.6v491.9c0,18,9.4,34.7,24.7,44l189.9,127.3c34.3,20.9,77.3,20.9,111.6,0
		l316.9-219.3c15.3-9.4,24.7-26.1,24.7-44V113.7L17.5,205.6z"/>
	
		<linearGradient id="body-高光_2_" gradientUnits="userSpaceOnUse" x1="274.4" y1="523.375" x2="274.4" y2="116.7794" gradientTransform="matrix(1 0 0 1 0 288)">
		<stop  offset="0" style="stop-color:#FFFFFF;stop-opacity:0"/>
		<stop  offset="1" style="stop-color:#FFFFFF;stop-opacity:0.3"/>
	</linearGradient>
	<path id="body-高光_1_" class="st2" d="M228.1,296h68.7v588c-22.2,1.8-44.8-3.3-64.5-15.3l-4.2-2.8L228.1,296L228.1,296z
		 M304.7,295.4v587.8c5.4-0.9,10.8-2.1,16-3.8v-584L304.7,295.4L304.7,295.4z"/>
	
		<linearGradient id="顶-背景_2_" gradientUnits="userSpaceOnUse" x1="136.0733" y1="899.2235" x2="516.2923" y2="1114.3475" gradientTransform="matrix(1 0 0 -1 0 1194.5)">
		<stop  offset="0" style="stop-color:#DFE6EE"/>
		<stop  offset="0.5" style="stop-color:#F5F7F8"/>
		<stop  offset="0.995" style="stop-color:#ABB6C3"/>
	</linearGradient>
	<path id="顶-背景_1_" class="st3" d="M668.8,147.9l-323,197.4c-35.6,21.7-80.4,21.7-116,0L28.7,228.9
		c-16.9-10.3-15.1-35.4,3.1-43.2L406.2,8.9c23.4-10,49.8-10,73.1,0l185,76.5C690.7,96.8,693.3,133.1,668.8,147.9z"/>
	<path id="装饰_4_" class="st4" d="M427.4,572.3l8.7-6v190l-8.7,6V572.3z M447.4,748.5l8.7-5.9V542.5l-8.7,6V748.5z M467.4,734.8
		l8.7-5.9V518.5l-8.7,6V734.8z M487.4,721.2l8.7-5.9V494.6l-8.7,6V721.2z M507.4,707.5l8.7-5.9V470.8l-8.7,6L507.4,707.5
		L507.4,707.5z M527.4,693.8l8.7-5.9v-241l-8.7,6V693.8L527.4,693.8z M547.4,680l8.7-5.9V423l-8.7,6V680z M567.4,666.3l8.7-5.9V399
		l-8.7,6V666.3z M587.4,652.5l8.7-5.9V375l-8.7,6V652.5z M607.4,357.1v281.7l8.7-5.9V351.1L607.4,357.1z"/>
	<g id="装饰面板_1_">
		
			<linearGradient id="面板_1_" gradientUnits="userSpaceOnUse" x1="38.7875" y1="461.7867" x2="241.4542" y2="454.4535" gradientTransform="matrix(1 0 0 -1 0 994.5)">
			<stop  offset="0" style="stop-color:#3EADED"/>
			<stop  offset="1" style="stop-color:#0B528D"/>
		</linearGradient>
		<path id="面板" class="st5" d="M218.8,368.5l-140-81c-4.1-2.5-8.7-3.9-13.4-3.9c-14.3,0-26,12.1-26,26.9v167.7
			c0,7.9,4.1,15.3,10.8,19.6l62.6,39.8c18.3,11.5,29.7,32.4,29.7,54.6v140.9c0,8,4.1,15.5,11,19.8l53,31.7c4.5,3.1,9.7,4.8,15,4.8
			c13.1,0,27.2-10.7,27.1-28.1V423.1C248.5,401,237.1,380,218.8,368.5z"/>
		<g id="边">
			<path class="st6" d="M65.4,285.6c4.2,0,8.5,1.2,12.4,3.6l140,81c17.7,11.2,28.7,31.4,28.7,52.9v338.1c0.1,9.1-4,15.1-7.4,18.5
				c-4.7,4.7-11.3,7.6-17.7,7.6c-4.8,0-9.6-1.5-13.9-4.4l0,0l0,0l-53-31.7c-6.3-3.9-10-10.7-10-18.1v-141
				c0-22.8-11.7-44.4-30.6-56.3L51.3,496c-6.2-3.9-9.8-10.6-9.8-17.9V310.5C41.4,296.8,52.2,285.6,65.4,285.6 M65.4,283.6
				c-14.3,0-26,12.1-26,26.9v167.7c0,7.9,4.1,15.3,10.8,19.6l62.6,39.8c18.3,11.5,29.7,32.4,29.7,54.6v140.9c0,8,4.1,15.5,11,19.8
				l53,31.7c4.5,3.1,9.7,4.8,15,4.8c13.1,0,27.2-10.7,27.1-28.1V423.1c0-22.2-11.4-43.1-29.7-54.6l-140-81
				C74.7,285,70.1,283.6,65.4,283.6L65.4,283.6z"/>
		</g>
	</g>
	<g id="按钮_1_">
		
			<linearGradient id="SVGID_1_" gradientUnits="userSpaceOnUse" x1="50.8649" y1="334.15" x2="80.9224" y2="334.15" gradientTransform="matrix(1 0 0 1 0 288)">
			<stop  offset="0" style="stop-color:#3EADED"/>
			<stop  offset="1" style="stop-color:#0B528D"/>
		</linearGradient>
		<path class="st7" d="M78.1,698.8c-0.8,0-1.6-0.2-2.4-0.7l-23.7-16c-2.1-1.2-3.3-3.4-3.3-5.9v-19.9c0-1.7,1.5-2.8,2.8-2.8
			c0.5,0,1,0.2,1.5,0.4l25.7,16.2c2.5,1.5,4.1,4.2,4,7.2v16.8c0,1.3-0.5,2.5-1.4,3.3C80.5,698.3,79.3,698.8,78.1,698.8L78.1,698.8z
			 M78.1,643.8c-0.8,0-1.6-0.2-2.4-0.7l-23.7-16c-2.1-1.2-3.3-3.4-3.3-5.9v-19.9c0-1.7,1.5-2.8,2.8-2.8c0.5,0,1,0.2,1.5,0.4
			l25.7,16.2c2.5,1.5,4.1,4.2,4,7.2v16.8c0,1.3-0.5,2.5-1.4,3.3C80.5,643.3,79.3,643.8,78.1,643.8L78.1,643.8z M78.2,590.8
			c-0.8,0-1.6-0.2-2.4-0.7l-23.7-16c-2.1-1.3-3.3-3.5-3.3-5.9v-19.9c0-1.7,1.5-2.8,2.8-2.8c0.5,0,1,0.1,1.5,0.4l25.7,16.2
			c2.4,1.5,4,4.3,4,7.2v16.8C82.9,589,80.5,590.8,78.2,590.8z"/>
		<path class="st6" d="M51.7,546L51.7,546c0.4,0,0.8,0.1,1.2,0.4l25.7,16.2c2.3,1.4,3.7,4,3.7,6.7v16.8c0,2.6-2.2,4.2-4.2,4.2
			c-0.7,0-1.5-0.2-2.1-0.6l-23.7-16c-1.9-1.2-3-3.2-3-5.5v-19.9C49.4,547,50.6,546,51.7,546 M51.6,599c0.4,0,0.8,0.1,1.2,0.4
			l25.7,16.2c2.4,1.4,3.8,4,3.7,6.7v16.8c0,2.6-2.2,4.2-4.2,4.2c-0.7,0-1.5-0.2-2.1-0.6l-23.7-16l0,0l0,0c-1.9-1.1-3-3.1-3-5.4
			v-19.9C49.3,600,50.5,599,51.6,599 M51.6,654c0.4,0,0.8,0.1,1.2,0.4l25.7,16.2c2.4,1.4,3.8,4,3.7,6.7v16.8c0,2.6-2.2,4.2-4.2,4.2
			c-0.7,0-1.5-0.2-2.1-0.6l-23.7-16l0,0l0,0c-1.9-1.1-3-3.1-3-5.4v-19.9C49.3,655,50.5,654,51.6,654 M51.7,545
			c-1.7,0-3.3,1.4-3.3,3.3v19.9c0,2.6,1.3,4.9,3.5,6.3l23.7,16c0.8,0.5,1.8,0.8,2.6,0.8c2.7,0,5.2-2.2,5.2-5.2v-16.8
			c0-3.1-1.6-6-4.2-7.6l-25.7-16.2C52.9,545.3,52.3,545,51.7,545L51.7,545z M51.6,598c-1.7,0-3.3,1.4-3.3,3.3v19.9
			c0,2.6,1.3,5,3.5,6.3l23.7,16c0.8,0.5,1.8,0.8,2.6,0.8c2.7,0,5.2-2.2,5.2-5.2v-16.8c0.1-3.1-1.5-6-4.2-7.6l-25.7-16.2
			C52.8,598.3,52.2,598,51.6,598L51.6,598z M51.6,653c-1.7,0-3.3,1.4-3.3,3.3v19.9c0,2.6,1.3,5,3.5,6.3l23.7,16
			c0.8,0.5,1.8,0.8,2.6,0.8c2.7,0,5.2-2.2,5.2-5.2v-16.8c0.1-3.1-1.5-6-4.2-7.6l-25.7-16.2C52.8,653.3,52.2,653,51.6,653L51.6,653z"
			/>
	</g>
	<g id="USB_1_">
		<path class="st8" d="M202.9,604.8v34.5l-13-8v-34.5L202.9,604.8z M189.9,682.7l13,8v-34.5l-13-8V682.7z M189.9,732.7l13,8v-34.5
			l-13-8V732.7z"/>
		<path id="装饰_3_" class="st9" d="M193.9,599.3v34.5l-4-2.5v-34.5L193.9,599.3z M189.9,682.7l4,2.5v-34.5l-4-2.5V682.7z
			 M189.9,732.7l4,2.5v-34.5l-4-2.5V732.7z"/>
	</g>
	
		<linearGradient id="装饰线_2_" gradientUnits="userSpaceOnUse" x1="63.4" y1="113.4" x2="195.4" y2="113.4" gradientTransform="matrix(1 0 0 1 0 288)">
		<stop  offset="0" style="stop-color:#DFE6EE"/>
		<stop  offset="0.5" style="stop-color:#F5F7F8"/>
		<stop  offset="0.995" style="stop-color:#ABB6C3"/>
	</linearGradient>
	<path id="装饰线_1_" class="st10" d="M195.4,399.9v6l-132-77v-6L195.4,399.9z M63.4,347.9l132,77v-6l-132-77
		C63.4,341.9,63.4,347.9,63.4,347.9z M63.4,365.9l132,77v-6l-132-77C63.4,359.9,63.4,365.9,63.4,365.9z M63.4,384.9l132,77v-6
		l-132-77C63.4,378.9,63.4,384.9,63.4,384.9z M63.4,402.9l132,77v-6l-132-77C63.4,396.9,63.4,402.9,63.4,402.9z"/>
	
		<linearGradient id="高光_2_" gradientUnits="userSpaceOnUse" x1="81" y1="303.863" x2="81" y2="-21.3864" gradientTransform="matrix(1 0 0 1 0 288)">
		<stop  offset="0" style="stop-color:#FFFFFF;stop-opacity:0"/>
		<stop  offset="1" style="stop-color:#FFFFFF;stop-opacity:0.5"/>
	</linearGradient>
	<polygon id="高光_1_" class="st11" points="99.4,624.8 62.7,624.8 62.6,248.6 99.4,270.1 	"/>
</g>
<g id="地球">
	
		<radialGradient id="body_1_" cx="611.1386" cy="611.715" r="269.3" gradientTransform="matrix(1 0 0 -1 0 1190.5)" gradientUnits="userSpaceOnUse">
		<stop  offset="0.1458" style="stop-color:#91D9FF"/>
		<stop  offset="0.8886" style="stop-color:#1156A3"/>
		<stop  offset="1" style="stop-color:#0A396F"/>
	</radialGradient>
	<path id="body" class="st12" d="M665.1,884.5c-129.5,0-234.9-105.4-234.9-234.9s105.3-235.1,234.9-235.1S900,520,900,649.5
		S794.7,884.5,665.1,884.5z"/>
	
		<radialGradient id="地面_1_" cx="592.3928" cy="626.0052" r="292.1112" fx="694.2477" fy="625.1986" gradientTransform="matrix(1 0 0 -1 0 1190.5)" gradientUnits="userSpaceOnUse">
		<stop  offset="0.155" style="stop-color:#F3F5F7;stop-opacity:0.8"/>
		<stop  offset="0.7377" style="stop-color:#D5D9DF;stop-opacity:0.3"/>
		<stop  offset="1" style="stop-color:#D4D8DE;stop-opacity:0"/>
	</radialGradient>
	<path id="地面" class="st13" d="M548.1,835.2h-0.2l-0.8-0.8l0,0l-0.4-0.7l-0.7,0.2v-0.1l-0.4-0.7l-0.5-0.5v-0.1l-0.3-0.4v-1.7
		l0.7-0.3v-1.8l-0.4-0.1l0.2-0.5l-1.1-1.3v-1.2l0,0V825v-0.4l0.8-0.8l-0.1-0.8l0.7-0.2l0.9-0.9v-1.2l0.5-0.3h0.3l0.4-1.5l0.5-0.4
		l0.7-2l-0.1-0.4l0.1-0.3v-0.5l-0.4-0.9v-0.2l-0.5-1.9v-1l-0.2-0.2l0.7-0.4l-0.9-1l1.1-1.4l-0.1-0.1l1.2-1l-0.3-0.5h0.5l0.7-0.4
		l0.3,0.5l0.7-0.7h2.1V806l0.1,0.1l0.2-0.3l0.4,0.4h1.4l1-1.4l0,0l1.5-0.7l0.3-1.1v-0.1l0.9-0.9l0.4,0.5l1.6-1.6v-1.1l0.9-0.9
		l-0.3-0.3l0.5-0.8v-0.1h0.4l1.1-1.4v-1l0.5-0.7v-0.1l0.8,0.5v1.2l0.4,0.7v0.8l-0.5,0.5l0.5,1.5v1.4l0.7,0.8l-0.1,0.1l-0.3-0.4H564
		v2.8l-0.4,0.4l0.8,0.8l-0.3,0.4v0.4l-1,0.9v1.6l0.3,0.3l-0.2,0.3L563,810l-0.3,1.3l-0.3,1.6l-0.7,1.1l-0.2,0.7l-0.4,1.2v0.9
		l-0.5,0.7l-0.9,3l-1,1.2l-0.4,1.5l-0.1,0.5l-0.4,1.1l-0.5,2.1l-0.1,0.2H556v1.5l-1.3,0.8l0.8,0.8l-0.5,0.3v0.8l-0.3,0.8l-0.3,0.7
		l-0.5,0.5l-0.4,0.2l-0.7-0.1l-2.6,0.2l-0.5,0.9l-0.4,0.2h-0.9L548.1,835.2L548.1,835.2z M514.4,820
		C464.6,776.7,436,714.3,436,648.2c0-3.6,0.1-7.3,0.2-10.9l1.1,1.3l1.7,1.1l0.2-0.1l1.1,1.1l0.5-0.5l0.2,0.2l1.2,1h0.4l0.3,0.1
		l0.8,0.8l2.3,0.3l2.1-0.2l0.8,0.2h1.6l1.1,0.7l1.6,0.2l0.2,0.4v0.8l1.1,2.5l1.6,1.1h2l0.1-0.1l0.5,0.1l2.3,0.8l1.3,0.5l0.8,0.5
		l1.3,1.2l2.1,1l1.3-0.5l1.3-1l1.3-1.3l0.4-1.2l-0.4-1.9l-0.5-0.7l0.1-1l0.2-0.2l0.3-0.9l0.4-0.4l1-0.5l1.9-0.3l0.7-0.5l1,0.3
		l0.2-0.2l1.1,0.2h0.5l2.3,1.3v-0.9h0.4l0.2,0.2l2.8,0.3l0.5-0.2h0.1l0.3,0.3l0.8,2.3l1.1-1.1l0.8,0.1l2.6,0.3l0.8,0.2l1.4,1.2
		l0.5-0.5l0.9,0.3h1.6l1.1,0.7h1.9l1.1-1.1l0.9-0.3l0.4-0.4h0.1l0.4,0.4l1.2-0.4h2.1l0.3,0.8l0.7,0.3l0.5,1.3l-0.2-0.2l-1.3,1.5v1.4
		l0.7,0.9v0.7l1.4,1.7l0.3,0.8l1.7,1.9v0.1l-0.2,0.4v1.3l1.1,1.2v0.4l0.3,0.3l0.2,1l0.2,0.5v1.2l2.1,3.2l0.4,1.2l0.9,0.3l1,1.4
		l0.3,1l0.5,0.5v0.7l0.2,0.2l-0.3,0.3l1.1,2.7l1.3,1.1h0.7l0.1,0.3l1,0.4l1,1l0.2,0.1v0.7l0.3,0.3v0.3l0.3,0.3v0.3l0.4,0.4l0.1,0.3
		l-0.1,0.1v1.3l0.8,2.5l0.2,1l-0.2,1.2l0.3,2l1,1.6l1,0.4l0.9,0.4v1h-1.3l2.4,2.4l1.2,3.3l0.9,3.4h0.3v0.4l0.4,0.4l0.2,0.4l0.4,1.2
		l2.6,1.1v-0.1l0.3,0.3l0.3-0.3l0.3,0.3l0.3-0.3l0.3,0.3l0.9,0.3l0.1,0.1l1.1,1.2l0.9,0.9l0.7,0.3l0.9,0.9h0.3l0.4,0.9l0.3,0.3l0,0
		l0.9,2.1h0.9l1.2,0.4l0.2,0.2l0.1,0.3l-0.2,0.2h-0.5l-0.3,0.7h-3l2.5,2.5h1l0.5-0.2l2,2.2l0.4,1.2h0.5l0.5,0.5l1.3,0.5l1.4-0.4
		l0.4-0.4l0.4-0.3h0.7l0.8-0.5l0,0h2l0.1-0.1l0.4,0.1l1.3-0.4l2-1.3l0.2-0.1l0.7,0.3l0.9-0.3h0.8l0.9-0.3h0.4l0.3,0.3h0.8l2.1-0.3
		l0.9-0.4h0.1l0.5,0.5l0.9-0.9l0.9-0.3l0.5-0.5h1.6l-0.5,0.5l0.7,0.7l-0.4,1.1l0.7,0.7v0.1l-0.8,1.7h0.3l-2.6,2.6h1.3v0.4l-1,1.6
		l-0.7,1.6l-0.2,0.2h-0.3l-1.3,1.3v1l0.1,0.3l-2,3.7v0.9l-1.1,1.9v0.3l-2.1,2.8l-0.2,0.7l-0.7,0.7l-1.7,2l-3.4,3.1l-1.3,1.1
		l-1.1,0.3l-1,0.9l-1.1,0.9l-2.1,2.3l-0.7,0.3l-2,2.1l-0.4,0.4l-0.2,0.4l-0.4,0.2l-1,1l-0.3,0.8l-0.5,0.7v-1.6l-2.7,3.1h-0.2
		l-0.9,0.9l-0.3,0.1l-0.8-0.1H536l-0.9,0.9v0.3l-0.7,0.7v1.4l-1.1,1.1v0.9l-0.5,0.9l-0.9,1.5l-0.1,0.1h-3l1.7,1.7l0,0l-0.8,2.4
		l-0.8,1.4v1.5l0.5,0.4l0.2,1.1l-0.5,0.5l-0.4,1.1v1.9l0.5,0.5l-0.3,0.3l0.3,0.7h-1.3l2,2l0.2,0.5l-0.3,0.8l0.7,0.7l0.1,0.2l-0.4,1
		l1.7,1.7l0.9,0.3l0.2,0.2v0.3l0,0l-0.8,0.8l0.3,0.3l-0.3,0.3v1.1l-0.1,0.1l0.4,1.7v0.1l-0.1,0.1v1.7l0.2,0.2l-0.3,0.3l0.4,1.2
		l-0.1,0.7h-2l1.1,1.1v1.1l0.9,0.9h0.2l0.1,0.3l0.1,0.7l-0.9,0.9l0.1,0.1l-1.1,1.1l1.1,1.1l-0.2,0.3v0.3l-0.1,0.1h-1.3v1.1l-1.4,0.7
		h-0.8l-0.4,1l-1.2,0.7l-1.7-0.7v1.1l-0.2,0.1l-0.7,0.4l-1.5-1.5v0.8l-0.2-0.7l-1.1,3.4l-0.2,0.2l-0.2,0.5l-1.4,0.8v0.4l-0.2,0.2
		H519l-2.8,1.7l0.1,0.3H516l-0.1,0.1l-0.2-0.1h-1.5v1.9l0.2,0.2l-0.4,0.5l0.4,1l-0.3,0.9l0.8,1.1l-0.5,0.5V820z M745.7,770.3h-1.2
		l-2-2h-0.8v-0.5l-1.9-1l-1-1.3l-0.3-0.1v-0.7l-1-0.5v-0.7l-1.4-0.2l-0.2-0.7l-1.3-1.5l-0.9-0.5l-0.2-0.3l0.3-1.1l-1.4-2.2l-0.3-1.7
		l-0.8-0.8l-0.3-0.8v-1.1l-1.6-1l-0.5-0.1v-0.2l-0.7-1.9v-0.2L728,748l-0.2-0.1v-1.4h-1.2l-0.2-0.1l-0.9-1.4h-0.8l-0.1-0.4l-0.1-0.1
		v-1.9h-1.1l-0.7-0.4l-1-1.9l-2-1.4l-0.4,0.3l-0.9-1.2H718l-1.1-1.4l-0.7-0.2l-0.5-1v-0.2h0.1l1.4,1.2l1.2,0.4l1.1-0.3h0.2l0.4,0.4
		l1.2-0.4h0.1h0.1l0.5,1.1h0.2l0.2,0.9l0.5,0.1v0.2v1.7h1.6l0.9,0.9h0.8l1.2,1l0.7,0.9h0.5v0.9l1.5,2.5h-0.7l3.8,1.5v0.2l1.4,1
		l0.5-0.3l0.9,0.9v0.9l1.5,1.7l0.3-0.1l-1.5,1.5h3.3l-3.6,4.8l4.2-2.5v0.2l1.6,1.6h0.8v0.9l1.1-0.4v0.1l0.1,0.4l-0.1,0.4l1.2,0.3
		L744,760l0.4,0.5v1.2l1.9,0.7l0.5-0.2l0,0l0.4,0.4l0.4,0.5l0.5,0.5l-0.2,0.1l-0.3,2.4l0.2,0.2l-0.5,1.1l0.4,1.1l-0.3,1.4l-1.5-0.3
		l-0.3,1L745.7,770.3z M793.6,769.3l0.5-0.7v-0.8l0.3-0.3h0.3v0.2l-0.1,0.5l-0.5,0.5v1.3h-0.4l-0.1,0.1V769.3z M800.8,765.8
		l-1.4-0.7l-0.4-0.4l0.4-0.3v-1.6l-0.7-1.1l-1-1l-1.9,0.7l-0.3,0.5l-1,0.7v1.2l0.4,0.8l0.2,0.4l-0.9,1.9l-0.7-1.3V764h-2v-0.1h0.1
		v-0.8V763l1.1-0.5v-1.1l0.3-0.3v-0.8l0.2-0.3l-0.1-1.1l0.5-0.8l-0.3-0.8l0.3-0.1l0.4-0.7l0.1-0.1v0.1l0.9,1.2l1.1,1.1l0.7,0.2
		l1.2,0.4v0.9l0.9,0.7l0.3,0.7l0.8,0.8l0.4,1.2l-0.8,1.1h0.7l0.5,1.7l0.4,0.1v0.4h0.4v0.1l-0.7,0.1l-0.3,0.3v-1.6L800.8,765.8
		L800.8,765.8z M778.3,765l-1-1.3H777l-0.2-0.7l-0.9,0.3l-1.1-1.5l-0.3,0.7l-0.8,0.1l-0.3-0.4h-1.9l-0.2,0.8l-0.7,0.2l-0.4-0.3
		l-0.7,0.4v-1.1l-1-2.1l-1.1,1.6l-0.2-0.1l-0.9,0.5h-0.1l-0.3-0.3h-0.5l-0.3-1.1l-0.9,0.7v-2.1l-0.3-0.2l0.3-0.4v-1.5l-0.7-0.7
		l-0.7-0.9h0.1l5.7-5.7l-6.7,3.3h-0.2l-0.9-0.9l-0.5-0.8v-0.7l0.1-0.7v-0.7l0.3-0.4l0.8-1.3l0.5,0.8h1.4l1.2,0.7l2.8,0.5v-1.4l0.4-1
		v-0.8l0.7,0.3V746l3.6,1.9l-2.3-3.5l2-0.5l1.2-0.8l0.9-1.3l0.1-0.3l0.9-1l1.5-1.5v-0.8l0.1-0.2l1-0.2v3.9l2.1-4l0.3-0.1l0.1-0.1
		l0.7-0.1l0.4-1.2l0,0l1.9-1.9v-0.9l0.3-0.8h0.5l0.1-0.5h0.4l0.4-0.3l0.8,1.2v1.5h0.9l0.2,0.1l0.9,1.1v1.9l-2-1.6v2h-0.4v0.9l-2.1,1
		l1.5,0.5l-0.2,0.2l0.7,1.3l-0.8,1.1l1.2,0.8l0.1,0.7l0.9,0.9l-2,1.4l1.3,0.7l0.5,2.4l-0.9,1.2l-0.4,0.1v1.7l-0.4,0.4v1.1l-1,0.8
		l0.1,0.5h-4l2.8,1.9L782,758h-2.7l1.4,1.4l-3.4,3.4l3.2-1.3v2.3l-0.5,1l-0.7,0.4h-0.7l-0.7,0.2L778.3,765L778.3,765L778.3,765z
		 M816.1,764.5L816.1,764.5v-0.2h0.4l0.2,0.1l0,0H816L816.1,764.5L816.1,764.5z M799.3,758l0.3-0.9l0.2-0.2l0.5,0.4l0.9-0.2h0.5
		l0.5-0.3l-0.1,0.1l-0.5,0.4l-1.4,0.4l-0.3,0.3H799.3z M797.9,750.8l-0.2-0.1l0.9-0.9l0.4,0.7l0.2,0.1l-0.8,0.2H797.9z M740.1,748.3
		l-0.5-0.2l-1-0.2l-0.7-0.7l1.1-0.8h-1.9l-0.4-0.4l-1.1,0.4l-1.7-2.1l0.3-0.3l-0.8-1.7l-0.9-0.3l-0.5-0.7l-0.5-0.4l0.4-0.4l-1.1-1.1
		l0.1-0.1l0.4-1.7l-0.4-1l-0.2-0.7l-0.3-2.7l-0.9-1.4l-0.4-0.4l-0.8-0.4v-1.4h-0.7l-0.2-0.4l-0.5-0.2l-1.2-1.4h-0.3l-0.2-0.9
		l-0.5-0.2V726l-0.3-0.3v-1.5l-1.3,0.5v-0.1l0.1-0.1v-2.8h-0.4l0.3-0.3l-0.3-0.3l0,0l0,0l-0.1-0.1l0.5-1.4l0.2,0.7v0.4l0.5,0.7
		l-0.3,0.8l1.2,1.2l2.1-0.4v0.4l0.9,0.9l0.3,0.7h0.4l0,0v0.9l0.3,0.3l-1.3,0.5v2.2l1.7,0.5l2.1,2.1l0.8-0.8h1l0,0l0.1,0.3l0.4,1.2
		l0.4,0.2v0.7h2.1l0.1,0.1l2.3,2.3l0.5,0.9l0.1,0.4l-0.2,0.2v1.9l-0.3,0.3v1.6l0.3,0.3v0.8l-1.3,0.8l2,2l0,0l0.3,0.9l0.4,0.4v0.3
		l0.4,0.4l0.4,0.9v0.7l-1-1v1.5l-0.2,0.2L740.1,748.3z M732.2,746.3l0.2-0.9h0.1l0.7-0.7l0.1,1.5L732.2,746.3L732.2,746.3z
		 M730.5,746.3l0.3-0.5l0.5,0.5H730.5z M788.8,735.2L788.8,735.2L788.8,735.2L788.8,735.2z M810.1,731.5h-0.9l0,0l-0.2-0.7v-0.2
		l2,1.3l-0.1,0.1L810.1,731.5z M666.3,731.7l-0.4-1.7l-0.4-1.1l0.2-0.3l-0.4-1.1v-0.7l0.2-1.1h2.5v0.3h0.9l0.1,0.2l0.8,1.7h0.1
		l-0.1,0.5l0.2,0.2v1.2v0.1l-0.5,0.9l-0.5,0.5l-0.5,0.2H667l-0.4,0.2L666.3,731.7z M809.1,727.8l-0.3-0.4l-0.8-0.9l1-0.4V726l2-1
		v-0.4l0.3,0.3l0.8-1.1l1,0.8v-2.3l0.5,0.5l-0.3,0.8l0.5,1.6h0.1v2l-1.6,0.3l-1,2l-0.3,1.4l0.7,0.4l-0.3,0.3L809.1,727.8z
		 M814.9,727.8L814.9,727.8L814.9,727.8L814.9,727.8L814.9,727.8z M805.3,725h0.3l-0.2,0.3L805.3,725z M665.5,724h0.7v-1.2h0.4v0.1
		v1.2h0.2l-1.4,0.9L665.5,724L665.5,724z M654.3,723.8l-0.5-0.4l-0.7-0.9l-1-2.1v-1.1l-0.3-1.5l-0.7-1.1v-1.6h-0.5V715l-0.3-1.2
		l-1-1.3l-1.1-1.3h-0.3l-0.3-0.3l-0.3-0.9l-0.2-0.2l-0.2-1l-0.3-0.8l-0.7-1.5l-0.2-0.8l-0.5-1.2v-2h-0.9l-0.2-0.2v-0.9h-0.8
		l-0.2-0.4v-0.4l-0.4-0.4l-0.3-1.1l-0.8-0.3l-0.4-0.9V696l-1.2-2.6v-0.3h1l-1.7-2.6l0.4-0.4l-0.4-1.2v-0.8l-0.9-2V686l2.3-1l-2.4-1
		l0.2-0.4v-1.2l-0.4-1.2l-0.2-0.2l-0.1-0.3h0.1l0.1-0.1h6.3l-6-2.4l4.7-4.7l-4.9,2l-0.3-0.3l-0.3,0.1l-2-4.8v6.3l-1,1.7l0.9,0.9v0.2
		l-0.8,0.8v0.1l-0.5,0.3l-1.7,1.1l-0.3,0.1l-0.5-0.1l-2.4-1.7l-0.8-0.9v-1h-0.1V678l0.5-0.5h0.3l0.7-0.9h3.8l1.2-2.8h-3.4v0.8
		l-1.1,0.7l-2-0.7l-0.7-0.9l0.2-0.2l0.4-0.2l-0.8-2.1l-1,0.3l-0.7,0.5l-1.1-0.7h-1.1l-0.2-0.5v-0.1l-0.1-0.1l0,0l0,0l-0.3-0.3
		l-0.3-1.1l-0.5-0.5V667l-1.5,0.5v-0.1h-1.1l-0.4-1.2l-1.2-1.2h-1.5l-0.5,0.2l-0.2-0.1l-0.9-0.9L614,665h-0.3l-0.4,0.2l-0.4-0.2H611
		l-0.5,0.5l-0.2-0.2h-0.7l-0.3-0.3h-1.5l-0.4-0.2l-1.1,1.1v0.3H605l-0.7,0.3h-0.8v-0.3h-2.1l-0.4,0.4l-0.1,0.1l-0.7-0.2l-0.2-0.1
		l-0.3-1H598l-0.2,0.4l-0.5-0.2l-0.3,0.3l-0.2-0.1H595l-0.9-0.3l-1.5,0.2l-0.8-0.7h-1.1l-0.2,0.2l-0.2-0.2h-2.4v-0.5l-0.8-1.4
		l-0.3-1.2l-0.5-0.8v-0.4H586l0,0l-2.3-0.5l-1.2,0.4l-0.7,0.5h-0.7l-1.5,1l-0.5,0.4l-0.8-0.5l-1.6-0.4l-0.9,0.3l-0.8-0.5h-0.9
		l-0.9-0.3l0.2-0.2l-1.4-1.4h-0.7l-0.3-0.3h-1l-0.1-0.1l-1.4-0.4l-1,0.2l-0.7-1.7l-0.9-2.3l-0.7,0.7l-0.2-0.2h-2.6l-0.3-0.7h-0.9
		l-0.2-0.5l-1-1.4v-0.5l-1-1.1l-1.1-1.1l-0.7,0.7l-0.3-0.9l-0.9,0.9l-0.3-0.3h-0.4v-2l-2,2h-4.5l3.4,1.3l-0.1,0.3v0.8l0.1,0.5
		l-3.5,0.5l2.6,1.7h-0.9l2.4,2.4v0.1l0.4,0.4l0.2,0.4l0.9,2.3l1.2,0.3l0,0l1.3,1.3h0.2l0.4,0.5l1.5,3.9l1.7,2l0.3,0.9l1.6,1.6
		l0.9-0.9v0.8h0.7l0.4,1h0.5l0.1,0.1l0.3,1.9l1.7-0.7h0.3l1.1,0.4l1.3-1.2l0.9,0.2l0.3-0.1l0.3,0.3h1.3l1.2-0.4l0.1-0.1h0.9v-0.5
		l2.1-2.1l-0.8-0.8l1.7-1.7l0.3,0.3l0.3,2.1l1.3,1.5l0.3,0.3l2,1.7l1.5,0.7l0.4-0.4h0.1l1.7,0.3l0.8-0.3h3.5l0.4,0.7l0.3,1l0.8,0.8
		l0.3,0.8l1.6,1.1l0.2,0.1l-0.1,0.3v0.3l-0.1,0.3l-1.1,1.6l-0.8,0.8l-0.2,0.4L591,682l-0.4,0.4v-3.7l-1.9,4.7h-1.2l0.9,0.9l-0.8,2
		h0.9l0.1,0.3l-0.7,0.1l-0.2-0.2l-1.6,0.7l-1.5,2.1v0.7l-1.1,0.4H583l-1.2,1.2v1.6l-0.1,0.1l-0.4-0.2l-0.9,0.3h-0.8l-1.1,0.7h-1.1
		l-0.1,0.3l-0.3-0.3l-0.9,0.9l-0.4,0.1l-1.5,0.3l-1.4,1.6l-0.5,1.3l-0.7,0.1l-0.9,0.9l-1,0.5l-2.1,0.3l-0.3,0.3l-3.1,1h-0.3
		l-1.2,0.4l-0.8,1.3l-0.1,0.1l-0.4-0.4l-0.8,0.8l0,0H559l-1.9,1.4v0.1l-0.8,0.2l-1.2,0.5l0,0l-0.4-0.4h-0.9l-0.3-0.3h-1.6l-1.4,1.4
		l-0.1,0.3l-0.7,0.9h-1.6l-0.9,0.9h-0.1l-1.1-0.3l-0.1,0.1l-0.1-0.3l-0.7-0.7l0.1-0.1v-2.1l-0.9-0.8l-0.2-3l-0.5-0.7v-0.1h0.3v-2
		l-0.3-2l-0.3-0.8l-0.9-2.3l-1-0.2l-0.3-1.7h-0.8l-1.7-1.7v-1.1l-0.9-0.3l-0.7-2.3l0.4-1.1l-1-0.4v-0.4l-1.4-1.2l-0.3-0.8h-1.2
		l-0.3-0.1l-2.4-2.4l-0.2-1l-0.3-1.2v-0.1l0.4-2l-0.5-0.5l-0.3-1.1l-0.7-0.7l-0.3-1.1l-0.3-0.3l-0.4-1.2h-0.3l-0.1-0.2l-0.9-1.1
		l-1.2-0.8l-1.4-1.4l-0.3,0.3l-0.1-0.1l0.3-0.3l-0.7-2l-0.8-0.3l-0.7-1.5l-0.9-0.3l-0.3-0.9l-0.7-0.3v-0.1v-0.8l-1.2-2.6h-0.5
		l-0.2-0.2l-0.3-0.7l-0.3-0.3l-0.2-0.7l-1-1.2l0.8-0.8l-2.5-1v-2.1l0.3-0.7v-6.1l-2.3,5.8l-0.3,0.3l-0.9,2.2v0.8l-0.3,0.9l-1.2-1.2
		l-0.4-1l-0.9-0.3l0,0v-1l-1.2-1.1v-0.2l-0.3-0.3v-3.2l1.7-0.3l2.3,0.4l1.5-0.5l0.4-1.1l0.8-1.2l1-2.1l0.2-2.2l1-1v-0.9l1.3-1.6
		l0.3-2.6l0.3-1.3v-1.4l0.3-0.9l-0.4-1.3l-0.7-1.1l0,0l0.9-0.9l-0.9-0.9l1.1-1.1v-1.8l-2.1-0.9l-1.3,1.3l-0.1-0.1l-1.4-0.8h-1.1
		l-2,2.3l-0.1,0.2H510l-0.9,0.3l-2.5,0.2l-0.4-0.3l-1.4-1.5h-1l-1.6-0.7l-1.4-0.3l-2.7,0.7l0.4,1.2l0,0l-0.2-0.1l-0.4,0.4h-0.3
		l-0.4,0.4H497l-0.5-0.2v-1.5h-2.2l0.7-0.7h-2.2v-0.8l-0.5,0.5l-0.7-0.7l0.4-0.4l-0.8-1.7l-1.5-0.7l-0.4,0.2l-0.1-0.1l0.1-0.3
		l5.6-2.2h-4.6v-2.1l-1.1,0.4l-0.2-0.5l2.1-2.1h-3.5l-0.2,0.1l-0.2-0.2l0,0v-0.2l-0.1-0.1l0.5-1.2l0.4,1l1.3-0.5l0.4,0.2h2l2.4-1
		l-0.5-0.5h0.4l1.7-1.7l-0.3-0.1l0,0l0,0l1.9,0.7h2.4v-0.9l0.1-0.1l0.3-0.7l0.7-0.7l0.9-0.3l0.2-0.5l0.5-0.1h0.8l1.7-0.8l0.4-0.2
		h1.9l0.4-0.2l0.4,0.2h1.5h0.1l2.1,2.1l0.3-0.3l0.3,0.3l0.9-0.9l0.1,0.2l1,1l1.5,0.7l0.3-0.3l0.7,0.4l0.8,0.3l1.9,1.1l0.1-0.1
		l0.1,0.1l1.7,0.4l1.6-0.8h1.1l0.2-0.1l0.1,0.1h2.7l0.2,0.2l2.2,0.4l0.3-0.3h1.1l0.4-1.1l0.9-0.5l1-1l0.3-0.9l0.9-0.9l-0.3-0.7
		l0.3-0.4l-1.1-1.6l-0.2-1.2l-0.3-0.9l-1-1.5l-0.3-0.1l0,0l-2-1.6l-0.3,0.3l-0.2-0.1l-0.9-0.9h-0.5l-0.3-0.1l-0.4-0.4h-1l-0.3-0.1
		l-0.3-0.3l-0.4-0.2l-0.2-0.5l-2.3-1.9l-0.9-0.3l-1.5-0.9l-1,0.2v-0.7l-0.3-0.3l0.1-0.1l1.1,0.4l0.9-2.6l-0.3-0.3l1.7-1.7v-1.4
		l-0.7-0.2l0.8-1.7l1.5-0.7l0.7-1.7l-1.3-1.3l-1.7,0.5l-0.3,0.3l-0.2-0.1h-1.6l-0.7,0.3h-1l-0.8,0.8l-0.1,0.2H516l-0.4,1.2l-0.2,0.2
		h-0.8l-0.5,0.2l-0.9-0.3l-0.3,0.1l-0.2-0.4H509l1.1,1.1l-0.1,0.1l-0.7,0.9l-0.7,0.2l-0.1,0.1l0,0l-1.2-0.4l-0.3,0.3l-0.7-0.3
		l-0.7,0.7l-0.7-0.7l-0.4,1.2l-0.8-0.3l-0.5,0.2l0.1-0.1l-0.5-0.2l-0.5-1.5l-0.4,0.1h-0.1l-1.2-1.2l-0.8,0.8l-0.8-0.8l-1.1,1.1h-0.4
		l-1.5,0.5v1.2l-0.1,0.1h-2.4l0,0l0,0l0,0l0,0v4l0,0l-0.8,0.8l0.7,0.7l-0.2,0.2l-0.2,0.1h-1.6l-0.4,1.2l-0.7,0.7l0.4,1.2v0.4
		l-0.3,0.9l0.3,0.9v1.6l-0.1,0.5h-0.4l-1.6,1.3l0.3,1.9l-0.1,0.1l-0.7,0.5h-1.6l2.2,2.6l0.5,0.5l0.3,1.1l1.1,1.1l0,0l-0.3,0.3h-0.9
		l-1.1,0.4l0.1-0.2l-1.9,1.6l-0.8-0.9l-0.3,0.3l-0.1-0.3l-1.5-0.5h-0.7l-0.3-0.7h-2.1v0.8l-0.8-0.8l-1.9,0.8l-0.2,0.7L477,608
		l-0.9,0.9l-0.4-1.1l-2.2,0.9l-0.5,1.5l0.2,1l-0.7,0.7l1.7,1.9l-1.3,1.4l0.8,0.3l-0.4,0.2l-0.1-0.1l-0.1,0.1l-0.3,0.1l-0.5-0.8v-1
		h-0.9l-0.4-0.5l-0.8-0.5v-1l-1-0.4l-0.8-1.7h-0.7l-0.3-0.8v0.2l0.3-0.9l-0.3-1.2l0.2-1l0.2-0.2l0.7-1.6l-1.5-1.3l-0.4-0.2l-0.2-0.4
		l-1.5-1.9l-0.8-0.3l-0.1-0.1l-1.4-1.6l-0.4,0.4l-2.6-2.6l-1-0.4h-0.3l-3.7-3.7h-0.3L454,592l-0.5-0.5l-0.3-0.9l-0.8-0.8l-0.4-1.2
		h-1.9l-0.7,0.7v-1.4l-2.7-1.1l-1.2,1.2h-0.7l-0.5,0.5c3.2-11.5,7.2-22.7,12.1-33.6v0.1l2.3,0.4l0.5,0.5l1.6-0.5l1.3-1l3.5,0.2
		l4.8-0.4l-0.5-2l0.4-1l-0.9-0.9l-0.3-0.7l-0.9-0.9l-1.5,0.3l-0.2-0.1l-1.1-1.5l-0.7,0.2l-0.1-0.2v-1.5l-0.3-0.3l-0.1-0.3l0.5-0.2
		v-1.6l0.3-0.3l0.8,0.8v-2.8l0.3-0.1h0.9l0.4-0.4l0.5-0.2l1.2,1.4l0.3,0.8l1.2,1.2h1.9l1-2.3l0.3-1.4l-0.3-1.6v-1.3l0.3-2l-1-2.5
		l-1.2,1.2l0.9-2.1H472l0.4-1.1l0.8-0.3l0.3,0.3l1.3-0.5l0.1,0.1l1-0.4l0.4,0.2h1.1l1.1,0.7h4.6v-1.2l0.2-0.5l0,0l1,1v-1.3l1.6-0.7
		l-0.7-0.3l0.5-0.5l0.1-0.2l1,0.3l0.9-2.3l-1.5-1.5h-1.5l-0.2-0.4h-0.1v-0.4l-1.4-1.6l-0.8,1c0,0-0.1,0.1-0.2,0.3l0,0h0.2l-0.5,0.5
		l-0.9-0.9l-1.3,1.3l-0.2-0.1l-1,0.3l-1-1L477,522l-0.1,0.3l-0.4-0.4v1.2l-0.8,0.7l-0.2-0.2l-1.3,1.3H474l-1.5-0.5
		c6.4-9.9,13.8-19.5,21.6-28.3l-0.4,1.2l1,0.4v0.1l0.9,0.9v0.7l0.7,0.7v0.4l0.2,0.4l-1,2.5l2.1-0.7v0.1l2.3,1.3l0.4-0.4l0.2,0.1v0.4
		l0.9,0.9h1.1l0.3,0.3h0.9l0.7,0.7h1.2l0.7-0.7h0.7l0.9-0.9v-2.3l-0.4-0.2v-0.7l0.7,0.3l1.9,1.9l0.8-2.1l0.9-0.9l0,0l0,0l1.6-1.6
		l-1.4-2.1l-1.4-1.4l-0.1-0.4v-1.5l-1.7,0.4l-0.5,0.2h-1.1l-0.3,0.3l-1,0.2l-1.6-0.2l-0.8-0.2l-1-1l-1,0.4l-0.4-0.2H500l-0.1-0.1
		l-1.3-0.5l-0.3,0.1v-1.2l-0.3,0.1c2.5-2.6,5-5.2,7.7-7.8h0.1l0.9,0.9l0.7-0.3l3.1,2v-0.8l0,0l0.2,0.2l0.4,0.4l0.3,0.7l1.1,1.1v0.8
		l-0.2,0.7l-1.6,4l3.7-2.7l0.4-1.2l0.7,0.7l0.8-0.2l-1.9,4.5l3.6-3.6l0.1,0.3l3.3,3.3l-1.2-4.9l-0.1-0.2l0.1-0.1v-1.7l0.4-1.2
		l-0.1-0.1l0.4-0.4l-0.3-0.3l0.3-0.3l-1.6-1.6l-1.1-0.4l0,0l0.1-0.2v-1.2l0.4-0.4l-0.4-1.2l0,0l0.8-0.8l-0.8-0.8v-0.5l-0.9-1.5h0.1
		l1-0.2l1.2,0.2l0.1,0.1v0.7l1.2,1.2l0.4,0.2l0.1,0.4l0.1,0.2h-0.2l-0.3,0.3h-0.9l-1.4,1.4l0.2,0.2l-0.3,0.3v2.1l1.2,0.4l1,0.9
		l1.5,2.2h1.6l0.3,0.9l1.1-1.1h0.7l0.5-0.5l5.7-3.5l-5,0.9l0,0v-1l0.8-0.1l0.1-0.1l3.2,0.4l-0.9-2.1h0.1l1.4-1.7l0.3-0.2l1.2-1.6
		l0.2,0.1l1.3-0.4v1l-0.2,0.2l1.6,1.6l2.1-1.4l0.2,0.5l1.7,0.8l0.2-0.2v4.6l2.3-5.7l1.3,0.5l1.5-1.5l-0.3-0.3l0.7-0.7l-0.5-0.2
		l0.3-0.3l0,0l0.3,0.3l0.5-0.5l0.2,0.1h2l1.5-0.7v-0.2h2.1v-1.2l0.2-0.2l0.7-0.3l0.1-0.1l0.3,0.1l-0.3,0.3l0.4,1l-0.3,0.7l0.8,1.7h3
		l0.9-0.9v-1h0.1l0.5,0.2l-0.3-0.3l0.8-0.3l0.1-0.5l5,1.6l-4.3-4.3l-0.2-0.1v-0.2l-1.2-1.9h-0.5l-0.1-0.5l-0.2-0.2l0,0v-1.6
		l-0.1-0.2l0.3-0.2l0.4,0.2l0.7-0.3l0.5,0.2l2.5-0.3l2.6,0.2l0.8,0.5l1.4,0.5l1,2.4l1.6-1.6l0.5,0.5h0.4l0.2,0.5l1.5,0.3l1.9,1.1
		l1.6,0.2l0.2,0.2l0.3,1.1l1.2,0.4l0.4,0.4l0.8,1.7l2.6,1.1v-2.1v-0.1l0.5-0.5l-0.3-0.7l0.1-0.1v-1.6l2.2-2.2H581l-0.3-0.3h-0.3
		L580,469l-1.4-2h-0.4l0,0v-1.1l-1.4-1.4l-0.7,0.9l-0.2-0.2h-1l-0.4-0.2v-0.2l-0.8-0.3l-0.2-0.5l0.8-0.8v-1.5l4,1.6l-4.8-4.8h-0.7
		l-0.4-0.7l-0.7-0.7l0.4-0.4l-0.5-1.4l1-1.6l1.4-1.4l-0.4-1.2v-0.3l0.4-1.2l-0.9-0.9v-0.4l-0.4-2.5l-0.2-0.7v-1l-0.2-0.2l0.1-0.3
		l0.9-0.9l-1-1l0.2-0.8v-0.2c0.7-0.2,1.2-0.5,1.7-0.8l0.3,0.2l0.2,0.4l1.5,0.7l0.4-0.4l0,0l2,0.7h0.1l0.4,1.1v1l0.3,0.3v0.9l0.2,0.8
		l-0.3,1.9l0.1,0.3l-0.3,0.3l0.4,1v0.1l-0.7,0.7l0.7,1.5l0.7,0.7l0.3,1.1l0.4,0.2v1.2l1.2-0.4l0.1,0.7l0.8,0.8l0.1,0.3l0.3,2.2
		l0.5,0.5l0.1,0.6l0.9,0.9v0.7l0.8,1.3l-0.2,0.8l0.5,1.5h0.1l-0.1,0.3l0.5,0.5l0.2,1.1l1.6,2.3l1,0.2l0.2,0.7l0.9,0.3l0.1,0.1v1.2
		l-0.3,1l0.4,1.9l0.7,0.7l-0.5,0.5v0.5l-0.4,1.2l0.4,0.4v0.3l-1.5,0.7l1.4,1.4v0.7l-1-0.4v1.1h-1.9l-0.2,0.2l-2-1.1l-0.7,0.7
		l-1.4,0.2h-1.3l-2.5,3.1h2.3l1.1,1.1l0.4-1.2l0.9,0.8l2.6,0.3l1.3,0.3l1.4-0.3h0.5l0.2,0.2l2.1,0.4l1.6-1.3v-1.1l1.1-0.4v-1
		l0.9-0.9v-0.9l0.9-2l-0.8-1l0.1-0.3l0.8-1.1l0.4-1.2l-1.1-3.2l-1.3-0.7l-0.1-0.2l-0.2-1.1l0.3-0.3l0.5-0.5l0.9-0.3l0.7-0.7v0.8
		l1.3,0.9l0.4,1.1h0.4l-0.4,1.1l1.3,0.5l0.2,0.4l0.5,0.5l-0.4,0.4l1.7,1.7h0.8l1,0.9l1.4-0.4l0.8-0.3l1-0.3l1.5-1.5l-1.5-1.5
		l-0.3,0.1l-0.5-1.4l-1.2,1.5l-0.1-0.3h-0.3l0.2-0.5l-0.8-0.8l-0.3-0.4l3.2-1.3l-2.8-1.1l-0.2-0.4l-0.3-0.3l-0.3-0.8l-0.7-0.5v-0.5
		l-1.3-1.5H600l-0.9-0.4l-0.5-1.3l-1.2,0.4l-1.1-0.7l-0.8,0.3l-1-0.4l-1.4,1.4l-0.1,0.2l-0.9-0.2l-0.3,0.2l-0.4-1.1l-1.2-1.2
		l-0.1-0.2l0.3-1.6l-0.7-1l0.1-0.3l0.3-2.4l-1-1.7l-1.1-1.1h-0.5l-0.1-0.4l-1.9-1.5l-0.8-0.4l0.3-1.4l-0.2-2.5l-0.2-0.2l0.1-0.1
		l1.1-1.2l0.3,1l0.7,0.7v0.7l0.3,0.3l-0.7,0.2l1.1,2.7l1.1-0.4l0.7,0.5h1.7l0.3-0.1l0.7,1.7l1.5-1.5h1.2l2,1.6l0.8-0.1l2.5,2.5
		l-1.2-2.8l4.6-4.6l-5.4,2.1l-0.3-0.1l-0.1-0.3l-0.2-0.2l-0.4-1.3h-1.2l-0.3-0.7h-1.4l-0.2,0.2L593,447l-0.8-0.8H591l-0.5-0.4
		l-0.4-1.1h-0.3l0.2-0.2l0.4-0.3h0.2l0.7,0.9l0.3,0.2l2,0.9l1.6-0.5l1.2-2.2l-1.3-2.1l-1.2-0.3l0.1-0.1h2.4l0.3,0.4l1,1l1.5,0.2
		l0.2,0.5l0.9,0.3l1.4,1.4h1.4l2.1-0.3l0.7-0.4l0.3,0.3l0,0v0.1l0.3,0.9v0.8l-1.1,0.9l0.5,1.2v1.4l1.1,0.8l-0.3,0.8l0.4,3.2h1.7
		l2.2,1.4h1.3l0.9,0.2v1l1.3,1.3h1.2l4.7,4.7l-2.2-5.5v-0.2l0.2-0.3l1.4,1h0.8l3.6,3.6l-2-6h-1.3l-0.5-0.2l-0.5-0.3l0.8-1l-3.5,0.9
		l-0.7,0.4l-0.8-0.3l-0.2,0.2l-0.2-0.2l-1.9-1.9V453l-0.2-0.1l-0.1-0.1l0.5-1.3l-0.5-1.4l-0.8-0.7l-0.2-1.4l-1.4-2l-0.8-0.3
		l-0.1-0.1l0.2-0.5l-0.4-1l-0.3-2.1l-1.3-1.3h-0.2l-1.1-0.7h-1.6l-0.4-0.5l-0.5-0.4l0,0l-0.3-0.7v-3.2l-2.2,2.2l-1.7-0.2h-0.3
		l-0.3-0.2l-0.4-1.3h-0.2v-1l-1.1-2.1l-0.5-0.3l0.2-0.5l-0.7-0.7c3.1-1,6.1-1.7,9.1-2.6v0.4l2,1.7h7.3l-5.8-2.3L609,428l1.1-0.5
		c15-3.6,30.4-5.7,45.8-6.2v0.5l0.2,0.2l-0.1,0.7l-0.5,0.2l-2.4,6.1l3.7-3.7h0.7l1.2-1.2l0.3-0.8h0.1l3.4-1.4l-1.7-0.8
		c1.1,0,2.2,0,3.2,0c59,0,114.9,22.4,157.4,63.2v0.3L820,486l0.3,0.3h-0.5l-0.5,0.5h-2l-0.5,0.2l-1.2-0.3l-1.5,0.7l-1.5-0.7l-0.4,1
		h-1.1l-0.7,0.7H809l-0.9,0.7h-0.8l-0.9,0.7l-0.1-0.2h-1.7l-0.4,1.1l-1.1,0.9l-0.3,0.8l-0.7,0.7l-0.5,1.4l0.9,1.3l-0.1,0.5l-0.7,0.9
		l-1.1,1.6l0.4,1v1.2l0.2,0.5l-0.4,0.4v0.7l-0.4,0.4l0.3,1.1l-0.4,0.4l-0.3,0.9l-1.1,1.4l0.1,0.2l-0.2,0.1l-0.2,1h-0.4l-0.4,2.8v0.8
		l-0.4,0.4l0.3,0.7l-0.3,0.3l-0.3,0.8l-0.9,1v0.2l-0.3,0.3v1.1l-0.9,0.7v1.2l-0.9,0.9v0.8l-0.5,0.7l-0.8,2l0.7,1.5l1.5,0.7l0.4-0.2
		l0.5,0.5h1.6l0.9-0.9l0.7-0.2v1.5l0.8,1l0.1,0.3l-0.4,1.2l2.5,2.2l0.1-0.2l0.4,0.4l1.7-0.3v0.8l2.3-2.3l0.4-1.2l-0.4-0.4l0.3-0.5
		l-0.1-0.2l0.3-0.8l0.3,0.1V525h0.9l-0.5-0.4h0.5l0.2-0.2l0.2,0.2h1h0.1l0.2,0.4l0.7,0.7l0.9,0.3l0.2,0.2l1.5,0.7l0.4,0.4h0.4
		l0.3,0.7h0.4l0.1,0.1l-0.1,0.3v0.4l-0.8,0.8l1.7,1.7h0.8l0.2,0.4l-0.2,0.2v1.6l1.2,1.2l0.4,0.2l0.4,1.2l0.1,0.1l-0.1,0.1l0.3,0.3
		l-0.4,0.4l0.5,0.5l-0.2,0.4l0.5,1.3l-0.2,0.2l0.4,2l0.2,0.5v0.7l0.9,2.8l0.2,0.1l-0.2,0.2l0.7,1.5l0.7,0.7v1.2l0.3,0.3l0.4,2.7h0.2
		v0.9l0.3,0.7v0.2l-0.9,0.9v1.2l-0.3,1.2l0.4,1.6l0.1,0.1l-0.7,0.7v1l-0.2,0.3h-2.8v1.3l-0.8,0.8l0.3,1.5l-0.8,0.8l0.5,1.7l0.1,0.1
		l-0.5,0.7l-0.2,0.7l-0.9,0.9v0.8l-0.5,0.8l-0.7,2.6l-0.2,0.2l-0.5,1.5l-0.7,0.5v0.4l-0.7,0.3v1.1l-0.4,0.4l0.1,0.3l-2-0.8l1.1,2.8
		v0.1l-1.5,0.7l0.8,0.8l-0.4,0.4l-0.4,0.4h-0.7l-0.4,0.4l-0.9,0.3l-0.1,0.1l-0.3-0.3l-0.3,0.3l-0.2-0.2l-0.3-0.1v-0.8l-1.1-1.1
		l-1,0.4l-1-0.4l-1.1,1.1v0.7l-0.7,0.7v1.1l-0.2,0.2l-0.1,0.4l-1.2,0.4l-0.2,0.7h-0.2l-1.1,1.1h-0.9v1.7l-0.3,1.7v1.7l0.7,0.7v2.1
		l0,0l-1,0.9l0.3,0.3l-1.3,1.3v0.4l-0.2,0.1l-0.1,0.1h-0.4l-1.3,0.5l-0.3,0.9l-1,0.9v1.4l0.1,0.2l-0.2,0.2l0.7,2.1h0.2l-3.2,1.3
		h-0.2v-0.5l0.8-1.4l-0.2-0.5l0.9-2.3h-2.3l-0.4,0.4h-0.2l-1.4-0.5l0,0l0,0l-0.3-0.1l-0.8-2l-1.6,2.2h-0.2l-0.4-0.4l-1.3,1.1h-1
		l0.8-1.7l-2.8,2.8v-0.9l0.4-0.5l0.8-0.8v-1.7l-1.9-1l-1.9-2.7l-0.7,1.6h-1.7l-0.4,1.2l-0.3,0.3l-0.3,0.7l-0.9,0.9v1l-0.4,0.4h-0.5
		L771,603l-0.3,2l-0.7,0.7h-1.2l1,1h-0.1l-2.5-0.5v1.6l-0.3,0.3v0.7l-0.3,0.3v0.3l-0.4,0.4l0.4,1.2v1.2l1.3,0.5l0.9,0.5l0.2,0.2
		l1.2,1.4v1.2l0.5-0.5l0.8,1v-1.7l0,0v0.2l1.2,2.6h1.7l0.4-0.2l1,0.4l1-1l0.7-1.5l0,0l0.3-0.3v-0.5l0.5-0.2l0.2,0.5l1,1h2.5
		l-0.2,0.2h-0.7l-0.1,0.1l-0.4-0.2L778,617l1.2,1.2l-0.3,0.1v0.3h-0.2l-1.7,1.7l0.5,0.5l-0.2,0.2l-1-1l-1,2.8l0.3,0.8l-0.2,0.9v2.7
		l1.9,0.7v1.5l1.7-0.7l1,0.4l0.7,1.4l-0.3,1l1,0.4v0.7l1.2,0.9v0.9l1,1.5l-2-0.4l0,0l-0.2-0.5l-1.5,0.5l-1-0.4l-0.1,0.1l-0.1-0.1
		l-1.7,0.7l-5,11l6.7-8.9l0,0l0.9,0.3l0.2-0.1l1,0.9l1.4,0.5l0.9-0.5l0.8,0.8l1.2,0.8l1.5,1l0.2,0.4l-0.2,0.1l-0.5,0.7h-0.2
		l-0.9,0.9v0.1l-3.3-1.3l1.5,2l-1,1v0.3l-2.5,2.5l2.5-1v5l2.3-5.8l0.2-0.2l0.3,0.3l1.6,0.7l0.4-0.4v0.9l-0.7,0.2l0.7,0.7v0.9
		l-1.4,1.4v1.9h0.7l0.1,0.1l-0.7,0.7l0.2,0.2l-0.5,0.9h-0.1l-0.1,0.4l-0.1,0.1l-0.3-0.8l-1.4,3.5h-0.7l0,0l0,0h-0.1l-0.1,0.2
		l-1.4,1.4h-1.2l0.7,0.7l-0.9,0.9h1.7l0.3,0.3l-0.7,0.2l-2,4.9h-1.9l2.5,2.5h-0.4l-0.3,0.7h-0.3l-0.1,0.3l-1,0.3l-3.4-3.4l1.9,4.8
		l-1.3,1.3l-0.3,0.1h-1.5l-0.1,0.2l-0.7-0.7l-0.9,0.9l-0.7,0.2l-0.8-0.8l-2.4-1v2.5l0.3,0.7v0.1l-1.5-1.5v2.7l-0.1,0.3l-0.3,0.3
		l-0.5,0.2l-0.4-0.2l-0.9,0.3h-3v-1.1l-1.9,1.9h-2.5l1.4,1.4l-0.4,0.4v-0.5l-1.1-1.1l-1,0.4l-1.3-0.5l-0.3,0.8l-0.7-0.7l-0.2,0.2
		l-1.1-2.7l-1,2.6l-0.2-0.2l-0.8,0.8h-2.5l1.1,1.1h-0.7l-1.1,0.4l-0.8,0.8h-1.3v0.9l-0.8,0.8l0.8,0.8v1l0,0l-0.4-0.4l-1.2,1.2
		l-0.3,0.7l-0.4,0.4v1.7l-0.4,1.2l0,0l-1.6,0.7l3.1,1.2l0.7,0.5l1.1,1.1l2.1,5.2V694l0,0v0.2l2.4,1.1l1.4,0.9l0.2,0.7l1.6,1.2
		l0.5,0.5l0.4,1v0.2l0.7,0.7l-0.4,0.4l1.2,1.2l0.3,1.1l0.3,0.3l0.3,1.1l0.1,0.1l-0.3,0.3l0.3,0.7l-0.3,0.3l0.4,1.2v1l0.4,0.4
		l0.1,0.2l-0.5,0.5v1.3l0.2,0.4l-0.1,0.1l-1,0.4l0.5,1.3l-0.4,1l0,0l-0.2,0.7l-0.7,0.7l-1.9,0.8v0.3l0,0l-0.4,0.4l-1.1,0.5h-0.1
		l-0.4-0.4l-0.1,0.1v-2l-1.9,1.9l-0.2-0.1h-1.7v0.5h-4.6v-1.9l-1.9,1.9l-0.9-2.3l-0.1,0.1l0,0v-0.4l-1-1.5h-1.1l-2-2l-0.5-0.2v-0.1
		l-0.8-0.8l-1.3-0.5l0,0l-0.3-0.7v-0.2l0.8-0.8l-1.2-1.2l-1.1-0.4h-0.3l-0.4-0.4l-0.9,0.3l-0.7-0.7l-0.4,0.4l-1.5-1.5v2.5l-1.1,1.1
		l1.7,0.7l-0.1,0.3v0.4l-0.8,0.8l0.5,0.5l-0.7,0.7l-0.3,0.7l-0.8,0.8l-0.3,2.4l-0.8,0.9v0.9h-1.3v-1l0.8-0.8l-0.3-0.9l0.5-0.5
		l-1.6-1.5l-0.1-0.3v-0.2l0.4-0.4l-0.7-1.5l-0.2-0.2l-0.3-2l-0.3-0.3l-0.3-0.7l-1.3-1.3v-0.5h5.8l-2.2-2.2V701h-0.1l-0.2-1.7
		l-0.2-0.2l0,0v-1l-0.1-0.2l0.1-0.1v-3.2l-1.7,1.7l-0.2-0.2l-0.7-1.2l-0.3-0.3v-0.3l-6.3-2.5l3.5,3.5v0.7h-2.3l0.3,0.9l-0.5,1.4
		l-0.7,0.4h-0.5l-0.3-0.9v-2.6l0.2-0.2l-0.2-0.2V691l-0.9,2.7l-0.3-0.8v-1.5l-0.1-0.1l0.7-0.7l-1.7-0.7l-0.1-0.3l-0.5-1.2v-1
		l-0.5-0.5v-1.6l-1.1-1.4l-0.9-0.3l-0.2-0.2l-0.2-0.1l1.3-1.3h-2.8l-0.9-0.9v0.7l-1-0.4l-0.1-0.2h-0.4l-0.4-0.7l-0.4-0.5v-3.5
		l-0.5,0.5v-0.2l-0.4-0.4l-1-2.7h-1l0,0h-0.1h-0.3l0.2-0.2l-0.5,0.2h-0.3v0.1l0,0l-0.3-0.2l-0.5-0.5h-0.3l-0.2-0.2l-0.2-0.5
		l-2.1,0.5v-0.1l-2.5,2.5l0,0h-0.8l0.2,0.4l-1,1h-0.7l-1.9-1.9v0.9l-1.1-0.4h-2v1.9l0.1,0.1l-0.1,0.1v0.7l-0.2,0.2l-2,0.7l-0.7,0.7
		L681,682l0.7,0.7l0.1,0.3v0.2l-0.2,0.2l-0.1,0.2h-2.2l1.2,1.2l-0.5,0.4v0.1l-0.3,0.1l-0.5-0.5h-1l-0.7,0.3H676l-0.8,2.4l-0.5,0.4
		l-0.7,1.3l-3.1,2.4l-0.3,0.9l-0.3,0.3l-1.2,0.2l-1.2,1.1l-0.5,1.3l0.2,0.4l-0.4,0.4l-1.5-0.3l-1.4,1.4v0.4h-1.6l-1.6,1.6l-0.4,1.2
		l0.5,1.4l-0.7,0.7l0.4,1.3v3.1l0.8,0.3l0.1,1l-0.5,1.9l-0.9,1.6v2.4l0.3,0.8l0.2,2l-1.5,0.5l-0.8,1.9l0.1,0.1l-0.2,0.3l-0.4,0.4
		H658h-0.3l-1.6,1.1l-0.4,1.2l0,0l-0.8,0.8l0.4,0.4L655,724L654.3,723.8z M745.6,720l-0.4,0.2l-0.1-0.1v-0.3l-0.8-0.8l0.8,0.2
		l-0.2,0.2l1.7,0.7l-0.3,0.1L745.6,720z M722.6,719v-1l0.4,0.4v0.5L722.6,719L722.6,719z M742.2,718.5l0.3,0.1l-0.1,0.1L742.2,718.5
		z M801.6,715.5v-0.9l0.5-0.1l0.2,0.3l-0.4,0.4l-0.1,0.2L801.6,715.5L801.6,715.5z M570.1,713.5L570.1,713.5l-0.1,0.2L570.1,713.5z
		 M810.4,712.2l-0.4-0.5l-0.1-0.5h0.1l0.9,1.2v0.2L810.4,712.2z M797,709.2L797,709.2L797,709.2L797,709.2L797,709.2z M796.9,704.3
		l-0.2,0.2h-0.5l1-1v1.1l0.2,0.1v0.1L796.9,704.3z M795.6,701.5h-0.9v-0.4h-1v-0.5l-0.4-0.9l-0.1-0.4l0.2-0.8l0.8-0.5v-1.2l-0.3-0.9
		l0.2-0.5l0.3-1.7V692l-0.1-0.2l0.8-1.1v-0.2l0.3,0.1l0.7,0.7l1.5,0.4l-0.1,0.3l0.7,1.9l0.4,0.2l0.1,0.9l0,0l-0.1,0.8l-0.1,0.4
		l-0.7,1.2l-0.8,0.9l-1.1,1.1l0.3,0.8l-0.2,0.4v1.2l0.2,0.8l0.2,0.2L795.6,701.5z M757.9,689.3h-0.4l-0.3-0.3h-0.5l-0.3-0.4v-0.1
		l-0.3-0.7v-1.2l-0.1-0.2l0.3-0.3l1-0.8l0.2-0.7h0.3l0.1,0.1h1.2l0.2-0.1l0.3,0.3l0.7-0.3l0.3,0.3l1-0.4l0.2,0.1l-0.2,0.2l-0.3,0.7
		l-0.3,0.3l-0.4,1.4l0.1,0.4l0,0l-1.2,0.4v0.3l-1.4,0.5v0.5H757.9z M756,682l-0.3-0.4l0.1-0.3h1.2v-0.7l0.3,0.9v0.1l-0.8,0.8
		L756,682z M760.4,677.7L760.4,677.7v0.3V677.7z M792.1,674.3v-0.9h-0.7v-1.1l-0.4-0.1v-2.1l0.3-0.9l0.8-1.3l0.1-0.5l0.9-1.3
		l-0.4-0.2l0.1-0.1l0.4-0.3l0.4-0.3l0.3,0.5h0.2v0.7l-0.2,1.4l-0.5,0.9l0.1,1.3l-0.1,0.5l-0.4,2l0.4,0.2l-0.7,0.8L792.1,674.3
		L792.1,674.3z M693.6,673l0.2,0.8l-0.2,0.1V673z M779.2,666.5l1.4-1.4l0.4,0.4l-1,1H779.2L779.2,666.5z M782,663.7L782,663.7
		l-0.2,0.3l0.4,0.1l-1.1,0.4L782,663.7z M817.9,635.2l0.2-0.8v-1.2l-0.5-1.1l-0.7-1.2l-0.7-0.7l0.7-0.3l0.1-0.4h0.1h0.2l0.7,0.9h0.7
		l0.8,1.5h0.5v0.7h0.2l-0.7,0.7l0.3,1.5l-0.3,2l0.2,0.4h-0.1L817.9,635.2z M436.4,636.8c0.2-4.5,0.5-8.9,1.1-13.3l0.7,0.2l0.2,0.2
		l0.7,1.1l0.3,0.3l-0.2,0.2l-0.5,1.5l1.2,1.9l0.4,0.1v1.4l0.1,0.1l-0.7,2.1l-0.9,0.9l0.3,0.3l-0.2,0.2l-2.1,1.2L436.4,636.8z
		 M784.4,636.3L784.4,636.3h0.2H784.4z M508.1,634.5l0.8-0.5l0.2,0.1h0.4l-0.5,0.4h-0.5H508.1L508.1,634.5z M483,633.8L483,633.8
		L483,633.8L483,633.8L483,633.8z M823.5,629L823.5,629l0.1-0.3h0.9l-0.2,0.2l-0.3,0.9L823.5,629z M827.3,627.8l-0.7-0.1l0.1-0.7
		l0.3-0.2h0.1l0.5,0.3l0.2,0.1v0.2l-0.3,0.3v0.1L827.3,627.8z M832.3,627.3l0.3-0.1l-1.3-1.3v-0.7l0.4-0.7v-1.3l-1.2-0.8h-2
		l-0.8,0.4l-1.5,0.9v0.2l-0.9,0.4H825l-1,0.3l-1.2,0.1l-0.3,0.1l-0.3-0.2h-1.3l-0.5,1.1v0.5l-0.4-0.1l-1.2,0.4h-0.1v-0.1l0.8-0.5
		l0.3-0.8l0.2-0.2l0.4-0.3l1.5-1.5V623l0.3-0.3l0.2-0.9l0.5-0.4l0,0l0.5,0.5l1.2-0.5l0.8-0.2h0.7l1.1-0.4l1.1-0.3l0.1,0.7h1.4
		l0.3-0.1l0.5,0.3l2.2-1.4l-0.4-0.4l1.1-1.6h-1v-0.2l-0.2-0.2l0.3-0.3v-0.5l0.7-1V615l1.7,0.8l0.3-1l0.3-0.1l1.7-1.2l1.1-0.7
		l0.2-1.2l0.4-0.7v-1.2l0.1-0.4l0.5-0.4l1-1.5l-0.5-1l0.7-2.2l-0.3-1.4l0.3-1.1l-0.3-1.9l-0.7-1.5l0.2-0.9l-0.5-1.1h-0.1v-0.4
		l0.4,0.3l1.3-1l1.6,1.6l0.2,0.3l0.2,1.2l0.5,1h0.4l0.2,0.3l0.4,1.3l-0.1,0.3l0.2,0.9v0.5l-0.1,0.4v1.3l0.1,0.5v0.3l-1.4,0.7
		l-0.2,1.7v1l0.8,1.3l0.7,1.7l-0.3,1.3v3.8l0.7,1h-1.5l-1.1,0.3l-0.8,2l0,0l-0.3,0.2l-0.2,0.2h-1l-1.5,0.9v1.2l-1.4-0.2l0,0L837,622
		v0.2l0.8-0.8h-3.3l-0.9,0.9l-0.5,1.7l0.9,0.9l0.2,0.1l-0.2,0.1l-0.7,1.2v0.4L833,627v0.5l-0.2,0.3L832.3,627.3z M450.9,627.5
		l-0.2-0.4l-1.1-1.1l-0.7,0.2l-1-0.3l-0.4-0.4l-0.9-0.3l-0.4-0.3l1.3,0.2l1.2-0.4h1.7l0.3-0.3l0.1,0.1h0.2l-0.7,2.1l0.8,0.9v0.2
		l-0.1,0.1L450.9,627.5z M798.1,622.8v0.8l-0.4-1.1l0,0l0.3-0.3V621l1.2-0.8l-1.6-2.6v-0.2l-0.2-0.4l1.9,0.4l-1.2-2.8l-0.1-0.1
		l0.3-0.3l-1-1l-0.9-1.3l0,0l3.5-1.4l1.3,1.3l1.5,2v1.6l0.8,0.8l0.2,1.7v3.3l1.6-1.6l0.1,0.7l-0.7,0.7l0.3,0.3h-0.4l-1,1h-1.5
		l-0.2,0.4L801,623l-1.6,1.3L798.1,622.8z M475.2,623l-0.5-0.2l-1.1-2.7l-0.3,0.7l-0.5-0.5h0.7l0.4-0.4l0.4,0.2l1.3-0.5l0.2,0.1
		l-1.4,0.5l0.9,0.9v1.3l0.3,0.8L475.2,623L475.2,623z M845.1,619.8L845.1,619.8h0.2l-0.2,0.2V619.8z M455.9,619.2l0.3-0.3v0.5
		l-0.3,0.2V619.2z M845.3,617.8l0.4,0.5l-0.2,0.2L845.3,617.8z M456.7,617l-0.3-0.9l-0.2-0.8l0.2,0.2h1l0.3,0.3l-0.3,0.9h-0.1
		l-0.7,0.7V617H456.7L456.7,617z M455.2,612.3l-1.9-0.8l-0.1,0.1l-0.2-0.7h-0.3v-0.3l-0.7-1.4h-1.2l-1.5-0.7l-0.7-1.2h-1.1l-1.2-0.4
		l-0.1,0.1v-0.1l-1.7-0.7l-1-0.7l-1.2-1.7l-0.2-0.2l-0.3-0.7l-1-1c0.5-2.5,1.1-5.1,1.7-7.7l0.1,0.2l0.4,1.2l2,0.9l0.3,0.1l0.2,0.4
		l1.7,2.1v0.8l0.3,0.3v0.5l0.4,1.1l1.5,1.5l0.7,0.5l0.3,0.9l0.9,0.3l0.4,0.4h1.5l0.2,0.1v0.5l0.7,1.5h1.3l1,0.2l1.3,0.7l-0.7,0.7
		l-0.3,0.7l-0.4,0.4v1.9v0.1l-1,0.3v0.9L455.2,612.3z M792.7,608.8l-1,1l-0.2-0.1v-0.9h0.4l3.5-3.5l0.2,0.4l2.4,1.2l0.1,0.3l1.2,2.5
		l0.2,0.2H794l0,0L792.7,608.8z M779.5,603.8L779.5,603.8h0.4l-0.2,0.2L779.5,603.8z M507.4,590.7l1.5-1.5l0.4,0.4l0,0l-1.3,1
		l-0.8,0.4L507.4,590.7z M448.5,589.5l0.1-0.1l-0.1,0.2V589.5z M837.6,588.8L837.6,588.8l0.3,0.1l-0.2,0.1L837.6,588.8z
		 M505.9,588.2l0.7-0.2l1-1l0,0v1.1l-0.3,0.8L505.9,588.2z M844.9,586l-0.8-0.4l-0.5-0.4l-1.1-1.5l-1,0.3l-0.1-0.1h-1.6l-1.1,0.9
		l-0.2,0.2l-1.1-0.9l-0.1,0.1v-0.3l0.9,0.3l1-1l0.1-0.5l0.9-0.4l-1.1-1.6l-0.2-0.1l-0.1-0.4h0.9l-0.8-2.2l-0.1-0.4l0.1-0.4l-0.2-1.4
		l-0.3-1.1l-0.9-1.4l0.7,0.4h0.4l0.2,0.7l1.6,1.6l0.8,0.4l0.7,1h0.7l0.2,0.4l1.3,0.7h0.7l0.5,0.7h2.4l0.4-0.2v0.4l1.3,0.7l0.2,0.2
		v0.9l-1.5,0.7l-0.1-0.1l-1.2,0.7l-1.1,1.1l-0.5,1.5L844.9,586L844.9,586z M835.9,562.8l-1-1.1v-0.2l-0.1-0.2l0.5,0.7h0.5l0.3,0.4
		l0.4,0.4v0.9l-0.9,0.3L835.9,562.8L835.9,562.8z M834.1,559.5L834.1,559.5L834.1,559.5L834.1,559.5z M832.2,554.3l-0.4-0.2V554
		l0.2-0.9l-0.7-1.2v-2.1l-0.3-1.2l-0.1-0.9l-0.3-0.9l-0.7-0.9v-0.1l0.3-0.7l-1.3-1.3v-0.4l-0.4-0.9v-2.1l-1.2-1.6l-0.8-0.3l-0.4-0.4
		l-0.5-1.5l-0.9-0.3l-0.1-0.3l-0.7-1.6v-1.3l-0.1-0.1v-1.3l-1-1.3l-0.5-0.5l-0.1-0.7h0.2l1.3-0.4V528l0.1,0.1l0.3,0.7l0.2,0.1v1.1
		l0.4,0.4v0.4l1.2,1.2l0.3,0.1v0.1v3.3l0.5,0.7l0.3,0.9l1,1v0.1l0.5,1.5h1.1v0.4l0.5,0.5l0.4,1l1.2,1.6l0.3,0.7l0.9,1.7l0.8,0.8v1.2
		l0.9,0.2l0.1,0.2l0.7,1.1h-0.3l-0.1,0.1l-0.1-0.1h-3.1l1,1.5l-0.3,0.9l0.5,1.1v0.2l-0.3,1.5l0.7,0.9v0.3L832.2,554.3z M470.8,531.8
		v-0.3l0.3,0.3H470.8z M471.7,526c0.2-0.2,0.3-0.5,0.5-0.8v0.4L471.7,526L471.7,526z M506.8,501.1L506.8,501.1l0.7,0.3L506.8,501.1z
		 M503.9,500.5l-0.8-0.8l-0.5-0.2l-0.1-0.1l0.1-0.1l0,0h1l0.1,0.2l0.8,0.8h-0.1L503.9,500.5L503.9,500.5z M528.8,476l-0.5-0.9l0,0
		V474l0.2-0.5h0.4l1.4,0.7l-0.1,0.4v0.5l-0.3,0.5l-0.4,0.2L528.8,476L528.8,476z M552.7,465L552.7,465l0.3,0.1L552.7,465z
		 M545,461.5L545,461.5l-0.5-1.2l-0.9,0.9l-0.1-0.2l-2.5-1l-0.5,0.5l-0.7-0.7l0.3-0.3l-1.5-1.5c0.5-0.3,1-0.7,1.5-1l0.4,0.4l0.9,2
		h1.3l1.4,0.3l0.9,0.7l0.8,1l0.3,0.1l-0.3,0.3L545,461.5z M538.6,461.3v-0.4h0.2l0.4-0.4v0.8l-0.3,0.1L538.6,461.3z"/>
	
		<radialGradient id="光线_1_" cx="664.85" cy="361.55" r="235" gradientTransform="matrix(1 0 0 1 0 288)" gradientUnits="userSpaceOnUse">
		<stop  offset="0.2738" style="stop-color:#FFFFFF"/>
		<stop  offset="0.8763" style="stop-color:#FFFFFF;stop-opacity:0.42"/>
		<stop  offset="1" style="stop-color:#FFFFFF;stop-opacity:0"/>
	</radialGradient>
	<path id="光线" class="st14" d="M508,682.2c29,6.6,59.4,11.3,90.8,14.1c5.7,65.9,21.8,129,46.5,187.5c2.1,0.2,4,0.3,6.1,0.4
		c-24.9-58.5-41.2-121.4-47-187.5c19.5,1.5,39.3,2.4,59.6,2.4c43.3,0,85-3.7,124.7-10.7c-11.5,82.6-59.5,153.7-127.1,196.2
		c1.1,0,2.3,0,3.4,0c2.3,0,4.5,0,6.7-0.1c65.6-44,111.8-115.1,122.5-197.1c37.5-6.9,72.9-16.7,105.5-29c0.1-2,0.1-3.8,0.1-5.8
		c-32.5,12.4-67.7,22.2-105,29.1c1.1-10.3,1.7-20.7,1.7-31.2c0-98.7-51.2-185.7-128.3-236c-1.1,0-2.2,0-3.4,0c-2.3,0-4.5,0-6.8,0.1
		c79.7,48.4,132.9,136.1,132.9,235.9c0,10.9-0.7,21.6-1.9,32.2c-39.8,7.1-81.9,10.8-125.4,10.8c-20.3,0-40.4-0.9-60-2.4
		c-1.3-16.3-2-32.8-2-49.4c0-79.8,15.2-156.2,42.7-226.3c-2.1,0.2-4,0.3-6.1,0.7C611,486.2,596,562.2,596,641.8
		c0,16.5,0.7,32.8,1.9,49c-31.5-2.8-62-7.7-90.9-14.2c-0.9-8.9-1.3-17.8-1.3-26.9c0-97.8,51.2-184.1,128.2-233
		c-4.4,0.5-8.6,1.3-12.9,2.1c-72.9,50.9-120.7,135.4-120.7,231c0,8.6,0.4,17.2,1.2,25.6c-25-5.9-49.1-13.2-71.6-21.6
		c0,2,0.1,3.8,0.2,5.8c22.7,8.4,46.9,15.7,72,21.6c9.2,82.5,54.1,154.3,118.9,199.6c4.3,0.8,8.6,1.5,12.9,2.1
		C565.9,839,517.9,766.3,508,682.2z"/>
	<g id="光点">
		
			<radialGradient id="SVGID_2_" cx="793.7" cy="346.977" r="9.1115" gradientTransform="matrix(1 0 0 1 0 288)" gradientUnits="userSpaceOnUse">
			<stop  offset="0.2738" style="stop-color:#FFFFFF"/>
			<stop  offset="0.8763" style="stop-color:#FFFFFF;stop-opacity:0.42"/>
			<stop  offset="1" style="stop-color:#FFFFFF;stop-opacity:0"/>
		</radialGradient>
		<circle class="st15" cx="793.7" cy="635" r="9.1"/>
		
			<radialGradient id="SVGID_3_" cx="715.7436" cy="173.55" r="9.1034" gradientTransform="matrix(1 0 0 1 0 288)" gradientUnits="userSpaceOnUse">
			<stop  offset="0.2738" style="stop-color:#FFFFFF"/>
			<stop  offset="0.8763" style="stop-color:#FFFFFF;stop-opacity:0.42"/>
			<stop  offset="1" style="stop-color:#FFFFFF;stop-opacity:0"/>
		</radialGradient>
		<circle class="st16" cx="715.8" cy="461.5" r="9.1"/>
		
			<radialGradient id="SVGID_4_" cx="745.8" cy="516.5778" r="12.939" gradientTransform="matrix(1 0 0 1 0 288)" gradientUnits="userSpaceOnUse">
			<stop  offset="0.2738" style="stop-color:#FFFFFF"/>
			<stop  offset="0.8763" style="stop-color:#FFFFFF;stop-opacity:0.42"/>
			<stop  offset="1" style="stop-color:#FFFFFF;stop-opacity:0"/>
		</radialGradient>
		<circle class="st17" cx="745.8" cy="804.5" r="12.9"/>
		
			<radialGradient id="SVGID_5_" cx="601.7" cy="405.25" r="13.8581" gradientTransform="matrix(1 0 0 1 0 288)" gradientUnits="userSpaceOnUse">
			<stop  offset="0.2738" style="stop-color:#FFFFFF"/>
			<stop  offset="0.8763" style="stop-color:#FFFFFF;stop-opacity:0.42"/>
			<stop  offset="1" style="stop-color:#FFFFFF;stop-opacity:0"/>
		</radialGradient>
		<circle class="st18" cx="601.7" cy="693.3" r="13.9"/>
		
			<radialGradient id="SVGID_6_" cx="615.4349" cy="219" r="13.9477" gradientTransform="matrix(1 0 0 1 0 288)" gradientUnits="userSpaceOnUse">
			<stop  offset="0.2738" style="stop-color:#FFFFFF"/>
			<stop  offset="0.8763" style="stop-color:#FFFFFF;stop-opacity:0.42"/>
			<stop  offset="1" style="stop-color:#FFFFFF;stop-opacity:0"/>
		</radialGradient>
		<circle class="st19" cx="615.4" cy="507" r="14"/>
		
			<radialGradient id="SVGID_7_" cx="523.2" cy="467.3917" r="11.4792" gradientTransform="matrix(1 0 0 1 0 288)" gradientUnits="userSpaceOnUse">
			<stop  offset="0.2738" style="stop-color:#FFFFFF"/>
			<stop  offset="0.8763" style="stop-color:#FFFFFF;stop-opacity:0.42"/>
			<stop  offset="1" style="stop-color:#FFFFFF;stop-opacity:0"/>
		</radialGradient>
		<circle class="st20" cx="523.2" cy="755.3" r="11.5"/>
	</g>
</g>
</svg>
