<?xml version="1.0" encoding="utf-8"?>
<!-- Generator: Adobe Illustrator 21.0.0, SVG Export Plug-In . SVG Version: 6.00 Build 0)  -->
<svg version="1.1" id="图层_1" xmlns="http://www.w3.org/2000/svg" xmlns:xlink="http://www.w3.org/1999/xlink" x="0px" y="0px"
	 viewBox="0 0 798 860" style="enable-background:new 0 0 798 860;" xml:space="preserve">
<style type="text/css">
	.st0{fill:url(#底部_1_);}
	.st1{fill:url(#暗角反光_1_);}
	.st2{fill:url(#中高光_2_);}
	.st3{fill:url(#顶-背景_1_);}
	.st4{fill:#043977;}
	.st5{fill:url(#面板_2_);}
	.st6{fill:#073A76;}
	.st7{fill:url(#高光_1_);}
	.st8{fill:#FFFFFF;}
</style>
<g>
	
		<linearGradient id="底部_1_" gradientUnits="userSpaceOnUse" x1="62.8452" y1="-4881.4331" x2="737.0635" y2="-4881.4331" gradientTransform="matrix(1 0 0 -1 0 -4366.7695)">
		<stop  offset="0" style="stop-color:#E7EFF5"/>
		<stop  offset="0.2574" style="stop-color:#C3C5D2"/>
		<stop  offset="0.3352" style="stop-color:#C6C8D5"/>
		<stop  offset="0.3997" style="stop-color:#CED3DD"/>
		<stop  offset="0.4592" style="stop-color:#DDE4EC"/>
		<stop  offset="0.4655" style="stop-color:#DFE6EE"/>
		<stop  offset="0.5693" style="stop-color:#98A5B5"/>
		<stop  offset="0.995" style="stop-color:#7E8EA0"/>
	</linearGradient>
	<path id="底部_2_" class="st0" d="M18.6,184v398.1c0,17,8.9,32.7,23.3,41.5l311.3,207c32.4,19.7,72.9,19.7,105.3,0l299.1-207
		c14.4-8.9,23.3-24.6,23.3-41.5V187.7L18.6,184z"/>
	
		<linearGradient id="暗角反光_1_" gradientUnits="userSpaceOnUse" x1="17.5476" y1="-4883.2832" x2="743.6709" y2="-4883.2832" gradientTransform="matrix(1 0 0 -1 0 -4366.7695)">
		<stop  offset="0" style="stop-color:#C3C6D2"/>
		<stop  offset="0.1409" style="stop-color:#C3C6D2;stop-opacity:0"/>
	</linearGradient>
	<path id="暗角反光_2_" class="st1" d="M18.6,187.8v394.3c0,17,8.9,32.7,23.3,41.5l311.3,207c32.4,19.7,72.9,19.7,105.3,0
		l299.1-207c14.4-8.9,23.3-24.6,23.3-41.5V187.7L18.6,187.8L18.6,187.8z"/>
	
		<linearGradient id="中高光_2_" gradientUnits="userSpaceOnUse" x1="393.031" y1="-5363.4023" x2="393.031" y2="-5060.2153" gradientTransform="matrix(1 0 0 -1 0 -4566.7695)">
		<stop  offset="0" style="stop-color:#FFFFFF;stop-opacity:0"/>
		<stop  offset="1" style="stop-color:#FFFFFF;stop-opacity:0.3"/>
	</linearGradient>
	<path id="中高光_1_" class="st2" d="M349.4,359.9h64.8V845c-21,1.7-42.3-3.1-60.9-14.4l-4-2.6L349.4,359.9L349.4,359.9z
		 M421.7,359.2v484.9c5.1-0.8,10.2-2,15.1-3.6V359.2L421.7,359.2L421.7,359.2z"/>
	
		<linearGradient id="顶-背景_1_" gradientUnits="userSpaceOnUse" x1="171.4193" y1="-4696.6772" x2="573.5347" y2="-4469.1641" gradientTransform="matrix(1 0 0 -1 0 -4366.7695)">
		<stop  offset="0" style="stop-color:#DFE6EE"/>
		<stop  offset="0.5" style="stop-color:#F5F7F8"/>
		<stop  offset="0.995" style="stop-color:#ABB6C3"/>
	</linearGradient>
	<path id="顶-背景_2_" class="st3" d="M765.3,220.1L460.5,406.4c-33.6,20.5-75.9,20.5-109.5,0L29.1,209.7
		c-15.9-9.7-14.2-33.4,2.9-40.8L371.2,23.8c22.1-9.4,47-9.4,69,0l320.9,137.3C786,171.8,788.4,206.1,765.3,220.1z"/>
	<g id="装饰_1_">
		<path class="st4" d="M537.5,692.4l8.2-5.7v37.7l-8.2,5.7V692.4z M556.4,717.1l8.2-5.6v-37.9l-8.2,5.7V717.1z M575.3,704.2l8.2-5.6
			v-38.1l-8.2,5.7V704.2z M594.1,691.2l8.2-5.6v-38.3l-8.2,5.7V691.2z M613,678.3l8.2-5.6v-38.5l-8.2,5.7V678.3z M631.9,665.4
			l8.2-5.6v-38.7l-8.2,5.7V665.4z M650.8,652.5l8.2-5.6V608l-8.2,5.7V652.5z M669.6,639.5l8.2-5.6v-39.1l-8.2,5.7V639.5z
			 M688.5,626.5l8.2-5.6v-39.3l-8.2,5.7V626.5z M707.4,574.2v39.4l8.2-5.6v-39.4L707.4,574.2z"/>
	</g>
	<g id="前面板_1_">
		
			<linearGradient id="面板_2_" gradientUnits="userSpaceOnUse" x1="41.9311" y1="220.4888" x2="357.1262" y2="259.1805" gradientTransform="matrix(1 0 0 1 0 288.75)">
			<stop  offset="0" style="stop-color:#3EADED"/>
			<stop  offset="1" style="stop-color:#0B528D"/>
		</linearGradient>
		<path id="面板_1_" class="st5" d="M334.1,788.9c-5,0-9.9-1.6-14.2-4.5L70.1,618.2C51,604.9,39.6,582.8,39.6,559V293.6
			c0-14,11-25.4,24.5-25.4c4.4,0,8.8,1.3,12.6,3.7l254.8,154.8c17.3,10.9,28,30.6,28,51.5v284.1
			C359.8,778.8,346.5,788.9,334.1,788.9z"/>
		<path id="边_1_" class="st6" d="M64.3,269.2c4.2,0,8.4,1.2,12.2,3.6l254.7,154.8c8.4,5.3,15.4,12.7,20.2,21.6
			c4.8,8.9,7.4,19,7.4,29.1v285.1c0,7.1-2.6,13.6-7.5,18.4c-4.6,4.5-10.9,7.2-17.2,7.2c-4.8,0-9.5-1.5-13.7-4.4L70.8,617.5
			c-18.9-13.1-30.1-34.9-30.1-58.4V293.8C40.7,280.2,51.3,269.2,64.3,269.2L64.3,269.2 M64.3,267.3c-13.3,0-25.5,10.9-25.5,26.3V559
			c0,24.1,11.6,46.5,30.9,59.9l249.7,167.2c4.6,3.2,9.7,4.7,14.7,4.7c13.8,0,26.6-11.3,26.6-27.5V478.2c0-21.4-10.9-41.2-28.5-52.3
			L77.5,271.1C73.2,268.6,68.7,267.3,64.3,267.3L64.3,267.3z"/>
	</g>
	
		<linearGradient id="高光_1_" gradientUnits="userSpaceOnUse" x1="82.5309" y1="-5022.4717" x2="82.5309" y2="-4715.5352" gradientTransform="matrix(1 0 0 -1 0 -4466.7695)">
		<stop  offset="0" style="stop-color:#FFFFFF;stop-opacity:0"/>
		<stop  offset="1" style="stop-color:#FFFFFF;stop-opacity:0.5"/>
	</linearGradient>
	<polygon id="高光_2_" class="st7" points="99.9,586.9 65.3,586.9 65.2,231.9 99.9,253.2 	"/>
	<g>
		<g>
			<path class="st8" d="M102.8,457.8c-2.4-1-4.4-2.9-5.6-5.4c-3-6-0.7-13.6,5.2-17c3.7-2.1,19.2-9.1,40.7-13.3
				c27.8-5.4,54.9-3.8,78.4,4.5c40.2,14.3,70.4,47.7,89.6,99c2.4,6.3-0.7,13.7-6.9,16.4s-13.2-0.2-15.5-6.6
				c-16.6-44.3-41.8-72.8-75-85c-24.7-9-49.7-7.2-66.3-4.1c-18.4,3.5-31.8,9.4-34.1,10.7C109.9,459.1,106.1,459.2,102.8,457.8z
				 M125.4,497.4c3.8-1.9,38.5-18.5,72.2-5.7c22.9,8.8,40.9,29.5,53.3,61.7c2.4,6.3,9.4,9.2,15.6,6.4c6.2-2.8,9.2-10.1,6.8-16.4
				c-14.9-38.6-37.3-63.9-66.6-75.1c-42-16.1-83.2,2.8-91.1,6.8c-6.1,3.1-8.8,10.5-6.1,16.7c1.2,2.8,3.4,4.9,5.9,6
				C118.5,499.1,122.1,499.1,125.4,497.4z M138.4,538.2c3.7-2.8,22.6-10.9,40.4-5.4c15.1,4.7,26.3,18.2,33.4,40.1
				c2.1,6.5,8.9,9.7,15.2,7.3s9.7-9.6,7.7-16.1c-11.9-37-32.9-50.5-48.5-55.3c-26.3-8.2-52.9,2.7-61.6,9.3
				c-5.5,4.1-6.9,11.9-3.2,17.4c1.3,1.9,3,3.2,4.9,4.1C130.3,541.3,134.8,540.9,138.4,538.2z M174.7,557.5c-11-5.1-24,0.7-29.1,12.9
				s-0.3,26.2,10.6,31.3c11,5.1,24-0.7,29.1-12.9C190.4,576.5,185.6,562.5,174.7,557.5z"/>
		</g>
	</g>
</g>
</svg>
