<?xml version="1.0" encoding="utf-8"?>
<!-- Generator: Adobe Illustrator 21.0.0, SVG Export Plug-In . SVG Version: 6.00 Build 0)  -->
<svg version="1.1" id="LOGO" xmlns="http://www.w3.org/2000/svg" xmlns:xlink="http://www.w3.org/1999/xlink" x="0px" y="0px"
	 viewBox="0 0 340 24" style="enable-background:new 0 0 340 24;" xml:space="preserve">
<style type="text/css">
	.st0{enable-background:new    ;}
	.st1{fill:#FFFFFF;}
	.st2{font-family:'ArialMT';}
	.st3{font-size:16px;}
	.st4{font-size:18px;}
	.st5{fill:#F7F7F7;stroke:#F7F7F7;stroke-width:0.4;stroke-miterlimit:10;}
	.st6{font-family:'SimSun';}
	.st7{fill:#F7F7F7;}
	.st8{fill:none;}
	.st9{font-family:'MicrosoftYaHei';}
	.st10{font-size:2.5601px;}
	.st11{fill:none;stroke:#F7F7F7;stroke-width:0.3;stroke-miterlimit:10;}
	.st12{opacity:0.4;fill:none;stroke:#F7F7F7;stroke-miterlimit:10;enable-background:new    ;}
</style>
<text transform="matrix(1 0 0 1 2.5 19.0595)" class="st0"><tspan x="0" y="0" class="st1 st2 st3">SiCAP</tspan><tspan x="47.1" y="0" class="st1 st2 st4"> </tspan></text>
<text transform="matrix(1 0 0 1 124.25 17.977)" class="st5 st6 st3">智能运维安全管理平台</text>
<g id="inforcube">
	<g>
		<g>
			<path class="st7" d="M80.5,13.5c-0.1-0.2-0.3-0.4-0.6-0.5c-0.3-0.1-0.6-0.2-0.9-0.2c-0.7,0-1.4,0.3-1.9,1v-0.9h-1.4v6h1.5v-2.7
				c0-0.7,0-1.1,0.1-1.4c0.1-0.2,0.2-0.4,0.4-0.6c0.2-0.2,0.4-0.2,0.7-0.2c0.2,0,0.4,0.1,0.5,0.2c0.1,0.1,0.2,0.3,0.3,0.4
				c0.1,0.2,0.1,0.6,0.1,1.3v3h1.5v-3.7c0-0.5,0-0.8-0.1-1.1C80.8,13.9,80.7,13.7,80.5,13.5z M87.7,13.1c-0.5,0-1,0.1-1.4,0.4
				c-0.4,0.2-0.7,0.6-1,1.1C85.1,15.1,85,15.5,85,16c0,0.6,0.1,1.2,0.3,1.7c0.2,0.5,0.6,0.8,1,1s0.9,0.4,1.4,0.4
				c0.8,0,1.4-0.3,2-0.8c0.5-0.6,0.8-1.3,0.8-2.1c0-0.8-0.3-1.5-0.8-2.1C89.1,13.4,88.5,13.1,87.7,13.1z M88.6,17.4
				c-0.2,0.3-0.6,0.4-0.9,0.4c-0.4,0-0.7-0.1-0.9-0.4c-0.3-0.3-0.4-0.7-0.4-1.3c0-0.6,0.1-1,0.4-1.3s0.6-0.4,0.9-0.4
				c0.4,0,0.7,0.1,0.9,0.4c0.2,0.3,0.4,0.7,0.4,1.3C89,16.7,88.9,17.1,88.6,17.4z M83.8,12.3c0.1-0.1,0.2-0.2,0.4-0.2
				c0.2,0,0.4,0,0.6,0.1l0.2-1c-0.4-0.1-0.8-0.2-1.2-0.2c-0.4,0-0.7,0.1-1,0.2c-0.3,0.1-0.4,0.3-0.5,0.6c-0.1,0.2-0.1,0.6-0.1,1.1
				v0.4h-0.8v1.2h0.8v4.4h1.4v-4.5h1.1v-1.2h-1.1v-0.3C83.7,12.6,83.7,12.4,83.8,12.3z M93.1,13.3c-0.2,0.1-0.4,0.4-0.6,0.8v-0.8
				h-1.3v5.6h1.4v-1.7c0-1,0-1.6,0.1-1.9c0.1-0.3,0.2-0.5,0.3-0.6c0.1-0.1,0.3-0.2,0.5-0.2s0.4,0.1,0.7,0.2l0.4-1.3
				c-0.3-0.2-0.6-0.3-0.9-0.3C93.5,13.1,93.3,13.2,93.1,13.3z M99.1,17.3c-0.3,0.3-0.6,0.4-1,0.4c-0.5,0-1-0.2-1.3-0.6
				S96.3,16,96.3,15c0-0.9,0.2-1.6,0.5-2s0.8-0.6,1.3-0.6c0.4,0,0.7,0.1,1,0.4c0.3,0.2,0.5,0.6,0.5,1l1.5-0.4
				c-0.2-0.6-0.4-1.1-0.8-1.4c-0.6-0.6-1.3-0.8-2.2-0.8c-1,0-1.9,0.4-2.5,1.1c-0.6,0.7-0.9,1.7-0.9,3c0,1.2,0.3,2.2,0.9,2.9
				s1.4,1.1,2.4,1.1c0.8,0,1.4-0.2,2-0.6c0.5-0.4,0.9-1,1.1-1.9l-1.4-0.5C99.6,16.6,99.4,17,99.1,17.3z M105.8,15.5
				c0,0.9,0,1.4-0.1,1.6s-0.2,0.4-0.4,0.6c-0.2,0.1-0.4,0.2-0.7,0.2c-0.2,0-0.4-0.1-0.6-0.2c-0.1-0.1-0.2-0.3-0.3-0.5
				c-0.1-0.2-0.1-0.7-0.1-1.6v-2.7h-1.5v3.8c0,0.6,0.1,1,0.2,1.3s0.4,0.6,0.7,0.7c0.3,0.2,0.6,0.3,1,0.3s0.7-0.1,1.1-0.3
				c0.3-0.2,0.6-0.4,0.8-0.8v1h1.4v-6h-1.5V15.5z M111.4,13.1c-0.6,0-1.1,0.3-1.5,0.8v-2.8h-1.4v7.8h1.3v-0.8
				c0.2,0.3,0.5,0.6,0.8,0.7c0.3,0.2,0.6,0.2,0.9,0.2c0.6,0,1.1-0.3,1.6-0.8c0.4-0.5,0.6-1.3,0.6-2.2c0-0.9-0.2-1.6-0.6-2.1
				C112.6,13.4,112.1,13.1,111.4,13.1z M111.9,17.4c-0.2,0.3-0.5,0.4-0.8,0.4c-0.4,0-0.7-0.2-1-0.6c-0.2-0.3-0.3-0.7-0.3-1.3
				c0-0.6,0.1-1,0.3-1.3c0.2-0.3,0.5-0.4,0.8-0.4s0.6,0.1,0.8,0.4c0.2,0.3,0.3,0.8,0.3,1.4C112.2,16.7,112.1,17.2,111.9,17.4z
				 M117.3,17.7c-0.2,0.1-0.3,0.2-0.6,0.2c-0.3,0-0.6-0.1-0.8-0.4c-0.2-0.2-0.3-0.6-0.3-1h3.5c0-1.1-0.2-2-0.7-2.6s-1.1-0.8-1.9-0.8
				c-0.7,0-1.3,0.3-1.7,0.8c-0.5,0.5-0.7,1.3-0.7,2.2c0,0.8,0.2,1.4,0.5,1.9c0.4,0.6,1.1,1,2.1,1c0.6,0,1.1-0.1,1.5-0.4
				s0.7-0.7,0.9-1.2l-1.4-0.3C117.6,17.4,117.5,17.6,117.3,17.7z M115.9,14.6c0.2-0.2,0.5-0.4,0.8-0.4s0.5,0.1,0.7,0.3
				s0.3,0.6,0.3,1h-2.1C115.6,15.2,115.7,14.9,115.9,14.6z"/>
			<path class="st7" d="M76.9,11c-0.3-0.7-1.8-0.7-3.6-0.3V8.8c0-0.1-0.3-0.1-0.6-0.1h-2.8c-0.4,0-0.6,0.1-0.6,0.1v3.1l0,0
				c-2.1,0.9-3.8,2-3.6,3.1c0.1,1,1.7,1,3.6,0.6v2.8c0,0.4,0.3,0.7,0.6,0.7h2.8c0.4,0,0.6-0.3,0.6-0.7v-4.2
				C75.6,13.1,77.3,11.8,76.9,11z M73.3,13.7v-0.5l0,0v-2c-1,0.1-4.1,1.4-4.1,1.4V13c0,0.1,0,0.1,0,0.2V15c-1.7,0.4-3,0.3-3.2-0.2
				c-0.2-0.7,1.9-2.2,4.8-3.2c2.8-1,5.3-1.3,5.5-0.5C76.6,11.8,75.3,12.8,73.3,13.7z"/>
			<g>
				<g>
					<ellipse class="st7" cx="71.3" cy="6.1" rx="1.3" ry="1.4"/>
				</g>
			</g>
		</g>
	</g>
	<rect x="119.1" y="8.1" class="st8" width="4.1" height="4"/>
	<text transform="matrix(1 0 0 1 119.1313 10.3018)" class="st7 st9 st10">®</text>
	<text transform="matrix(1 0 0 1 119.1313 10.3018)" class="st11 st9 st10">®</text>
</g>
<line id="分割线" class="st12" x1="58" y1="7.1" x2="58" y2="19"/>
</svg>
